<svg width="63" height="58" viewBox="0 0 63 58" fill="none" xmlns="http://www.w3.org/2000/svg">
<path d="M51.6493 30.9032C52.8199 29.6771 52.8021 27.7012 51.6095 26.4938L36.3442 11.0392C35.1516 9.83177 33.2326 9.84694 32.062 11.073C30.8914 12.2991 30.9092 14.2751 32.1018 15.4825L42.1672 25.6631L13.1655 25.8924C11.4924 25.9057 10.1532 27.3083 10.1687 29.0312C10.1843 30.7541 11.5486 32.1353 13.2218 32.1221L42.214 31.8929L32.3526 42.2311C31.182 43.4572 31.1998 45.4332 32.3924 46.6405C33.585 47.8479 35.5039 47.8328 36.6746 46.6067L51.6588 30.9129L51.6493 30.9032Z" fill="black"/>
</svg>
