<svg width="56" height="58" viewBox="0 0 56 58" fill="none" xmlns="http://www.w3.org/2000/svg">
<path d="M27.0195 15.3501C27.5118 14.8058 28.1793 14.5 28.8754 14.5C29.5715 14.5 30.239 14.8058 30.7313 15.3501L41.2314 26.9647C41.7235 27.5092 42 28.2476 42 29.0175C42 29.7875 41.7235 30.5259 41.2314 31.0704L30.7313 42.6849C30.2362 43.2138 29.5731 43.5065 28.8848 43.4999C28.1966 43.4933 27.5382 43.1879 27.0515 42.6495C26.5648 42.1112 26.2887 41.3829 26.2827 40.6216C26.2767 39.8603 26.5413 39.1268 27.0195 38.5792L33.0387 31.9212H2.62504C1.92883 31.9212 1.26114 31.6152 0.768855 31.0707C0.276565 30.5262 0 29.7876 0 29.0175C0 28.2474 0.276565 27.5089 0.768855 26.9644C1.26114 26.4198 1.92883 26.1139 2.62504 26.1139H33.0387L27.0195 19.4559C26.5274 18.9114 26.2509 18.1729 26.2509 17.403C26.2509 16.6331 26.5274 15.8947 27.0195 15.3501Z" fill="black"/>
<path d="M34.16 0C33.4704 0 32.8091 0.305535 32.3215 0.84939C31.8339 1.39325 31.56 2.13087 31.56 2.9C31.56 3.66913 31.8339 4.40675 32.3215 4.95061C32.8091 5.49447 33.4704 5.8 34.16 5.8H47.16C48.1254 5.8 49.0512 6.22775 49.7339 6.98915C50.4165 7.75054 50.8 8.78322 50.8 9.86V48.14C50.8 49.2168 50.4165 50.2495 49.7339 51.0109C49.0512 51.7723 48.1254 52.2 47.16 52.2H32.6C31.9104 52.2 31.2491 52.5055 30.7615 53.0494C30.2739 53.5932 30 54.3309 30 55.1C30 55.8691 30.2739 56.6068 30.7615 57.1506C31.2491 57.6945 31.9104 58 32.6 58H47.16C49.5045 58 51.753 56.9612 53.4108 55.1121C55.0686 53.263 56 50.755 56 48.14V9.86C56 7.24497 55.0686 4.73704 53.4108 2.88793C51.753 1.03882 49.5045 0 47.16 0H34.16Z" fill="black"/>
</svg>
