<svg width="57" height="79" viewBox="0 0 57 79" fill="none" xmlns="http://www.w3.org/2000/svg">
<g clip-path="url(#clip0_398_361)">
<path d="M28.4982 40.5973C30.9199 40.5973 32.8831 38.6322 32.8831 36.2081C32.8831 33.784 30.9199 31.8188 28.4982 31.8188C26.0765 31.8188 24.1133 33.784 24.1133 36.2081C24.1133 38.6322 26.0765 40.5973 28.4982 40.5973Z" fill="black"/>
<path d="M7.67235 44.9858C9.79114 44.9858 11.5088 43.2665 11.5088 41.1456C11.5088 39.0247 9.79114 37.3054 7.67235 37.3054C5.55356 37.3054 3.83594 39.0247 3.83594 41.1456C3.83594 43.2665 5.55356 44.9858 7.67235 44.9858Z" fill="black"/>
<path d="M49.3247 44.9858C51.4435 44.9858 53.1611 43.2665 53.1611 41.1456C53.1611 39.0247 51.4435 37.3054 49.3247 37.3054C47.2059 37.3054 45.4883 39.0247 45.4883 41.1456C45.4883 43.2665 47.2059 44.9858 49.3247 44.9858Z" fill="black"/>
<path d="M33.9807 42.7919H23.0192C21.2032 42.7919 19.7305 44.2669 19.7305 46.0839V57.0562C19.7305 58.8748 21.2024 60.3481 23.0192 60.3481L24.1154 79H32.8844L33.9807 60.3473C35.7975 60.3473 37.2694 58.874 37.2694 57.0554V46.0831C37.2694 44.2661 35.7959 42.7919 33.9807 42.7919Z" fill="black"/>
<path d="M53.7101 47.1804H44.9402C43.3515 47.1804 41.6523 48.882 41.6523 50.4723V59.7991C41.6523 61.3901 42.9404 62.6794 44.5298 62.6794L45.4888 79H53.1624L54.1213 62.6786C55.7116 62.6786 56.9988 61.3893 56.9988 59.7983V50.4723C56.9988 48.882 55.298 47.1804 53.7101 47.1804Z" fill="black"/>
<path d="M12.0577 47.1804H3.28869C1.69998 47.1804 0 48.882 0 50.4723V59.7991C0 61.3901 1.28801 62.6794 2.8775 62.6794L3.83641 79H11.51L12.4689 62.6786C14.0584 62.6786 15.3464 61.3893 15.3464 59.7983V50.4723C15.3456 48.882 13.6464 47.1804 12.0577 47.1804Z" fill="black"/>
<path d="M11.9262 16.5932L23.0187 27.6966L45.0719 5.62085C45.6678 5.02519 46.0379 4.20201 46.0379 3.29114C46.0379 1.47335 44.5644 0 42.7492 0C41.8408 0 41.0177 0.36893 40.4218 0.96696L23.0187 18.3865L16.577 11.9385C15.9812 11.3412 15.158 10.9715 14.2496 10.9715C12.4344 10.9715 10.9609 12.4449 10.9609 14.2635C10.9609 15.1743 11.3303 15.9975 11.9262 16.5932Z" fill="black"/>
</g>
<defs>
<clipPath id="clip0_398_361">
<rect width="57" height="79" fill="white"/>
</clipPath>
</defs>
</svg>
