<svg width="77" height="62" viewBox="0 0 77 62" fill="none" xmlns="http://www.w3.org/2000/svg">
<path d="M49 38.75C39.655 38.75 21 43.9038 21 54.25V62H77V54.25C77 43.9038 58.345 38.75 49 38.75ZM17.5 23.25V11.625H10.5V23.25H0V31H10.5V42.625H17.5V31H28V23.25M49 31C52.713 31 56.274 29.367 58.8995 26.4602C61.525 23.5533 63 19.6109 63 15.5C63 11.3891 61.525 7.44666 58.8995 4.53984C56.274 1.63303 52.713 0 49 0C45.287 0 41.726 1.63303 39.1005 4.53984C36.475 7.44666 35 11.3891 35 15.5C35 19.6109 36.475 23.5533 39.1005 26.4602C41.726 29.367 45.287 31 49 31Z" fill="black"/>
</svg>
