<svg width="101" height="82" viewBox="0 0 101 82" fill="none" xmlns="http://www.w3.org/2000/svg">
<path d="M58.6 50.3C59.7475 50.3 60.7431 49.9771 61.5869 49.3312C62.4306 48.6854 62.8525 47.9233 62.8525 47.045C62.8525 46.1667 62.4306 45.4046 61.5869 44.7588C60.7431 44.1129 59.7475 43.79 58.6 43.79C57.4525 43.79 56.4569 44.1129 55.6131 44.7588C54.7694 45.4046 54.3475 46.1667 54.3475 47.045C54.3475 47.9233 54.7694 48.6854 55.6131 49.3312C56.4569 49.9771 57.4525 50.3 58.6 50.3ZM55.5625 40.38H61.6375C61.6375 38.8817 61.84 37.7838 62.245 37.0863C62.65 36.3888 63.595 35.4717 65.08 34.335C67.105 32.785 68.455 31.5321 69.13 30.5763C69.805 29.6204 70.1425 28.4967 70.1425 27.205C70.1425 24.88 69.0794 22.9812 66.9531 21.5087C64.8269 20.0363 62.0425 19.3 58.6 19.3C55.8325 19.3 53.4194 19.8942 51.3606 21.0825C49.3019 22.2708 47.8675 23.8467 47.0575 25.81L52.525 27.515C53.1325 26.2233 53.9594 25.2546 55.0056 24.6088C56.0519 23.9629 57.25 23.64 58.6 23.64C60.22 23.64 61.5363 23.9888 62.5488 24.6862C63.5612 25.3837 64.0675 26.3267 64.0675 27.515C64.0675 28.2383 63.7975 28.9229 63.2575 29.5688C62.7175 30.2146 61.7725 31.0283 60.4225 32.01C58.195 33.5083 56.8281 34.6838 56.3219 35.5363C55.8156 36.3888 55.5625 38.0033 55.5625 40.38ZM34.3 59.6C32.0725 59.6 30.1656 58.9929 28.5794 57.7788C26.9931 56.5646 26.2 55.105 26.2 53.4V16.2C26.2 14.495 26.9931 13.0354 28.5794 11.8212C30.1656 10.6071 32.0725 10 34.3 10H82.9C85.1275 10 87.0344 10.6071 88.6206 11.8212C90.2069 13.0354 91 14.495 91 16.2V53.4C91 55.105 90.2069 56.5646 88.6206 57.7788C87.0344 58.9929 85.1275 59.6 82.9 59.6H34.3ZM34.3 53.4H82.9V16.2H34.3V53.4ZM18.1 72C15.8725 72 13.9656 71.3929 12.3794 70.1787C10.7931 68.9646 10 67.505 10 65.8V22.4H18.1V65.8H74.8V72H18.1Z" fill="black"/>
</svg>
