<svg width="82" height="85" viewBox="0 0 82 85" fill="none" xmlns="http://www.w3.org/2000/svg">
<path d="M9.05 38.3994C12.65 47.99 18.45 55.8183 25.525 60.7322L31.025 53.2767C31.7 52.3617 32.7 52.0567 33.575 52.4633C36.375 53.7172 39.4 54.395 42.5 54.395C43.875 54.395 45 55.92 45 57.7839V69.6111C45 71.475 43.875 73 42.5 73C19.025 73 0 47.2106 0 15.3889C0 13.525 1.125 12 2.5 12H11.25C12.625 12 13.75 13.525 13.75 15.3889C13.75 19.625 14.25 23.6917 15.175 27.4872C15.45 28.6733 15.25 29.995 14.55 30.9439L9.05 38.3994Z" fill="black"/>
</svg>
