<?xml version="1.0" encoding="UTF-8"?>
<svg xmlns="http://www.w3.org/2000/svg" xmlns:xlink="http://www.w3.org/1999/xlink" version="1.1" viewBox="0 0 616.3 422.8">
  <defs>
    <style>
      .cls-1 {
        fill: none;
      }

      .cls-2 {
        fill: #e0e0e0;
      }

      .cls-3 {
        fill: #bbdbe4;
      }

      .cls-4 {
        fill: #ffbe9d;
      }

      .cls-5 {
        fill: #ebebeb;
      }

      .cls-6 {
        fill: #263238;
      }

      .cls-7 {
        fill: #eb996e;
      }

      .cls-8 {
        fill: #fff;
      }

      .cls-9 {
        fill: #fafafa;
      }

      .cls-10 {
        opacity: .3;
      }

      .cls-11 {
        fill: #f5f5f5;
      }

      .cls-12 {
        fill: #e8505b;
      }

      .cls-13 {
        fill: #455a64;
      }

      .cls-14 {
        display: none;
      }

      .cls-15 {
        fill: #cae9eb;
      }

      .cls-16 {
        clip-path: url(#clippath);
      }
    </style>
    <clipPath id="clippath">
      <path class="cls-1" d="M127.6,199.1c.2.4.4.8.4,1.3,0,1.4-1.1,2.5-2.5,2.5s-2.5-1.1-2.5-2.5.1-.9.4-1.3h-2.9c.2.4.4.8.4,1.3,0,1.4-1.1,2.5-2.5,2.5s-2.5-1.1-2.5-2.5.1-.9.4-1.3h-2.9c.2.4.4.8.4,1.3,0,1.4-1.1,2.5-2.5,2.5s-2.5-1.1-2.5-2.5.1-.9.4-1.3h-2.9c.2.4.4.8.4,1.3,0,1.4-1.1,2.5-2.5,2.5s-2.5-1.1-2.5-2.5.1-.9.4-1.3h-2.9c.2.4.4.8.4,1.3,0,1.4-1.1,2.5-2.5,2.5s-2.5-1.1-2.5-2.5.1-.9.4-1.3h-2.9c.2.4.4.8.4,1.3,0,1.4-1.1,2.5-2.5,2.5s-2.5-1.1-2.5-2.5.1-.9.4-1.3h-1.8v52.6h43.8v-52.6h-1.1Z"/>
    </clipPath>
  </defs>
  <!-- Generator: Adobe Illustrator 28.6.0, SVG Export Plug-In . SVG Version: 1.2.0 Build 709)  -->
  <g>
    <g id="Calque_1">
      <g id="Background_Complete" class="cls-14">
        <g>
          <polygon class="cls-5" points="252.7 46.6 270.6 103.2 257.6 103.2 251.9 83.7 252.7 46.6"/>
          <rect class="cls-2" x="21.5" y="103.1" width="267.4" height="16"/>
          <rect class="cls-2" x="58.7" y="115.6" width="12.9" height="24.5"/>
          <rect class="cls-2" x="225.7" y="115.6" width="12.9" height="24.5"/>
          <g>
            <g>
              <path class="cls-5" d="M30.5,29.1s-12,9.1-.5,21.2c.2.2.5.3.8.3l104.8-.6s8.9-10,1.5-21.6c0,0-106.6.7-106.6.7Z"/>
              <path class="cls-2" d="M112.5,38.6c0,.1-13.1.2-29.2.2s-29.2,0-29.2-.2,13-.2,29.2-.2,29.2,0,29.2.2Z"/>
              <path class="cls-2" d="M96.2,42.4c0,.1-6.1.2-13.7.2s-13.7,0-13.7-.2,6.1-.2,13.7-.2,13.7,0,13.7.2Z"/>
              <path class="cls-2" d="M123.2,49.7c0,0,.2-1.2.6-3.2.3-1.9.6-4.7.6-7.7,0-3-.4-5.7-.8-7.6-.4-1.9-.7-3.1-.6-3.1,0,0,.1.3.3.8.2.5.4,1.3.6,2.3.4,1.9.8,4.7.9,7.7s-.3,5.8-.7,7.7c-.2,1-.4,1.8-.6,2.3-.2.5-.3.8-.3.8h0Z"/>
              <path class="cls-2" d="M131,28.2s.2.3.5.8.3.6.5.9c.2.4.4.8.5,1.3.4,1,.7,2.1,1,3.5.3,1.3.4,2.8.5,4.4,0,1.6-.1,3.1-.4,4.4-.3,1.3-.6,2.5-.9,3.5-.2.5-.4.9-.5,1.3s-.3.7-.4,1c-.3.5-.4.8-.4.8,0,0,.5-1.2,1.1-3.1.3-1,.6-2.1.8-3.5.2-1.3.4-2.8.4-4.3,0-1.5-.2-3-.4-4.3-.2-1.3-.6-2.5-.9-3.5-.7-1.9-1.3-3-1.2-3.1h0Z"/>
              <path class="cls-2" d="M47.1,49.8s-.2-.2-.5-.7c-.2-.2-.3-.5-.5-.9-.2-.3-.4-.7-.6-1.2-.4-.9-.7-2-1-3.3-.2-1.3-.4-2.7-.4-4.2,0-1.5.2-2.9.5-4.2.3-1.3.7-2.4,1.1-3.3.2-.5.4-.8.6-1.2s.4-.6.5-.9c.3-.5.5-.7.5-.7,0,0-.6,1.1-1.3,2.9-.4.9-.7,2-1,3.2-.3,1.2-.5,2.7-.5,4.1,0,1.5.1,2.9.4,4.1.2,1.2.6,2.4.9,3.3.7,1.8,1.3,2.8,1.3,2.9h0Z"/>
              <path class="cls-2" d="M35.8,52.3s-.2-.3-.5-.8c-.2-.3-.4-.6-.5-1s-.4-.8-.6-1.3c-.5-1-.9-2.3-1.2-3.7-.3-1.4-.5-3-.6-4.7,0-1.7.1-3.3.4-4.8.3-1.4.6-2.7,1-3.8.2-.5.4-1,.6-1.4s.3-.7.5-1c.3-.5.5-.8.5-.8,0,0-.6,1.2-1.3,3.3-.4,1-.7,2.3-.9,3.7-.2,1.4-.4,3-.3,4.7,0,1.7.3,3.2.5,4.7.3,1.4.7,2.7,1.1,3.7.8,2,1.5,3.2,1.4,3.2h0Z"/>
            </g>
            <g>
              <g>
                <path class="cls-5" d="M131.8,81.9v20.1h-38.8v-20.1h38.8Z"/>
                <path class="cls-2" d="M6.4,92.1c0,.2,0,.3,0,.5.3,6.1,5.5,10.8,11.5,10.8h115.6v-1.4h-27.4c-5.5,0-10-4.5-10-10h0c0-5.5,4.5-10,10-10h27.4v-2.1l-115.7.4c-6.5,0-11.8,5.4-11.5,12h0Z"/>
                <path class="cls-2" d="M131.8,92.2c0,.1-8,.2-17.8.2s-17.8,0-17.8-.2,8-.2,17.8-.2,17.8,0,17.8.2Z"/>
                <path class="cls-2" d="M131.2,96.7c0,.1-7.6.2-16.9.2s-16.9,0-16.9-.2,7.6-.2,16.9-.2,16.9,0,16.9.2Z"/>
                <path class="cls-2" d="M131.8,100.9c0,.1-6.8.2-15.2.2s-15.2,0-15.2-.2,6.8-.2,15.2-.2,15.2,0,15.2.2Z"/>
                <path class="cls-2" d="M131.8,88.2c0,.1-7.8.2-17.5.2s-17.5,0-17.5-.2,7.8-.2,17.5-.2,17.5,0,17.5.2Z"/>
                <path class="cls-2" d="M131.2,84.1c0,.1-7,.2-15.5.2s-15.5,0-15.5-.2,7-.2,15.5-.2,15.5,0,15.5.2Z"/>
              </g>
              <path class="cls-11" d="M20.4,80.5c0,0-1.1,1-2.5,2.9-1.3,1.9-2.7,5-2.6,8.6,0,3.6,1.5,6.7,2.8,8.6,1.4,1.9,2.6,2.8,2.5,2.9,0,0-.3-.2-.8-.6-.5-.4-1.2-1.1-1.9-2.1-1.5-1.9-3-5-3-8.7,0-3.7,1.4-6.9,2.8-8.8.7-1,1.4-1.7,1.9-2.1s.8-.7.8-.6h0Z"/>
              <path class="cls-11" d="M16.5,80.1c0,0-1.1,1-2.5,2.9-1.3,1.9-2.7,5-2.6,8.6,0,3.6,1.5,6.7,2.8,8.6,1.4,1.9,2.6,2.8,2.5,2.9,0,0-.3-.2-.8-.6-.5-.4-1.2-1.1-1.9-2.1-1.5-1.9-3-5-3-8.7,0-3.7,1.4-6.9,2.8-8.8.7-1,1.4-1.7,1.9-2.1.5-.4.8-.7.8-.6h0Z"/>
              <path class="cls-11" d="M95.1,80.5c0,0-1.1,1-2.5,2.9-1.3,1.9-2.7,5-2.6,8.6,0,3.6,1.5,6.7,2.8,8.6,1.4,1.9,2.6,2.8,2.5,2.9,0,0-.3-.2-.8-.6-.5-.4-1.2-1.1-1.9-2.1-1.5-1.9-3-5-3-8.7,0-3.7,1.4-6.9,2.8-8.8.7-1,1.4-1.7,1.9-2.1s.8-.7.8-.6h0Z"/>
              <path class="cls-11" d="M91.2,80.1c0,0-1.1,1-2.5,2.9-1.3,1.9-2.7,5-2.6,8.6,0,3.6,1.5,6.7,2.8,8.6,1.4,1.9,2.6,2.8,2.5,2.9,0,0-.3-.2-.8-.6-.5-.4-1.2-1.1-1.9-2.1-1.5-1.9-3-5-3-8.7,0-3.7,1.4-6.9,2.8-8.8.7-1,1.4-1.7,1.9-2.1s.8-.7.8-.6h0Z"/>
              <path class="cls-11" d="M33.6,94.9v-8.2c-.1-.7-.1-1.4-.4-2.1-.3-.7-.8-1.2-1.5-1.3-1-.4-2.6.4-3.3,1.6-.7,1.2-.8,2.6-.8,4,0,2.2,0,4.3.3,6.4.1,1,.2,2.1.8,2.9s1.5,1.6,2.5,1.5c1,0,1.8-.9,2.2-1.9s.3-2,.3-3h0Z"/>
              <path class="cls-11" d="M78.5,92.6c0,.1-8.4.2-18.7.2s-18.7,0-18.7-.2,8.4-.2,18.7-.2,18.7,0,18.7.2Z"/>
            </g>
            <g>
              <g>
                <g>
                  <polygon class="cls-11" points="25.8 79.7 25.6 60.7 36 60.7 36.3 79.7 25.8 79.7"/>
                  <path class="cls-2" d="M35.4,64.1c0,.1-2.2.2-4.8.2s-4.8,0-4.8-.2,2.1-.2,4.8-.2,4.8,0,4.8.2Z"/>
                  <path class="cls-2" d="M35.4,67c0,.1-2.2.2-4.8.2s-4.8,0-4.8-.2,2.1-.2,4.8-.2,4.8,0,4.8.2Z"/>
                  <path class="cls-2" d="M35.4,69.9c0,.1-2.2.2-4.8.2s-4.8,0-4.8-.2,2.1-.2,4.8-.2,4.8,0,4.8.2Z"/>
                  <path class="cls-2" d="M35.4,72.9c0,.1-2.2.2-4.8.2s-4.8,0-4.8-.2,2.1-.2,4.8-.2,4.8,0,4.8.2Z"/>
                  <path class="cls-2" d="M35.4,75.8c0,.1-2.2.2-4.8.2s-4.8,0-4.8-.2,2.1-.2,4.8-.2,4.8,0,4.8.2Z"/>
                </g>
                <path class="cls-5" d="M25.1,60.2h114.7c1.4,6.3,1.2,13.2,0,20.5H25.6v-1.4h7c1.8,0,3.3-1.5,3.3-3.3v-11.4c0-1.8-1.5-3.3-3.3-3.3h-7.5v-1.2h0Z"/>
                <g>
                  <path class="cls-9" d="M52.2,70.5h1.9c0,0,.1,0,.2,0,.1,0,.2.2.2.4s0,0,0,.1c0,.2,0,.3-.1.5-.3.9-.7,1.6-1.2,2.2-.5.6-1.1.8-1.6.8s-.2,0-.2,0c-.5,0-1-.4-1.3-.9-.4-.6-.6-1.4-.6-2.3s0-1.1.2-1.6c.2-.9.6-1.6,1.1-2.2.5-.6,1.1-.9,1.7-.9s.5,0,.7.2c.5.2.9.7,1.1,1.4,0,0,0,.1,0,.2s0,.1,0,.2c0,.1-.2.2-.3.2s0,0-.1,0c-.1,0-.2-.1-.3-.3h0c0-.2-.1-.4-.2-.5-.2-.4-.6-.6-.9-.6s-.4,0-.6.2c-.4.3-.8.8-1,1.5-.3.7-.5,1.4-.5,2.2s.1,1.2.3,1.7c.2.5.6.8,1,.8s.6-.2.9-.6c.4-.5.7-1.1,1-1.8-.9,0-1.3,0-1.4,0-.3,0-.5-.2-.5-.5,0,0,0,0,0-.1,0-.2.2-.2.4-.2h0Z"/>
                  <path class="cls-9" d="M58.7,66.7s0,0,0,.1c0,.3.5,2.7,1.3,7.1,0,0,0,0,0,0,0,0,0,.1,0,.2,0,.1-.2.2-.3.2h0c-.2,0-.3-.1-.3-.3l-.5-2.4h-2.4l-1.1,2.4s0,0,0,0c-.1.1-.2.2-.3.2s-.2,0-.2,0c-.1,0-.2-.2-.2-.3s0,0,0-.1c0-.2.2-.4.3-.8,1.7-3.6,2.6-5.7,3-6.4,0-.2.2-.3.4-.3.2,0,.3,0,.4.2h0ZM58.2,68.3l-1.3,2.7h1.8l-.5-2.7Z"/>
                  <path class="cls-9" d="M65.1,74.5h-3.5c0,0-.2,0-.2,0,0,0-.2-.2-.2-.4h0c0-.2.3-2.5,1-7.1,0,0,0,0,0-.2,0-.2.2-.2.4-.2s.1,0,.2,0c.1,0,.2.2.2.4,0,.3-.1,1-.2,1.9-.4,3-.6,4.6-.6,4.8h2.9c0,0,.2,0,.2,0,.2,0,.3.2.3.4s0,0,0,.1c0,.2-.2.2-.4.3h0Z"/>
                  <path class="cls-9" d="M69.8,66.7s0,0,0,.1c0,.3.5,2.7,1.3,7.1,0,0,0,0,0,0,0,0,0,.1,0,.2,0,.1-.2.2-.3.2h0c-.2,0-.3-.1-.3-.3l-.5-2.4h-2.4l-1.1,2.4s0,0,0,0c-.1.1-.2.2-.3.2s-.2,0-.2,0c-.1,0-.2-.2-.2-.3s0,0,0-.1c0-.2.2-.4.3-.8,1.7-3.6,2.6-5.7,3-6.4,0-.2.2-.3.4-.3.2,0,.3,0,.4.2h0ZM69.3,68.3l-1.3,2.7h1.8s-.5-2.7-.5-2.7Z"/>
                  <path class="cls-9" d="M75.3,70.8c.3.8.5,1.3.6,1.7.4,1,.5,1.5.5,1.6s0,.1,0,.2c0,.1-.2.2-.3.2s-.3,0-.3-.3c0,0,0-.1,0-.2-.2-.4-.5-1.2-.9-2.4l-2,2.7c-.1.1-.2.2-.4.2,0,0-.2,0-.2,0-.1,0-.2-.2-.2-.3h0c0-.1,0-.3.2-.4.7-.8,1.4-1.9,2.2-3,0-.2-.2-.4-.2-.7-.7-2-1.1-3-1.1-3.1s0-.2,0-.2c0-.1.2-.2.3-.2s.3,0,.4.2l1.2,3.1,2.3-3.1c0-.1.2-.2.4-.2,0,0,.1,0,.2,0,.1,0,.2.2.2.4s0,.1,0,.2l-2.7,3.7h0Z"/>
                  <path class="cls-9" d="M83.9,66.6c0,0,.1,0,.2,0,.1,0,.2.2.2.3-.6,4.5-.9,6.9-.9,7.2-.1.8-.4,1.4-.7,1.9-.6.8-1.3,1.1-2.3,1.1s-.7,0-1.1-.3c-.6-.3-1-.6-1.2-1.1s0-.1,0-.2,0-.1,0-.2c0-.1.2-.2.3-.2s.2,0,.3.2c.5.7,1.1,1,1.8,1s1-.2,1.4-.7c.4-.5.7-1.2.8-2.2-.1.2-.3.4-.5.5-.4.3-.8.4-1.2.4s-.2,0-.2,0c-.5,0-1-.4-1.3-.9-.4-.6-.6-1.4-.6-2.3s0-.8,0-1.3c0-.7.2-1.7.5-3,0,0,0,0,0-.1,0-.2.2-.3.4-.3s.1,0,.2,0c.1,0,.2.2.2.3,0,.2,0,.7-.2,1.6-.2,1.2-.3,2-.3,2.4,0,.8,0,1.4.3,1.9.2.6.6.8,1,.8s0,0,.1,0c.3,0,.7-.3,1-.8.4-.6.7-1.2.8-1.9l.5-3.9c0,0,0-.1,0-.2,0-.2.2-.2.4-.2h0Z"/>
                </g>
                <path class="cls-11" d="M135.5,81c-.1,0-.2-4.7-.2-10.5s0-10.5.2-10.5.2,4.7.2,10.5,0,10.5-.2,10.5Z"/>
                <path class="cls-2" d="M41.6,81c-.1,0-.2-4.7-.2-10.5s0-10.5.2-10.5.2,4.7.2,10.5,0,10.5-.2,10.5Z"/>
                <path class="cls-11" d="M137.5,81c-.1,0-.2-4.7-.2-10.5s0-10.5.2-10.5.2,4.7.2,10.5,0,10.5-.2,10.5Z"/>
                <path class="cls-2" d="M39.7,81c-.1,0-.2-4.7-.2-10.5s0-10.5.2-10.5.2,4.7.2,10.5,0,10.5-.2,10.5Z"/>
              </g>
              <g>
                <path class="cls-2" d="M107.7,63.4h0c3.1,2.5,7.4,5.9,12.1,9.7h.1c0,0-.1.1-.1.1-.5.1-1.1.3-1.6.4-3.7,1-7.2,1.9-10.2,2.7h0c-3.8-1.6-7-3-9.3-3.9-1.1-.5-2-.9-2.6-1.1-.3-.1-.5-.2-.7-.3,0,0-.1,0-.2,0,0,0,0,0,0,0,0,0,0,0,0,0,0,0,.1,0,.2,0,.2,0,.4.2.7.3.6.3,1.5.6,2.6,1.1,2.3.9,5.5,2.3,9.3,3.9h0c3.1-.8,6.6-1.7,10.2-2.7.6-.2,1.1-.3,1.6-.4h0c-4.7-3.7-9-7.2-12.1-9.7h0"/>
                <polygon class="cls-2" points="118.7 71.6 119.3 72.2 120.2 72.1 119.8 72.9 120.3 73.7 119.4 73.5 118.8 74.2 118.6 73.3 117.8 73 118.6 72.5 118.7 71.6"/>
                <polygon class="cls-2" points="107.1 75.5 107.5 75.8 108.1 75.7 107.9 76.2 108.2 76.7 107.6 76.7 107.2 77.2 107.1 76.6 106.5 76.4 107 76.1 107.1 75.5"/>
                <polygon class="cls-2" points="94.2 70.2 94.9 70.3 95.4 69.7 95.6 70.4 96.2 70.6 95.6 71 95.6 71.7 95 71.3 94.3 71.5 94.6 70.8 94.2 70.2"/>
                <polygon class="cls-2" points="124.1 63.5 124.8 63.6 125.3 63 125.5 63.7 126.2 64 125.5 64.4 125.5 65.1 125 64.6 124.3 64.8 124.5 64.2 124.1 63.5"/>
                <polygon class="cls-2" points="107.1 63.1 107.6 63.1 107.8 62.7 107.9 63.2 108.4 63.3 108 63.6 108 64.1 107.6 63.8 107.2 63.9 107.3 63.5 107.1 63.1"/>
                <path class="cls-2" d="M125.1,64.1s-3.9,0-8.8-.3-8.8-.4-8.8-.5c0,0,3.9,0,8.8.3,4.8.2,8.8.4,8.8.5Z"/>
              </g>
            </g>
            <g>
              <path class="cls-2" d="M129.6,60H13.2c-1.5-3.5-1.9-6.7,0-9.7h116.4c1.5,3.5,1.4,6.7,0,9.7Z"/>
              <rect class="cls-5" x="37.3" y="53.1" width="63" height="3.5"/>
              <path class="cls-2" d="M17.6,60.1s-.5-.4-.9-1.2-.9-2-1.1-3.4.1-2.7.5-3.6c.3-.9.7-1.3.7-1.3,0,0-.2.5-.4,1.4-.2.9-.4,2.1-.3,3.4s.5,2.5.9,3.3c.4.8.7,1.3.6,1.3h0Z"/>
              <path class="cls-2" d="M20.2,60.1s-.5-.4-.9-1.2-.9-2-1.1-3.4c-.1-1.4.1-2.7.5-3.6.3-.9.7-1.3.7-1.3,0,0-.2.5-.4,1.4-.2.9-.4,2.1-.3,3.4s.5,2.5.9,3.3c.4.8.7,1.3.6,1.3h0Z"/>
              <path class="cls-11" d="M124.8,59.8c-.1,0,.8-2.1.8-4.7,0-2.7-.9-4.7-.8-4.7,0,0,1.2,2,1.2,4.8,0,2.8-1.2,4.8-1.2,4.7h0Z"/>
              <path class="cls-11" d="M122.7,59.8c-.1,0,.4-2.1.3-4.6,0-2.6-.5-4.6-.4-4.6,0,0,.8,2,.8,4.6,0,2.6-.7,4.7-.8,4.6Z"/>
            </g>
          </g>
          <g>
            <g>
              <polygon class="cls-2" points="172.8 0 252.7 0 252.7 104.2 173.4 104.2 172.8 0"/>
              <g>
                <rect class="cls-8" x="167" y=".5" width="79.4" height="103.1"/>
                <path class="cls-2" d="M246.8.1v103.9h-80.2V.1h80.2ZM246,103.3V.9h-78.6v102.4h78.6,0Z"/>
              </g>
              <g>
                <rect class="cls-8" x="175.3" y="11.7" width="60.8" height="80.8"/>
                <path class="cls-2" d="M175.2,11.7s0,.1,0,.4c0,.3,0,.6,0,1.1,0,1,0,2.5,0,4.4,0,3.9,0,9.5,0,16.6,0,14.2,0,34.4,0,58.3l-.2-.2c18.2,0,38.9,0,60.8,0h0l-.2.2c0-30.1,0-58,0-80.8l.2.2c-18.4,0-33.5,0-44.1,0-5.3,0-9.4,0-12.3,0-1.4,0-2.5,0-3.2,0-.7,0-1.1,0-1.1,0,0,0,.4,0,1.1,0,.7,0,1.8,0,3.2,0,2.8,0,7,0,12.2,0,10.6,0,25.8,0,44.2,0h.2v.2c0,22.8,0,50.7,0,80.8v.2h-.2c-21.9,0-42.5,0-60.8,0h-.2v-.2c0-24,0-44.2,0-58.4,0-7.1,0-12.7,0-16.5,0-1.9,0-3.4,0-4.4s0-.9,0-1.1c0-.2,0-.4,0-.4h0Z"/>
              </g>
              <path class="cls-2" d="M166.8,103.7s.4-.7,1.1-1.7c.7-1.1,1.7-2.5,2.9-4,1.1-1.6,2.2-2.9,3-3.9s1.3-1.5,1.4-1.5c0,0-.4.7-1.2,1.7-.8,1.1-1.8,2.5-2.9,3.9-1.1,1.5-2.1,2.8-2.9,3.9-.8,1-1.3,1.6-1.3,1.6Z"/>
              <path class="cls-2" d="M167,.5c0,0,2,2.4,4.2,5.5,2.2,3.1,4,5.6,3.9,5.7,0,0-2-2.4-4.2-5.5-2.2-3.1-4-5.6-3.9-5.7h0Z"/>
              <g>
                <line class="cls-1" x1="246.4" y1=".5" x2="236" y2="12.1"/>
                <path class="cls-2" d="M236,12.1c0,0,2.2-2.7,5.1-5.9,2.9-3.2,5.3-5.7,5.4-5.7,0,0-2.2,2.7-5.1,5.9-2.9,3.2-5.3,5.7-5.4,5.7Z"/>
              </g>
              <path class="cls-2" d="M246.4,103.7c0,0-2.4-2.3-5.1-5.4-2.8-3.1-4.9-5.6-4.8-5.7,0,0,2.4,2.3,5.1,5.4,2.8,3.1,4.9,5.6,4.8,5.7Z"/>
            </g>
            <path class="cls-2" d="M178.1,92.5s6.5-20.3,10.4-22.4c4.2-2.3,10.4-4.6,17.1-4.6,9,0,13.3.6,18.6,4.2,6.1,4.2,10.2,22.6,10.2,22.6"/>
            <g>
              <path class="cls-2" d="M196.2,32.2c-5.6.2-7,7.8-6.6,12,.2,2,.8,4.2-.2,6-.7,1.2-2.2,2-2.8,3.3-.7,1.6,0,3.4.5,5.1.5,1.7.8,3.8-.6,4.9,3.2.8,6.4,1.7,9.6,1.8,3.3.2,6.7-.4,9.4-2.1"/>
              <g>
                <path class="cls-2" d="M192.2,47.1c-3.7-8.5,1.3-13.6,4.6-15.5,1.9-1.1,4.2-1.3,6.5-1.4,2.2,0,4.4,0,6.6.6,2.1.5,4.2,1.6,5.7,3.2,2.7,2.9,3.3,7.1,3.1,11-.3,4.6-1.6,9.2-3.9,13.2-.3.5-.6,1-1.1,1.3-.5.3-1.3.2-1.6-.3"/>
                <g>
                  <g>
                    <path class="cls-11" d="M204.7,76.1c3.8.3,7.1-3,7.5-8.8l2-29.7v2c-.1-1.2-1.1-2.3-2.3-2.4l-11.8-1.2c-4.1-.4-7.6,2.6-7.9,6.7-.3,4.5-.4,10.1.1,13.4,1.1,6.8,6.3,7.6,6.3,7.6l-.4,4.9c-.3,3.8,2.6,7.2,6.4,7.4h0Z"/>
                    <g>
                      <path class="cls-2" d="M194.5,46.5c0,.5.4.8.8.9.5,0,.9-.3.9-.8s-.4-.8-.8-.9c-.5,0-.9.3-.9.8h0Z"/>
                      <path class="cls-2" d="M193.5,45.6c.1.1.8-.4,1.7-.4.9,0,1.6.5,1.7.3,0,0,0-.3-.4-.5-.3-.2-.8-.4-1.4-.4-.6,0-1.1.2-1.4.4-.3.2-.4.4-.3.5h0Z"/>
                    </g>
                    <g>
                      <path class="cls-2" d="M203.5,46.5c0,.5.4.8.8.9.5,0,.9-.3.9-.8,0-.5-.4-.8-.8-.9-.5,0-.9.3-.9.8Z"/>
                      <path class="cls-2" d="M202.7,45.7c.1.1.8-.4,1.7-.4.9,0,1.6.5,1.7.3,0,0,0-.3-.4-.5-.3-.2-.8-.4-1.4-.4-.6,0-1.1.2-1.4.4-.3.2-.4.4-.3.5h0Z"/>
                    </g>
                    <path class="cls-2" d="M199.3,52.7s-.6-.2-1.5-.3c-.2,0-.5,0-.5-.2,0-.2,0-.4.2-.7.2-.6.5-1.2.7-1.8,1-2.6,1.7-4.7,1.6-4.8-.1,0-1,2-1.9,4.6-.2.6-.5,1.2-.7,1.8,0,.3-.2.6-.1.9,0,.2.2.3.4.3.1,0,.3,0,.4,0,.9,0,1.5,0,1.5,0h0Z"/>
                    <path class="cls-5" d="M198.7,63.8s4.6.3,9.1-2.5c0,0-2.4,4.7-9.2,4.1v-1.6h.1Z"/>
                    <path class="cls-2" d="M199.7,54.9c.3-.5.9-.7,1.5-.6.4,0,.8.2,1.1.6.2.3.3.8,0,1.1-.2.4-.8.4-1.2.3-.4-.1-.8-.4-1.2-.7-.1,0-.2-.2-.3-.3,0-.1,0-.3,0-.3"/>
                    <path class="cls-2" d="M202.1,53.3c-.1,0-.1,1-1,1.7-.9.7-1.9.6-2,.8,0,0,.2.2.7.2.4,0,1.1-.1,1.6-.6s.8-1,.8-1.5c0-.4,0-.7-.1-.7h0Z"/>
                  </g>
                  <path class="cls-2" d="M202.3,44.1c0,.2,1,.1,2.1.3,1.1.1,2,.4,2.1.2,0-.1,0-.3-.4-.6-.4-.2-.9-.5-1.6-.5s-1.3,0-1.7.2c-.4.2-.6.4-.6.5h0Z"/>
                  <path class="cls-2" d="M193.8,42.8c.2.2.8,0,1.6,0,.8,0,1.4.1,1.6,0,0-.1,0-.3-.3-.5-.3-.2-.8-.4-1.3-.3s-1,.2-1.3.4c-.3.2-.4.4-.3.5h0Z"/>
                </g>
              </g>
              <path class="cls-2" d="M197.6,31.3c6.6-3.7,13.6-1.1,18.9,4.2,1.2,1.2,2.2,2.6,3.8,3.2,1.6.7,3.9.6,4.8,2.1,1.1,1.8-.4,4.2.4,6.2.8,1.8,3.2,2.3,4.1,4,.7,1.3.3,3,0,4.5-.3,1.5-.5,3.3.6,4.3l-14.1,5.4c-.6.2-1.3.3-2,.2-2-.4-2.1-2.3-2-3.8.1-1.2.4-2.4,0-3.4-.6-1.2-2-1.9-2.6-3.2-.9-2.2,1.6-4.6,1.3-7-.2-1.5-1.5-2.7-2.9-3.3s-2.9-.8-4.4-1.3c-3.3-1.1-6.1-4.1-7.5-7.5-.7-1.7,0-3.7,1.5-4.6h0Z"/>
            </g>
          </g>
        </g>
        <g>
          <rect class="cls-2" x="481.7" y="36" width="127.3" height="132.7"/>
          <g>
            <rect class="cls-9" x="473.1" y="36" width="127.3" height="132.7"/>
            <path class="cls-2" d="M600.4,168.7h-127.4V35.9h127.4v132.8ZM473.1,168.6h127.2V36h-127.2v132.6h0Z"/>
          </g>
          <rect class="cls-8" x="490.2" y="53.8" width="93.1" height="97"/>
          <path class="cls-2" d="M490.2,151.5c0,0-.8,1.1-2.3,2.7-1.5,1.6-3.6,3.7-5.9,6-2.3,2.3-4.5,4.4-6.1,5.8s-2.6,2.3-2.7,2.2c0,0,.8-1.1,2.3-2.7,1.5-1.6,3.6-3.7,5.9-6s4.5-4.4,6.1-5.8,2.6-2.3,2.7-2.2h0Z"/>
          <path class="cls-2" d="M583.2,151.2c0,0,1.1.8,2.7,2.3s3.7,3.6,6,5.9,4.4,4.5,5.8,6.1,2.3,2.6,2.2,2.7-1.1-.8-2.7-2.3c-1.6-1.5-3.7-3.6-6-5.9-2.3-2.4-4.4-4.5-5.8-6.1s-2.3-2.6-2.2-2.7h0Z"/>
          <path class="cls-2" d="M583,54.1c0,0,.8-1.1,2.3-2.7s3.6-3.7,5.9-6c2.3-2.3,4.5-4.4,6.1-5.8s2.6-2.3,2.7-2.2c0,0-.8,1.1-2.3,2.7-1.5,1.6-3.6,3.7-5.9,6s-4.5,4.4-6.1,5.8-2.6,2.3-2.7,2.2h0Z"/>
          <path class="cls-2" d="M489.9,54.3c0,0-1.1-.8-2.7-2.3-1.6-1.5-3.7-3.6-6-5.9-2.3-2.3-4.4-4.5-5.8-6.1-1.5-1.6-2.3-2.6-2.2-2.7,0,0,1.1.8,2.7,2.3,1.6,1.5,3.7,3.6,6,5.9,2.3,2.3,4.4,4.5,5.8,6.1s2.3,2.6,2.2,2.7h0Z"/>
          <path class="cls-2" d="M583,150.8s0-.2,0-.5c0-.3,0-.8,0-1.4,0-1.2,0-3,0-5.2,0-4.6,0-11.3,0-19.8,0-17-.1-41.2-.2-70.2l.4.4c-27.1,0-58.9,0-92.8,0h0l.4-.4c0,35.6,0,68.9,0,97l-.4-.4c27.8,0,51,.1,67.2.2,8.1,0,14.5,0,18.9,0,2.2,0,3.8,0,5,0,.5,0,1,0,1.3,0s.4,0,.5,0c0,0-.1,0-.4,0-.3,0-.7,0-1.2,0-1.2,0-2.8,0-4.9,0-4.4,0-10.7,0-18.8,0-16.3,0-39.5.1-67.4.2h-.4v-.4c0-28.1,0-61.4,0-97v-.4h.4c33.9,0,65.7,0,92.8,0h.4v.4c0,29.1-.1,53.4-.2,70.4,0,8.5,0,15.1,0,19.7,0,2.2,0,4,0,5.2,0,.6,0,1,0,1.3s0,.4,0,.4h0Z"/>
          <g>
            <g>
              <g>
                <g>
                  <path class="cls-11" d="M556,83.4c-10-7.7-23.4-9.4-35.1-4.4,0,0-1.7,23.1-1.6,33.1.1,10,10.2,11.6,10.2,11.6v10.9s24.4.9,24.4.9l3.6-50.9-1.5-1.2h0Z"/>
                  <path class="cls-2" d="M529.5,123.6s6.3.5,13.1-3.7c0,0-3.1,7.2-13.1,6.3v-2.6s0,0,0,0Z"/>
                </g>
                <g>
                  <path class="cls-11" d="M556.2,95c.2,0,6.9-2,6.7,4.8-.2,6.9-7.1,5.2-7.1,5,0-.2.4-9.8.4-9.8Z"/>
                  <path class="cls-2" d="M558,102.3s.1,0,.3.2c.2,0,.5.2.9,0,.7-.2,1.4-1.4,1.5-2.6,0-.6,0-1.2-.3-1.7-.2-.5-.5-.9-.9-.9-.4,0-.6.1-.7.3,0,.2,0,.3,0,.3,0,0-.1-.1,0-.4,0-.1.1-.3.3-.4.2-.1.4-.2.7-.2.5,0,1,.6,1.2,1.1.2.6.4,1.2.3,1.9,0,1.4-.8,2.7-1.8,2.9-.5.1-.9,0-1.1-.2-.2-.2-.2-.3-.2-.3h0Z"/>
                </g>
                <g>
                  <g>
                    <g>
                      <path class="cls-2" d="M524.2,94.5c0,.8.6,1.4,1.4,1.4.8,0,1.5-.5,1.5-1.3s-.6-1.4-1.4-1.4c-.8,0-1.5.5-1.5,1.3Z"/>
                      <path class="cls-2" d="M522.8,93.1c.2.2,1.3-.6,2.8-.6,1.5,0,2.7.8,2.8.6,0,0,0-.4-.6-.8-.5-.4-1.3-.7-2.3-.7s-1.8.4-2.2.7c-.5.4-.6.7-.5.8h0Z"/>
                    </g>
                    <g>
                      <path class="cls-2" d="M539.4,95.1c0,.8.6,1.4,1.4,1.4.8,0,1.5-.5,1.5-1.3,0-.8-.6-1.4-1.4-1.4-.8,0-1.5.5-1.5,1.3Z"/>
                      <path class="cls-2" d="M538,93.4c.2.2,1.3-.6,2.8-.6,1.5,0,2.7.8,2.8.6,0,0,0-.4-.6-.8-.5-.4-1.3-.7-2.3-.7s-1.8.4-2.2.7c-.5.4-.6.7-.5.8h0Z"/>
                    </g>
                    <path class="cls-2" d="M532.4,104.9c0,0-1-.2-2.5-.4-.4,0-.8-.1-.8-.4,0-.3,0-.7.3-1.2.4-.9.8-1.9,1.2-3,1.6-4.3,2.8-7.8,2.6-7.8-.2,0-1.6,3.3-3.2,7.6-.4,1.1-.8,2.1-1.1,3-.2.4-.4,1-.2,1.6.1.3.4.5.7.6.2,0,.5,0,.7,0,1.6,0,2.5,0,2.5,0h0Z"/>
                  </g>
                  <path class="cls-2" d="M537.6,87.4c.2.4,1.7.2,3.5.4,1.8.2,3.3.7,3.5.3.1-.2-.2-.6-.7-1-.6-.4-1.5-.8-2.6-.9-1.1-.1-2.1,0-2.7.3s-1,.6-.9.8h0Z"/>
                  <path class="cls-2" d="M523.4,88.7c.3.3,1.3,0,2.6,0,1.3,0,2.4.2,2.6-.1.1-.2,0-.5-.5-.9-.5-.3-1.2-.6-2.1-.6-.9,0-1.6.3-2.1.7-.5.4-.6.7-.5.9h0Z"/>
                </g>
              </g>
              <path class="cls-2" d="M516,72.7c-.1-1.2.4-2.6,1.4-3.3,1-.7,2.6-.7,3.4.2-.5-1.7.9-3.6,2.6-3.7,1.6,0,3,1.1,4.6,1.6,1.5.4,3.2,0,4.7-.5s2.9-1.4,4.4-2c3.1-1.2,6.7-1,9.8.4,3,1.4,5.5,4,6.7,7.2,2.2-.7,4.7.4,6,2.3s1.7,4.3,1.4,6.6c-.2,1.5-.6,3-1.2,4.5,0,.1,0,.3,0,.4,0,5.5-.7,12-3.1,12-4.1,0-3.1-7.7-3.1-7.7-5-1.9-3.2-9.5-4.4-10.6-1.3-1.1-3.9-3.8-14.4,1.6-4.1,2.1-9.5,2-12.5,1.3,0,0-.2,0-.3,0,0,0,0,0,0,0,0,0,0,0,0,0-1-.2-1.9-.6-2.7-1.2-1-.6-1.8-1.4-2.2-2.5-.4-1.1-.2-2.4.6-3.1-.8-1-1.4-2.1-1.5-3.4h0Z"/>
            </g>
            <path class="cls-2" d="M532.4,112.3c0,0,.7.2,1.8-.2.5-.2,1-.6,1.3-1.2.3-.6.4-1.4,0-2.2,0-.2-.2-.3-.3-.5-.1-.1-.1-.1-.2-.1-.1,0-.3.1-.5.2-.2,0-.4.2-.5.2-.7.3-1.3.5-1.9.7-1.1.4-1.8.6-1.8.5,0,0,.6-.4,1.6-.9.5-.2,1.2-.5,1.8-.9.2,0,.3-.2.5-.2.2,0,.3-.2.6-.2.1,0,.3,0,.5,0,.2,0,.3.2.4.3.2.2.3.4.4.6.4.9.3,1.9,0,2.7-.4.8-1.1,1.2-1.7,1.4-.6.2-1.1.1-1.4,0-.3,0-.5-.2-.5-.2h0Z"/>
          </g>
        </g>
      </g>
      <g id="Chair">
        <g>
          <g>
            <path class="cls-13" d="M381.1,286.7c1.3-7.9,8-13.7,16-13.8,34.5-.5,122.5-1.2,127.2,2.5,5.9,4.7,9,7.1,8.5,14.5-.4,6.8-7.8,124.3-7.8,124.3h-164.6l20.8-127.5h0Z"/>
            <path class="cls-6" d="M506.2,414.2s0-.1,0-.4c0-.3,0-.6,0-1,0-.9-.2-2.2-.3-3.9-.1-1.7-.3-3.8-.3-6.2,0-2.4-.2-5.2-.2-8.2,0-1.5,0-3.1,0-4.8,0-1.7,0-3.4,0-5.2,0-3.6.2-7.4.4-11.5.5-8.1,1.2-16.9,2.5-26.1,1.3-9.2,2.9-18,4.6-25.9.9-3.9,1.8-7.7,2.7-11.1.5-1.7.9-3.4,1.3-5,.5-1.6.9-3.1,1.3-4.6.8-2.9,1.7-5.6,2.4-7.9.7-2.3,1.4-4.3,2-5.9.6-1.6,1-2.8,1.3-3.7.2-.4.3-.7.4-1,0-.2.1-.3.1-.3,0,0,0,.1,0,.3,0,.2-.2.6-.3,1-.3.9-.7,2.1-1.2,3.7-.5,1.6-1.2,3.6-1.9,5.9-.7,2.3-1.6,4.9-2.4,7.9-.4,1.5-.8,3-1.3,4.6-.5,1.6-.8,3.3-1.3,5-.9,3.5-1.7,7.2-2.6,11.1-1.7,7.9-3.3,16.6-4.6,25.8-1.2,9.2-2,18-2.5,26.1-.2,4-.4,7.9-.4,11.4,0,1.8,0,3.5,0,5.2s0,3.3,0,4.8c0,3,.1,5.8.2,8.2,0,2.4.1,4.5.2,6.2,0,1.7.1,3,.2,3.9,0,.4,0,.8,0,1v.4h0Z"/>
          </g>
          <g>
            <path class="cls-6" d="M413.6,332s0,0,.2-.1c.2,0,.4,0,.8,0,.7,0,1.7.4,2.4,1.4.8,1,1,2.6.2,4.1-.4.7-.9,1.4-1.6,1.9-.7.5-1.6.8-2.5.9-.9,0-1.9-.1-2.6-.7-.8-.5-1.2-1.3-1.4-2.1-.3-1.6.4-3.1,1.3-3.9,1.9-1.6,3.5-1.6,3.5-1.5,0,0,0,0-.2,0-.2,0-.4.1-.7.2-.6.2-1.4.7-2.2,1.5-.8.8-1.3,2.2-1,3.6.1.7.5,1.4,1.2,1.8.6.5,1.5.6,2.3.6.8,0,1.6-.3,2.3-.8.6-.5,1.1-1.1,1.5-1.7.7-1.3.5-2.8-.1-3.7-.6-.9-1.5-1.3-2.1-1.4-.6-.1-1,0-1,0h0Z"/>
            <path class="cls-6" d="M439.5,317.1c0,.1-1.7-.2-4.4,0-2.7.2-6.5,1.2-9.9,3.6-3.4,2.4-5.6,5.6-6.7,8-1.2,2.5-1.5,4.2-1.5,4.1,0,0,0-.4.2-1.2.2-.8.5-1.8,1-3.1,1.1-2.5,3.3-5.9,6.8-8.3s7.4-3.4,10.1-3.5c1.4,0,2.5,0,3.3,0,.8.1,1.2.2,1.2.2h0Z"/>
            <path class="cls-6" d="M391.7,347.7s.1-.3.4-.9c.3-.5.8-1.3,1.5-2.1,1.4-1.6,3.7-3.6,6.9-4.7,3.1-1.1,6.2-.9,8.3-.5,1,.2,1.9.5,2.4.8.5.2.8.4.8.4,0,0-1.2-.5-3.3-.8-2.1-.4-5-.4-8.1.6-3,1-5.4,2.9-6.8,4.5-1.4,1.6-2,2.7-2.1,2.7h0Z"/>
            <path class="cls-6" d="M423.6,351.8s-.7-.4-1.7-1.2-2.2-2.2-3.3-3.8c-1.1-1.7-1.8-3.3-2.1-4.6-.4-1.2-.5-2-.4-2,.2,0,.9,3.1,3,6.3,2.1,3.3,4.6,5.2,4.5,5.4h0Z"/>
          </g>
          <g>
            <path class="cls-6" d="M469.2,333.4s0,0,.2-.1c.2,0,.4,0,.8,0,.7,0,1.7.4,2.4,1.4.8,1,1,2.6.2,4.1-.4.7-.9,1.4-1.6,1.9-.7.5-1.6.8-2.5.9-.9,0-1.9-.1-2.6-.7-.8-.5-1.2-1.3-1.4-2.1-.3-1.6.4-3.1,1.3-3.9,1.9-1.6,3.5-1.6,3.5-1.5,0,0,0,0-.2,0-.2,0-.4.1-.7.2-.6.2-1.4.7-2.2,1.5-.8.8-1.3,2.2-1,3.6.1.7.5,1.4,1.2,1.8.6.5,1.5.6,2.3.6.8,0,1.6-.3,2.3-.8.6-.5,1.1-1.1,1.5-1.7.7-1.3.5-2.8-.1-3.7-.6-.9-1.5-1.3-2.1-1.4-.6-.1-1,0-1,0h0Z"/>
            <path class="cls-6" d="M495,318.5c0,.1-1.7-.2-4.4,0-2.7.2-6.5,1.2-9.9,3.6-3.4,2.4-5.6,5.6-6.7,8-1.2,2.5-1.5,4.2-1.5,4.1,0,0,0-.4.2-1.2.2-.8.5-1.8,1-3.1,1.1-2.5,3.3-5.9,6.8-8.3s7.4-3.4,10.1-3.5c1.4,0,2.5,0,3.3,0,.8.1,1.2.2,1.2.2h0Z"/>
            <path class="cls-6" d="M447.3,349.1s.1-.3.4-.9c.3-.5.8-1.3,1.5-2.1,1.4-1.6,3.7-3.6,6.9-4.7,3.1-1.1,6.2-.9,8.3-.5,1,.2,1.9.5,2.4.8.5.2.8.4.8.4,0,0-1.2-.5-3.3-.8-2.1-.4-5-.4-8.1.6-3,1-5.4,2.9-6.8,4.5-1.4,1.6-2,2.7-2.1,2.7h0Z"/>
            <path class="cls-6" d="M479.1,353.1s-.7-.4-1.7-1.2-2.2-2.2-3.3-3.8c-1.1-1.7-1.8-3.3-2.1-4.6-.4-1.2-.5-2-.4-2,.2,0,.9,3.1,3,6.3,2.1,3.3,4.6,5.2,4.5,5.4h0Z"/>
          </g>
        </g>
      </g>
      <g id="Notes" class="cls-14">
        <g>
          <path class="cls-5" d="M216.2,160.8v2.7c.5-.4,1-.6,1.6-.6,1.3,0,2.4.9,2.4,2.2,0,1.3-.9,2.4-2.2,2.5-.6,0-1.1-.1-1.5-.5v2.7c.5-.4,1-.6,1.6-.6,1.3,0,2.4.9,2.4,2.2,0,1.3-.9,2.4-2.2,2.5-.6,0-1.1-.1-1.5-.5v2.7c.5-.4,1-.6,1.6-.6,1.3,0,2.4.9,2.4,2.2,0,1.3-.9,2.4-2.2,2.5-.6,0-1.1-.1-1.5-.5v2.7c.5-.4,1-.6,1.6-.6,1.3,0,2.4.9,2.4,2.2,0,1.3-.9,2.4-2.2,2.5-.6,0-1.1-.1-1.5-.5v2.7c.5-.4,1-.6,1.6-.6,1.3,0,2.4.9,2.4,2.2,0,1.3-.9,2.4-2.2,2.5-.6,0-1.1-.1-1.5-.5v2.7c.5-.4,1-.6,1.6-.6,1.3,0,2.4.9,2.4,2.2,0,1.3-.9,2.4-2.2,2.5-.6,0-1.1-.1-1.5-.5v1.7c0,0,72.2-1.7,72.2-1.7l-3.6-42-70.5,4.5h0Z"/>
          <g>
            <g>
              <path class="cls-11" d="M214.6,159v2.7c.5-.4,1-.6,1.6-.6,1.3,0,2.4.9,2.4,2.2s-.9,2.4-2.2,2.5c-.6,0-1.1-.1-1.5-.5v2.7c.5-.4,1-.6,1.6-.6,1.3,0,2.4.9,2.4,2.2,0,1.3-.9,2.4-2.2,2.5-.6,0-1.1-.1-1.5-.5v2.7c.5-.4,1-.6,1.6-.6,1.3,0,2.4.9,2.4,2.2,0,1.3-.9,2.4-2.2,2.5-.6,0-1.1-.1-1.5-.5v2.7c.5-.4,1-.6,1.6-.6,1.3,0,2.4.9,2.4,2.2,0,1.3-.9,2.4-2.2,2.5-.6,0-1.1-.1-1.5-.5v2.7c.5-.4,1-.6,1.6-.6,1.3,0,2.4.9,2.4,2.2s-.9,2.4-2.2,2.5c-.6,0-1.1-.1-1.5-.5v2.7c.5-.4,1-.6,1.6-.6,1.3,0,2.4.9,2.4,2.2,0,1.3-.9,2.4-2.2,2.5-.6,0-1.1-.1-1.5-.5v1.7c0,0,72.2-3.9,72.2-3.9l-2.1-39.2-72.1,3.9h0Z"/>
              <path class="cls-2" d="M287.1,162.9c0,.1-16.1,1.1-36,2.2-19.9,1.1-36.1,1.8-36.1,1.7s16.1-1.1,36-2.2c19.9-1.1,36-1.8,36-1.7h0Z"/>
              <path class="cls-2" d="M287.4,169.2c0,.1-16.1,1.1-36,2.2-19.9,1.1-36.1,1.8-36.1,1.7s16.1-1.1,36-2.2c19.9-1.1,36-1.8,36-1.7h0Z"/>
              <path class="cls-2" d="M287.8,175.5c0,.1-16.1,1.1-36,2.2-19.9,1.1-36.1,1.8-36.1,1.7s16.1-1.1,36-2.2c19.9-1.1,36-1.8,36-1.7h0Z"/>
              <path class="cls-2" d="M288.1,181.8c0,.1-16.1,1.1-36,2.2-19.9,1.1-36.1,1.8-36.1,1.7s16.1-1.1,36-2.2c19.9-1.1,36-1.8,36-1.7h0Z"/>
              <path class="cls-2" d="M288.5,188.1c0,.1-16.1,1.1-36,2.2-19.9,1.1-36.1,1.8-36.1,1.7s16.1-1.1,36-2.2c19.9-1.1,36-1.8,36-1.7h0Z"/>
              <rect class="cls-12" x="225.4" y="158.5" width=".5" height="39.3" transform="translate(-9.2 12.3) rotate(-3.1)"/>
              <path class="cls-2" d="M233.3,197.4c-.1,0-.7-8.8-1.3-19.6s-.9-19.6-.8-19.6.7,8.8,1.3,19.6.9,19.6.8,19.6Z"/>
              <path class="cls-2" d="M220.4,198.1c-.1,0-.7-8.8-1.3-19.6s-.9-19.6-.8-19.6c.1,0,.7,8.8,1.3,19.6s.9,19.6.8,19.6Z"/>
              <path class="cls-2" d="M240.3,197c-.1,0-.7-8.8-1.3-19.6s-.9-19.6-.8-19.6c.1,0,.7,8.8,1.3,19.6s.9,19.6.8,19.6Z"/>
              <path class="cls-2" d="M247.3,196.6c-.1,0-.7-8.8-1.3-19.6s-.9-19.6-.8-19.6c.1,0,.7,8.8,1.3,19.6s.9,19.6.8,19.6Z"/>
              <path class="cls-2" d="M254.3,196.3c-.1,0-.7-8.8-1.3-19.6s-.9-19.6-.8-19.6c.1,0,.7,8.8,1.3,19.6s.9,19.6.8,19.6Z"/>
              <path class="cls-2" d="M261.4,195.9c-.1,0-.7-8.8-1.3-19.6s-.9-19.6-.8-19.6c.1,0,.7,8.8,1.3,19.6s.9,19.6.8,19.6Z"/>
              <path class="cls-2" d="M268.4,195.5c-.1,0-.7-8.8-1.3-19.6s-.9-19.6-.8-19.6.7,8.8,1.3,19.6.9,19.6.8,19.6Z"/>
              <path class="cls-2" d="M275.4,195.1c-.1,0-.7-8.8-1.3-19.6s-.9-19.6-.8-19.6.7,8.8,1.3,19.6.9,19.6.8,19.6Z"/>
              <path class="cls-2" d="M282.5,194.8c-.1,0-.7-8.8-1.3-19.6s-.9-19.6-.8-19.6c.1,0,.7,8.8,1.3,19.6s.9,19.6.8,19.6Z"/>
            </g>
            <path class="cls-6" d="M281.6,171s-.2,0-.5,0c-.4,0-.9,0-1.5.1-1.4,0-3.2.2-5.4.4-4.6.3-10.9.6-17.9,1-7,.4-13.3.6-17.9.8-4.6.1-7.4.2-7.4,0,2.7-.1,12-.6,25.3-1.3,7-.3,13.2-.6,17.9-.8,2.2,0,4.1-.1,5.4-.2.6,0,1.1,0,1.5,0,.3,0,.5,0,.5,0h0Z"/>
            <path class="cls-6" d="M283,178.2c0,.1-11.6.8-26,1.4s-26,1.1-26,.9c0-.1,11.6-.8,26-1.4s26-1.1,26-.9h0Z"/>
            <path class="cls-6" d="M283.8,184.4c0,.1-11.6.8-26,1.4s-26,1.1-26,.9c0-.1,11.6-.8,26-1.4s26-1.1,26-.9h0Z"/>
            <path class="cls-2" d="M222.7,163.1c.3,1.6,1,3.1,2.3,4,1.5,1,3.7.9,5-.3s1.8-3.3,1-4.9c-.8-1.6-2.8-2.6-4.5-2.2"/>
            <g>
              <path class="cls-15" d="M222.5,163.1c.1,1.8,1.6,3.2,3.4,3.1,1.8-.1,3.2-1.6,3.1-3.4s-1.6-3.2-3.4-3.1-3.2,1.6-3.1,3.4Z"/>
              <path class="cls-15" d="M220.6,161.9c0,1.1,1,1.9,2.1,1.9s1.9-1,1.9-2.1c0-1.1-1-1.9-2.1-1.9-1.1,0-1.9,1-1.9,2.1Z"/>
              <path class="cls-6" d="M222.5,163.8c0,0,.3,0,.7-.2.4-.1.9-.5,1.1-1.1.2-.6,0-1.2-.1-1.6-.2-.4-.4-.6-.4-.6,0,0,.4,0,.7.4.3.4.6,1.1.3,1.9-.3.8-1,1.2-1.5,1.3-.5,0-.8-.1-.8-.2h0Z"/>
              <path class="cls-6" d="M224.1,160.6c0-.1.6,0,1.1-.1.6-.1.9-.5,1.1-.4.1,0-.1.7-.9.9-.8.2-1.3-.3-1.2-.4h0Z"/>
              <path class="cls-6" d="M224.6,165.6c-.1,0-.3-.6-.8-1.1-.5-.5-1.1-.6-1.1-.7,0-.1.8-.3,1.5.4.7.7.6,1.5.4,1.5Z"/>
            </g>
            <path class="cls-2" d="M278.1,160.8c.3,1.6,1,3.1,2.3,4,1.5,1,3.7.9,5-.3s1.8-3.3,1-4.9c-.8-1.6-2.8-2.6-4.5-2.2"/>
            <g>
              <path class="cls-15" d="M284.4,159.9c0,1.8-1.2,3.2-3,3.3s-3.2-1.2-3.3-3,1.2-3.2,3-3.3,3.2,1.2,3.3,3Z"/>
              <path class="cls-15" d="M286.1,158.6c0,1.1-.8,1.9-1.8,2s-1.9-.8-2-1.8.8-1.9,1.8-2,1.9.8,2,1.8Z"/>
              <path class="cls-6" d="M284.5,160.5c0,0-.2.3-.8.2-.5,0-1.2-.3-1.6-1.1-.4-.7-.1-1.5.1-1.9.3-.4.6-.5.6-.5,0,0-.1.3-.3.6-.1.4-.2,1,0,1.5.3.5.8.8,1.2.9.4.1.7,0,.7.1h0Z"/>
              <path class="cls-6" d="M282.6,157.7c.1.1-.4.6-1.1.5-.8-.1-1.1-.7-1-.8.1-.1.5.2,1,.2.5,0,1-.1,1.1,0h0Z"/>
              <path class="cls-6" d="M282.6,162.5c-.1,0-.3-.8.3-1.5.6-.7,1.4-.6,1.4-.5,0,.1-.6.3-1,.8-.4.5-.5,1.1-.7,1.1h0Z"/>
            </g>
          </g>
        </g>
        <g>
          <polygon class="cls-2" points="161.7 254.2 220.6 261.7 219.8 240.1 161.7 254.2"/>
          <rect class="cls-13" x="181.3" y="219.2" width="18.8" height="56.8" transform="translate(-71.9 417.1) rotate(-85.2)"/>
          <path class="cls-6" d="M211.9,246.2c0,.1-9.5-.5-21.2-1.5s-21.2-1.9-21.1-2c0-.1,9.5.5,21.2,1.5s21.2,1.9,21.1,2h0Z"/>
          <path class="cls-6" d="M211.7,251.1c0,.1-9.5-.5-21.2-1.5s-21.2-1.9-21.1-2c0-.1,9.5.5,21.2,1.5s21.2,1.9,21.1,2h0Z"/>
          <polygon class="cls-5" points="180 234.6 201.9 236.4 200.8 237.4 202.3 238.7 200.5 239.5 202.1 240.9 179.1 239 180.5 237.8 179.8 236.5 181.1 235.9 180 234.6"/>
        </g>
        <g>
          <path class="cls-2" d="M128.3,200.6c.2.4.4.8.4,1.3,0,1.4-1.1,2.5-2.5,2.5s-2.5-1.1-2.5-2.5.1-.9.4-1.3h-2.9c.2.4.4.8.4,1.3,0,1.4-1.1,2.5-2.5,2.5s-2.5-1.1-2.5-2.5.1-.9.4-1.3h-2.9c.2.4.4.8.4,1.3,0,1.4-1.1,2.5-2.5,2.5s-2.5-1.1-2.5-2.5.1-.9.4-1.3h-2.9c.2.4.4.8.4,1.3,0,1.4-1.1,2.5-2.5,2.5s-2.5-1.1-2.5-2.5.1-.9.4-1.3h-2.9c.2.4.4.8.4,1.3,0,1.4-1.1,2.5-2.5,2.5s-2.5-1.1-2.5-2.5.1-.9.4-1.3h-2.9c.2.4.4.8.4,1.3,0,1.4-1.1,2.5-2.5,2.5s-2.5-1.1-2.5-2.5.1-.9.4-1.3h-1.8v52.6l46,2.5-2.2-55.2h-1.1Z"/>
          <g>
            <g class="cls-16">
              <g>
                <path class="cls-11" d="M127.6,199.1c.2.4.4.8.4,1.3,0,1.4-1.1,2.5-2.5,2.5s-2.5-1.1-2.5-2.5.1-.9.4-1.3h-2.9c.2.4.4.8.4,1.3,0,1.4-1.1,2.5-2.5,2.5s-2.5-1.1-2.5-2.5.1-.9.4-1.3h-2.9c.2.4.4.8.4,1.3,0,1.4-1.1,2.5-2.5,2.5s-2.5-1.1-2.5-2.5.1-.9.4-1.3h-2.9c.2.4.4.8.4,1.3,0,1.4-1.1,2.5-2.5,2.5s-2.5-1.1-2.5-2.5.1-.9.4-1.3h-2.9c.2.4.4.8.4,1.3,0,1.4-1.1,2.5-2.5,2.5s-2.5-1.1-2.5-2.5.1-.9.4-1.3h-2.9c.2.4.4.8.4,1.3,0,1.4-1.1,2.5-2.5,2.5s-2.5-1.1-2.5-2.5.1-.9.4-1.3h-1.8v52.6h43.8v-52.6h-1.1Z"/>
                <path class="cls-2" d="M82.1,254.2c-.1,0-.4-12.8-.6-28.5s-.2-28.5,0-28.5.4,12.8.6,28.5.2,28.5,0,28.5Z"/>
                <path class="cls-2" d="M89.1,254.1c-.1,0-.4-12.8-.6-28.5s-.2-28.5,0-28.5.4,12.8.6,28.5.2,28.5,0,28.5Z"/>
                <path class="cls-2" d="M92.6,254.1c-.1,0-.4-12.8-.6-28.5s-.2-28.5,0-28.5.4,12.8.6,28.5.2,28.5,0,28.5Z"/>
                <path class="cls-2" d="M99.7,254.1c-.1,0-.4-12.8-.6-28.5s-.2-28.5,0-28.5.4,12.8.6,28.5.2,28.5,0,28.5Z"/>
                <path class="cls-2" d="M106.8,254.1c-.1,0-.4-12.8-.6-28.5s-.2-28.5,0-28.5.4,12.8.6,28.5.2,28.5,0,28.5Z"/>
                <path class="cls-2" d="M113.9,254.1c-.1,0-.4-12.8-.6-28.5s-.2-28.5,0-28.5.4,12.8.6,28.5.2,28.5,0,28.5Z"/>
                <path class="cls-2" d="M120.7,254.1c-.1,0-.4-12.8-.6-28.5s-.2-28.5,0-28.5.4,12.8.6,28.5.2,28.5,0,28.5Z"/>
                <path class="cls-2" d="M127.4,254.1c-.1,0-.4-12.8-.6-28.5s-.2-28.5,0-28.5.4,12.8.6,28.5.2,28.5,0,28.5Z"/>
                <path class="cls-2" d="M96.2,254.1c-.1,0-.4-12.8-.6-28.5s-.2-28.5,0-28.5.4,12.8.6,28.5.2,28.5,0,28.5Z"/>
                <path class="cls-2" d="M103.2,254c-.1,0-.4-12.8-.6-28.5s-.2-28.5,0-28.5.4,12.8.6,28.5.2,28.5,0,28.5Z"/>
                <path class="cls-2" d="M110.2,253.9c-.1,0-.4-12.8-.6-28.5s-.2-28.5,0-28.5.4,12.8.6,28.5.2,28.5,0,28.5Z"/>
                <path class="cls-2" d="M117.3,253.8c-.1,0-.4-12.8-.6-28.5s-.2-28.5,0-28.5.4,12.8.6,28.5.2,28.5,0,28.5Z"/>
                <path class="cls-2" d="M124,254.2c-.1,0-.4-12.8-.6-28.5s-.2-28.5,0-28.5.4,12.8.6,28.5.2,28.5,0,28.5Z"/>
                <path class="cls-2" d="M131.4,253.7c-.1,0-.4-12.8-.6-28.5s-.2-28.5,0-28.5.4,12.8.6,28.5.2,28.5,0,28.5Z"/>
                <path class="cls-2" d="M138.9,247c0,.1-12.8.4-28.5.6s-28.5.2-28.5,0,12.8-.4,28.5-.5c15.7-.2,28.5-.2,28.5,0h0Z"/>
                <path class="cls-2" d="M139.2,250.6c0,.1-12.8.4-28.5.6s-28.5.2-28.5,0,12.8-.4,28.5-.6c15.7-.2,28.5-.2,28.5,0h0Z"/>
                <path class="cls-2" d="M138.8,240c0,.1-12.8.4-28.5.6s-28.5.2-28.5,0,12.8-.4,28.5-.6c15.7-.2,28.5-.2,28.5,0h0Z"/>
                <path class="cls-2" d="M138.8,232.9c0,.1-12.8.4-28.5.6s-28.5.2-28.5,0,12.8-.4,28.5-.6c15.7-.2,28.5-.2,28.5,0h0Z"/>
                <path class="cls-2" d="M138.7,225.9c0,.1-12.8.4-28.5.6s-28.5.2-28.5,0,12.8-.4,28.5-.6c15.7-.2,28.5-.2,28.5,0h0Z"/>
                <path class="cls-2" d="M138.6,218.9c0,.1-12.8.4-28.5.6s-28.5.2-28.5,0,12.8-.4,28.5-.6c15.7-.2,28.5-.2,28.5,0h0Z"/>
                <path class="cls-2" d="M138.5,211.8c0,.1-12.8.4-28.5.6s-28.5.2-28.5,0,12.8-.4,28.5-.6c15.7-.2,28.5-.2,28.5,0h0Z"/>
                <path class="cls-2" d="M138.5,204.8c0,.1-12.8.4-28.5.6s-28.5.2-28.5,0,12.8-.4,28.5-.6c15.7-.2,28.5-.2,28.5,0h0Z"/>
                <path class="cls-2" d="M138.5,202c0,.1-12.8.4-28.5.6s-28.5.2-28.5,0,12.8-.4,28.5-.5c15.7-.2,28.5-.2,28.5,0h0Z"/>
                <path class="cls-2" d="M138.5,208.4c0,.1-12.8.4-28.5.5-15.7.2-28.5.2-28.5,0s12.8-.4,28.5-.6c15.7-.2,28.5-.2,28.5,0h0Z"/>
                <path class="cls-2" d="M138.5,215.4c0,.1-12.8.4-28.5.5-15.7.2-28.5.2-28.5,0s12.8-.4,28.5-.6c15.7-.2,28.5-.2,28.5,0h0Z"/>
                <path class="cls-2" d="M138.5,222.4c0,.1-12.8.4-28.5.6s-28.5.2-28.5,0,12.8-.4,28.5-.5c15.7-.2,28.5-.2,28.5,0h0Z"/>
                <path class="cls-2" d="M138.5,229.3c0,.1-12.8.4-28.5.6s-28.5.2-28.5,0,12.8-.4,28.5-.5c15.7-.2,28.5-.2,28.5,0h0Z"/>
                <path class="cls-2" d="M138.5,236.3c0,.1-12.8.4-28.5.6s-28.5.2-28.5,0,12.8-.4,28.5-.5c15.7-.2,28.5-.2,28.5,0h0Z"/>
                <path class="cls-2" d="M138.5,243.3c0,.1-12.8.4-28.5.6s-28.5.2-28.5,0,12.8-.4,28.5-.6c15.7-.2,28.5-.2,28.5,0h0Z"/>
                <path class="cls-1" d="M127.6,199.1c.2.4.4.8.4,1.3,0,1.4-1.1,2.5-2.5,2.5s-2.5-1.1-2.5-2.5.1-.9.4-1.3h-2.9c.2.4.4.8.4,1.3,0,1.4-1.1,2.5-2.5,2.5s-2.5-1.1-2.5-2.5.1-.9.4-1.3h-2.9c.2.4.4.8.4,1.3,0,1.4-1.1,2.5-2.5,2.5s-2.5-1.1-2.5-2.5.1-.9.4-1.3h-2.9c.2.4.4.8.4,1.3,0,1.4-1.1,2.5-2.5,2.5s-2.5-1.1-2.5-2.5.1-.9.4-1.3h-2.9c.2.4.4.8.4,1.3,0,1.4-1.1,2.5-2.5,2.5s-2.5-1.1-2.5-2.5.1-.9.4-1.3h-2.9c.2.4.4.8.4,1.3,0,1.4-1.1,2.5-2.5,2.5s-2.5-1.1-2.5-2.5.1-.9.4-1.3h-1.8v52.6h43.8v-52.6h-1.1Z"/>
              </g>
            </g>
            <path class="cls-2" d="M103.7,206.8c.3,1.6,1,3.1,2.3,4,1.5,1,3.7.9,5-.3,1.4-1.2,1.8-3.3,1-4.9-.8-1.6-2.8-2.6-4.5-2.2"/>
            <g>
              <path class="cls-15" d="M103.6,206.8c0,1.8,1.6,3.2,3.4,3.1,1.8-.1,3.2-1.6,3.1-3.4s-1.6-3.2-3.4-3.1c-1.8.1-3.2,1.6-3.1,3.4Z"/>
              <path class="cls-15" d="M101.7,205.6c0,1.1,1,1.9,2.1,1.9s1.9-1,1.9-2.1c0-1.1-1-1.9-2.1-1.9s-1.9,1-1.9,2.1Z"/>
              <path class="cls-6" d="M103.5,207.4c0,0,.3,0,.7-.2.4-.1.9-.5,1.1-1.1.2-.6,0-1.2-.2-1.6-.2-.4-.4-.6-.4-.6,0,0,.4,0,.7.4.3.4.6,1.1.3,1.9-.3.8-1,1.2-1.5,1.3-.5,0-.8-.1-.8-.2h0Z"/>
              <path class="cls-6" d="M105.2,204.2c0-.1.6,0,1.1-.1.6-.1.9-.5,1.1-.4.1,0-.2.7-.9.9-.8.2-1.3-.3-1.2-.4h0Z"/>
              <path class="cls-6" d="M105.7,209.2c-.2,0-.3-.6-.8-1.1-.5-.5-1.1-.6-1.1-.7,0-.1.8-.3,1.5.4.7.7.6,1.5.4,1.5Z"/>
            </g>
          </g>
          <path class="cls-6" d="M123.7,217.9c0,.1-7,.3-15.6.3s-15.6-.1-15.6-.3,7-.3,15.6-.3,15.6.1,15.6.3Z"/>
          <path class="cls-6" d="M123.7,221.2c0,.1-7,.3-15.6.3s-15.6-.1-15.6-.3,7-.3,15.6-.3,15.6.1,15.6.3Z"/>
          <path class="cls-6" d="M123.7,224.4c0,.1-7,.3-15.6.3s-15.6-.1-15.6-.3,7-.3,15.6-.3,15.6.1,15.6.3Z"/>
          <path class="cls-6" d="M123.7,227.7c0,.1-7,.3-15.6.3s-15.6-.1-15.6-.3,7-.3,15.6-.3,15.6.1,15.6.3Z"/>
          <path class="cls-6" d="M123.7,230.9c0,.1-7,.3-15.6.3s-15.6-.1-15.6-.3,7-.3,15.6-.3,15.6.1,15.6.3Z"/>
          <path class="cls-6" d="M123.7,234.2c0,.1-7,.3-15.6.3s-15.6-.1-15.6-.3,7-.3,15.6-.3,15.6.1,15.6.3Z"/>
          <path class="cls-6" d="M123.7,237.4c0,.1-7,.3-15.6.3s-15.6-.1-15.6-.3,7-.3,15.6-.3,15.6.1,15.6.3Z"/>
        </g>
      </g>
      <g id="Lamp">
        <g>
          <g>
            <g>
              <path class="cls-6" d="M46.5,387c-.5,0-.9-.3-1-.8L9.9,250.7c-.1-.6.2-1.1.8-1.3.6-.1,1.1.2,1.3.8l35.6,135.5c.2.6-.2,1.1-.8,1.3,0,0-.2,0-.3,0h0Z"/>
              <path class="cls-6" d="M37.1,390.3c-.5,0-.9-.3-1-.8L.5,254c-.2-.6.2-1.1.8-1.3.6-.1,1.1.2,1.3.8l35.5,135.5c.2.6-.2,1.1-.8,1.3,0,0-.2,0-.3,0h0Z"/>
              <polygon class="cls-6" points="4.8 248.1 3.1 246.9 94.4 124 177.7 140 177.3 142.1 95.3 126.4 4.8 248.1"/>
              <rect class="cls-6" x="-18.7" y="188.1" width="150.9" height="2.1" transform="translate(-129.1 122.2) rotate(-53.5)"/>
              <path class="cls-15" d="M92.1,129.6c1.1,3.2,4.5,4.9,7.7,3.8,3.2-1.1,4.8-4.5,3.8-7.7-1.1-3.2-4.5-4.8-7.7-3.8-3.2,1.1-4.8,4.5-3.8,7.7Z"/>
            </g>
            <g>
              <polygon class="cls-3" points="173.7 133.1 172.2 124.4 178.7 123.9 179.1 132.3 173.7 133.1"/>
              <polyline class="cls-15" points="168.5 132.5 162.5 164.7 147.5 207.3 232.1 195.1 197.9 157.9 183.7 130.3 168.5 132.5"/>
            </g>
          </g>
          <path class="cls-15" d="M0,251.7c0,3.7,3,6.7,6.7,6.7s6.7-3,6.7-6.7-3-6.7-6.7-6.7-6.7,3-6.7,6.7Z"/>
          <path class="cls-15" d="M19.8,414.1c0-.5,0-.9,0-1.3,0-14.8,12-26.8,26.8-26.8s26.8,12,26.8,26.8,0,.9,0,1.3H19.8Z"/>
        </g>
      </g>
      <g id="Character">
        <g>
          <g>
            <path class="cls-4" d="M166.1,404c-.3,0-1.7,1.5.3,3.8s14.1,8.5,16.4,4.8-3.2-6.3-3.2-6.3l-13.5-2.2h0Z"/>
            <path class="cls-4" d="M179.4,400s12.5-1.4,17.6-.7c5.5.7,11.4-2.1,14.9-5.9,3.5-3.8,4.4-8.8,4.4-8.8l7.9-5.6s.9-18.9-11.8-15.9l-14.7.5s-29,4.8-33.5,8.4c0,0-5.5,5.3-7.1,7.4-.6.8-1.1,8.6,4.4,11.2,0,0-3.3,4.2-.4,6.5l1.4,1s-1.9,4.2-.1,5.4,15.7,5.4,19.6,2.7-.6-5.9-2.7-6.2"/>
            <path class="cls-7" d="M163.8,389.9s.6,0,1.6.2c1.1.1,2.6.3,4.4.5.9,0,2,.1,3.1.1s2.3,0,3.6,0c1.3.1,2.6.4,3.8,1.2,1.1.8,2.1,2.2,1.9,3.9-.1.8-.6,1.5-1.1,2-.6.5-1.2.8-1.9,1-1.3.5-2.7.6-3.9.7-2.5.2-4.8,0-6.7-.1s-3.4-.5-4.4-.6c-1-.2-1.6-.3-1.6-.3,0,0,.6,0,1.6.1,1.1.1,2.6.3,4.4.5,1.9.1,4.1.2,6.6,0,1.2-.1,2.5-.3,3.8-.7.6-.2,1.2-.5,1.7-1,.5-.4.9-1,.9-1.7.2-1.3-.6-2.6-1.7-3.4-1-.8-2.4-1-3.6-1.1-1.2-.1-2.4,0-3.5-.1-1.1,0-2.2-.1-3.1-.2-1.9-.2-3.4-.4-4.4-.6-1-.2-1.6-.3-1.6-.4h0Z"/>
            <path class="cls-7" d="M162.8,380.9s.6,0,1.6.2c1,.1,2.6.3,4.4.5s4.1.3,6.6.3c1.2,0,2.6,0,3.9.6.6.3,1.2.9,1.5,1.6.3.7.3,1.5.2,2.2-.3,1.5-1.4,2.7-2.5,3.5-1.2.8-2.5,1.1-3.8,1.2-2.5.2-4.8-.2-6.6-.3-1.8-.2-3.3-.3-4.4-.5-1.1-.1-1.6-.2-1.6-.2s.6,0,1.6,0c1.1,0,2.6.2,4.5.3,1.9,0,4.1.4,6.6.2,1.2-.1,2.5-.5,3.6-1.2,1.1-.7,2.1-1.8,2.3-3.1.3-1.3-.3-2.8-1.4-3.3-1.1-.6-2.5-.5-3.7-.6-2.5,0-4.8-.2-6.6-.4s-3.4-.5-4.4-.7-1.6-.4-1.6-.4h0Z"/>
            <path class="cls-7" d="M169.3,382c-.1,0-.5-1.1-1.1-2.3-.6-1.2-1.3-2.2-1.2-2.3.1-.1,1,.7,1.7,2,.7,1.3.8,2.5.7,2.5h0Z"/>
            <g>
              <path class="cls-4" d="M207.5,363.9l-11.8-1.6s-33.4-6.8-33.7-5.9-2,1.2-.7,4.8,20.5,6.8,21.4,7.9c.9,1.1,1.5,7.8,9,10.8,7.6,3,12.3,2,12.3,2"/>
              <path class="cls-7" d="M203.9,381.9s0,0-.2,0-.4,0-.8.1c-.7,0-1.7.1-3,0-1.3-.1-2.9-.3-4.6-.8-1.8-.5-3.8-1.1-5.8-2.3-2-1.1-3.9-3-5.2-5.4-.7-1.2-1.1-2.6-1.6-3.9,0-.2-.1-.3-.2-.4,0,0-.2-.1-.4-.2-.3-.1-.7-.2-1-.4-.7-.2-1.4-.4-2.2-.6-2.9-.8-6.1-1.5-9.2-2.4s-3.2-1-4.8-1.6c-.8-.3-1.6-.7-2.4-1.2-.4-.2-.7-.5-1.1-.9-.1-.2-.3-.4-.4-.6-.1-.2-.1-.4-.2-.6-.2-.9-.4-1.8-.2-2.7.1-.5.4-.9.7-1.2s.3-.3.3-.5c0,0,0,0,0-.1.1-.1.1-.1.2-.1.1,0,.1,0,.2,0h.4c1.8.1,3.4.4,5,.7,3.3.5,6.4,1.1,9.4,1.7,6,1.1,11.4,2.2,15.9,3.1,1.1.2,2.2.5,3.2.6,1,.1,2,.3,2.9.4,1.8.3,3.4.5,4.6.7,1.2.2,2.2.3,2.9.4.3,0,.6,0,.8.1.2,0,.3,0,.3,0s0,0-.3,0c-.2,0-.5,0-.8,0-.7,0-1.7-.2-2.9-.3-1.3-.2-2.9-.4-4.6-.6-.9-.1-1.9-.2-2.9-.4-1-.2-2.1-.4-3.2-.6-4.5-.9-9.9-1.9-15.9-3-3-.5-6.1-1.1-9.4-1.7-1.6-.2-3.3-.5-5-.6h-.3s-.1,0-.1,0c0,0,0,0,0,0,0,0,0,0,0-.1,0,0,0,0,0,0,.4.1.1,0,.2,0h0c-.1.3-.3.5-.4.6-.3.3-.5.6-.6,1-.2.8,0,1.6.2,2.4.1.4.2.8.5,1.1s.6.5,1,.8c.7.4,1.5.8,2.3,1.1,1.6.6,3.2,1.1,4.8,1.6,3.2.9,6.3,1.7,9.2,2.5.7.2,1.5.4,2.2.6.4.1.7.2,1.1.4.2,0,.4.2.5.4.1.2.2.4.3.5.5,1.4.9,2.7,1.6,3.9,1.2,2.4,3,4.2,5,5.3,2,1.1,4,1.8,5.7,2.3,1.8.5,3.3.8,4.6.9s2.3.1,2.9.1c.3,0,.6,0,.8,0,.2,0,.3,0,.3,0h0Z"/>
            </g>
            <path class="cls-7" d="M175.8,399.4s.4,0,1.2,0c.8.1,1.9.4,3.2,1,.6.3,1.3.7,2,1.2.6.5,1.4,1.3,1.5,2.3.1,1.1-.6,2.1-1.5,2.6-.9.6-2.1.7-3.2.7-4.3-.3-8.2-.9-10.9-1.6-1.4-.4-2.5-.7-3.2-1-.7-.3-1.1-.5-1.1-.5,0,0,.4,0,1.2.3.8.2,1.9.5,3.2.8,2.7.6,6.6,1.2,10.9,1.5,1,0,2.1,0,2.9-.6.8-.5,1.4-1.3,1.3-2.2,0-.8-.7-1.5-1.3-2-.6-.5-1.3-.9-1.9-1.2-2.5-1.2-4.3-1.2-4.3-1.4h0Z"/>
          </g>
          <path class="cls-15" d="M262.7,331.2s14.8-24.4,18.1-40.5,20.5-41.6,26.1-48.3,27.7-14.4,27.7-14.4l8.2-4.4,63.4-5.6s42.2,4.4,54.9,16.1,22.8,38.3,22.8,51.6,12.9,128.6,12.9,128.6l-156.2-.2,3.5-56.9s-18.9-12.8-23.9-23.9c-5-11.1-2.2-5.5-2.2-5.5,0,0-17.7,37.6-23.8,42.1s-77.1,26.2-77.1,26.2l-9.7-37.2,55.3-27.8h0Z"/>
          <path class="cls-15" d="M447.2,238.8c-1.7.5-22.9,55.2-24.4,60.1-1.5,5,0,36.3,0,36.3l7,12.9s-2,9.5-.5,13.9l-31.3,6s-8-5.5-15.4,0l-37,3.1s10.9.1,7.6,16.8c-3.2,16.3-5.6,19.9-5.6,19.9l129.9-3s14.4-.7,12.2-28.5c-2.2-27.7-8.4-104.3-8.4-104.3,0,0-9.5-41-34.2-33.3h0Z"/>
          <path class="cls-6" d="M422.5,330.8s-.1-.2-.3-.7c-.2-.5-.5-1.1-.8-2-.3-.9-.8-1.9-1.1-3.1-.4-1.2-.9-2.6-1.4-4.2-.5-1.6-1-3.3-1.4-5.2-.5-1.9-.9-3.9-1.3-6-.7-4.3-1.3-9.1-1.5-14.1-.2-5,0-9.8.4-14.2.3-2.2.5-4.2.8-6.1.2-1,.3-1.9.5-2.8.2-.9.4-1.7.5-2.5.3-1.6.7-3,1-4.3.3-1.3.6-2.4.9-3.2.3-.8.5-1.5.6-2,.2-.5.2-.7.3-.7,0,0,0,.2-.2.7-.1.5-.3,1.2-.6,2-.3.9-.6,2-.9,3.2-.3,1.3-.7,2.7-1,4.3-.2.8-.3,1.6-.5,2.5s-.3,1.8-.4,2.8c-.3,1.9-.5,4-.8,6.1-.4,4.3-.6,9.1-.4,14.1.2,5,.8,9.8,1.5,14,.4,2.1.8,4.2,1.2,6,.4,1.9.9,3.6,1.3,5.2.4,1.6.9,3,1.3,4.2.4,1.2.8,2.3,1.1,3.2.3.8.5,1.5.7,2,.1.5.2.7.2.7h0Z"/>
          <path class="cls-6" d="M467.7,390.1s-.1-.1-.3-.4c-.2-.3-.5-.7-.9-1.1-.4-.5-.8-1.1-1.4-1.8-.6-.7-1.2-1.5-1.9-2.3-.7-.8-1.5-1.8-2.5-2.7-.9-1-1.9-1.9-3-2.9-2.2-2-4.7-4-7.5-6-2.8-1.9-5.6-3.5-8.2-4.9-1.3-.6-2.6-1.3-3.8-1.8-1.2-.5-2.3-1-3.4-1.4-1-.4-2-.7-2.9-1-.8-.3-1.6-.5-2.2-.7-.5-.2-1-.3-1.4-.4-.3-.1-.5-.2-.5-.2s.2,0,.5,0c.4,0,.9.2,1.4.3.6.1,1.4.3,2.2.6.9.3,1.8.5,2.9.9,1.1.4,2.2.8,3.4,1.3,1.2.5,2.5,1.1,3.8,1.7,2.6,1.3,5.5,3,8.3,4.9,2.8,2,5.3,4,7.5,6.1,1.1,1,2.1,2,3,3,.9,1,1.7,1.9,2.4,2.8.7.8,1.3,1.7,1.9,2.4.5.7,1,1.3,1.3,1.9.3.5.6.9.8,1.2.2.3.3.4.2.4h0Z"/>
          <path class="cls-6" d="M478.6,382.8c0,0-1.2-1.2-3.4-3-1.1-.9-2.4-1.8-4-2.8-1.6-.9-3.4-1.8-5.4-2.6-2-.7-4-1.3-5.8-1.6-1.8-.3-3.5-.5-4.9-.6-2.8-.1-4.5.1-4.5,0,0,0,.4-.1,1.2-.2.4,0,.9-.1,1.4-.1.6,0,1.2,0,1.9,0,1.4,0,3.1.1,4.9.5,1.8.3,3.8.9,5.9,1.6,2,.8,3.9,1.7,5.5,2.7,1.6,1,2.9,2,4,2.9.5.4,1,.9,1.4,1.3s.7.7,1,1c.5.6.8.9.8,1h0Z"/>
          <path class="cls-6" d="M466.6,364.5c0,0-1.6-1.1-4.4-2.5-.7-.3-1.5-.7-2.3-1-.8-.4-1.8-.6-2.8-.9-2-.5-4.2-1-6.6-1.2-2.4-.1-4.6,0-6.7.2-1,.2-2,.3-2.9.6-.9.2-1.7.5-2.5.7-3,1-4.6,2-4.7,1.9,0,0,.4-.3,1.2-.7.4-.2.9-.5,1.4-.7.6-.2,1.2-.6,2-.8.7-.3,1.6-.5,2.5-.8.9-.3,1.9-.4,2.9-.6,2.1-.3,4.4-.4,6.8-.3,2.4.2,4.7.6,6.7,1.2,1,.3,1.9.6,2.8,1,.9.3,1.6.7,2.3,1.1.7.3,1.3.7,1.8,1.1.5.3,1,.6,1.3.9.7.5,1.1.8,1.1.9h0Z"/>
          <path class="cls-6" d="M390.7,405.5c-.1,0,.6-2.1.9-5.6.2-1.7.1-3.8,0-6.1-.2-2.3-.6-4.8-1.3-7.4-.7-2.6-1.6-5-2.5-7.1-1-2.1-2-3.9-3-5.3-2-2.9-3.6-4.3-3.5-4.4,0,0,.4.3,1.1,1,.4.3.8.8,1.2,1.3.2.3.5.5.7.9.2.3.5.7.7,1,1.1,1.4,2.1,3.3,3.1,5.4,1,2.1,1.9,4.5,2.6,7.1.7,2.6,1.1,5.1,1.3,7.5.1,2.3.2,4.4,0,6.2,0,.4,0,.9-.1,1.2,0,.4-.1.8-.2,1.1-.1.7-.2,1.3-.4,1.7-.3.9-.5,1.5-.5,1.4h0Z"/>
          <path class="cls-6" d="M368.9,368s0-.1,0-.3c0-.2,0-.5-.1-.9-.1-.8-.3-1.9-.5-3.3-.4-2.9-.9-7-1.5-12.1-1.2-10.2-2.7-24.5-3.9-40.2-1.1-15.7-1.8-30-2-40.3-.1-5.2-.2-9.3-.2-12.2v-3.3c0-.4,0-.6,0-.9,0-.2,0-.3,0-.3,0,0,0,.1,0,.3,0,.2,0,.5,0,.9,0,.8,0,1.9.1,3.3,0,2.9.2,7.1.4,12.2.4,10.3,1,24.6,2.2,40.3,1.1,15.7,2.6,29.9,3.7,40.2.6,5.1,1.1,9.2,1.4,12.1.2,1.4.3,2.5.4,3.3,0,.4,0,.6,0,.9,0,.2,0,.3,0,.3h0Z"/>
          <path class="cls-6" d="M317.9,328.6s-.3-.5-.7-1.5c-.4-1-1-2.4-1.8-4.2-1.5-3.5-3.7-8.3-6.4-13.6-2.7-5.2-5.1-9.9-6.9-13.3-.9-1.7-1.6-3.1-2-4.1s-.7-1.5-.7-1.5c0,0,.3.5.9,1.4.5,1,1.3,2.4,2.2,4,1.8,3.4,4.4,8,7,13.3,2.7,5.2,4.9,10.1,6.3,13.6.7,1.8,1.3,3.2,1.6,4.3.4,1,.5,1.6.5,1.6h0Z"/>
          <path class="cls-6" d="M309.9,310.1s-.3,0-.9-.2c-.6-.1-1.4-.4-2.4-.7-2-.6-4.8-1.7-7.6-3.1-2.9-1.4-5.4-3-7.1-4.2-.9-.6-1.6-1.1-2-1.5-.5-.4-.7-.6-.7-.6,0,0,1.1.7,2.9,1.8s4.3,2.6,7.2,4c2.9,1.4,5.6,2.5,7.5,3.3,2,.7,3.2,1.1,3.2,1.2h0Z"/>
          <path class="cls-6" d="M296.5,344.3s-.4-.2-1.1-.6c-.7-.5-1.6-1.1-2.9-1.8-2.5-1.5-6-3.4-10.1-4.9-4.1-1.5-8-2.4-10.8-2.9-1.4-.2-2.6-.4-3.4-.5s-1.2-.2-1.2-.2.5,0,1.3,0,2,.1,3.4.3c2.9.4,6.8,1.2,11,2.8,4.1,1.6,7.7,3.5,10.1,5.1,1.2.8,2.2,1.5,2.8,2,.6.5,1,.8,1,.8h0Z"/>
          <path class="cls-6" d="M404.6,218.1s0,.3,0,.8c0,.6-.1,1.4-.3,2.3-.3,2-.6,4.9-1.2,8.5-.6,3.6-1.5,7.8-2.8,12.4-1.4,4.6-3.3,9.6-6.3,14.3-1.5,2.5-3.4,4.7-5.2,6.7l-.2.2-.2-.2c-2.7-3.6-6.1-6.2-9.5-7.9-1.7-.9-3.4-1.4-5-1.8-1.6-.4-3.1-.6-4.5-.6-2.8,0-5,.4-6.5.9-1.5.5-2.2.9-2.2.8,0,0,.2-.1.5-.3.4-.2.9-.5,1.6-.7,1.5-.6,3.7-1.1,6.5-1.1,1.4,0,3,.2,4.6.6,1.6.4,3.4,1,5.1,1.8,3.5,1.6,7,4.3,9.7,8h-.4c1.8-2,3.6-4.2,5.1-6.6,2.9-4.6,4.9-9.6,6.3-14.1,1.4-4.6,2.2-8.8,2.9-12.4s1.1-6.5,1.4-8.5c.1-1,.3-1.7.4-2.3,0-.5.1-.8.2-.8h0Z"/>
          <path class="cls-6" d="M360.6,254.5s-.2,0-.5,0c-.4,0-.9-.1-1.6-.3-1.4-.3-3.2-1.1-5.4-2.3-1.1-.6-2.2-1.2-3.6-1.5-1.4-.3-3-.3-4.5,0-3.1.6-6.2,3.1-7.5,6.6l-.5,1.5v-1.6c0-.4,0-.8,0-1.2.1-7.9.1-15,.5-20.2.1-2.6.4-4.7.6-6.1,0-.7.2-1.3.3-1.6s.1-.6.1-.6c0,0,0,.8-.2,2.2-.1,1.4-.3,3.5-.4,6.1-.2,5.2-.2,12.3-.3,20.2,0,.4,0,.8,0,1.2h-.5c1.4-3.8,4.7-6.3,7.9-7,3.3-.7,6.4.3,8.4,1.7,2.1,1.3,3.9,2.1,5.2,2.4,1.3.4,2.1.4,2.1.5h0Z"/>
          <g>
            <g>
              <path class="cls-4" d="M395.8,144.1v76.7c0,4.4-1.5,8.6-4.4,12h0c-4.3,5.1-9.5,9.5-15.4,12.8l-15.5,8.7-12.8-11.4c-3.8-3.4-6-8.1-6.2-13.1-.2-5.6-.2-11.2-.2-11.2,0,0-21.7-1.6-23.7-22.9-1-10.1-1.3-30.7-1.3-49.7,0-21.7,16.6-39.7,38.1-41.5h.6c22.4-.6,40.8,17.4,40.7,39.8h0Z"/>
              <path class="cls-7" d="M341.3,218.1s13.6,0,27.2-10.2c0,0-5.3,15.9-26.8,15.8l-.4-5.6h0Z"/>
            </g>
            <g>
              <g>
                <g>
                  <path class="cls-6" d="M323.6,160.2c0,1.6,1.5,2.9,3.2,2.8s3-1.4,2.9-3c0-1.6-1.5-2.9-3.2-2.8s-3,1.4-2.9,3Z"/>
                  <path class="cls-6" d="M321.8,154.5c.4.4,2.6-1.5,5.9-1.8,3.3-.3,5.8,1.2,6.2.8.2-.2-.3-.9-1.4-1.6-1.1-.7-2.9-1.3-5-1.1-2,.2-3.7,1.1-4.6,1.9-1,.9-1.2,1.6-1,1.8Z"/>
                </g>
                <g>
                  <path class="cls-6" d="M354.9,158.9c0,1.6,1.5,2.9,3.2,2.8s3-1.4,2.9-3c0-1.6-1.5-2.9-3.2-2.8s-3,1.4-2.9,3Z"/>
                  <path class="cls-6" d="M354.2,152.4c.4.4,2.6-1.5,5.9-1.8,3.3-.3,5.8,1.2,6.2.8.2-.2-.3-.9-1.4-1.6-1.1-.7-2.9-1.3-5-1.1-2,.2-3.7,1.1-4.6,1.9-.9.9-1.2,1.6-1,1.8Z"/>
                </g>
                <path class="cls-6" d="M344.3,177.8c0-.2-2.1-.4-5.4-.5-.9,0-1.6-.1-1.8-.7-.2-.6,0-1.5.4-2.5.6-2.1,1.3-4.3,2-6.6,2.7-9.4,4.6-17.1,4.2-17.2-.4-.1-2.9,7.4-5.6,16.8-.6,2.3-1.3,4.5-1.9,6.6-.2,1-.7,2.1-.2,3.3.3.6.9,1,1.5,1.1.5.1,1,0,1.4,0,3.4-.1,5.4-.2,5.4-.4h0Z"/>
                <path class="cls-6" d="M354.2,179.3c-.5,0-.2,3.6-3.1,6.4s-6.7,2.7-6.7,3.2c0,.2.9.6,2.5.5,1.6,0,3.8-.8,5.6-2.5,1.7-1.7,2.4-3.9,2.4-5.3,0-1.5-.5-2.4-.7-2.3h0Z"/>
              </g>
              <path class="cls-6" d="M352.3,139.6c.4.9,3.6.2,7.5.3,3.9,0,7.1.9,7.5,0,.2-.4-.4-1.2-1.7-2-1.3-.8-3.4-1.4-5.7-1.5s-4.4.5-5.8,1.2c-1.4.7-2,1.4-1.9,1.9h0Z"/>
              <path class="cls-6" d="M322.3,144.9c.6.7,2.8-.3,5.6-.5,2.7-.4,5.1,0,5.5-.7.2-.4-.2-1.1-1.3-1.7-1-.6-2.8-1.1-4.6-.9-1.9.2-3.4,1-4.3,1.9-.9.9-1.1,1.6-.9,2h0Z"/>
            </g>
            <path class="cls-6" d="M370.7,122.6s0,0,.1,0c3.6,2.4,6.2,6.1,7.2,10.4,0,.1,0,.3.1.4,1.3,6,1.7,12.2,3.1,18.3s1.1,10.6,7.2,12c3.8.9,7-1.3,8.4-3.4.5-.8.5-1.9.5-2.9,0-14.8,2.9-20.6,1.6-36-.4-4.2-2.6-8-6.3-10.1-3.4-2-7.5-4.1-11-2.1s-7.5,9.1-10.1,12.2"/>
            <g>
              <path class="cls-4" d="M389.4,154.4c.4-.2,14.3-5.6,15.1,9.1.7,14.7-14.1,12.4-14.2,12s-.9-21.1-.9-21.1Z"/>
              <path class="cls-7" d="M394.5,169.7c0,0,.3.2.7.3.4.2,1.2.3,1.9,0,1.5-.6,2.7-3.2,2.6-5.8,0-1.3-.4-2.6-.9-3.6-.5-1.1-1.2-1.8-2-1.9-.8-.1-1.3.4-1.5.8-.2.4,0,.7-.1.7,0,0-.3-.2-.2-.8,0-.3.2-.6.5-.9.3-.3.9-.5,1.4-.4,1.1,0,2.2,1,2.8,2.1.6,1.1,1.1,2.5,1.1,4,0,3-1.3,5.8-3.4,6.5-1,.3-1.9,0-2.4-.3-.5-.3-.6-.7-.5-.7h0Z"/>
            </g>
            <path class="cls-6" d="M382.3,111.4c3.1-6.2-7.5-13.7-14.9-15.4-7.4-1.7-16.6,2.6-23.6,5.6-4.4,1.9-8.8,4.3-13.5,4.6-3.2.1-6.4-.8-9.5-1.6-3.1-.8-6.3-1.6-9.5-1.1-3.2.5-6.3,2.4-7.3,5.5-1,3.1,1.1,7,4.3,7.2-4.2-1.9-9.9,1.5-10.1,6.1-.3,4.6,4.9,8.7,9.3,7.3-2.2-1.4-5.2,1.5-4.7,4s3,4.3,5.5,5.1c6.3,2.2,13.4.7,19.5-1.9s11.7-6.4,17.8-9.2c6.1-2.8,16.2-7.8,22.7-6.1,4.8,1.2,8.4,6.6,11,5.1,2.4-1.4,3.8-4.2,4.1-7,.3-2.8-.4-5.6-1-8.3"/>
            <path class="cls-13" d="M306.5,115.9c.1,0,.8,1,2.6,2.6,1.7,1.6,4.5,3.5,8.6,4.6,3.9,1,9.2,1,13.9-1.7,4.8-2.6,8.7-7.4,13.2-12.1,4.5-4.6,10-8.3,15.8-9.3,5.7-1,11.2.7,14.4,3.7,3.2,3.1,4.1,6.8,4.1,9.2,0,1.2-.2,2.1-.4,2.7-.2.6-.4.9-.4.9-.1,0,.4-1.3.2-3.6-.1-2.2-1.2-5.7-4.2-8.4-3-2.7-8.1-4.2-13.5-3.1-5.4,1-10.6,4.4-15,9-4.5,4.5-8.5,9.4-13.6,12.2-5.1,2.9-10.7,2.7-14.8,1.5-4.2-1.2-7-3.4-8.7-5.1-.8-.9-1.4-1.6-1.7-2.2-.3-.5-.5-.8-.5-.8h0Z"/>
            <path class="cls-13" d="M393.1,153.4c0,0-.7-.4-1.3-1.5-.6-1.1-1.2-2.9-1.2-5.2,0-4.7,3.7-10.1,3.7-16.7,0-3.2-.8-6.3-2.3-8.6-1.6-2.3-3.8-3.6-5.8-4.2-2-.7-3.8-.5-4.9-.3-1.2.3-1.8.6-1.8.5,0,0,.5-.6,1.7-1,1.2-.4,3.1-.8,5.4-.2,2.2.6,4.8,1.9,6.6,4.5,1.8,2.5,2.8,5.9,2.7,9.4,0,3.5-1,6.7-2.1,9.4-1,2.7-1.9,5.2-2,7.3-.4,4.4,1.7,6.6,1.5,6.6h0Z"/>
          </g>
          <rect class="cls-6" x="385.8" y="163.8" width="17.4" height="7.5" rx="2.1" ry="2.1" transform="translate(3.5 343) rotate(-47.2)"/>
          <path class="cls-6" d="M484,289s0,.2,0,.6c0,.4,0,1,.1,1.7.1,1.5.3,3.8.5,6.7.4,5.9,1,14.5,1.7,25.4.7,10.9,1.6,24.1,2.6,39.2.2,3.8.5,7.6.8,11.6.1,2,.2,4,.3,6.1,0,1,0,2.1,0,3.1,0,1,0,2.1-.2,3.1-.1,1-.3,2.1-.4,3.2-.2,1-.5,2.1-.7,3.2-.3,1-.7,2.1-1,3.1-.5,1-.8,2-1.4,3-2.1,3.9-5.4,7.5-9.9,9h0c-29.2,0-62.5,0-97.8,0-10.5,0-20.9,0-31,0h-.3v-.3c1-3.4,2-6.7,2.9-10,.5-1.7.9-3.3,1.4-5,.5-1.6.9-3.3,1.2-4.9.5-3.3.2-6.7-.9-9.8-.5-1.5-1.3-3-2.3-4.2-1-1.2-2.5-2.1-4-2.3l-2-.3,2-.2c12.9-1.1,25.3-2.1,37-3.1h-.1c2.3-1.6,5.2-2.6,8-2.4,2.8.1,5.4,1,7.7,2.5h-.2c11.3-2.2,21.8-4.1,31.3-6v.2c-.5-1.2-.6-2.5-.7-3.7,0-1.2,0-2.4.1-3.6.2-2.3.5-4.6,1-6.8h0c-2.5-4.6-4.8-8.9-6.9-12.8h0c-.5-11.6-.7-20.7-.6-26.9,0-3.1.1-5.5.3-7.1,0-.8.2-1.4.3-1.8,0-.4.1-.6.1-.6,0,0,0,.2-.1.6,0,.4-.2,1-.2,1.8-.1,1.6-.2,4-.2,7.1,0,6.2.2,15.3.7,26.8h0c2.1,3.9,4.5,8.2,7,12.9h0c-.4,2.3-.8,4.5-.9,6.8,0,1.2-.1,2.3,0,3.5,0,1.2.1,2.4.5,3.6v.2c0,0-.1,0-.1,0-9.6,1.8-20,3.8-31.3,6h0s0,0,0,0c-2.2-1.4-4.8-2.2-7.5-2.4-2.7-.1-5.4.7-7.7,2.4h0s0,0,0,0c-11.7,1-24,2-37,3.1v-.5c1.7.3,3.2,1.2,4.3,2.5,1.1,1.3,1.9,2.8,2.4,4.4,1,3.2,1.4,6.7.9,10.1-.2,1.7-.7,3.4-1.2,5-.5,1.6-.9,3.3-1.4,5-.9,3.3-1.9,6.7-2.8,10l-.2-.3c10.1,0,20.5,0,31,0,35.3,0,68.6,0,97.8,0h0c2.1-.7,4.1-2,5.7-3.5,1.6-1.6,2.9-3.4,4-5.3.5-1,.9-2,1.4-3,.3-1,.7-2.1,1-3.1.2-1,.5-2.1.7-3.1.1-1,.3-2.1.4-3.1.2-1,.1-2.1.2-3.1,0-1,.1-2.1,0-3.1,0-2-.2-4.1-.3-6.1-.2-4-.5-7.9-.7-11.6-1-15.1-1.8-28.3-2.5-39.2-.7-10.9-1.2-19.5-1.6-25.4-.2-2.9-.3-5.2-.4-6.7,0-.8,0-1.3,0-1.7s0-.6,0-.6h0Z"/>
          <path class="cls-6" d="M455.7,234.5s-.6.4-1.8,1.1c-1.1.7-2.8,1.8-4.6,3.3-3.7,3-8.2,8-12,14.3-3.7,6.3-6.2,12.5-8,17-.9,2.2-1.6,4-2.1,5.3-.2.6-.4,1.1-.6,1.4-.1.3-.2.5-.2.5,0,0,0-.2.1-.5.1-.4.3-.9.5-1.5.4-1.3,1.1-3.1,1.9-5.4,1.7-4.5,4.1-10.8,7.9-17.1,3.8-6.4,8.4-11.4,12.2-14.4,1.9-1.5,3.6-2.6,4.8-3.2.6-.3,1.1-.6,1.4-.7.3-.2.5-.2.5-.2h0Z"/>
          <g class="cls-10">
            <path d="M416.6,272.7c-4.2,9.2-6,19.7-5.6,29.9s1.6,20.4.6,30.5-4.5,20.5-12.1,27.3c-.9.8-1.9,1.6-2.4,2.7s-.5,2.6.5,3.4c.9.7,2.1.5,3.1.3,7.2-1.3,14.5-2.1,21.8-3.4,1.5-.3,6.8-1.3,6.8-1.3,0,0-.7-4-.4-6,.2-1.8.9-8,.9-8-.2-1-.9-1.7-1.4-2.6-4.8-8.8-6-15.4-6-15.4-2.5-5.1-3.6-10.1-4.7-14.9-3.2-13.1-3.1-26-1.1-42.6"/>
          </g>
          <g class="cls-10">
            <path d="M337.3,257.8c.6,1.5,1.2,3,1.8,4.5.2.5.4,1,.9,1.1.9.3,1.6-.8,2-1.6,1.7-3.4,5.1-5.8,8.9-6.2,3-.4,6.2.5,9.1,0-2.6-1.6-5.3-3.2-8.3-4.1-2.9-.9-6.2-1.2-9.1,0-2.9,1.1-5.3,3.8-5.5,6.8"/>
          </g>
          <g class="cls-10">
            <path d="M362,254c3.5,0,7.1.1,10.6.9,3.5.8,6.8,2.5,9.1,5.2,2.4,3,3.3,6.8,4.3,10.5.2.7.5,1.5,1.3,1.6.4,0,.8-.2,1.2-.5,6-4.4,9.9-11.1,12.1-18.2,2.2-7.1,2.7-14.6,2.8-22-2.9,5.1-4.1,10.9-6,16.5-1.9,5.5-4.7,11.1-9.6,14.3.2-1.2-.3-2.5-1.1-3.5-.8-1-1.8-1.7-2.9-2.4-6.6-4-14.9-5-22.3-2.7"/>
          </g>
          <g>
            <path class="cls-4" d="M346.5,371.8h-12.2s-27.6-10-33.3-9c-5.1.9-23.9,13.3-27.5,15.8-.4.3-.7.7-.9,1.1h0c-.8,2,.2,4.3,2.2,5.1l.4.2-.2.6c-.2.7-.3,1.5-.3,2.2.1,2.6,3.7,3.4,5,1.2l-.7,1.2c-.3.5-.4,1.1-.4,1.7v1.1c.1,1.3,1,2.4,2.2,2.8h0c1.1.4,2.4,0,3.2-.8,2.4-2.6,7.5-7.9,11-8.4,3.1-.5,8.2-.6,11.3-.6,1.6,0,3,1,3.6,2.5h0c-2.1.1-16.4,7.6-21.5,10.3-1.6.8-2.8,2.3-3,4.1-.2,1.6.6,3.3,3.8,2.5,6.8-1.6,18.9-7.2,18.9-7.2,0,0,6.3-1.8,10.3,1.1,5.7,4,8.3,5.5,13.2,3.9,4.9-1.6,8.5-4,8.5-4l9.7-1s9.1-22.8-3.4-26.3h0Z"/>
            <path class="cls-7" d="M310,376.4c0,.1-2-.5-5.2-.7-3.2-.2-7.8.1-12.3,2.1s-8,5-10,7.4c-2.1,2.5-3,4.3-3.1,4.2,0,0,.2-.5.6-1.3.4-.8,1.1-1.9,2.2-3.2,2-2.6,5.5-5.7,10.1-7.7,4.6-2,9.3-2.3,12.5-2,1.6.1,2.9.4,3.8.6.9.2,1.4.4,1.4.4h0Z"/>
            <path class="cls-7" d="M307.1,369.7c0,.1-2-.8-5.4-.9-3.4-.1-8.1.9-12.6,3.6-4.4,2.7-7.8,6.1-10.1,8.6-1.1,1.2-2,2.2-2.8,3-.7.7-1,1.1-1.1,1,0,0,.3-.4.9-1.2.6-.7,1.5-1.8,2.7-3.1,2.3-2.5,5.6-6,10.1-8.8,4.5-2.7,9.4-3.7,12.9-3.5,1.7.1,3.1.4,4,.7.5.1.8.3,1,.4.2.1.4.2.3.2h0Z"/>
          </g>
        </g>
      </g>
      <g id="Speech_Bubble">
        <g>
          <path class="cls-8" d="M466.6,91.9c-22.6,0-40.9,18.3-40.9,40.9s2.7,16.8,7.4,23.4l-4.9,15.2,15-5.1c6.6,4.6,14.7,7.4,23.4,7.4,22.6,0,40.9-18.3,40.9-40.9s-18.3-40.9-40.9-40.9h0Z"/>
          <g>
            <g>
              <path class="cls-6" d="M455.8,132.5c0,1.9-1.7,3.5-3.6,3.4s-3.5-1.7-3.4-3.6c0-1.9,1.7-3.5,3.6-3.4s3.5,1.7,3.4,3.6Z"/>
              <path class="cls-6" d="M469.9,132.9c0,1.9-1.7,3.5-3.6,3.4s-3.5-1.7-3.4-3.6c0-1.9,1.7-3.5,3.6-3.4s3.5,1.7,3.4,3.6Z"/>
              <path class="cls-6" d="M484.1,131.6c.9,1.7.3,3.9-1.4,4.8-1.7.9-3.9.3-4.8-1.4-.9-1.7-.3-3.9,1.4-4.8,1.7-.9,3.9-.3,4.8,1.4Z"/>
            </g>
            <path class="cls-6" d="M467.9,91.7s.2,0,.7,0c.5,0,1.2,0,2.1.1.5,0,1,0,1.5.1.6,0,1.2.2,1.8.3.7.1,1.4.2,2.1.4.8.2,1.5.4,2.4.7,3.4,1,7.4,2.6,11.5,5.4,4.1,2.8,8.4,6.8,11.7,12.1,3.3,5.3,5.8,12,6.3,19.4,0,1.9.2,3.7,0,5.6-.1.9-.1,1.9-.3,2.9-.2,1-.4,1.9-.5,2.9-.9,3.8-2.2,7.8-4.3,11.4-2,3.6-4.7,7.1-7.8,10.1-3.2,3-6.9,5.5-11,7.4-4.1,1.9-8.6,3.2-13.3,3.6-1.2.2-2.3.2-3.5.2-1.2,0-2.4,0-3.6,0-2.4-.2-4.8-.5-7.1-1.1-5.1-1.2-9.8-3.5-14-6.4h.4c-5,1.9-9.9,3.7-14.6,5.4l-.9.3.3-.9c1.6-5.2,3.2-10.4,4.7-15.3v.4c-3.8-5.5-6.2-11.7-7.1-17.9-.4-3.1-.6-6.1-.3-9.1.1-1.5.2-2.9.5-4.3.1-.7.3-1.4.4-2.1.1-.7.4-1.4.6-2,3.1-10.8,10-18.6,16.8-23,3.4-2.2,6.7-3.8,9.7-4.8.8-.2,1.5-.5,2.2-.7.7-.2,1.4-.3,2.1-.5.7-.1,1.3-.3,1.9-.4.6,0,1.2-.1,1.7-.2,1.1-.1,2.1-.3,2.9-.3h2.1c.5,0,1,0,1.3,0,.3,0,.4,0,.4,0s-.1,0-.4,0c-.3,0-.8,0-1.3,0-.6,0-1.3,0-2.1,0-.8,0-1.8.2-2.9.3-4.3.7-10.7,2.2-17.3,6.7-6.6,4.4-13.4,12.2-16.4,22.8-.2.7-.4,1.3-.5,2-.1.7-.2,1.4-.4,2.1-.3,1.4-.4,2.8-.5,4.3-.3,2.9-.1,5.9.3,8.9.9,6,3.3,12.1,7.1,17.5v.2c.1,0,0,.2,0,.2-1.5,4.9-3.1,10.1-4.7,15.3l-.6-.6c4.8-1.8,9.6-3.6,14.6-5.4h.2c0,0,.2,0,.2,0,4.1,2.9,8.7,5,13.7,6.2,2.3.6,4.6.9,6.9,1.1,1.2,0,2.3,0,3.5,0,1.2,0,2.3,0,3.5-.2,4.6-.4,9-1.7,13-3.6,4-1.9,7.7-4.4,10.8-7.3,3.1-3,5.6-6.3,7.7-9.9,2.1-3.5,3.3-7.4,4.2-11.1.2-.9.4-1.9.5-2.8.2-.9.2-1.9.3-2.8.2-1.9,0-3.7,0-5.5-.4-7.3-2.8-13.8-6.1-19.1-3.3-5.3-7.4-9.2-11.5-12.1-4-2.9-8-4.5-11.3-5.5-.8-.2-1.6-.5-2.4-.7-.8-.2-1.5-.3-2.1-.4-.7-.1-1.3-.2-1.8-.4-.6,0-1.1-.1-1.5-.2-.9,0-1.6-.2-2.1-.2-.5,0-.7,0-.7-.1h0Z"/>
          </g>
        </g>
      </g>
      <g id="Cat">
        <g>
          <g>
            <path class="cls-6" d="M557,404.3c-2.6.4-5.1,1.6-6.6,3.7-1.6,2.1-2,5-.9,7.4s3.9,3.8,6.5,3.1c0,1.8,1.8,3.5,3.6,3.5s3.6-1.5,3.7-3.4c1.2,1.4,3.3,1.8,5,1.1,1.7-.7,2.8-2.5,2.7-4.3,0-1.1-.6-2.2-.8-3.4-.2-1.2.2-2.5.1-3.8,0-1.2-.6-2.6-1.8-3"/>
            <path class="cls-6" d="M505.7,411.1c3.9-2.5,8.3-4,12.8-5.1,3.2-.8,6.7-1.5,9.9-.5,3,1,5.4,3.5,6.2,6.6.3,1.2.4,2.5-.2,3.5-.8,1.4-2.4,2.1-4,2.4-1.2.3-2.7.4-3.4-.6-.8,1-2,1.6-3.2,1.7-1.3.1-2.5-.4-3.5-1.2-.8,2-3.3,3.1-5.3,2.5-2-.6-3.5-2.9-3.1-5-1,1.4-2.6,2.2-4.3,2.1s-3.2-1.4-3.5-3,.8-3.5,2.4-3.9"/>
            <path class="cls-6" d="M468.2,410.5c-1-4.3.7-8.8,4.3-11.4,4-2.9,6.8-6.2,12.1-9.4,3.7-2.2,10-4.5,12.8-5.5,10.2-3.4,17.2-4.3,21.4-6.5,4.6-2.4,10.8-6.2,10.8-6.2l52.3,4s6.3,38.6-3.2,42.4c0,0-44.3.5-47.8-1.1-3.8-1.7-61.5-1.6-61.3-1.3l-1.2-5.2h0Z"/>
            <g>
              <path class="cls-6" d="M496.6,403.1c-11.2,1.7-16.8,2.2-28.1,2.3-3.3,0-6.7,0-9.9.6-2,.4-4,1.1-5.4,2.5s-2.2,3.6-1.5,5.5,3.2,3,4.9,2c.3,1.6,1.6,2.9,3.2,3.2s3.3-.4,4.1-1.8c.7.9,2,1.2,3.2,1s2.2-.8,3.3-1.3c4.6-2.1,9.4-1.6,14.5-1.6,8.8,0,18.8,0,15.1,0"/>
              <path class="cls-13" d="M499.9,415.5s.2,0,.7,0h0c0,.2,0,0,0,0h-.4c-.1,0-.3,0-.5,0-.4,0-.8,0-1.2,0-1.9,0-4.6,0-8,0-1.7,0-3.6,0-5.6,0-2,0-4.2-.1-6.5,0-2.3,0-4.8.3-7.1,1.3-1.2.5-2.3,1.2-3.6,1.5-.7.2-1.4.2-2.1.1-.7-.1-1.4-.5-1.9-1.1h.4c-.9,1.4-2.6,2.2-4.3,1.9-1.7-.3-3.1-1.7-3.5-3.4l.4.2c-1.3.8-3,.5-4.1-.5-.8-.6-1.2-1.5-1.4-2.4-.1-.9,0-1.9.4-2.7.7-1.7,2.1-3,3.7-3.7,1.6-.7,3.2-1.1,4.9-1.3,1.6-.2,3.2-.3,4.8-.3,6.2,0,11.8,0,16.5-.4,4.7-.3,8.5-.8,11.1-1.1,1.3-.2,2.3-.3,3-.4.3,0,.6,0,.8,0,.2,0,.3,0,.3,0s0,0-.3,0c-.2,0-.5,0-.8.1-.7.1-1.7.3-3,.5-2.6.4-6.4.9-11.1,1.3-4.7.4-10.3.5-16.5.5-1.5,0-3.1.1-4.7.4-1.6.2-3.2.6-4.7,1.3-1.5.7-2.8,1.9-3.4,3.4-.6,1.5-.5,3.5.9,4.6,1,.9,2.5,1.1,3.5.5l.3-.2v.4c.3,1.5,1.6,2.8,3.1,3s3-.5,3.8-1.7l.2-.3.2.3c.8,1,2.3,1.1,3.5.8,1.2-.3,2.4-1,3.6-1.5,2.4-1,4.9-1.2,7.3-1.3,2.3,0,4.5,0,6.5,0,2,0,3.9,0,5.6,0,3.4,0,6.1,0,8,0,.5,0,.9,0,1.2,0h.9s0,0,0,0h0c-.5,0-.7,0-.7,0h0Z"/>
            </g>
            <path class="cls-13" d="M569.9,413.5s.3.2.6.8c.3.5.6,1.5.5,2.7,0,.6-.3,1.3-.7,1.9-.4.6-1,1.2-1.8,1.5-1.5.7-3.8.5-5.3-1.1h.4c-.5,1.4-1.9,2.6-3.6,2.7-1.7.1-3.5-1-4.1-2.8l.3.2c-2.8.7-5.9-1.2-7-4-.9-2.1-.5-4.5.4-6.4,1-1.9,2.5-3.4,4.2-4.3,1.7-.9,3.5-1.4,5.2-1.6s3.3-.2,4.7,0c2.9.2,5.1.8,6.7,1,.7.1,1.3.3,1.8.4.4,0,.6.1.6.1s-.2,0-.6,0c-.4,0-1-.1-1.8-.3-1.6-.2-3.8-.7-6.7-.9-2.8-.2-6.3,0-9.6,1.8-1.6.9-3,2.3-4,4.1-.9,1.8-1.2,4-.4,5.9,1.1,2.6,4,4.3,6.4,3.7h.2c0,0,0,.2,0,.2.5,1.6,2.1,2.6,3.6,2.5,1.5,0,2.8-1.2,3.2-2.5v-.4c.1,0,.4.3.4.3,1.3,1.5,3.4,1.7,4.9,1.1,1.5-.6,2.2-2,2.3-3.1.2-1.1,0-2-.3-2.6-.3-.6-.5-.8-.5-.8h0Z"/>
            <path class="cls-13" d="M577.7,403.4c0,0-.6-.5-1.7-1-1-.6-2.6-1.1-4.4-1s-3.3.8-4.3,1.5c-1,.7-1.5,1.3-1.5,1.2,0,0,.3-.7,1.3-1.5,1-.8,2.6-1.6,4.5-1.7s3.6.6,4.6,1.2c1,.7,1.5,1.3,1.5,1.4h0Z"/>
            <path class="cls-13" d="M505.5,417.2s-.1,0-.4-.3c-.2-.2-.6-.5-.9-1-.6-1-1.1-2.8-.6-4.8s2.3-4.1,4.7-5.4c2.4-1.4,5.3-2.2,8.1-3.5,5.7-2.6,9.7-6.9,11.8-10.3,1.1-1.7,1.8-3.2,2.2-4.3.4-1.1.7-1.6.7-1.6,0,0,0,.2,0,.5,0,.3-.2.7-.4,1.3-.4,1.1-1,2.6-2.1,4.4-2.1,3.5-6.1,8-11.9,10.6-2.9,1.3-5.8,2-8.1,3.4-2.3,1.3-4,3.2-4.6,5.1-.6,1.9-.2,3.6.4,4.6.5,1,1.1,1.4,1.1,1.4h0Z"/>
            <path class="cls-13" d="M526.3,416.9s.3.5,1.1.9c.8.4,2.2.7,3.7,0,1.5-.6,2.7-2.5,2.6-4.7,0-1.1-.3-2.2-.9-3.2-.6-1-1.5-1.9-2.5-2.6-2.1-1.4-4.5-2-6.7-2-2.2,0-4.2.4-5.8.9-1.6.5-2.9.9-3.8,1.2-.9.3-1.4.5-1.4.4,0,0,.5-.3,1.3-.6s2.2-.9,3.8-1.4c1.6-.5,3.6-1,5.9-1,2.3,0,4.8.6,7,2.1,1.1.8,2,1.7,2.6,2.8.6,1.1,1,2.3,1,3.5,0,2.3-1.2,4.4-2.9,5.1-1.7.7-3.2.3-4-.2-.4-.2-.7-.5-.8-.7-.2-.2-.2-.3-.2-.3h0Z"/>
            <path class="cls-13" d="M520.5,417.6s.5.7,1.7,1.1c.6.2,1.3.4,2.1.4.8,0,1.6-.6,2-1.4.5-.8.4-1.7.2-2.5s-.6-1.4-1-1.9c-.8-1-1.3-1.6-1.3-1.6,0,0,.7.4,1.6,1.4.4.5.9,1.1,1.2,2,.3.8.3,1.9-.2,2.9-.5.9-1.5,1.5-2.4,1.6-.9,0-1.7-.2-2.3-.5-.6-.3-1-.6-1.3-.9s-.3-.5-.3-.5h0Z"/>
            <path class="cls-13" d="M512.1,415.8s0,.3,0,.8c0,.5,0,1.2.5,2,.4.8,1.2,1.5,2.4,1.8,1.1.2,2.5,0,3.5-.8,1-.8,1.6-2.1,1.7-3.2.1-1.2-.2-2.2-.6-3-.8-1.6-1.9-2.2-1.8-2.3,0,0,.3,0,.7.4.4.3,1,.9,1.5,1.7.5.8.8,2,.7,3.2-.1,1.3-.7,2.6-1.9,3.6-1.2.9-2.7,1.2-4,.9-1.3-.3-2.2-1.2-2.6-2-.4-.9-.5-1.7-.4-2.2,0-.5.2-.8.2-.8h0Z"/>
            <path class="cls-6" d="M532.9,380.5s11.1,12.2,24.8,10.6c13.7-1.5,24.3-14.9,24.3-14.9,2.1-3.4,1.2-6.8.6-9.4s-1.9-5-1.9-7.7c0-2.3.9-4.4,1.5-6.6,1.5-4.8,1.7-10,1.9-15,0-2.2,0-4.8-1.8-5.9-1.1-.7-2.6-.6-3.9,0s-2.2,1.5-3.2,2.4c-4.1,4-8,8.2-11.6,12.7-5.6-4-13.9-3.3-18.8,1.5-5.9-2.5-7.8-10.7-13.8-12.8-1.3-.5-2.9-.5-4,.3-1.5,1.1-1.5,3.2-1.5,5,.2,8.2.5,16.7,3.9,24.2-1.5,5.1-.2,10.8,3.2,14.8"/>
            <path class="cls-13" d="M553,382.2c.7-1.1,1.8-1.9,3.1-2.2s2.6-.3,3.8.3c.3.1.6.3.8.5s.2.6,0,.9c-.2-.3-.7-.3-1,0-.3.3-.3.7-.3,1.1,0,.4,0,.8-.1,1.2-.2.4-.6.8-1,.9s-1,0-1.3-.4c-.3-.3-.4-.7-.6-1.1-.2-.4-.5-.7-.9-.8-.3,0-.6,0-1,.2s-.7.2-1,0-.4-.6-.2-.8"/>
            <path class="cls-13" d="M558.1,383.8c0,0,0,.4.2,1.1.2.6.5,1.5,1.3,2.2.8.6,1.7.9,2.3.9.7,0,1.1,0,1.1,0,0,0-.4.3-1.1.3-.7,0-1.8-.2-2.7-.9-.9-.8-1.3-1.8-1.3-2.5,0-.7,0-1.2.1-1.2h0Z"/>
            <path class="cls-13" d="M558.1,383.1s.3.5.4,1.4c0,.9-.3,2.2-1.3,3.1-1,1-2.3,1.2-3.2,1.1-.9,0-1.3-.4-1.3-.5,0,0,.5.1,1.3.1.8,0,2-.3,2.8-1.1.9-.8,1.2-2,1.3-2.8,0-.8,0-1.3,0-1.3h0Z"/>
            <path class="cls-13" d="M579.3,387.7c0,.2-3.1-1.5-7.3-2-4.2-.5-7.5.3-7.6.2,0,0,.8-.4,2.2-.6,1.4-.2,3.3-.4,5.5,0s4,.9,5.3,1.4,2,1,2,1.1h0Z"/>
            <path class="cls-13" d="M585.7,385c0,0-1.2-.2-3.3-.6-2-.4-4.8-.7-7.9-.8-3.1,0-5.9.2-7.9.5s-3.3.5-3.3.5c0,0,.3-.1.8-.3.5-.2,1.4-.4,2.4-.5,2-.4,4.9-.7,8-.7,3.2,0,6,.5,8,.9,1,.2,1.8.4,2.3.6.5.2.8.3.8.3h0Z"/>
            <path class="cls-13" d="M589.1,377.9c0,0-1.5,0-3.9,0s-5.8.1-9.4.8c-3.6.7-6.8,1.8-9,2.9-2.2,1.1-3.4,2-3.4,1.9,0,0,.3-.3.8-.7s1.4-1,2.5-1.5c2.1-1.2,5.3-2.5,9-3.1,3.7-.7,7.1-.7,9.5-.6,1.2,0,2.2.1,2.9.2s1,.1,1,.2h0Z"/>
            <path class="cls-13" d="M531.7,393.8s.2-.2.6-.6c.4-.4,1-.8,1.8-1.4,1.5-1.1,3.9-2.3,6.6-3.3,2.7-.9,5.3-1.3,7.2-1.4.9,0,1.7,0,2.2,0,.5,0,.8,0,.8.1,0,0-1.2,0-3,.3-1.8.2-4.4.6-7.1,1.5-2.7.9-5,2.1-6.6,3.1s-2.5,1.7-2.6,1.6h0Z"/>
            <path class="cls-13" d="M530.9,388.2s.3-.2.8-.4c.5-.2,1.2-.5,2.2-.8,1.9-.6,4.5-1.3,7.5-1.6,3-.3,5.7-.2,7.7,0,1,.1,1.8.2,2.3.4.5.1.8.2.8.2,0,0-1.2,0-3.2-.2-1.9-.1-4.6-.2-7.6.2s-5.6.9-7.4,1.5c-1.9.5-3,1-3,.9h0Z"/>
            <path class="cls-13" d="M523.9,385.9s.4-.2,1-.5c.7-.3,1.7-.6,3-1,2.5-.7,6.1-1.5,10.1-1.6,4-.1,7.7.3,10.2.9,1.3.3,2.3.5,3,.8.7.2,1.1.4,1.1.4,0,0-1.6-.4-4.2-.8-2.6-.5-6.2-.9-10.1-.7-4,.1-7.5.8-10,1.4-2.5.6-4,1.2-4.1,1.1Z"/>
            <path class="cls-13" d="M550.6,372.2s-.5.6-1.5,1.1c-1.1.5-2.8.9-4.5.4-1.8-.5-3.1-1.6-3.8-2.6-.7-1-.9-1.7-.8-1.7,0,0,.4.6,1.1,1.5.7.9,2,1.9,3.6,2.3,1.6.4,3.2.1,4.3-.2,1.1-.4,1.6-.8,1.7-.8h0Z"/>
            <path class="cls-13" d="M572.8,367.4s.2.7-.2,1.8c-.3,1.1-1.4,2.4-3,3.1-1.6.7-3.2.8-4.3.8-1.1,0-1.8,0-1.8-.1s.7-.1,1.8-.2c1.1-.1,2.6-.2,4.1-.9,1.5-.6,2.5-1.8,2.9-2.8.5-1,.4-1.7.5-1.7h0Z"/>
            <path class="cls-13" d="M534.1,352.6c.6-.6,1.2-1.3,1.7-2.1s.7-1.8.6-2.8c-.1-1-.7-1.9-1.3-2.7-1.6-2.2-3.4-4.1-5.5-5.6,0,0-1.6-1.2-2.3,0-.5.8-.2,13.9,1.7,14.8,1.8.8,5.1-1.6,5.1-1.6h0Z"/>
            <path class="cls-13" d="M579.5,333.9c-2.9,2.3-4,6.2-6.2,9.2-.4.5-.8,1.1-1,1.7s-.4,1.3-.2,2c.2.7.7,1.2,1.3,1.6,1.2,1,2.5,1.8,3.9,2.4,0,0,3,.9,3.8-1.8s.5-16.6-1.5-15h0Z"/>
            <path class="cls-6" d="M486.6,390.5c-3.5.5-11.6-.8-14-3.3-2.5-2.5-1.7-6.3-.4-9.6,1.3-3.3,3.3-6.3,5-9.4,2.8-5.2,4.9-11,5.1-16.9s-1.8-12.1-6-16.3c-4.2-4.2-10.9-6.1-16.4-4-4.6,1.8-8.1,7-6.3,11.6,1.1,2.9,3.9,4.7,5.8,7,2.8,3.3,3.8,8,2.9,12.2-1,4.6-4.3,8.4-5.5,12.9-1.9,6.9,1.5,14.6,7.2,18.9,5.7,4.3,13.3,5.6,20.4,4.8"/>
          </g>
          <path class="cls-12" d="M560.5,388.1s.4,2.7-.5,3.8c-.4.5-1,.9-1.6,1-.9.1-1.8-.5-2.3-1.4-.5-.8-.6-1.8-.6-2.7,0,0,2.4-.9,2.7-2.2,0,0,1,1.5,2.3,1.6h0Z"/>
          <path class="cls-13" d="M572.7,389.2s-.2.4-.8.9-1.4,1.3-2.5,2c-2.2,1.5-5.7,3.2-9.9,3.5-4.2.3-7.9-.7-10.3-1.9-1.2-.6-2.2-1.2-2.8-1.6-.6-.4-.9-.7-.9-.8,0,0,1.4,1,3.8,2,2.4,1.1,6.1,2,10.1,1.7,4-.3,7.5-1.9,9.7-3.3,2.2-1.4,3.4-2.7,3.5-2.6h0Z"/>
          <path class="cls-13" d="M558.4,407.2c0,0-.7.5-1.6,1.4-.9.9-1.9,2.4-2.2,4.3-.3,1.9.2,3.7.8,4.8.6,1.1,1.2,1.7,1.1,1.8,0,0-.7-.5-1.4-1.6-.7-1.1-1.3-3-1-5.1.3-2.1,1.5-3.7,2.5-4.5,1-.9,1.8-1.1,1.8-1.1Z"/>
          <path class="cls-13" d="M568.1,408.4c0,.1-.8,0-2,.5-1.1.5-2.5,1.7-3.1,3.5-.6,1.8-.4,3.6,0,4.8.3,1.2.6,2,.6,2,0,0-.5-.6-.9-1.9-.4-1.2-.7-3.1,0-5.1.7-2,2.2-3.2,3.5-3.7,1.3-.5,2.1-.2,2.1-.2h0Z"/>
          <path class="cls-13" d="M541,401.9c0,0-.2.6-.8,1.4-.6.8-1.5,2-2.7,3-1.2,1-2.5,1.7-3.4,2.1-1,.4-1.6.5-1.6.5,0-.2,2.3-1,4.7-3,2.3-2,3.7-4.1,3.8-4h0Z"/>
          <path class="cls-13" d="M528.9,371.9s-.2.2-.6.4-1,.7-1.7,1.1c-1.5,1-3.8,2.2-6.7,3.6-2.9,1.3-6.5,2.7-10.5,4-4,1.3-8.5,2.5-13.1,4.1-4.6,1.5-8.9,3.2-12.6,5.2-3.7,2-6.8,4.3-9.1,6.5s-3.9,4.2-4.8,5.7c-1,1.5-1.4,2.4-1.5,2.4,0,0,0-.2.3-.7.2-.4.5-1,1-1.8.9-1.5,2.5-3.6,4.8-5.9,2.3-2.2,5.4-4.6,9.1-6.6,3.7-2,8-3.8,12.7-5.3s9.1-2.8,13.1-4c4-1.3,7.6-2.6,10.5-3.9,2.9-1.3,5.2-2.5,6.7-3.4.8-.5,1.4-.8,1.8-1,.4-.2.6-.4.6-.4h0Z"/>
          <path class="cls-13" d="M534.2,380.8s-.7-.6-1.6-1.8-1.8-3-2.5-5.1c-.7-2.1-.8-4.2-.8-5.6,0-1.5.2-2.4.3-2.3.2,0-.3,3.6,1,7.8,1.3,4.2,3.7,7,3.6,7h0Z"/>
        </g>
      </g>
      <g id="Device">
        <g>
          <path class="cls-6" d="M173.7,414.6l-33.2-83.3c-2.9-7.2,2.3-15,10.1-15h103.4c4.7,0,8.8,3,10.3,7.4l28.5,84,33.3.2c2.7,0,4.9,4,4.9,6.7h0l-36.6-.4-120.6.5h0Z"/>
          <path class="cls-11" d="M221.5,368.9c0,3.7-3,6.7-6.7,6.7s-6.7-3-6.7-6.7,3-6.7,6.7-6.7,6.7,3,6.7,6.7Z"/>
        </g>
      </g>
      <g id="Desk">
        <path class="cls-6" d="M616.3,414.1c0,.1-137.5.3-307,.3s-307-.1-307-.3,137.4-.3,307-.3,307,.1,307,.3Z"/>
      </g>
      <g id="Plant">
        <g>
          <g>
            <path class="cls-15" d="M93.7,379.8c-9.8-5.7-15-18.9-15.4-29.6s4.1-22.1,13-28.2c9.3-6.5,22.6-6.4,32.2-.3,9.6,6.1,15.2,17.7,14.8,29.1s-6.6,22.2-15.8,29"/>
            <path class="cls-8" d="M109.3,380.8c0,0-.1-.9-.2-2.5,0-1.8-.1-4-.2-6.7-.2-5.7-.4-13.5-.8-22.2s-.8-16.5-1.2-22.2c-.2-2.7-.3-5-.4-6.7,0-1.6,0-2.5,0-2.5,0,0,.2.9.4,2.5.2,1.6.4,3.9.7,6.7.5,5.7,1.1,13.5,1.5,22.2.4,8.7.5,16.5.5,22.2,0,2.9,0,5.1,0,6.7,0,1.6-.1,2.5-.2,2.5h0Z"/>
            <path class="cls-6" d="M81.1,347.7c0,.2-1.6.3-3.5.2-1.9-.2-3.4-.5-3.4-.7s1.6-.3,3.5-.2c1.9.2,3.4.5,3.4.7Z"/>
            <path class="cls-6" d="M81.7,338c0,.2-1.4-.1-3-.8-1.6-.7-2.7-1.4-2.6-1.7,0-.2,1.4.1,3,.8,1.6.7,2.7,1.4,2.6,1.7Z"/>
            <path class="cls-6" d="M86.7,330.8c-.1.2-1.6-.5-3.2-1.8-1.6-1.3-2.6-2.6-2.4-2.8.2-.2,1.4.9,3,2.1,1.5,1.3,2.8,2.3,2.6,2.5h0Z"/>
            <path class="cls-6" d="M91.7,324c-.2.1-1-1-1.6-2.5s-1-2.8-.8-2.9,1,1,1.6,2.5,1,2.8.8,2.9Z"/>
            <path class="cls-6" d="M99.5,319.2c-.2.1-1-1.1-1.5-2.8-.5-1.7-.6-3.1-.3-3.1.2,0,.7,1.3,1.2,2.9.5,1.6.9,2.9.7,3h0Z"/>
            <path class="cls-6" d="M112.7,313.8c.2,0,0,1.1-.3,2.3s-.9,2.1-1.2,2c-.2,0,0-1.1.3-2.3s.9-2.1,1.2-2Z"/>
            <path class="cls-6" d="M122.4,318c.2.2-.4,1-1.4,1.9s-1.8,1.4-2,1.2c-.2-.2.4-1,1.4-1.9s1.8-1.4,2-1.2Z"/>
            <path class="cls-6" d="M131,323.5c.1.2-.6,1-1.7,1.7-1.1.7-2.1,1.2-2.2,1s.6-1,1.7-1.7c1.1-.7,2.1-1.2,2.2-1h0Z"/>
            <path class="cls-6" d="M137,331.8c.1.2-1.1,1-2.7,1.6-1.6.7-2.9,1-3,.8-.1-.2,1.1-1,2.7-1.6,1.6-.7,2.9-1,3-.8Z"/>
            <path class="cls-6" d="M139.4,340.8c0,.2-1.2.6-2.7.8s-2.8.1-2.8-.1,1.2-.6,2.7-.8,2.8-.1,2.8.1Z"/>
            <path class="cls-6" d="M140.7,351.8c-.1.2-1.4-.1-2.9-.8-1.5-.6-2.6-1.4-2.5-1.6s1.4.1,2.9.8c1.5.6,2.6,1.4,2.5,1.6h0Z"/>
            <path class="cls-6" d="M139.6,361.3c0,.2-1.7-.2-3.4-1.3-1.7-1.1-2.7-2.5-2.6-2.6.2-.2,1.4.8,3.1,1.9,1.6,1.1,3,1.8,2.9,2.1h0Z"/>
            <path class="cls-6" d="M134.6,370c-.1.2-1.5-.6-2.7-1.9-1.3-1.4-1.9-2.7-1.7-2.9.2-.1,1.2.9,2.4,2.2,1.2,1.3,2.2,2.4,2,2.5h0Z"/>
            <path class="cls-6" d="M87.7,371c.1.2-1.3,1.2-3.1,2.1-1.8.9-3.4,1.5-3.5,1.3-.1-.2,1.3-1.2,3.1-2.1,1.8-.9,3.4-1.5,3.5-1.3Z"/>
            <path class="cls-6" d="M83.4,363.2c0,.2-1,1-2.5,1.6s-2.7,1-2.8.8c0-.2,1-1,2.5-1.6s2.7-1,2.8-.8Z"/>
            <path class="cls-6" d="M80.2,356.3c0,.2-1.3.6-3,.9-1.7.2-3.1.2-3.2,0s1.3-.6,3-.9c1.7-.2,3.1-.2,3.2,0Z"/>
            <path class="cls-6" d="M90.6,352.4c0,.2-1.2.9-3,1-1.8.2-3.2-.1-3.2-.4,0-.3,1.4-.4,3.1-.6,1.7-.2,3-.4,3.1-.1h0Z"/>
            <path class="cls-6" d="M99.2,343.9c0,.2-1,.8-2.4.9s-2.6-.2-2.5-.4c0-.3,1.1-.4,2.4-.5s2.4-.2,2.5,0Z"/>
            <path class="cls-6" d="M100.8,337c0,.2-1.2,0-2.6-.4-1.3-.5-2.3-1-2.2-1.3,0-.2,1.2,0,2.6.4,1.3.5,2.3,1,2.2,1.3Z"/>
            <path class="cls-6" d="M103.9,330.1c-.2.2-1-.3-1.5-1.3s-.6-1.9-.4-2c.2,0,.7.6,1.2,1.5.5.9.9,1.6.7,1.8h0Z"/>
            <path class="cls-6" d="M100.1,358.5c0,.2-.9.7-2.2,1-.7.2-1.4.3-1.8.3l-.2-.5c.3,0,.5,0,.6,0,0,.1,0,.3-.4.5l-.2-.5c.4-.2,1-.4,1.8-.6,1.3-.3,2.4-.4,2.4-.1h0Z"/>
            <path class="cls-6" d="M101.9,370.6c0,.2-1.2,1-2.8,1.6-1.7.6-3.1,1-3.2.7,0-.2,1.2-1,2.8-1.6,1.7-.6,3.1-1,3.2-.7Z"/>
            <path class="cls-6" d="M92.2,365.2c0,.2-.8.7-1.9,1.1-1.1.4-2.1.5-2.2.2s.8-.7,1.9-1.1c1.1-.4,2.1-.5,2.2-.2Z"/>
            <path class="cls-6" d="M92.9,340.5c0,.2-1.5.1-3.2-.5s-2.9-1.4-2.8-1.6,1.5.2,3.1.8c1.6.6,3,1.1,2.9,1.4h0Z"/>
            <path class="cls-6" d="M116.4,337.8c.1.2-.7,1-1.8,1.8-1.2.8-2.2,1.2-2.3,1s.7-1,1.8-1.8c1.2-.8,2.2-1.2,2.3-1Z"/>
            <path class="cls-6" d="M117.7,350c0,.2-.8.6-1.9.9-1.1.2-2.1.2-2.1,0s.8-.6,1.9-.9c1.1-.2,2.1-.2,2.1,0Z"/>
            <path class="cls-6" d="M119.2,363.7c-.1.2-1.3-.1-2.8-.8s-2.5-1.4-2.4-1.6c.1-.2,1.3.1,2.8.8s2.5,1.4,2.4,1.6Z"/>
            <path class="cls-6" d="M116.1,377.1c-.2.2-1-.5-1.8-1.5-.8-1-1.3-1.9-1.1-2.1.2-.2,1,.5,1.8,1.5.8,1,1.3,1.9,1.1,2.1Z"/>
            <path class="cls-6" d="M115.4,328.8c.2.2-.4.9-1.3,1.3-.9.5-1.8.5-1.8.2,0-.2.6-.6,1.4-1.1.8-.4,1.6-.7,1.7-.5h0Z"/>
            <path class="cls-6" d="M126.9,341.1c0,.2-1,.8-2.4,1-1.5.2-2.6,0-2.6-.3,0-.3,1.1-.4,2.5-.6,1.4-.2,2.5-.4,2.6-.1h0Z"/>
            <path class="cls-6" d="M124.6,330.1c.1.2-.9,1-2.4,1.5-1.5.5-2.8.5-2.8.2,0-.2,1.1-.6,2.6-1.1,1.4-.5,2.6-.8,2.7-.6h0Z"/>
            <path class="cls-6" d="M129.4,358.2c0,.2-1.8.4-4,0-2.2-.4-3.8-1.2-3.7-1.4,0-.2,1.8.1,3.9.5,2.1.4,3.8.6,3.8.9h0Z"/>
            <path class="cls-6" d="M125.2,374.3c-.2.2-1.5-.6-2.8-1.9-1.3-1.3-2.1-2.7-1.9-2.8.2-.2,1.3.9,2.6,2.2,1.3,1.3,2.3,2.4,2.2,2.6Z"/>
            <path class="cls-8" d="M106.4,317c.1.2-3.7,1.7-8,6.4-4.4,4.5-8.9,12.5-10,22.1-.5,4.8,0,9.4.6,13.5.7,4.1,1.7,7.8,2.5,10.9.9,3.1,1.7,5.5,2.2,7.2.5,1.7.8,2.6.8,2.7,0,0-.5-.9-1.1-2.5-.7-1.7-1.6-4.1-2.5-7.1-1-3-2-6.7-2.8-10.9-.7-4.2-1.2-8.9-.7-13.8,1.1-9.9,5.9-18,10.4-22.5,2.3-2.3,4.4-3.8,6-4.7.8-.5,1.4-.7,1.8-1,.4-.2.7-.3.7-.3h0Z"/>
            <path class="cls-8" d="M118.8,380.4c-.2-.1,2.1-3.6,4.1-9.8,2.1-6.2,3.9-15.4,2.5-25.3-.7-5-2.1-9.6-3.9-13.5-1.9-3.9-4.3-7-6.7-9.3-2.4-2.2-4.8-3.4-6.5-4.1-1.7-.7-2.7-.9-2.7-1,0,0,.3,0,.8,0,.5,0,1.2.2,2.1.6,1.8.6,4.2,1.8,6.8,4,2.5,2.2,5,5.4,7,9.4,1.9,4,3.4,8.7,4.1,13.7,1.4,10.1-.5,19.4-2.8,25.6-.5,1.6-1.2,2.9-1.7,4.2-.6,1.2-1.1,2.2-1.5,3-.9,1.6-1.5,2.5-1.5,2.5h0Z"/>
          </g>
          <polygon class="cls-6" points="83.4 378.2 133.9 378.2 134.2 388.3 83.4 388.3 83.4 378.2"/>
          <polygon class="cls-6" points="87.7 383.3 90.6 414.1 127.5 414.1 130.4 383.6 87.7 383.3"/>
          <path class="cls-13" d="M134.2,388.5c0,.2-11.4.5-25.4.5s-25.4-.2-25.4-.5,11.4-.5,25.4-.5,25.4.2,25.4.5Z"/>
          <path class="cls-13" d="M129.1,397.9s-.3.7-1.1,1.9c-.8,1.2-2.1,2.8-3.9,4.6l-.2.2-.2-.2c-2.4-2.5-5.8-5.7-9.9-8.7h.6c-1.4,1.2-2.9,2.5-4.4,3.8-1.8,1.6-3.5,3.1-5.2,4.5l-.3.2-.3-.2c-3.2-2.6-6-5-8.4-7.1h.5c-1.7,2.1-3.2,3.9-4.4,5.3-1.1,1.2-1.7,1.9-1.7,1.9s.4-.8,1.4-2.1c1.1-1.5,2.5-3.3,4.1-5.5l.2-.3.3.2c2.5,2,5.4,4.4,8.6,6.9h-.6c1.7-1.4,3.4-3,5.2-4.5,1.5-1.3,3-2.6,4.4-3.8l.3-.2.3.2c4.2,3.1,7.5,6.3,9.8,9h-.5c3.8-3.4,5.3-6.2,5.4-6.1h0Z"/>
        </g>
      </g>
    </g>
  </g>
</svg>