<svg width="567" height="314" viewBox="0 0 567 314" fill="none" xmlns="http://www.w3.org/2000/svg">
<path d="M200 183.724C198.769 176.174 192.297 170.586 184.641 170.49C151.421 170.048 66.8431 169.288 62.3035 172.885C56.6483 177.376 53.6956 179.675 54.138 186.792C54.542 193.332 61.6783 306.331 61.6783 306.331H219.967L199.991 183.724H200Z" fill="#455A64"/>
<path d="M79.7114 306.389C79.7114 306.389 79.7307 306.273 79.7595 306.052C79.7788 305.802 79.8076 305.484 79.8461 305.071C79.9134 304.176 80 302.917 80.125 301.301C80.25 299.666 80.3751 297.665 80.452 295.328C80.5386 293.001 80.6828 290.346 80.6828 287.413C80.7021 285.941 80.7213 284.412 80.7309 282.806C80.7405 281.2 80.6925 279.536 80.6732 277.814C80.6636 274.362 80.4712 270.678 80.3077 266.802C79.8749 259.05 79.1344 250.548 77.9514 241.671C76.7203 232.794 75.1623 224.397 73.508 216.809C72.6328 213.029 71.8249 209.432 70.9208 206.095C70.4784 204.431 70.0841 202.806 69.6417 201.267C69.1993 199.728 68.7665 198.247 68.3625 196.843C67.5739 194.015 66.7275 191.495 66.0254 189.274C65.333 187.042 64.6789 185.148 64.1211 183.609C63.5729 182.089 63.1498 180.897 62.8516 180.05C62.7073 179.665 62.5919 179.358 62.5053 179.127C62.4284 178.925 62.3803 178.819 62.3707 178.819C62.3707 178.819 62.3899 178.935 62.4573 179.146C62.5342 179.387 62.6304 179.694 62.7554 180.079C63.0343 180.925 63.4286 182.128 63.9384 183.666C64.4673 185.215 65.1021 187.119 65.7657 189.36C66.439 191.591 67.2661 194.111 68.0355 196.939C68.4298 198.353 68.853 199.824 69.2858 201.373C69.7186 202.911 70.1034 204.537 70.5362 206.201C71.4306 209.528 72.2096 213.135 73.0752 216.905C74.7006 224.484 76.2395 232.871 77.4705 241.729C78.6535 250.596 79.4037 259.089 79.8653 266.821C80.0385 270.688 80.2404 274.371 80.2789 277.814C80.3077 279.536 80.3654 281.2 80.3654 282.796C80.3654 284.393 80.3558 285.932 80.3462 287.394C80.3655 290.327 80.2404 292.972 80.1923 295.299C80.1442 297.627 80.0481 299.627 79.9519 301.272C79.8749 302.888 79.8172 304.148 79.7691 305.042C79.7595 305.456 79.7403 305.773 79.7307 306.023C79.7307 306.244 79.7307 306.36 79.7307 306.36L79.7114 306.389Z" fill="#263238"/>
<path d="M168.733 227.359C168.733 227.359 168.656 227.311 168.493 227.263C168.329 227.225 168.079 227.196 167.752 227.225C167.108 227.273 166.156 227.648 165.434 228.591C164.684 229.523 164.501 231.13 165.203 232.534C165.54 233.236 166.059 233.89 166.752 234.39C167.444 234.89 168.31 235.188 169.204 235.246C170.099 235.304 171.012 235.102 171.734 234.592C172.465 234.102 172.898 233.303 173.042 232.534C173.311 230.966 172.676 229.552 171.83 228.744C170.051 227.225 168.473 227.177 168.512 227.321C168.512 227.34 168.598 227.321 168.752 227.369C168.906 227.408 169.137 227.475 169.416 227.6C169.974 227.84 170.801 228.244 171.57 229.004C172.301 229.754 172.849 231.082 172.58 232.447C172.446 233.121 172.061 233.784 171.445 234.198C170.839 234.631 170.031 234.804 169.233 234.756C168.425 234.707 167.646 234.438 167.031 233.996C166.406 233.553 165.925 232.967 165.617 232.341C164.973 231.082 165.088 229.668 165.723 228.812C166.338 227.927 167.194 227.533 167.781 227.427C168.377 227.311 168.723 227.427 168.733 227.369V227.359Z" fill="#263238"/>
<path d="M143.9 213C143.9 213.097 145.535 212.798 148.151 213.048C150.738 213.279 154.354 214.212 157.634 216.501C160.914 218.8 163.02 221.878 164.116 224.234C165.242 226.609 165.511 228.244 165.607 228.216C165.636 228.216 165.588 227.802 165.434 227.071C165.27 226.35 164.963 225.311 164.434 224.08C163.395 221.647 161.279 218.444 157.913 216.088C154.547 213.731 150.815 212.827 148.17 212.693C146.843 212.616 145.756 212.683 145.025 212.779C144.285 212.875 143.89 212.972 143.89 213H143.9Z" fill="#263238"/>
<path d="M189.815 242.402C189.815 242.402 189.719 242.094 189.45 241.584C189.171 241.074 188.719 240.372 188.055 239.584C186.747 237.997 184.468 236.083 181.448 235.054C178.428 234.025 175.446 234.15 173.446 234.611C172.436 234.833 171.647 235.111 171.118 235.342C170.589 235.573 170.32 235.737 170.33 235.765C170.368 235.852 171.522 235.313 173.513 234.958C175.494 234.592 178.36 234.534 181.284 235.525C184.198 236.516 186.439 238.324 187.786 239.815C189.152 241.315 189.738 242.45 189.815 242.402Z" fill="#263238"/>
<path d="M159.183 246.335C159.183 246.335 159.875 245.98 160.808 245.162C161.741 244.345 162.924 243.065 163.953 241.469C164.982 239.863 165.646 238.266 166.002 237.074C166.358 235.881 166.454 235.112 166.396 235.102C166.242 235.054 165.569 238.064 163.53 241.2C161.529 244.354 159.067 246.22 159.183 246.345V246.335Z" fill="#263238"/>
<path d="M115.268 228.696C115.268 228.696 115.191 228.648 115.028 228.6C114.864 228.562 114.614 228.533 114.287 228.562C113.652 228.61 112.691 228.985 111.969 229.927C111.219 230.86 111.036 232.467 111.739 233.871C112.075 234.573 112.595 235.227 113.287 235.727C113.979 236.227 114.845 236.525 115.739 236.583C116.634 236.641 117.548 236.439 118.269 235.929C119 235.438 119.433 234.64 119.577 233.871C119.846 232.303 119.211 230.889 118.365 230.081C116.586 228.562 115.009 228.514 115.047 228.658C115.047 228.677 115.134 228.658 115.287 228.706C115.441 228.744 115.672 228.812 115.951 228.937C116.509 229.177 117.336 229.581 118.105 230.341C118.836 231.091 119.385 232.418 119.115 233.784C118.981 234.457 118.596 235.121 117.98 235.535C117.375 235.967 116.567 236.141 115.768 236.092C114.96 236.044 114.181 235.775 113.566 235.333C112.941 234.89 112.46 234.304 112.152 233.678C111.508 232.418 111.623 231.005 112.258 230.149C112.873 229.264 113.729 228.87 114.316 228.764C114.912 228.648 115.259 228.764 115.268 228.706V228.696Z" fill="#263238"/>
<path d="M90.4448 214.337C90.4448 214.433 92.0798 214.135 94.6958 214.385C97.283 214.616 100.899 215.549 104.179 217.838C107.459 220.137 109.565 223.214 110.661 225.571C111.786 227.946 112.056 229.572 112.152 229.552C112.181 229.552 112.133 229.139 111.979 228.408C111.815 227.687 111.508 226.648 110.979 225.417C109.94 222.984 107.824 219.781 104.458 217.425C101.092 215.068 97.3599 214.164 94.715 214.029C93.3878 213.953 92.301 214.01 91.5701 214.116C90.8295 214.212 90.4352 214.308 90.4352 214.337H90.4448Z" fill="#263238"/>
<path d="M136.36 243.739C136.36 243.739 136.264 243.431 135.994 242.921C135.715 242.411 135.263 241.709 134.6 240.921C133.292 239.334 131.012 237.42 127.992 236.391C124.972 235.362 121.991 235.487 119.991 235.948C118.981 236.169 118.192 236.448 117.663 236.679C117.134 236.91 116.865 237.074 116.874 237.102C116.913 237.189 118.067 236.65 120.058 236.295C122.039 235.929 124.905 235.871 127.829 236.862C130.743 237.862 132.984 239.661 134.331 241.151C135.696 242.652 136.283 243.787 136.36 243.739Z" fill="#263238"/>
<path d="M105.728 247.672C105.728 247.672 106.42 247.316 107.353 246.499C108.286 245.681 109.469 244.402 110.498 242.806C111.527 241.2 112.191 239.603 112.547 238.41C112.903 237.218 112.999 236.448 112.941 236.439C112.787 236.391 112.114 239.401 110.075 242.536C108.074 245.691 105.612 247.557 105.728 247.682V247.672Z" fill="#263238"/>
<path d="M521.809 280.199C522.261 280.199 522.675 279.892 522.8 279.44L557.001 149.11C557.145 148.562 556.818 148.004 556.27 147.86C555.721 147.715 555.164 148.042 555.019 148.59L520.828 278.911C520.684 279.459 521.011 280.017 521.559 280.161C521.646 280.18 521.732 280.199 521.819 280.199H521.809Z" fill="#263238"/>
<path d="M530.85 283.422C531.302 283.422 531.716 283.114 531.841 282.662L566.032 152.332C566.176 151.784 565.849 151.226 565.301 151.082C564.752 150.937 564.195 151.264 564.05 151.813L529.859 282.133C529.715 282.681 530.042 283.239 530.59 283.383C530.677 283.402 530.763 283.422 530.85 283.422Z" fill="#263238"/>
<path d="M561.925 146.677L563.569 145.455L475.769 27.292L395.682 42.6419L396.067 44.652L474.894 29.5522L561.925 146.677Z" fill="#263238"/>
<path d="M469.62 31.0377L555.994 147.68L554.348 148.899L467.974 32.2568L469.62 31.0377Z" fill="#263238"/>
<path d="M477.953 32.7163C476.924 35.7555 473.625 37.3809 470.585 36.3422C467.546 35.3131 465.921 32.0142 466.96 28.975C467.989 25.9358 471.288 24.3104 474.327 25.3491C477.366 26.3782 478.991 29.6771 477.953 32.7163Z" fill="#CAE9EB"/>
<path d="M399.462 36.0344L400.905 27.6863L394.721 27.2246L394.269 35.2843L399.462 36.0344Z" fill="#BBDBE4"/>
<path d="M404.521 35.4573L410.234 66.4264L424.66 107.35L343.352 95.6258L376.168 59.9056L389.873 33.3414L404.521 35.4573Z" fill="#CAE9EB"/>
<path d="M566.551 150.139C566.551 153.698 563.666 156.593 560.098 156.593C556.529 156.593 553.644 153.707 553.644 150.139C553.644 146.571 556.529 143.686 560.098 143.686C563.666 143.686 566.551 146.571 566.551 150.139Z" fill="#CAE9EB"/>
<path d="M547.556 306.273C547.575 305.84 547.623 305.417 547.623 304.984C547.623 290.731 536.072 279.18 521.819 279.18C507.565 279.18 496.015 290.731 496.015 304.984C496.015 305.417 496.063 305.84 496.082 306.273H547.556Z" fill="#CAE9EB"/>
<path d="M406.791 296.607C407.108 296.675 408.455 298.05 406.522 300.233C404.588 302.416 392.941 308.389 390.787 304.821C388.633 301.253 393.826 298.771 393.826 298.771L406.791 296.607Z" fill="#FFBE9D"/>
<path d="M393.99 292.76C393.99 292.76 381.968 291.433 377.063 292.058C371.734 292.741 366.098 290.048 362.751 286.384C359.404 282.71 358.529 277.882 358.529 277.882L350.883 272.525C350.883 272.525 350.056 254.337 362.184 257.28L376.351 257.781C376.351 257.781 404.223 262.397 408.541 265.869C408.541 265.869 413.793 270.966 415.322 272.948C415.899 273.688 416.399 281.19 411.071 283.739C411.071 283.739 414.206 287.759 411.446 290.019L410.148 291.01C410.148 291.01 411.946 295.011 410.253 296.165C408.561 297.319 395.182 301.368 391.383 298.723C387.584 296.078 391.989 293.03 393.999 292.76" fill="#FFBE9D"/>
<path d="M408.974 283.037C408.974 283.037 408.407 283.075 407.397 283.21C406.387 283.345 404.925 283.518 403.117 283.652C402.213 283.72 401.222 283.768 400.155 283.797C399.087 283.825 397.943 283.787 396.721 283.874C395.51 283.979 394.182 284.21 393.038 285.037C391.961 285.836 391.028 287.192 391.239 288.74C391.345 289.5 391.778 290.164 392.316 290.644C392.865 291.116 393.499 291.433 394.134 291.654C395.423 292.097 396.693 292.222 397.904 292.347C400.328 292.549 402.511 292.414 404.329 292.222C406.147 292.029 407.599 291.789 408.609 291.616C409.609 291.443 410.167 291.327 410.157 291.289C410.157 291.25 409.59 291.308 408.58 291.423C407.57 291.529 406.108 291.722 404.3 291.866C402.492 292.01 400.328 292.106 397.952 291.885C396.769 291.75 395.51 291.606 394.307 291.183C393.711 290.971 393.134 290.673 392.653 290.26C392.191 289.846 391.826 289.279 391.739 288.654C391.557 287.384 392.355 286.143 393.336 285.412C394.336 284.672 395.596 284.422 396.76 284.306C397.943 284.201 399.087 284.229 400.165 284.181C401.242 284.143 402.242 284.066 403.146 283.979C404.964 283.806 406.426 283.566 407.426 283.383C408.426 283.191 408.974 283.056 408.974 283.018V283.037Z" fill="#EB996E"/>
<path d="M409.955 274.352C409.955 274.352 409.388 274.391 408.388 274.525C407.387 274.66 405.925 274.852 404.127 275.006C402.328 275.16 400.174 275.285 397.779 275.285C396.596 275.304 395.259 275.218 393.98 275.852C393.355 276.17 392.807 276.718 392.538 277.401C392.259 278.074 392.211 278.834 392.336 279.555C392.605 281.027 393.634 282.181 394.769 282.893C395.913 283.624 397.202 283.96 398.414 284.085C400.857 284.297 403.011 283.922 404.81 283.787C406.551 283.614 407.993 283.46 409.08 283.354C410.09 283.239 410.648 283.162 410.638 283.123C410.628 283.085 410.071 283.104 409.061 283.152C407.964 283.22 406.522 283.316 404.771 283.431C402.963 283.518 400.799 283.854 398.452 283.624C397.289 283.498 396.077 283.162 395.019 282.479C393.971 281.815 393.047 280.757 392.816 279.469C392.557 278.189 393.066 276.814 394.192 276.295C395.288 275.737 396.577 275.775 397.76 275.756C400.164 275.727 402.328 275.573 404.136 275.372C405.945 275.17 407.397 274.919 408.397 274.727C409.397 274.535 409.936 274.391 409.936 274.362L409.955 274.352Z" fill="#EB996E"/>
<path d="M403.752 275.41C403.896 275.439 404.233 274.39 404.848 273.188C405.454 271.986 406.108 271.092 406.002 271.005C405.906 270.909 405.041 271.697 404.406 272.967C403.761 274.227 403.627 275.391 403.761 275.41H403.752Z" fill="#EB996E"/>
<path d="M366.974 258.011L378.342 256.501C378.342 256.501 410.465 249.952 410.782 250.798C411.1 251.645 412.677 251.943 411.494 255.386C410.311 258.829 391.768 261.887 390.941 262.984C390.114 264.08 389.527 270.457 382.246 273.39C374.966 276.314 370.455 275.333 370.455 275.333" fill="#FFBE9D"/>
<path d="M370.455 275.323C370.455 275.323 370.532 275.362 370.695 275.391C370.859 275.42 371.109 275.458 371.436 275.496C372.09 275.564 373.052 275.593 374.293 275.496C375.533 275.4 377.043 275.17 378.746 274.708C380.438 274.227 382.381 273.64 384.333 272.534C386.286 271.447 388.104 269.639 389.344 267.302C389.979 266.148 390.412 264.83 390.893 263.561C390.95 263.397 391.027 263.263 391.104 263.138C391.162 263.051 391.287 263.003 391.441 262.926C391.749 262.792 392.085 262.686 392.412 262.58C393.086 262.378 393.788 262.186 394.49 262.003C397.317 261.272 400.308 260.56 403.367 259.656C404.896 259.204 406.445 258.714 407.983 258.088C408.753 257.771 409.513 257.425 410.244 256.973C410.609 256.752 410.955 256.482 411.282 256.155C411.427 255.973 411.58 255.799 411.677 255.569C411.782 255.347 411.821 255.155 411.888 254.943C412.119 254.126 412.311 253.222 412.042 252.327C411.917 251.875 411.619 251.491 411.35 251.183C411.215 251.029 411.09 250.885 411.032 250.74C411.003 250.702 411.051 250.76 410.955 250.615C410.84 250.5 410.811 250.519 410.763 250.5C410.667 250.471 410.628 250.481 410.551 250.471C410.436 250.471 410.321 250.471 410.215 250.471C408.532 250.577 406.954 250.866 405.367 251.106C402.222 251.625 399.202 252.183 396.327 252.731C390.575 253.828 385.411 254.866 381.083 255.751C379.996 255.963 378.967 256.213 377.995 256.376C377.014 256.511 376.081 256.646 375.206 256.771C373.475 257.021 371.984 257.232 370.744 257.406C369.551 257.588 368.608 257.723 367.926 257.829C367.627 257.877 367.387 257.915 367.195 257.954C367.031 257.983 366.945 258.002 366.945 258.011C366.945 258.021 367.031 258.011 367.195 258.011C367.387 257.992 367.637 257.963 367.935 257.935C368.618 257.858 369.57 257.742 370.763 257.608C372.003 257.454 373.504 257.271 375.235 257.059C376.11 256.954 377.043 256.829 378.024 256.703C379.015 256.55 380.044 256.319 381.131 256.117C385.488 255.28 390.652 254.299 396.394 253.203C399.27 252.674 402.29 252.125 405.425 251.606C406.993 251.366 408.599 251.077 410.205 250.981C410.301 250.981 410.397 250.981 410.494 250.981C410.522 250.981 410.59 250.981 410.59 250.991C410.59 250.971 410.58 251.029 410.619 250.952C410.676 250.866 410.628 250.875 410.667 250.837C410.676 250.827 410.696 250.817 410.705 250.808C410.321 250.952 410.609 250.856 410.522 250.894L410.542 250.942C410.648 251.183 410.801 251.356 410.936 251.51C411.205 251.818 411.427 252.116 411.532 252.472C411.744 253.193 411.6 254.02 411.369 254.799C411.244 255.222 411.148 255.54 410.869 255.819C410.599 256.088 410.282 256.338 409.936 256.55C409.253 256.973 408.503 257.319 407.753 257.627C406.243 258.242 404.704 258.733 403.184 259.185C400.145 260.089 397.154 260.801 394.326 261.551C393.615 261.743 392.922 261.926 392.23 262.147C391.883 262.253 391.547 262.368 391.21 262.513C391.056 262.59 390.835 262.676 390.691 262.878C390.575 263.051 390.498 263.224 390.441 263.388C389.95 264.715 389.546 265.965 388.931 267.1C387.748 269.38 386.007 271.14 384.112 272.217C382.227 273.313 380.304 273.929 378.63 274.419C376.947 274.9 375.456 275.16 374.235 275.285C373.013 275.41 372.052 275.41 371.407 275.381C371.08 275.371 370.84 275.343 370.667 275.333C370.503 275.314 370.417 275.304 370.417 275.314L370.455 275.323Z" fill="#EB996E"/>
<path d="M397.491 292.193C397.491 292.193 397.067 292.145 396.308 292.25C395.557 292.356 394.461 292.597 393.201 293.174C392.576 293.472 391.912 293.818 391.258 294.328C390.633 294.828 389.941 295.54 389.835 296.559C389.72 297.579 390.383 298.569 391.258 299.098C392.162 299.666 393.268 299.762 394.307 299.733C398.462 299.483 402.174 298.867 404.81 298.185C406.127 297.848 407.176 297.502 407.887 297.242C408.599 296.982 408.984 296.8 408.974 296.771C408.965 296.732 408.561 296.848 407.83 297.059C407.099 297.271 406.05 297.55 404.733 297.848C402.107 298.435 398.395 298.993 394.298 299.243C393.297 299.281 392.287 299.175 391.528 298.694C390.758 298.233 390.22 297.415 390.306 296.607C390.374 295.799 390.951 295.136 391.528 294.655C392.124 294.164 392.768 293.809 393.365 293.501C395.779 292.318 397.519 292.308 397.5 292.202L397.491 292.193Z" fill="#EB996E"/>
<path d="M313.874 226.533C313.874 226.533 299.631 203.085 296.428 187.61C293.225 172.135 276.683 147.591 271.345 141.185C266.007 134.78 244.665 127.307 244.665 127.307L236.798 123.065L175.831 117.708C175.831 117.708 135.273 121.979 123.001 133.183C110.729 144.388 101.121 170.009 101.121 182.811C101.121 195.612 88.7235 306.533 88.7235 306.533L238.962 306.331L235.596 251.645C235.596 251.645 253.744 239.372 258.544 228.697C263.343 218.021 260.679 223.359 260.679 223.359C260.679 223.359 277.712 259.57 283.579 263.84C289.445 268.11 357.683 289.048 357.683 289.048L367.031 253.241L313.884 226.533H313.874Z" fill="#CAE9EB"/>
<path d="M136.485 137.646C138.129 138.155 158.481 190.716 159.914 195.496C161.347 200.276 159.914 230.399 159.914 230.399L153.22 242.835C153.22 242.835 155.134 251.924 153.701 256.223L183.823 261.964C183.823 261.964 191.469 256.704 198.644 261.964L234.182 264.965C234.182 264.965 223.746 265.081 226.853 281.084C229.892 296.761 232.21 300.204 232.21 300.204L107.324 297.358C107.324 297.358 93.4551 296.675 95.5614 269.986C97.6773 243.306 103.631 169.711 103.631 169.711C103.631 169.711 112.739 130.279 136.485 137.646Z" fill="#CAE9EB"/>
<path d="M160.193 226.196C160.193 226.196 160.308 225.975 160.491 225.551C160.683 225.071 160.933 224.445 161.251 223.657C161.578 222.839 161.972 221.82 162.357 220.627C162.751 219.435 163.251 218.088 163.655 216.559C164.097 215.039 164.578 213.375 164.982 211.548C165.444 209.74 165.809 207.788 166.204 205.729C166.906 201.603 167.464 197.016 167.666 192.178C167.839 187.34 167.646 182.724 167.252 178.55C167.002 176.472 166.8 174.481 166.463 172.654C166.31 171.74 166.184 170.846 166.011 170C165.829 169.153 165.665 168.345 165.502 167.566C165.203 166.008 164.8 164.633 164.492 163.411C164.194 162.19 163.876 161.151 163.597 160.314C163.338 159.507 163.126 158.862 162.972 158.372C162.818 157.929 162.741 157.698 162.722 157.708C162.703 157.708 162.761 157.948 162.876 158.401C163.011 158.901 163.193 159.545 163.415 160.363C163.665 161.209 163.953 162.248 164.232 163.479C164.521 164.7 164.896 166.075 165.165 167.634C165.319 168.413 165.482 169.22 165.646 170.067C165.809 170.913 165.925 171.808 166.069 172.721C166.386 174.549 166.569 176.53 166.8 178.598C167.165 182.753 167.339 187.34 167.175 192.159C166.973 196.968 166.435 201.536 165.761 205.652C165.386 207.701 165.04 209.653 164.588 211.462C164.203 213.279 163.742 214.943 163.318 216.463C162.934 217.992 162.453 219.338 162.087 220.541C161.731 221.743 161.366 222.762 161.068 223.589C160.789 224.388 160.568 225.022 160.395 225.513C160.25 225.955 160.173 226.186 160.193 226.196Z" fill="#263238"/>
<path d="M116.74 283.2C116.74 283.2 116.865 283.085 117.057 282.835C117.278 282.537 117.557 282.171 117.894 281.729C118.25 281.238 118.682 280.652 119.231 279.998C119.769 279.334 120.356 278.565 121.077 277.766C121.779 276.958 122.549 276.074 123.443 275.179C124.299 274.246 125.29 273.332 126.309 272.361C128.406 270.457 130.82 268.476 133.494 266.6C136.196 264.753 138.899 263.195 141.419 261.907C142.698 261.291 143.9 260.685 145.073 260.214C146.228 259.695 147.324 259.291 148.334 258.916C149.334 258.521 150.267 258.242 151.075 257.973C151.883 257.694 152.585 257.492 153.162 257.338C153.691 257.184 154.133 257.05 154.489 256.944C154.787 256.848 154.951 256.79 154.941 256.771C154.932 256.752 154.768 256.771 154.46 256.838C154.095 256.915 153.643 257.021 153.104 257.136C152.518 257.261 151.796 257.444 150.979 257.694C150.161 257.944 149.219 258.194 148.209 258.569C147.189 258.925 146.074 259.319 144.91 259.82C143.727 260.281 142.506 260.868 141.217 261.474C138.668 262.753 135.927 264.311 133.215 266.167C130.512 268.052 128.089 270.062 126.002 271.996C124.982 272.996 123.991 273.919 123.145 274.871C122.26 275.785 121.5 276.689 120.808 277.516C120.096 278.324 119.529 279.122 119.009 279.805C118.48 280.478 118.067 281.084 117.74 281.594C117.432 282.056 117.182 282.44 116.98 282.758C116.807 283.027 116.73 283.171 116.74 283.181V283.2Z" fill="#263238"/>
<path d="M106.228 276.189C106.305 276.256 107.411 274.996 109.488 273.304C110.527 272.448 111.835 271.534 113.345 270.611C114.874 269.716 116.615 268.841 118.529 268.11C120.443 267.398 122.328 266.898 124.069 266.552C125.809 266.234 127.406 266.052 128.743 266.004C131.426 265.888 133.09 266.1 133.1 266.004C133.1 265.965 132.696 265.898 131.936 265.811C131.561 265.754 131.099 265.706 130.561 265.696C130.022 265.677 129.406 265.629 128.733 265.657C127.377 265.657 125.761 265.802 123.982 266.1C122.212 266.427 120.298 266.917 118.346 267.648C116.413 268.398 114.643 269.303 113.104 270.226C111.585 271.178 110.277 272.14 109.257 273.044C108.728 273.467 108.305 273.919 107.911 274.285C107.516 274.65 107.209 274.996 106.959 275.285C106.459 275.852 106.199 276.179 106.218 276.198L106.228 276.189Z" fill="#263238"/>
<path d="M117.779 258.617C117.846 258.704 119.317 257.54 122.01 256.203C122.684 255.876 123.424 255.521 124.251 255.222C125.059 254.876 125.973 254.616 126.915 254.318C128.82 253.799 130.964 253.376 133.244 253.203C135.523 253.058 137.707 253.183 139.669 253.443C140.64 253.616 141.573 253.741 142.429 253.982C143.294 254.164 144.073 254.414 144.785 254.645C147.632 255.597 149.248 256.559 149.305 256.453C149.325 256.425 148.921 256.184 148.18 255.771C147.815 255.559 147.353 255.309 146.795 255.078C146.237 254.838 145.622 254.53 144.901 254.309C144.189 254.049 143.4 253.78 142.525 253.578C141.669 253.318 140.726 253.174 139.736 252.991C137.745 252.703 135.533 252.568 133.205 252.712C130.888 252.885 128.714 253.328 126.781 253.876C125.829 254.193 124.915 254.472 124.097 254.838C123.261 255.155 122.52 255.54 121.847 255.886C121.164 256.213 120.587 256.598 120.077 256.915C119.558 257.223 119.135 257.521 118.798 257.79C118.125 258.3 117.759 258.598 117.779 258.617Z" fill="#263238"/>
<path d="M190.815 298.031C190.931 298.002 190.19 296.021 189.931 292.683C189.767 291.019 189.806 289.019 189.979 286.807C190.181 284.604 190.604 282.2 191.239 279.719C191.893 277.247 192.749 274.958 193.633 272.929C194.595 270.938 195.518 269.158 196.49 267.793C198.365 265.013 199.962 263.638 199.875 263.551C199.856 263.522 199.462 263.869 198.779 264.523C198.423 264.83 198.038 265.273 197.606 265.783C197.384 266.042 197.153 266.311 196.903 266.6C196.673 266.898 196.442 267.235 196.192 267.581C195.172 268.937 194.201 270.716 193.201 272.727C192.287 274.775 191.412 277.083 190.738 279.584C190.104 282.094 189.69 284.527 189.507 286.759C189.363 288.99 189.354 291.019 189.565 292.703C189.613 293.116 189.652 293.52 189.7 293.905C189.777 294.28 189.844 294.626 189.911 294.963C190.046 295.626 190.152 296.194 190.315 296.636C190.604 297.54 190.777 298.031 190.806 298.021L190.815 298.031Z" fill="#263238"/>
<path d="M211.753 261.936C211.753 261.936 211.782 261.839 211.811 261.657C211.849 261.445 211.888 261.176 211.946 260.839C212.051 260.079 212.205 259.021 212.398 257.675C212.782 254.924 213.302 250.933 213.888 246.009C215.071 236.15 216.485 222.493 217.591 207.374C218.688 192.255 219.274 178.531 219.534 168.605C219.669 163.642 219.736 159.622 219.746 156.843C219.746 155.477 219.746 154.409 219.746 153.64C219.746 153.294 219.746 153.024 219.736 152.813C219.736 152.63 219.726 152.534 219.717 152.534C219.717 152.534 219.698 152.63 219.688 152.813C219.678 153.024 219.669 153.303 219.649 153.64C219.621 154.409 219.592 155.477 219.544 156.833C219.457 159.641 219.332 163.652 219.169 168.586C218.822 178.511 218.178 192.217 217.082 207.336C215.975 222.445 214.619 236.102 213.523 245.97C212.965 250.875 212.503 254.857 212.186 257.656C212.032 259.012 211.907 260.07 211.821 260.829C211.792 261.166 211.763 261.445 211.744 261.657C211.724 261.839 211.724 261.936 211.734 261.945L211.753 261.936Z" fill="#263238"/>
<path d="M260.813 224.051C260.813 224.051 261.073 223.542 261.467 222.58C261.852 221.618 262.429 220.243 263.15 218.54C264.593 215.145 266.747 210.519 269.325 205.499C271.903 200.526 274.24 196.025 275.98 192.678C276.817 191.034 277.481 189.687 277.923 188.754C278.366 187.821 278.597 187.292 278.568 187.283C278.539 187.264 278.25 187.764 277.75 188.668C277.221 189.649 276.509 190.947 275.663 192.515C273.913 195.775 271.46 200.247 268.883 205.278C266.305 210.308 264.199 214.972 262.833 218.406C262.15 220.127 261.621 221.531 261.294 222.512C260.958 223.493 260.794 224.042 260.823 224.051H260.813Z" fill="#263238"/>
<path d="M268.488 206.278C268.488 206.278 268.806 206.249 269.364 206.114C269.912 205.98 270.71 205.749 271.672 205.432C273.605 204.806 276.24 203.787 279.02 202.412C281.809 201.027 284.204 199.555 285.877 198.391C286.714 197.814 287.378 197.324 287.82 196.968C288.262 196.612 288.503 196.4 288.484 196.381C288.435 196.324 287.397 197.026 285.685 198.103C283.973 199.18 281.559 200.594 278.798 201.969C276.038 203.335 273.441 204.393 271.556 205.105C269.662 205.816 268.469 206.211 268.498 206.287L268.488 206.278Z" fill="#263238"/>
<path d="M281.386 239.122C281.386 239.122 281.77 238.92 282.415 238.497C283.059 238.064 284.002 237.449 285.175 236.737C287.531 235.294 290.926 233.496 294.87 232.015C298.823 230.543 302.554 229.668 305.286 229.206C306.651 228.976 307.757 228.812 308.527 228.716C309.296 228.62 309.719 228.543 309.719 228.514C309.719 228.475 309.287 228.485 308.508 228.514C307.729 228.543 306.603 228.658 305.228 228.841C302.468 229.216 298.688 230.043 294.697 231.534C290.705 233.034 287.31 234.9 284.983 236.42C283.819 237.179 282.896 237.833 282.29 238.324C281.674 238.805 281.347 239.084 281.366 239.113L281.386 239.122Z" fill="#263238"/>
<path d="M177.399 117.785C177.399 117.785 177.399 118.054 177.456 118.564C177.524 119.122 177.601 119.863 177.706 120.795C177.957 122.729 178.303 125.527 178.889 128.971C179.476 132.404 180.284 136.492 181.582 140.935C182.919 145.35 184.766 150.139 187.632 154.669C189.113 157.054 190.864 159.17 192.643 161.094L192.835 161.305L193.008 161.065C195.586 157.612 198.875 155.083 202.135 153.496C203.751 152.659 205.405 152.149 206.944 151.726C208.502 151.38 209.974 151.149 211.32 151.139C214.013 151.072 216.158 151.534 217.553 152.015C218.947 152.505 219.688 152.871 219.707 152.823C219.707 152.813 219.534 152.717 219.178 152.544C218.822 152.39 218.322 152.082 217.601 151.851C216.206 151.313 214.042 150.793 211.301 150.822C209.935 150.822 208.435 151.024 206.848 151.361C205.28 151.774 203.597 152.284 201.943 153.111C198.615 154.698 195.259 157.256 192.604 160.776L192.979 160.747C191.229 158.843 189.498 156.756 188.036 154.4C185.208 149.928 183.362 145.176 182.006 140.8C180.688 136.395 179.851 132.337 179.216 128.913C178.582 125.489 178.187 122.7 177.88 120.776C177.735 119.853 177.62 119.112 177.533 118.555C177.447 118.045 177.399 117.785 177.379 117.785H177.399Z" fill="#263238"/>
<path d="M219.726 152.823C219.726 152.823 219.909 152.832 220.255 152.813C220.601 152.784 221.111 152.717 221.765 152.563C223.064 152.284 224.881 151.553 226.93 150.351C227.949 149.735 229.094 149.168 230.44 148.899C231.777 148.61 233.278 148.572 234.778 148.899C237.779 149.505 240.789 151.851 242.039 155.217L242.568 156.631L242.53 155.131C242.52 154.756 242.511 154.361 242.501 153.958C242.386 146.388 242.376 139.512 242.068 134.549C241.934 132.068 241.732 130.057 241.53 128.682C241.443 127.99 241.337 127.461 241.26 127.105C241.183 126.749 241.135 126.557 241.126 126.566C241.078 126.566 241.212 127.336 241.347 128.711C241.491 130.086 241.635 132.096 241.732 134.568C241.953 139.531 241.905 146.388 242.02 153.977C242.03 154.381 242.039 154.785 242.049 155.16L242.53 155.064C241.203 151.524 238.048 149.091 234.893 148.475C231.71 147.812 228.728 148.754 226.776 150.082C224.756 151.313 223.006 152.072 221.736 152.409C220.467 152.765 219.736 152.803 219.745 152.851L219.726 152.823Z" fill="#263238"/>
<path d="M185.843 46.6332V120.372C185.843 124.585 187.334 128.663 190.046 131.885C194.21 136.828 199.221 140.983 204.848 144.147L219.717 152.524L232.018 141.541C235.634 138.309 237.779 133.75 237.971 128.903C238.183 123.527 238.183 118.122 238.183 118.122C238.183 118.122 259.024 116.621 260.986 96.0683C261.91 86.3928 262.198 66.5707 262.246 48.297C262.304 27.4554 246.319 10.0762 225.555 8.35463L224.968 8.30654C203.453 7.78718 185.756 25.1183 185.833 46.6428L185.843 46.6332Z" fill="#FFBE9D"/>
<path d="M238.26 117.824C238.26 117.824 225.17 117.804 212.061 107.975C212.061 107.975 217.178 123.306 237.865 123.152L238.26 117.814V117.824Z" fill="#EB996E"/>
<path d="M255.341 62.1081C255.264 63.6661 253.888 64.8876 252.263 64.8395C250.638 64.7914 249.378 63.493 249.455 61.935C249.532 60.3769 250.907 59.1554 252.532 59.2035C254.158 59.2516 255.418 60.55 255.341 62.1081Z" fill="#263238"/>
<path d="M257.014 56.5876C256.62 56.9435 254.533 55.1065 251.369 54.8564C248.214 54.5583 245.761 55.9913 245.444 55.5777C245.29 55.395 245.713 54.7314 246.791 54.0774C247.849 53.4234 249.599 52.8559 251.571 53.029C253.542 53.2022 255.139 54.0678 256.024 54.8853C256.937 55.7124 257.207 56.4337 257.014 56.5876Z" fill="#263238"/>
<path d="M225.256 60.8289C225.179 62.387 223.804 63.6084 222.179 63.5603C220.553 63.5122 219.293 62.2138 219.37 60.6558C219.447 59.0977 220.823 57.8763 222.448 57.9243C224.073 57.9724 225.333 59.2708 225.256 60.8289Z" fill="#263238"/>
<path d="M225.882 54.6063C225.487 54.9621 223.391 53.1251 220.236 52.8751C217.081 52.5769 214.629 54.01 214.311 53.5964C214.158 53.4137 214.581 52.7501 215.658 52.0961C216.716 51.442 218.466 50.8746 220.438 51.0477C222.41 51.2208 224.006 52.0864 224.891 52.9039C225.795 53.7311 226.074 54.4524 225.882 54.6063Z" fill="#263238"/>
<path d="M235.422 79.0064C235.422 78.8236 237.413 78.6505 240.635 78.5062C241.453 78.487 242.222 78.3908 242.405 77.8522C242.645 77.2848 242.376 76.3904 242.068 75.419C241.472 73.3992 240.847 71.293 240.193 69.0713C237.606 60.0402 235.797 52.6442 236.163 52.548C236.528 52.4422 238.923 59.6844 241.51 68.7154C242.126 70.9371 242.722 73.0626 243.29 75.092C243.52 76.0345 243.963 77.1213 243.443 78.2946C243.174 78.8813 242.549 79.266 242.02 79.3622C241.491 79.4776 241.039 79.4488 240.635 79.4392C237.413 79.343 235.422 79.1987 235.432 79.016L235.422 79.0064Z" fill="#263238"/>
<path d="M225.93 80.4202C226.449 80.4299 226.17 83.8634 228.902 86.5467C231.633 89.2301 235.326 89.1531 235.307 89.634C235.336 89.8552 234.441 90.2303 232.893 90.1438C231.373 90.0668 229.2 89.4032 227.526 87.7586C225.862 86.1139 225.256 84.0557 225.256 82.6419C225.247 81.1993 225.699 80.3818 225.93 80.4202Z" fill="#263238"/>
<path d="M227.728 42.2763C227.343 43.1131 224.218 42.4398 220.476 42.5841C216.726 42.6514 213.648 43.4882 213.215 42.6707C213.023 42.286 213.619 41.5165 214.889 40.7856C216.158 40.0546 218.13 39.4199 220.38 39.3622C222.631 39.3045 224.641 39.8238 225.939 40.4874C227.257 41.1511 227.882 41.882 227.719 42.2763H227.728Z" fill="#263238"/>
<path d="M256.61 47.3353C255.995 48.0085 253.879 47.0852 251.263 46.8255C248.656 46.4793 246.386 46.9121 245.934 46.1138C245.742 45.7291 246.146 45.0366 247.175 44.4403C248.185 43.844 249.83 43.4208 251.628 43.6228C253.427 43.8248 254.927 44.6134 255.783 45.4213C256.649 46.2388 256.889 46.9986 256.62 47.3353H256.61Z" fill="#263238"/>
<path d="M210.051 25.9166C210.051 25.9166 209.974 25.9744 209.935 25.9936C206.444 28.3115 203.972 31.8796 203.049 35.9672C203.02 36.1114 202.982 36.2461 202.953 36.3807C201.664 42.1802 201.318 48.1624 199.971 53.9523C198.625 59.7422 198.875 64.1663 193.076 65.4743C189.421 66.3015 186.305 64.2625 184.997 62.1947C184.497 61.3964 184.477 60.3866 184.487 59.444C184.564 45.1809 181.698 39.6411 182.948 24.8298C183.285 20.8 185.497 17.1645 188.978 15.0871C192.268 13.1251 196.24 11.1246 199.558 13.0481C202.876 14.9717 206.8 21.7906 209.253 24.7433" fill="#263238"/>
<path d="M192.018 56.5202C191.681 56.3375 178.226 51.1728 177.514 65.2724C176.802 79.3816 191.104 77.1887 191.152 76.7848C191.2 76.3809 192.018 56.5202 192.018 56.5202Z" fill="#FFBE9D"/>
<path d="M187.103 71.2161C187.045 71.168 186.853 71.3796 186.42 71.5431C186.007 71.7066 185.304 71.8028 184.583 71.4854C183.121 70.8603 181.986 68.4366 182.044 65.8879C182.073 64.5991 182.4 63.3969 182.91 62.4063C183.391 61.3964 184.093 60.7136 184.852 60.6174C185.612 60.4827 186.112 60.954 186.266 61.3676C186.439 61.7715 186.334 62.0504 186.401 62.0793C186.439 62.1177 186.718 61.8581 186.632 61.2714C186.584 60.9925 186.439 60.6462 186.122 60.3577C185.795 60.0692 185.304 59.896 184.785 59.9345C183.698 59.9538 182.66 60.9059 182.111 61.9927C181.496 63.0795 181.092 64.4356 181.063 65.8783C181.005 68.7251 182.333 71.4565 184.343 72.149C185.324 72.4568 186.16 72.1971 186.612 71.8894C187.064 71.5624 187.161 71.2546 187.113 71.2257L187.103 71.2161Z" fill="#EB996E"/>
<path d="M198.904 15.1832C195.903 9.26833 206.069 1.96849 213.186 0.362328C220.313 -1.25345 229.18 2.89179 235.894 5.75787C240.135 7.566 244.309 9.94158 248.916 10.1339C252.003 10.259 255.033 9.38375 258.024 8.5951C261.015 7.80644 264.112 7.09473 267.17 7.566C270.229 8.02765 273.259 9.92234 274.182 12.875C275.115 15.818 273.114 19.5882 270.037 19.7613C274.105 17.9435 279.51 21.2232 279.779 25.6666C280.049 30.1196 275.086 34.0147 270.825 32.7067C272.951 31.3602 275.807 34.1109 275.355 36.5923C274.903 39.0736 272.489 40.6991 270.104 41.5166C264.025 43.6036 257.255 42.2187 251.349 39.67C245.444 37.1213 240.077 33.4761 234.239 30.7832C228.401 28.0902 218.649 23.3198 212.426 24.9452C207.848 26.1474 204.309 31.2448 201.895 29.8599C199.558 28.5134 198.231 25.8493 197.971 23.1659C197.702 20.4826 198.308 17.8089 198.914 15.1832" fill="#263238"/>
<path d="M271.768 19.5016C271.652 19.4246 270.96 20.4826 269.306 22.0022C267.661 23.4929 264.93 25.3972 261.073 26.3878C257.284 27.3688 252.234 27.3688 247.704 24.7336C243.097 22.1945 239.356 17.5684 234.98 13.1346C230.614 8.672 225.314 5.19038 219.794 4.22861C214.312 3.2476 209.031 4.85377 205.954 7.77755C202.857 10.7302 201.982 14.3176 202.01 16.6066C202.01 17.78 202.241 18.6648 202.405 19.2419C202.616 19.8189 202.751 20.0978 202.79 20.0882C202.924 20.0594 202.434 18.8475 202.549 16.6259C202.684 14.4619 203.665 11.1438 206.617 8.5085C209.532 5.91172 214.446 4.50752 219.563 5.49815C224.708 6.46954 229.729 9.76842 233.989 14.1252C238.289 18.4628 242.145 23.214 247.079 25.8589C251.984 28.6192 257.399 28.4941 261.333 27.34C265.353 26.1763 268.103 24.0507 269.681 22.3965C270.469 21.5501 271.018 20.848 271.325 20.3287C271.652 19.8189 271.797 19.54 271.758 19.5112L271.768 19.5016Z" fill="#455A64"/>
<path d="M188.478 55.6066C188.526 55.6547 189.113 55.27 189.738 54.1928C190.363 53.1348 190.931 51.3652 190.863 49.1531C190.931 44.5943 187.324 39.4007 187.334 33.0915C187.276 29.9754 188.074 27.0035 189.584 24.8203C191.085 22.6467 193.268 21.329 195.182 20.7327C197.125 20.1076 198.817 20.2422 199.933 20.4827C201.049 20.752 201.635 21.0694 201.693 20.9636C201.731 20.9059 201.231 20.425 200.087 19.9633C198.952 19.5401 197.086 19.2228 194.913 19.7806C192.768 20.3096 190.306 21.6464 188.526 24.0701C186.766 26.4745 185.872 29.7446 185.93 33.1011C185.939 36.4577 186.901 39.5835 187.911 42.1899C188.901 44.8155 189.729 47.1526 189.873 49.1916C190.277 53.3753 188.267 55.5008 188.469 55.5874L188.478 55.6066Z" fill="#455A64"/>
<path d="M180.304 64.0643L182.596 61.9397C183.43 61.1671 184.732 61.2167 185.505 62.0504L194.101 71.3271C194.874 72.1609 194.824 73.4631 193.991 74.2358L191.698 76.3603C190.864 77.133 189.562 77.0834 188.789 76.2496L180.193 66.9729C179.42 66.1391 179.47 64.8369 180.304 64.0643Z" fill="#263238"/>
<path d="M101.005 185.965C101.005 185.965 100.976 186.157 100.947 186.523C100.919 186.908 100.88 187.456 100.822 188.177C100.717 189.649 100.563 191.813 100.37 194.631C99.9857 200.286 99.4375 208.548 98.7258 219.012C98.0333 229.495 97.1965 242.181 96.2348 256.675C95.9943 260.3 95.7539 264.032 95.4942 267.879C95.3499 269.793 95.2826 271.755 95.1864 273.736C95.1095 274.727 95.1864 275.727 95.2153 276.737C95.273 277.737 95.2153 278.757 95.3884 279.767C95.5134 280.777 95.6385 281.796 95.7635 282.825C95.9847 283.835 96.1963 284.854 96.4175 285.874C96.706 286.874 97.0523 287.874 97.3697 288.884C97.8121 289.846 98.1776 290.856 98.6969 291.789C100.707 295.53 103.862 299.031 108.228 300.474H108.247H108.286C136.341 300.474 168.435 300.464 202.376 300.454C212.503 300.454 222.477 300.445 232.21 300.435H232.537L232.451 300.118C231.537 296.867 230.633 293.645 229.738 290.452C229.286 288.855 228.844 287.269 228.402 285.682C227.949 284.095 227.497 282.537 227.286 280.94C226.805 277.757 227.132 274.487 228.113 271.495C228.613 270.005 229.334 268.591 230.364 267.437C231.364 266.283 232.758 265.407 234.201 265.186L236.173 264.879L234.201 264.715C221.775 263.667 209.887 262.676 198.663 261.733L198.769 261.772C196.528 260.156 193.797 259.271 191.114 259.416C188.44 259.541 185.891 260.406 183.698 261.772L183.852 261.743C172.994 259.685 162.924 257.781 153.729 256.04L153.864 256.271C154.249 255.097 154.335 253.895 154.384 252.731C154.422 251.568 154.384 250.413 154.287 249.288C154.105 247.038 153.787 244.883 153.374 242.796L153.354 242.902C155.768 238.391 157.99 234.265 160.029 230.457L160.048 230.428V230.399C160.52 219.31 160.693 210.577 160.606 204.604C160.577 201.623 160.462 199.334 160.298 197.795C160.221 197.025 160.145 196.448 160.039 196.064C159.952 195.679 159.904 195.487 159.904 195.487C159.904 195.487 159.933 195.689 160 196.073C160.087 196.458 160.154 197.035 160.221 197.804C160.356 199.343 160.443 201.623 160.452 204.604C160.481 210.567 160.279 219.3 159.769 230.38L159.789 230.322C157.73 234.121 155.509 238.237 153.076 242.738L153.047 242.787V242.844C153.47 244.912 153.778 247.066 153.951 249.298C154.037 250.413 154.076 251.548 154.037 252.702C153.989 253.847 153.893 255.03 153.528 256.146L153.46 256.338L153.662 256.376C162.857 258.136 172.926 260.07 183.775 262.147L183.852 262.166L183.929 262.118C186.035 260.801 188.546 259.954 191.123 259.848C193.71 259.714 196.336 260.56 198.5 262.128L198.548 262.166H198.606C209.83 263.128 221.717 264.138 234.143 265.196V264.725C232.489 264.984 231.066 265.917 229.988 267.129C228.911 268.351 228.161 269.822 227.642 271.351C226.632 274.429 226.305 277.757 226.786 281.027C226.997 282.662 227.469 284.258 227.911 285.835C228.353 287.422 228.796 289.009 229.248 290.606C230.142 293.799 231.046 297.021 231.95 300.272L232.191 299.954C222.448 299.954 212.484 299.954 202.357 299.964C168.416 299.993 136.331 300.012 108.267 300.031H108.315C106.266 299.396 104.4 298.137 102.861 296.675C101.323 295.174 100.043 293.453 99.0624 291.587C98.5526 290.664 98.1872 289.673 97.7544 288.73C97.437 287.73 97.1004 286.749 96.8118 285.759C96.5906 284.749 96.379 283.748 96.1578 282.748C96.0328 281.738 95.9078 280.729 95.7827 279.728C95.6192 278.728 95.6673 277.718 95.6096 276.728C95.5808 275.727 95.5038 274.737 95.5808 273.756C95.6673 271.784 95.7346 269.841 95.8693 267.918C96.1097 264.071 96.3502 260.339 96.581 256.713C97.5043 242.219 98.3026 229.524 98.9662 219.04C99.6202 208.567 100.13 200.305 100.486 194.65C100.649 191.832 100.784 189.668 100.871 188.196C100.909 187.475 100.938 186.917 100.957 186.542C100.976 186.167 100.976 185.984 100.976 185.984L101.005 185.965Z" fill="#263238"/>
<path d="M128.243 133.568C128.243 133.568 128.848 133.953 129.954 134.635C131.061 135.309 132.619 136.357 134.407 137.829C138.005 140.723 142.342 145.532 145.93 151.62C149.527 157.708 151.912 163.681 153.624 167.99C154.451 170.106 155.124 171.837 155.624 173.116C155.845 173.674 156.038 174.135 156.182 174.501C156.317 174.818 156.394 174.982 156.413 174.972C156.432 174.972 156.384 174.789 156.278 174.462C156.153 174.087 155.999 173.616 155.807 173.039C155.384 171.808 154.768 170.038 153.96 167.855C152.325 163.508 149.988 157.487 146.362 151.361C142.746 145.225 138.322 140.396 134.629 137.55C132.792 136.107 131.195 135.097 130.051 134.472C129.493 134.145 129.022 133.933 128.723 133.779C128.416 133.626 128.252 133.558 128.243 133.577V133.568Z" fill="#263238"/>
<g opacity="0.3">
<path d="M165.887 170.288C169.974 179.175 171.628 189.273 171.263 199.055C170.897 208.836 169.724 218.636 170.686 228.369C171.648 238.103 175.023 248.047 182.294 254.597C183.17 255.386 184.112 256.145 184.641 257.203C185.17 258.261 185.122 259.704 184.189 260.425C183.362 261.07 182.198 260.916 181.169 260.743C174.206 259.531 167.175 258.675 160.212 257.463C158.721 257.203 153.701 256.222 153.701 256.222C153.701 256.222 154.364 252.404 154.124 250.5C153.903 248.759 153.22 242.835 153.22 242.835C153.422 241.921 154.086 241.228 154.557 240.363C159.135 231.861 160.327 225.561 160.327 225.561C162.703 220.695 163.771 215.818 164.867 211.269C167.925 198.67 167.829 186.244 165.887 170.288Z" fill="black"/>
</g>
<g opacity="0.3">
<path d="M242.126 155.929C241.558 157.371 240.981 158.814 240.414 160.257C240.241 160.699 240.02 161.18 239.587 161.353C238.731 161.68 238.048 160.632 237.644 159.805C236.038 156.554 232.71 154.217 229.113 153.803C226.189 153.467 223.189 154.313 220.313 153.717C222.862 152.197 225.43 150.668 228.257 149.764C231.075 148.86 234.211 148.619 236.98 149.677C239.75 150.745 242.039 153.294 242.251 156.246" fill="black"/>
</g>
<g opacity="0.3">
<path d="M218.351 152.284C214.937 152.342 211.484 152.409 208.166 153.198C204.848 153.986 201.607 155.583 199.443 158.228C197.115 161.065 196.25 164.777 195.307 168.326C195.124 169.009 194.797 169.817 194.095 169.894C193.672 169.942 193.287 169.682 192.941 169.432C187.19 165.21 183.391 158.728 181.304 151.909C179.226 145.08 178.745 137.876 178.63 130.75C181.381 135.664 182.573 141.262 184.391 146.59C186.209 151.918 188.882 157.285 193.595 160.363C193.441 159.16 193.913 157.939 194.672 156.987C195.422 156.035 196.432 155.323 197.471 154.698C203.809 150.87 211.801 149.889 218.88 152.082" fill="black"/>
</g>
<path d="M233.297 265.571H245.069C245.069 265.571 271.643 255.973 277.106 256.886C282.03 257.713 300.044 269.678 303.574 272.053C303.968 272.313 304.266 272.698 304.43 273.14C305.151 275.093 304.199 277.257 302.285 278.045L301.91 278.199L302.073 278.738C302.275 279.401 302.381 280.152 302.343 280.892C302.208 283.422 298.813 284.191 297.514 282.017L298.197 283.22C298.476 283.71 298.601 284.268 298.572 284.835L298.515 285.932C298.447 287.153 297.639 288.202 296.476 288.577C295.37 288.933 294.158 288.625 293.379 287.769C291.09 285.259 286.156 280.219 282.819 279.661C279.847 279.171 274.903 279.103 271.912 279.113C270.392 279.113 269.036 280.055 268.479 281.469C270.46 281.613 284.271 288.807 289.157 291.385C290.667 292.183 291.801 293.616 291.994 295.319C292.177 296.848 291.398 298.454 288.378 297.742C281.886 296.223 270.2 290.856 270.2 290.856C270.2 290.856 264.17 289.134 260.265 291.885C254.773 295.761 252.253 297.185 247.541 295.617C242.828 294.049 239.346 291.808 239.346 291.808L230.056 290.885C230.056 290.885 221.275 268.928 233.278 265.561L233.297 265.571Z" fill="#FFBE9D"/>
<path d="M268.392 270.053C268.411 270.159 270.277 269.553 273.383 269.36C276.471 269.149 280.856 269.505 285.223 271.371C289.589 273.236 292.888 276.151 294.869 278.526C296.88 280.902 297.736 282.662 297.822 282.614C297.851 282.604 297.659 282.152 297.235 281.383C296.812 280.613 296.129 279.536 295.148 278.305C293.215 275.843 289.888 272.813 285.425 270.918C280.972 269.014 276.48 268.716 273.364 269.014C271.797 269.158 270.546 269.408 269.69 269.639C268.844 269.861 268.382 270.034 268.392 270.062V270.053Z" fill="#EB996E"/>
<path d="M271.2 263.599C271.229 263.724 273.124 262.791 276.394 262.695C279.644 262.551 284.213 263.532 288.483 266.119C292.753 268.716 295.946 272.005 298.226 274.362C299.303 275.506 300.198 276.458 300.9 277.199C301.534 277.872 301.89 278.228 301.919 278.209C301.948 278.189 301.631 277.785 301.044 277.074C300.457 276.362 299.592 275.352 298.486 274.121C296.273 271.697 293.09 268.331 288.743 265.696C284.386 263.061 279.693 262.118 276.384 262.349C274.72 262.445 273.403 262.753 272.527 263.051C272.085 263.176 271.758 263.349 271.537 263.436C271.316 263.532 271.2 263.59 271.21 263.609L271.2 263.599Z" fill="#EB996E"/>
<path d="M30.8727 296.876C33.3444 297.223 35.7584 298.425 37.2588 300.425C38.7591 302.426 39.2304 305.244 38.1532 307.494C37.076 309.745 34.3639 311.188 31.9498 310.524C31.8729 312.294 30.2667 313.861 28.497 313.89C26.7274 313.919 25.0635 312.409 24.9289 310.639C23.7843 311.947 21.7743 312.409 20.1681 311.745C18.562 311.072 17.4848 309.312 17.6098 307.581C17.6867 306.485 18.1965 305.455 18.3311 304.359C18.4754 303.166 18.1676 301.955 18.1964 300.752C18.2253 299.55 18.7447 298.204 19.8892 297.819" fill="#263238"/>
<path d="M80.2118 303.397C76.4897 301.012 72.2291 299.598 67.9492 298.492C64.833 297.684 61.5053 297.04 58.4469 298.04C55.5712 298.983 53.2437 301.445 52.4454 304.369C52.1473 305.484 52.0703 306.725 52.6089 307.745C53.3302 309.101 54.9172 309.726 56.4079 310.091C57.5428 310.37 59.0047 310.457 59.6395 309.476C60.3896 310.428 61.5534 311.043 62.7556 311.14C63.9674 311.236 65.2081 310.803 66.093 309.976C66.9105 311.861 69.2379 312.948 71.2096 312.361C73.1812 311.784 74.5469 309.62 74.2199 307.591C75.1336 308.908 76.7301 309.755 78.3267 309.62C79.9232 309.485 81.4044 308.274 81.7121 306.696C82.0199 305.119 80.9908 303.368 79.4423 302.993" fill="#263238"/>
<path d="M116.201 302.782C117.182 298.627 115.567 294.289 112.104 291.789C108.248 289.009 105.535 285.778 100.505 282.787C96.9275 280.651 90.926 278.411 88.2234 277.516C78.3653 274.246 71.7002 273.409 67.6512 271.293C63.2078 268.966 57.2929 265.321 57.2929 265.321L6.96329 269.216C6.96329 269.216 0.913734 306.388 10.0794 310.014C10.0794 310.014 52.7148 310.466 56.0714 308.976C59.7069 307.369 115.192 307.398 115.028 307.764L116.201 302.782Z" fill="#263238"/>
<path d="M88.9639 295.684C99.7261 297.3 105.112 297.79 115.99 297.857C119.173 297.877 122.395 297.829 125.511 298.473C127.406 298.867 129.31 299.541 130.705 300.887C132.099 302.234 132.859 304.359 132.176 306.167C131.493 307.975 129.099 309.072 127.454 308.043C127.175 309.553 125.915 310.832 124.405 311.12C122.895 311.409 121.251 310.697 120.433 309.389C119.741 310.284 118.471 310.543 117.355 310.36C116.24 310.178 115.22 309.63 114.201 309.149C109.806 307.1 105.151 307.6 100.303 307.639C91.8396 307.696 82.2604 307.61 85.7901 307.639" fill="#263238"/>
<path d="M85.7804 307.648C85.7804 307.648 85.54 307.619 85.0687 307.6H85.0495H85.0399C85.0399 307.773 85.0399 307.648 85.0399 307.687H85.0879H85.1841C85.2515 307.687 85.3188 307.687 85.3957 307.687C85.54 307.687 85.7035 307.687 85.867 307.696C86.2132 307.696 86.6172 307.716 87.0596 307.725C88.8966 307.744 91.503 307.773 94.7538 307.812C96.3984 307.812 98.2065 307.812 100.159 307.821C102.121 307.821 104.218 307.725 106.439 307.783C108.651 307.85 111.008 308.1 113.268 309.004C114.393 309.437 115.47 310.13 116.769 310.485C117.413 310.659 118.115 310.726 118.798 310.591C119.481 310.466 120.164 310.13 120.625 309.543L120.231 309.524C121.077 310.861 122.751 311.649 124.376 311.38C126.002 311.101 127.387 309.764 127.704 308.091L127.329 308.254C128.541 309.014 130.224 308.697 131.311 307.764C132.032 307.187 132.503 306.311 132.628 305.417C132.773 304.522 132.619 303.609 132.292 302.791C131.647 301.137 130.224 299.935 128.733 299.233C127.214 298.521 125.607 298.184 124.049 297.963C122.482 297.742 120.933 297.675 119.433 297.636C113.431 297.607 108.055 297.569 103.535 297.242C99.024 296.934 95.3885 296.453 92.8783 296.136C91.6472 295.982 90.6855 295.857 89.9834 295.761C89.6756 295.722 89.4255 295.693 89.2332 295.674C89.0601 295.655 88.9735 295.655 88.9735 295.665C88.9735 295.674 89.0601 295.693 89.2236 295.732C89.4159 295.77 89.666 295.809 89.9738 295.867C90.6662 295.982 91.6376 296.136 92.8591 296.328C95.3597 296.703 98.9952 297.232 103.525 297.588C108.045 297.973 113.46 298.04 119.433 298.098C120.924 298.136 122.453 298.213 123.992 298.434C125.521 298.656 127.089 298.992 128.531 299.675C129.964 300.348 131.253 301.454 131.84 302.974C132.465 304.436 132.311 306.34 131.003 307.369C130.041 308.187 128.589 308.446 127.608 307.821L127.3 307.619L127.233 307.985C126.973 309.437 125.723 310.639 124.309 310.88C122.895 311.12 121.385 310.428 120.654 309.254L120.472 308.966L120.26 309.235C119.5 310.187 118.058 310.341 116.903 310.014C115.701 309.697 114.624 309.014 113.451 308.572C111.114 307.658 108.699 307.417 106.468 307.36C104.227 307.312 102.131 307.437 100.178 307.446C98.2258 307.465 96.4176 307.485 94.773 307.494C91.5222 307.514 88.9158 307.533 87.0788 307.552C86.6364 307.552 86.2421 307.562 85.8862 307.562C85.7131 307.562 85.5592 307.562 85.4149 307.562C85.3476 307.562 85.2707 307.562 85.2034 307.562H85.1072H85.0591C85.0591 307.562 85.0591 307.475 85.0591 307.648H85.0687H85.0879C85.5592 307.639 85.7997 307.629 85.7997 307.61L85.7804 307.648Z" fill="#455A64"/>
<path d="M18.4564 305.677C18.4564 305.677 18.1967 305.879 17.8889 306.417C17.6004 306.946 17.283 307.85 17.4272 309.014C17.4946 309.591 17.6773 310.226 18.0621 310.822C18.4371 311.428 19.0238 311.976 19.7836 312.303C21.2647 312.967 23.4864 312.804 24.9002 311.207L24.5444 311.14C25.006 312.525 26.3718 313.698 28.0356 313.813C29.6899 313.929 31.4307 312.832 32.0077 311.111L31.7192 311.274C34.3833 311.938 37.3648 310.139 38.4901 307.446C39.3653 305.408 38.9902 303.119 38.0765 301.339C37.1436 299.541 35.6817 298.117 34.0563 297.232C32.4309 296.328 30.7093 295.876 29.0935 295.665C27.4778 295.453 25.9485 295.482 24.5732 295.588C21.8225 295.828 19.6489 296.309 18.139 296.588C17.4272 296.732 16.8502 296.838 16.4078 296.925C16.0134 297.002 15.8019 297.05 15.8115 297.069C15.8211 297.088 16.0231 297.069 16.427 297.021C16.831 296.973 17.4177 296.886 18.1775 296.771C19.6971 296.55 21.8803 296.126 24.6021 295.934C27.2854 295.771 30.6901 295.886 33.8255 297.627C35.3739 298.483 36.7589 299.839 37.6341 301.551C38.4997 303.234 38.8363 305.388 38.0284 307.245C36.9897 309.745 34.2102 311.39 31.8346 310.793L31.6134 310.736L31.5461 310.947C31.0556 312.448 29.4975 313.448 28.0548 313.352C26.6025 313.265 25.3426 312.217 24.9291 310.995L24.8137 310.659L24.5828 310.928C23.3422 312.371 21.284 312.573 19.9086 311.986C18.466 311.409 17.7928 310.034 17.6485 308.966C17.4754 307.87 17.7447 306.994 17.9851 306.465C18.2448 305.927 18.466 305.696 18.4371 305.667L18.4564 305.677Z" fill="#455A64"/>
<path d="M10.9257 296.04C10.9834 296.097 11.5028 295.588 12.5127 295.039C13.5033 294.491 15.0421 293.953 16.7733 294.039C18.5045 294.126 19.976 294.818 20.9089 295.463C21.8514 296.107 22.3227 296.674 22.3804 296.617C22.4285 296.588 22.0534 295.934 21.1205 295.174C20.2068 294.424 18.6584 293.626 16.8022 293.529C14.946 293.433 13.3302 294.068 12.3395 294.722C11.3297 295.376 10.8969 295.992 10.9353 296.03L10.9257 296.04Z" fill="#455A64"/>
<path d="M80.3945 309.283C80.3945 309.283 80.5292 309.216 80.7696 309.033C80.9812 308.831 81.3082 308.533 81.5967 308.043C82.1834 307.1 82.6739 305.398 82.1353 303.416C81.5967 301.435 79.8944 299.512 77.615 298.184C75.3356 296.809 72.5176 296.049 69.7958 294.847C64.3233 292.375 60.5051 288.23 58.4565 284.922C57.4082 283.267 56.7253 281.825 56.3118 280.805C55.8886 279.786 55.6866 279.218 55.6481 279.228C55.6289 279.228 55.6674 279.382 55.7443 279.661C55.8309 279.94 55.927 280.363 56.129 280.873C56.4945 281.921 57.1389 283.392 58.1584 285.104C60.1493 288.499 64.0059 292.779 69.5938 295.299C72.3733 296.53 75.1625 297.271 77.3842 298.579C79.6155 299.839 81.2505 301.656 81.7987 303.513C82.3566 305.369 81.9526 307.014 81.4333 307.946C80.9043 308.899 80.3657 309.245 80.4042 309.283H80.3945Z" fill="#455A64"/>
<path d="M60.3513 308.985C60.3513 308.985 60.0531 309.418 59.2644 309.841C58.5046 310.255 57.1101 310.543 55.6674 309.889C54.2248 309.274 53.1091 307.437 53.1764 305.35C53.1764 304.311 53.4938 303.234 54.0613 302.253C54.6383 301.281 55.4558 300.396 56.4561 299.714C58.4566 298.329 60.8225 297.761 62.9192 297.771C65.0447 297.771 66.9394 298.194 68.4975 298.627C70.0556 299.069 71.2962 299.512 72.1618 299.8C73.0274 300.098 73.5083 300.252 73.5179 300.214C73.5275 300.185 73.0755 299.964 72.2292 299.617C71.3828 299.271 70.1613 298.771 68.5936 298.29C67.0356 297.809 65.112 297.328 62.9192 297.309C60.7359 297.28 58.2738 297.848 56.1676 299.31C55.1192 300.031 54.244 300.973 53.6381 302.012C53.0418 303.061 52.7148 304.234 52.7148 305.35C52.6667 307.59 53.917 309.581 55.5328 310.216C57.1293 310.87 58.6008 310.495 59.3702 310.005C59.7742 309.764 60.0243 309.485 60.1781 309.302C60.3224 309.1 60.3801 308.995 60.3705 308.985H60.3513Z" fill="#455A64"/>
<path d="M65.9678 309.678C65.9197 309.649 65.5061 310.312 64.3616 310.716C63.8134 310.918 63.0921 311.13 62.3612 311.053C61.6302 310.966 60.8512 310.495 60.4184 309.755C59.9856 309.014 60.0144 308.12 60.226 307.379C60.4376 306.638 60.8223 306.033 61.1782 305.542C61.9187 304.59 62.4669 304.042 62.3996 303.984C62.3612 303.946 61.736 304.388 60.8993 305.321C60.4953 305.792 60.0337 306.417 59.7836 307.244C59.524 308.043 59.4662 309.091 59.9856 309.995C60.5049 310.89 61.4283 311.418 62.3035 311.495C63.1979 311.553 63.9192 311.274 64.4963 311.024C65.0733 310.755 65.4869 310.437 65.7177 310.159C65.9486 309.88 65.9967 309.678 65.9678 309.668V309.678Z" fill="#455A64"/>
<path d="M74.0372 307.879C74.0372 307.879 74.0661 308.158 74.0757 308.639C74.0757 309.12 73.9795 309.822 73.5467 310.562C73.1332 311.293 72.3445 312.024 71.2481 312.245C70.1805 312.486 68.8629 312.245 67.8626 311.457C66.8624 310.658 66.3334 309.447 66.218 308.35C66.093 307.234 66.3911 306.225 66.7758 305.465C67.5837 303.926 68.5936 303.349 68.5262 303.282C68.507 303.253 68.2569 303.368 67.853 303.686C67.4587 303.993 66.9201 304.513 66.4585 305.301C66.0064 306.08 65.6409 307.177 65.7563 308.408C65.8621 309.62 66.4296 310.957 67.5548 311.861C68.6897 312.755 70.1516 312.996 71.3539 312.707C72.5849 312.428 73.4505 311.562 73.8544 310.745C74.2776 309.918 74.3354 309.139 74.268 308.639C74.2007 308.129 74.0564 307.879 74.0372 307.889V307.879Z" fill="#455A64"/>
<path d="M54.0613 273.967C54.0613 273.967 43.424 285.691 30.2189 284.2C17.0138 282.719 6.86712 269.918 6.86712 269.918C4.83778 266.696 5.6745 263.359 6.30927 260.896C6.94404 258.434 8.15587 256.078 8.16549 253.529C8.17511 251.356 7.30953 249.288 6.68438 247.21C5.28019 242.555 5.06858 237.631 4.85699 232.774C4.77043 230.687 4.87626 228.206 6.6363 227.09C7.73272 226.398 9.17538 226.494 10.3584 227.023C11.5413 227.552 12.5127 228.446 13.4456 229.341C17.4177 233.159 21.1591 237.227 24.6215 241.517C29.9689 237.718 37.9997 238.372 42.6642 242.969C48.3195 240.593 50.1757 232.678 55.9656 230.658C57.2255 230.216 58.7258 230.139 59.7934 230.937C61.1976 231.995 61.2746 234.034 61.2265 235.794C60.9861 243.71 60.6975 251.856 57.4756 259.088C58.8797 263.955 57.6871 269.504 54.3883 273.361" fill="#263238"/>
<path d="M34.7393 275.64C34.0468 274.621 32.9792 273.861 31.7962 273.524C30.6133 273.188 29.3052 273.274 28.18 273.774C27.9011 273.9 27.6222 274.053 27.4394 274.303C27.2567 274.554 27.199 274.909 27.3721 275.169C27.5741 274.852 28.0838 274.89 28.3531 275.159C28.6128 275.429 28.6801 275.833 28.6897 276.208C28.6994 276.583 28.6801 276.968 28.8148 277.323C28.9783 277.747 29.3629 278.064 29.8054 278.151C30.2478 278.237 30.7287 278.074 31.0268 277.747C31.2961 277.458 31.4212 277.064 31.5943 276.708C31.7674 276.352 32.0463 276.006 32.4406 275.938C32.7484 275.881 33.0562 276.015 33.3543 276.131C33.6525 276.246 33.9795 276.342 34.268 276.217C34.5565 276.092 34.6912 275.64 34.4315 275.458" fill="#455A64"/>
<path d="M29.8151 277.102C29.7381 277.102 29.7574 277.525 29.6035 278.151C29.4592 278.766 29.0745 279.603 28.3436 280.228C27.6126 280.844 26.7182 281.084 26.093 281.123C25.4486 281.171 25.0447 281.074 25.0255 281.151C25.0062 281.209 25.3909 281.43 26.1026 281.469C26.7951 281.517 27.8242 281.315 28.6802 280.603C29.5266 279.882 29.892 278.901 29.9594 278.208C30.0363 277.506 29.8824 277.083 29.8247 277.093L29.8151 277.102Z" fill="#455A64"/>
<path d="M29.7477 276.477C29.6996 276.458 29.4111 276.92 29.3822 277.776C29.3438 278.612 29.6516 279.863 30.6326 280.786C31.6232 281.7 32.8927 281.921 33.7198 281.825C34.5758 281.738 35.0182 281.421 34.9894 281.373C34.9605 281.296 34.4796 281.478 33.7006 281.469C32.9312 281.469 31.8252 281.209 30.9692 280.411C30.1228 279.613 29.7862 278.516 29.7285 277.756C29.6708 276.977 29.8151 276.487 29.7285 276.468L29.7477 276.477Z" fill="#455A64"/>
<path d="M9.36758 280.882C9.4349 281.036 12.3779 279.439 16.3981 278.968C20.4183 278.449 23.6595 279.286 23.6884 279.122C23.7076 279.064 22.919 278.785 21.5917 278.564C20.2645 278.343 18.389 278.228 16.3404 278.478C14.2918 278.728 12.503 279.295 11.2719 279.834C10.0409 280.372 9.33872 280.834 9.36758 280.892V280.882Z" fill="#455A64"/>
<path d="M3.24095 278.276C3.26019 278.353 4.44317 278.055 6.37634 277.718C8.3095 277.372 11.0024 277.025 13.9936 276.968C16.9847 276.92 19.6872 277.179 21.63 277.458C23.5728 277.737 24.7654 277.987 24.7847 277.91C24.7847 277.881 24.5057 277.776 23.9671 277.622C23.4382 277.468 22.6591 277.285 21.6877 277.102C19.745 276.727 17.0135 276.42 13.9839 276.468C10.9543 276.525 8.23255 276.929 6.30901 277.362C5.34723 277.583 4.56822 277.785 4.04886 277.958C3.51989 278.131 3.23133 278.237 3.24095 278.266V278.276Z" fill="#455A64"/>
<path d="M0.000144958 271.457C0.000144958 271.534 1.45242 271.466 3.78953 271.466C6.12663 271.466 9.3678 271.572 12.859 272.217C16.3599 272.851 19.3991 273.986 21.4765 275.035C23.5636 276.083 24.7273 276.958 24.7754 276.881C24.7946 276.852 24.5253 276.612 23.9964 276.218C23.4674 275.823 22.6691 275.294 21.64 274.727C19.5818 273.573 16.5042 272.37 12.9552 271.726C9.40631 271.072 6.13625 271.034 3.78953 271.11C2.61617 271.149 1.664 271.226 1.00999 271.293C0.355988 271.361 0.000144958 271.418 0.000144958 271.457Z" fill="#455A64"/>
<path d="M55.1481 286.739C55.1481 286.739 54.9653 286.518 54.5902 286.181C54.2152 285.845 53.6284 285.402 52.8783 284.883C51.3875 283.854 49.1658 282.633 46.5306 281.738C43.8953 280.853 41.3851 280.478 39.577 280.382C38.6729 280.334 37.9323 280.334 37.4322 280.382C36.9225 280.411 36.6436 280.449 36.6532 280.478C36.6532 280.565 37.7688 280.555 39.5577 280.738C41.337 280.921 43.7896 281.344 46.3767 282.209C48.9639 283.085 51.1663 284.239 52.6955 285.172C54.2247 286.105 55.1096 286.787 55.1577 286.72L55.1481 286.739Z" fill="#455A64"/>
<path d="M55.9561 281.402C55.9561 281.402 55.706 281.238 55.2251 281.017C54.7442 280.796 54.0325 280.517 53.1381 280.219C51.3492 279.613 48.8101 278.968 45.9344 278.651C43.0587 278.343 40.4331 278.43 38.5576 278.651C37.6151 278.757 36.8649 278.872 36.3455 278.987C35.8262 279.093 35.5473 279.17 35.5569 279.209C35.5665 279.286 36.7206 279.132 38.5865 279.007C40.4523 278.891 43.0395 278.853 45.8767 279.161C48.7139 279.468 51.2338 280.045 53.0323 280.565C54.8308 281.075 55.9272 281.478 55.9561 281.402Z" fill="#455A64"/>
<path d="M62.6594 279.151C62.6594 279.151 62.3131 278.959 61.6591 278.699C61.0051 278.43 60.0338 278.103 58.822 277.747C56.3983 277.035 52.9455 276.352 49.0888 276.218C45.2225 276.092 41.7313 276.525 39.2691 277.064C38.038 277.333 37.0474 277.593 36.3742 277.814C35.7009 278.026 35.3355 278.16 35.3451 278.199C35.3739 278.285 36.8647 277.853 39.3364 277.41C41.7986 276.968 45.2513 276.583 49.0696 276.718C52.8878 276.852 56.3021 277.477 58.7354 278.093C61.1687 278.709 62.6306 279.237 62.6594 279.151Z" fill="#455A64"/>
<path d="M37.0186 265.965C37.0186 265.965 37.4611 266.542 38.4998 267.013C39.5193 267.494 41.1543 267.841 42.8662 267.398C44.5782 266.946 45.8381 265.85 46.5018 264.936C47.175 264.013 47.3385 263.311 47.2808 263.301C47.2038 263.263 46.9249 263.897 46.2228 264.715C45.5303 265.532 44.3281 266.494 42.7412 266.908C41.1639 267.312 39.6346 267.052 38.6344 266.686C37.6149 266.321 37.0667 265.898 37.0186 265.965Z" fill="#455A64"/>
<path d="M15.6001 261.349C15.552 261.339 15.3885 262.041 15.7636 263.09C16.1002 264.128 17.1389 265.427 18.697 266.09C20.2358 266.773 21.7746 266.84 22.8326 266.85C23.9002 266.85 24.5542 266.773 24.5542 266.706C24.5542 266.629 23.9002 266.581 22.8422 266.494C21.8035 266.398 20.332 266.263 18.899 265.629C17.4467 265.013 16.4945 263.888 16.0906 262.955C15.6578 262.022 15.6867 261.349 15.6001 261.349Z" fill="#455A64"/>
<path d="M52.8688 247.172C52.2821 246.547 51.6954 245.912 51.2626 245.124C50.8298 244.335 50.5605 243.392 50.6759 242.459C50.801 241.459 51.3396 240.613 51.8974 239.843C53.4266 237.756 55.2059 235.939 57.1775 234.486C57.1775 234.486 58.7067 233.332 59.3896 234.486C59.8416 235.256 59.5531 247.893 57.8027 248.692C56.0427 249.5 52.888 247.162 52.888 247.162L52.8688 247.172Z" fill="#455A64"/>
<path d="M9.22337 229.12C12.0317 231.322 13.1089 235.111 15.2152 237.997C15.5903 238.516 15.975 239.045 16.225 239.632C16.4751 240.218 16.5809 240.901 16.3885 241.517C16.1866 242.152 15.6865 242.642 15.1767 243.065C14.0611 244.008 12.8012 244.768 11.4547 245.325C11.4547 245.325 8.5405 246.229 7.77108 243.575C7.00167 240.92 7.3383 227.629 9.22337 229.11V229.12Z" fill="#455A64"/>
<path d="M98.5913 283.604C101.977 284.123 109.796 282.825 112.075 280.469C114.461 278.016 113.72 274.419 112.479 271.236C111.239 268.043 109.325 265.176 107.699 262.166C104.968 257.136 102.987 251.596 102.833 245.874C102.679 240.151 104.535 234.246 108.584 230.206C112.633 226.167 119.019 224.34 124.357 226.407C128.743 228.11 132.148 233.178 130.445 237.564C129.378 240.315 126.714 242.065 124.838 244.344C122.193 247.557 121.145 252.01 122.068 256.068C123.078 260.473 126.194 264.147 127.377 268.514C129.176 275.169 125.915 282.556 120.424 286.72C114.932 290.885 107.622 292.135 100.774 291.337" fill="#263238"/>
<path d="M27.449 281.296C27.449 281.296 27.0355 283.873 27.9203 284.922C28.3146 285.393 28.8629 285.768 29.4784 285.835C30.3825 285.931 31.2577 285.316 31.7097 284.527C32.1617 283.739 32.2771 282.796 32.3252 281.892C32.3252 281.892 30.0362 281.065 29.7092 279.728C29.7092 279.728 28.7955 281.161 27.4586 281.305L27.449 281.296Z" fill="#E8505B"/>
<path d="M15.7922 282.344C15.7922 282.344 16.023 282.681 16.5328 283.19C17.0425 283.7 17.8408 284.402 18.9179 285.143C21.0435 286.624 24.4289 288.201 28.4299 288.519C32.4309 288.836 36.0279 287.826 38.365 286.701C39.5384 286.143 40.4424 285.585 41.0291 285.162C41.6158 284.739 41.9139 284.47 41.9043 284.441C41.8466 284.354 40.5771 285.354 38.2207 286.374C35.8932 287.403 32.3731 288.326 28.478 288.018C24.5828 287.701 21.2551 286.23 19.1199 284.845C16.9559 283.46 15.8595 282.277 15.8018 282.344H15.7922Z" fill="#455A64"/>
<path d="M29.5265 299.666C29.4881 299.743 30.1901 300.098 31.0654 300.974C31.931 301.83 32.9312 303.301 33.2197 305.148C33.5083 306.994 33.0081 308.697 32.4407 309.783C31.8732 310.88 31.3058 311.438 31.3731 311.495C31.402 311.534 32.0752 311.063 32.7485 309.957C33.4217 308.87 34.018 307.062 33.7102 305.071C33.3928 303.08 32.2772 301.541 31.3058 300.714C30.3248 299.868 29.5458 299.617 29.5265 299.666Z" fill="#455A64"/>
<path d="M20.1588 300.781C20.1588 300.878 20.9474 300.801 22.0342 301.301C23.1018 301.782 24.429 302.955 25.0157 304.677C25.5928 306.408 25.3716 308.129 25.083 309.293C24.7945 310.476 24.4771 311.169 24.5444 311.207C24.5925 311.236 25.0349 310.592 25.4196 309.389C25.8043 308.216 26.1025 306.398 25.487 304.523C24.8522 302.638 23.3614 301.416 22.1688 300.983C20.957 300.531 20.1395 300.753 20.1588 300.791V300.781Z" fill="#455A64"/>
<path d="M46.2322 294.559C46.1745 294.597 46.463 295.136 47.0305 295.944C47.5979 296.742 48.4539 297.819 49.5984 298.81C50.7525 299.8 51.974 300.454 52.878 300.829C53.7917 301.204 54.388 301.339 54.4073 301.281C54.4746 301.118 52.1471 300.339 49.9158 298.425C47.7133 296.501 46.3668 294.453 46.2226 294.559H46.2322Z" fill="#455A64"/>
<path d="M57.8602 265.667C57.8602 265.667 58.0429 265.821 58.4084 266.09C58.7738 266.359 59.3317 266.725 60.053 267.187C61.5053 268.1 63.6885 269.322 66.4776 270.611C69.2764 271.89 72.6811 273.236 76.5474 274.506C80.4137 275.775 84.7032 276.958 89.1466 278.43C93.5804 279.892 97.7352 281.536 101.284 283.469C104.833 285.393 107.786 287.567 109.998 289.673C112.21 291.779 113.73 293.751 114.653 295.184C115.586 296.617 115.999 297.473 116.047 297.454C116.067 297.454 115.97 297.232 115.768 296.819C115.586 296.405 115.259 295.819 114.816 295.078C113.931 293.606 112.45 291.568 110.238 289.413C108.036 287.259 105.074 285.027 101.505 283.065C97.9372 281.094 93.7631 279.43 89.3101 277.958C84.8571 276.487 80.5484 275.304 76.7013 274.073C72.8446 272.832 69.4399 271.534 66.6411 270.293C63.8424 269.052 61.6496 267.889 60.1684 267.033C59.4279 266.6 58.8604 266.263 58.4757 266.023C58.091 265.792 57.8794 265.667 57.8698 265.686L57.8602 265.667Z" fill="#455A64"/>
<path d="M52.782 274.217C52.782 274.217 53.4649 273.659 54.2824 272.515C55.0999 271.37 56.0521 269.649 56.6965 267.581C57.3312 265.513 57.5043 263.551 57.4659 262.147C57.4274 260.733 57.2351 259.887 57.1774 259.896C57.0042 259.896 57.4851 263.397 56.206 267.437C54.9845 271.495 52.6282 274.131 52.7724 274.217H52.782Z" fill="#455A64"/>
<path d="M399.462 306.802L431.374 226.696C434.202 219.81 429.133 212.25 421.689 212.25H322.271C317.789 212.25 313.797 215.107 312.355 219.358L284.944 300.156L252.927 300.31C250.33 300.32 248.224 304.128 248.224 306.725L283.463 306.321L399.462 306.802Z" fill="#263238"/>
<path d="M353.509 262.83C353.509 266.398 356.404 269.283 359.962 269.283C363.521 269.283 366.416 266.389 366.416 262.83C366.416 259.271 363.521 256.376 359.962 256.376C356.404 256.376 353.509 259.271 353.509 262.83Z" fill="#F5F5F5"/>
<path d="M476.481 273.303C485.888 267.85 490.918 255.164 491.293 244.787C491.668 234.409 487.349 223.57 478.828 217.617C469.864 211.346 457.092 211.461 447.869 217.357C438.655 223.262 433.259 234.4 433.673 245.335C434.086 256.27 440.049 266.715 448.869 273.198" fill="#CAE9EB"/>
<path d="M461.468 274.304C461.526 274.304 461.583 273.458 461.641 271.928C461.689 270.226 461.747 268.052 461.824 265.456C461.968 259.993 462.18 252.443 462.545 244.104C462.911 235.766 463.363 228.225 463.699 222.772C463.853 220.175 463.988 218.002 464.084 216.309C464.161 214.78 464.18 213.933 464.122 213.924C464.065 213.924 463.93 214.761 463.747 216.28C463.565 217.8 463.334 220.002 463.084 222.724C462.584 228.177 462.035 235.718 461.67 244.066C461.304 252.414 461.189 259.973 461.208 265.446C461.208 268.187 461.247 270.399 461.304 271.928C461.353 273.458 461.41 274.304 461.478 274.304H461.468Z" fill="white"/>
<path d="M488.513 242.431C488.532 242.671 490.033 242.748 491.86 242.594C493.687 242.44 495.159 242.123 495.14 241.882C495.12 241.642 493.62 241.565 491.793 241.719C489.965 241.873 488.494 242.19 488.513 242.431Z" fill="#263238"/>
<path d="M487.994 233.111C488.09 233.332 489.388 232.976 490.879 232.313C492.38 231.649 493.514 230.928 493.409 230.707C493.313 230.485 492.014 230.841 490.523 231.505C489.023 232.168 487.888 232.89 487.994 233.111Z" fill="#263238"/>
<path d="M483.204 226.196C483.329 226.398 484.782 225.715 486.301 224.455C487.821 223.205 488.763 221.906 488.59 221.743C488.407 221.57 487.215 222.57 485.743 223.782C484.281 224.994 483.079 225.994 483.214 226.196H483.204Z" fill="#263238"/>
<path d="M478.386 219.675C478.607 219.771 479.309 218.685 479.944 217.242C480.579 215.799 480.915 214.549 480.694 214.453C480.473 214.357 479.771 215.443 479.136 216.886C478.501 218.329 478.165 219.579 478.386 219.675Z" fill="#263238"/>
<path d="M470.826 215.049C471.047 215.155 471.797 213.991 472.288 212.385C472.788 210.779 472.827 209.394 472.596 209.355C472.355 209.317 471.932 210.577 471.451 212.116C470.97 213.664 470.605 214.943 470.826 215.039V215.049Z" fill="#263238"/>
<path d="M458.198 209.827C457.967 209.904 458.112 210.894 458.516 212.039C458.92 213.183 459.429 214.039 459.66 213.953C459.891 213.876 459.747 212.885 459.343 211.741C458.939 210.596 458.429 209.74 458.198 209.827Z" fill="#263238"/>
<path d="M448.84 213.847C448.677 214.029 449.273 214.847 450.177 215.684C451.081 216.52 451.947 217.059 452.12 216.876C452.283 216.694 451.687 215.876 450.783 215.039C449.879 214.203 449.013 213.664 448.84 213.847Z" fill="#263238"/>
<path d="M440.598 219.166C440.463 219.367 441.194 220.098 442.233 220.81C443.271 221.512 444.224 221.926 444.358 221.724C444.493 221.522 443.762 220.791 442.723 220.079C441.685 219.377 440.732 218.964 440.598 219.166Z" fill="#263238"/>
<path d="M434.75 227.1C434.654 227.321 435.808 228.033 437.328 228.677C438.847 229.321 440.155 229.668 440.251 229.447C440.348 229.225 439.194 228.514 437.674 227.869C436.154 227.225 434.846 226.879 434.75 227.1Z" fill="#263238"/>
<path d="M432.442 235.756C432.413 235.997 433.586 236.343 435.067 236.526C436.548 236.708 437.77 236.66 437.799 236.42C437.828 236.179 436.654 235.833 435.173 235.65C433.692 235.468 432.471 235.516 432.442 235.756Z" fill="#263238"/>
<path d="M431.249 246.412C431.345 246.634 432.596 246.307 434.038 245.681C435.481 245.056 436.577 244.364 436.481 244.143C436.385 243.921 435.135 244.248 433.682 244.874C432.24 245.499 431.143 246.191 431.24 246.412H431.249Z" fill="#263238"/>
<path d="M432.298 255.549C432.375 255.77 433.952 255.395 435.606 254.309C437.26 253.231 438.241 251.933 438.068 251.77C437.885 251.596 436.683 252.549 435.125 253.568C433.567 254.597 432.211 255.309 432.298 255.549Z" fill="#263238"/>
<path d="M437.058 263.869C437.203 264.061 438.463 263.32 439.674 262.012C440.886 260.714 441.531 259.406 441.329 259.271C441.127 259.127 440.184 260.166 439.02 261.416C437.866 262.666 436.895 263.676 437.058 263.869Z" fill="#263238"/>
<path d="M482.252 264.85C482.137 265.061 483.464 265.975 485.205 266.879C486.946 267.783 488.456 268.35 488.561 268.129C488.677 267.918 487.35 267.004 485.609 266.1C483.868 265.196 482.358 264.628 482.252 264.85Z" fill="#263238"/>
<path d="M486.378 257.319C486.282 257.54 487.34 258.242 488.744 258.877C490.148 259.512 491.379 259.858 491.476 259.627C491.572 259.406 490.514 258.704 489.11 258.069C487.705 257.434 486.474 257.098 486.378 257.319Z" fill="#263238"/>
<path d="M489.417 250.654C489.379 250.894 490.687 251.279 492.331 251.51C493.976 251.741 495.332 251.741 495.371 251.5C495.409 251.26 494.101 250.875 492.456 250.644C490.812 250.413 489.456 250.413 489.417 250.654Z" fill="#263238"/>
<path d="M479.463 246.98C479.386 247.211 480.665 247.797 482.358 247.99C484.06 248.182 485.426 247.894 485.407 247.653C485.388 247.403 484.06 247.297 482.454 247.114C480.848 246.941 479.53 246.739 479.453 246.98H479.463Z" fill="#263238"/>
<path d="M471.192 238.757C471.124 238.987 472.134 239.497 473.5 239.632C474.866 239.767 475.962 239.459 475.933 239.228C475.914 238.978 474.856 238.882 473.587 238.757C472.317 238.632 471.259 238.526 471.192 238.757Z" fill="#263238"/>
<path d="M469.615 232.159C469.692 232.39 470.788 232.217 472.067 231.774C473.337 231.332 474.308 230.793 474.231 230.562C474.154 230.331 473.058 230.505 471.779 230.947C470.509 231.389 469.538 231.928 469.615 232.159Z" fill="#263238"/>
<path d="M466.585 225.494C466.758 225.667 467.508 225.167 468.047 224.234C468.585 223.301 468.643 222.397 468.412 222.339C468.172 222.272 467.768 222.964 467.287 223.791C466.816 224.618 466.412 225.32 466.594 225.494H466.585Z" fill="#263238"/>
<path d="M470.24 252.779C470.182 253.02 471.134 253.452 472.355 253.751C473.067 253.924 473.712 254.01 474.135 254.01L474.308 253.501C473.99 253.443 473.789 253.452 473.74 253.549C473.702 253.645 473.827 253.799 474.087 254.001L474.26 253.491C473.885 253.299 473.269 253.077 472.557 252.904C471.326 252.606 470.288 252.548 470.23 252.789L470.24 252.779Z" fill="#263238"/>
<path d="M468.537 264.465C468.451 264.696 469.662 265.379 471.24 266.004C472.827 266.629 474.173 266.946 474.269 266.716C474.356 266.485 473.144 265.802 471.567 265.177C469.98 264.552 468.633 264.234 468.537 264.465Z" fill="#263238"/>
<path d="M477.876 259.281C477.799 259.512 478.607 259.992 479.684 260.358C480.761 260.723 481.694 260.829 481.771 260.598C481.848 260.367 481.04 259.887 479.963 259.521C478.886 259.156 477.953 259.05 477.876 259.281Z" fill="#263238"/>
<path d="M477.155 235.496C477.212 235.727 478.617 235.592 480.242 235.015C481.867 234.438 483.05 233.669 482.945 233.448C482.839 233.226 481.531 233.63 479.944 234.188C478.367 234.746 477.097 235.265 477.155 235.506V235.496Z" fill="#263238"/>
<path d="M454.553 232.909C454.418 233.111 455.207 233.871 456.323 234.602C457.429 235.333 458.439 235.765 458.573 235.564C458.708 235.362 457.919 234.602 456.804 233.871C455.697 233.14 454.688 232.707 454.553 232.909Z" fill="#263238"/>
<path d="M453.332 244.643C453.283 244.883 454.111 245.258 455.188 245.479C456.265 245.701 457.179 245.691 457.227 245.451C457.275 245.21 456.448 244.835 455.371 244.614C454.293 244.393 453.38 244.402 453.332 244.643Z" fill="#263238"/>
<path d="M451.899 257.838C452.004 258.059 453.197 257.723 454.572 257.088C455.948 256.453 456.977 255.751 456.88 255.539C456.775 255.318 455.582 255.655 454.207 256.29C452.831 256.924 451.802 257.626 451.899 257.838Z" fill="#263238"/>
<path d="M454.919 270.678C455.111 270.832 455.88 270.197 456.659 269.254C457.429 268.312 457.9 267.427 457.717 267.273C457.525 267.119 456.755 267.754 455.976 268.697C455.207 269.639 454.736 270.524 454.919 270.678Z" fill="#263238"/>
<path d="M455.544 224.272C455.399 224.465 455.909 225.109 456.794 225.551C457.669 225.994 458.496 226.023 458.564 225.792C458.631 225.551 457.986 225.167 457.188 224.763C456.39 224.368 455.697 224.08 455.544 224.272Z" fill="#263238"/>
<path d="M444.464 236.102C444.387 236.323 445.407 236.891 446.811 237.083C448.215 237.285 449.35 237.016 449.331 236.775C449.321 236.525 448.234 236.391 446.926 236.208C445.618 236.035 444.541 235.862 444.454 236.102H444.464Z" fill="#263238"/>
<path d="M446.676 225.484C446.57 225.696 447.59 226.427 449.032 226.879C450.475 227.341 451.725 227.341 451.764 227.11C451.802 226.869 450.677 226.485 449.302 226.042C447.926 225.609 446.792 225.263 446.676 225.484Z" fill="#263238"/>
<path d="M442.05 252.558C442.05 252.798 443.791 252.952 445.888 252.558C447.984 252.183 449.562 251.423 449.485 251.202C449.408 250.961 447.763 251.327 445.734 251.692C443.714 252.068 442.04 252.308 442.05 252.548V252.558Z" fill="#263238"/>
<path d="M446.166 267.994C446.311 268.187 447.59 267.427 448.869 266.138C450.148 264.849 450.898 263.57 450.706 263.426C450.514 263.272 449.484 264.282 448.244 265.523C447.013 266.763 446.012 267.802 446.166 267.994Z" fill="#263238"/>
<path d="M464.257 212.924C464.123 213.116 467.768 214.587 471.98 219.031C476.193 223.368 480.53 231.043 481.608 240.305C482.117 244.912 481.685 249.365 481.031 253.337C480.348 257.319 479.434 260.849 478.588 263.801C477.741 266.744 476.962 269.101 476.443 270.745C475.923 272.38 475.645 273.294 475.702 273.313C475.76 273.332 476.145 272.467 476.77 270.861C477.395 269.255 478.261 266.927 479.184 263.984C480.107 261.051 481.088 257.502 481.829 253.482C482.531 249.471 483.012 244.941 482.483 240.209C481.386 230.736 476.847 222.926 472.432 218.608C470.239 216.415 468.172 214.953 466.671 214.107C465.94 213.645 465.306 213.395 464.911 213.193C464.498 213.001 464.276 212.914 464.267 212.943L464.257 212.924Z" fill="white"/>
<path d="M452.245 273.871C452.437 273.775 450.263 270.428 448.282 264.407C446.243 258.454 444.56 249.644 445.916 240.065C446.551 235.294 447.936 230.87 449.667 227.09C451.466 223.359 453.793 220.31 456.063 218.175C458.41 216.097 460.727 214.905 462.334 214.212C463.959 213.529 464.94 213.376 464.93 213.299C464.93 213.27 464.68 213.279 464.209 213.356C463.747 213.443 463.065 213.597 462.209 213.895C460.525 214.501 458.131 215.626 455.649 217.713C453.235 219.868 450.831 222.916 448.926 226.744C447.109 230.591 445.685 235.083 445.031 239.949C443.646 249.702 445.474 258.646 447.686 264.619C448.186 266.138 448.821 267.446 449.302 268.62C449.869 269.755 450.34 270.745 450.763 271.524C451.658 273.073 452.177 273.91 452.235 273.881L452.245 273.871Z" fill="white"/>
<path d="M486.378 271.784H437.799L437.501 281.507H486.378V271.784Z" fill="#263238"/>
<path d="M482.252 276.641L479.463 306.331H443.945L441.088 276.968L482.252 276.641Z" fill="#263238"/>
<path d="M437.501 281.623C437.501 281.863 448.446 282.065 461.93 282.065C475.414 282.065 486.368 281.863 486.368 281.623C486.368 281.382 475.433 281.18 461.93 281.18C448.427 281.18 437.501 281.382 437.501 281.623Z" fill="#455A64"/>
<path d="M442.435 290.663C442.435 290.663 442.714 291.375 443.473 292.52C444.233 293.655 445.445 295.251 447.244 296.973L447.465 297.184L447.686 296.953C450.023 294.501 453.235 291.491 457.207 288.615L456.669 288.596C458.025 289.788 459.439 291.029 460.891 292.298C462.613 293.799 464.286 295.261 465.883 296.646L466.162 296.886L466.441 296.655C469.47 294.116 472.221 291.798 474.548 289.836L474.077 289.788C475.75 291.837 477.164 293.549 478.27 294.905C479.28 296.107 479.867 296.751 479.915 296.703C479.963 296.655 479.482 295.944 478.559 294.674C477.51 293.27 476.174 291.491 474.596 289.375L474.394 289.105L474.125 289.327C471.759 291.25 468.96 293.51 465.892 296.001H466.441C464.854 294.616 463.19 293.154 461.468 291.644C460.016 290.375 458.592 289.144 457.236 287.951L456.977 287.72L456.698 287.922C452.697 290.865 449.504 293.972 447.224 296.53L447.667 296.511C444.06 293.241 442.569 290.567 442.435 290.673V290.663Z" fill="#455A64"/>
</svg>
