<?xml version="1.0" encoding="UTF-8"?>
<svg xmlns="http://www.w3.org/2000/svg" version="1.1" viewBox="0 0 500 500">
  <defs>
    <style>
      .cls-1 {
        fill: #bfdd7d;
      }

      .cls-2 {
        fill: #263238;
      }

      .cls-3 {
        fill: #fff;
      }

      .cls-4 {
        opacity: .3;
      }

      .cls-5 {
        fill: #ffbf9d;
      }

      .cls-6 {
        fill: #f5f5f5;
      }

      .cls-7 {
        fill: #455a64;
      }

      .cls-8 {
        display: none;
      }

      .cls-9 {
        fill: #ff9a6c;
      }
    </style>
  </defs>
  <!-- Generator: Adobe Illustrator 28.6.0, SVG Export Plug-In . SVG Version: 1.2.0 Build 709)  -->
  <g>
    <g id="Calque_1">
      <g id="Calque_1-2" data-name="Calque_1">
        <g id="Background_Simple" class="cls-8">
          <path class="cls-6" d="M75.7,127l1.7-4c14.7-34,46.6-57.7,83.3-60.4,4.7-.3,9.5-.4,14.2,0,34,2.5,66.2,23.6,82.5,53.9,9.6,17.9,14.5,39.3,29.9,52.4,20,17.1,49.5,13.6,75.2,9.3s55.2-7.7,75.2,9.4c12.5,10.7,18.3,27.7,19.7,44.1,3.7,43.7-21.2,86.6-57,111.1-35.8,24.6-80.8,32.5-124,29.8-60.5-3.8-121-28.7-161.6-74.4-40.6-45.7-58.6-113.2-39.1-171.2Z"/>
          <circle class="cls-6" cx="93.7" cy="425.9" r="32.6"/>
        </g>
        <g id="Speech_Bubble_2">
          <g>
            <g>
              <g>
                <circle class="cls-3" cx="72.3" cy="149.7" r="32.2"/>
                <path class="cls-2" d="M104.6,149.7v-3.1c0-.4,0-.9-.2-1.3,0-.5-.2-1-.2-1.6s-.3-1.1-.4-1.8c-.6-2.5-1.7-5.4-3.6-8.5s-4.5-6.3-8.2-9.1c-.5-.3-.9-.7-1.4-1s-1-.6-1.5-.9-1-.7-1.6-.9c-.5-.3-1.1-.5-1.7-.8-.3,0-.6-.3-.8-.4-.3,0-.6-.2-.9-.3-.6-.2-1.2-.4-1.8-.7-.6-.2-1.3-.3-1.9-.5-.6,0-1.3-.4-1.9-.4-1.3-.2-2.7-.5-4.1-.5h-2.1c-.7,0-1.4,0-2.1,0h-1.1l-1.1.2c-.7,0-1.4.2-2.2.3-1.4.4-2.9.7-4.3,1.3-1.4.5-2.8,1.2-4.2,1.8-.7.4-1.3.8-2,1.2-.3.2-.7.4-1,.6l-.9.7c-1.3.9-2.4,2-3.6,3.1-.5.6-1.1,1.2-1.6,1.8l-.4.5-.4.5-.7,1-.7,1-.6,1.1-.6,1.1-.3.5-.3.6c-.4.7-.7,1.5-1.1,2.3-.3.8-.6,1.6-.9,2.4-1,3.2-1.6,6.6-1.7,10.1,0,3.5.6,6.9,1.7,10.1.3.8.6,1.6.9,2.4.4.8.7,1.5,1.1,2.3l.3.6.3.5.6,1.1.6,1.1.7,1,.7,1,.4.5.4.5c.5.6,1.1,1.2,1.6,1.8,1.2,1.1,2.3,2.2,3.6,3.1l.9.7c.3.2.7.4,1,.6.7.4,1.3.8,2,1.2,1.4.7,2.7,1.4,4.2,1.8,1.4.6,2.9.9,4.3,1.3.7.1,1.4.2,2.2.4l1.1.2h1.1c.7,0,1.4,0,2.1.1h2.1c1.4,0,2.7-.3,4.1-.5.7,0,1.3-.3,1.9-.4.6-.2,1.3-.3,1.9-.5s1.2-.4,1.8-.7c.3-.1.6-.2.9-.3s.6-.3.8-.4c.6-.3,1.1-.5,1.7-.8s1-.6,1.6-.9c.5-.3,1-.6,1.5-.9.5-.3.9-.7,1.4-1,3.6-2.8,6.3-6,8.2-9.1,1.8-3.1,3-6.1,3.6-8.5,0-.6.4-1.2.4-1.8s.2-1.1.2-1.6.2-.9.2-1.3v-3.1,3.1c0,.4,0,.9-.2,1.4,0,.5,0,1-.2,1.6,0,.6-.3,1.1-.4,1.8-.5,2.5-1.7,5.5-3.5,8.6s-4.5,6.4-8.2,9.2c-.5.3-.9.7-1.4,1s-1,.6-1.5.9c-.5.3-1,.7-1.6.9-.6.3-1.1.5-1.7.8-.3.1-.6.3-.9.4-.3.1-.6.2-.9.3-.6.2-1.2.4-1.8.7-.6.2-1.3.3-1.9.5-.6.1-1.3.4-2,.4-1.3.2-2.7.5-4.1.5h-2.1c-.7,0-1.4,0-2.1-.1h-1.1l-1.1-.2c-.7-.1-1.5-.2-2.2-.4-1.4-.4-2.9-.7-4.3-1.3-1.5-.5-2.8-1.2-4.2-1.9-.7-.4-1.3-.8-2-1.2-.3-.2-.7-.4-1-.6l-1-.7c-1.3-.9-2.5-2-3.7-3.1-.5-.6-1.1-1.2-1.6-1.8l-.4-.5-.4-.5-.7-1-.7-1-.7-1.1-.7-1.1-.3-.5-.3-.6c-.4-.8-.7-1.5-1.1-2.3-.3-.8-.6-1.6-.9-2.4-1.1-3.3-1.6-6.7-1.7-10.2,0-3.5.6-7,1.7-10.2.3-.8.6-1.6.9-2.4.4-.8.7-1.5,1.1-2.3l.3-.6.3-.5.7-1.1.7-1.1.7-1,.7-1,.4-.5.4-.5c.6-.6,1.1-1.2,1.6-1.8,1.2-1.1,2.4-2.2,3.7-3.1l1-.7c.3-.2.7-.4,1-.6.7-.4,1.3-.8,2-1.2,1.4-.7,2.8-1.4,4.2-1.9,1.4-.6,2.9-.9,4.3-1.3.7,0,1.5-.2,2.2-.3l1.1-.2h1.1c.7,0,1.4,0,2.1,0h2.1c1.4,0,2.8.3,4.1.5.7,0,1.3.3,2,.4.6.2,1.3.3,1.9.5s1.2.4,1.8.7c.3,0,.6.2.9.3.3,0,.6.3.9.4.6.3,1.1.5,1.7.8s1.1.6,1.6.9,1,.6,1.5.9c.5.4.9.7,1.4,1,3.7,2.8,6.3,6.1,8.2,9.2,1.8,3.2,3,6.1,3.5,8.6,0,.6.3,1.2.4,1.8,0,.6.2,1.1.2,1.6s0,.9.2,1.4v3.1-.2Z"/>
              </g>
              <g>
                <path class="cls-1" d="M60.9,144.2h6.1s0-5.1,5.3-5.2c2.8,0,4.2,1.8,4.8,3.2.7,1.6.5,3.5-.4,5-1,1.7-3.3,3.3-7.4,2.5v9h6.1v-3.3s8.5-2.2,8.5-11.5-8-11-11.5-11-11.6.6-11.5,11.4h0Z"/>
                <rect class="cls-1" x="69.2" y="161" width="6.1" height="5.7"/>
              </g>
            </g>
            <g>
              <path class="cls-3" d="M106,179.9c0,2.7-2.2,4.9-4.9,4.9s-4.9-2.2-4.9-4.9,2.2-4.9,4.9-4.9,4.9,2.2,4.9,4.9Z"/>
              <path class="cls-2" d="M106,179.9s0-.4-.2-1.2c-.2-.7-.7-1.8-1.8-2.6-1.1-.8-2.8-1.3-4.5-.6-.8.3-1.6.9-2.2,1.7s-.9,1.8-.9,2.8.3,2,.9,2.8,1.4,1.4,2.2,1.7c1.7.6,3.4.2,4.5-.6s1.6-1.9,1.8-2.6c.2-.7.2-1.2.2-1.2v.3c0,.2,0,.5,0,.9-.2.8-.6,1.9-1.8,2.8-1.1.9-3,1.4-4.8.8-.9-.3-1.8-.9-2.4-1.8-.6-.8-1-1.9-1-3s.4-2.2,1-3,1.5-1.5,2.4-1.8c1.8-.7,3.7-.1,4.8.8,1.1.9,1.6,2,1.8,2.8,0,.4,0,.7,0,.9v.3-.2Z"/>
            </g>
          </g>
        </g>
        <g id="Speech_Bubble_1">
          <g>
            <g>
              <g>
                <circle class="cls-3" cx="430.3" cy="129.7" r="33.8"/>
                <path class="cls-2" d="M464.2,129.7v-.5c0-.4,0-.9-.1-1.6v-1.2c0-.4-.1-.9-.2-1.4,0-.5-.2-1.1-.3-1.6,0-.6-.3-1.2-.4-1.8-.6-2.6-1.8-5.7-3.7-9-1.9-3.3-4.8-6.7-8.6-9.6-.5-.4-1-.7-1.5-1.1-.5-.3-1.1-.6-1.6-1-.5-.3-1.1-.7-1.6-.9-.6-.3-1.2-.6-1.7-.8-.3,0-.6-.3-.9-.4s-.6-.2-.9-.3c-.6-.2-1.3-.5-1.9-.7s-1.3-.3-2-.5-1.3-.4-2-.5c-1.4-.2-2.8-.5-4.3-.5h-2.2c-.7,0-1.5,0-2.2,0h-1.1l-1.1.2c-.7,0-1.5.2-2.3.4-1.5.4-3,.7-4.5,1.3-1.5.5-2.9,1.2-4.4,1.9-.7.4-1.4.8-2.1,1.3-.3.2-.7.4-1,.7l-1,.7c-1.4.9-2.6,2.1-3.8,3.2-.6.6-1.1,1.3-1.7,1.9l-.4.5-.4.5-.8,1-.8,1-.7,1.1-.7,1.1-.3.6-.3.6c-.4.8-.8,1.6-1.1,2.4-.3.8-.6,1.7-.9,2.5-1.1,3.4-1.7,7-1.7,10.6s.6,7.2,1.7,10.6c.3.8.6,1.7.9,2.5.4.8.8,1.6,1.1,2.4l.3.6.3.6.7,1.1.7,1.1.8,1,.8,1,.4.5.4.5c.6.6,1.1,1.3,1.7,1.9,1.3,1.1,2.4,2.3,3.8,3.2l1,.7c.3.2.7.4,1,.7.7.4,1.4.9,2.1,1.3,1.5.7,2.9,1.4,4.4,1.9,1.5.6,3,.9,4.5,1.3.8.2,1.5.2,2.3.4l1.1.2h1.1c.7,0,1.5,0,2.2.1h2.2c1.5,0,2.9-.3,4.3-.5.7,0,1.4-.3,2-.5.7-.2,1.3-.3,2-.5.6-.2,1.3-.5,1.9-.7.3-.1.6-.2.9-.3s.6-.3.9-.4c.6-.3,1.2-.6,1.7-.8.6-.3,1.1-.6,1.6-.9.5-.3,1.1-.6,1.6-1s1-.7,1.5-1.1c3.8-2.9,6.6-6.3,8.6-9.6,1.9-3.3,3.2-6.4,3.7-9,.2-.7.4-1.3.4-1.8s.2-1.1.3-1.6c0-.5.2-1,.2-1.4v-1.2c0-.7,0-1.2.1-1.6v-.5,3.3c0,.4-.1.9-.2,1.4,0,.5-.2,1.1-.2,1.7s-.3,1.2-.4,1.9c-.6,2.6-1.8,5.8-3.7,9.1-1.9,3.3-4.8,6.7-8.6,9.7-.5.4-1,.7-1.5,1.1-.5.3-1.1.7-1.6,1s-1.1.7-1.7,1l-1.8.9c-.3.1-.6.3-.9.4-.3.1-.6.2-.9.3-.6.2-1.3.5-1.9.7s-1.3.4-2,.5c-.7.2-1.3.4-2.1.5-1.4.2-2.8.5-4.3.5s-1.5.1-2.2,0c-.7,0-1.5,0-2.3-.1h-1.1l-1.1-.2c-.8-.1-1.5-.2-2.3-.4-1.5-.4-3.1-.7-4.5-1.3-1.5-.5-3-1.2-4.4-1.9-.7-.4-1.4-.8-2.1-1.3-.3-.2-.7-.4-1.1-.7l-1-.7c-1.4-.9-2.6-2.1-3.9-3.3-.6-.6-1.2-1.3-1.7-1.9l-.4-.5-.4-.5-.8-1-.8-1-.7-1.1-.7-1.1-.3-.6-.3-.6c-.4-.8-.8-1.6-1.2-2.4-.3-.8-.6-1.7-.9-2.5-1.1-3.4-1.7-7.1-1.8-10.7,0-3.7.6-7.3,1.8-10.7.3-.8.6-1.7.9-2.5.4-.8.8-1.6,1.2-2.4l.3-.6.3-.6.7-1.1.7-1.1.8-1,.8-1,.4-.5.4-.5c.6-.6,1.2-1.3,1.7-1.9,1.3-1.1,2.5-2.3,3.9-3.3l1-.7c.3-.3.7-.4,1.1-.7.7-.4,1.4-.9,2.1-1.3,1.5-.7,2.9-1.5,4.4-1.9,1.5-.6,3-.9,4.5-1.3.8-.2,1.5-.2,2.3-.4l1.1-.2h1.1c.8,0,1.5,0,2.3,0h2.2c1.5,0,2.9.3,4.3.5.7,0,1.4.3,2.1.5s1.4.3,2,.5,1.3.5,1.9.7c.3,0,.6.2.9.3.3,0,.6.3.9.4.6.3,1.2.6,1.8.9.6.3,1.1.7,1.7,1,.5.3,1.1.6,1.6,1s1,.7,1.5,1.1c3.8,2.9,6.7,6.4,8.6,9.7,1.9,3.3,3.1,6.4,3.7,9.1.1.7.4,1.3.4,1.9s.2,1.1.2,1.7.2,1,.2,1.4v3.4-.9Z"/>
              </g>
              <g>
                <path class="cls-1" d="M418.3,123.9h6.4s0-5.4,5.6-5.5c2.9,0,4.4,1.9,5,3.3.7,1.7.5,3.6-.5,5.2-1.1,1.8-3.5,3.4-7.8,2.7v9.4h6.4v-3.4s8.9-2.3,8.9-12.1-8.4-11.6-12-11.6-12.2.7-12,12Z"/>
                <rect class="cls-1" x="427.1" y="141.5" width="6.5" height="6"/>
              </g>
            </g>
            <g>
              <path class="cls-3" d="M398.8,158.9c0,2.9-2.3,5.2-5.2,5.2s-5.2-2.3-5.2-5.2,2.3-5.2,5.2-5.2,5.2,2.3,5.2,5.2Z"/>
              <path class="cls-2" d="M398.8,158.9s0-.5-.2-1.2c-.2-.8-.7-1.9-1.9-2.7-1.1-.9-3-1.3-4.7-.7-.9.3-1.7.9-2.3,1.7-.6.8-1,1.9-1,2.9s.4,2.1,1,2.9c.6.8,1.4,1.4,2.3,1.7,1.8.7,3.6.2,4.7-.7,1.2-.9,1.7-2,1.9-2.7.2-.8.2-1.2.2-1.2v.3c0,.2,0,.5-.1.9-.2.8-.7,2-1.9,2.9-1.2.9-3.1,1.5-5,.8-.9-.3-1.9-1-2.5-1.9-.7-.9-1-2-1.1-3.2,0-1.2.4-2.3,1.1-3.2.6-.9,1.6-1.5,2.5-1.9,1.9-.7,3.9,0,5,.8,1.2.9,1.7,2.1,1.9,2.9,0,.4.1.7.1.9v.7Z"/>
            </g>
          </g>
        </g>
        <g id="Character_1">
          <g>
            <g>
              <path class="cls-2" d="M210.7,407.5c-10.8-27-18.9-45.8-18.9-45.8l-98.7,15s-17.7,45.5-16.2,66.1,8.8,57,8.8,57h119.4s16.4-65.2,5.6-92.3h0Z"/>
              <g>
                <g>
                  <path class="cls-2" d="M175.1,181.9c.8-7.8,1.9-15.6,4.8-22.9,2.9-7.3,7.5-14.1,14.1-18.3l1.7,1.6c1.2-3.4,4.3-5.9,7.8-6.5s7.3,1,9.4,3.8c3.8-1,8.1.5,10.4,3.7s2.4,7.8.2,11.1c3.5.4,6.7,3.2,7.5,6.7s-.6,7.4-3.6,9.4c3.9,3.4,5.5,9.2,3.8,14.1-1.7,4.9-6.6,8.5-11.7,8.7,1.2,4.5-1.2,9.6-5.3,11.7-4.1,2.1-9.7.9-12.6-2.7.4,4.7-3.4,9.1-7.9,10.2-4.5,1.1-9.5-.7-12.8-4s-5.1-7.9-5.8-12.5-.4-9.3,0-14h0Z"/>
                  <g>
                    <g>
                      <path class="cls-1" d="M196.1,147.4c4.5,1.5,5.5,5.1,6.4,8.2,2,6.6-.3,16.4-3.9,22.2-3.7,5.8-7.7,8.8-14.6,9.8-.2-10.5-.4-20.9-.7-31.4l12.8-8.8Z"/>
                      <g>
                        <path class="cls-2" d="M198.7,165.4c3.1-4,2.7-10.3-1-13.9,2-2.5,1.3-6.3-.7-8.8s-5-3.9-7.9-5.2c-1.6-7.3-9.8-12.4-17.1-10.7-3.8-5.6-11.9-6.4-18.3-4.6-1.6.5-3.2,1.1-4.8,1-1.2,0-2.4-.3-3.6-.5-6.6-.9-13.1,3.7-15.7,9.9-.4,1-.7,2-1.4,2.8-.9,1.1-2.1,1.7-3.2,2.6-2.4,1.8-3.9,4.8-4,7.8,0,2.6.7,5.3-.4,7.6-.5,1.2-1.5,2.1-1.9,3.3-1.2,3.5,2.7,7.1,2,10.7,0,.7-.5,1.4-.7,2.2-.4,1.5-.3,3.1.4,4.5.5,1.1,1.4,2.1,1.4,3.3s-.3,1.8-.5,2.7c-.4,2.2,4.2,10.6,6.1,11.7l56.1.5c4.2-.9,7.7-4.7,8.1-9,0-.7,0-1.5.5-2.1.4-.5,1-.7,1.5-1,3.6-1.9,4.1-6.9,3.7-11,0-.6-.1-1.2,0-1.7.2-.8.8-1.4,1.3-2.1h0Z"/>
                        <path class="cls-5" d="M182.6,165.5c.2-9.9-6.1-21.3-15.9-26.2s-11.1-3.1-14.3-3.5c-7.3-.9-13.2,2.8-13.2,2.8-3.1.7-14.4,11.1-15,22.4-.7,12.5-1,27.8.6,37.1,3.2,18.7,17.6,21,17.6,21l-1.3,31.1,27.7,22.7,8.5-37.3,5.5-70.2h-.2Z"/>
                        <path class="cls-9" d="M142.3,219.1s12.7.7,25.1-7c0,0-6.5,13.3-25.3,11.7l.2-4.8h0Z"/>
                        <path class="cls-5" d="M179.8,183.3c0-1.4,1.6-4.7,2.9-4.9,3.7-.6,10.3-.4,10.5,9,.2,12.8-12.3,9.9-12.7,10-2,.4-.7-9.2-.7-14h0Z"/>
                        <path class="cls-9" d="M183.9,192.6s.2.2.6.3c.4.2,1,.3,1.7,0,1.3-.5,2.4-2.7,2.5-5,0-1.2-.2-2.3-.7-3.2-.4-.9-1-1.6-1.7-1.7-.7-.1-1.2.3-1.3.6-.2.4,0,.6-.1.6,0,0-.3-.2-.2-.7,0-.3.2-.6.5-.8.3-.3.8-.4,1.2-.3,1,0,1.9.9,2.4,1.9s.8,2.2.8,3.6c0,2.6-1.3,5-3.2,5.6-.9.2-1.7,0-2-.3-.4-.3-.5-.6-.4-.6h-.1Z"/>
                        <path class="cls-2" d="M121.3,159.1c.4-4.6,2.3-9.1,4.5-13.1,1.6-2.8,3.3-5.6,5.8-7.7,2-1.8,4.5-3,6.9-4.2,6.4-3,13.6-5.6,20.5-4.1,3.7.8,7.1,2.8,10.3,4.8,2.5,1.5,5,3.1,7.1,5.1,1.8,1.8,3.3,3.9,4.6,6.1,3.1,5.3,5.3,11.1,5.7,17.2.4,6.1,5,11.5,1.5,16.4-.3.4-6.6,1.7-7.1,1.9-1,.4-2.2-.7-2.2-1.8s.8-2.1,1.6-2.8c-1.6,0-2.7-1.8-2.6-3.4.1-1.6,1-3,2-4.2.1-.2.2-.3.3-.5,0-.5-.5-.9-1-1.1-2.3-1.3-2.5-5.1-.5-6.7-3.1-.7-5-4.4-3.9-7.3.2-.5.4-1,.2-1.4s-.7-.6-1.2-.7c-3.4-1-5.6-4.8-4.9-8.3-1.8,0-3.6.2-5.3-.2-1.7-.4-3.4-1.4-4.2-3-1.1,2-3.4,3.4-5.7,3.6-2.3,0-4.7-1-6-2.9-3,.3-6-.2-8.8-1.4-.7,2.8-2.9,5.1-5.6,6-.5.2-1.1.3-1.4.8-.2.3-.1.7-.1,1,0,1.8-1.1,2.5-2.1,4s-2.7,3.7-4.4,3.2c.2,3-1.4,5.3-4,6.9v-2.1h0Z"/>
                        <path class="cls-7" d="M118.7,156.7s0-.5.7-1.4c.3-.4.6-.9,1-1.6.3-.6.6-1.4.7-2.4v-3.2c0-1.2-.2-2.4,0-3.8.2-1.3.8-2.8,1.6-4,.4-.6,1-1.3,1.6-1.8.6-.6,1.3-1,2-1.5s1.4-1,1.9-1.7.8-1.6,1.2-2.4c.7-1.7,1.7-3.5,3.1-5,1.3-1.5,3-2.9,4.9-3.9,1-.5,2-.9,3.1-1.2,1.1-.2,2.2-.4,3.4-.4s1.1,0,1.7,0c.6,0,1.1.2,1.7.3,1.1.2,2.3.2,3.4,0,1.1-.2,2.3-.7,3.4-1,1.2-.3,2.4-.5,3.6-.7,1.2,0,2.5,0,3.7,0,1.3,0,2.5.3,3.8.7,2.5.7,4.8,2.1,6.5,4.2.2.2.3.4.5.6h-.2c3.9-1,7.9,0,11,2.1,3.1,2,5.5,5.2,6.2,8.7h-.1c1.6.6,3.1,1.3,4.5,2.2,1.4.9,2.7,1.9,3.7,3.2,1,1.3,1.6,2.8,1.7,4.4.1,1.6-.2,3.2-1.2,4.3v-.2c1.8,1.8,2.8,4.2,3,6.5s-.2,4.6-1.3,6.4c-.2.5-.6.9-.8,1.3-.3.4-.6.8-.9,1.1-.2.4-.4.8-.4,1.3v1.3c.1,1.8.1,3.4,0,4.9-.2,1.5-.6,2.7-1.2,3.7-.6,1-1.3,1.7-2,2.1-.7.4-1.2.6-1.6.9-.3.2-.5.4-.5.4,0,0,.1-.2.4-.4.3-.3.9-.4,1.5-.9.6-.4,1.3-1.1,1.9-2.1.6-1,1-2.2,1.2-3.7.2-1.4.2-3.1,0-4.8v-1.4c0-.5.2-1,.5-1.4s.6-.8.9-1.2c.3-.4.6-.8.8-1.2,1-1.8,1.4-4,1.2-6.2s-1.1-4.6-2.9-6.3h-.1v-.2c.9-1.1,1.2-2.6,1.1-4.1-.1-1.5-.7-3-1.6-4.2-.9-1.3-2.2-2.3-3.6-3.1-1.4-.9-2.9-1.6-4.5-2.3h0c-.7-3.5-3-6.6-6.1-8.6s-7-3-10.7-2.1h-.1c-.2-.2-.3-.4-.5-.6-1.6-2-3.9-3.4-6.3-4.1-1.2-.3-2.4-.6-3.7-.6h-3.7c-1.2,0-2.4.3-3.6.7-1.2.3-2.3.7-3.5,1-.6,0-1.2.2-1.8.2s-1.2,0-1.8-.2c-.6,0-1.1-.2-1.7-.3-.6,0-1.1,0-1.7,0-1.1,0-2.2.2-3.3.4-1,.3-2.1.6-3,1.2-1.9.9-3.5,2.3-4.8,3.8s-2.3,3.2-3,4.9c-.3.9-.7,1.7-1.2,2.5-.6.7-1.3,1.3-2,1.7-.7.5-1.4.9-2,1.5-.6.5-1.1,1.1-1.5,1.8-.9,1.3-1.4,2.6-1.6,3.9-.3,1.3-.2,2.6,0,3.7,0,1.2.2,2.2,0,3.2,0,1-.4,1.8-.7,2.4-.4.6-.8,1.1-1,1.6-.3.4-.5.8-.6,1l-.2.4v-.3Z"/>
                        <path class="cls-7" d="M165.9,124s-.3-.2-1-.5c-.6-.3-1.6-.7-2.8-.8-1.2,0-2.7,0-4.2.6-1.5.7-2.9,1.9-3.8,3.5-.3.5-.5,1-.6,1.5s-.2,1,.1,1.3l.3.4h-.5c-1.4-.5-2.9-.2-4,.4s-1.8,1.5-2.2,2.4c-.4.8-.5,1.6-.5,2.1v.8-.8c0-.5,0-1.3.4-2.2.4-.9,1.1-1.9,2.2-2.6,1.1-.7,2.7-1,4.2-.6l-.2.3c-.4-.5-.3-1.1-.2-1.7.2-.5.4-1,.7-1.5,1-1.7,2.4-3,4-3.6,1.6-.7,3.1-.8,4.4-.6,1.3.2,2.2.6,2.8.9.3.2.5.3.7.4.1,0,.2.2.2.2h0Z"/>
                        <path class="cls-7" d="M186.8,138.5s-.1.2-.4.5c-.3.3-.8.7-1.4,1-.7.4-1.5.7-2.5.8-1,0-2.2-.2-3.2-.9h.3c-.1,0-.2.3-.4.5-.1.2-.3.3-.4.5-.9,1-2.1,1.7-3.2,2-1.1.4-2.2.5-3,.4-.9,0-1.6-.3-2-.4-.4-.2-.7-.3-.7-.4,0,0,1,.5,2.7.5s1.9,0,2.9-.5c1.1-.4,2.1-1,3-1.9.1-.2.3-.3.4-.5.1-.2.2-.3.4-.5v-.2c.1,0,.3,0,.3,0,.9.7,2,.9,2.9.9s1.8-.4,2.4-.7c1.3-.7,2-1.3,2-1.3h-.1Z"/>
                        <path class="cls-7" d="M193.7,150.3v.2c0,0-.1.4-.3.6-.3.5-1,1.1-2.1,1.4s-2.4,0-3.7-.4c-.7-.2-1.3-.5-2-.8s-1.4-.8-1.8-1.6v-.2h.3c-1.2,1.1-2.5,1.9-3.8,2.4s-2.6.6-3.6.4-1.8-.6-2.2-1c-.2-.2-.4-.3-.5-.5v-.2c-.1,0,0,.2.6.5.4.3,1.2.7,2.2.8,1,.2,2.2,0,3.4-.5s2.5-1.3,3.7-2.3l.2-.2v.3c.1,0,.1,0,.2.2.3.7.9,1.1,1.6,1.4.7.3,1.3.6,2,.8,1.3.5,2.5.7,3.5.4,1-.2,1.7-.8,2-1.2.3-.5.4-.8.4-.8v.3Z"/>
                      </g>
                    </g>
                    <path class="cls-2" d="M152.4,176.3c0,1.2.9,2.3,2.2,2.5,1.3.1,2.4-.8,2.5-2.1,0-1.2-.9-2.3-2.2-2.5-1.3-.1-2.4.8-2.5,2.1Z"/>
                    <path class="cls-2" d="M129.4,175.7c0,1.2.9,2.3,2.2,2.5,1.3.1,2.4-.8,2.5-2.1,0-1.2-.9-2.4-2.2-2.5s-2.4.8-2.5,2.1Z"/>
                    <path class="cls-2" d="M128.5,167.8c.3.3,2.1-1,4.7-.9,2.5,0,4.4,1.4,4.7,1.1.1-.1-.1-.7-.9-1.3-.8-.6-2.1-1.2-3.7-1.3-1.6,0-2.9.5-3.7,1.1s-1.1,1.1-.9,1.3h-.2Z"/>
                    <path class="cls-2" d="M153.8,169.1c.3.3,2-1.2,4.6-1.3,2.5-.2,4.5,1,4.7.6.1-.1-.2-.7-1.1-1.2-.8-.5-2.2-1-3.8-.9s-2.9.8-3.6,1.4c-.7.7-1,1.2-.8,1.4h0Z"/>
                    <path class="cls-2" d="M144.3,188.2c0-.1-1.6-.5-4.1-.9-.6,0-1.3-.2-1.4-.7-.1-.5.2-1.2.5-1.9.7-1.6,1.4-3.2,2.1-4.9,2.9-7,5-12.7,4.7-12.8s-2.9,5.4-5.8,12.4c-.7,1.7-1.4,3.4-2,4.9-.3.7-.7,1.6-.4,2.5.2.5.6.9,1,1s.8.2,1.1.2c2.6.2,4.2.3,4.2.1h0Z"/>
                    <path class="cls-9" d="M148.3,192c1,.1,1.9.6,2.5,1.4.6.8,1,2.7.4,3.4-.5.6-2.6.6-4,.4-.7,0-1.2-.5-1.5-1.2l-.6-1.6c-.3-.9.2-2,1.1-2.3.6-.2,1.4-.2,2.1-.1h0Z"/>
                    <path class="cls-2" d="M152.7,159.8c.4.6,2.8-.2,5.8-.4,3-.3,5.5.1,5.8-.6.1-.3-.4-.9-1.5-1.4s-2.7-.8-4.5-.7-3.4.7-4.3,1.4c-1,.6-1.4,1.3-1.3,1.6h0Z"/>
                    <path class="cls-2" d="M129.1,163.7c.5.6,2.5,0,5-.2,2.4-.2,4.5.3,5-.4.2-.3-.1-.9-1.1-1.4-.9-.5-2.4-.9-4.1-.8-1.7,0-3.1.7-4,1.3-.8.6-1.1,1.2-.9,1.5h.1Z"/>
                  </g>
                </g>
                <g>
                  <path class="cls-7" d="M216.9,269.4l-24,87.1,8.4,25c-31.7,14-77.6,18.4-113.7.9,0,0,12.3-36,12.7-43s-2.6-48,.7-61.7c3.3-13.7,12.9-43.2,12.9-43.2l28.1-4.5c12.9,6.9,21.2,8,35,0l26.2,5.7,13.6,33.7h.1Z"/>
                  <path class="cls-7" d="M114.3,234.4s-15.1,1.6-21.2,14c-6,12.3-22.7,66.6-23.6,75.7s6.5,21.3,12.9,23l19.5-19.4,16.2,1.4,21.3-99.2-25,4.5h0Z"/>
                  <g class="cls-4">
                    <path d="M102.9,267.8c-4.7,12.2-6,25.7-3.8,38.5-3.5-1.3-7.1-2.6-10.6-4,2.9,4,6.7,7.3,11.1,9.7-2.9-.8-5.8-1.7-8.8-1.5s-6.1,1.6-7.4,4.3c3.5-.6,7-1.3,10.5-.9s7.1,2,8.9,5c-2.6-11.3-3.6-23-3-34.6"/>
                  </g>
                </g>
                <g>
                  <g class="cls-4">
                    <path d="M98.5,342.5l79.3,7.9c-5.7-.1-10.1,4.7-15.1,7.6-9.2,5.3-20.6,3.8-31,2.2-8.7-1.4-17.3-2.7-26-4.1-2.2-.3-4.5-.8-6.1-2.3-2.9-2.7-2.1-7.4-1.1-11.2h0Z"/>
                  </g>
                  <path class="cls-5" d="M159.1,336l13.3-12.8c1.3-1.2,3.1-1.9,4.8-1.7,3.8.4,10.2,1,11.5,1.5,1.9.7,3.7,1.8,4.2,2.7.5.9,2.3,6.6,2.4,7.5,0,.4,0,1.6-.2,2.7-.2,1.3-1.6,2.1-2.8,1.4-.5-.3-1-.7-1.3-1.2-.8-1.6-.7-2.2-.7-2.2,0,0,.4,5.7-4.2,5.8,0,0,2.1,4.9-3.8,6.9,0,0,.2,3.2-4.8,3.6s-9.5,0-9.5,0c0,0-9.1,6.6-15.6,7-6.4.4-20.8-2.4-20.8-2.4l-1.7-26.5,29.2,7.7h0Z"/>
                  <path class="cls-9" d="M177,327.9s.8.4,2.1.9,3.2,1.2,5.3,1.7c1,.3,2.1.5,3,.7s1.4.9,1.8,1.5c.4.6.7,1.1,1,1.4s.4.4.5.4c0,0-.1-.2-.3-.5s-.5-.8-.9-1.4c-.2-.3-.4-.6-.7-.9s-.7-.6-1.2-.7c-.9-.3-1.9-.4-3-.7-2.1-.6-3.9-1.2-5.3-1.6-1.3-.4-2.2-.7-2.2-.7h-.1Z"/>
                  <path class="cls-9" d="M175.3,336s.5.3,1.5.7c.9.4,2.2.9,3.7,1.3,1.5.5,2.8.9,3.8,1.1,1,.3,1.6.4,1.6.3,0,0-.6-.3-1.5-.6-1.1-.4-2.3-.8-3.7-1.2-1.4-.5-2.6-.9-3.7-1.2-1-.3-1.5-.5-1.6-.4h-.1Z"/>
                  <path class="cls-9" d="M172.1,343.6c0,.1,2.3.3,5.1,1.1,2.8.7,4.9,1.7,4.9,1.6,0,0-.5-.3-1.4-.7-.9-.4-2.1-.8-3.5-1.2-1.4-.4-2.7-.6-3.6-.7-.9-.1-1.5-.1-1.5,0h0Z"/>
                  <path class="cls-7" d="M141.3,356.5l-58.9-9.4s7.1-29.5,17.4-29.5,53.8,17,53.8,17l-12.3,21.9Z"/>
                  <path class="cls-9" d="M151.6,343.7s.6-.5,1.4-1.3,2-2,3.2-3.2,2.4-2.4,3.1-3.2c.8-.9,1.2-1.4,1.2-1.4,0,0-.6.5-1.4,1.3s-2,2-3.2,3.2-2.4,2.4-3.1,3.2c-.8.9-1.2,1.4-1.2,1.4Z"/>
                </g>
                <path class="cls-2" d="M153.6,334.6s-.3,0-.7-.1c-.6-.2-1.3-.3-2.1-.6-1.9-.6-4.5-1.3-7.7-2.2-6.5-1.9-15.4-4.6-25.2-7.6-5.4-1.7-10.6-3.3-15.2-4.7h0v-.2c-1.8-2.4-4.5-3.9-6.9-4.6s-4.7-.8-6.6-.7c-1.9.2-3.3.6-4.2.8-1,.3-1.5.5-1.5.5,0,0,.4-.3,1.4-.7.9-.4,2.4-.9,4.3-1.1s4.2-.2,6.8.5c2.5.7,5.3,2.2,7.3,4.8l-.2-.2c4.6,1.4,9.8,3,15.2,4.6,9.8,3,18.7,5.8,25.2,7.8,3.1,1,5.7,1.8,7.6,2.5.8.3,1.5.5,2.1.7.5.2.7.3.7.3l-.2.2Z"/>
              </g>
              <g>
                <g>
                  <path class="cls-5" d="M138,240.1c.5-1.6,3.3-16.8,4.4-20.3,1.6-5,14.5-13.8,14.5-13.8,0,0-2-4.7-7.5-2.2-6.5,2.9-9.7,7.7-11.4,6.7s-11.9-11.4-14.6-11.1c-2.8.3-3.4,3.2-2.4,4.3s2.1,3,2.1,3c0,0-5.9-1.8-4.8,4.7,0,0-6.7-4.2-6.1,4.7,0,0-4.4-1.8-5.4,1.3s1.9,6.7,3.4,9.2,6.3,16.7,6.3,16.7v12.6l23.5-4.8-2-10.9h0Z"/>
                  <path class="cls-9" d="M138,240.1s0,.2.2.7c.1.5.3,1.2.4,2.1.4,1.9.9,4.6,1.6,8.1v.2h-.2c-5.8,1.2-13.8,2.9-23.5,5h-.4v-12.9h0c-1.7-4.7-3.4-9.9-5.6-15.2-1.1-2.5-3.3-4.7-4.1-7.8-.2-.8-.3-1.6-.2-2.4,0-.8.5-1.7,1.3-2.2s1.7-.6,2.5-.6,1.6.2,2.4.5l-.6.4v-2.6c.2-.9.4-1.9,1.1-2.6.7-.8,1.9-.9,2.8-.8,1,.2,1.8.5,2.7,1l-.6.4c-.2-1.2-.4-2.6.4-3.9.5-.8,1.4-1.3,2.3-1.4.9-.1,1.7,0,2.6.2l-.5.6c-.6-1-1.2-2-1.9-2.8-.5-.5-.7-1.2-.7-1.9s.3-1.3.6-1.8c.4-.5.9-.9,1.5-1.2.3-.1.6-.2.9-.2h1c1.2.4,2.1,1.1,3.1,1.7,3.7,2.7,6.8,5.7,10,8.5.4.3.8.7,1.1.8.3,0,.8-.1,1.2-.4.8-.5,1.6-1.2,2.4-1.8,1.6-1.3,3.3-2.5,5-3.4s3.5-1.9,5.6-1.8c2.1,0,3.8,1.4,4.6,3.1v.3c.1,0-.1.2-.1.2-5,3.6-9.5,7.1-12.7,10.9-.8,1-1.4,2-1.8,3-.3,1.1-.6,2.2-.8,3.2-.5,2.1-.9,4-1.3,5.8-.7,3.4-1.3,6.2-1.7,8.1-.2.9-.4,1.6-.5,2.1s-.2.7-.2.7c0,0,0-.2.1-.7s.2-1.2.4-2.1c.4-1.9.9-4.7,1.5-8.1.4-1.8.8-3.7,1.2-5.8.2-1.1.5-2.2.8-3.3.4-1.2,1-2.2,1.8-3.2,3.2-3.9,7.7-7.5,12.8-11.1v.4c-.8-1.5-2.4-2.7-4.2-2.7s-3.5.9-5.2,1.8c-1.7,1-3.3,2.1-4.9,3.4-.8.6-1.6,1.3-2.5,1.9-.5.3-1,.6-1.8.5-.7-.3-1-.7-1.4-1-3.2-2.8-6.3-5.8-9.9-8.4-.9-.6-1.8-1.3-2.8-1.6h-.7c-.3,0-.5.1-.7.2-.5.2-.9.5-1.2.9-.6.8-.7,2,0,2.7.8.9,1.4,1.9,2,2.9l.5.9-1-.3c-1.4-.4-3.2-.3-3.9.9-.6.9-.5,2.2-.3,3.3v.9c0,0-.6-.5-.6-.5-.7-.4-1.6-.8-2.4-.9-.8-.1-1.6,0-2.1.5-1,1.1-1,3-.9,4.6v.6l-.6-.2c-1.3-.5-3-.8-4.1,0-.5.3-.8,1-.9,1.6,0,.7,0,1.4,0,2.1.4,1.4,1.1,2.7,1.8,3.9.7,1.2,1.7,2.4,2.2,3.8,2.2,5.3,3.9,10.5,5.6,15.4h0v12.7l-.4-.3c9.7-1.9,17.7-3.5,23.5-4.7l-.2.2c-.6-3.5-1.1-6.2-1.4-8.1-.1-.9-.3-1.6-.3-2.1v-.7l.2-.2Z"/>
                </g>
                <path class="cls-9" d="M123.1,207s1.3,1.2,2.9,2.7c1.6,1.4,2.8,2.7,2.9,2.6,0,0-1.1-1.4-2.7-2.8-1.6-1.5-3-2.5-3.1-2.4h0Z"/>
                <path class="cls-9" d="M117.8,211.1s.4,1.3,1.4,2.6,2.1,2.1,2.2,2.1c0,0-.9-1-1.9-2.3s-1.6-2.5-1.7-2.4h0Z"/>
                <path class="cls-9" d="M112.3,215.8s.5,1,1.2,2c.8,1.1,1.4,1.9,1.5,1.8,0,0-.5-1-1.2-2-.8-1.1-1.4-1.9-1.5-1.8Z"/>
              </g>
              <path class="cls-7" d="M203.3,235.6l-25.3,25.2-25.9,32.6-10.3-43.4-26.3,5.4s1.9,49,10,71.2c1.5,4.2,6.1,7.4,8.1,8.3,12.7,6,25.2-3.3,25.2-3.3,0,0,53.1-35.6,58.9-59.5,2.7-11.3,1.6-24.7-3-30.2-4.1-4.9-11.3-6.3-11.3-6.3h0Z"/>
              <path class="cls-2" d="M217.6,272.2s0,.3-.2.8-.3,1.3-.7,2.2c-.7,2-2,4.7-4.2,8-2.1,3.3-5.1,7.1-8.8,11.2-3.8,4.1-8.3,8.5-13.5,13.2s-11.2,9.5-17.7,14.5c-3.3,2.5-6.7,5-10.3,7.5-.9.6-1.8,1.3-2.7,1.9s-1.8,1.3-2.8,1.8c-2,1.1-4.1,2.1-6.3,2.8-4.4,1.4-9.4,1.7-14.1.3-.6-.1-1.1-.4-1.7-.6-.6-.2-1.2-.4-1.7-.8-1.1-.6-2.1-1.3-3.1-2.1-1.9-1.6-3.6-3.6-4.6-6-1.7-4.8-2.9-9.8-4-14.8-1-5.1-1.9-10.3-2.5-15.6-1.9-14.1-2.9-27.9-3.5-40.9v-.2h.2c9.2-1.9,18-3.7,26.3-5.4h.2v.2c3.9,16.5,7.4,31.2,10.3,43.4h-.3c8.9-9.6,16-17.3,21-22.6,2.5-2.6,4.4-4.7,5.7-6.1.6-.7,1.1-1.2,1.5-1.6l.5-.5s-.2.2-.5.6c-.3.4-.8.9-1.4,1.6-1.3,1.4-3.2,3.5-5.6,6.1-4.9,5.3-12,13-20.8,22.7l-.2.2v-.3c-3-12.2-6.5-26.9-10.4-43.4l.3.2c-8.3,1.7-17.1,3.5-26.3,5.4l.2-.3c.6,13,1.7,26.8,3.5,40.9.7,5.3,1.6,10.5,2.5,15.6,1.1,5.1,2.3,10,3.9,14.8.9,2.3,2.6,4.2,4.4,5.8.9.8,1.9,1.5,3,2.1.5.3,1.1.5,1.6.7.6.2,1.1.5,1.7.6,4.6,1.4,9.5,1.2,13.8-.2,2.2-.7,4.3-1.6,6.2-2.7,1-.6,1.9-1.2,2.8-1.8.9-.6,1.8-1.3,2.7-1.9,3.6-2.5,7-5,10.3-7.5,6.5-5,12.5-9.8,17.7-14.4s9.8-9,13.5-13.1c3.8-4.1,6.7-7.8,8.9-11.1,2.1-3.3,3.5-6,4.2-7.9.4-.9.6-1.7.8-2.2s.3-.8.3-.8v-.3Z"/>
              <path class="cls-2" d="M156.9,313.3s.2-1.3.4-3.3c.1-1,0-2.3,0-3.6-.1-1.4-.3-2.8-.7-4.4-.8-3-2.1-5.6-3.1-7.4-1.1-1.8-1.9-2.8-1.8-2.8,0,0,.2.2.6.7.4.4.9,1.1,1.5,2,1.2,1.7,2.5,4.3,3.3,7.4.4,1.6.6,3.1.7,4.5,0,1.4,0,2.6-.1,3.7-.1,1-.3,1.9-.5,2.4-.2.6-.3.9-.3.9h0Z"/>
              <path class="cls-2" d="M153.3,195.3c0,.1-.6,0-1.4,0-.8-.2-1.9-.4-3.2-.5-1.2-.1-2.4,0-3.1.2-.8.2-1.1.5-1.2.4v-.4c.2-.2.5-.5.9-.7.8-.4,2.1-.7,3.5-.5,1.4.1,2.5.5,3.3.9s1.2.7,1.2.8v-.2Z"/>
            </g>
            <g class="cls-4">
              <path d="M193.4,356s-11.6-1.4-17.8-2.4c-3.4-.5-8.6-1.1-9.6-2-1.2-1.2-1.2-3.1-1.3-4.8-2.2-28.8,7.7-60.1,38.4-78.7l7.8,2.1-.5,18.8-17,67.1h0Z"/>
            </g>
          </g>
        </g>
        <g id="Character_2">
          <g>
            <g>
              <g>
                <path class="cls-2" d="M374.1,131.1c3.9.4,7.9-2.6,8.6-6.5s-1.8-8.1-5.6-9.2c2.4-2.6,2.9-6.7,1.2-9.7s-5.4-4.8-8.8-4.2c-.2-3.4-2.4-6.7-5.4-8.2-3.1-1.6-6.9-1.4-9.9.4-3.9-3.2-10-3.1-13.9,0-3.4-.5-7,1.3-8.4,4.4-1.5,3.1-.8,7,1.7,9.4"/>
                <g>
                  <g>
                    <path class="cls-5" d="M338.9,101.7h1.8c17.8-.5,32.9,12.8,34.7,30.5,1.7,16.4,3.4,34.6,3.5,43.5.2,18.3-18,21.6-18,21.6l2.1,21.9-44.4-.3-5.8-79.6c-2.1-19,7.2-36,26.2-37.5h-.1Z"/>
                    <path class="cls-9" d="M360.8,197.3s-12.8.9-25.2-6.5c0,0,7.4,13.3,25.7,11.3l-.4-4.8h-.1Z"/>
                    <path class="cls-2" d="M369.7,152.1c0,1.4-1,2.6-2.5,2.7-1.4,0-2.7-.9-2.7-2.3s1-2.6,2.5-2.7c1.4,0,2.7.9,2.8,2.3h0Z"/>
                    <path class="cls-2" d="M371.6,141.3c-.3.3-2.3-1.1-5.1-1-2.8,0-4.8,1.5-5.2,1.2-.2,0,.2-.8,1-1.4.9-.7,2.4-1.3,4.1-1.4,1.8,0,3.2.6,4.1,1.2s1.2,1.3,1,1.4h.1Z"/>
                    <path class="cls-2" d="M345.5,152.1c0,1.4-1,2.6-2.5,2.7-1.4,0-2.7-.9-2.7-2.3s1-2.6,2.5-2.7c1.4,0,2.7.9,2.8,2.3h0Z"/>
                    <path class="cls-2" d="M344,142.5c-.3.3-2.3-1.1-5.1-1-2.8,0-4.8,1.5-5.2,1.2-.2,0,.2-.8,1-1.4.9-.7,2.4-1.3,4.1-1.4,1.8,0,3.2.6,4.1,1.2s1.2,1.3,1,1.4h.1Z"/>
                    <path class="cls-2" d="M354.7,163.1c0-.2,1.7-.5,4.5-.9.7,0,1.4-.2,1.5-.7.2-.5-.2-1.3-.5-2.1-.7-1.7-1.5-3.5-2.2-5.4-3.1-7.7-5.4-14.1-5.1-14.2s3.1,6,6.2,13.7c.8,1.9,1.5,3.7,2.2,5.5.3.8.8,1.7.4,2.8-.2.5-.7.9-1.2,1.1-.5.2-.9.2-1.2.2-2.8.2-4.6.3-4.6.1h0Z"/>
                    <path class="cls-2" d="M344.6,136.6c-.4.7-2.8,0-5.8,0s-5.5.5-5.7-.2c-.1-.3.4-1,1.4-1.6s2.6-1.1,4.4-1c1.8,0,3.3.6,4.3,1.2s1.5,1.3,1.3,1.7h.1Z"/>
                    <path class="cls-2" d="M371.5,129.7c-.6.7-2.9,0-5.7,0s-5.1.5-5.7,0c-.2-.3.1-1,1.1-1.6s2.7-1.2,4.6-1.2,3.6.5,4.6,1.2c1,.6,1.3,1.3,1.1,1.6h0Z"/>
                    <path class="cls-2" d="M373.4,123.9s-5.1-11.3-10.7-13.9c-6.8-3.1-9.5,4.3-15.9,2.7-6.4-1.6-12.9-4.6-19.3.5-7,5.6-3.6,9.3-3.8,17.4-1,33-6.8,42.4-8.9,26.9-.2-1.7-5-2.9-5.8-10.1-1.1-9.3-1.7-20.6.2-27.2,1.6-5.6,4.7-9.5,10.3-13.9,8.8-6.9,21.2-7.3,29.6-6.7,8.4.6,24.8,9.9,24.4,24.3h-.1Z"/>
                    <path class="cls-5" d="M316,157c-.2-2.8-2.7-5-5.5-4.7-3.4.4-7.2,2.4-6.8,9.5.7,12.5,13.1,9.2,13.1,8.9s-.5-8.5-.9-13.7h0Z"/>
                    <path class="cls-9" d="M313.9,166.1s-.2.2-.6.4c-.3.2-1,.3-1.6.1-1.3-.4-2.6-2.4-2.8-4.7,0-1.1,0-2.2.4-3.2.3-.9.9-1.6,1.5-1.8.7-.2,1.1.2,1.3.5.2.3.1.6.2.6,0,0,.3-.2.1-.7,0-.2-.2-.5-.5-.8-.3-.2-.8-.3-1.2-.3-1,.1-1.8,1.1-2.2,2.1-.4,1-.7,2.2-.6,3.5.2,2.5,1.6,4.8,3.5,5.2.9.2,1.6-.1,2-.4.4-.3.4-.6.4-.6h.1Z"/>
                  </g>
                  <path class="cls-2" d="M315.7,132.8c1.6,1.1,3.4,2.2,5.4,2.3,2,0,4.2-1,4.5-3,.1-.9-.1-1.9.4-2.6.7-.8,1.9-.6,3-.5,3.6.3,7.8-3.8,8.6-7.4,1,1.4,3,1.7,4.4.8,1.4-.9,1.9-1.5,3-2.8s2.6-2.4,4.2-2.2c.9,0,1.8.6,2.7.5,1.6-.2,2.4-2.1,2.6-3.8.2-1.6.4-3.5,1.7-4.5,1.3-.9,3-.4,4.5-.2,1.5.2,3.5-.2,3.8-1.7.2-.8-.2-1.6-.6-2.3-2-3-6.3-4.3-9.6-2.8-1.3-4.1-5.3-7.2-9.6-7.6-4.3-.4-8.7,2.1-10.7,5.9-2.7-2.3-6.6-3.3-10-2.4s-6.4,3.5-7.7,6.9c-3.1-.7-6.5.5-8.4,3.1-1.9,2.5-2.1,6.2-.5,8.9-2.2,1.3-4.1,3.6-4.1,6.2s2.6,5.1,5.1,4.4c-1,2,0,4.8,1.9,5.8,2,1.1,4.7.4,5.9-1.6"/>
                  <path class="cls-7" d="M355.3,106.4v.9c-.1.6-.3,1.4-.9,2.4-.5,1-1.4,2.1-2.7,3-1.3.9-3.1,1.6-5.1,1.6l.2-.3c.4,1.1.3,2.3-.2,3.5-.5,1.1-1.2,2.1-2.1,3.1-.4.5-.8,1-1.4,1.5-.6.4-1.3.7-2,.8-1.4.2-3-.2-4.1-1.3h.5c-.3,2.4-1.6,4.9-3.8,6.4-1.2.9-2.6,1.4-4.1,1.4s-2.8-.4-4.1-.8l.3-.2c-.6,1.6-1.6,2.9-2.9,3.9-1.2,1-2.8,1.6-4.3,1.3-3-.6-5-3-5.4-5.3h.3c-1.4,1-3,1.1-4.3.9s-2.3-.7-3-1.3c-.7-.5-1.2-1.1-1.4-1.5-.2-.4-.3-.6-.3-.6,0,0,.4.9,1.9,2,.7.5,1.7,1,3,1.1,1.2.2,2.7,0,4-.8h.2c0,0,0,0,0,0,.4,2.1,2.4,4.4,5.1,4.9,1.4.3,2.8-.3,3.9-1.2,1.2-1,2.1-2.3,2.7-3.7v-.2h.3c1.2.4,2.6.8,3.9.8s2.6-.5,3.8-1.3c2.1-1.5,3.4-3.8,3.6-6.2v-.6l.5.4c.9,1,2.3,1.4,3.6,1.2.6,0,1.2-.3,1.7-.7.5-.3.9-.9,1.3-1.4.8-1,1.6-1.9,2-3,.5-1,.6-2.2.2-3.1v-.3c-.1,0,.2,0,.2,0,1.9,0,3.6-.6,4.9-1.4,1.3-.9,2.1-1.9,2.7-2.9,1.1-1.9,1-3.2,1.1-3.2h.2Z"/>
                </g>
              </g>
              <path class="cls-5" d="M265.3,217.3s-47,16.6-60.6,23.4c-10.6,5.3-17.4,24.7-1,32.8,12.2,6,78.2-5.5,78.2-5.5l-16.6-50.7Z"/>
              <g>
                <path class="cls-2" d="M408.8,381.9l-119.5-4.5-4.3,40.7-4.8,81.6,61,.3c0-.3,7.6-45.9,7.6-45.9l3.4-.9-.3,46.8h57.2c3-38.7,4.7-71.2,4.8-74.3.8-24.2-5.1-43.7-5.1-43.7h0Z"/>
                <path class="cls-7" d="M344.5,428.7s.6.4,1.8.9c1.2.5,3,1.3,5.3,1.6,1.2.2,2.5.2,3.9-.1,1.4-.3,2.8-1,4-2.1,1.2-1.2,1.9-2.8,2.3-4.4.4-1.7.6-3.4.9-5.2,1.1-7.1,1.7-13.5,2-18.1.2-2.3.3-4.2.3-5.5v-2s-.2.7-.3,2c-.2,1.5-.4,3.3-.6,5.5-.5,4.6-1.2,11-2.3,18.1-.5,3.5-.9,7-2.9,9.2-2.1,2.1-5.1,2.4-7.3,2.2-2.3-.2-4.1-.9-5.3-1.3-1.2-.4-1.9-.7-1.9-.6v-.2Z"/>
                <path class="cls-7" d="M355.9,395.3s-.3-.2-.9-.2-1.5.2-2.3.9c-.8.7-1.7,1.8-1.6,3.4,0,1.6,1.3,3,2.9,3.5s3.5.1,4.4-1.1.9-2.7.7-3.7c-.3-1-.9-1.7-1.4-2.1-.5-.3-.8-.4-.8-.3-.1.1,1.2.7,1.6,2.6.2.9,0,2.1-.7,3s-2.2,1.2-3.5.8c-1.3-.4-2.3-1.5-2.3-2.7s.6-2.2,1.2-2.8c1.4-1.3,2.8-1,2.8-1.1v-.2Z"/>
                <path class="cls-7" d="M289.3,415.6s.5.1,1.5.2c.9,0,2.3,0,4-.1,3.4-.3,8-1.3,12.7-3.5s8.4-5.1,10.8-7.6c1.2-1.2,2.1-2.2,2.6-3,.6-.8.8-1.2.8-1.2-.1-.1-1.4,1.5-3.9,3.8-2.4,2.3-6.1,5-10.7,7.2s-9.1,3.2-12.4,3.7-5.4.4-5.4.6h0Z"/>
              </g>
              <g>
                <path class="cls-7" d="M411.2,375.3c-2.3-5.3-1.9-5.8-1.9-5.8l-6.6-58.1-6.4-56.5-5.2-41.9-29.9-6.4s-3.4,9.5-17.9,9.8c-16.6.3-26.2-14.6-26.2-14.6l-47.8,10.3,18,123.3,2.2,33.2s-3.6,5.4-3.6,11.1-.2,9.6-.2,9.6c44.4,12.2,88.4,22.7,128.9,10.9,0,0-1-19.6-3.4-24.9h0Z"/>
                <path class="cls-7" d="M380.2,210.7s17.2,1.9,23.3,8.4,25.6,38.6,25.6,38.6l-28.4,38.8-13.1-17.9-7.5-67.9h.1Z"/>
                <path class="cls-2" d="M393.4,230.8c.2,0,3,21.3,6.1,47.7,3.1,26.3,5.4,47.7,5.2,47.7s-3-21.3-6.1-47.7c-3.1-26.3-5.4-47.7-5.2-47.7h0Z"/>
              </g>
              <polygon class="cls-7" points="269.4 212 231.1 229 245 267.8 281.8 273.6 269.4 212"/>
              <path class="cls-2" d="M274.6,237.7c.3,0,2.1,15.1,4.1,33.8s3.4,33.8,3.2,33.9c-.3,0-2.1-15.1-4.1-33.8s-3.4-33.8-3.2-33.8h0Z"/>
              <g class="cls-4">
                <path d="M284.1,434.1c20.8-7.5,32.3-22.2,41.6-37.8,9.3-15.6,10.6-37.6,4.7-54.8,0,0-42.9,41.5-43.2,42.4-.3.9-3,50.1-3,50.1h-.1Z"/>
              </g>
              <g class="cls-4">
                <path d="M342.5,215.8c-.5,4.2,1.8,8.3,4.7,11.4,2.9,3.1,6.4,5.7,9,9,3,3.8,4.7,8.4,6.4,13l10.5,28.5c3,8.2,6.1,16.4,10.8,23.7s11.5,13.6,19.8,16.3l-6.3-53.5-33.3-53.5-21.7,5.1h.1Z"/>
              </g>
              <g>
                <g>
                  <path class="cls-5" d="M377,216.3c0-.7.5-25.5-1.1-28.2-1.7-2.7-3-5.2-3.3-7.7,0,0,.9-1.5-.7-2.4-1.7-.9-4.3,1.3-4.3,5.3s.4,10.8.4,10.8c0,0-18.3-10.4-23.3-10.7s-12.5-1.2-12.9,1.2,0,3,2.6,3.9,6.8,1.6,10.9,2.9c4.1,1.4,6,2.3,6,2.3,0,0-9.3-2.8-11.4,0s-1.8,5.2-.5,6.6c0,0-2.8,1.2-2.5,4.2.3,3.1,1.7,3.8,1.7,3.8,0,0-2.7,2.1-1.4,4.7s4.4,1,7.3,4,10.1,10,12.9,11.6,9.2,2.2,9.2,2.2l10.7-14.6h-.3Z"/>
                  <path class="cls-9" d="M377,216.3l-.2.3c-.1.2-.3.4-.5.7-.5.7-1.2,1.6-2,2.9-1.8,2.5-4.5,6.2-7.8,10.8h0c-1.3-.1-2.6-.3-3.9-.6-1.4-.3-2.8-.6-4.2-1.1-.7-.3-1.4-.7-2-1.1-.6-.4-1.3-.9-1.9-1.5-1.2-1-2.5-2.1-3.8-3.3s-2.5-2.4-3.8-3.7c-.6-.6-1.3-1.3-2-1.9-.7-.7-1.3-1.3-2.1-1.8-.8-.5-1.7-.7-2.7-.9-.9-.2-2-.4-2.7-1.3-.7-.8-1-2-.7-3,.3-1.1.9-1.9,1.8-2.6v.4c-.7-.5-1-1.2-1.3-2s-.4-1.5-.4-2.4.2-1.7.7-2.4,1.2-1.3,2-1.6v.4c-1.2-1.2-1.4-3-.9-4.5.3-.8.6-1.5,1.1-2.1.2-.3.6-.7.9-.9.4-.2.8-.3,1.2-.4,1.6-.3,3.3-.2,4.9,0s3.2.6,4.8,1l-.2.4c-2.4-1.1-5-2-7.6-2.8-2.7-.8-5.4-1.3-8.2-2.1-1-.3-2-.6-2.9-1.2-.5-.3-.8-.8-.9-1.4v-1.6c0-.2,0-.5.2-.8s.4-.4.6-.6c.5-.3,1-.4,1.5-.5,1-.2,2-.2,3-.2,2,0,4,.2,5.9.3,1,0,1.9,0,2.9.3.5.1.9.3,1.4.4l1.4.5c3.6,1.4,7,3,10.2,4.7s6.4,3.3,9.4,5l-.3.2c-.2-3.9-.5-7.7-.4-11.3.1-1.8.8-3.7,2.3-4.7.4-.2.8-.4,1.3-.4s.9.2,1.3.4c.4.3.7.7.7,1.1s0,.9-.2,1.3h0c.4,2.7,1.8,5,3.1,7.2.2.3.4.6.4.9.1.3.2.6.2.9.1.6.2,1.2.3,1.8.1,1.2.2,2.4.3,3.5.2,4.5.2,8.4.2,11.6v9.9-9.9c0-3.2,0-7.1-.3-11.6,0-1.1-.1-2.3-.3-3.5,0-.6-.1-1.2-.3-1.8-.1-.6-.2-1.2-.6-1.7-1.3-2.2-2.7-4.6-3.1-7.4h0c.2-.4.3-.8.2-1.2,0-.4-.3-.7-.6-.9-.6-.5-1.5-.4-2.1,0-1.4.9-2,2.7-2.2,4.4,0,3.6.2,7.4.4,11.3v.4l-.3-.2c-3-1.7-6.1-3.4-9.4-5-3.2-1.6-6.6-3.3-10.2-4.6l-1.4-.5c-.5-.1-.9-.3-1.4-.4-.9-.2-1.9-.2-2.9-.3-2-.1-3.9-.3-5.9-.3s-2,0-2.9.2-2,.5-2,1.5-.1,1,0,1.4c0,.5.3.8.7,1.1.8.5,1.8.8,2.8,1.1,2.7.8,5.5,1.3,8.2,2.1s5.3,1.7,7.7,2.9l-.2.4c-1.6-.4-3.2-.8-4.8-1-1.6-.2-3.2-.3-4.7,0-.7.2-1.4.5-1.8,1.1s-.8,1.3-1,2c-.5,1.4-.3,3.1.7,4.1l.2.2h-.3c-.7.5-1.3,1-1.8,1.6-.4.6-.7,1.4-.6,2.1,0,.8.2,1.5.4,2.2.2.7.6,1.4,1.2,1.8l.3.2-.2.2c-.8.6-1.4,1.5-1.6,2.4s0,1.9.6,2.6c.6.7,1.6,1,2.5,1.2s1.9.5,2.8,1,1.6,1.2,2.2,1.9c.7.7,1.3,1.3,1.9,1.9,1.3,1.3,2.6,2.5,3.8,3.7,1.3,1.2,2.5,2.3,3.7,3.3s2.4,2,3.8,2.5,2.8.9,4.1,1.1c1.4.3,2.7.5,3.9.6h-.1c3.4-4.5,6.1-8.2,7.9-10.7.9-1.2,1.6-2.2,2.1-2.8.2-.3.4-.5.6-.7.1-.2.2-.2.2-.2h-.3Z"/>
                </g>
                <path class="cls-5" d="M436.3,274.2c-1.8-3.5-6-10.8-7.9-15.2l-13.1,4.8s-37-50-38.2-50-17.3,14.9-17.3,14.9c.7.7,34.1,77.2,46.8,85.4,12.8,8.3,22.3,13.5,29.2,1.7,6.9-11.8,8.6-26.2.5-41.6Z"/>
                <path class="cls-9" d="M432,286.2s-.2-.3-.6-1c-.4-.6-.9-1.6-1.6-2.7-1.4-2.2-3.4-5.3-5.8-8.5s-4.8-5.9-6.5-7.9c-.8-.9-1.5-1.7-2-2.4-.5-.6-.7-.9-.7-.9,0,0,.3.3.8.8s1.3,1.3,2.2,2.3c1.8,1.9,4.2,4.7,6.7,7.9s4.4,6.3,5.7,8.6c.6,1.2,1.1,2.1,1.5,2.8.3.7.5,1,.5,1.1h-.2Z"/>
              </g>
              <path class="cls-2" d="M356.6,174.7c-.3.2-1.7-1.2-3.9-1.9-2.2-.8-4.1-.6-4.2-1,0-.2.4-.5,1.3-.7s2.1-.1,3.4.3c1.3.5,2.3,1.3,2.8,1.9.6.7.7,1.2.6,1.3h0Z"/>
              <path class="cls-2" d="M390.1,374.9s-.1.1-.5.3c-.3.2-.8.4-1.4.7-1.2.5-3.1,1.1-5.4,1.5-2.3.3-5.2.4-8.3,0-3.1-.4-6.5-1.2-9.9-2.2-6.9-2.1-13-4.4-17.3-6.2-2.2-.9-3.9-1.7-5.1-2.2-.6-.3-1-.5-1.4-.6-.3-.2-.5-.2-.5-.3,0,0,.2,0,.5.2.4.1.8.3,1.4.6,1.3.5,3,1.2,5.2,2.1,4.4,1.7,10.5,4,17.4,6.1,3.4,1,6.8,1.8,9.8,2.2,3.1.4,5.9.4,8.2.1,2.3-.3,4.2-.8,5.4-1.3,1.2-.5,1.9-.8,1.9-.8v-.2Z"/>
            </g>
            <g>
              <g>
                <path class="cls-1" d="M299.6,279.5c-16.7-11.2-36.6-15.3-49.6-15.3s-30.1,1.9-46.4,11.1c-10.1,5.7-18.1,13.5-23.9,23.1-6.9,11.4-10.6,25.5-11.1,42,0,2.5.8,4.8,2.6,6.6,1.7,1.8,4.1,2.8,6.5,2.8h32c4.5,0,8.4-3.3,9-7.8,1.4-10,7.4-26.9,31.3-27.3,18.2-.3,25.7,12.9,28.1,18.6,3.9,9.3,2.9,20.2-2.7,29.4-8.5,14-24.2,16.2-32.7,16.2s-17.9,8-17.9,17.8v34.4c0,5,4.1,9.1,9.1,9.1h31.2c5,0,9.1-4.1,9.1-9.1v-7.2c0-.2.1-.3.3-.4,7.1-2.5,20.7-8.4,33.1-20.7,15.7-15.6,23.7-35.8,23.7-60,0-34.6-17.2-53.5-31.7-63.2h0Z"/>
                <path class="cls-1" d="M251.1,448.8h-2.7c-13,0-23.6,10.6-23.6,23.6s10.6,23.6,23.6,23.6h2.7c13,0,23.6-10.6,23.6-23.6s-10.6-23.6-23.6-23.6h0Z"/>
              </g>
              <g class="cls-4">
                <path d="M330.1,320.7c-.4-3.5-1.3-6.9-2.6-10.1-6.2-15.6-20.9-26.2-37.5-28.1l-80.4-9.1c8.7,8.9,20.2,10.7,32.3,13.8s25.1,7.8,37.3,10.4c3.9.8,8,1.9,11,4.5,3,2.5,4.6,6.3,6.2,9.8,2.3,5.3,4.6,10.6,7,15.9,2.7,6.1,6.2,12.9,13.3,13.3,2.9.2,5.7-.9,7.9-2.8,5.2-4.4,6.3-11.3,5.5-17.7h0Z"/>
              </g>
              <g>
                <path class="cls-5" d="M329,299.1c-.6-1.1-12.8-16-18.9-21.8-3.9-3.7-9.8-6.3-13.5-7.7,0,0-61.2-22.1-65.4-24.2l-27.5,28.1c9.6,2.7,74.5,18.3,90.5,21.8,2.8,3.3,5.6,5.9,5.6,5.9l4.7,10.9s.5,4,.2,8.3,3.1,2.6,3.1,2.6c0,0-.2,2.7,0,6.5h0c.2,3,4.3,3.3,5.2.6l3.2-9.9s-.4,9-.6,14c0,.9.1,1.7.4,2.3,1.2,2.6,5.1,2.2,5.8-.7l3.7-15.6-1.2-9.6,3.1,8.7s.9,4.7.7,11.2c0,2.6.8,3.7,1.9,4.1,1.8.7,3.7-.8,3.9-2.7l1.2-14.5s-5.5-17.3-6.1-18.4h0Z"/>
                <path class="cls-9" d="M227.2,244.3c0-.1,1.8.2,4.5.9,2.7.8,6.4,2,10.5,3.6,4,1.6,7.6,3.1,10.2,4.2,2.6,1.1,4.2,1.8,4.2,1.9s-1.7-.4-4.4-1.3c-2.7-.9-6.3-2.4-10.3-4s-7.6-3-10.3-3.9-4.3-1.4-4.3-1.6v.2Z"/>
              </g>
            </g>
          </g>
        </g>
      </g>
    </g>
  </g>
</svg>