<?xml version="1.0" encoding="UTF-8"?>
<svg xmlns="http://www.w3.org/2000/svg" version="1.1" viewBox="0 0 750 500">
  <defs>
    <style>
      .cls-1 {
        fill: #e0e0e0;
      }

      .cls-2 {
        fill: #aa6550;
      }

      .cls-3 {
        fill: #b78876;
      }

      .cls-4 {
        fill: #bfdd7d;
      }

      .cls-5, .cls-6 {
        fill: none;
        stroke: #4e585d;
        stroke-miterlimit: 10;
      }

      .cls-7 {
        fill: #ffbe9d;
      }

      .cls-8 {
        fill: #ebebeb;
      }

      .cls-9 {
        fill: #263238;
      }

      .cls-10 {
        fill: #eb996e;
      }

      .cls-11 {
        fill: #96a649;
      }

      .cls-12 {
        fill: #fafafa;
      }

      .cls-13 {
        opacity: .4;
      }

      .cls-14 {
        opacity: .2;
      }

      .cls-15 {
        fill: #f5f5f5;
      }

      .cls-16 {
        fill: #455a64;
      }

      .cls-17 {
        display: none;
      }

      .cls-6 {
        stroke-width: 0px;
      }
    </style>
  </defs>
  <!-- Generator: Adobe Illustrator 28.6.0, SVG Export Plug-In . SVG Version: 1.2.0 Build 709)  -->
  <g>
    <g id="Calque_1">
      <g id="Background_Simple" class="cls-17">
        <path class="cls-8" d="M631.1,109.8l-3.1-5.1c-24.7-40.6-69.4-65.3-116.9-63-6.7.3-13.3,1.1-19.9,2.5-43.7,9.1-81.8,41.5-97.7,83.2-9.4,24.5-12.1,52.8-29.7,72.2-23,25.3-61.8,25.9-95.9,24.7-34.1-1.2-73-.4-95.8,24.9-14.3,15.9-18.9,38.5-17.9,59.9,2.8,56.5,42.5,107.2,93.2,132.6s110.4,27.8,165.9,17c77.8-15.2,152-57.4,196.7-122.9,44.7-65.5,56.3-154.9,21-226Z"/>
      </g>
      <g id="Character_2">
        <g>
          <g>
            <path class="cls-11" d="M622.1,420.1h-174.6c-21.4,0-38.8-17.4-38.8-38.8v-142.1c0-21.4,17.4-38.8,38.8-38.8h174.6c21.4,0,38.8,17.4,38.8,38.8v142.1c0,21.4-17.4,38.8-38.8,38.8Z"/>
            <g>
              <polygon class="cls-11" points="660.8 277 698.6 277 659.9 315.6 660.8 277"/>
              <g class="cls-13">
                <polygon class="cls-11" points="660.8 277 698.6 277 659.9 315.6 660.8 277"/>
              </g>
            </g>
          </g>
          <g>
            <g>
              <g>
                <path class="cls-3" d="M402.7,300.7l-15.8-18c-4.3-4.3-5.7-6.3-4.9-7.1,1.1-1,.7-.7,9.5,6,0,0-12.6-9.6-8.2-9.7.8,0,2.9,1.2,5.2,2.7-3.1-2.7-4-4.4-3.4-5.3,1-1.5,8.7,3.9,12.3,6.4-2.9-2.2-8.4-6.4-9.4-7.7-1.3-1.8,1.4-1.7,3.6-.9,2.5.8,16.1,7.8,20.2,9.6,2.8,1.2,3.8-1.3,3.8-1.3,1.5-6.3,6-10.3,7.7-10.9,1.7-.5,3,1.7,1.8,3.3-1,1.3-2,3.9-2.7,5.9-.6,1.7-.8,3.4-.8,5.1,0,2,.1,3.7.3,5.2l14.5,19.9-24.2,14-9.4-17.5Z"/>
                <path class="cls-2" d="M397,284.4c-.2.2-3-1.7-6.3-4.3-3.3-2.6-5.8-4.9-5.7-5.1.2-.2,3,1.7,6.3,4.3,3.3,2.6,5.8,4.9,5.7,5.1Z"/>
                <path class="cls-2" d="M400.1,281.3c-.2.2-3.3-1.7-7-4.2-3.7-2.6-6.5-4.8-6.4-5.1s3.3,1.7,7,4.2c3.7,2.6,6.5,4.8,6.4,5.1Z"/>
                <path class="cls-2" d="M402.3,277.9c-.2.2-3.1-1.5-6.6-3.9-3.5-2.4-6.2-4.5-6.1-4.7.2-.2,3.1,1.5,6.6,3.9,3.5,2.4,6.2,4.5,6.1,4.7Z"/>
              </g>
              <path class="cls-3" d="M423.1,287l57.7,73.1-13.2,30.8s-15.8-3.5-20.6-10.2-44.3-80-44.3-80l20.4-13.7Z"/>
            </g>
            <g>
              <g>
                <g>
                  <g>
                    <path class="cls-9" d="M569.5,184.7c4.2,3.6,4.1,9.9,3.7,15.4-.5,5.5-.8,11.7,2.9,15.7,3.1,3.3,8.8,4.7,9.5,9.2.3,2.1-.8,4.3-2.6,5.3s-4.3.7-5.9-.7c1.2,3.5.4,7.9-2.7,10.1-3.1,2.1-8.2.8-9.1-2.8.6,2.4-1.2,5.1-3.6,5.5-2.4.4-5-1.5-5.3-3.9"/>
                    <path class="cls-9" d="M510.1,221.6c-1,2.7-4.5,4.2-7.2,3.1-2.7-1.1-4.1-4.6-2.9-7.3,1-2.1,3.2-3.6,3.4-5.9.3-2.8-2.5-4.7-5-5.9s-5.4-2.8-5.7-5.5c-.3-2.7,2.1-4.7,4.1-6.5,2-1.8,4-4.5,2.7-6.9-.6-1.2-1.9-1.9-2.8-3-1.9-2.4-.9-6.2,1.5-8,2.4-1.9,5.7-2.1,8.7-1.6s5.8,1.8,8.7,2.6c9.6,2.8,20.3,1.4,28.8-3.8"/>
                    <g>
                      <path class="cls-3" d="M527.8,286.1c10.8,2.2,21.3-4.7,23.6-15.4l14.2-65.1c3.7-15.8-6.3-31.6-22.3-34.9l-1.5-.2c-15-2.2-29.2,7.5-32.5,22.2-3.2,13.7-6.5,28.9-7.5,36.4-2.1,15.5,13,20.1,13,20.1l-2.7,13c-2.3,10.9,4.8,21.6,15.7,23.8h0Z"/>
                      <g>
                        <g>
                          <g>
                            <path class="cls-9" d="M512.1,203c-.2,1.2.6,2.3,1.8,2.5,1.2.2,2.4-.5,2.6-1.7.2-1.2-.6-2.3-1.8-2.5-1.2-.2-2.4.5-2.6,1.7Z"/>
                            <path class="cls-9" d="M511.5,200.8c.2.3,2.1-.7,4.5-.3,2.4.3,3.9,1.8,4.2,1.5.1-.1,0-.7-.7-1.3-.7-.7-1.9-1.4-3.3-1.6-1.5-.2-2.8.2-3.6.6-.8.5-1.1.9-1,1.1Z"/>
                          </g>
                          <g>
                            <path class="cls-9" d="M535.3,206.8c-.2,1.2.6,2.3,1.8,2.5,1.2.2,2.4-.5,2.6-1.7s-.6-2.3-1.8-2.5c-1.2-.2-2.4.5-2.6,1.7Z"/>
                            <path class="cls-9" d="M534.8,204.7c.2.3,2.1-.7,4.5-.3,2.4.3,3.9,1.8,4.2,1.5.1-.1,0-.7-.7-1.3-.7-.7-1.9-1.4-3.3-1.6-1.5-.2-2.8.2-3.6.6-.8.5-1.1.9-1,1.1Z"/>
                          </g>
                          <path class="cls-9" d="M523.6,221c0-.1-1.4-.6-3.8-1.3-.6-.2-1.2-.4-1.2-.8,0-.5.3-1.1.7-1.7.8-1.4,1.6-2.8,2.5-4.4,3.4-6.2,6-11.3,5.8-11.5-.3-.1-3.3,4.8-6.7,11-.8,1.5-1.6,3-2.4,4.4-.3.7-.8,1.4-.7,2.3,0,.5.5.9.9,1,.4.2.7.2,1,.3,2.4.5,3.9.7,3.9.6Z"/>
                        </g>
                        <path class="cls-9" d="M535.5,195.3c.1.7,2.6.7,5.3,1.5,2.7.7,4.9,1.8,5.3,1.3.2-.3,0-.9-.9-1.7-.8-.8-2.2-1.6-3.8-2-1.6-.4-3.2-.4-4.3-.1-1.1.3-1.7.7-1.6,1Z"/>
                        <path class="cls-9" d="M513.4,194.1c.3.6,2.1.3,4,.5,2,.2,3.6.9,4,.4.2-.2,0-.8-.6-1.4-.6-.6-1.8-1.2-3.1-1.4-1.4-.2-2.6.2-3.4.6-.8.5-1.1,1-.9,1.3Z"/>
                      </g>
                      <path class="cls-9" d="M551.3,186.2s0,0,0,0c2.2,2.3,3.4,5.3,3.4,8.5,0,.1,0,.2,0,.3,0,4.5-.8,9-.8,13.4,0,4.5.9,9.2,3.7,12.7,1.2,1.4,3.4,2.6,4.7,1.3.5-.5.7-1.2.8-1.9,2.4-10.5,6.7-19.5,8.3-30.6.4-3-.6-6.1-2.8-8.2-2.1-2-4.7-4.2-7.4-3.3-2.8.8-6.8,5.2-9.1,7"/>
                      <g>
                        <path class="cls-3" d="M559.4,211.8c.3,0,11.1-1.6,9.2,8.9s-12,6.4-12,6.1c0-.3,2.8-15.1,2.8-15.1Z"/>
                        <path class="cls-2" d="M560.5,223.5c0,0,.2.2.4.4.3.2.8.4,1.4.3,1.2-.2,2.4-1.8,2.8-3.7.2-1,.2-1.9,0-2.7-.2-.8-.6-1.5-1.1-1.7-.5-.2-1,0-1.2.3-.2.3-.2.5-.2.5,0,0-.2-.2,0-.6,0-.2.2-.4.5-.6.3-.2.7-.2,1.1,0,.8.2,1.4,1.1,1.6,2,.3.9.3,2,.1,3-.4,2.1-1.9,3.9-3.5,4.1-.8,0-1.3-.3-1.6-.6-.3-.3-.3-.6-.3-.6Z"/>
                      </g>
                      <path class="cls-9" d="M561.3,180.2c3.2-3.8-3-10.9-8-13.4-5-2.4-12.2-.9-17.6,0-3.4.6-6.9,1.6-10.3,1-2.3-.4-4.4-1.6-6.4-2.7-2.1-1.1-4.2-2.1-6.6-2.3-2.3-.2-4.9.7-6.1,2.7-1.2,2-.4,5.1,1.9,5.8-2.7-2-7.2-.5-8.2,2.7s2,6.9,5.4,6.7c-1.3-1.4-3.9.2-4,2.1s1.4,3.5,3,4.5c4.1,2.6,9.3,2.7,14.1,1.8,4.8-.9,9.4-2.6,14.1-3.6s12.8-2.8,17.1-.6c3.2,1.7,4.9,6,6.9,5.4,1.9-.6,3.4-2.3,4-4.3.7-1.9.7-4,.7-6"/>
                    </g>
                  </g>
                  <path class="cls-16" d="M581.9,229s.2,0,.6-.2c.3-.2.8-.6,1.1-1.3.3-.7.5-1.6.3-2.7-.2-1.1-.9-2.2-1.9-3.1-1-.9-2.3-1.6-3.8-2.2-1.4-.6-3-1.2-4.4-2.1-1.4-1-2.5-2.4-3.2-4.2-.7-1.7-1-3.7-.9-5.7.1-4,1.2-7.8,1.5-11.3.3-3.5-.2-6.8-1.7-9.1-1.5-2.3-3.5-3.4-5-3.8-.7-.2-1.3-.2-1.7-.2-.4,0-.6,0-.6,0,0,0,.8-.1,2.3.3,1.4.4,3.3,1.5,4.7,3.8,1.4,2.2,1.9,5.4,1.5,8.9-.3,3.5-1.4,7.2-1.5,11.3,0,2,.2,4.1,1,5.9.7,1.8,1.9,3.4,3.4,4.4,1.5,1,3.1,1.5,4.5,2.1,1.4.6,2.7,1.2,3.7,2.1,1,.8,1.7,1.9,1.8,2.9.2,1,0,1.9-.2,2.6-.6,1.3-1.6,1.6-1.5,1.6Z"/>
                  <path class="cls-16" d="M507.9,171.2s-.1,0-.5-.2c-.2,0-.3-.2-.6-.2-.2,0-.5-.2-.8-.2-1.3-.3-3.4,0-5.3,1.6h0s0,0,0,0c-1.3,1.5-2.1,3.7-1.9,6.3.2,2.5,1.5,5.2,3.9,7.1,2.3,2,5.4,3.2,8.7,3.5,3.3.4,6.9,0,10.4-.6,5.8-1.1,11-3.3,15.3-5.9,2.2-1.3,4.2-2.5,6.3-3.3,2.1-.8,4.1-1.2,6-1.2,3.8,0,6.8,1.1,8.6,2,1.9,1,2.7,1.8,2.8,1.8,0,0-.8-.9-2.7-1.9-1.8-1-4.8-2.2-8.7-2.2-1.9,0-4,.4-6.2,1.2-2.1.8-4.2,2-6.4,3.3-4.3,2.6-9.5,4.7-15.2,5.8-3.5.7-7,1-10.2.6-3.3-.3-6.3-1.5-8.5-3.4-2.2-1.8-3.6-4.4-3.8-6.8-.2-2.4.5-4.6,1.7-6h0c1.8-1.6,3.8-1.9,5.1-1.7,1.3.2,1.9.6,1.9.5Z"/>
                  <path class="cls-16" d="M513.7,162.5s-.1.9.4,2.4c.5,1.5,1.8,3.5,4.1,5,1.2.8,2.6,1.4,4.2,1.7,1.6.3,3.4.4,5.2.3,3.7-.3,7.5-1.5,11.5-2.6,4-1,8.1-1.6,11.5-.7,3.5.9,6.1,3,7.8,5.1,1.7,2.1,2.6,4.2,3,5.6.4,1.5.4,2.3.5,2.3,0,0,0-.2,0-.6,0-.4-.1-1-.3-1.8-.4-1.5-1.2-3.6-2.9-5.8-1.7-2.2-4.4-4.4-8-5.3-3.6-1-7.7-.4-11.8.6-4.1,1.1-7.9,2.3-11.5,2.6-1.8.2-3.5.1-5.1-.2-1.6-.3-2.9-.9-4.1-1.6-2.3-1.4-3.6-3.3-4.1-4.7-.5-1.4-.5-2.3-.6-2.3Z"/>
                </g>
                <path class="cls-2" d="M518.8,228.9c.2,1,.4,2.1.8,3,.5.9,1.2,1.8,2.2,2,1.1.3,2.2-.1,3-.9s1.2-1.8,1.4-2.9c.2-1,0-2.2-1-2.6-.4-.1-.8,0-1.2,0-1.8.3-3.7.7-5.5,1"/>
                <path class="cls-9" d="M519.8,233.1c0-.1,1,.6,2.8.5.8,0,1.8-.4,2.6-1.2.7-.8,1.2-2,1.1-3.2,0-.3-.1-.6-.2-.9-.1-.3,0-.2-.3-.3-.2,0-.6,0-.9,0-.3,0-.6,0-.9,0-1.2,0-2.3.2-3.2.2-1.8,0-3,0-3,0,0-.1,1.1-.4,2.9-.6.9-.1,2-.3,3.2-.4.3,0,.6,0,.9-.1.3,0,.6,0,1,0,.2,0,.5,0,.7.3.2.2.3.4.4.6.1.4.2.7.3,1.1.1,1.5-.5,3-1.4,3.9-1,.9-2.2,1.3-3.2,1.2-1,0-1.7-.3-2.2-.6-.5-.3-.6-.5-.6-.6Z"/>
              </g>
              <path class="cls-2" d="M514.8,249.3s10.1,3.8,19.9,1c0,0-7.4,6.2-20.9,3.8l1-4.9Z"/>
            </g>
            <path class="cls-12" d="M530.2,392.7s-.5-.4-1.4-1.1c-.4-.4-1-.8-1.6-1.2-.6-.5-1.3-1-2.2-1.6-.8-.6-1.7-1.2-2.8-1.7-1-.6-2.1-1.2-3.3-1.8-2.4-1.1-5.1-2.2-8-3.1-2.9-.9-5.8-1.4-8.4-1.8-1.3-.1-2.5-.3-3.7-.3-1.2,0-2.3,0-3.3,0-1,0-1.9,0-2.7,0-.8,0-1.5,0-2,.2-1.1.1-1.7.2-1.7.1,0,0,.6-.1,1.7-.3.6,0,1.2-.2,2-.2.8,0,1.7-.2,2.7-.2,1,0,2.1,0,3.3,0,1.2,0,2.4.2,3.8.3,2.6.3,5.5.9,8.5,1.7,2.9.9,5.6,2,8,3.2,1.2.6,2.3,1.2,3.3,1.8,1,.6,1.9,1.2,2.8,1.8.8.6,1.5,1.1,2.2,1.6.6.5,1.2.9,1.6,1.3.8.8,1.3,1.2,1.3,1.2Z"/>
            <path class="cls-6" d="M509.9,268.4"/>
            <g>
              <g>
                <path class="cls-4" d="M471.4,341.3l8.2-35.5c3.1-13.4,6.9-26.2,13.1-27.7v4.1l-2.7,101.5s-16.7,19-38,8.5c-6.7-3.3-18.8-26.6-18.8-26.6,0,0-28.2-50.4-27.1-52.7s18.5-24.5,20.2-25.7l45.1,54.1Z"/>
                <path class="cls-4" d="M555.8,268c16.3,3.1,34.7,12.6,43.1,37,3.1,8.9,25.5,74.5,25.5,74.5l-38.3-.8-6.2-13.5,3,21.9,2.6,31.3-96.6,1.6.7-47.2.9-93.8s1.1-1.4,17.7-10.6c10.4-5.7,47.5-.5,47.5-.5Z"/>
                <g class="cls-14">
                  <path d="M565.5,330.7c1.6,19.8,3.4,25.9,5,45.7.2,1.9.3,3.8,1,5.5.7,1.7,2.2,3.3,4,3.6,2.8.6,6.5,2.6,7.3-.2l-2.7-19.1s-.6-3.6-2.6-8c-5.9-13.2-8.1-13.9-12-27.6"/>
                </g>
                <path class="cls-4" d="M508.3,278.7l.3-2.1,3.1-19.8c.2-1.2,1.3-2,2.5-1.9l38,3.2c2.4.2,4.2,2.3,4,4.7l-.8,11.5-11.9,15.5-17.1,2.7"/>
                <path class="cls-9" d="M489.2,315.8c.1,0,.3,15.5.3,34.6s-.1,34.6-.3,34.6-.3-15.5-.3-34.6.1-34.6.3-34.6Z"/>
                <path class="cls-9" d="M587,381.9s0,0-.1-.2c0-.2-.2-.4-.3-.7-.3-.6-.7-1.5-1.2-2.6-1-2.3-2.4-5.6-4.2-9.7-3.5-8.3-8.3-19.6-13.6-32.1-2.6-6.3-5.1-12.3-7.4-17.7-1.2-2.7-2-5.4-2.5-8-.5-2.6-.6-5.1-.7-7.3,0-4.5.6-8.1,1.5-10.5.1-.3.2-.6.3-.8.1-.2.2-.5.3-.7.2-.4.4-.8.6-1.1.2-.2.3-.5.4-.6,0-.1.2-.2.2-.2,0,0-.8,1.1-1.7,3.5-.8,2.3-1.4,5.9-1.3,10.4.1,4.4.7,9.8,3.2,15.2,2.3,5.4,4.8,11.4,7.5,17.7,5.2,12.5,10,23.9,13.5,32.2,1.7,4.1,3.1,7.4,4,9.8.5,1.1.8,2,1.1,2.7.1.3.2.5.3.7,0,.2,0,.2,0,.2Z"/>
                <path class="cls-12" d="M567.7,271.5s-.4.4-1.1,1c-.8.6-2,1.4-3.6,2.1-1.7.7-3.9,1.4-6.4,1.8-2.6.4-5.5.7-8.8.9-3.3.1-6.9,0-10.7.2-3.8,0-8,.3-12.1,1.5-4.1,1.1-8.4,3.2-11.4,6.7-1.5,1.8-2.6,3.9-3.2,6.2-.6,2.3-.6,4.8.1,7.2.4,1.2,1,2.2,1.7,3.2.7.9,1.7,1.7,2.7,2.3,1,.6,2.2.8,3.3.7,1.1-.1,2.2-.7,2.9-1.5,1.5-1.7,1.8-4.2,1.5-6.3-.2-1.1-.5-2.2-1-3.1-.5-1-1.1-1.9-1.8-2.7-2.7-3.3-6.6-5.2-10.3-6.1-3.7-.9-7.4-.7-10.5.1-3.2.8-5.8,2.1-8,3.4-2.2,1.3-4,2.8-5.3,4-1.4,1.2-2.3,2.2-3,2.9-.3.3-.6.6-.7.8-.2.2-.3.3-.3.3,0,0,1.2-1.6,3.9-4.1,1.4-1.2,3.1-2.7,5.3-4.1,2.2-1.4,4.9-2.7,8.1-3.5,3.2-.9,6.9-1.1,10.7-.2,3.8.9,7.7,2.8,10.5,6.2.7.9,1.3,1.8,1.8,2.8.5,1,.8,2.1,1,3.3.2,1.1.2,2.3,0,3.5-.2,1.2-.7,2.3-1.5,3.2-.8.9-2,1.5-3.3,1.7-1.3.1-2.5-.2-3.6-.8-1.1-.6-2.1-1.4-2.9-2.4-.8-1-1.4-2.1-1.8-3.4-.8-2.4-.7-5-.1-7.4.6-2.4,1.7-4.6,3.3-6.4,3.1-3.7,7.5-5.7,11.6-6.8,4.2-1.1,8.4-1.4,12.2-1.4,3.9,0,7.4,0,10.7,0,3.3-.1,6.2-.4,8.8-.8,2.6-.4,4.7-1,6.4-1.7,1.7-.7,2.9-1.5,3.7-2,.4-.3.7-.5.9-.7.2-.1.3-.2.3-.2Z"/>
                <path class="cls-12" d="M600.8,313.1s-.1,0-.4,0c-.3,0-.7,0-1.2,0-1.1,0-2.6,0-4.5-.1-1.9-.1-4.2-.4-6.7-.8-2.5-.3-5.2-.7-8.1-.9-2.9-.1-5.7,0-8.1.6-2.4.5-4.6,1.4-6.2,2.4-3.3,2-4.5,4.2-4.6,4,0,0,0-.1.2-.4.2-.2.4-.6.7-1,.7-.8,1.8-1.9,3.4-3,1.6-1,3.8-1.9,6.3-2.5,2.5-.6,5.3-.8,8.2-.7,2.9.2,5.7.6,8.2.9,2.5.4,4.7.7,6.6.9,1.9.2,3.4.3,4.5.3,1.1,0,1.7,0,1.7,0Z"/>
                <path class="cls-12" d="M576.7,357.9c0,.1-2-.7-5.7-.5-1.9,0-4.1.5-6.7,1.2-2.6.7-5.4,1.7-8.6,2.7-3.2,1-6.8,1.9-10.8,1.9-4,0-8.2-.8-12.3-2.5-4.1-1.7-8-4.5-11.2-8.1-1.6-1.8-3-3.9-4-6.2-1-2.3-1.5-4.9-1.1-7.5.4-2.6,1.6-5,3.5-6.7,1-.8,2.1-1.5,3.4-1.7,1.2-.3,2.5-.2,3.7.1,1.2.3,2.3.9,3.2,1.8.9.8,1.6,1.9,1.8,3.1.3,1.2.1,2.4-.3,3.5-.4,1.1-1.1,2.1-1.9,2.9-1.6,1.6-3.5,2.7-5.5,3.5-1,.4-2,.7-3,.8-.5,0-1,.2-1.5.3-.5,0-1,.1-1.5.2-3.9.4-7.7,0-10.9-.8-3.3-.8-6.1-2-8.4-3.2-2.3-1.3-4.2-2.6-5.6-3.9-.4-.3-.7-.6-1-.9-.3-.3-.6-.6-.8-.8-.5-.5-.9-1-1.2-1.3-.3-.4-.5-.6-.7-.9-.2-.2-.2-.3-.2-.3,0,0,0,0,.3.3.2.2.4.5.8.8.3.4.7.8,1.3,1.3.3.2.5.5.8.8.3.3.7.6,1,.9,1.4,1.2,3.3,2.5,5.6,3.8,2.3,1.2,5.1,2.4,8.4,3.1,3.2.7,6.9,1.1,10.8.7.5,0,1-.1,1.5-.2.5,0,1-.2,1.5-.3,1-.2,2-.5,2.9-.8,1.9-.7,3.8-1.8,5.3-3.4.7-.8,1.4-1.7,1.8-2.7.4-1,.5-2.1.2-3.2-.5-2.2-2.4-3.9-4.7-4.5-1.1-.3-2.3-.4-3.5-.1-1.1.2-2.2.8-3.1,1.6-1.8,1.6-3,3.9-3.4,6.4-.4,2.5.2,5,1.1,7.2,1,2.3,2.3,4.3,3.9,6.1,3.1,3.6,7,6.3,11,8,4,1.8,8.2,2.5,12.1,2.6,3.9,0,7.5-.8,10.7-1.8,3.2-1,6.1-1.9,8.6-2.6,2.6-.7,4.9-1,6.7-1.1.9,0,1.8,0,2.5,0,.7.1,1.3.2,1.8.3.5.1.8.2,1.1.3.2,0,.4.1.4.1Z"/>
                <path class="cls-12" d="M488.9,347.3c0,0-.5-1.1-1.5-2.7-1-1.6-2.5-3.8-4.6-5.7-2.1-2-4.4-3.4-6-4.2-1.7-.9-2.8-1.2-2.8-1.3,0,0,.3,0,.8.2.5.1,1.2.4,2.1.8,1.8.8,4.1,2.2,6.2,4.2,2.2,2,3.7,4.2,4.6,5.9.5.9.8,1.6,1,2.1.2.5.3.8.2.8Z"/>
                <path class="cls-12" d="M450.1,390.1s0,0-.2-.2c-.1-.2-.2-.4-.4-.8-.4-.7-.9-1.7-1.5-2.9-1.3-2.6-3.1-6.3-4.6-11.3-.7-2.5-1.3-5.3-1.4-8.3,0-1.5,0-3.1.2-4.7.2-1.6.6-3.2,1.2-4.9,1.2-3.2,3-6.4,5.9-8.9,2.8-2.4,6.6-4.1,10.7-3.7,2,.2,4,1,5.3,2.6,1.3,1.5,1.9,3.6,1.5,5.5-.2.9-.7,1.8-1.4,2.5-.7.7-1.6,1.1-2.4,1.3-1.8.5-3.7.2-5.2-.6-1.6-.8-2.8-2-3.8-3.3-1-1.3-1.8-2.7-2.4-4.1-1.2-2.8-1.5-5.7-1.3-8.3.2-2.6,1-4.8,2-6.6,1-1.8,2.1-3.2,3.1-4.2,1-1,1.9-1.7,2.6-2.1.3-.2.6-.3.7-.4.2,0,.3-.1.3-.1,0,0-.3.2-.9.7-.6.4-1.5,1.1-2.5,2.1-1,1-2.1,2.4-3,4.2-.9,1.8-1.7,4-1.9,6.5-.2,2.5.2,5.4,1.4,8.1.6,1.4,1.4,2.7,2.4,3.9,1,1.2,2.2,2.4,3.7,3.1,1.5.8,3.2,1,4.9.6,1.6-.4,3.1-1.7,3.5-3.4.4-1.7-.2-3.6-1.4-5-1.2-1.4-3-2.2-4.9-2.4-3.8-.4-7.6,1.2-10.3,3.6-2.8,2.4-4.6,5.5-5.8,8.7-.5,1.6-.9,3.2-1.2,4.8-.2,1.6-.3,3.1-.2,4.6.1,3,.7,5.8,1.4,8.2,1.4,4.9,3.2,8.7,4.4,11.3.6,1.3,1.1,2.3,1.4,3,.2.3.3.6.4.8,0,.2.1.3.1.3Z"/>
                <path class="cls-12" d="M437.7,301.8s0,.1,0,.4c0,.3.1.7.1,1.2.1,1.1.1,2.6,0,4.5-.3,3.8-1.6,9-4.9,13.9-3.3,4.8-7.8,8-11.2,9.6-1.7.8-3.2,1.3-4.2,1.6-.5.2-.9.2-1.2.3-.3,0-.4,0-.4,0,0,0,.5-.2,1.5-.6,1-.3,2.4-.9,4.1-1.8,3.3-1.7,7.7-4.8,10.9-9.5,3.3-4.7,4.6-9.9,5-13.6.2-1.9.2-3.4.2-4.4,0-1.1,0-1.6,0-1.6Z"/>
                <path class="cls-12" d="M609.5,345.1c0,0-1.9.9-3.9,3.5-1,1.3-2,3-3.1,4.8-1.1,1.8-2.6,3.8-4.3,5.6-3.4,3.7-7.3,6.3-10.2,7.7-1.5.7-2.7,1.2-3.6,1.5-.9.3-1.4.4-1.4.4s.5-.2,1.3-.6c.8-.4,2.1-.9,3.5-1.7,2.9-1.5,6.7-4.1,10-7.7,1.7-1.8,3.1-3.7,4.2-5.6,1.2-1.8,2.2-3.5,3.3-4.8,1-1.3,2.1-2.2,2.9-2.7.4-.2.7-.4.9-.5.2-.1.3-.1.3-.1Z"/>
              </g>
              <path class="cls-9" d="M555.5,269.2s-.2,0-.5.1c-.4,0-.8.1-1.3.2-1.2.2-2.8.4-4.9.7-4.2.6-9.9,1.2-16.3,1.7-3.2.2-6.2.4-9,.3-2.8-.1-5.3-.6-7.3-1.2-2-.7-3.5-1.6-4.5-2.2-.5-.3-.8-.6-1.1-.9-.2-.2-.3-.3-.3-.3,0,0,.5.4,1.5,1,1,.6,2.5,1.5,4.5,2.1,2,.6,4.4,1,7.2,1.1,2.8,0,5.8-.1,9-.4,6.4-.5,12.1-1.1,16.3-1.5,2-.2,3.7-.4,4.9-.6,1.2-.1,1.8-.2,1.8-.2Z"/>
            </g>
            <g>
              <g>
                <g>
                  <g>
                    <path class="cls-3" d="M624,386.6c3.2,16.5-9.4,31.8-26.1,31.9l-75.7-.8,2-24.5,64.9-9.7"/>
                    <path class="cls-3" d="M528.8,394.3c-.3.1-4.7-1.8-8.6-3.7-4.2-1.9-8.7-2.8-13.3-2.6l-18.1.9s1.1,3,3,4,13.1,1.3,13.1,1.3l-.6.6c-2.4,2.4-5.6,3.8-9,3.9h-1.7c-1.3,0-2.5-.3-3.8-.7l-4.5-1.8c-1.3-.6-2.8-.5-3.4.8-.5,1.2-.1,2.9,3.5,4.8,2.1,1,9.7,3.7,9.7,3.7,0,0,.1,2.1.4,3.2.3,1.1,3.3,2.2,3.3,2.2,0,0,1.9,3.9,2.7,4.8.3.4,3.1,1.2,5.9,2.1,4.7,1.3,9.6,1.3,14.2-.1l6.9-2.1v-21"/>
                  </g>
                  <path class="cls-2" d="M504.1,408c0,.1-2.1,0-4.7-.7-2.5-.7-4.5-1.6-4.4-1.7,0-.1,2,.6,4.5,1.3,2.5.7,4.6,1,4.6,1.1Z"/>
                  <path class="cls-2" d="M503.4,412.2c0,.1-1.2.2-2.5-.2-1.4-.4-2.3-1-2.3-1.1,0-.1,1.1.3,2.4.7,1.3.4,2.4.5,2.4.6Z"/>
                </g>
                <path class="cls-2" d="M506.7,392.7s-.5.6-1.4,1.5c-.9.9-2.3,2-3.9,3-1.7,1-3.4,1.5-4.6,1.8-1.2.3-2,.3-2,.2,0-.2,3.1-.5,6.4-2.4,1.6-1,3-2,4-2.8,1-.8,1.6-1.3,1.6-1.2Z"/>
              </g>
              <path class="cls-4" d="M530.6,391l-1.8,27.7h71.4c4.8,0,9.6-1.3,13.7-3.8h0c9.6-5.8,14.6-17,12.4-28-.7-4.5-2.4-9.8-4.6-15.4l-35.9,5.9,1.1,4.5-56.4,9.1Z"/>
              <path class="cls-9" d="M603.5,379.6s-.2,0-.7.2c-.5,0-1.2.2-2.1.4-1.9.3-4.5.7-7.7,1.3-6.5,1-15.5,2.5-25.4,4-9.9,1.5-18.8,2.9-25.4,3.9-3.2.5-5.8.8-7.7,1.1-.9.1-1.6.2-2.1.3-.5,0-.7,0-.7,0,0,0,.2,0,.7-.2.5,0,1.2-.2,2.1-.4,1.9-.3,4.5-.7,7.7-1.3,6.5-1,15.5-2.5,25.4-4,9.9-1.5,18.8-2.9,25.4-3.9,3.2-.5,5.8-.8,7.7-1.1.9-.1,1.6-.2,2.1-.3.5,0,.7,0,.7,0Z"/>
              <path class="cls-12" d="M567,418.8c-.1,0,.4-2,.5-5.3,0-.8,0-1.7-.1-2.7,0-1-.2-2-.4-3-.5-2.1-1.2-4.4-2.3-6.6-1.1-2.2-2.5-4.2-3.9-5.8-.4-.4-.7-.8-1-1.2-.3-.4-.7-.7-1.1-1-.7-.7-1.4-1.2-2-1.8-2.5-2-4.4-3-4.3-3.1,0,0,.5.2,1.3.6.4.2.9.5,1.4.9.5.4,1.2.8,1.8,1.3.6.5,1.4,1.1,2.1,1.7.4.3.7.7,1.1,1,.4.4.7.8,1.1,1.2,1.4,1.7,2.9,3.6,4,5.9,1.1,2.3,1.9,4.6,2.3,6.7.2,1.1.4,2.1.4,3.1.1,1,0,1.9,0,2.7,0,.8-.1,1.6-.2,2.2,0,.7-.2,1.2-.3,1.7-.2.9-.3,1.4-.4,1.4Z"/>
              <path class="cls-12" d="M610.4,416.7s-1.2,0-3.3-.4c-1-.3-2.3-.6-3.7-1.3-1.4-.7-2.8-1.7-4.2-3.1-1.3-1.4-2.5-3.3-3.1-5.5-.3-1.1-.5-2.3-.5-3.5,0-1.2,0-2.5.3-3.7.3-1.3.7-2.5,1.5-3.7.7-1.1,1.7-2.2,3-2.9,1.2-.7,2.7-1.1,4.2-1,1.5.1,3,.8,3.9,2,1,1.2,1.5,2.7,1.3,4.2-.2,1.5-1.2,2.8-2.5,3.5-2.5,1.5-5.4,1.5-7.9,1.1-5.1-.8-9.1-3.9-11.2-7.1-2.1-3.3-2.7-6.5-2.7-8.6,0-2.2.3-3.3.3-3.3,0,0-.2,1.2,0,3.3.1,2.1.7,5.3,2.8,8.4,2.1,3.1,6,6.1,10.9,6.9,2.4.4,5.2.3,7.5-1,1.1-.7,2-1.8,2.2-3.2.2-1.3-.3-2.7-1.2-3.8-.9-1.1-2.2-1.7-3.6-1.8-1.4-.1-2.7.2-3.9.9-2.4,1.3-3.7,3.8-4.3,6.2-.3,1.2-.4,2.4-.3,3.6,0,1.2.2,2.3.5,3.4.6,2.2,1.7,4,2.9,5.4,1.3,1.4,2.7,2.4,4,3.1,1.3.7,2.6,1.1,3.6,1.4,2.1.5,3.3.5,3.3.6Z"/>
            </g>
          </g>
        </g>
      </g>
      <g id="Character_1">
        <g>
          <path class="cls-4" d="M327.4,114.5h-178.7c-21.7,0-39.4,17.6-39.4,39.4v63.7h-38.6l38.6,38.6v43.3c0,21.7,17.6,39.4,39.4,39.4h178.7c21.7,0,39.4-17.6,39.4-39.4v-145.5c0-21.7-17.6-39.4-39.4-39.4Z"/>
          <g>
            <g>
              <g>
                <path class="cls-9" d="M254.4,121.2c-1.1,2.9.8,6.1,3,8.4,2.2,2.3,4.8,4.4,5.5,7.5.6,2.6-.4,5.2-.1,7.9.2,2.7,1.7,5.1,2.5,7.7,1.5,4.6.9,9.7-.4,14.4-1.1,3.8-2.7,7.6-5.4,10.6-2.7,3-6.5,5.1-10.5,5-1.1,0-2.4-.3-3.1-1.1-.6-.7-.8-1.8-.9-2.8-2.3-20.1-2.3-40.5,0-60.6"/>
                <path class="cls-9" d="M252.3,186.1c8.7-.4,16.7,7.9,16,16.6,8.8,2.1,15,11.8,13.3,20.7-.6,2.9-1.9,5.7-2.1,8.7-.2,3.3,1,6.4,1.6,9.6,1.1,5.8.5,11.9-1.7,17.4-1.4,3.3-3.9,6.7-7.5,6.8-2.4,0-4.7-1.5-6-3.5-1.4-2-2-4.4-2.4-6.8-1.6-7.8-2-15.8-4.2-23.5s-6.3-15.2-13.2-19.1c-3.8-2.2-8.4-3.2-11.5-6.4-3.2-3.3-3.9-8.6-2.3-12.9,1.7-4.3,5.5-7.6,9.8-9.1"/>
                <g>
                  <path class="cls-9" d="M192.1,128.4c-.1-3.7,3.3-6.6,6.8-8,3.5-1.4,7.3-1.9,10.4-4,2.7-1.8,4.6-4.7,6.9-7,5.7-5.8,14.5-8.1,22.3-6s14.2,8.7,16.2,16.5c1.3,5.3.4,11.6-3.8,15.1-4.8,4.1-12,3.2-18.2,1.9-6.2-1.3-13.2-2.5-18.4,1.1-3.1,2.2-4.9,5.8-6.8,9.1s-4.3,6.7-7.9,7.9c-3.6,1.2-8.5-.9-8.7-4.7"/>
                  <g>
                    <g>
                      <path class="cls-7" d="M206.7,129.1c-3.2.3-5.6,3.1-5.6,6.3h0l3.7,84c.2,9.9,14.7,15.5,25.3,15.2h0c10.7-.2,11.1-5.5,11.2-14.9.2-15.8.2-21.7.2-21.6,0,0,13.5-2.3,16.3-20,1.4-8.8.9-23.2.1-35-.7-10.6-7.8-23.6-18.3-22.5l-33,8.4Z"/>
                      <g>
                        <path class="cls-9" d="M255,154.3c0,1.2-.9,2.2-2.2,2.3-1.2,0-2.3-.8-2.3-2,0-1.2.9-2.2,2.2-2.3,1.2,0,2.3.8,2.3,2Z"/>
                        <path class="cls-9" d="M254.9,150.7c-.3.3-2-1-4.4-1-2.4,0-4.2,1.2-4.5.9-.1-.1.2-.7.9-1.2.8-.6,2.1-1.1,3.6-1.1,1.5,0,2.8.6,3.5,1.1.8.6,1,1.1.9,1.2Z"/>
                      </g>
                      <g>
                        <path class="cls-9" d="M231.6,154.3c0,1.2-.9,2.2-2.2,2.3-1.2,0-2.3-.8-2.3-2,0-1.2.9-2.2,2.2-2.3,1.2,0,2.3.8,2.3,2Z"/>
                        <path class="cls-9" d="M230.9,151.2c-.3.3-2-1-4.4-1-2.4,0-4.2,1.2-4.5.9-.1-.1.2-.7.9-1.2.8-.6,2.1-1.1,3.6-1.1,1.5,0,2.8.6,3.5,1.1.7.6,1,1.1.9,1.2Z"/>
                      </g>
                      <path class="cls-9" d="M239.8,169.3c0-.1,1.5-.4,4-.7.6,0,1.2-.2,1.3-.6.1-.5-.1-1.1-.4-1.8-.6-1.5-1.2-3.1-1.9-4.7-2.6-6.8-4.4-12.3-4.2-12.4.3-.1,2.6,5.3,5.2,12,.6,1.7,1.2,3.3,1.8,4.8.2.7.6,1.5.3,2.4-.2.5-.6.8-1,.9-.4.1-.8.1-1.1.1-2.5.1-4,.2-4,0Z"/>
                      <path class="cls-10" d="M241.6,198.2s-11.9.8-23.7-6.3c0,0,5.8,12.1,23.5,10.4l.2-4.2Z"/>
                      <path class="cls-10" d="M238.8,175.2c-.9-1.2-2.4-1.8-3.9-1.6-1.1.1-2.1.6-2.8,1.5-.6.9-.8,2.1-.2,2.9.7.9,2,1.1,3.2.8s2.2-1.1,3.1-1.9c.3-.2.5-.4.7-.7.2-.3.2-.7,0-.9"/>
                      <path class="cls-9" d="M232.7,171c.4,0,.4,2.6,2.7,4.5,2.3,1.9,5.1,1.6,5.1,1.9,0,.2-.6.5-1.8.6-1.2,0-2.9-.3-4.3-1.5-1.4-1.1-2-2.7-2.1-3.8-.1-1.1.2-1.8.4-1.7Z"/>
                    </g>
                    <path class="cls-9" d="M232,146.9c-.2.7-2.7.4-5.5.7-2.9.3-5.2,1.1-5.6.5-.2-.3.2-.9,1.2-1.6.9-.6,2.4-1.3,4.1-1.5,1.7-.2,3.3,0,4.3.5,1.1.4,1.6.9,1.5,1.3Z"/>
                    <path class="cls-9" d="M254,143.6c-.4.6-2.1,0-4.1,0-2,0-3.7.4-4.1-.2-.2-.3,0-.8.8-1.4.7-.5,2-1,3.4-.9,1.4,0,2.6.5,3.3,1.1.7.6,1,1.1.8,1.4Z"/>
                  </g>
                  <path class="cls-9" d="M194.4,187.3c4.9,1,10.2-.5,13.8-3.9,3.6-3.4,5.5-8.6,4.9-13.5-.6-4.3-2.9-8.8-1.4-12.9,2-5.4,9.6-7.1,11.6-12.5,1.2-3.2.1-6.8,1.5-9.9,1.3-2.9,4.3-4.6,7.3-5.7,3-1.1,6.2-1.8,8.7-3.8s4.1-5.6,2.4-8.3c-13.2,1.6-26.2,4.7-38.6,9.4-2.9,1.1-5.9,2.4-7.6,4.9-1.8,2.7-1.7,6.2-1.6,9.5.7,15.9-1.7,30.8-.9,46.6"/>
                </g>
                <path class="cls-16" d="M190.2,182.3s-.1,0-.3,0c-.2,0-.5-.2-.8-.4-.7-.4-1.6-1.2-2.2-2.6-.6-1.4-1-3.3-.6-5.4.4-2.1,1.6-4.3,3.2-6.4,1.6-2.2,3.5-4.3,4.9-7.1.7-1.4,1.1-2.9,1.2-4.6,0-1.6-.5-3.3-1-4.9-.6-1.7-1.1-3.4-1-5.3,0-1.9.6-3.8,1.6-5.5,1-1.7,2.4-3.2,4.1-4.2,1.7-1.1,3.8-1.5,5.8-1.7,2-.2,4-.3,5.8-1,1.8-.6,3.2-2,4.1-3.7.9-1.6,1.4-3.5,1.9-5.2.5-1.8,1.2-3.5,2-5.1,1.6-3.1,3.9-5.8,6.6-7.5,2.7-1.7,5.7-2.4,8.4-2.2,2.7.2,5,1.2,6.6,2.7,1.6,1.4,2.5,3.1,3,4.5.5,1.4.5,2.6.4,3.4,0,.8-.2,1.2-.2,1.2,0,0,0-.4.1-1.2,0-.8,0-1.9-.5-3.3-.5-1.4-1.4-3-3-4.4-1.5-1.4-3.8-2.4-6.4-2.6-2.6-.2-5.5.5-8.1,2.2-2.6,1.6-4.8,4.2-6.4,7.3-.8,1.5-1.4,3.2-1.9,5-.5,1.8-1,3.6-2,5.3-.5.9-1,1.7-1.8,2.4-.7.7-1.6,1.2-2.6,1.6-1.9.7-4,.8-6,1.1-2,.2-4,.6-5.6,1.6-1.7,1-3,2.4-4,4-1,1.6-1.5,3.4-1.6,5.2,0,1.8.4,3.5,1,5.2.5,1.7,1.1,3.4,1,5.1,0,1.7-.6,3.3-1.2,4.7-1.4,2.9-3.4,5-4.9,7.2-1.6,2.1-2.8,4.2-3.2,6.3-.4,2-.1,3.9.5,5.2.6,1.3,1.4,2.2,2.1,2.6.6.4,1.1.5,1,.6Z"/>
                <path class="cls-16" d="M241.6,105.2s.3,0,.7.2c.4.2,1,.5,1.7,1,1.3,1,2.8,2.9,3.2,5.5.4,2.6-.5,4.9-1.5,6.2-.5.7-.9,1.2-1.3,1.5-.4.3-.6.4-.6.4,0,0,.8-.7,1.6-2.1.8-1.3,1.6-3.5,1.3-5.9-.4-2.4-1.7-4.3-2.9-5.3-1.2-1.1-2.2-1.4-2.1-1.5Z"/>
                <path class="cls-16" d="M280.8,226.6c0,0,.3-.6.5-1.9.2-1.2.1-3.1-.9-5.1-.9-2-2.9-3.9-5.6-5.2-1.3-.6-2.8-1.2-4.3-1.5-1.6-.4-3.2-.7-4.9-1.3-1.6-.5-3.3-1.3-4.5-2.4-1.3-1.2-1.9-2.8-2.1-4.2-.3-1.5-.4-2.9-.7-4.2-.3-1.3-.9-2.3-1.6-3.2-1.4-1.7-3.1-2.5-4.3-2.9-1.2-.4-1.9-.4-1.9-.4,0,0,.2,0,.5,0,.3,0,.8,0,1.4.2,1.2.3,3,1.1,4.5,2.9.7.9,1.4,2,1.7,3.3.4,1.3.5,2.7.7,4.2.3,1.4.8,2.9,2,4,1.1,1.1,2.7,1.8,4.3,2.3,1.6.5,3.3.9,4.8,1.3,1.6.4,3.1.9,4.4,1.6,2.7,1.3,4.8,3.4,5.7,5.5,1,2.1,1,4,.7,5.3-.1.6-.3,1.1-.5,1.4-.2.3-.2.5-.3.4Z"/>
              </g>
              <path class="cls-9" d="M203.8,195.3c-9-2.4-16.7-11.2-19.8-19.9-3.1-8.7-3.1-18.3-2.3-27.5.6-6.7,1.8-13.8,6.2-18.8,6.7-7.6,14-11.5,24.1-11.2"/>
            </g>
            <g>
              <path class="cls-15" d="M256.1,214.8l-8.4-2.1c2-1.6,2.5-3.6,1.7-5.8-1-2.7-3.6-4.4-6.4-4.7l-38.1-4.3c-1.4-.2-2.7.6-3.2,1.9-1.7,4.3-1.7,7.8-.2,10.6h-.2s-7.3,1.5-7.3,1.5l-12.4,109.7,81.5-3.8-7-102.9Z"/>
              <g>
                <path class="cls-9" d="M244.1,213.1s-.5.1-1.5.3c-1,.2-2.4.3-4.2.5-3.6.3-8.5.6-14,.3-5.5-.3-10.4-1-13.9-1.7-1.8-.3-3.2-.7-4.1-.9-1-.3-1.5-.4-1.5-.4,0,0,.6,0,1.5.2,1,.2,2.4.5,4.2.8,3.5.6,8.4,1.3,13.9,1.5,5.4.3,10.4.1,13.9-.1,1.8-.1,3.2-.2,4.2-.3,1,0,1.5-.1,1.6,0Z"/>
                <path class="cls-1" d="M207.3,230.5c-.1,0,1.2-2.2,2.9-4.7,1.7-2.5,3.2-4.5,3.3-4.5.1,0-1.2,2.2-2.9,4.7-1.7,2.5-3.2,4.5-3.3,4.5Z"/>
                <path class="cls-1" d="M233.6,232.4c-.1,0-1.7-1.7-3.6-4.1-1.9-2.3-3.3-4.3-3.2-4.4s1.7,1.7,3.6,4.1c1.9,2.3,3.3,4.3,3.2,4.4Z"/>
                <path class="cls-1" d="M221.4,246.3c-.1,0-.7-2.4-1.2-5.5-.5-3-.9-5.5-.7-5.6.1,0,.7,2.4,1.2,5.5.5,3,.9,5.5.7,5.5Z"/>
                <path class="cls-1" d="M241.4,247.2c.1.1-2,2.3-4.6,4.9-2.7,2.6-4.9,4.7-5,4.6-.1-.1,2-2.3,4.6-4.9,2.7-2.6,4.9-4.7,5-4.6Z"/>
                <path class="cls-1" d="M214.5,265.9c0,.1-2.5-1.4-5-4-2.4-2.6-3.8-5.1-3.7-5.2.1,0,1.7,2.3,4.1,4.8,2.4,2.5,4.7,4.2,4.6,4.3Z"/>
                <path class="cls-1" d="M223.2,280.3c0,.1-2.3.9-4.9,2.3-2.6,1.4-4.6,2.9-4.7,2.8,0,0,1.7-1.8,4.4-3.2,2.7-1.4,5.1-2,5.2-1.8Z"/>
                <path class="cls-1" d="M237.2,281.3c0,0-.7-.6-1.6-1.7-.9-1.1-2.1-2.7-3.4-4.5-1.3-1.8-2.4-3.5-3.1-4.7s-1.2-2-1.1-2.1c0,0,.6.7,1.4,1.9.9,1.3,2,2.9,3.2,4.6,1.2,1.7,2.3,3.2,3.3,4.5.8,1.2,1.4,1.9,1.3,1.9Z"/>
                <path class="cls-1" d="M238.6,293.6c0,.1-2.6.8-6,1.4-3.4.6-6.1.7-6.1.6,0-.1,2.7-.6,6.1-1.1,3.4-.5,6.1-1,6.1-.9Z"/>
                <path class="cls-1" d="M215.9,211.5c0,0,.4-.6.8-1.7.4-1,.7-2.6.4-4.3-.2-1.7-.8-3.2-1.3-4.3-.4-1.1-.7-1.7-.7-1.8,0,0,.5.6,1,1.6.5,1,1.2,2.5,1.5,4.3.3,1.8,0,3.5-.6,4.6-.5,1.1-1.1,1.6-1.2,1.5Z"/>
                <path class="cls-1" d="M231.1,203.3c.1,0,1,1.3,1.5,3.3.5,2,.2,3.6.1,3.6-.2,0-.2-1.6-.6-3.5-.4-1.9-1.1-3.3-1-3.4Z"/>
              </g>
            </g>
            <g>
              <path class="cls-7" d="M299.8,281.5l37.9-66.6,4.6-11.5s11.8-25.4,12.6-28c1-3,2.6-3.2,3.7-2.8,1.7.7,2.2,3.2,1.5,5.8-.3.9-4.8,14.8-4.8,14.8,0,0,1-1,3.9-2.9,2.9-2,8.2-1.9,13.2-.1,4.9,1.8,6.2,2.7,5.6,4.6-.2.8-.9,1.3-1.6,1.6-1.2.5-2.5.5-3.7,0-7.9-2.7-11.5.9-11.5.9l-.6,1.5s6-1.9,9.4.8c.6.4.9.9,1.2,1.4,2.1.7,3.8,2.5,4.3,4.7.5,2.3-.2,4.8-1.9,6.4-.8.8-2,1.3-3,.8-.5-.3-.8-.8-1.1-1.3-.2-.3-.3-.5-.5-.8l-2.3,4s-5.6,8.7-7.6,12.8l-26.1,69.5c-3.6,9.6-14.4,14.4-24,10.7h0c-10.4-4.1-14.8-16.5-9.2-26.2Z"/>
              <g>
                <path class="cls-7" d="M340.3,214.7c1.3.9,3.2.3,4.4-.8s2-2.5,3.2-3.6c3.4-3.4,9-3.7,12.2-7.2.4-.5.8-1.2.5-1.8-.4-.5-1.1-.4-1.7-.3-5.2,1-10.3,2-15.5,3.1"/>
                <path class="cls-10" d="M343.3,204.1c0,0,.6-.2,1.6-.5,1.1-.3,2.6-.6,4.5-1,2-.4,4.3-.9,6.8-1.4.6-.1,1.3-.3,2-.4.6,0,1.4-.5,2.4,0,.5.3.6.9.5,1.4-.1.5-.3.8-.6,1.1-.5.6-1.1,1.1-1.7,1.5-2.6,1.8-5.4,2.5-7.7,3.7-1.1.6-2.1,1.2-2.9,2-.8.8-1.4,1.7-2.1,2.4-1.3,1.6-2.9,2.4-4.1,2.3-1.2,0-1.7-.6-1.6-.6,0,0,.6.3,1.6.2,1.1,0,2.5-.8,3.6-2.4.6-.7,1.2-1.7,2-2.5.8-.9,1.9-1.6,3.1-2.2,2.3-1.3,5.1-2,7.5-3.7.6-.4,1.1-.9,1.6-1.4.4-.5.6-1.1.3-1.2-.3-.2-1,0-1.7,0-.7.1-1.3.3-2,.4-2.5.5-4.8.9-6.8,1.2-1.9.3-3.5.6-4.6.8-1.1.2-1.7.2-1.7.2Z"/>
              </g>
              <path class="cls-10" d="M360.4,198.8c.1,0,.3-1.2,1.8-2.4.7-.6,1.8-1,3-1,1.2,0,2.6.3,4,.7,1.4.4,2.8.8,4.1.9,1.3,0,2.5,0,3.4-.5.9-.4,1.4-1.3,1.5-1.8,0-.6,0-.9,0-.9,0,0,0,.3-.2.8-.1.5-.6,1.1-1.4,1.5-.8.4-2,.5-3.2.4-1.2-.1-2.5-.5-3.9-.9-1.4-.4-2.8-.7-4.1-.6-1.3,0-2.5.5-3.2,1.2-.8.7-1.2,1.4-1.4,1.9-.2.5-.2.8-.2.8Z"/>
              <path class="cls-10" d="M360.3,177.3c0,0-.4,1-.9,2.8-.6,1.9-1.3,4.2-2.1,6.7-.8,2.5-1.6,4.8-2.2,6.7-.6,1.7-.9,2.8-.8,2.8,0,0,.6-1,1.2-2.7.7-1.7,1.5-4,2.3-6.7.8-2.6,1.5-5,1.9-6.8.4-1.8.6-2.9.5-2.9Z"/>
              <path class="cls-10" d="M362.5,203s.3,0,.9,0c.6,0,1.5,0,2.2.6.3.3.5.8.4,1.4-.1.6-.4,1.1-.7,1.8-.3.6-.6,1.4-.4,2.3.2.8.9,1.5,1.8,1.8.9.3,1.8.1,2.5-.2.7-.4,1.3-.9,1.7-1.6.6-1.3.9-2.5,1.1-3.6.2-1.1.2-1.9,0-2.5-.1-.6-.3-.9-.4-.9,0,0,0,.3.1.9,0,.6,0,1.4-.2,2.4-.2,1-.5,2.2-1.2,3.4-.6,1.1-2.1,2-3.5,1.6-.7-.2-1.2-.8-1.4-1.4-.2-.6,0-1.3.3-1.9.3-.6.6-1.2.7-1.9.1-.7,0-1.4-.5-1.8-.9-.8-1.9-.6-2.5-.5-.6.1-.9.2-.9.3Z"/>
              <path class="cls-10" d="M369.1,210s-.2.3-.2.8c0,.5.3,1.4,1.2,2,.8.6,2.2.7,3.4,0,1.2-.6,2.1-1.8,2.5-3.2.5-1.4.4-2.9,0-4.1-.4-1.2-1.1-2.2-1.9-2.8-.7-.6-1.4-1-1.9-1.2-.5-.2-.8-.2-.8-.2,0,.1,1.1.4,2.5,1.6.6.6,1.3,1.5,1.6,2.7.3,1.1.4,2.5,0,3.8-.4,1.3-1.2,2.4-2.2,2.9-1,.6-2.2.5-2.9,0-.7-.4-1.1-1.2-1.2-1.6,0-.5,0-.8,0-.8Z"/>
              <path class="cls-10" d="M356.4,216.3s-.5-.3-1.3-.4c-.9,0-2.2,0-3.5.8l.4.3c.1-.6.2-1.3.3-2,.3-3.9-.9-6.8-1-6.8-.2,0,.8,3,.4,6.7,0,.7-.1,1.3-.3,1.9v.7c-.1,0,.4-.4.4-.4,1.1-.7,2.3-.9,3.2-.9.8,0,1.3.1,1.4,0Z"/>
              <path class="cls-10" d="M364.3,192.6c-.2,0,0,1.2,1.1,2.1,1.1.9,2.2,1,2.2.8,0-.2-1-.5-1.9-1.3-.9-.8-1.3-1.7-1.5-1.7Z"/>
            </g>
            <path class="cls-5" d="M192.8,131.2"/>
            <g>
              <g>
                <path class="cls-11" d="M246,336.8l39.6.4-6.7-28.8,2.2,5.4c4.2,10.3,14.2,16.9,25.3,16.9h0c12.5,0,21.2-9.3,26.5-20.7,12.4-26.6,24.4-69.3,24.4-69.3l-24.2-21.2c-17.5,33.1-33.9,61.8-33.9,61.8,0,0-4.7-14.4-8.4-27.3-3.7-12.9-3.6-19.6-9.3-26.1-8.7-9.9-21-12.3-32.5-15.3l-.4,53.4-2.6,70.6"/>
                <path class="cls-11" d="M200.6,296.9l72.2,14.1,3.5,27.7h-110.7c-12.8.2-23-10.7-22-23.5,1.6-20.2,3.3-45.1,4.6-55.6,1-8.2,4.3-16.7,8.2-24,5.6-10.5,24.2-24,40.5-24.7l3.1,68.8"/>
              </g>
              <path class="cls-9" d="M186.9,294.9s0-.2,0-.7c0-.5,0-1.1,0-1.9,0-1.7,0-4.1,0-7,0-5.9-.1-14-.6-22.9-.2-4.5-.5-8.7-.8-12.6-.3-3.9-.6-7.4-1.5-10.2-.8-2.8-2.1-4.9-3.2-6-1.1-1.2-1.9-1.6-1.9-1.7,0,0,.9.4,2.1,1.5,1.2,1.1,2.5,3.2,3.4,6.1.9,2.8,1.3,6.4,1.6,10.2.3,3.9.6,8.1.9,12.6.5,9,.5,17.1.4,23,0,2.9-.1,5.3-.2,7,0,.8,0,1.4-.1,1.9,0,.4,0,.7,0,.7Z"/>
              <path class="cls-9" d="M271.4,313c0,0-.7-1-2.6-2.1-.9-.5-2.2-1.1-3.7-1.5-1.5-.4-3.2-.8-5.2-1.2-7.7-1.6-18.4-3.8-30.2-6-11.8-2.2-22.5-4-30.3-5.2-3.9-.6-7-1.1-9.2-1.5-1.1-.2-1.9-.3-2.5-.4-.6-.1-.9-.2-.9-.2,0,0,.3,0,.9,0,.6,0,1.5.2,2.5.3,2.2.3,5.3.7,9.2,1.3,7.8,1.2,18.5,2.9,30.4,5.1,11.8,2.2,22.5,4.5,30.2,6.1,1.9.4,3.7.8,5.2,1.2,1.5.5,2.8,1,3.7,1.6,1,.6,1.6,1.2,2,1.6.2.2.3.4.4.5,0,.1.1.2.1.2Z"/>
              <path class="cls-9" d="M187.1,294.9c0,0-1.3.4-3.4,1.2-1,.4-2.2,1-3.5,1.7-1.3.8-2.6,1.7-3.9,2.7-1.3,1.1-2.4,2.3-3.4,3.4-.9,1.1-1.7,2.2-2.3,3.1-1.2,1.9-1.7,3.2-1.8,3.1,0,0,0-.3.3-.9.2-.6.6-1.4,1.2-2.4.6-1,1.3-2.1,2.2-3.3,1-1.1,2.1-2.3,3.4-3.5,1.3-1.1,2.7-2,4-2.8,1.3-.7,2.5-1.3,3.6-1.6,1.1-.4,1.9-.6,2.6-.8.6-.1,1-.2,1-.1Z"/>
              <path class="cls-9" d="M280.3,312.2s0-.2-.1-.7c0-.5-.2-1.2-.3-2-.3-1.7-.6-4.2-1.1-7.3-.8-6.2-1.9-14.8-2.7-24.3-.9-9.5-1.4-18.1-1.7-24.4-.1-3.1-.2-5.6-.3-7.4,0-.8,0-1.5,0-2,0-.5,0-.7,0-.7,0,0,0,.2,0,.7,0,.5,0,1.2.1,2,.1,1.8.2,4.3.4,7.4.4,6.2,1,14.8,1.8,24.3.9,9.5,1.8,18.1,2.6,24.3.4,3.1.7,5.5.9,7.3,0,.8.2,1.5.2,2,0,.5,0,.7,0,.7Z"/>
              <path class="cls-9" d="M304.3,301.5s-.2-.2-.6-.7c-.4-.4-.8-1.1-1.3-2-1-1.7-2.2-4.3-2.9-7.3-.7-3-.8-5.8-.6-7.9,0-1,.2-1.8.3-2.4.1-.6.2-.9.2-.8,0,0-.1,1.2-.2,3.2,0,2,0,4.8.8,7.7.7,3,1.8,5.5,2.7,7.3.9,1.8,1.7,2.8,1.6,2.8Z"/>
              <path class="cls-12" d="M186.6,257.8s-.1,0-.4,0c-.2,0-.6,0-1.1.1-.9,0-2.3,0-4-.3-1.7-.3-3.6-.9-5.7-1.8-2.1-.9-4.3-2-6.6-3.1-2.3-1.1-4.5-2.1-6.7-2.8-2.1-.7-4.1-1.1-5.7-1.1-3.4-.2-5.3.7-5.4.6,0,0,.1,0,.3-.2.2,0,.6-.2,1-.3.9-.3,2.3-.5,4-.5,1.7,0,3.7.4,5.9,1,2.2.7,4.4,1.6,6.7,2.8,2.3,1.1,4.5,2.3,6.5,3.1,2,.9,3.9,1.5,5.6,1.9,3.3.7,5.4.4,5.4.5Z"/>
              <path class="cls-12" d="M199,255.3c0,.1-2.6.7-5.9,1.3-3.3.6-5.9.9-6,.8,0-.1,2.6-.7,5.9-1.3,3.3-.6,5.9-.9,6-.8Z"/>
              <path class="cls-12" d="M186.1,276.8s-.5.3-1.5.6c-1,.4-2.3.9-4.1,1.4-3.5,1.1-8.3,2.5-13.8,3.4-2.7.5-5.4.8-7.8,1.1-2.4.3-4.6.4-6.4.2-1.8-.2-3.3-.7-4.2-1.2-.5-.2-.8-.5-1-.6-.2-.2-.3-.3-.3-.3,0,0,.5.3,1.4.7.9.4,2.3.9,4.1,1,1.8.1,3.9,0,6.3-.3,2.4-.3,5-.6,7.7-1.1,5.5-1,10.3-2.2,13.8-3.3,1.7-.5,3.1-1,4.1-1.3,1-.3,1.5-.5,1.5-.4Z"/>
              <path class="cls-12" d="M198.7,282.1c0,.1-2.4.3-5.4.4-3,0-5.5,0-5.5-.2,0-.1,2.4-.3,5.4-.4,3,0,5.5,0,5.5.2Z"/>
              <path class="cls-12" d="M147.2,327.6s0-.2.1-.5c.1-.4.2-.9.4-1.5,0-.3.2-.7.3-1.1.1-.4.3-.8.5-1.3.3-.9.7-1.9,1.2-3,.3-.5.5-1.1.8-1.7.3-.6.7-1.2,1-1.8.7-1.3,1.6-2.5,2.5-3.8,1.9-2.6,4.2-5.2,7-7.7,2.8-2.4,5.8-4.4,8.6-5.9,1.4-.7,2.8-1.4,4.1-1.9.7-.3,1.3-.5,1.9-.7.6-.2,1.2-.4,1.8-.6,1.1-.4,2.2-.6,3.2-.8.5-.1.9-.2,1.3-.3.4,0,.8-.1,1.1-.1.6,0,1.1-.1,1.5-.2.4,0,.5,0,.5,0s-.2,0-.5.1c-.4,0-.9.2-1.5.3-.3,0-.7.1-1.1.2-.4,0-.8.2-1.3.3-.9.2-2,.5-3.1.9-.6.2-1.2.4-1.8.6-.6.2-1.2.5-1.9.8-1.3.5-2.6,1.2-4.1,1.9-2.8,1.5-5.7,3.5-8.4,5.9-2.7,2.4-5.1,5-7,7.6-.9,1.3-1.8,2.5-2.5,3.8-.4.6-.7,1.2-1,1.8-.3.6-.6,1.1-.8,1.7-.6,1.1-.9,2.1-1.3,3-.2.4-.4.8-.5,1.2-.1.4-.2.7-.3,1.1-.2.6-.4,1.1-.5,1.5-.1.3-.2.5-.2.5Z"/>
              <path class="cls-12" d="M197.4,296.9c.1,0-2.2,1.5-4.1,5.2-1,1.8-1.8,4.1-2.3,6.8-.5,2.7-.7,5.6-.9,8.8-.2,3.1-.4,6.2-1,8.9-.6,2.7-1.5,5-2.5,6.8-1,1.8-2.2,3.1-3,3.9-.4.4-.8.7-1.1.8-.3.2-.4.3-.4.2-.1,0,2.2-1.5,4.2-5.1,1-1.8,1.8-4.1,2.4-6.8.5-2.7.8-5.6,1-8.8s.4-6.2,1-8.9c.6-2.7,1.4-5,2.4-6.9,1-1.8,2.1-3.1,3-3.9.4-.4.8-.7,1-.8.3-.2.4-.3.4-.2Z"/>
              <path class="cls-12" d="M214.4,338.9c-.1,0,0-8.6.4-19.2.3-10.6.7-19.2.9-19.2.1,0,0,8.6-.4,19.2-.3,10.6-.7,19.2-.9,19.2Z"/>
              <path class="cls-12" d="M241.6,337.4s-.2-.4-.4-1.2c-.1-.4-.3-.9-.4-1.5-.1-.6-.3-1.3-.4-2-.3-1.5-.5-3.3-.5-5.3,0-2,0-4.2.4-6.6.4-2.3.9-4.5,1.6-6.4.7-1.9,1.4-3.6,2.1-4.9.3-.7.7-1.3,1-1.8.3-.5.6-1,.8-1.3.5-.7.8-1.1.8-1.1,0,0-1,1.6-2.3,4.3-.7,1.4-1.3,3-2,4.9-.6,1.9-1.1,4-1.5,6.3-.3,2.3-.5,4.5-.5,6.5,0,2,.2,3.8.4,5.3.4,3,1,4.8.9,4.8Z"/>
              <path class="cls-12" d="M195.5,226.9c0,0-1.6-.6-4.2-1.4-2.6-.8-6.3-1.7-10.4-2.1-4.1-.4-7.9-.1-10.6.3-2.7.4-4.3.8-4.4.7,0,0,.4-.2,1.1-.4.7-.2,1.8-.5,3.2-.7,2.7-.5,6.5-.8,10.7-.4,4.2.4,7.9,1.3,10.5,2.3,1.3.5,2.3.9,3,1.2.7.3,1.1.5,1.1.6Z"/>
              <path class="cls-12" d="M274.5,269c0,0-1.4,0-3.7,0-2.3,0-5.4-.2-8.9-.3-3.5,0-6.7-.1-8.9-.1s-3.7,0-3.7-.1c0,0,.4,0,1-.1.6,0,1.6,0,2.7-.1,2.3,0,5.5,0,9,0,3.5,0,6.7.3,8.9.5,1.1,0,2.1.2,2.7.3.6,0,1,.1,1,.2Z"/>
              <path class="cls-12" d="M294.2,265.2c0,0-1.3.5-3.2,1.5-1.9,1-4.5,2.5-7,4.7-2.5,2.2-4.3,4.6-5.5,6.4-1.2,1.8-1.8,3.1-1.8,3,0,0,0-.3.3-.9.2-.6.6-1.4,1.2-2.3,1.1-1.9,2.9-4.4,5.5-6.6,2.5-2.2,5.2-3.8,7.2-4.7,1-.4,1.8-.8,2.4-.9.6-.2.9-.3.9-.2Z"/>
              <path class="cls-12" d="M284.5,233.2c0,.1-2-.3-5.1.7-1.5.5-3.2,1.3-5.1,2.3-1.9,1-4,2.1-6.3,2.8-4.7,1.5-9.4,1.4-12.5.8-1.6-.3-2.8-.7-3.7-1-.8-.3-1.3-.5-1.3-.6,0-.1,1.9.7,5,1.2,3.1.5,7.7.6,12.3-.9,2.3-.7,4.4-1.8,6.3-2.8,1.9-1,3.7-1.8,5.2-2.2,1.6-.5,2.9-.6,3.8-.5.5,0,.8,0,1,0,.2,0,.4,0,.4,0Z"/>
              <path class="cls-12" d="M279.5,300.2s-.4.2-1.2.5c-.4.2-.9.4-1.4.5-.6.2-1.2.4-1.9.6-1.4.4-3.2.8-5.1,1.1-1.9.2-4.1.4-6.4.3-2.3,0-4.4-.4-6.3-.7-1.9-.4-3.6-.9-5-1.4-.7-.2-1.3-.5-1.9-.7-.5-.2-1-.4-1.4-.6-.7-.4-1.1-.6-1.1-.6,0,0,1.7.7,4.5,1.6,1.4.5,3.1.9,5,1.2,1.9.3,4,.6,6.3.7,2.2,0,4.4,0,6.3-.3,1.9-.2,3.6-.6,5.1-.9,2.8-.7,4.5-1.4,4.6-1.3Z"/>
              <path class="cls-12" d="M302.5,329.8s-.1,0-.4-.3c-.2-.2-.6-.5-1-1-.9-.9-2-2.3-3.2-4.2-2.3-3.8-4.3-9.9-4.5-16.7-.1-6.9,1.2-12.9,2.3-17.3.5-2.2,1-3.9,1.4-5.1.2-.5.3-1,.4-1.4.1-.3.2-.5.2-.5s0,.2,0,.5c0,.4-.2.8-.3,1.4-.3,1.3-.7,3-1.2,5.1-1,4.3-2.2,10.4-2.1,17.2.1,6.8,2,12.8,4.3,16.6,1.1,1.9,2.2,3.4,3,4.3.8.9,1.3,1.4,1.3,1.5Z"/>
              <path class="cls-12" d="M338.9,295.8c0,.1-1.7-1.7-5.3-3-1.8-.6-3.9-1.2-6.4-1.7-2.4-.5-5.2-.9-8-1.8-5.6-1.8-10-5-12.7-7.6-1.4-1.3-2.4-2.5-3-3.4-.3-.4-.5-.8-.7-1-.2-.2-.2-.4-.2-.4,0,0,.4.4,1.1,1.2.7.8,1.7,1.9,3.1,3.2,2.7,2.6,7.1,5.6,12.6,7.4,2.7.9,5.4,1.3,7.9,1.9,2.5.5,4.7,1.1,6.4,1.8,1.8.7,3.1,1.5,3.9,2.2.4.3.7.6.9.8.2.2.3.3.3.3Z"/>
              <path class="cls-12" d="M350.3,262.4s-.4-.3-1.1-.9c-.3-.3-.7-.7-1.2-1.1-.5-.4-1-.9-1.7-1.4-1.3-1-2.8-2.1-4.6-3.3-1.8-1.1-3.9-2.2-6.2-3.2-2.3-1-4.5-1.7-6.6-2.2-2.1-.5-4-.9-5.6-1.1-.8-.1-1.5-.2-2.2-.2-.6,0-1.2-.1-1.6-.1-.9,0-1.4,0-1.4-.1s.5,0,1.4,0c.5,0,1,0,1.7,0,.6,0,1.4,0,2.2.2,1.6.2,3.6.5,5.7,1,2.1.5,4.4,1.3,6.7,2.2,2.3,1,4.4,2.1,6.2,3.3,1.8,1.2,3.4,2.3,4.6,3.4.6.5,1.2,1,1.6,1.5.5.4.9.8,1.2,1.2.6.7,1,1,.9,1.1Z"/>
              <path class="cls-12" d="M262.8,216.5c0,0-.7.4-1.9.9-1.2.5-2.9,1-4.9,1.5-1.9.4-3.7.7-5,.8-1.3.1-2.1,0-2.1,0,0-.2,3.2-.4,7-1.3,3.8-.9,6.8-2.1,6.9-1.9Z"/>
            </g>
            <g>
              <path class="cls-7" d="M298.3,357.4c.6,1.9-1.1,3.8-3.1,3.5h0c-1.1-.1-2-.9-2.3-2l-.8-3.1h.1c.5,1.9-1.3,3.7-3.2,3.5h0c-1.3,0-2.4-1.9-2.8-2.9h0c-2.2.3-4.2-1-5.1-2.4l-5.9-9.2-10.9-8,6.6-23.5,23.4,15.1c.9.7,1.1,1,2.5,2.4l15.1,13.9c-1.7,1-3.2.9-5.5,0s-12.8-8-12.8-8l4.7,20.7"/>
              <path class="cls-10" d="M278.3,338.1s.3.1.7.4c.2.2.5.3.8.5.3.2.7.5,1,.8.3.4.6.8.8,1.4.2.5.4,1.1.6,1.6.4,1.2.8,2.4,1.3,3.8.9,2.7,1.7,5.1,2.2,6.9.5,1.8.8,2.9.8,2.9s-.5-1-1.1-2.8c-.6-1.7-1.5-4.1-2.4-6.8-.4-1.3-.9-2.6-1.2-3.8-.2-.6-.4-1.1-.5-1.6-.2-.5-.4-.9-.7-1.3-.3-.4-.6-.6-.9-.8-.3-.2-.5-.4-.7-.6-.4-.3-.6-.5-.6-.6Z"/>
              <path class="cls-10" d="M292.3,356.3s-.2-.3-.3-1c-.2-.7-.5-1.6-.8-2.7-.6-2.3-1.5-5.4-2.6-8.8-1.1-3.4-2.2-6.5-3.6-8.3-.7-.9-1.4-1.6-1.9-1.9-.5-.3-.9-.4-.9-.5,0,0,0,0,.3,0,.2,0,.4.1.7.3.6.3,1.4.9,2.1,1.9,1.5,1.9,2.7,5,3.8,8.4,1.1,3.4,1.9,6.6,2.4,8.9.3,1.1.5,2.1.6,2.7.1.6.2,1,.1,1Z"/>
              <path class="cls-10" d="M298.4,357.7s-.2-.4-.4-1c-.3-.8-.6-1.8-.9-2.9-.8-2.5-1.8-5.9-2.9-9.7-1.1-3.7-2-7.1-2.7-9.7-.4-1.2-1-2-1.6-2.4-.6-.4-1-.5-1-.5,0,0,.1,0,.3,0,.2,0,.5.1.8.3.6.4,1.4,1.2,1.8,2.5.8,2.5,1.8,5.9,2.9,9.7,1.1,3.8,2,7.2,2.7,9.7.3,1.2.6,2.2.8,3,.2.7.2,1.1.2,1.1Z"/>
            </g>
          </g>
        </g>
      </g>
      <g id="Speech_Bubble">
        <g>
          <g>
            <path class="cls-16" d="M440.5,140.9c0,1.9,1.6,3.5,3.5,3.5s3.5-1.6,3.5-3.5-1.6-3.5-3.5-3.5c-1.9,0-3.5,1.6-3.5,3.5Z"/>
            <circle class="cls-16" cx="430" cy="140.9" r="3.5"/>
            <path class="cls-16" d="M412.5,139.1c-1,1.7-.4,3.8,1.3,4.8s3.8.4,4.8-1.3c1-1.7.4-3.8-1.3-4.8-1.7-1-3.8-.4-4.8,1.3Z"/>
          </g>
          <path class="cls-16" d="M429.7,100s-.2,0-.7,0c-.5,0-1.2,0-2.1,0-.5,0-1,0-1.5,0-.6,0-1.2.2-1.8.3-.7,0-1.4.2-2.1.3-.8.2-1.5.4-2.4.6-3.4.9-7.4,2.3-11.6,5.1-4.2,2.7-8.5,6.5-12,11.7-3.4,5.2-6.1,11.7-6.8,19.1,0,1.8-.3,3.7-.1,5.6,0,.9,0,1.9.2,2.9.1,1,.3,1.9.4,2.9.8,3.8,1.9,7.8,3.9,11.4,1.9,3.7,4.4,7.1,7.5,10.3,3.1,3,6.7,5.7,10.7,7.7,4,2.1,8.5,3.5,13.1,4,1.1.2,2.3.2,3.5.3,1.2,0,2.3.1,3.5,0,2.4,0,4.7-.4,7.1-.9,5.1-1.1,9.9-3.2,14.1-5.9h-.4c4.9,2,9.7,3.9,14.3,5.8l.8.3-.2-.9c-1.4-5.3-2.9-10.4-4.2-15.3v.4c4-5.3,6.5-11.4,7.6-17.5.5-3,.8-6.1.6-9,0-1.5-.1-2.9-.4-4.3-.1-.7-.2-1.4-.3-2.1-.1-.7-.3-1.4-.5-2-2.8-10.8-9.4-18.8-16-23.3-3.3-2.3-6.5-4-9.5-5-.7-.3-1.5-.5-2.1-.8-.7-.2-1.4-.4-2-.5-.6-.2-1.3-.3-1.9-.5-.6-.1-1.2-.2-1.7-.3-1.1-.1-2-.3-2.9-.4-.8,0-1.5,0-2.1,0-.5,0-1,0-1.3,0-.3,0-.4,0-.4,0s.1,0,.4,0c.3,0,.8,0,1.3.1.6,0,1.3,0,2.1.1.8,0,1.8.3,2.8.4,4.2.8,10.5,2.5,17,7.2,6.5,4.6,12.9,12.5,15.6,23.1.2.7.4,1.3.5,2,.1.7.2,1.4.3,2.1.3,1.4.3,2.8.4,4.2.2,2.9,0,5.8-.6,8.8-1.1,5.9-3.6,11.9-7.5,17.1v.2c-.1,0,0,.2,0,.2,1.4,5,2.7,10.1,4.2,15.3l.6-.5c-4.7-1.9-9.5-3.8-14.3-5.8h-.2c0,0-.2,0-.2,0-4.1,2.7-8.8,4.7-13.8,5.8-2.3.5-4.6.8-6.9.9-1.2,0-2.3,0-3.5,0-1.1,0-2.3,0-3.4-.3-4.5-.5-8.9-1.9-12.8-3.9-3.9-2-7.5-4.6-10.5-7.5-3-3-5.4-6.4-7.3-10-1.9-3.6-3.1-7.4-3.9-11.2-.1-.9-.3-1.9-.4-2.8-.1-.9-.1-1.9-.2-2.8-.2-1.9,0-3.7,0-5.5.7-7.2,3.2-13.6,6.6-18.8,3.4-5.1,7.6-8.9,11.7-11.6,4.1-2.7,8.1-4.2,11.4-5.1.8-.2,1.6-.4,2.4-.6.8-.1,1.5-.2,2.1-.3.7-.1,1.3-.2,1.8-.3.6,0,1.1,0,1.5-.1.9,0,1.6-.1,2.1-.2.5,0,.7,0,.7,0Z"/>
        </g>
      </g>
    </g>
  </g>
</svg>