<?xml version="1.0" encoding="UTF-8"?>
<svg xmlns="http://www.w3.org/2000/svg" viewBox="0 0 693.09 435.94">
  <defs>
    <style>
      .cls-1, .cls-2 {
        fill: #bfdd7d;
      }

      .cls-3, .cls-4 {
        fill: #ffbe9d;
      }

      .cls-5 {
        fill: #ebebeb;
      }

      .cls-6 {
        fill: #263238;
      }

      .cls-7 {
        fill: #eb996e;
      }

      .cls-4, .cls-2 {
        stroke: #000;
        stroke-miterlimit: 10;
        stroke-width: .25px;
      }

      .cls-8 {
        fill: #fff;
      }

      .cls-9 {
        opacity: .6;
      }

      .cls-10 {
        opacity: .3;
      }

      .cls-11 {
        fill: #f5f5f5;
      }

      .cls-12 {
        fill: #455a64;
      }

      .cls-13 {
        fill: #222221;
      }

      .cls-14 {
        fill: #e0e0e0;
      }
    </style>
  </defs>
  <g id="Background_Complete">
    <path class="cls-5" d="M585.09,75.82c.59-4.28-5.45-7.8-9.98-8.16-2.16-.17-4.41.16-6.46-.56-4.44-1.55-6.21-7.28-10.55-9.11-3.24-1.37-6.97-.15-10.11,1.43-3.14,1.58-6.24,3.57-9.75,3.79-3.05.2-6.37-.94-9.04.55-1.99,1.11-3.03,3.4-4.87,4.76-1.79,1.32-4.13,1.6-6.36,1.72-2.23.12-4.53.14-6.56,1.07-2.03.93-3.7,3.07-3.28,5.26l76.95-.76Z"/>
    <path class="cls-11" d="M412.26,315.42c.81-1.08-34.4-56.61-34.4-56.61l-25.19-3.98-25.94,33.9-11.01-5.16-77.04,30.09-53.98-68.8-8.23,8.57-21.64-32.17-13.88,30.77-21.42,53.09-14.49-10.81-40.24,40.93h384.91s-38.25-18.74-37.44-19.83Z"/>
    <path class="cls-14" d="M551.88,334.28c0,.14-114.96.26-256.73.26s-256.75-.12-256.75-.26,114.93-.26,256.75-.26,256.73.12,256.73.26Z"/>
    <path class="cls-14" d="M533.23,349.05c0,.14-25.02.26-55.88.26s-55.89-.12-55.89-.26,25.02-.26,55.89-.26,55.88.12,55.88.26Z"/>
    <path class="cls-5" d="M145.55,119.23c.86-6.26-7.97-11.4-14.6-11.94-3.16-.26-6.45.23-9.45-.82-6.49-2.26-9.09-10.65-15.42-13.32-4.74-2-10.19-.22-14.78,2.09s-9.13,5.22-14.26,5.55c-4.46.29-9.31-1.37-13.21.81-2.91,1.62-4.43,4.98-7.11,6.95-2.62,1.94-6.05,2.34-9.3,2.52-3.25.18-6.62.21-9.59,1.57-2.96,1.36-5.42,4.49-4.8,7.69l112.53-1.11Z"/>
    <path class="cls-11" d="M602.73,222.94c.75-5.44-6.93-9.92-12.7-10.38-2.75-.22-5.61.2-8.22-.71-5.65-1.97-7.9-9.27-13.42-11.59-4.12-1.74-8.86-.19-12.86,1.82-3.99,2.01-7.94,4.54-12.41,4.83-3.88.25-8.1-1.19-11.49.71-2.53,1.41-3.86,4.33-6.19,6.05-2.28,1.68-5.26,2.04-8.09,2.19-2.83.15-5.76.18-8.34,1.36-2.58,1.18-4.71,3.91-4.18,6.69l97.89-.97Z"/>
    <path class="cls-11" d="M413.79,52.13c.53-3.84-4.89-7-8.96-7.33-1.94-.16-3.96.14-5.8-.5-3.99-1.39-5.58-6.54-9.47-8.18-2.91-1.23-6.26-.13-9.08,1.28-2.82,1.42-5.61,3.2-8.76,3.41-2.74.18-5.72-.84-8.11.5-1.79,1-2.72,3.06-4.37,4.27-1.61,1.19-3.71,1.44-5.71,1.55s-4.07.13-5.89.96-3.33,2.76-2.95,4.72l69.09-.68Z"/>
    <path class="cls-14" d="M693.09,421.48c-1.4-27.6-.79-18.01-2.19-45.61l-49.22-27.43-44.25,17.4-7.78,12.61c-4.71,7.63-11.18,14.02-18.82,18.72-9.46,5.83-22.22,14.98-26.84,24.31h149.1Z"/>
    <polygon class="cls-14" points="0 354.1 50.54 370.86 110.05 421.48 0 421.48 0 354.1"/>
    <g>
      <path class="cls-14" d="M607.31,286.97l10.5,74.78,2.73.09c-1.74-25.4-3.6-51.31-13.23-74.87Z"/>
      <path class="cls-14" d="M636.47,283.47c-7.34,8.04-10.29,19.09-12.14,29.81-2.63,15.2-2.87,33.15-2.08,48.56l3.83.08c-1.55-26.62,2.05-53.14,10.39-78.46Z"/>
      <path class="cls-14" d="M609.24,331.21c-.84-3.7-1.81-7.47-3.92-10.63-2.86-4.26-7.51-6.96-12.19-9.06-4.68-2.1-9.61-3.78-13.84-6.68,4.72,7.74,15.44,9.8,20.89,17.04,2.72,3.6,3.84,8.12,4.91,12.51,2.32,9.56,3.75,17.83,6.07,27.39h3.11c-1.02-10.39-2.7-20.39-5.02-30.57Z"/>
      <path class="cls-14" d="M628.88,361.84s2.63-29.7,4.58-35.15c1.95-5.45,20.38-20.52,20.21-19.81-.18.71-13.83,17.19-15.78,20.56-1.95,3.37-5.32,34.4-5.32,34.4h-3.69Z"/>
    </g>
    <path class="cls-14" d="M517.06,356.71s-.22.04-.63.05c-.47.01-1.07.03-1.81.05-1.64.02-3.91.05-6.67.08-5.69.02-13.45.05-22.02.08-8.57-.03-16.33-.06-22.02-.08-2.77-.03-5.03-.06-6.67-.08-.74-.02-1.34-.04-1.81-.05-.41-.02-.63-.03-.63-.05s.22-.04.63-.05c.47-.01,1.07-.03,1.81-.05,1.64-.02,3.9-.05,6.67-.08,5.69-.02,13.45-.05,22.02-.08,8.57.03,16.32.06,22.02.08,2.77.03,5.03.06,6.67.08.74.02,1.34.04,1.81.05.41.02.63.03.63.05Z"/>
  </g>
  <g id="Plants">
    <g>
      <path class="cls-1" d="M554.84,371.49c1.32.88,2.13,2.38,2.4,3.94.27,1.56.03,3.17-.42,4.69-.87,2.94-3.12,5.66-5.38,7.72-2.13-2.65-2.03-6.6-1.85-8.59.28-3.16,2.71-8.69,5.25-7.76"/>
      <path class="cls-1" d="M553.49,393.32c-.1-1.77.93-3.5,2.44-4.42,1.51-.93,3.41-1.09,5.12-.65.79.2,1.62.59,1.96,1.34.32.69.12,1.55-.35,2.15-.47.6-1.16,1-1.87,1.28-2.43.98-4.96,1.49-7.3.3"/>
      <path class="cls-6" d="M548.62,401.92s.06-.22.2-.6c.16-.42.36-.96.6-1.61.53-1.34,1.24-3.27,2.67-5.01,1.41-1.74,3.16-2.89,4.54-3.37.69-.25,1.27-.37,1.68-.41.2-.03.36-.03.47-.03.11,0,.16,0,.16,0,0,.05-.91.05-2.25.58-1.34.51-3.03,1.66-4.42,3.37-1.4,1.7-2.13,3.6-2.69,4.93-.28.67-.5,1.21-.67,1.58-.17.37-.27.57-.28.57Z"/>
      <path class="cls-6" d="M553.36,375.87s0,.1-.02.27c-.02.2-.05.46-.09.78-.08.68-.22,1.66-.39,2.86-.35,2.41-.88,5.74-1.55,9.41-.67,3.66-1.35,6.96-1.88,9.35-.26,1.19-.48,2.15-.65,2.82-.08.31-.14.57-.19.76-.05.17-.07.26-.08.26,0,0,0-.1.04-.27.04-.2.09-.45.15-.77.14-.7.34-1.66.58-2.83.49-2.39,1.14-5.69,1.81-9.35.67-3.66,1.22-6.98,1.61-9.39.19-1.18.35-2.15.46-2.85.05-.32.1-.57.13-.77.03-.18.05-.27.06-.27Z"/>
      <path class="cls-1" d="M548.8,394.36c.07-3.73-1.79-7.44-4.81-9.62-.77-.55-1.82-1.01-2.63-.51-.81.5-.85,1.66-.67,2.59.77,3.88,4.1,7.12,8.01,7.77"/>
      <path class="cls-6" d="M543.89,387.66s.18.11.49.33c.16.11.35.25.55.43.2.18.45.37.68.62.24.24.51.51.76.82.27.3.52.65.79,1.02.51.75,1,1.63,1.37,2.61.37.98.59,1.96.7,2.86.04.45.09.88.08,1.29.02.4-.02.78-.04,1.12-.01.34-.08.65-.12.92-.04.27-.09.5-.14.68-.09.37-.15.57-.17.57-.05-.01.19-.83.27-2.18.02-.34.04-.71.02-1.1,0-.4-.05-.82-.1-1.26-.12-.88-.34-1.84-.7-2.81-.37-.96-.85-1.83-1.34-2.57-.25-.37-.5-.72-.76-1.02-.24-.32-.5-.58-.73-.83-.95-.97-1.64-1.45-1.61-1.49Z"/>
    </g>
    <g>
      <path class="cls-12" d="M86.91,420.42l.43-.05c-.87-13.03-7.41-26.94-12.15-39.14-4.87-12.54-9.44-25.43-20.53-33.05,11.99,23.36,22.76,47.75,32.25,72.23"/>
      <path class="cls-12" d="M94.69,354.35s-.01.06-.04.17c-.04.12-.09.28-.15.48-.15.44-.35,1.06-.61,1.85-.14.4-.29.85-.45,1.34-.15.49-.31,1.03-.49,1.61-.34,1.16-.76,2.46-1.13,3.93-.19.73-.4,1.5-.61,2.3-.21.8-.38,1.64-.58,2.51-.42,1.73-.76,3.61-1.14,5.57-.68,3.95-1.27,8.31-1.62,12.92-.32,4.61-.38,9.02-.28,13.02.08,2,.14,3.9.3,5.68.07.89.12,1.75.2,2.57.09.82.17,1.61.25,2.36.14,1.51.35,2.86.51,4.06.08.6.16,1.15.23,1.66.08.51.16.97.23,1.39.13.82.24,1.47.31,1.93.03.21.06.37.07.5.02.11.02.17.02.17,0,0-.84-3.66-1.57-9.69-.09-.75-.17-1.54-.27-2.37-.09-.82-.14-1.68-.21-2.57-.17-1.78-.23-3.68-.32-5.69-.11-4.01-.06-8.43.26-13.05.35-4.62.95-9,1.65-12.95.39-1.97.73-3.84,1.16-5.58.21-.87.39-1.71.6-2.51.22-.8.43-1.57.62-2.3.38-1.47.82-2.77,1.17-3.92.18-.57.35-1.11.51-1.6.17-.48.33-.93.47-1.33.28-.78.51-1.4.66-1.84.07-.2.13-.35.18-.48.04-.11.07-.16.07-.16Z"/>
      <g>
        <rect class="cls-11" x="82.54" y="352.61" width="22.32" height="6.65" rx="2.98" ry="2.98" transform="translate(-274.29 349.05) rotate(-74.18)"/>
        <path class="cls-6" d="M91,366.77s.18.05.53.07c.34.03.88,0,1.48-.27.59-.27,1.25-.84,1.54-1.73.27-.9.54-1.95.87-3.1.65-2.31,1.41-5.05,2.26-8.09.43-1.52.88-3.12,1.34-4.77.21-.79.06-1.69-.44-2.38-.25-.34-.57-.63-.95-.84-.37-.21-.81-.3-1.25-.43-.84-.24-1.77-.07-2.45.44-.34.25-.62.57-.82.94-.21.36-.29.78-.41,1.2-.47,1.65-.93,3.25-1.36,4.77-.87,3.03-1.66,5.77-2.32,8.07-.17.57-.32,1.12-.47,1.64-.15.52-.31,1-.3,1.46,0,.94.46,1.68.93,2.12.48.46.99.62,1.32.72.15.05.28.09.38.12.09.03.13.05.13.05,0,0-.05,0-.14-.02-.1-.03-.23-.06-.39-.1-.33-.09-.87-.23-1.38-.7-.5-.44-.99-1.21-1.01-2.2-.02-.49.14-1,.28-1.51.14-.52.3-1.07.46-1.64.65-2.31,1.41-5.05,2.26-8.09.43-1.52.88-3.12,1.34-4.77.12-.4.2-.85.43-1.25.22-.4.53-.76.9-1.03.74-.56,1.77-.74,2.69-.48.43.13.89.22,1.31.45.41.23.77.54,1.04.92.55.75.71,1.74.48,2.61-.47,1.65-.92,3.25-1.36,4.77-.87,3.03-1.66,5.77-2.32,8.07-.34,1.15-.62,2.19-.91,3.1-.32.93-1.03,1.51-1.65,1.77-.63.27-1.18.27-1.53.22-.35-.04-.52-.12-.52-.12Z"/>
      </g>
      <path class="cls-12" d="M89.71,420.38c-.41-10.06-.42-21.12,5.28-29.41,3.23-4.7,8.09-8.08,13.29-10.42,5.2-2.34,10.77-3.7,16.31-5.06-6.17,8.65-20.14,8.74-26.06,17.57-1.75,2.62-2.58,5.73-3.37,8.78-1.64,6.3-3.09,12.28-4.73,18.59"/>
      <path class="cls-12" d="M45.66,385.08s.05,0,.14,0c.11.01.24.03.4.04.35.05.87.09,1.53.22,1.33.21,3.23.63,5.51,1.38,2.28.74,4.92,1.89,7.66,3.51,1.36.82,2.74,1.76,4.11,2.82,1.36,1.08,2.69,2.28,3.96,3.6,1.27,1.32,2.4,2.73,3.4,4.14.52.7.96,1.42,1.42,2.11.42.72.86,1.41,1.23,2.11,1.54,2.79,2.6,5.46,3.32,7.75.72,2.29,1.12,4.2,1.31,5.53.12.66.15,1.18.19,1.53.02.16.03.29.04.4,0,.09,0,.14,0,.14,0,0-.02-.05-.03-.13-.02-.11-.04-.24-.07-.4-.06-.35-.11-.87-.24-1.52-.22-1.32-.65-3.21-1.39-5.49-.74-2.27-1.82-4.92-3.36-7.69-.37-.7-.8-1.38-1.23-2.09-.46-.69-.9-1.41-1.42-2.1-1-1.4-2.12-2.79-3.38-4.1-1.26-1.32-2.58-2.51-3.93-3.58-1.35-1.06-2.73-1.99-4.07-2.82-2.72-1.62-5.33-2.78-7.6-3.54-2.26-.77-4.15-1.22-5.47-1.46-.65-.14-1.17-.2-1.52-.27-.16-.03-.29-.05-.4-.07-.09-.02-.13-.03-.13-.03Z"/>
      <g>
        <rect class="cls-11" x="42.33" y="372.62" width="6.65" height="22.32" rx="2.98" ry="2.98" transform="translate(-320 258.61) rotate(-64.32)"/>
        <path class="cls-6" d="M55.87,388.3s.08-.17.16-.51c.09-.33.16-.86,0-1.5-.16-.63-.61-1.38-1.44-1.82-.84-.42-1.83-.87-2.91-1.39-2.16-1.03-4.73-2.25-7.58-3.61-1.43-.68-2.92-1.4-4.47-2.14-.74-.35-1.66-.35-2.42.02-.38.19-.72.46-.99.79-.27.33-.43.75-.64,1.16-.38.79-.37,1.73.01,2.49.19.38.46.71.79.97.32.26.72.42,1.11.61,1.55.75,3.04,1.47,4.47,2.16,2.84,1.38,5.4,2.62,7.55,3.67.54.26,1.05.51,1.53.75.49.24.93.48,1.39.54.92.15,1.73-.16,2.25-.56.53-.39.78-.87.94-1.18.08-.14.14-.26.19-.35.04-.08.07-.12.07-.12,0,0-.01.05-.05.13-.04.1-.1.22-.16.37-.14.31-.38.82-.92,1.24-.52.42-1.36.77-2.34.62-.49-.06-.96-.31-1.44-.54-.49-.23-1-.47-1.54-.73-2.16-1.03-4.73-2.25-7.58-3.61-1.43-.68-2.92-1.4-4.47-2.14-.38-.19-.8-.35-1.16-.64-.36-.28-.66-.65-.86-1.07-.42-.83-.43-1.87-.02-2.73.2-.4.36-.84.67-1.21.29-.37.67-.67,1.09-.87.84-.41,1.84-.4,2.65-.02,1.55.75,3.04,1.47,4.47,2.15,2.84,1.38,5.4,2.62,7.55,3.67,1.07.53,2.05.99,2.9,1.43.86.48,1.31,1.27,1.47,1.92.16.67.06,1.21-.04,1.54-.1.34-.21.5-.21.5Z"/>
      </g>
    </g>
  </g>
  <g id="Route">
    <g>
      <g>
        <path class="cls-6" d="M628.33,155.45c0-.14,1.34-.26,3-.26s3,.12,3,.26-1.34.26-3,.26-3-.12-3-.26Z"/>
        <path class="cls-6" d="M604.36,155.45c0-.14,2.68-.26,5.99-.26s5.99.12,5.99.26-2.68.26-5.99.26-5.99-.12-5.99-.26Z"/>
        <path class="cls-6" d="M580.39,155.45c0-.14,2.68-.26,5.99-.26s5.99.12,5.99.26-2.68.26-5.99.26-5.99-.12-5.99-.26Z"/>
        <path class="cls-6" d="M556.41,155.45c0-.14,2.68-.26,5.99-.26s5.99.12,5.99.26-2.68.26-5.99.26-5.99-.12-5.99-.26Z"/>
        <path class="cls-6" d="M532.44,155.45c0-.14,2.68-.26,5.99-.26s5.99.12,5.99.26-2.68.26-5.99.26-5.99-.12-5.99-.26Z"/>
        <path class="cls-6" d="M508.48,154.92c.02-.14,2.69.04,5.99.16,3.3.13,5.98.22,5.98.37,0,.14-2.69.28-6.01.15-3.32-.12-5.99-.54-5.97-.68Z"/>
        <path class="cls-6" d="M487.28,145.22c.13-.11,1.79,2.02,4.46,3.93,2.66,1.93,5.16,2.93,5.09,3.09-.02.06-.68-.12-1.68-.55-1-.43-2.35-1.13-3.71-2.12-2.74-1.97-4.26-4.29-4.15-4.35Z"/>
        <path class="cls-6" d="M480.73,122.56c.13,0,.3,2.67.7,5.94.39,3.27.96,5.89.82,5.93-.14.04-.94-2.55-1.34-5.86-.41-3.3-.35-6.01-.19-6.01Z"/>
        <path class="cls-6" d="M472,100.73c.09-.09,2,1.86,3.75,4.7,1.77,2.84,2.64,5.42,2.51,5.47-.14.06-1.21-2.4-2.95-5.19-1.73-2.8-3.43-4.87-3.31-4.97Z"/>
        <path class="cls-6" d="M452.32,87.56c.03-.13,2.67.54,5.67,2.01,3,1.46,5.16,3.12,5.08,3.22-.09.13-2.34-1.32-5.31-2.76-2.95-1.45-5.48-2.33-5.44-2.48Z"/>
        <path class="cls-6" d="M428.6,86.65c-.03-.13,2.58-.87,5.91-1.11,1.66-.13,3.18-.1,4.26-.05,1.08.05,1.76.1,1.76.18,0,.07-.67.15-1.76.19-1.09.04-2.57.08-4.22.2-3.28.24-5.92.74-5.95.59Z"/>
        <path class="cls-6" d="M407.77,97.85c-.1-.09,1.69-2.14,4.38-4.12,2.68-1.99,5.16-3.11,5.22-2.99.07.14-2.27,1.45-4.91,3.41-2.65,1.95-4.58,3.81-4.69,3.7Z"/>
        <path class="cls-6" d="M397.3,118.94c-.13,0,.01-2.73.99-5.93.97-3.21,2.36-5.55,2.47-5.49.14.07-1.03,2.49-1.98,5.64-.97,3.14-1.34,5.8-1.49,5.78Z"/>
        <path class="cls-6" d="M396.75,142.91c-.14,0-.22-2.69-.17-6,.05-3.31.2-5.99.35-5.99.14,0,.22,2.69.17,6-.05,3.31-.2,5.99-.35,5.99Z"/>
        <path class="cls-6" d="M396.41,166.88c-.14,0-.22-2.69-.17-6,.05-3.31.2-5.99.35-5.99.14,0,.22,2.69.17,6-.05,3.31-.2,5.99-.35,5.99Z"/>
        <path class="cls-6" d="M396.06,190.85c-.14,0-.22-2.69-.17-6,.05-3.31.2-5.99.35-5.99.14,0,.22,2.69.17,6-.05,3.31-.2,5.99-.35,5.99Z"/>
        <path class="cls-6" d="M389.45,213.44c-.13-.09,1.39-2.31,2.82-5.27,1.45-2.95,2.24-5.52,2.39-5.47.13.03-.45,2.69-1.92,5.7-1.46,3.01-3.18,5.12-3.29,5.04Z"/>
        <path class="cls-6" d="M370.65,227.76c-.05-.15,2.44-1.14,5.32-2.73,2.89-1.58,5.06-3.15,5.15-3.03.09.1-1.97,1.88-4.9,3.48-2.92,1.61-5.53,2.4-5.57,2.27Z"/>
        <path class="cls-6" d="M347.01,230.54c0-.13,2.68-.25,5.99-.25.81,0,1.58,0,2.33.01.65,0,1.28-.02,1.9-.02,1.08,0,1.76.04,1.76.11s-.66.17-1.75.26c-.62.04-1.25.09-1.91.14-.72.03-1.51.02-2.33.03-3.31,0-6-.12-5.99-.27Z"/>
        <path class="cls-6" d="M324.36,223.63c.09-.13,2.36,1.29,5.35,2.67,2.98,1.39,5.53,2.22,5.49,2.37-.03.13-2.68-.49-5.71-1.9-3.03-1.4-5.21-3.03-5.13-3.14Z"/>
        <path class="cls-6" d="M309.41,205.39c.15-.06,1.14,2.43,2.81,5.27,1.66,2.84,3.33,4.94,3.21,5.04-.1.09-1.97-1.88-3.66-4.77-1.7-2.88-2.49-5.49-2.37-5.53Z"/>
        <path class="cls-6" d="M307.14,181.69c.14,0,.26,2.68.26,5.99,0,3.31-.12,5.99-.25,5.99-.15,0-.27-2.68-.27-5.99,0-3.31.12-5.99.26-5.99Z"/>
        <path class="cls-6" d="M307.14,157.71c.14,0,.26,2.68.26,5.99s-.12,5.99-.26,5.99-.26-2.68-.26-5.99.12-5.99.26-5.99Z"/>
        <path class="cls-6" d="M307.14,133.74c.14,0,.26,2.68.26,5.99s-.12,5.99-.26,5.99-.26-2.68-.26-5.99.12-5.99.26-5.99Z"/>
        <path class="cls-6" d="M307.14,109.76c.14,0,.26,2.68.26,5.99s-.12,5.99-.26,5.99-.26-2.68-.26-5.99.12-5.99.26-5.99Z"/>
        <path class="cls-6" d="M307.09,85.79c.07,0,.15.66.23,1.75.05,1.09.08,2.58.08,4.24,0,3.31-.12,5.99-.26,5.99s-.26-2.68-.26-5.99c0-1.65.03-3.15.07-4.24.02-1.08.07-1.75.14-1.76Z"/>
        <path class="cls-6" d="M298.04,64.07c.09-.09,2.03,1.82,3.81,4.65,1.8,2.82,2.68,5.4,2.55,5.45-.14.06-1.23-2.39-2.99-5.17-1.75-2.78-3.49-4.82-3.37-4.93Z"/>
        <path class="cls-6" d="M277.9,51.68c.03-.13,2.69.41,5.76,1.73,3.07,1.31,5.29,2.88,5.22,2.99-.08.13-2.4-1.22-5.42-2.51-3.02-1.31-5.59-2.06-5.55-2.21Z"/>
        <path class="cls-6" d="M254.11,50.9c-.03-.13,2.6-.8,5.94-.97,1.67-.09,3.17-.02,4.25.02,1.08.05,1.76.11,1.76.18s-.67.14-1.76.18c-1.09.06-2.58.05-4.23.14-3.29.16-5.93.6-5.96.45Z"/>
        <path class="cls-6" d="M232.99,61.57c-.1-.09,1.75-2.09,4.49-4,2.74-1.92,5.24-2.97,5.3-2.85.07.14-2.3,1.39-5,3.28-2.7,1.88-4.68,3.68-4.79,3.57Z"/>
        <path class="cls-6" d="M221.9,82.34c-.13-.01.1-2.73,1.18-5.9,1.07-3.17,2.53-5.47,2.64-5.4.14.07-1.1,2.45-2.14,5.57-1.06,3.11-1.52,5.75-1.67,5.73Z"/>
        <path class="cls-6" d="M221.49,106.29c-.14,0-.26-2.68-.26-5.99s.12-5.99.26-5.99.26,2.68.26,5.99-.12,5.99-.26,5.99Z"/>
        <path class="cls-6" d="M221.49,130.26c-.14,0-.26-2.68-.26-5.99s.12-5.99.26-5.99.26,2.68.26,5.99-.12,5.99-.26,5.99Z"/>
        <path class="cls-6" d="M220.88,154.2c-.15-.03.3-2.67.34-5.96,0-3.3.12-5.99.26-5.99.14,0,.26,2.68.26,6-.04,3.35-.74,5.99-.87,5.95Z"/>
        <path class="cls-6" d="M209.12,174.61c-.1-.12,1.86-1.94,3.94-4.49,2.1-2.54,3.49-4.83,3.62-4.75.12.06-1.09,2.5-3.22,5.08-2.12,2.59-4.27,4.26-4.35,4.16Z"/>
        <path class="cls-6" d="M187.72,184.69c-.02-.15,2.61-.63,5.76-1.6,3.15-.96,5.6-2.04,5.67-1.9.06.12-2.32,1.43-5.52,2.4-3.19.98-5.9,1.24-5.91,1.11Z"/>
        <path class="cls-6" d="M163.77,185.49c0-.14,2.68-.3,5.99-.34,3.31-.05,5.99.03,6,.18s-2.68.3-5.99.34c-3.31.05-5.99-.03-6-.18Z"/>
        <path class="cls-6" d="M139.8,185.83c0-.14,2.68-.3,5.99-.34,3.31-.05,5.99.03,6,.18,0,.14-2.68.3-5.99.34-3.31.05-5.99-.03-6-.18Z"/>
        <path class="cls-6" d="M115.83,186.16c0-.14,2.68-.3,5.99-.34,3.31-.05,5.99.03,6,.18,0,.14-2.68.3-5.99.34-3.31.05-5.99-.03-6-.18Z"/>
        <path class="cls-6" d="M91.86,186.5c0-.14,2.68-.3,5.99-.34,3.31-.05,5.99.03,6,.18s-2.68.3-5.99.34c-3.31.05-5.99-.03-6-.18Z"/>
        <path class="cls-6" d="M73.8,186.75c0-.14,1.34-.28,3-.3,1.66-.02,3,.07,3,.22s-1.34.28-3,.3c-1.66.02-3-.07-3-.22Z"/>
      </g>
      <path class="cls-1" d="M273.24,35.21c0-4.39-3.97-7.85-8.51-7-2.86.54-5.14,2.87-5.64,5.74-.31,1.79.06,3.48.87,4.87h0l.02.03c.27.46.62.79.96,1.27l4.14,5.48c.52.68,1.54.68,2.05,0l4.07-5.39s.76-.91,1.04-1.37v-.02s.01,0,.01,0c.62-1.06.98-2.29.98-3.6ZM266.11,38.31c-1.73,0-3.14-1.4-3.14-3.14s1.4-3.14,3.14-3.14,3.14,1.4,3.14,3.14-1.4,3.14-3.14,3.14Z"/>
      <path class="cls-1" d="M543.56,140.76c0-4.39-3.97-7.85-8.51-7-2.86.54-5.14,2.87-5.64,5.74-.31,1.79.06,3.48.87,4.87h0l.02.03c.27.46.62.79.96,1.27l4.14,5.48c.52.68,1.54.68,2.05,0l4.07-5.39s.76-.91,1.04-1.37v-.02s.01,0,.01,0c.62-1.06.98-2.29.98-3.6ZM536.43,143.87c-1.73,0-3.14-1.4-3.14-3.14s1.4-3.14,3.14-3.14,3.14,1.4,3.14,3.14-1.4,3.14-3.14,3.14Z"/>
      <path class="cls-12" d="M443.37,70.16c0-4.39-3.97-7.85-8.51-7-2.86.54-5.14,2.87-5.64,5.74-.31,1.79.06,3.48.87,4.87h0l.02.03c.27.46.62.79.96,1.27l4.14,5.48c.52.68,1.54.68,2.05,0l4.07-5.39s.76-.91,1.04-1.37v-.02s.01,0,.01,0c.62-1.06.98-2.29.98-3.6ZM436.25,73.27c-1.73,0-3.14-1.4-3.14-3.14s1.4-3.14,3.14-3.14,3.14,1.4,3.14,3.14-1.4,3.14-3.14,3.14Z"/>
      <path class="cls-12" d="M149.52,165.07c0-5.43-4.9-9.71-10.52-8.65-3.53.66-6.35,3.55-6.97,7.09-.39,2.21.07,4.3,1.08,6.02h0l.03.03c.34.57.76.98,1.19,1.58l5.12,6.78c.64.84,1.9.84,2.54,0l5.03-6.67s.94-1.12,1.28-1.7l.02-.02h0c.77-1.31,1.22-2.83,1.22-4.45ZM140.7,168.91c-2.14,0-3.88-1.74-3.88-3.88s1.74-3.88,3.88-3.88,3.88,1.74,3.88,3.88-1.74,3.88-3.88,3.88Z"/>
    </g>
  </g>
  <g id="Character">
    <g>
      <g>
        <path class="cls-12" d="M309.14,137.63c-5.43-.46-10.89.99-15.83,3.3-5.23,2.44-10.16,6.05-12.77,11.2-2.6,5.15-2.31,12.03,1.79,16.08-7.88,2.09-13.81,9.1-16.29,16.87-2.48,7.77-1.95,16.2-.38,24.2.74,3.78,2.08,7.98,5.56,9.61,2.25,1.06,4.99.81,7.11,2.1,2.06,1.25,3.06,3.65,4.38,5.66,2.53,3.83,6.68,6.56,11.2,7.36,4.52.81,9.36-.32,13.06-3.05l16.15-85.88c-3.16-4.44-8.56-6.98-13.99-7.44Z"/>
        <path class="cls-6" d="M320,146.87s-.37.5-1.11,1.34c-.74.84-1.83,2.05-3.21,3.5-2.77,2.89-6.7,6.88-11.85,10.29-5.15,3.41-10.58,5.2-14.6,5.62-2.01.23-3.65.21-4.77.1-.56-.03-.99-.12-1.29-.16-.29-.05-.44-.08-.44-.1,0-.04.62.01,1.74.06,1.12.05,2.74.01,4.71-.26,3.95-.51,9.28-2.32,14.36-5.69,5.08-3.37,9.04-7.29,11.87-10.11,1.36-1.38,2.48-2.52,3.33-3.38.79-.8,1.24-1.23,1.26-1.2Z"/>
        <path class="cls-6" d="M288.5,172.61c-.06.02-.32-.4-.53-1.17-.22-.76-.34-1.89-.15-3.1.19-1.21.66-2.24,1.1-2.9.44-.67.82-.99.87-.95.13.09-1.11,1.62-1.45,3.93-.39,2.3.32,4.14.17,4.18Z"/>
        <path class="cls-6" d="M293.94,175.79s.09.16.23.47c.13.32.33.78.54,1.39.45,1.21,1.01,3,1.52,5.26,1.03,4.48,1.72,11.06-.03,17.98-1.76,6.93-5.76,12.33-9.31,15.29-1.77,1.51-3.37,2.51-4.53,3.1-.56.32-1.04.49-1.35.64-.31.13-.48.2-.49.18-.02-.04.62-.35,1.74-.99,1.12-.64,2.67-1.67,4.38-3.2,3.44-3,7.32-8.33,9.05-15.14,1.72-6.81,1.1-13.3.18-17.77-.46-2.25-.97-4.05-1.36-5.28-.38-1.23-.61-1.91-.57-1.92Z"/>
        <path class="cls-6" d="M296.72,189.32s-.45-.06-1.22-.27c-.78-.21-1.9-.49-3.3-.82-2.79-.65-6.7-1.39-11.05-1.79-4.36-.39-8.33-.36-11.2-.21-1.43.07-2.59.15-3.39.22-.8.06-1.25.08-1.25.04,0-.04.43-.12,1.23-.24.8-.13,1.96-.26,3.39-.38,2.87-.24,6.88-.33,11.27.06,4.39.4,8.31,1.2,11.1,1.95,1.39.37,2.51.71,3.27.98.76.26,1.18.43,1.17.46Z"/>
        <g class="cls-10">
          <path d="M283.43,167.55h0c5.44,3.51,12.77,3.1,18.54.16,5.77-2.94,10-8.42,12.23-14.5-7.54,8.66-18.71,14.97-30.77,14.34Z"/>
        </g>
        <g class="cls-10">
          <path d="M280.52,220.1c4.41-.21,8.95-2.76,11.45-6.4,2.5-3.64,3.65-8.04,4.19-12.42-1.57,3.79-3.18,7.4-5.48,10.8-1.15,1.69-2.81,2.95-4.31,4.33-1.5,1.38-3.93,2.73-5.84,3.7"/>
        </g>
        <path class="cls-6" d="M286.17,186.75c.07-.02.39.97.71,2.6.17.82.36,1.76.65,2.83.12.54.23,1.18.02,1.83-.2.61-.79,1.29-1.61,1.23-.8-.08-1.32-.7-1.54-1.33-.21-.65-.11-1.29.01-1.83.29-1.09.6-2,.85-2.8.5-1.58.85-2.55.92-2.53.07.02-.15,1.02-.56,2.63-.22.86-.47,1.8-.73,2.81-.11.51-.17,1.07,0,1.56.16.48.6.94,1.09.97.5.05.93-.39,1.1-.88.17-.49.1-1.05,0-1.56-.27-1.05-.43-2.06-.55-2.87-.22-1.64-.41-2.64-.34-2.66Z"/>
        <path class="cls-6" d="M309.81,154.61c-.04.06-1.25-.68-3.2-1.87-1.95-1.18-4.66-2.81-7.83-4.24-3.16-1.44-6.2-2.31-8.44-2.7-2.24-.4-3.66-.41-3.66-.5,0-.03.35-.07,1-.07.64,0,1.57.05,2.72.21,2.28.3,5.39,1.13,8.59,2.59,3.2,1.45,5.9,3.14,7.81,4.41.95.63,1.71,1.17,2.23,1.54s.79.6.77.63Z"/>
        <path class="cls-6" d="M308.31,153.94c.06,0,.12.34-.17.77-.26.41-.94.9-1.77.73h-.03s-.33-.06-.33-.06l.15-.31c.34-.69.95-1.09,1.41-1.23.46-.15.77-.09.77-.03,0,.08-.26.15-.62.36-.36.2-.81.58-1.09,1.13l-.17-.37h.02c.56.12,1.1-.17,1.37-.45.29-.28.37-.55.45-.54Z"/>
      </g>
      <g>
        <g>
          <g>
            <path class="cls-3" d="M392.78,152.02s-4.02-5.26-3.99-7.39l1.66-12.38s.71-1.25,1.84.82c1.03,1.9.44,4.84.44,4.84l.7,2.91,1.5-2.2,1.7-8.27s1.09-5.98,2.01-5.35c.93.62,1.2,2.36.73,4.94-.47,2.58-1.06,5.85-1.06,5.85,0,0-.12,1.02.84-.69.96-1.71,2.01-8.93,2.39-9.9.37-.97.52-3.55,1.99-3.41,1.47.14.61,3.43.61,3.43l-1.42,10.66s1.38-4.29,1.65-5.02c.26-.73.67-3.07,1.16-4.35.49-1.28,1.24-1.94,1.9-1.86,1.18.14,1.15,1.22,1.15,1.22l-2.19,9.12s-1.21,4.16-1.13,4.42c.08.26,1.62-1.73,1.62-1.73l1.17-2.95s.97-4.19,2.1-4.31c1.13-.12,1.17.73,1.17.73l-1.85,7.66-3.4,8.68-3.21,6.57s-4.48-.7-4.65-.47c-.17.23-5.42-1.55-5.42-1.55Z"/>
            <path class="cls-7" d="M400.72,148.33c-.08.03-.36-.75-.92-1.93-.56-1.14-1.5-2.81-3.32-3.54-.8-.33-1.64-.39-2.35-.18l-.26.08-.07-.29c-.29-1.27-.68-2.44-.87-3.24-.21-.81-.27-1.31-.2-1.32.05,0,.2.45.5,1.23.28.8.72,1.85,1.08,3.27l-.32-.21c.82-.27,1.81-.2,2.7.16.99.4,1.78,1.09,2.32,1.81.55.72.89,1.46,1.14,2.08.48,1.25.63,2.06.57,2.08Z"/>
          </g>
          <path class="cls-2" d="M358.13,146.02l22.16,33.11,9.96-28.86,13.61,3.36s-5.55,38.8-7.68,42.65c-2.12,3.85-8.77,9.4-16.95,8.29-8.18-1.12-24.62-23.2-24.62-23.2l3.52-35.35Z"/>
          <path class="cls-6" d="M383.02,192.43c-.17-.01.46-3.29-.42-7.2-.83-3.93-2.77-6.64-2.62-6.72.05-.04.6.59,1.27,1.74.67,1.15,1.42,2.87,1.86,4.87.43,2,.46,3.87.33,5.2-.13,1.33-.37,2.13-.43,2.11Z"/>
          <g class="cls-10">
            <path d="M359.81,188.41c1.49-.67,2.4-2.25,2.7-3.85.3-1.6.08-3.25-.15-4.87-.9-6.53-2.15-13.34-3.04-19.87l.35,27.91"/>
          </g>
          <g class="cls-10">
            <path d="M383.25,190.81c.89-.1,1.65-.78,2.03-1.6.38-.81.43-1.75.36-2.64-.29-3.36-2.44-6.5-5.47-7.98,2.05,3.69,3.4,8.01,3.09,12.22"/>
          </g>
        </g>
        <g>
          <path class="cls-1" d="M383.6,361.74l12.65,28.83,36.2-15.25c-1.67-3.36-24.77-1.65-24.77-1.65l-8.02-19.57-16.06,7.64Z"/>
          <g class="cls-9">
            <path class="cls-13" d="M397.28,376.07c-.62.49-.77,1.48-.31,2.11.46.64,1.47.8,2.1.33.63-.48.85-1.66.32-2.24-.53-.58-1.72-.71-2.22-.1"/>
          </g>
          <g class="cls-9">
            <path class="cls-13" d="M396.26,390.57l-1.14-2.97,35.13-13.51s1.91.02,2.2,1.23l-36.2,15.25Z"/>
          </g>
          <path class="cls-13" d="M408.37,373.77c.07.18-.78.63-1.41,1.57-.65.92-.78,1.87-.97,1.87-.18.03-.36-1.13.42-2.25.77-1.12,1.93-1.36,1.96-1.19Z"/>
          <path class="cls-13" d="M413.8,373.41c.11.15-.53.78-.81,1.78-.32.99-.13,1.86-.31,1.93-.15.1-.71-.88-.33-2.12.37-1.24,1.38-1.75,1.45-1.58Z"/>
          <path class="cls-13" d="M417.72,376.9c-.14.11-.76-.67-.72-1.83.04-1.16.71-1.89.85-1.77.16.1-.16.85-.18,1.8-.05.95.22,1.72.05,1.81Z"/>
          <path class="cls-13" d="M406.05,369.05c0,.19-.92.29-1.89.78-.98.47-1.62,1.13-1.77,1.02-.16-.08.33-1.06,1.48-1.62,1.15-.57,2.21-.36,2.18-.18Z"/>
        </g>
        <g>
          <g>
            <path class="cls-1" d="M256.74,390.01l-1.55-15.39,12.85-16.18-15.74-10.12-.42.63-8.02,12.08-10.39,8.21,16.5,27.1,16.07-1.07s-1.42-3.78-9.29-5.25Z"/>
            <g class="cls-9">
              <polygon class="cls-13" points="233.46 369.24 249.96 396.34 266.03 395.27 264.06 392.98 250.94 393.13 235.67 367.49 233.46 369.24"/>
            </g>
          </g>
          <path class="cls-13" d="M256.16,382.96c-.11.17-1.07-.29-2.31-.17-1.24.08-2.12.7-2.25.54-.16-.11.68-1.13,2.19-1.25,1.51-.13,2.51.74,2.37.88Z"/>
          <path class="cls-13" d="M255.65,379.15c-.15.12-.93-.78-2.23-.94-1.3-.18-2.28.49-2.4.33-.06-.07.11-.35.54-.63.43-.27,1.15-.51,1.95-.41.8.11,1.44.52,1.78.9.35.38.44.69.36.74Z"/>
          <path class="cls-13" d="M255.42,374.23c-.17.1-.78-.79-1.93-1.1-1.14-.33-2.13.12-2.22-.05-.05-.08.14-.32.57-.51.43-.2,1.11-.32,1.84-.12.72.2,1.25.66,1.51,1.05.27.39.31.69.23.73Z"/>
          <path class="cls-13" d="M259.47,370.13c-.19.08-.7-.8-1.74-1.38-1.02-.61-2.05-.61-2.07-.81-.07-.18,1.16-.54,2.42.19,1.27.72,1.58,1.96,1.39,1.99Z"/>
          <path class="cls-13" d="M261.34,366.7c-.08.06-.65-.55-1.52-1.59-.49-.6-.98-1.21-1.49-1.84-.26-.36-.6-.67-.83-1.25-.1-.29-.12-.65.03-.98.14-.35.58-.6.94-.57.71.06,1.12.39,1.55.68.42.31.76.67,1.05,1.05.57.76.87,1.57,1,2.26.25,1.41-.16,2.25-.22,2.22-.13-.02.08-.86-.27-2.1-.18-.62-.49-1.32-1.02-1.97-.27-.32-.58-.63-.95-.89-.36-.25-.82-.52-1.15-.53-.16,0-.23.05-.29.17-.06.12-.07.3-.01.46.11.34.45.71.7,1.08.46.66.92,1.3,1.37,1.93.76,1.11,1.19,1.83,1.12,1.89Z"/>
          <path class="cls-13" d="M261.95,367.13c-.08,0-.07-.85.73-1.87.78-.97,2.58-2.07,4.71-1.18.16.12.29.34.29.56,0,.22-.08.39-.16.52-.17.26-.38.4-.54.54-.36.29-.72.53-1.09.73-.73.4-1.46.62-2.07.73-1.24.22-2.01.03-2-.05,0-.11.76-.11,1.88-.44.56-.16,1.21-.42,1.87-.81.33-.2.66-.43.97-.69.16-.14.32-.27.39-.39.07-.15.05-.1.02-.14-.06-.06-.28-.11-.48-.14-.2-.03-.4-.05-.6-.05-.4,0-.78.06-1.14.16-.71.2-1.27.6-1.68.99-.81.82-1,1.58-1.11,1.54Z"/>
          <g class="cls-9">
            <path class="cls-13" d="M246.25,367.89c.07,1.05-.72,1.96-1.78,2.03-1.05.07-1.96-.72-2.04-1.78-.07-1.05.72-1.96,1.78-2.03,1.05-.07,1.96.72,2.04,1.78Z"/>
          </g>
        </g>
        <g>
          <path class="cls-1" d="M331.2,94.28c.8-3.27,1.77-6.55,3.52-9.43,1.75-2.88,4.38-5.35,7.62-6.29,3.19-.93,7.03-.74,10.2.25,2.62.82,4.42,2.23,6.25,3.83,2.98,2.59,4.52,6.64,5.79,10.38"/>
          <path class="cls-1" d="M366.7,93.28c-.58-3.59-2.56-6.96-5.46-9.15-2.87-2.17-6.5-3.14-10.09-3.42-5.61-.43-12.17,1.1-16.02,5.2-3.72,3.97-6.09,9.68-5.61,14.68.22,2.25,2.4,8.35,4.13,9.81l32.14-.83c1.93-3.09,1.5-12.7.92-16.29Z"/>
          <path class="cls-3" d="M366.09,100.02c-.72-9.23-8.41-16.35-17.67-16.37h-.92c-9.92.56-14.98,9.29-14.15,19.19l1.78,45.73h22.73l-.2-14.89s9.54-1.46,9.67-10.99c.07-4.6-.57-14.09-1.24-22.68Z"/>
          <path class="cls-7" d="M357.74,133.67s-6.09.35-12.48-3.68c0,0,2.92,6.87,12.44,6.03l.05-2.35Z"/>
          <path class="cls-6" d="M362.38,107.55c.02.72-.56,1.33-1.32,1.37-.75.04-1.38-.51-1.4-1.23-.02-.72.56-1.33,1.31-1.37.75-.04,1.38.51,1.4,1.23Z"/>
          <path class="cls-6" d="M364.03,104.68c-.17.18-1.2-.59-2.66-.59-1.46-.02-2.54.73-2.7.55-.08-.08.09-.4.56-.74.46-.34,1.25-.67,2.16-.66.91,0,1.68.34,2.12.69.45.35.6.67.52.75Z"/>
          <path class="cls-6" d="M348.29,108.2c.02.72-.57,1.33-1.32,1.37-.75.04-1.38-.51-1.4-1.23-.02-.72.57-1.33,1.31-1.37.75-.04,1.38.51,1.4,1.23Z"/>
          <path class="cls-6" d="M349.61,105.41c-.17.18-1.2-.59-2.66-.59-1.46-.02-2.54.73-2.7.55-.08-.08.09-.4.56-.74.46-.34,1.25-.67,2.16-.66.91,0,1.68.34,2.12.69.45.35.6.67.52.75Z"/>
          <path class="cls-6" d="M354.93,115.79c0-.08.9-.24,2.38-.42.37-.04.73-.11.79-.37.09-.27-.07-.67-.25-1.11-.35-.91-.72-1.86-1.1-2.85-1.53-4.06-2.63-7.4-2.47-7.46.16-.06,1.54,3.18,3.06,7.24.37,1,.72,1.95,1.05,2.87.14.43.38.91.19,1.47-.1.28-.38.48-.62.55-.24.07-.45.08-.64.09-1.49.08-2.41.08-2.41,0Z"/>
          <path class="cls-6" d="M350.61,116.8c.24-.01.24,1.58,1.6,2.71,1.36,1.13,3.05.96,3.06,1.18.02.1-.38.31-1.09.33-.7.02-1.73-.2-2.56-.9-.83-.69-1.18-1.62-1.24-2.27-.06-.66.12-1.06.23-1.05Z"/>
          <path class="cls-6" d="M350.37,102.09c-.14.4-1.6.23-3.32.45-1.72.19-3.1.71-3.33.35-.1-.17.13-.55.69-.94.55-.39,1.43-.77,2.46-.89,1.03-.12,1.98.03,2.61.28.63.25.95.56.89.75Z"/>
          <path class="cls-6" d="M364.39,100.44c-.28.36-1.54.14-3.02.28-1.48.09-2.71.5-3.03.18-.14-.16.02-.51.54-.88.51-.37,1.38-.71,2.4-.79,1.02-.08,1.93.13,2.48.42.56.29.76.61.64.79Z"/>
          <path class="cls-3" d="M334.77,109.9c-.16-.07-6.55-1.95-6.35,4.57.19,6.52,6.7,4.98,6.7,4.79,0-.19-.35-9.36-.35-9.36Z"/>
          <path class="cls-7" d="M333.63,116.85s-.11.08-.3.18c-.18.09-.5.16-.85.04-.7-.23-1.31-1.31-1.38-2.48-.03-.59.07-1.16.27-1.64.18-.48.48-.82.83-.9.34-.09.59.11.68.29.09.18.06.31.09.32.02.02.14-.11.08-.38-.03-.13-.11-.28-.27-.4-.16-.12-.39-.18-.63-.15-.5.05-.94.53-1.16,1.05-.24.52-.38,1.16-.34,1.83.08,1.31.79,2.52,1.74,2.76.46.11.84-.04,1.03-.2.2-.17.23-.31.2-.32Z"/>
          <path class="cls-6" d="M339.05,90.53l3.22-2.78,10.25,1.57,7.19-1.85,1.89,2.08c-.81,1.08.91-3.56-.73-4.8-3.53-2.68-6.52-2.58-10.95-2.66-4.43-.08-13.45,5.32-16.67,8.38-2.57,2.45-2.55,4.56-2.55,4.56-.41,3.52,1.56,7.53,2.35,10.99.4,1.78,1.18,7.18,1.18,7.18h0c1.5,0,2.05-1.2,1.83-2.68l-.28-5.81s5.09-3.62,2.68-10.24c-.39-.53-1.21-2.95.58-3.93Z"/>
          <path class="cls-6" d="M337.72,92.08c.58-1.86,2.6-3.02,4.55-2.99,1.95.03,3.77,1.04,5.19,2.37.37.34.72.72,1.16.96.44.24,1,.33,1.45.09.14-.07.28-.18.43-.14.11.03.18.13.24.22.4.57.87,1.14,1.51,1.43.64.29,1.48.24,1.93-.29.71.65,1.81.84,2.7.45s1.49-1.33,1.49-2.29c.85.29,1.78-.23,2.37-.9.95-1.07,1.38-2.57,1.16-3.98-.23-1.41-1.12-2.7-2.35-3.41-.95-.55-2.06-.76-3.15-.91-1.71-.24-3.44-.37-5.16-.39-.76,0-1.53,0-2.25.27-.99.36-1.81,1.16-2.86,1.29-.67.08-1.33-.13-1.98-.32-.93-.27-1.9-.51-2.87-.42-1.91.17-3.49,1.54-4.75,2.98-.89,1.01-1.72,2.14-2,3.46s.13,2.86,1.27,3.57c.45.28,1.03.41,1.51.2.49-.21.79-.84.54-1.31"/>
          <path class="cls-1" d="M333.21,106.99c-.7-4.97.14-10.98,3.77-15.26,3.63-4.29,10.05-6.88,14.3-6.07,3.32.63,10.51.88,13.15,7.81l-.37-5.72s-3.21-6.49-12.65-6.3c-9.44.19-13.58,1.3-18.14,6.87-4.57,5.57-3.22,10.3-2.61,12.7.61,2.4,2.56,5.97,2.56,5.97Z"/>
          <path class="cls-6" d="M359.24,82.87s-.12-.03-.34-.12c-.22-.08-.55-.22-.97-.37-.85-.29-2.11-.67-3.7-.95-1.59-.28-3.51-.43-5.64-.33-2.12.12-4.46.49-6.77,1.35-2.28.89-4.33,2.09-5.97,3.45-.82.67-1.54,1.39-2.15,2.11-.32.35-.58.73-.85,1.07-.25.36-.49.71-.7,1.05-.84,1.38-1.36,2.58-1.67,3.43-.17.42-.27.76-.35.98-.08.22-.13.34-.13.34s.02-.12.09-.35c.07-.23.16-.57.31-.99.29-.86.79-2.08,1.62-3.48.2-.35.45-.7.69-1.07.27-.35.53-.73.85-1.09.61-.74,1.33-1.46,2.16-2.15,1.65-1.38,3.71-2.6,6.02-3.5,2.33-.87,4.69-1.24,6.83-1.35,2.15-.09,4.08.08,5.68.38,1.6.3,2.85.7,3.7,1.03.42.16.74.31.96.41.22.1.33.15.33.16Z"/>
          <path class="cls-6" d="M333.84,98.63s-.11-.03-.29-.14c-.18-.1-.43-.27-.71-.52-.56-.48-1.24-1.3-1.64-2.37-.4-1.08-.41-2.14-.3-2.87.06-.37.13-.66.2-.85.07-.2.12-.3.13-.29.04.01-.11.44-.18,1.17-.07.72-.03,1.74.35,2.77.38,1.03,1.02,1.83,1.54,2.33.52.5.91.74.89.77Z"/>
          <path class="cls-6" d="M336.6,92.91s-.36-.16-.82-.6c-.46-.43-1-1.15-1.31-2.08-.32-.92-.32-1.83-.19-2.45.13-.62.31-.97.33-.96.04.01-.09.38-.17.99-.09.6-.06,1.46.25,2.35.3.88.79,1.59,1.21,2.04.41.45.73.68.71.71Z"/>
          <path class="cls-6" d="M341.07,88.73s-.3-.14-.69-.48c-.39-.34-.89-.89-1.25-1.61-.37-.72-.51-1.45-.53-1.97-.02-.52.04-.84.07-.84.08,0-.05,1.32.67,2.71.71,1.39,1.8,2.13,1.75,2.19Z"/>
          <path class="cls-6" d="M345.38,81.36s.19.22.41.63c.22.41.47,1,.65,1.69.18.69.24,1.33.25,1.79,0,.46-.02.75-.05.75-.07,0-.07-1.14-.42-2.48-.35-1.34-.91-2.34-.84-2.37Z"/>
          <path class="cls-6" d="M353.68,81.2s.18.23.33.67c.15.44.27,1.08.23,1.79-.04.71-.24,1.34-.43,1.75-.2.42-.38.64-.4.63-.07-.03.55-1.02.61-2.39.09-1.38-.41-2.43-.34-2.45Z"/>
          <path class="cls-6" d="M359.01,82.7s.22.23.44.68c.22.45.42,1.14.44,1.91.02.78-.15,1.47-.34,1.94-.19.47-.38.72-.4.7-.07-.02.57-1.13.52-2.63-.03-1.51-.73-2.57-.66-2.6Z"/>
          <path class="cls-6" d="M364.13,87.18s.1.24.11.65c.02.41-.04.98-.25,1.57-.21.59-.52,1.07-.79,1.37-.27.31-.48.45-.5.43-.05-.05.68-.74,1.08-1.88.41-1.13.27-2.13.35-2.14Z"/>
          <path class="cls-6" d="M366.73,92.78c.06,0,0,.77-.51,1.53-.5.77-1.19,1.13-1.21,1.07-.04-.06.55-.47,1.02-1.2.48-.72.63-1.42.7-1.41Z"/>
          <path class="cls-6" d="M367.07,99.06c.06,0,0,.39-.34.69-.34.3-.72.32-.73.26-.01-.06.29-.17.58-.43.29-.25.43-.55.49-.53Z"/>
          <path class="cls-6" d="M333.17,104.25c0,.06-1.04-.08-2.07-.8-1.04-.7-1.55-1.62-1.49-1.64.06-.04.62.78,1.62,1.45.99.69,1.96.92,1.94.98Z"/>
          <path class="cls-6" d="M333.69,107.41s-.32.37-.9.4c-.58.04-.98-.25-.94-.29.03-.06.42.1.93.07.51-.02.88-.23.91-.18Z"/>
          <g class="cls-10">
            <path d="M358.46,82.64c-4.07-2.71-9.28-3.65-14.04-2.55-4.77,1.1-9.08,4.5-11.55,8.72,0,0,5.89-7.45,14.33-7.71,8.44-.26,11.26,1.55,11.26,1.55Z"/>
          </g>
          <g>
            <path class="cls-12" d="M351.94,107.76s0-.43-.19-1.17c-.19-.73-.68-1.8-1.77-2.62-.54-.4-1.22-.74-2.01-.88-.78-.13-1.66-.11-2.5.21-.42.15-.83.37-1.2.65-.38.27-.72.61-1,1.01-.58.78-.91,1.77-.92,2.8,0,1.03.34,2.03.92,2.8.28.39.62.73,1,1.01.37.28.78.5,1.2.65.84.32,1.72.35,2.5.21.79-.14,1.47-.48,2.01-.88,1.09-.83,1.58-1.89,1.77-2.62.19-.74.16-1.18.19-1.17,0,0,.06.43-.11,1.2-.17.75-.64,1.86-1.76,2.73-.55.42-1.26.79-2.07.94-.81.15-1.73.12-2.6-.2-.44-.15-.87-.38-1.26-.67-.4-.29-.76-.64-1.05-1.05-.61-.81-.96-1.86-.97-2.94,0-1.08.36-2.12.97-2.93.3-.41.66-.77,1.05-1.05.39-.29.82-.52,1.26-.67.88-.33,1.79-.35,2.6-.2.82.15,1.52.51,2.07.94,1.12.87,1.59,1.98,1.76,2.73.17.76.11,1.2.11,1.2Z"/>
            <path class="cls-12" d="M366.46,107.19s0-.43-.19-1.17c-.19-.73-.68-1.8-1.77-2.62-.54-.4-1.22-.74-2.01-.88-.78-.13-1.66-.11-2.5.21-.42.15-.83.37-1.2.65-.38.27-.72.61-1,1.01-.58.78-.91,1.77-.92,2.8,0,1.03.34,2.03.92,2.8.28.39.62.73,1,1.01.37.28.78.5,1.2.65.84.32,1.72.35,2.5.21.79-.14,1.47-.48,2.01-.88,1.09-.83,1.58-1.89,1.77-2.62.19-.74.16-1.18.19-1.17,0,0,.06.43-.11,1.2-.17.75-.64,1.86-1.76,2.73-.55.42-1.26.79-2.07.94-.81.15-1.73.12-2.6-.2-.44-.15-.87-.38-1.26-.67-.4-.29-.76-.64-1.05-1.05-.61-.81-.96-1.86-.97-2.94,0-1.08.36-2.12.97-2.93.3-.41.66-.77,1.05-1.05.39-.29.82-.52,1.26-.67.88-.33,1.79-.35,2.6-.2.82.15,1.52.51,2.07.94,1.12.87,1.59,1.98,1.76,2.73.17.76.11,1.2.11,1.2Z"/>
            <path class="cls-12" d="M356.91,105.34s-.28-.19-.76-.43c-.48-.23-1.2-.46-2.01-.41-.81.05-1.5.35-1.95.64-.45.29-.68.54-.71.51-.02-.01.17-.31.62-.64.44-.33,1.17-.69,2.03-.74.86-.05,1.62.21,2.1.5.48.28.71.55.69.57Z"/>
            <path class="cls-12" d="M342.56,106.86c.02.06-1.93.72-4.36,1.47-2.43.75-4.41,1.32-4.43,1.26s1.93-.72,4.36-1.47c2.43-.75,4.41-1.32,4.43-1.26Z"/>
            <path class="cls-8" d="M346.91,111.79s-.33.03-.85-.11c-.51-.14-1.19-.47-1.79-1.03-.6-.56-.98-1.22-1.15-1.72-.18-.5-.19-.84-.17-.84.04,0,.11.31.32.78.21.47.59,1.08,1.16,1.61.57.53,1.21.87,1.69,1.04.48.18.8.23.8.26Z"/>
            <path class="cls-8" d="M358.81,110.2s-.32-.06-.65-.43c-.33-.36-.66-.98-.8-1.71-.13-.73-.08-1.41.04-1.88.12-.47.29-.73.31-.72.03.01-.08.29-.16.75-.08.46-.1,1.11.02,1.81.13.7.41,1.29.7,1.65.28.37.55.5.53.53Z"/>
          </g>
          <g>
            <path class="cls-6" d="M351.78,117.13s.14-.3.41-.57c.27-.27.53-.45.57-.41.04.04-.14.3-.41.57-.27.27-.53.45-.57.41Z"/>
            <path class="cls-6" d="M352.48,117.57s.13-.35.4-.69c.27-.35.53-.59.58-.56.05.04-.13.35-.4.69-.27.35-.53.59-.58.56Z"/>
            <path class="cls-6" d="M353.2,118.1c-.05-.03.06-.35.26-.72.2-.37.4-.65.46-.62.05.03-.06.35-.26.72-.2.37-.4.65-.46.62Z"/>
            <path class="cls-6" d="M354.29,118.1c-.06,0-.1-.23-.07-.5.02-.27.09-.49.15-.48s.1.23.07.5c-.02.27-.09.49-.15.48Z"/>
            <path class="cls-6" d="M355.34,118.28c-.06,0-.11-.2-.11-.45s.05-.45.11-.45.11.2.11.45-.05.45-.11.45Z"/>
            <path class="cls-6" d="M356.32,118.37c-.06.01-.17-.23-.24-.55-.07-.32-.08-.59-.02-.61.06-.01.17.23.24.55s.08.59.02.61Z"/>
          </g>
          <path class="cls-6" d="M333.78,119.55s.1.48-.29,1.11c-.19.3-.54.65-1.05.72-.49.08-1.09-.15-1.42-.62-.34-.47-.44-1.04-.34-1.52.11-.49.43-.84.73-1.05.63-.42,1.13-.29,1.11-.27,0,.05-.47-.01-1.02.4-.26.2-.53.53-.62.96-.08.42.02.94.32,1.35.29.41.78.6,1.22.55.43-.05.75-.33.95-.6.4-.56.38-1.03.42-1.02Z"/>
        </g>
        <g>
          <g>
            <path class="cls-6" d="M320.31,266.53c1.21,0,51.17,51.98,51.17,55.61s7.41,40.24,11.04,45.88c3.63,5.64,5.73,4.32,5.73,4.32l16.6-7.74s-9.2-56.97-11.21-63.42c-2.01-6.45-40.13-56.82-40.13-56.82l-36.03,6.85,2.82,15.31Z"/>
            <path class="cls-6" d="M301.86,240.47l-10.38,64.15s-32.47,32.5-34.49,36.13c0,0-3.63-1.21-4.84,2.01-1.21,3.22-2.25,9.23-2.25,9.23l16.12,13.52s42.59-35.31,46.62-40.55c4.03-5.24,20.91-39.79,24.14-48.65,3.22-8.86,7.03-28.51,7.03-28.51l-41.96-7.33Z"/>
            <path class="cls-12" d="M379.85,310.49c.06.02-.18.81-.71,2.01-.54,1.2-1.41,2.81-2.56,4.47-1.15,1.65-2.39,3.02-3.36,3.91-.98.89-1.69,1.31-1.73,1.26-.05-.06.57-.58,1.47-1.52.89-.94,2.06-2.32,3.19-3.94,2.3-3.25,3.56-6.24,3.7-6.18Z"/>
            <path class="cls-12" d="M297.3,309.05c0,.13-1.77-.13-3.42-1.48-1.66-1.33-2.29-3.01-2.16-3.04.14-.08.93,1.39,2.49,2.63,1.54,1.27,3.14,1.73,3.09,1.89Z"/>
            <path class="cls-12" d="M263.78,349.12c-.04.12-2.32-1.03-4.09-3.53-1.8-2.48-2.16-5.01-2.03-5.01.16-.05.73,2.33,2.46,4.7,1.7,2.4,3.76,3.7,3.67,3.83Z"/>
            <path class="cls-12" d="M315.26,249.99s-.04.27-.2.72c-.16.46-.44,1.09-.84,1.86-.8,1.53-2.17,3.52-4.1,5.34-1.94,1.81-4.02,3.05-5.6,3.74-.79.35-1.45.59-1.91.72-.46.13-.72.19-.73.16-.03-.08.97-.44,2.49-1.21,1.51-.77,3.51-2.03,5.4-3.79,1.89-1.77,3.27-3.68,4.14-5.14.87-1.46,1.29-2.43,1.37-2.4Z"/>
          </g>
          <path class="cls-12" d="M340.72,266.38s-.17.6-.56,1.64c-.44,1.12-1.01,2.6-1.71,4.4-1.48,3.7-3.56,8.8-6.05,14.35-2.49,5.55-4.92,10.49-6.7,14.06-.87,1.72-1.6,3.13-2.14,4.2-.52.99-.82,1.52-.85,1.51-.03-.02.21-.58.67-1.6.51-1.09,1.18-2.53,1.99-4.27,1.69-3.6,4.06-8.57,6.55-14.11,2.48-5.54,4.62-10.61,6.18-14.27.76-1.77,1.39-3.23,1.87-4.33.45-1.02.71-1.58.75-1.56Z"/>
        </g>
        <g>
          <path class="cls-1" d="M331.96,136.42s-10.98,4.43-13.55,12.16c-1.3,3.91-8.88,32.5-8.88,32.5,0,0-10,54.9-8.62,60.13l57.22,8.79h0c1.41-1.72,2.13-3.91,2-6.13l-.93-16.45.67-70.51c0-.53-.03-1.05-.11-1.57l-2.01-13.02.65-5.61-25.65-6.78-.77,6.5Z"/>
          <path class="cls-1" d="M330.42,131.99h0c.29-1.85,2.12-3.05,3.94-2.57l23.45,6.19c1.46.38,2.44,1.74,2.35,3.24l-.06,1.02c-.12,2.05-2.13,3.45-4.09,2.85l-23.39-7.22c-1.5-.46-2.44-1.96-2.19-3.52Z"/>
          <path class="cls-6" d="M358.13,142.42s-.44-.05-1.21-.23c-.87-.22-1.96-.5-3.26-.82-2.74-.72-6.52-1.74-10.69-2.9-1.97-.56-3.85-1.09-5.57-1.57h.03c-.73-.11-1.42-.27-2.07-.48-.32-.11-.64-.23-.94-.4-.15-.09-.3-.18-.42-.32-.14-.14-.19-.29-.28-.43-.28-.6-.29-1.22-.22-1.76.07-.54.22-1.02.39-1.43.35-.82.76-1.4,1.08-1.76.33-.36.55-.49.56-.48.05.04-.77.72-1.37,2.34-.27.78-.55,1.88-.08,2.89.21.5.8.69,1.41.9.62.19,1.3.33,2,.43h.02s.01,0,.01,0c1.73.48,3.61.99,5.58,1.54,4.17,1.16,7.93,2.24,10.65,3.05,1.28.39,2.35.72,3.21.98.76.24,1.17.39,1.16.43Z"/>
          <path class="cls-6" d="M358.37,146.42s.05.18.1.52c.05.4.11.89.18,1.49.14,1.3.32,3.18.5,5.51.37,4.66.74,11.1.95,18.22.2,7.12.19,13.58.03,18.25-.07,2.33-.17,4.22-.27,5.52-.05.6-.09,1.1-.12,1.5-.03.34-.06.52-.08.52-.02,0-.03-.18-.03-.53,0-.4.02-.9.03-1.5.03-1.3.08-3.19.1-5.52.06-4.66.02-11.11-.18-18.23-.21-7.11-.52-13.55-.8-18.21-.14-2.27-.25-4.14-.33-5.52-.03-.6-.06-1.1-.08-1.5-.01-.34-.01-.53,0-.53Z"/>
          <path class="cls-6" d="M341.73,131.73c.13.09-.68,1.24-.93,2.9-.27,1.65.15,3,0,3.04-.11.07-.81-1.31-.52-3.12.27-1.81,1.35-2.92,1.44-2.82Z"/>
          <path class="cls-6" d="M348.39,133.26c.06-.03.3.27.5.86.2.58.31,1.45.13,2.39-.19.93-.62,1.7-1.02,2.16-.41.47-.74.65-.78.6-.11-.11.98-1.14,1.3-2.87.36-1.72-.25-3.09-.11-3.14Z"/>
          <path class="cls-6" d="M354.88,135.06c.05-.04.32.24.57.8.24.56.43,1.42.28,2.36-.15.94-.6,1.7-1.01,2.15-.41.46-.75.63-.79.58-.11-.1,1.02-1.11,1.29-2.81.28-1.7-.47-3.02-.33-3.08Z"/>
        </g>
        <path class="cls-12" d="M351.5,150.92c-2.16-6.37-7.4-11.94-14-13.25s-12.8.09-17.51,5.57l-5.96,12.75c2.67-1.48,6.92-10.12,11.88-13.07,4.97-2.94,10.48-3,14.55,1.09,3.02,3.03,5.25,7.36,5.18,11.64-.14,8.39-3.63,16.25-6.17,24.24-3.26,10.27-5.84,21.2-13.37,28.91-6.05,6.19-14.15,9.88-22.05,13.43-1.85,1.53-6.16,7.09-3.94,8,2.22.91,10.29-2.02,12.58-2.72,5.71-1.74,11.64-3.6,15.98-7.71,4.03-3.81,6.22-9.12,8.3-14.26,4.02-9.93,6.62-20.27,10.63-30.19,3.42-8.45,6.8-15.81,3.87-24.45Z"/>
        <g>
          <path class="cls-4" d="M342.37,257.69l-4.56-7.7-15.26,5.32h0s1.05,13.56,3,13.95c1.95.39,3.4-.92,3.4-.92,0,0,1.14,3.53,3.42,3.68.7.05,1.08.06,1.27.07.42.31,2.74,1.98,4.65,1.38,0,0,1.77,3.81,3.19,3.42,1.42-.39,2.34-5,2.34-5l-1.45-14.21Z"/>
          <g>
            <path class="cls-2" d="M328.59,141.08c-5.4,1.87-9.25,6.47-10.38,11.85-3.01,14.37-10.16,51.96-9.87,57.29.37,6.75,13.22,46.68,13.22,46.68l18.04-5.42-8.17-45.03s12.72-42.07,13.72-48.48c1.09-6.98-4.97-20.9-16.57-16.9Z"/>
            <path class="cls-2" d="M328.59,141.12s.46-.2,1.4-.45c.93-.25,2.39-.52,4.26-.22,1.85.29,4.07,1.31,5.95,3.29,1.89,1.95,3.49,4.73,4.45,8.07.47,1.67.8,3.49.78,5.42,0,.97-.17,1.95-.37,2.92-.2.98-.45,1.97-.7,2.97-1.02,4.02-2.24,8.33-3.56,12.91-2.65,9.16-5.73,19.41-9.15,30.48v-.11c2.52,13.8,5.29,29.02,8.2,45.02l.04.23-.22.07c-2.68.81-5.55,1.67-8.44,2.53-3.29.99-6.55,1.97-9.6,2.88l-.24.07-.08-.24c-2.67-8.19-5.18-16.19-7.51-23.93-1.15-3.87-2.27-7.67-3.28-11.42-.5-1.87-1-3.72-1.42-5.57-.23-.92-.43-1.84-.6-2.77-.2-.91-.31-1.86-.39-2.79,0-1.89.28-3.69.49-5.48.25-1.78.5-3.54.78-5.26.54-3.45,1.13-6.78,1.7-10,1.15-6.44,2.29-12.41,3.34-17.84,1.07-5.43,2.04-10.33,2.89-14.64.46-2.14.75-4.17,1.36-5.96.62-1.78,1.46-3.31,2.36-4.56,1.83-2.52,3.88-3.89,5.29-4.66,1.43-.76,2.26-.98,2.26-.98,0,0-.19.09-.57.26-.38.15-.94.42-1.64.81-1.38.8-3.39,2.18-5.18,4.69-.88,1.25-1.7,2.76-2.3,4.52-.59,1.76-.86,3.8-1.31,5.94-.83,4.31-1.77,9.21-2.82,14.65-1.03,5.44-2.14,11.41-3.27,17.85-.56,3.22-1.14,6.55-1.67,10-.28,1.72-.53,3.47-.77,5.25-.21,1.77-.49,3.6-.48,5.4.07.9.18,1.81.38,2.72.17.91.37,1.83.6,2.75.42,1.84.93,3.69,1.43,5.56,1.01,3.74,2.14,7.53,3.29,11.4,2.33,7.73,4.85,15.73,7.52,23.91l-.32-.17c3.05-.92,6.31-1.9,9.6-2.88,2.89-.87,5.76-1.73,8.44-2.53l-.18.3c-2.9-16.01-5.65-31.23-8.15-45.03v-.06s0-.06,0-.06c3.43-11.07,6.54-21.31,9.22-30.45,1.34-4.57,2.57-8.87,3.6-12.88.46-2.01,1.07-3.93,1.08-5.82.03-1.89-.29-3.69-.74-5.34-.93-3.31-2.49-6.06-4.33-8-1.83-1.96-4-2.99-5.82-3.3-1.83-.32-3.28-.08-4.22.14-.48.08-.82.23-1.06.28-.24.07-.36.09-.36.09Z"/>
            <path class="cls-2" d="M331.61,206.24c-.1.13-1.9-1.48-4.65-2.39-2.74-.95-5.14-.76-5.15-.92-.04-.12,2.45-.55,5.31.43,2.88.95,4.59,2.81,4.48,2.88Z"/>
          </g>
        </g>
      </g>
    </g>
  </g>
  <g id="Rocks">
    <g>
      <polyline class="cls-11" points="291.39 421.48 266.55 395.28 246.19 396.43 231.77 402.13 222.62 421.48"/>
      <polygon class="cls-14" points="246.19 396.43 267.28 421.48 291.39 421.48 266.55 395.28 246.19 396.43"/>
      <path class="cls-6" d="M222.62,421.48s.04-.13.14-.37c.12-.27.27-.61.46-1.04.43-.95,1.04-2.28,1.8-3.94,1.6-3.43,3.85-8.27,6.56-14.09l.04-.08.08-.03c4.31-1.71,9.18-3.66,14.41-5.73l.04-.02h.04c3.14-.18,6.42-.37,9.78-.56,3.66-.2,7.22-.4,10.59-.59h.12s.08.08.08.08c7.08,7.52,13.26,14.08,17.7,18.8,2.17,2.33,3.91,4.21,5.14,5.54.57.63,1.03,1.13,1.36,1.5.31.34.46.53.45.54s-.19-.15-.52-.48c-.35-.36-.83-.84-1.43-1.44-1.26-1.3-3.04-3.14-5.25-5.43-4.47-4.69-10.7-11.2-17.83-18.67l.2.08c-3.37.19-6.93.39-10.59.6-3.36.19-6.64.37-9.78.54l.08-.02c-5.23,2.05-10.12,3.97-14.43,5.67l.12-.11c-2.78,5.79-5.09,10.6-6.72,14.01-.81,1.65-1.45,2.96-1.91,3.89-.21.42-.38.75-.52,1.02-.12.23-.19.34-.2.34Z"/>
    </g>
    <g>
      <polyline class="cls-5" points="110.42 421.48 119.9 405.03 137.19 400.2 153.36 413.95 153.36 421.48"/>
      <polygon class="cls-14" points="119.9 405.03 153.36 413.95 137.19 400.2 119.9 405.03"/>
      <path class="cls-6" d="M153.36,421.48s-.03-.17-.05-.51c-.01-.39-.03-.87-.04-1.48-.02-1.35-.04-3.22-.08-5.54l.06.13c-3.98-3.36-9.72-8.19-16.23-13.68l.24.05c-1.26.35-2.59.72-3.94,1.1-4.79,1.33-9.33,2.59-13.36,3.71l.14-.11c-2.82,4.81-5.21,8.89-6.93,11.83-.83,1.39-1.51,2.51-2,3.34-.22.35-.4.64-.55.88-.13.2-.2.29-.21.29s.04-.12.14-.33c.13-.25.29-.55.48-.91.47-.84,1.1-1.99,1.89-3.41,1.68-2.96,4.01-7.07,6.76-11.92l.05-.08.09-.03c4.03-1.13,8.56-2.41,13.34-3.75,1.35-.38,2.68-.75,3.94-1.1l.13-.04.1.09c6.47,5.55,12.16,10.43,16.11,13.82l.06.05v.08c-.03,2.32-.06,4.19-.08,5.54-.02.6-.03,1.09-.04,1.48-.01.34-.03.51-.05.51Z"/>
    </g>
    <g>
      <polygon class="cls-11" points="453.7 391.9 429.7 378.23 387.56 393.58 353.52 421.48 473.94 420.87 453.7 391.9"/>
      <polygon class="cls-14" points="353.52 421.48 396.7 396.43 453.7 391.9 428.74 377.12 387.56 393.58 353.52 421.48"/>
      <polygon class="cls-14" points="415.56 421.17 437.13 406.39 456.8 404.99 440.34 408.64 431.82 421.08 415.56 421.17"/>
      <path class="cls-6" d="M353.52,421.48s.05-.05.15-.15c.12-.11.27-.24.46-.4.44-.37,1.04-.88,1.83-1.54,1.63-1.36,3.98-3.31,6.94-5.77,6-4.95,14.48-11.94,24.52-20.22l.03-.02h.03c9.04-3.68,19.26-7.83,30.04-12.21,3.77-1.53,7.47-3.03,11.08-4.48l.12-.05.11.07c9.11,5.48,17.59,10.57,24.99,15.02l.04.02.03.04c6.05,8.73,11.08,15.98,14.62,21.08,1.73,2.53,3.1,4.52,4.05,5.9.45.67.8,1.19,1.05,1.56.23.36.34.55.34.55,0,0-.14-.17-.4-.51-.27-.37-.63-.87-1.11-1.52-.97-1.37-2.37-3.34-4.15-5.83-3.57-5.07-8.65-12.29-14.77-20.98l.07.06c-7.42-4.43-15.9-9.5-25.03-14.96l.23.02c-3.6,1.46-7.3,2.96-11.07,4.49-10.79,4.36-21.01,8.5-30.06,12.15l.06-.04c-10.09,8.22-18.61,15.17-24.64,20.08-3,2.42-5.37,4.34-7.02,5.67-.8.64-1.43,1.13-1.87,1.49-.2.15-.36.28-.49.37-.11.08-.17.12-.17.12Z"/>
      <path class="cls-6" d="M457.47,404.94s-.55.1-1.56.21c-1.09.1-2.54.23-4.3.38-3.73.29-8.78.68-14.47,1.12l.13-.04c-.76.52-1.56,1.07-2.37,1.63-5.3,3.63-10.12,6.9-13.62,9.24-1.7,1.13-3.11,2.06-4.16,2.75-.45.29-.83.53-1.15.73-.27.16-.41.24-.42.22-.01-.01.11-.12.36-.31.3-.22.66-.49,1.09-.81,1.03-.73,2.4-1.7,4.07-2.89,3.45-2.42,8.23-5.73,13.53-9.36.81-.56,1.61-1.1,2.37-1.62l.06-.04h.07c5.7-.38,10.75-.71,14.48-.95,1.76-.09,3.21-.17,4.31-.23,1.01-.04,1.57-.05,1.57-.02Z"/>
    </g>
    <g>
      <polygon class="cls-11" points="567.17 407.11 552.75 401.41 528.71 405.78 517.06 421.44 574.11 421.48 567.17 407.11"/>
      <path class="cls-14" d="M528.71,405.78c.7-.13,38.46,1.34,38.46,1.34l-14.42-5.7-24.04,4.37Z"/>
      <path class="cls-6" d="M517.06,421.44s.05-.11.19-.31c.16-.23.36-.51.6-.86.57-.79,1.35-1.87,2.32-3.23,2.06-2.8,4.93-6.72,8.36-11.4l.05-.07.09-.02c5.25-.96,11.37-2.09,17.89-3.28,2.09-.38,4.15-.75,6.15-1.11h.07s.07.01.07.01c5.31,2.12,10.2,4.07,14.4,5.74l.08.03.03.07c2.05,4.34,3.75,7.93,4.96,10.49.56,1.22,1.01,2.2,1.35,2.92.14.31.25.56.34.77.07.18.11.27.1.27,0,0-.06-.08-.15-.25-.11-.2-.24-.45-.39-.75-.36-.71-.84-1.67-1.45-2.87-1.25-2.54-3.01-6.11-5.13-10.41l.11.11c-4.21-1.65-9.12-3.57-14.44-5.66h.14c-2,.38-4.05.75-6.14,1.13-6.52,1.17-12.65,2.27-17.9,3.22l.14-.09c-3.49,4.63-6.42,8.51-8.51,11.29-1.02,1.32-1.83,2.38-2.42,3.15-.26.33-.48.6-.65.82-.15.18-.23.27-.24.27Z"/>
    </g>
  </g>
  <g id="Floor">
    <path class="cls-6" d="M674.24,421.48c0,.14-150.04.26-335.09.26s-335.12-.12-335.12-.26,150.01-.26,335.12-.26,335.09.12,335.09.26Z"/>
    <path class="cls-6" d="M262.74,429.43c0,.14-21.49.26-47.99.26s-47.99-.12-47.99-.26,21.48-.26,47.99-.26,47.99.12,47.99.26Z"/>
    <path class="cls-6" d="M227.17,435.68c0,.14-6.78.26-15.15.26s-15.15-.12-15.15-.26,6.78-.26,15.15-.26,15.15.12,15.15.26Z"/>
  </g>
</svg>