<?xml version="1.0" encoding="UTF-8"?>
<svg xmlns="http://www.w3.org/2000/svg" version="1.1" viewBox="0 0 700.4 456.8">
  <defs>
    <style>
      .cls-1 {
        fill: #e0e0e0;
      }

      .cls-2 {
        fill: #bfdd7d;
      }

      .cls-3 {
        fill: #ebebeb;
      }

      .cls-4 {
        fill: #95ba3a;
      }

      .cls-5 {
        fill: #894943;
      }

      .cls-6 {
        fill: #263238;
      }

      .cls-7 {
        fill: #fff;
      }

      .cls-8 {
        fill: #fafafa;
      }

      .cls-9 {
        fill: #b5675e;
      }

      .cls-10 {
        fill: #7c4236;
      }

      .cls-11 {
        opacity: .6;
      }

      .cls-12 {
        opacity: .3;
      }

      .cls-13 {
        fill: #ffbf9d;
      }

      .cls-14 {
        fill: #f5f5f5;
      }

      .cls-15 {
        fill: #455a64;
      }

      .cls-16 {
        display: none;
      }

      .cls-17 {
        fill: #c17560;
      }

      .cls-18 {
        fill: #ff9a6c;
      }
    </style>
  </defs>
  <!-- Generator: Adobe Illustrator 28.6.0, SVG Export Plug-In . SVG Version: 1.2.0 Build 709)  -->
  <g>
    <g id="Calque_1">
      <g id="Background_Complete" class="cls-16">
        <g>
          <g>
            <rect class="cls-14" x="300.9" y="218.7" width="112.2" height="218.4"/>
            <path class="cls-1" d="M404.3,428.3s0-.3,0-1c0-.6,0-1.6,0-2.9,0-2.5,0-6.2,0-11,0-9.6,0-23.7,0-41.4,0-35.3,0-85.2-.1-143.2l.2.2c-29.4,0-61.5,0-95,0h0l.3-.3c0,77.2,0,147.5,0,199.5l-.2-.2c29.3,0,53,0,69.4.1,8.2,0,14.6,0,18.9,0,2.2,0,3.8,0,4.9,0s1.7,0,1.7,0c0,0-.5,0-1.7,0-1.1,0-2.8,0-4.9,0-4.3,0-10.7,0-18.9,0-16.4,0-40.2,0-69.5.1h-.2v-.2c0-52,0-122.2,0-199.5v-.3h.3c33.4,0,65.5,0,95,0h.2v.2c0,58.2,0,108.1-.1,143.4,0,17.6,0,31.7,0,41.3,0,4.8,0,8.5,0,11,0,1.2,0,2.2,0,2.8,0,.6,0,1,0,1h0Z"/>
            <rect class="cls-1" x="400.9" y="261.3" width="6.8" height="33.5"/>
            <rect class="cls-1" x="400.9" y="367.3" width="6.8" height="33.5"/>
            <path class="cls-1" d="M328.6,355.6s0,0,0-.2c0-.2,0-.4,0-.6,0-.6,0-1.4,0-2.5,0-2.2,0-5.3,0-9.1,0-7.8,0-18.5-.1-30.7l.3.3h-8.3c.5-.5.1-.1.3-.2h0v13.1c0,4.2,0,8.2,0,11.9,0,7.4,0,13.6,0,18.2h-.1c2.6-.1,4.7,0,6.1,0,.7,0,1.2,0,1.6,0,.4,0,.6,0,.6,0,0,0-.2,0-.5,0-.4,0-.9,0-1.6,0-1.5,0-3.6,0-6.2,0h-.1c0-4.7,0-11,0-18.4,0-3.7,0-7.7,0-11.9v-13.1h0c.1-.1-.3.2.3-.3h8.6v.3c0,12.3,0,23.1-.1,30.9,0,3.8,0,6.9,0,9.1,0,1,0,1.8,0,2.4,0,.5,0,.8,0,.8h0Z"/>
            <path class="cls-1" d="M388.5,391.7c0,.1-13.8.3-30.8.3s-30.8-.1-30.8-.3,13.8-.3,30.8-.3,30.8.1,30.8.3Z"/>
            <path class="cls-1" d="M388.5,398.9c0,.1-13.8.3-30.8.3s-30.8-.1-30.8-.3,13.8-.3,30.8-.3,30.8.1,30.8.3Z"/>
            <path class="cls-1" d="M388.5,406.1c0,.1-13.8.3-30.8.3s-30.8-.1-30.8-.3,13.8-.3,30.8-.3,30.8.1,30.8.3Z"/>
            <path class="cls-1" d="M388.5,248.8c0,.1-13.8.3-30.8.3s-30.8-.1-30.8-.3,13.8-.3,30.8-.3,30.8.1,30.8.3Z"/>
            <path class="cls-1" d="M388.5,256c0,.2-13.8.3-30.8.3s-30.8-.1-30.8-.3,13.8-.3,30.8-.3,30.8.1,30.8.3Z"/>
            <path class="cls-1" d="M388.5,263.2c0,.1-13.8.3-30.8.3s-30.8-.1-30.8-.3,13.8-.3,30.8-.3,30.8.1,30.8.3Z"/>
          </g>
          <g>
            <rect class="cls-14" x="76.5" y="0" width="112.2" height="218.4"/>
            <path class="cls-1" d="M179.9,209.6s0-.3,0-1c0-.6,0-1.6,0-2.9,0-2.5,0-6.2,0-11,0-9.6,0-23.7,0-41.4,0-35.3,0-85.2-.1-143.2l.2.2c-29.4,0-61.5,0-94.9,0h0l.3-.3c0,77.2,0,147.5,0,199.5l-.2-.2c29.3,0,53,0,69.4.1,8.2,0,14.6,0,18.9,0,2.2,0,3.8,0,4.9,0s1.7,0,1.7,0c0,0-.6,0-1.7,0-1.1,0-2.8,0-4.9,0-4.3,0-10.7,0-18.9,0-16.4,0-40.2,0-69.5.1h-.2v-.2c0-51.9,0-122.2,0-199.5v-.3h.3c33.4,0,65.6,0,95,0h.2v.2c0,58.2,0,108.1-.1,143.4,0,17.6,0,31.7,0,41.3,0,4.8,0,8.5,0,11,0,1.2,0,2.2,0,2.8,0,.6,0,.9,0,.9h0Z"/>
            <rect class="cls-1" x="176.5" y="42.5" width="6.8" height="33.5"/>
            <rect class="cls-1" x="176.5" y="148.6" width="6.8" height="33.5"/>
            <path class="cls-1" d="M104.2,136.9s0,0,0-.2c0-.2,0-.4,0-.6,0-.6,0-1.4,0-2.5,0-2.2,0-5.3,0-9.1,0-7.8,0-18.5-.1-30.7l.3.3h-8.3c.5-.5.2-.1.3-.2h0v13.1c0,4.2,0,8.2,0,11.9,0,7.4,0,13.6,0,18.2h-.1c2.6-.1,4.7,0,6.1,0,.7,0,1.2,0,1.6,0,.4,0,.6,0,.6,0s-.2,0-.5,0c-.4,0-.9,0-1.6,0-1.5,0-3.6,0-6.2,0h-.1c0-4.7,0-11,0-18.4,0-3.7,0-7.7,0-11.9v-12.9h0v-.2h0c.1-.1-.3.2.3-.3h8.6v.3c0,12.3,0,23.1-.1,30.9,0,3.8,0,6.9,0,9.1,0,1,0,1.8,0,2.4,0,.6,0,.8,0,.8h0Z"/>
            <path class="cls-1" d="M164.1,173c0,.1-13.8.3-30.8.3s-30.8-.1-30.8-.3,13.8-.3,30.8-.3,30.8.1,30.8.3Z"/>
            <path class="cls-1" d="M164.1,180.2c0,.1-13.8.3-30.8.3s-30.8-.1-30.8-.3,13.8-.3,30.8-.3,30.8.1,30.8.3Z"/>
            <path class="cls-1" d="M164.1,187.4c0,.1-13.8.3-30.8.3s-30.8-.1-30.8-.3,13.8-.3,30.8-.3,30.8.1,30.8.3Z"/>
            <path class="cls-1" d="M164.1,30.1c0,.1-13.8.3-30.8.3s-30.8-.1-30.8-.3,13.8-.3,30.8-.3,30.8.1,30.8.3Z"/>
            <path class="cls-1" d="M164.1,37.3c0,.2-13.8.3-30.8.3s-30.8-.1-30.8-.3,13.8-.3,30.8-.3,30.8.1,30.8.3Z"/>
            <path class="cls-1" d="M164.1,44.5c0,.2-13.8.3-30.8.3s-30.8-.1-30.8-.3,13.8-.3,30.8-.3,30.8.1,30.8.3Z"/>
          </g>
          <g>
            <rect class="cls-14" x="188.7" y="0" width="112.2" height="218.4"/>
            <path class="cls-1" d="M292.1,209.6s0-.3,0-1c0-.6,0-1.6,0-2.9,0-2.5,0-6.2,0-11,0-9.6,0-23.7,0-41.4,0-35.3,0-85.2-.1-143.2l.2.2c-29.4,0-61.5,0-94.9,0h0l.3-.3c0,77.2,0,147.5,0,199.5l-.2-.2c29.3,0,53,0,69.4.1,8.2,0,14.6,0,18.9,0,2.2,0,3.8,0,4.9,0s1.7,0,1.7,0c0,0-.5,0-1.7,0-1.1,0-2.8,0-4.9,0-4.3,0-10.7,0-18.9,0-16.4,0-40.2,0-69.5.1h-.2v-.2c0-51.9,0-122.2,0-199.5v-.3h.3c33.4,0,65.6,0,94.9,0h.2v.2c0,58.2,0,108.1-.1,143.4,0,17.6,0,31.7,0,41.3,0,4.8,0,8.5,0,11,0,1.2,0,2.2,0,2.8,0,.6,0,.9,0,.9h0Z"/>
            <rect class="cls-1" x="288.7" y="42.5" width="6.8" height="33.5"/>
            <rect class="cls-1" x="288.7" y="148.6" width="6.8" height="33.5"/>
            <path class="cls-1" d="M216.4,136.9s0,0,0-.2c0-.2,0-.4,0-.6,0-.6,0-1.4,0-2.5,0-2.2,0-5.3,0-9.1,0-7.8,0-18.5-.1-30.7l.3.3h-8.3c.5-.5.1-.1.3-.2h0v13.1c0,4.2,0,8.2,0,11.9,0,7.4,0,13.6,0,18.2h-.1c2.6-.1,4.7,0,6.1,0,.7,0,1.2,0,1.6,0,.4,0,.6,0,.6,0,0,0-.2,0-.5,0-.4,0-.9,0-1.6,0-1.5,0-3.6,0-6.2,0h-.1c0-4.7,0-11,0-18.4,0-3.7,0-7.7,0-11.9v-13.1h0c.1-.1-.3.2.3-.3h8.6v.3c0,12.3,0,23.1-.1,30.9,0,3.8,0,6.9,0,9.1,0,1,0,1.8,0,2.4,0,.6,0,.8,0,.8h0Z"/>
            <path class="cls-1" d="M276.3,173c0,.1-13.8.3-30.8.3s-30.8-.1-30.8-.3,13.8-.3,30.8-.3,30.8.1,30.8.3Z"/>
            <path class="cls-1" d="M276.3,180.2c0,.1-13.8.3-30.8.3s-30.8-.1-30.8-.3,13.8-.3,30.8-.3,30.8.1,30.8.3Z"/>
            <path class="cls-1" d="M276.3,187.4c0,.1-13.8.3-30.8.3s-30.8-.1-30.8-.3,13.8-.3,30.8-.3,30.8.1,30.8.3Z"/>
            <path class="cls-1" d="M276.3,30.1c0,.1-13.8.3-30.8.3s-30.8-.1-30.8-.3,13.8-.3,30.8-.3,30.8.1,30.8.3Z"/>
            <path class="cls-1" d="M276.3,37.3c0,.2-13.8.3-30.8.3s-30.8-.1-30.8-.3,13.8-.3,30.8-.3,30.8.1,30.8.3Z"/>
            <path class="cls-1" d="M276.3,44.5c0,.2-13.8.3-30.8.3s-30.8-.1-30.8-.3,13.8-.3,30.8-.3,30.8.1,30.8.3Z"/>
          </g>
          <g>
            <rect class="cls-14" x="300.9" y="0" width="112.2" height="218.4"/>
            <path class="cls-1" d="M404.3,209.6s0-.3,0-1c0-.6,0-1.6,0-2.9,0-2.5,0-6.2,0-11,0-9.6,0-23.7,0-41.4,0-35.3,0-85.2-.1-143.2l.2.2c-29.4,0-61.5,0-95,0h0l.3-.3c0,77.2,0,147.5,0,199.5l-.2-.2c29.3,0,53,0,69.4.1,8.2,0,14.6,0,18.9,0,2.2,0,3.8,0,4.9,0s1.7,0,1.7,0c0,0-.5,0-1.7,0-1.1,0-2.8,0-4.9,0-4.3,0-10.7,0-18.9,0-16.4,0-40.2,0-69.5.1h-.2v-.2c0-51.9,0-122.2,0-199.5v-.3h.3c33.4,0,65.5,0,95,0h.2v.2c0,58.2,0,108.1-.1,143.4,0,17.6,0,31.7,0,41.3,0,4.8,0,8.5,0,11,0,1.2,0,2.2,0,2.8,0,.6,0,.9,0,.9h0Z"/>
            <rect class="cls-1" x="400.9" y="42.5" width="6.8" height="33.5"/>
            <rect class="cls-1" x="400.9" y="148.6" width="6.8" height="33.5"/>
            <path class="cls-1" d="M328.6,136.9s0,0,0-.2c0-.2,0-.4,0-.6,0-.6,0-1.4,0-2.5,0-2.2,0-5.3,0-9.1,0-7.8,0-18.5-.1-30.7l.3.3h-8.3c.5-.5.1-.1.3-.2h0v13.1c0,4.2,0,8.2,0,11.9,0,7.4,0,13.6,0,18.2h-.1c2.6-.1,4.7,0,6.1,0,.7,0,1.2,0,1.6,0,.4,0,.6,0,.6,0,0,0-.2,0-.5,0-.4,0-.9,0-1.6,0-1.5,0-3.6,0-6.2,0h-.1c0-4.7,0-11,0-18.4,0-3.7,0-7.7,0-11.9v-13.1h0c.1-.1-.3.2.3-.3h8.6v.3c0,12.3,0,23.1-.1,30.9,0,3.8,0,6.9,0,9.1,0,1,0,1.8,0,2.4,0,.6,0,.8,0,.8h0Z"/>
            <path class="cls-1" d="M388.5,173c0,.1-13.8.3-30.8.3s-30.8-.1-30.8-.3,13.8-.3,30.8-.3,30.8.1,30.8.3Z"/>
            <path class="cls-1" d="M388.5,180.2c0,.1-13.8.3-30.8.3s-30.8-.1-30.8-.3,13.8-.3,30.8-.3,30.8.1,30.8.3Z"/>
            <path class="cls-1" d="M388.5,187.4c0,.1-13.8.3-30.8.3s-30.8-.1-30.8-.3,13.8-.3,30.8-.3,30.8.1,30.8.3Z"/>
            <path class="cls-1" d="M388.5,30.1c0,.1-13.8.3-30.8.3s-30.8-.1-30.8-.3,13.8-.3,30.8-.3,30.8.1,30.8.3Z"/>
            <path class="cls-1" d="M388.5,37.3c0,.2-13.8.3-30.8.3s-30.8-.1-30.8-.3,13.8-.3,30.8-.3,30.8.1,30.8.3Z"/>
            <path class="cls-1" d="M388.5,44.5c0,.2-13.8.3-30.8.3s-30.8-.1-30.8-.3,13.8-.3,30.8-.3,30.8.1,30.8.3Z"/>
          </g>
          <g>
            <rect class="cls-14" x="76.5" y="218.7" width="112.2" height="218.4"/>
            <path class="cls-1" d="M179.9,428.3s0-.3,0-1c0-.6,0-1.6,0-2.9,0-2.5,0-6.2,0-11,0-9.6,0-23.7,0-41.4,0-35.3,0-85.2-.1-143.2l.2.2c-29.4,0-61.5,0-94.9,0h0l.3-.3c0,77.2,0,147.5,0,199.5l-.2-.2c29.3,0,53,0,69.4.1,8.2,0,14.6,0,18.9,0,2.2,0,3.8,0,4.9,0s1.7,0,1.7,0c0,0-.6,0-1.7,0-1.1,0-2.8,0-4.9,0-4.3,0-10.7,0-18.9,0-16.4,0-40.2,0-69.5.1h-.2v-.2c0-52,0-122.2,0-199.5v-.3h.3c33.4,0,65.6,0,95,0h.2v.2c0,58.2,0,108.1-.1,143.4,0,17.6,0,31.7,0,41.3,0,4.8,0,8.5,0,11,0,1.2,0,2.2,0,2.8,0,.6,0,1,0,1h0Z"/>
            <rect class="cls-1" x="176.5" y="261.3" width="6.8" height="33.5"/>
            <rect class="cls-1" x="176.5" y="367.3" width="6.8" height="33.5"/>
            <path class="cls-1" d="M104.2,355.6s0,0,0-.2c0-.2,0-.4,0-.6,0-.6,0-1.4,0-2.5,0-2.2,0-5.3,0-9.1,0-7.8,0-18.5-.1-30.7l.3.3h-8.3c.5-.5.2-.1.3-.2h0v13.1c0,4.2,0,8.2,0,11.9,0,7.4,0,13.6,0,18.2h-.1c2.6-.1,4.7,0,6.1,0,.7,0,1.2,0,1.6,0,.4,0,.6,0,.6,0,0,0-.2,0-.5,0-.4,0-.9,0-1.6,0-1.5,0-3.6,0-6.2,0h-.1c0-4.7,0-11,0-18.4,0-3.7,0-7.7,0-11.9v-12.9h0v-.2h0c.1-.1-.3.2.3-.3h8.6v.3c0,12.3,0,23.1-.1,30.9,0,3.8,0,6.9,0,9.1,0,1,0,1.8,0,2.4,0,.5,0,.8,0,.8h0Z"/>
            <path class="cls-1" d="M164.1,391.7c0,.1-13.8.3-30.8.3s-30.8-.1-30.8-.3,13.8-.3,30.8-.3,30.8.1,30.8.3Z"/>
            <path class="cls-1" d="M164.1,398.9c0,.1-13.8.3-30.8.3s-30.8-.1-30.8-.3,13.8-.3,30.8-.3,30.8.1,30.8.3Z"/>
            <path class="cls-1" d="M164.1,406.1c0,.1-13.8.3-30.8.3s-30.8-.1-30.8-.3,13.8-.3,30.8-.3,30.8.1,30.8.3Z"/>
            <path class="cls-1" d="M164.1,248.8c0,.1-13.8.3-30.8.3s-30.8-.1-30.8-.3,13.8-.3,30.8-.3,30.8.1,30.8.3Z"/>
            <path class="cls-1" d="M164.1,256c0,.2-13.8.3-30.8.3s-30.8-.1-30.8-.3,13.8-.3,30.8-.3,30.8.1,30.8.3Z"/>
            <path class="cls-1" d="M164.1,263.2c0,.1-13.8.3-30.8.3s-30.8-.1-30.8-.3,13.8-.3,30.8-.3,30.8.1,30.8.3Z"/>
          </g>
          <g>
            <rect class="cls-14" x="188.7" y="218.7" width="112.2" height="218.4"/>
            <path class="cls-1" d="M292.1,428.3s0-.3,0-1c0-.6,0-1.6,0-2.9,0-2.5,0-6.2,0-11,0-9.6,0-23.7,0-41.4,0-35.3,0-85.2-.1-143.2l.2.2c-29.4,0-61.5,0-94.9,0h0l.3-.3c0,77.2,0,147.5,0,199.5l-.2-.2c29.3,0,53,0,69.4.1,8.2,0,14.6,0,18.9,0,2.2,0,3.8,0,4.9,0s1.7,0,1.7,0c0,0-.5,0-1.7,0-1.1,0-2.8,0-4.9,0-4.3,0-10.7,0-18.9,0-16.4,0-40.2,0-69.5.1h-.2v-.2c0-52,0-122.2,0-199.5v-.3h.3c33.4,0,65.6,0,94.9,0h.2v.2c0,58.2,0,108.1-.1,143.4,0,17.6,0,31.7,0,41.3,0,4.8,0,8.5,0,11,0,1.2,0,2.2,0,2.8,0,.6,0,1,0,1h0Z"/>
            <rect class="cls-1" x="288.7" y="261.3" width="6.8" height="33.5"/>
            <rect class="cls-1" x="288.7" y="367.3" width="6.8" height="33.5"/>
            <path class="cls-1" d="M216.4,355.6s0,0,0-.2c0-.2,0-.4,0-.6,0-.6,0-1.4,0-2.5,0-2.2,0-5.3,0-9.1,0-7.8,0-18.5-.1-30.7l.3.3h-8.3c.5-.5.1-.1.3-.2h0v13.1c0,4.2,0,8.2,0,11.9,0,7.4,0,13.6,0,18.2h-.1c2.6-.1,4.7,0,6.1,0,.7,0,1.2,0,1.6,0,.4,0,.6,0,.6,0,0,0-.2,0-.5,0-.4,0-.9,0-1.6,0-1.5,0-3.6,0-6.2,0h-.1c0-4.7,0-11,0-18.4,0-3.7,0-7.7,0-11.9v-13.1h0c.1-.1-.3.2.3-.3h8.6v.3c0,12.3,0,23.1-.1,30.9,0,3.8,0,6.9,0,9.1,0,1,0,1.8,0,2.4,0,.5,0,.8,0,.8h0Z"/>
            <path class="cls-1" d="M276.3,391.7c0,.1-13.8.3-30.8.3s-30.8-.1-30.8-.3,13.8-.3,30.8-.3,30.8.1,30.8.3Z"/>
            <path class="cls-1" d="M276.3,398.9c0,.1-13.8.3-30.8.3s-30.8-.1-30.8-.3,13.8-.3,30.8-.3,30.8.1,30.8.3Z"/>
            <path class="cls-1" d="M276.3,406.1c0,.1-13.8.3-30.8.3s-30.8-.1-30.8-.3,13.8-.3,30.8-.3,30.8.1,30.8.3Z"/>
            <path class="cls-1" d="M276.3,248.8c0,.1-13.8.3-30.8.3s-30.8-.1-30.8-.3,13.8-.3,30.8-.3,30.8.1,30.8.3Z"/>
            <path class="cls-1" d="M276.3,256c0,.2-13.8.3-30.8.3s-30.8-.1-30.8-.3,13.8-.3,30.8-.3,30.8.1,30.8.3Z"/>
            <path class="cls-1" d="M276.3,263.2c0,.1-13.8.3-30.8.3s-30.8-.1-30.8-.3,13.8-.3,30.8-.3,30.8.1,30.8.3Z"/>
          </g>
          <path class="cls-1" d="M253.7,86s0-.2.1-.5c.1-.4.3-.9.5-1.5.4-1.3,1-3.2,1.5-5.6.3-1.2.6-2.5.8-3.9.1-.7.3-1.5.4-2.2.1-.8.2-1.6.1-2.3-.1-.8-.6-1.4-1.4-1.6-.8-.2-1.6,0-2.3.6-.7.5-1.1,1.3-1.3,2.2-.2.9-.3,1.8-.3,2.8v.5s-.4-.3-.4-.3c-.9-.7-1.6-1.7-2.3-2.7-.6-.9-1.2-1.7-1.9-2.4-.7-.7-1.6-1.1-2.6-1.3-.9-.2-1.9,0-2.5.7-.6.7-.7,1.6-.6,2.5.4,1.7,1.8,3,2.8,4.2,1.1,1.2,2.1,2.3,3.1,3.4,1.8,2,3.4,3.7,4.4,4.9.5.6.9,1,1.2,1.4.3.3.4.5.4.5,0,0-.2-.1-.5-.4-.3-.3-.8-.8-1.3-1.3-1.1-1.2-2.7-2.8-4.6-4.8-1-1-2-2.1-3.1-3.3-.6-.6-1.2-1.2-1.7-1.9-.6-.7-1.1-1.5-1.3-2.5-.2-.9,0-2.1.6-2.9.7-.8,1.9-1.1,2.9-.9,1.1.2,2,.7,2.8,1.4.8.8,1.4,1.6,2,2.5.7,1,1.4,1.9,2.2,2.5l-.4.2c0-1,0-1.9.3-2.9.2-.9.7-1.9,1.5-2.5.8-.6,1.8-.9,2.7-.7,1,.2,1.7,1.1,1.8,2,.1.9,0,1.7-.1,2.5-.1.8-.3,1.5-.4,2.2-.3,1.4-.6,2.8-.9,3.9-.6,2.4-1.2,4.3-1.7,5.6-.2.7-.4,1.1-.6,1.5-.1.3-.2.5-.2.5h0Z"/>
          <path class="cls-1" d="M266.7,89.3c0,.1-4.9,1.9-10.9,3.8-6.1,2-11,3.5-11.1,3.3s4.8-1.9,10.9-3.8c6.1-2,11-3.5,11.1-3.3Z"/>
          <path class="cls-1" d="M253.3,104.3c-.1,0,.9-1.8,2.2-3.9,1.4-2.1,2.6-3.7,2.7-3.6s-.9,1.8-2.2,3.9c-1.4,2.1-2.6,3.7-2.7,3.6h0Z"/>
          <path class="cls-1" d="M259.9,102.5c0,.1-2.2-.5-4.8-1.5-2.6-.9-4.7-1.8-4.6-2s2.2.5,4.8,1.5c2.6.9,4.7,1.8,4.6,2Z"/>
          <path class="cls-1" d="M271.6,101.7c0,0-1.1.7-3.1,1.6s-4.7,2.1-7.7,3.2c-3,1.2-5.9,2.2-7.9,2.8-2,.7-3.3,1-3.4.9,0,0,1.2-.5,3.2-1.3,2-.7,4.8-1.8,7.8-2.9,3-1.2,5.8-2.3,7.8-3.1,2-.8,3.2-1.3,3.2-1.2h0Z"/>
          <path class="cls-1" d="M132,323.2c-.1,0,1.1-7.6,2.8-17,1.7-9.3,3.2-16.9,3.4-16.9.1,0-1.1,7.6-2.8,17-1.7,9.3-3.2,16.9-3.4,16.9Z"/>
          <path class="cls-1" d="M137.7,330.9c-.1,0,1.5-8.3,3.6-18.5,2.1-10.2,3.9-18.4,4.1-18.4.1,0-1.5,8.3-3.6,18.5s-3.9,18.4-4.1,18.4Z"/>
          <path class="cls-1" d="M138.7,345.3c-.1,0,2.9-10.4,6.7-23.1,3.8-12.7,7.1-23,7.2-23s-2.9,10.4-6.7,23.1c-3.8,12.7-7.1,23-7.2,23h0Z"/>
          <path class="cls-1" d="M143.7,349.9c-.1,0,1.7-8,4.1-17.8s4.5-17.7,4.6-17.6c.1,0-1.7,8-4.1,17.8s-4.5,17.6-4.6,17.6Z"/>
          <path class="cls-1" d="M148.8,338.1c-.1,0-6-7.3-13.1-16.4-7.1-9.2-12.8-16.7-12.7-16.8.1,0,6,7.3,13.1,16.4,7.1,9.2,12.8,16.7,12.7,16.8h0Z"/>
          <path class="cls-1" d="M152.9,336.6c-.1,0-4.7-7.2-10.3-16.2-5.6-9-10-16.4-9.8-16.5.1,0,4.7,7.2,10.3,16.2,5.6,9,10,16.4,9.8,16.5h0Z"/>
          <path class="cls-1" d="M156,328.3s-.4-.5-.9-1.5c-.6-1.1-1.5-2.5-2.5-4.2-2.1-3.5-5.1-8.4-8.5-13.6-3.5-5.2-6.8-9.9-9.2-13.2-1.2-1.6-2.2-2.9-2.9-3.9-.7-.9-1.1-1.5-1-1.5s.4.5,1.2,1.3c.7.9,1.8,2.2,3,3.8,2.5,3.3,5.9,7.9,9.4,13.1,3.5,5.2,6.4,10.1,8.4,13.8,1,1.8,1.8,3.3,2.3,4.3.5,1,.8,1.6.8,1.6h0Z"/>
          <path class="cls-1" d="M165.2,81.4s0,.2-.1.5c0,.3-.2.9-.4,1.6-.5,1.3-1.3,3.3-2.9,5.5-1.6,2.1-4.1,4.5-7.6,6.2-1.7.9-3.7,1.5-5.9,1.9-2.2.4-4.5.3-6.9-.2-1.2-.2-2.4-.8-3.4-1.5-1-.8-2-1.8-2.2-3.2-.2-1.4.8-2.9,2.3-3.2,1.4-.3,2.9.1,4.2.8,4.9,3.2,7.3,10.2,5.3,16.4-1,3.1-3.3,5.8-6.3,7.5-3,1.6-6.6,2.3-10.1,1.6-3.4-.7-6.9-2.8-8.5-6.2-.8-1.7-1-3.7-.4-5.5.6-1.8,1.9-3.4,3.8-4,1.9-.6,3.9,0,5.5.8,1.6.9,2.9,2.4,3.8,4,.9,1.6,1.4,3.3,1.9,5.1.4,1.7.9,3.4,1.2,5.1.7,3.4,1,7,0,10.3-.6,1.6-1.5,3.1-2.7,4.2-1.2,1.1-2.6,2-4.2,2.6-3.1,1.2-6.4,1.1-9.3.4-3-.8-5.6-2.2-7.9-3.9-2.3-1.7-4.2-4.1-4.3-6.9,0-1.4.2-2.7.8-3.8.6-1.2,1.7-2,2.9-2.3,1.2-.3,2.5-.2,3.6.3,1.1.5,2,1.2,2.7,2s1.3,1.7,1.8,2.7c.4,1,.7,1.9.8,2.9.6,3.9-.5,7.3-1.8,9.6-1.3,2.4-3,3.8-4.2,4.6-.3.2-.6.4-.8.5-.2.1-.4.2-.6.3-.3.2-.5.2-.5.2,0,0,.2-.1.5-.3.2,0,.4-.2.6-.3.2-.1.5-.3.8-.5,1.1-.8,2.8-2.2,4.1-4.6,1.3-2.3,2.4-5.6,1.7-9.4-.2-.9-.4-1.9-.8-2.8-.4-.9-1-1.8-1.7-2.6-.7-.8-1.6-1.5-2.6-1.9-1-.5-2.2-.6-3.3-.3-1.1.3-2.1,1.1-2.7,2.2-.6,1.1-.9,2.3-.8,3.6.2,2.6,2,4.9,4.2,6.6,2.2,1.7,4.9,3.1,7.8,3.8,2.9.8,6.1.8,9-.4,1.5-.6,2.8-1.4,4-2.5,1.2-1.1,2.1-2.5,2.6-4,1.1-3.1.7-6.6,0-10-.4-1.7-.8-3.4-1.2-5.1-.5-1.7-1-3.4-1.9-4.9-.9-1.5-2-2.9-3.6-3.8-1.5-.9-3.4-1.3-5.1-.8-1.7.5-3,2-3.5,3.6-.6,1.7-.4,3.5.3,5.1,1.5,3.2,4.8,5.2,8.1,5.9,3.4.7,6.9,0,9.8-1.6,2.9-1.6,5.1-4.2,6.1-7.2,1-3,.9-6.2,0-9-.9-2.8-2.7-5.3-5.1-6.8-1.2-.7-2.6-1.1-3.9-.8-1.3.3-2.2,1.5-2,2.8.2,1.2,1.1,2.2,2.1,3,1,.7,2.1,1.3,3.3,1.5,2.3.6,4.6.6,6.8.2,2.1-.3,4.1-1,5.8-1.8,3.4-1.7,5.9-3.9,7.6-6.1,1.7-2.1,2.5-4.1,3-5.4.2-.7.4-1.2.5-1.6.1-.3.2-.5.2-.5h0Z"/>
          <path class="cls-1" d="M165.2,127.6s-1.1.9-3.5,2c-2.3,1.1-5.9,2.3-10.6,2.3-1.1,0-2.4,0-3.6-.2-1.2-.2-2.6-.5-3.7-1.3-1.1-.8-2.1-2.1-2-3.7,0-.8.3-1.6.9-2.1.5-.6,1.2-1,2-1.2.8-.2,1.6-.3,2.4,0,.8.2,1.5.6,2.2,1.1,1.3,1.1,2.1,2.6,2.6,4.2.9,3.2.5,6.9-1.3,10.1-1.8,3.1-4.9,5.2-8.1,6-1.6.4-3.3.4-4.9.1-1.6-.3-3.1-1-4.2-2.2-1.1-1.1-1.4-2.9-1-4.3.2-.7.6-1.4,1.2-1.9.6-.5,1.3-.7,2.1-.7,1.5,0,2.7,1,3.4,2.1.7,1.1.9,2.4,1,3.5.1,4.7-1.6,8.2-3.1,10.3-1.5,2.1-2.7,2.9-2.7,2.9,0,0,.2-.3.7-.8.5-.5,1.1-1.2,1.8-2.3,1.4-2.1,3.1-5.6,2.9-10.2,0-1.1-.3-2.3-.9-3.3-.6-1-1.8-1.8-3-1.9-.6,0-1.2.2-1.8.6-.5.4-.9,1-1,1.6-.4,1.3-.1,2.8.9,3.9,1,1.1,2.4,1.7,3.9,2,1.5.3,3.1.2,4.7-.1,3.1-.7,6.1-2.8,7.8-5.7,1.7-3,2.1-6.5,1.2-9.6-.4-1.5-1.2-3-2.4-4-.6-.5-1.2-.9-2-1-.7-.2-1.5-.1-2.1,0-1.4.4-2.5,1.5-2.6,2.9,0,1.3.8,2.6,1.8,3.3,1.1.8,2.3,1.1,3.5,1.3,1.2.2,2.4.3,3.6.3,4.6,0,8.1-1.1,10.5-2.1,1.2-.5,2.1-1,2.6-1.3.3-.2.5-.3.7-.4.1,0,.2-.1.2-.1h0Z"/>
        </g>
        <path class="cls-1" d="M60.9,94s0,0,0-.2c0-.2,0-.4,0-.7,0-.6,0-1.4,0-2.5,0-2.2,0-5.4,0-9.3l.2.2c-11,0-28.5,0-48.1,0,.1-.1-.2.2.2-.2h0v12.7l-.2-.2c13.7,0,25.7,0,34.3.1,4.3,0,7.7,0,10.1,0,1.2,0,2.1,0,2.7,0,.3,0,.5,0,.7,0,.2,0,.2,0,.2,0,0,0,0,0-.2,0-.2,0-.4,0-.7,0-.6,0-1.5,0-2.7,0-2.4,0-5.8,0-10.1,0-8.6,0-20.7,0-34.5.1h-.2v-12.9h0c.5-.5.1-.2.2-.3,19.7,0,37.1,0,48.1,0h.2v.2c0,4,0,7.2,0,9.4,0,1.1,0,1.9,0,2.5,0,.3,0,.5,0,.6,0,.1,0,.2,0,.2h0Z"/>
        <path class="cls-1" d="M688.9,113.1s0,0,0-.2c0-.2,0-.4,0-.7,0-.6,0-1.4,0-2.5,0-2.2,0-5.4,0-9.3l.2.2c-11,0-28.5,0-48.1,0,.1-.1-.2.2.2-.2h0v12.7l-.2-.2c13.7,0,25.7,0,34.3.1,4.3,0,7.7,0,10.1,0,1.2,0,2.1,0,2.7,0,.3,0,.5,0,.7,0,.2,0,.2,0,.2,0,0,0,0,0-.2,0-.2,0-.4,0-.7,0-.6,0-1.5,0-2.7,0-2.4,0-5.8,0-10.1,0-8.6,0-20.7,0-34.5.1h-.2v-12.9h0c.5-.5.1-.2.2-.3,19.7,0,37.1,0,48.1,0h.2v.2c0,4,0,7.2,0,9.4,0,1.1,0,1.9,0,2.5,0,.3,0,.5,0,.6,0,.1,0,.2,0,.2h0Z"/>
        <g>
          <path class="cls-1" d="M462.2,151.6s0,0,0-.2c0-.2,0-.4,0-.6,0-.6,0-1.4,0-2.5,0-2.2,0-5.4,0-9.3h.1c-11,.2-28.5.2-48.1.2.1-.1-.2.2.2-.2h0v12.7l-.2-.2c13.7,0,25.7,0,34.3.1,4.3,0,7.7,0,10.1,0,1.2,0,2.1,0,2.7,0,.3,0,.5,0,.7,0,.2,0,.2,0,.2,0,0,0,0,0-.2,0-.2,0-.4,0-.7,0-.6,0-1.5,0-2.7,0-2.4,0-5.8,0-10.1,0-8.6,0-20.7,0-34.5.1h-.2v-12.9h0c.5-.5.1-.2.2-.3,19.7,0,37.1,0,48.1.1h.1c0,4.2,0,7.4,0,9.6,0,1.1,0,1.9,0,2.5,0,.3,0,.5,0,.6,0,.1,0,.2,0,.2h0Z"/>
          <path class="cls-1" d="M468.8,138.9s0,0,0-.2c0-.2,0-.4,0-.7,0-.6,0-1.5,0-2.6,0-2.2,0-5.4,0-9.3l.2.2c-7.5,0-17.7,0-28.9,0-.2.2.3-.3.2-.2h0v12.7l-.2-.2c8.4,0,15.5,0,20.7.1,2.5,0,4.6,0,6,0,.7,0,1.2,0,1.6,0,.4,0,.6,0,.6,0,0,0-.2,0-.5,0-.4,0-.9,0-1.6,0-1.4,0-3.5,0-6,0-5.2,0-12.4,0-20.9.1h-.2v-12.9h0s.5-.5.2-.3c11.2,0,21.4,0,28.9,0h.2v.2c0,3.9,0,7.1,0,9.4,0,1.1,0,1.9,0,2.5,0,.6,0,.9,0,.9h0Z"/>
        </g>
        <g>
          <path class="cls-1" d="M70.6,367.2s0,0,0-.2c0-.2,0-.4,0-.6,0-.6,0-1.4,0-2.5,0-2.2,0-5.4,0-9.3h.2c-11,.2-28.5.2-48.1.2.1-.1-.2.2.2-.2h0v12.7l-.2-.2c13.7,0,25.7,0,34.3.1,4.3,0,7.7,0,10.1,0,1.2,0,2.1,0,2.7,0,.3,0,.5,0,.7,0,.2,0,.2,0,.2,0,0,0,0,0-.2,0-.2,0-.4,0-.7,0-.6,0-1.5,0-2.7,0-2.4,0-5.8,0-10.1,0-8.6,0-20.7,0-34.5.1h-.2v-12.9h0c.5-.5.1-.2.2-.3,19.7,0,37.1,0,48.1.1h.2c0,4.2,0,7.4,0,9.6,0,1.1,0,1.9,0,2.5,0,.3,0,.5,0,.6,0,.1,0,.2,0,.2h0Z"/>
          <path class="cls-1" d="M77.1,354.5s0,0,0-.2c0-.2,0-.4,0-.7,0-.6,0-1.5,0-2.5,0-2.2,0-5.4,0-9.3l.2.2c-7.5,0-17.7,0-28.9,0-.2.2.3-.3.2-.2h0v12.7l-.2-.2c8.3,0,15.5,0,20.7.1,2.5,0,4.6,0,6,0,.7,0,1.2,0,1.6,0,.4,0,.6,0,.6,0,0,0-.2,0-.5,0-.4,0-.9,0-1.6,0-1.4,0-3.4,0-6,0-5.2,0-12.4,0-20.8.1h-.2v-12.9h0s.5-.5.2-.3c11.2,0,21.4,0,28.9,0h.2v.2c0,3.9,0,7.1,0,9.4,0,1.1,0,1.9,0,2.5,0,.6,0,.9,0,.9h0Z"/>
        </g>
        <g>
          <path class="cls-1" d="M539,44.9s0,0,0-.2c0-.2,0-.4,0-.7,0-.6,0-1.4,0-2.5,0-2.2,0-5.4,0-9.3l.2.2c-11,0-28.5,0-48.1,0,.1-.1-.2.2.2-.2h0v12.7l-.2-.2c13.7,0,25.7,0,34.3.1,4.3,0,7.7,0,10.1,0,1.2,0,2.1,0,2.7,0,.3,0,.5,0,.7,0,.2,0,.2,0,.2,0,0,0,0,0-.2,0-.2,0-.4,0-.7,0-.6,0-1.5,0-2.7,0-2.4,0-5.8,0-10.1,0-8.6,0-20.7,0-34.5.1h-.2v-12.9h0c.5-.5.1-.2.2-.3,19.7,0,37.1,0,48.1,0h.2v.2c0,4,0,7.2,0,9.4,0,1.1,0,1.9,0,2.5,0,.3,0,.5,0,.6,0,.1,0,.2,0,.2h0Z"/>
          <path class="cls-1" d="M545.5,32.2s0,0,0-.2c0-.2,0-.4,0-.7,0-.6,0-1.5,0-2.5,0-2.2,0-5.4,0-9.3l.2.2c-7.5,0-17.7,0-28.9,0-.2.2.3-.3.2-.2h0v12.7l-.2-.2c8.3,0,15.5,0,20.7.1,2.5,0,4.6,0,6,0,.7,0,1.2,0,1.6,0,.4,0,.6,0,.6,0,0,0-.2,0-.5,0-.4,0-.9,0-1.6,0-1.4,0-3.5,0-6,0-5.2,0-12.4,0-20.8.1h-.2v-12.9h0s.5-.5.2-.3c11.2,0,21.4,0,28.9,0h.2v.2c0,3.9,0,7.1,0,9.4,0,1.1,0,1.9,0,2.5,0,.6,0,.9,0,.9h0Z"/>
        </g>
        <g>
          <rect class="cls-1" y="247.6" width="46.2" height="12.2"/>
          <rect class="cls-3" x="33.2" y="222.5" width="46.2" height="12.2"/>
          <path class="cls-1" d="M59.9,247.6s0,0,0-.2c0-.2,0-.4,0-.6,0-.6,0-1.4,0-2.4,0-2.1,0-5.1,0-9h.1c-10.6.2-27.4.2-46.2.2.1-.1-.2.2.2-.2h0v12.2l-.2-.2c13.2,0,24.7,0,33,.1,4.1,0,7.4,0,9.7,0,1.1,0,2,0,2.6,0,.3,0,.5,0,.7,0s.2,0,.2,0c0,0,0,0-.2,0-.2,0-.4,0-.7,0-.6,0-1.5,0-2.6,0-2.3,0-5.6,0-9.7,0-8.3,0-19.9,0-33.1.1h-.2v-12.4h0c.5-.5.1-.2.2-.3,18.9,0,35.7,0,46.2,0h.1c0,4,0,7.1,0,9.2,0,1,0,1.8,0,2.4s0,.4,0,.6c0,.1,0,.2,0,.2h0Z"/>
        </g>
        <g>
          <rect class="cls-1" x="620.9" y="334.3" width="46.2" height="12.2"/>
          <rect class="cls-3" x="654.2" y="309.2" width="46.2" height="12.2"/>
          <path class="cls-1" d="M680.8,334.3s0,0,0-.2c0-.2,0-.4,0-.6,0-.6,0-1.4,0-2.4,0-2.1,0-5.1,0-9h.1c-10.6.2-27.3.2-46.2.2,0-.1-.2.2.2-.2h0v12.2l-.2-.2c13.2,0,24.7,0,33,.1,4.1,0,7.4,0,9.7,0,1.1,0,2,0,2.6,0,.3,0,.5,0,.7,0,.2,0,.2,0,.2,0,0,0,0,0-.2,0-.2,0-.4,0-.7,0-.6,0-1.5,0-2.6,0-2.3,0-5.6,0-9.7,0-8.3,0-19.9,0-33.1.1h-.2v-12.4h0c.5-.5.1-.1.2-.3,18.9,0,35.7,0,46.2,0h.1c0,4,0,7.1,0,9.2,0,1,0,1.8,0,2.4s0,.5,0,.6,0,.2,0,.2h0Z"/>
        </g>
        <g>
          <rect class="cls-3" x="432" y="318.1" width="49.6" height="13.1"/>
          <path class="cls-1" d="M460.6,345.1s0,0,0-.2c0-.2,0-.4,0-.7,0-.6,0-1.5,0-2.6,0-2.3,0-5.5,0-9.6h.1c-11.3.2-29.4.2-49.6.2.1-.1-.2.2.2-.2h0v13.1l-.2-.2c14.1,0,26.5,0,35.4.1,4.4,0,8,0,10.4,0,1.2,0,2.1,0,2.8,0,.3,0,.5,0,.7,0,.2,0,.3,0,.3,0,0,0,0,0-.2,0-.2,0-.4,0-.7,0-.7,0-1.6,0-2.8,0-2.5,0-6,0-10.4,0-8.9,0-21.3,0-35.5.1h-.2v-13.4h0c.5-.5.1-.2.3-.3,20.3,0,38.3,0,49.6.1h.2c0,4.3,0,7.6,0,9.9,0,1.1,0,1.9,0,2.5,0,.3,0,.5,0,.6,0,.1,0,.2,0,.2h0Z"/>
        </g>
        <g>
          <rect class="cls-3" x="584" y="371.9" width="49.6" height="13.1"/>
          <path class="cls-1" d="M612.6,398.4s0,0,0-.2c0-.2,0-.4,0-.7,0-.6,0-1.5,0-2.6,0-2.3,0-5.5,0-9.6h.2c-11.3.2-29.3.2-49.6.2.1-.1-.2.2.2-.2h0v13.1l-.2-.2c14.1,0,26.5,0,35.4.1,4.4,0,8,0,10.4,0,1.2,0,2.2,0,2.8,0,.3,0,.5,0,.7,0,.2,0,.3,0,.3,0,0,0,0,0-.2,0-.2,0-.4,0-.7,0-.7,0-1.6,0-2.8,0-2.5,0-6,0-10.4,0-8.9,0-21.3,0-35.5.1h-.2v-13.4h0c.5-.5.1-.2.3-.3,20.3,0,38.3,0,49.6.1h.2c0,4.3,0,7.6,0,9.9,0,1.1,0,1.9,0,2.5,0,.3,0,.5,0,.6,0,.1,0,.2,0,.2h0Z"/>
        </g>
        <g>
          <rect class="cls-3" x="528.1" y="179.1" width="49.6" height="13.1"/>
          <path class="cls-1" d="M556.8,206s0,0,0-.2c0-.2,0-.4,0-.7,0-.6,0-1.5,0-2.6,0-2.3,0-5.5,0-9.6h.2c-11.3.2-29.3.2-49.6.2.1-.1-.2.2.2-.2h0v13.1l-.2-.2c14.1,0,26.5,0,35.4.1,4.4,0,8,0,10.4,0,1.2,0,2.2,0,2.8,0,.3,0,.5,0,.7,0,.2,0,.3,0,.3,0,0,0,0,0-.2,0-.2,0-.4,0-.7,0-.7,0-1.6,0-2.8,0-2.5,0-6,0-10.4,0-8.9,0-21.3,0-35.5.1h-.2v-13.4h0c.5-.5.1-.2.3-.3,20.3,0,38.3,0,49.6.1h.2c0,4.3,0,7.6,0,9.9,0,1.1,0,1.9,0,2.6,0,.3,0,.5,0,.6,0,.1,0,.2,0,.2h0Z"/>
        </g>
        <g class="cls-16">
          <path class="cls-14" d="M487.4,430.2c-1.4-1.2-4.4-4.9-2.1-9.2.9-1.6,2.7-2.4,4.4-3.1,1.7-.7,3.4-1.3,4.8-2.5,2.6-2.2,3.3-5.9,5-8.8,2-3.4,5.7-5.9,9.6-5.7,4.5.2,8.2,3.9,9.9,8,1.7,4.2,1.8,8.8,1.8,13.3,0,2.5,0,5.3-1.9,7-1.7,1.5-4.2,1.6-6.5,1.5-8.1-.2-16.3-.5-24.4-.8"/>
          <path class="cls-1" d="M534.1,363h-64.2l11.6,69c.5,3,2.7,5.3,5.5,6.1,0,0,.1,0,.2,0,.2,0,.4.1.6.1.4,0,.9.1,1.3.1,0,0,0,0,0,0h.3s28.6,0,28.6,0c.5,0,1.1,0,1.6-.2,3.4-.5,6.1-3.2,6.5-6.7l5.6-47.5.2-1.9h0l2.2-18.8v-.4s0,0,0,0ZM522,407h-6.6l.7-20h7.6l-1.7,20h0ZM524.3,387h6.3l-2.3,20h-5.7l1.7-20h0ZM505.5,429.2l-.4-17.4h9.5l-.6,17.4h-8.5,0ZM495.2,411.8h9.2l.4,17.4h-8.3l-1.4-17.4ZM496,429.2h-7.7c-.7-4.7-1.7-10.8-2.7-17.4h9.1l1.4,17.4h0ZM494.9,407l-1.6-20h10.6l.5,20h-9.5,0ZM505,407l-.5-20h10.9l-.7,20h-9.8ZM504.4,382.2l-.4-18.5h12.2l-.6,18.5h-11.2,0ZM503.8,382.2h-10.9l-1.4-18.5h11.9l.4,18.5h0ZM492.3,382.2h-11.5c-.4-2.6-.8-5-1.1-7.2-1.2-7.5-1.6-10.3-1.9-11.4h13.1l1.4,18.5h0ZM492.7,387l1.6,20h-9.5c-.3-2-.6-4.1-1-6.1-.7-4.7-1.5-9.5-2.2-13.9h11.1ZM484.1,407h-6.2l-3.4-20h6.4c1,6.2,2.1,13.1,3.2,20ZM484.9,411.8c.9,6,1.9,12,2.7,17.4h-6l-2.9-17.4h6.1ZM514.7,429.2l.6-17.4h6.3l-1.5,17.4h-5.4ZM516.2,382.2l.6-18.5h8.9l-1.6,18.5h-7.9ZM477.2,363.6c.2,1.3,1.4,8.6,3,18.5h-6.5l-3.1-18.5h6.6ZM525.7,429.2h-5l1.5-17.4h5.5l-2,17.4h0ZM531.2,382.2h-6.5l1.6-18.5h7.1l-2.2,18.5Z"/>
        </g>
      </g>
      <g id="Floor">
        <path class="cls-6" d="M679.7,438.4c0,.1-147.3.3-329,.3s-329-.1-329-.3,147.3-.3,329-.3,329,.1,329,.3Z"/>
      </g>
      <g id="Speech_Bubble_2">
        <g>
          <g>
            <path class="cls-8" d="M550.4,107.3l-1.8-6.6c2.3-3.7,3.6-8.1,3.6-12.8,0-13.5-10.9-24.4-24.4-24.4s-24.4,10.9-24.4,24.4,10.9,24.4,24.4,24.4,10.8-1.9,14.9-5.1h7.7c0,.1,0,.1,0,.1Z"/>
            <path class="cls-6" d="M550.4,107.3s-.2,0-.5,0h-1.5c-1.3,0-3.3,0-5.8,0h-.2v-.2h.3c-2.5,2.1-6.1,4.2-10.9,5-2.4.4-5,.5-7.8,0-2.8-.4-5.7-1.3-8.4-2.9s-5.3-3.7-7.4-6.4c-2.1-2.7-3.7-5.9-4.5-9.5-1.7-7.1,0-15.5,5.4-21.6,2.7-3.1,6.1-5.5,9.8-6.9,3.7-1.4,7.6-1.9,11.3-1.5,3.7.4,7.2,1.6,10.2,3.4,3,1.8,5.4,4.1,7.3,6.7,3.7,5.2,4.9,11.1,4.6,15.9-.3,4.9-2,8.7-3.6,11.3h0c.6,2.1,1,3.7,1.3,4.9.1.5.2,1,.3,1.3,0,.3.1.4,0,.4,0,0,0-.2-.1-.4,0-.3-.2-.7-.4-1.3-.3-1.1-.8-2.8-1.4-4.9h0s0,0,0,0c1.6-2.6,3.2-6.4,3.5-11.2.3-4.8-.9-10.6-4.6-15.7-1.8-2.5-4.3-4.8-7.2-6.5s-6.3-2.9-10-3.3c-3.6-.3-7.5.1-11.1,1.5-3.6,1.3-6.9,3.7-9.6,6.7-5.2,5.9-7,14.2-5.3,21.2.8,3.5,2.4,6.7,4.4,9.3,2,2.7,4.5,4.8,7.2,6.3,2.7,1.5,5.5,2.4,8.2,2.9,2.7.4,5.3.4,7.7,0,4.8-.8,8.4-2.8,10.8-4.7l.7-.5-.5.7h0v-.2c2.4,0,4.3.1,5.6.2.6,0,1.1,0,1.5,0,.3,0,.5,0,.5,0h0Z"/>
          </g>
          <path class="cls-2" d="M525.8,77.7l.7,11.7c0,1,.8,1.7,1.8,1.8h0c1,0,1.9-.7,2-1.7l1.3-11.8c0-.9-.6-1.7-1.5-1.7h-2.9c-.8,0-1.5.8-1.5,1.6h0Z"/>
          <path class="cls-2" d="M531.4,97.8c-.5,1.5-2.1,2.3-3.6,1.8-1.5-.5-2.3-2.1-1.8-3.6.5-1.5,2.1-2.3,3.6-1.8,1.5.5,2.3,2.1,1.8,3.6Z"/>
        </g>
      </g>
      <g id="Speech_Bubble_1">
        <g>
          <g>
            <path class="cls-8" d="M145,90.7l1.9-6.6c-2.3-3.7-3.6-8.1-3.6-12.8,0-13.5,10.9-24.4,24.4-24.4s24.4,10.9,24.4,24.4-10.9,24.4-24.4,24.4-10.8-1.9-14.9-5.1h-7.7c0,.1,0,.1,0,.1Z"/>
            <path class="cls-6" d="M145,90.7s.2,0,.5,0c.4,0,.9,0,1.5,0,1.3,0,3.2,0,5.7-.2v.2h0l-.5-.7.7.5c2.5,1.9,6.1,3.9,10.9,4.7,2.4.4,5,.4,7.7,0s5.5-1.3,8.2-2.9c2.7-1.5,5.2-3.6,7.2-6.3,2-2.7,3.6-5.8,4.4-9.3,1.7-7,0-15.2-5.3-21.2-2.6-3-5.9-5.4-9.6-6.7-3.6-1.4-7.4-1.8-11.1-1.5-3.6.4-7.1,1.6-10,3.3-2.9,1.7-5.4,4-7.2,6.5-3.7,5.1-4.9,10.9-4.6,15.6.3,4.8,1.9,8.7,3.5,11.2h0c-.6,2.2-1.1,3.8-1.4,5-.2.5-.3,1-.4,1.3,0,.3-.1.4-.1.4,0,0,0-.1.1-.4,0-.3.2-.7.3-1.3.3-1.2.8-2.8,1.3-5h0c-1.6-2.5-3.3-6.3-3.6-11.2-.3-4.8.9-10.8,4.6-15.9,1.9-2.6,4.3-4.9,7.3-6.7,3-1.8,6.4-3,10.2-3.4,3.7-.4,7.6.1,11.3,1.5,3.7,1.4,7.1,3.8,9.8,6.9,5.3,6.1,7.1,14.5,5.4,21.6-.8,3.6-2.4,6.8-4.5,9.5-2.1,2.7-4.6,4.9-7.4,6.4-2.7,1.5-5.6,2.5-8.4,2.9-2.8.4-5.4.4-7.8,0-4.8-.8-8.5-2.9-10.9-4.8l.2-.2h0v.2c.1,0,0,0,0,0-2.5,0-4.4,0-5.8,0h-1.5c-.3,0-.5,0-.5,0h0Z"/>
          </g>
          <g>
            <path class="cls-6" d="M175.1,71.7c0,1.4,1.1,2.5,2.5,2.5s2.5-1.1,2.5-2.5-1.1-2.5-2.5-2.5-2.5,1.1-2.5,2.5Z"/>
            <path class="cls-6" d="M165.2,71.7c0,1.4,1.1,2.5,2.5,2.5s2.5-1.1,2.5-2.5-1.1-2.5-2.5-2.5-2.5,1.1-2.5,2.5Z"/>
            <path class="cls-6" d="M155.3,70.5c-.7,1.2-.3,2.7.9,3.4s2.7.3,3.4-.9c.7-1.2.3-2.7-.9-3.4-1.2-.7-2.7-.3-3.4.9Z"/>
          </g>
        </g>
      </g>
      <g id="Character_4">
        <g>
          <g>
            <path class="cls-15" d="M555.8,221.1s-15.2.4-16.8,2c-1.6,1.6-15.5,51.4-15.3,55.9.2,4.5,21.5,8.7,23.5,6.8s13.9-57.4,13.9-57.4l-5.2-7.3Z"/>
            <path class="cls-6" d="M552.9,221.2s0,.2-.2.6c-.2.5-.4,1.1-.7,1.8-.6,1.6-1.4,3.9-2.4,6.6-2,5.6-4.7,13.3-7.5,21.9-2.8,8.6-5.2,16.4-7.1,22.1-.9,2.8-1.7,5-2.2,6.7-.3.7-.5,1.3-.6,1.8-.2.4-.2.6-.2.6,0,0,0-.2.2-.6.1-.5.3-1.1.5-1.8.5-1.6,1.2-3.9,2-6.7,1.7-5.7,4.1-13.5,6.9-22.1,2.8-8.6,5.5-16.4,7.7-21.9,1.1-2.8,2-5,2.6-6.5.3-.7.6-1.3.8-1.8.2-.4.3-.6.3-.6h0Z"/>
            <path class="cls-6" d="M540.3,257.6c0,.1-2.6-.3-5.7-1.3-3.1-1.1-5.4-2.4-5.3-2.5,0-.1,2.4.9,5.5,2,3,1.1,5.6,1.7,5.5,1.8Z"/>
          </g>
          <g>
            <path class="cls-17" d="M562.6,157.1l-17.7,29.7-23-16.1-10.9,3.6s27.2,30.9,31.3,33.3c4.2,2.4,9.8,5.1,14.6-.9,4.4-5.5,21-39.7,21-39.7l-15.3-9.8h0Z"/>
            <g>
              <path class="cls-15" d="M495.2,139.2c.4-.5,1-.7,1.5-.7l10.2,1c.9.1,1.7.6,2.2,1.3l22.2,31.6-1.6,1h-11.2s-23.6-33.8-23.6-33.8l.3-.4h0Z"/>
              <path class="cls-7" d="M502.5,143.1c-.2.2-.6.1-.9-.1s-.3-.7-.1-.9c.2-.2.6-.1.9.1s.3.7.1.9Z"/>
              <path class="cls-6" d="M494.9,139.6s.7.1,2,.3c1.4.2,3.2.4,5.4.6,1.1.1,2.4.3,3.7.4.6,0,1.2.3,1.6.9.4.6.8,1.2,1.3,1.8,1.8,2.5,3.7,5.2,5.7,8.1,4,5.7,7.7,10.9,10.4,14.6,1.3,1.8,2.4,3.3,3.2,4.4.8,1,1.2,1.6,1.2,1.6,0,0-.3-.6-1-1.7-.8-1.1-1.8-2.7-3-4.5-2.6-3.8-6.2-9-10.2-14.7-2-2.9-3.9-5.6-5.7-8.1-.4-.6-.9-1.2-1.3-1.8-.5-.6-1.3-1-2-1.1-1.3-.1-2.6-.2-3.7-.3-2.2-.2-4-.3-5.4-.4-1.3,0-2-.1-2,0h0Z"/>
            </g>
            <g>
              <path class="cls-17" d="M506.5,150.8s.9-.2,1.5,2.3c.6,2.4,2.4,9.5,2.4,9.5l4.6-2.7,5.9.6s1.3,1.1.4,1.8c-.9.7-4.6,1.5-4.6,1.5l-2.6,4.1,7.8-4.1s2.7.6,2,2.2-5.9,6.9-5.9,6.9l4-.4,4.6-3s1.5,0,1,1.3-5.2,5.9-5.2,5.9l-5.8,3.1s-3.3-.1-3.6-1.1c-.3-.9-.5-2.3-.5-2.3,0,0-1.7-.4-2.1-1.2s-.2-2.1-.2-2.1c0,0-2.7.6-3.1-.9-.4-1.5-.2-4.5,0-5.6.2-1.2-1.6-11.9-1.5-12.2s-.8-3.9,1-3.2h0Z"/>
              <path class="cls-10" d="M513.5,179.1c0,0,.6.3,1.6.4,1,.1,2.4,0,3.9-.3s2.7-1.1,3.5-1.7c.8-.6,1.2-1.1,1.1-1.2-.1-.1-1.9,1.6-4.8,2.3-2.9.8-5.3.3-5.3.5h0Z"/>
              <path class="cls-10" d="M514,176.3c0,.1,1.1-.4,2.2-1.4,1.1-1,1.8-1.9,1.7-2s-1,.6-2.1,1.6-1.9,1.7-1.8,1.9h0Z"/>
              <path class="cls-10" d="M510.7,171.3c.1.1,1.1-.4,2.1-1.5,1-1,1.6-2,1.5-2.1-.1-.1-.9.7-1.9,1.7-1,1-1.8,1.8-1.7,1.9h0Z"/>
              <path class="cls-10" d="M507.2,167.3c.2,0,.7-1.1,1.6-2.3.9-1.3,1.8-2.1,1.7-2.3-.1-.1-1.2.6-2.2,1.9-1,1.3-1.3,2.6-1.1,2.7h0Z"/>
            </g>
            <path class="cls-10" d="M551.1,196.3c-.2,0-.6-2.6-2.4-5.3-1.8-2.7-4-4.2-3.9-4.3,0-.1,2.5,1.2,4.3,4,1.8,2.8,2.1,5.6,1.9,5.6h0Z"/>
          </g>
          <path class="cls-2" d="M631,231l-71.9,2.8c-4.4,12.9-5,26.8-3.5,40.3,1.6,13.5,5.3,26.7,9.5,39.6,25.5,2.2,51.1,4.4,76.6,2.4,2.1-.2,4.4-.5,5.8-2.1,1.1-1.3,1.3-3.2,1.5-4.9,1.9-27-4.9-54.4-17.9-78.1h0Z"/>
          <path class="cls-6" d="M554.3,253c.2.8-6.4,19.1-5,32.4s7.3,65.4,7.3,65.4l6.7,74.8h23.5s4.7-97.3,6-109.4,4.7-36.9,4.7-36.9c0,0,12.1,52.8,14.4,60,3.7,11.6,13,50,16,58.1s7.9,28.2,7.9,28.2l21.3-5.1s-5.9-42.4-9.1-56.2c-3.6-15.5-3.5-24.9-2.5-40.7s.7-46.3-6.2-62.7l-3-7-82-.9h0Z"/>
          <g>
            <g>
              <path class="cls-6" d="M611.1,66.5c.7-1.5,2.1-2.5,3.6-3.2,3.4-1.6,7.5-1.6,10.9,0s5.9,5,6.4,8.7c.5,3.7-1.2,7.7-4.4,9.8,2,0,4,.6,5.7,1.6.5.3,1,.7,1.2,1.3.2.9-.7,1.8-1.7,1.8-.7,0-1.4-.2-2-.6.7.4,1.3.9,1.5,1.7.3,1.3-1.1,2.6-2.5,2.6-1.4,0-2.6-.7-3.8-1.4l-14.2-17.9c-1.3-1-1.6-3-.9-4.5h0Z"/>
              <g>
                <g>
                  <path class="cls-6" d="M580.3,89s-5,18.9-5.5,32.2v4.4c-.1,0,11,9.2,20.3,9.8l7.8-19.3-22.7-27.3h0Z"/>
                  <g>
                    <g>
                      <g>
                        <path class="cls-6" d="M629.9,100.6c-2.1-9.2-3-19.9-10.6-25.9-5.7-4.5-12.2-5.7-19.4-5.4-3.5.2-7.6,1.8-10.7,3.5-4.2,2.4-6,7.3-8.1,11.7-4.1,8.9-3.6,20.9-.8,24.2l37,19.6c7.4-3.8,12-5.4,13.2-15.2.5-4.2.2-8.4-.7-12.4h0Z"/>
                        <g>
                          <path class="cls-17" d="M618.8,82l-23.3-6.9c-7.5-1.1-12.9,8-13.7,15.6-.9,8.4-1.6,18.7-.8,25,1.5,12.7,11.1,14.7,11.1,14.7,0,0,0,.2,0,3.9v7.7c-.1,2.5.3,3.3,1.8,5.2,3.4,4.5,9.7,5.1,17.1,2.3,4.3-1.6,7.3-4.8,7.6-9.1v-51.4c.1-2.3,2.6-6.7.3-7h0Z"/>
                          <path class="cls-6" d="M584.5,102.4c0,.8.6,1.6,1.5,1.7s1.7-.5,1.7-1.4c0-.8-.6-1.6-1.5-1.7-.9,0-1.7.5-1.7,1.4h0Z"/>
                          <path class="cls-6" d="M583.4,98.3c.2.2,1.5-.6,3.2-.6,1.7,0,3,1,3.2.8,0,0,0-.5-.6-.9-.5-.4-1.5-.8-2.5-.9-1.1,0-2,.3-2.5.7-.5.4-.8.8-.7.9h0Z"/>
                          <path class="cls-6" d="M599.4,103.2c0,.8.6,1.6,1.5,1.7s1.7-.5,1.7-1.4c0-.8-.6-1.6-1.5-1.7s-1.7.5-1.7,1.4Z"/>
                          <path class="cls-6" d="M600.5,98.5c.2.2,1.5-.6,3.2-.6,1.7,0,3,1,3.2.8,0,0,0-.5-.6-.9-.5-.4-1.5-.8-2.5-.9-1.1,0-2,.3-2.5.7-.5.4-.8.8-.7.9h0Z"/>
                          <path class="cls-6" d="M593.8,109.8c0,0-1.1-.3-2.8-.6-.4,0-.9-.2-.9-.5,0-.3.1-.8.3-1.3.5-1.1.9-2.2,1.5-3.3,2-4.8,3.5-8.7,3.3-8.7-.2,0-2,3.7-4,8.4-.5,1.2-1,2.3-1.4,3.4-.2.5-.5,1.1-.3,1.7.1.3.4.6.7.7.3,0,.5.1.8.1,1.8.2,2.9.2,2.9.1h0Z"/>
                          <path class="cls-10" d="M592.1,130.3s8.5.9,17.1-3.8c0,0-4.5,8.7-17.1,7v-3.1s0,0,0,0Z"/>
                          <path class="cls-6" d="M599.9,92.1c.1.5,1.9.4,3.9.9,2,.4,3.6,1.2,3.9.8.1-.2,0-.7-.7-1.2-.6-.5-1.6-1.1-2.8-1.3-1.2-.2-2.3-.2-3.1,0-.8.2-1.2.6-1.1.8h0Z"/>
                          <path class="cls-6" d="M583.5,93.6c.4.3,1.7-.3,3.3-.5,1.6-.3,3-.2,3.2-.6.1-.2-.2-.6-.8-.9-.6-.3-1.7-.4-2.8-.3-1.1.2-2,.7-2.5,1.2-.5.5-.6.9-.5,1.1h0Z"/>
                        </g>
                      </g>
                      <path class="cls-6" d="M595.5,73.8c0,0,0,.2,0,.3h0c0,0,0-.2,0-.3Z"/>
                    </g>
                    <path class="cls-6" d="M618.9,136.7c-6.3-.4-6.6-6.9-6.2-10.2.4-3.5,1.2-7.5,2.1-10.9,1.5-5.4-.6-11.2-1.3-16.9-3.2-.4-6.1-2.3-8.2-4.7-2.5-2.9-4.1-6.6-5.5-10.2,0,3.5,1.3,7,3.4,9.8-1.4.3-2.9-.3-3.9-1.3s-1.7-2.3-2.3-3.6c-1.4-3.2-2.1-6.6-2.2-10.1-.5,5,0,10,1.7,14.7-.9-.3-1.8,0-2.7,0s-2,.1-2.6-.6c-.4-.4-.6-1.1-.7-1.7-.9-4.2-1-8.6-.4-12.8-1.1,2.3-2.2,4.6-2.9,7.1s-.8,5.2,0,7.6c-.4.5-1.1.4-1.6,0-.4-.4-.6-1-.7-1.6-.3-2.1,0-4.3.4-6.4-1.3,2.2-1.7,4.8-2.4,7.3s-1.8,5-4,6.4c-.4-3.7-.2-6.2.3-9.7.4-2.7,1.7-5.3,2.8-7.7,1.3-2.7,3.1-5.4,5.1-7.1,3.7-3.3,5.3-1.8,7.7-.6h.3c0,0,0,0,0,0v-.5c6.3-1.4,12.8-1.1,18.9.9,4.5,1.5,4.9,11.1,6,6.5.7-2.8,4.2-.2,4.3-.2,5.3,9.5,10.9,24.6,11.1,48.5h0l-16.3,7.8h0Z"/>
                  </g>
                </g>
                <path class="cls-15" d="M624,80c-.8.3-2.9-2.9-6.7-5.5-3.8-2.7-7.6-3.5-7.5-4.3,0-.4,1.1-.7,2.8-.5,1.7.2,4.1.9,6.3,2.4,2.2,1.5,3.8,3.5,4.5,5,.8,1.6.9,2.7.5,2.8h0Z"/>
              </g>
            </g>
            <path class="cls-10" d="M599.5,113.3c-.4-.8,0-1.7-.8-1.4-1.2.4-3.8,1.4-4.8,2.2-.3.3.2.9.2,1.1s0,.1.2.3c.7.7,1.4,1.3,2.3,1.6.9.2,2,0,2.6-.9.6-.8.6-2.2.2-2.9Z"/>
            <path class="cls-6" d="M595.9,116.8c0,0,.7.4,1.9,0,.5-.2,1.2-.6,1.4-1.3.2-.7.2-1.6-.1-2.5-.1-.3-.3-.7-.4-1h.3c-3,1.4-5.3,2.3-5.4,2.2,0-.1,2.2-1.2,5.2-2.6h.2c0,0,.1.1.1.1.2.3.3.7.5,1.1.3.9.4,1.9,0,2.8-.3.9-1.1,1.3-1.7,1.5-.6.2-1.2.1-1.5,0-.3-.1-.5-.3-.5-.3h0Z"/>
          </g>
          <g>
            <path class="cls-6" d="M566.9,407.4l.4,25.6-5.5,20.3c-.4,1.5.5,3,2,3.3h0c.8.2,1.7,0,2.3-.7,3.9-3.7,18.3-17.5,18.2-19.4-.2-2.2,1.3-27,1.3-27l-18.8-2.1h0Z"/>
            <path class="cls-15" d="M563.8,456.6l20.5-21.7v1.1c0,.9-.3,1.8-1,2.5-1.6,1.9-6.3,7-17.2,17.4-.6.6-1.5.9-2.4.7h0Z"/>
            <g class="cls-11">
              <path class="cls-7" d="M579.1,426.6c-.6.4-.9,1.4-.5,2.1s1.4.9,2,.5c.7-.4,1-1.6.5-2.2-.5-.6-1.7-.8-2.2-.2"/>
            </g>
            <path class="cls-7" d="M569.7,445.5c-.2,0-.7-1.3-2.2-2-1.5-.8-2.9-.4-2.9-.6,0,0,.3-.3.9-.3.6,0,1.5,0,2.3.4.8.4,1.4,1,1.7,1.6.3.5.3.9.3.9h0Z"/>
            <path class="cls-7" d="M567.9,448.9c-.1.1-.9-.7-2.3-1.1-1.3-.4-2.5-.2-2.5-.3,0-.1,1.2-.7,2.7-.2,1.5.5,2.2,1.6,2.1,1.6h0Z"/>
            <path class="cls-7" d="M573.1,441.1c-.1.1-1.4-1.2-3.4-2-2-.8-3.8-.7-3.8-.9,0-.1,1.9-.5,4,.4,2.1.8,3.3,2.4,3.2,2.5h0Z"/>
            <path class="cls-7" d="M573.7,433.3c0,.1-1.5-.5-3.3-.5-1.8-.1-3.3.4-3.3.2,0-.1,1.4-.9,3.4-.8,2,0,3.4,1,3.3,1.1h0Z"/>
            <path class="cls-7" d="M573.7,425.8c0,.1-1.5-.7-3.4-.6-1.9,0-3.3,1-3.4.8,0,0,.2-.4.8-.7s1.5-.6,2.5-.7,2,.2,2.6.5c.6.3.9.6.9.7h0Z"/>
          </g>
          <g>
            <path class="cls-6" d="M636.2,407.6l3.6,25.3-2.9,20.9c-.2,1.5.9,2.9,2.4,3h0c.8,0,1.7-.3,2.2-1,3.4-4.2,16-19.6,15.6-21.5-.4-2.1-2.1-27-2.1-27l-18.9.2h0Z"/>
            <path class="cls-15" d="M639.4,456.7l17.6-24.1v1.1c.2.9,0,1.9-.5,2.6-1.4,2.1-5.3,7.8-14.8,19.5-.5.7-1.4,1-2.3,1h0Z"/>
            <g class="cls-11">
              <path class="cls-7" d="M650.8,425c-.6.5-.7,1.5-.2,2.1.5.6,1.5.7,2.1.2.6-.5.7-1.7.2-2.2-.6-.5-1.7-.6-2.2,0"/>
            </g>
            <path class="cls-7" d="M643.9,444.9c-.1,0-.9-1.2-2.5-1.7-1.6-.6-2.9,0-3-.2,0,0,.3-.3.8-.5.6-.2,1.5-.2,2.3.1s1.5.9,1.9,1.4c.4.5.4.9.4.9h0Z"/>
            <path class="cls-7" d="M642.5,448.6c-.1.1-1-.6-2.4-.8-1.3-.2-2.5.1-2.5,0,0-.1,1.1-.8,2.6-.5,1.5.3,2.4,1.3,2.3,1.4h0Z"/>
            <path class="cls-7" d="M646.7,440.2c0,.1-1.5-1-3.6-1.5-2.1-.6-3.8-.3-3.9-.4,0-.1,1.8-.7,4-.1,2.2.6,3.6,2,3.5,2.1h0Z"/>
            <path class="cls-7" d="M646.2,432.4c0,.2-1.5-.3-3.4-.1-1.8.1-3.2.8-3.3.6,0-.1,1.3-1,3.3-1.2,2-.2,3.5.5,3.4.7h0Z"/>
            <path class="cls-7" d="M645.4,424.9c0,.2-1.6-.5-3.5-.2-1.9.3-3.2,1.4-3.3,1.2,0,0,.2-.4.7-.8.5-.4,1.4-.8,2.4-1,1-.2,2,0,2.6.2.6.2,1,.5,1,.5h0Z"/>
          </g>
          <g>
            <path class="cls-1" d="M629.2,142.2c1.2,0,12.5,3.1,15.3,11.3,2.3,6.7,8.9,35.8,8.9,35.8h-27s-5.7-16.4-4.8-25.5c.8-9.1,7.7-21.6,7.7-21.6h0Z"/>
            <path class="cls-1" d="M625,223.8l7.4-41.5-3.2-40.2-10.6-1.6c-10.2,4.6-19.4,5.5-26.8,0l-9.8,1.2s-10.3.5-18.9,11c-3.2,3.9-16.3,24.5-16.3,24.5l15.1,9.4c.4,9.6,1.5,25.6,1.5,25.6l-13.6,52.8s27.2,8.8,43.1,8.8,47.6-12.3,47.6-12.3l-15.4-37.8h0Z"/>
            <path class="cls-6" d="M571.2,159s-.2.5-.8,1.2c-.3.4-.6.9-.9,1.4-.3.6-.8,1.2-1.1,1.9-.8,1.4-1.7,3.2-2.5,5.2-.8,2-1.6,4.3-2.2,6.7-.6,2.4-1,4.8-1.2,6.9-.2,2.2-.3,4.1-.3,5.8,0,.8,0,1.6,0,2.2,0,.6,0,1.2.1,1.7,0,.9,0,1.4,0,1.4,0,0-.1-.5-.3-1.4,0-.5-.2-1-.2-1.7,0-.7-.1-1.4-.2-2.2,0-1.7,0-3.6.2-5.8.2-2.2.6-4.6,1.2-7,.6-2.4,1.5-4.7,2.3-6.8.9-2,1.8-3.8,2.7-5.2.4-.7.8-1.3,1.2-1.9s.7-1,1-1.4c.6-.7.9-1.1.9-1.1h0Z"/>
            <path class="cls-6" d="M586.3,236.7s-.9-.5-2.1-1.6-2.8-2.7-4.4-4.8c-1.5-2-2.7-4-3.4-5.5s-1.1-2.4-1-2.5c0,0,.5.9,1.3,2.3s2,3.3,3.5,5.3c1.5,2,3,3.6,4.2,4.8,1.2,1.2,1.9,1.8,1.9,1.9h0Z"/>
            <path class="cls-6" d="M609.3,223.4c0,0,0,.8-.3,1.9-.3,1.2-.8,2.8-1.5,4.5-.7,1.7-1.6,3.2-2.2,4.2-.7,1-1.2,1.6-1.2,1.6-.1,0,1.5-2.6,3-6,1.5-3.4,2.2-6.3,2.3-6.3h0Z"/>
            <path class="cls-6" d="M599.2,196.4s-.3,0-.7,0-1.1-.2-1.9-.4c-1.6-.5-3.7-1.4-5.6-3.1-1.9-1.6-3.2-3.5-4-5-.4-.7-.6-1.3-.7-1.8s-.2-.7-.2-.7c0,0,.4.9,1.2,2.3.8,1.4,2.1,3.2,4,4.7,1.9,1.6,3.9,2.6,5.4,3.1,1.5.5,2.5.7,2.5.8h0Z"/>
            <path class="cls-6" d="M629,186.9s-.2-.4-.4-1.1c-.2-.7-.5-1.8-.9-3-.7-2.6-1.6-6.2-2.3-10.2-.7-4-1.1-7.7-1.3-10.4,0-1.3-.1-2.4-.2-3.2s0-1.2,0-1.2,0,.4.2,1.1c0,.9.2,1.9.3,3.1.3,2.7.7,6.3,1.4,10.4s1.5,7.6,2.1,10.2c.3,1.2.5,2.2.8,3.1.2.7.3,1.1.2,1.1h0Z"/>
          </g>
          <g>
            <path class="cls-2" d="M561,224.7l31.7,12.5v8.1l-38.2-2.3s-1.8-5.8,0-12.2c1.8-6.4,6.6-6,6.6-6h0Z"/>
            <path class="cls-2" d="M592.7,237.2l32.7-12.5s10.6,7.7,8.6,19.9l-41.3.7v-8.1h0Z"/>
            <ellipse class="cls-2" cx="593.6" cy="239.9" rx="6.6" ry="6.9"/>
            <path class="cls-4" d="M613.2,282c-.3-3.2-2.9-5.5-4.7-8.1-2.2-3.2-3.2-7.1-3.9-11-.7-3.9-1.1-7.8-2.3-11.5s-3.3-7.3-6.5-9.3v.6c-5.9,11-6.5,24.9-1.5,36.3,1.2,2.9,2.9,5.7,5.2,7.6s5.6,3.1,8.5,2.2,5.3-3.8,5.1-7h0Z"/>
            <path class="cls-2" d="M599.9,278.5c-.7-2.8-2.2-5.3-3.3-8-3.5-8.6-2.6-18.4-1.6-27.7l-6.7-.2c-6.5,9.2-7.9,21.3-7.5,32.7,0,2.4.3,7.1,1.2,9.3.9,2.2,2.2,5.2,4.5,5.7v2.3c1.9,0,3.9,0,5.9,0v-1.9c1.3-.9,4.3-3.2,5.4-4.2,2.2-1.8,2.6-5.2,1.9-8h0Z"/>
            <path class="cls-6" d="M598.3,235.7c0,0-.9-.9-2.6-1.7-.8-.4-2-.8-3.2-.7-1.2,0-2.5.7-3.5,1.7-1,1-1.7,2.2-2,3.4-.3,1.2-.4,2.3-.4,3.3,0,1.9.3,3.1.2,3.1,0,0-.1-.3-.3-.8s-.3-1.3-.3-2.3,0-2.2.3-3.4c.3-1.3,1-2.6,2.1-3.7,1.1-1.1,2.5-1.7,3.8-1.8,1.3,0,2.5.4,3.4.8.9.5,1.5,1,1.9,1.4.4.4.6.6.5.6h0Z"/>
            <path class="cls-6" d="M594.2,239.4c0,0-.5.1-1.3.4-.8.3-1.8.9-2.8,1.8s-1.7,1.9-2.2,2.5c-.5.7-.9,1.1-1,1.1,0,0,.2-.5.7-1.3.5-.7,1.2-1.8,2.2-2.7,1-.9,2.1-1.5,3-1.8.9-.2,1.5-.1,1.4,0h0Z"/>
            <path class="cls-6" d="M596.5,243.2c-.1,0-1.8-1.7-3.6-4s-3.1-4.4-3-4.5c.1,0,1.6,1.8,3.4,4.2,1.8,2.4,3.3,4.3,3.2,4.4h0Z"/>
            <path class="cls-6" d="M598.7,244.7c-.2,0,.8-2,.7-4.6-.1-2.6-1.3-4.5-1.2-4.5,0,0,.4.4.8,1.2.4.8.8,2,.9,3.4,0,1.4-.2,2.6-.5,3.4-.3.8-.6,1.3-.7,1.2h0Z"/>
          </g>
          <path class="cls-15" d="M623.4,141.2l-67.6,79.9,3.1,4,70.4-83s-2.4-3-5.8-.9h0Z"/>
          <g>
            <path class="cls-17" d="M645.2,189.6c.6.6,9.6,18.6,8.5,23.5-1.1,4.9-6.6,8-8.5,8s-14.9-31.5-14.9-31.5l11.8-5.6,3.2,5.6h0Z"/>
            <g>
              <polygon class="cls-6" points="636.2 214.8 615.2 214.8 611.7 211.7 644.3 168.8 663.5 170.6 666.3 173.2 636.2 214.8"/>
              <polygon class="cls-15" points="665.7 177.1 639 213.9 622.5 213.3 619.9 210.8 649.9 173.3 664.1 175 665.7 177.1"/>
              <polygon class="cls-1" points="620.7 211.5 650.4 174.1 663.7 175.5 664.8 176.9 651.2 175.5 622.2 212.8 620.7 211.5"/>
              <polygon class="cls-1" points="612.5 212.4 645.3 169.8 663.2 171.4 665 173 646.9 171.7 614.2 213.9 612.5 212.4"/>
            </g>
            <path class="cls-17" d="M646.3,210.8l-4.2-.9s-1.1-6.5-2.5-7.3c-1.4-.8-13.7-.8-14.9.7-1.2,1.5-.7,2.1-.7,2.1,0,0-3.4-.8-3.9,3.2,0,0-3.6.5-2.1,3.5,0,0-3.5,1.8-1.4,4,0,0-.7,3.2,2.3,4.9s6.4,1.1,6.4,1.1l20-1.1,1.1-10.3h0Z"/>
            <path class="cls-10" d="M632.4,207.2c0,0-.7-.2-1.7,0-1,.2-2.5.8-4.2.7-.9,0-1.7-.4-2.3-.9-.6-.5-.8-1.3-.8-1.9,0-.6.2-1,.5-1.3.2-.2.4-.3.4-.3,0,0-.6.5-.5,1.5,0,.5.2,1.1.8,1.5.5.4,1.2.7,2,.8,1.6.1,3-.4,4.2-.5,1.2-.1,1.8.3,1.8.4h0Z"/>
            <path class="cls-10" d="M625.9,214.1c0,.1-1.7-.9-3.3-2.4-1.7-1.5-2.8-3-2.7-3.1.1-.1,1.4,1.2,3,2.7,1.7,1.5,3.1,2.7,3,2.8h0Z"/>
            <path class="cls-10" d="M623.9,218.9c0,.1-2-1-3.8-3.1-1.8-2.1-2.6-4.1-2.5-4.2.1,0,1.2,1.8,2.9,3.8,1.7,2,3.5,3.3,3.4,3.4h0Z"/>
            <path class="cls-10" d="M620.6,220.7c0,.1-1.4-.6-2.6-2-1.2-1.4-1.8-2.8-1.7-2.8.1,0,.9,1.2,2.1,2.5,1.2,1.3,2.3,2.2,2.2,2.3Z"/>
            <path class="cls-10" d="M642,209.4c.1,0,.2,1.6-.4,3.5-.7,1.9-1.8,3.1-1.8,3-.1,0,.7-1.4,1.4-3.2.6-1.8.8-3.4.9-3.4h0Z"/>
            <path class="cls-10" d="M648.9,210.4c0,.1-1.6-.5-3.6-.7-2-.2-3.6,0-3.6-.1,0-.1,1.6-.6,3.7-.4,2.1.2,3.6,1.1,3.5,1.2h0Z"/>
          </g>
        </g>
      </g>
      <g id="Character_3">
        <path class="cls-18" d="M458.4,261.4c.1,0-.4,1-1.5,1.8-1.1.8-2.2,1-2.2.8,0-.1.9-.5,1.9-1.2,1-.7,1.6-1.5,1.8-1.4h0Z"/>
        <g>
          <g>
            <path class="cls-6" d="M438.6,407l-.4,25.6,5.5,20.3c.4,1.5-.5,3-2,3.3h0c-.8.2-1.7,0-2.3-.7-3.9-3.7-18.3-17.5-18.2-19.4.2-2.2-1.3-27-1.3-27l18.8-2.1h0Z"/>
            <path class="cls-15" d="M441.6,456.1l-20.5-21.7v1.1c0,.9.4,1.8,1,2.5,1.6,1.9,6.3,7,17.1,17.4.6.6,1.5.9,2.4.7h0Z"/>
            <g class="cls-11">
              <path class="cls-7" d="M426.3,426.1c.6.4.9,1.4.5,2.1-.4.7-1.4.9-2,.5-.6-.4-1-1.6-.5-2.2.5-.6,1.6-.8,2.2-.2"/>
            </g>
            <path class="cls-7" d="M435.7,445c.1,0,.7-1.3,2.2-2,1.5-.8,2.9-.4,2.9-.6,0,0-.3-.3-.9-.3-.6,0-1.5,0-2.3.4-.8.4-1.4,1-1.7,1.6-.3.5-.3.9-.3.9h0Z"/>
            <path class="cls-7" d="M437.6,448.4c.1.1.9-.7,2.3-1.1,1.3-.4,2.5-.2,2.5-.3,0-.1-1.2-.7-2.7-.2-1.5.5-2.2,1.6-2.1,1.6h0Z"/>
            <path class="cls-7" d="M432.3,440.6c.1.1,1.4-1.2,3.4-2,2-.8,3.8-.7,3.8-.9,0-.1-1.9-.5-4,.4-2.1.8-3.3,2.4-3.2,2.5h0Z"/>
            <path class="cls-7" d="M431.8,432.8c0,.1,1.5-.5,3.3-.5,1.8-.1,3.3.4,3.4.2,0-.1-1.4-.9-3.4-.8-2,0-3.4,1-3.3,1.1h0Z"/>
            <path class="cls-7" d="M431.7,425.3c0,.1,1.5-.7,3.4-.6,1.9,0,3.3,1,3.4.8,0,0-.2-.4-.8-.7s-1.5-.6-2.5-.7-2,.2-2.6.5c-.6.3-.9.6-.9.7h0Z"/>
          </g>
          <g>
            <path class="cls-6" d="M379,405.6l.4,21.1s-21.4,7.5-21.7,11.4l41,.8.8-33-20.5-.3h0Z"/>
            <path class="cls-1" d="M392.1,425.2c.8.2,1.3,1.1,1.1,1.9s-1.1,1.4-1.9,1.1c-.8-.2-1.5-1.3-1.2-2s1.4-1.4,2.1-1"/>
            <path class="cls-15" d="M398.7,438.9v-3.3s-39.4.5-39.4.5c0,0-1.8.8-1.7,2l41,.8Z"/>
            <path class="cls-7" d="M378.7,426.5c0,.2,1,.3,2,1,1,.6,1.5,1.5,1.7,1.4.2,0,0-1.2-1.3-2-1.2-.8-2.4-.6-2.4-.4h0Z"/>
            <path class="cls-7" d="M374.4,428.2c0,.2.8.5,1.5,1.4.7.8.8,1.8,1,1.8.2,0,.4-1.1-.5-2.2-.8-1.1-2-1.2-2-1h0Z"/>
            <path class="cls-7" d="M371.9,433.3c.2,0,.5-1,0-2.1-.5-1.1-1.4-1.6-1.5-1.4-.1.2.5.8.9,1.7.4.9.5,1.8.6,1.8h0Z"/>
            <path class="cls-7" d="M379.2,421.7c0,.2,1,0,2.1,0,1.1,0,2,.5,2.1.3.1-.1-.7-.9-2.1-1-1.3-.1-2.3.5-2.2.7h0Z"/>
          </g>
          <g>
            <path class="cls-6" d="M407.4,96.6c1.3-.8,2.9-.7,4.2-1.4,1.3-.7,2.1-2.1,2.5-3.6s.3-3,.2-4.4l9.3,17.4c-1.3,1.5-2.6,3-4.3,3.9-1.7.9-3.9,1.2-5.6.2-1.7-1-2.5-3.4-1.4-5-1.9,1.2-4.7.7-6-1.1-1.3-1.8-.7-4.8,1.2-5.9h0Z"/>
            <path class="cls-6" d="M450.4,58.8c2.5,2.7,2.6,4.9,2.5,6.1,0,.3-.2.8-.5.8-.2,0-.3,0-.5-.1-3.1-1.6-6.2-3.2-9.2-4.8"/>
            <g>
              <path class="cls-6" d="M416.3,92c-1.5-4.4-2.9-8.8-3.6-13.3s-.6-9.3.9-13.6c.2-.7,2.3-5.1,3-5,.5,0-.7,4.2-.5,4.6,2.4,4.1,3.1,9,2.8,13.8s-1.3,9-2.6,13.6"/>
              <path class="cls-13" d="M416.5,116.9l-.9-42.4c-.5-11.5,5.8-21.4,17.3-21.6h1.1c10.7.5,19.3,9.1,19.8,19.9.4,10,.7,21.1.4,26.4-.6,11.1-11.7,12.3-11.7,12.3,0,0,0,11.3,0,14.5l-16.7-.9-4-.4-5.2-7.7h0Z"/>
              <path class="cls-18" d="M442.4,111.4s-7,.1-14.2-4.9c0,0,3.1,8.5,14.2,7.9v-3.1Z"/>
              <path class="cls-6" d="M450.1,83.1c0,.8-.7,1.5-1.6,1.5s-1.6-.7-1.6-1.5.7-1.5,1.6-1.5,1.6.7,1.6,1.5Z"/>
              <path class="cls-6" d="M451.2,77.4c-.2.2-1.4-.7-3.1-.8-1.7,0-3,.7-3.2.5,0,0,.1-.5.7-.8.5-.4,1.5-.7,2.5-.7s1.9.5,2.4.9c.5.4.7.8.6.9h0Z"/>
              <path class="cls-6" d="M435.3,82.6c0,.8-.7,1.5-1.6,1.5s-1.6-.7-1.6-1.5.7-1.5,1.6-1.5,1.6.7,1.6,1.5Z"/>
              <path class="cls-6" d="M434.5,77.1c-.2.2-1.4-.7-3.1-.8-1.7,0-3,.7-3.2.5,0,0,.1-.5.7-.8.5-.4,1.5-.7,2.5-.7s1.9.5,2.4.9.7.8.6.9h0Z"/>
              <path class="cls-6" d="M440.1,90.5c0,0,1.1-.2,2.8-.4.4,0,.9,0,.9-.4.1-.3,0-.8-.2-1.3-.4-1.1-.8-2.2-1.1-3.4-1.6-4.8-2.7-8.7-2.5-8.8.2,0,1.6,3.8,3.2,8.6.4,1.2.7,2.3,1.1,3.4.1.5.4,1.1.1,1.7-.1.3-.5.5-.7.6-.3,0-.5,0-.7,0-1.7,0-2.8,0-2.8-.1h0Z"/>
              <path class="cls-6" d="M435.3,71.8c-.2.4-1.9,0-3.9-.2-2-.2-3.7.1-3.9-.3,0-.2.3-.6,1-.9.7-.3,1.8-.6,3-.5,1.2,0,2.2.5,2.9.9.7.4,1,.8.9,1.1h0Z"/>
              <path class="cls-6" d="M451.9,72.9c-.4.4-1.7,0-3.4-.1-1.7-.1-3.1.2-3.4-.2-.1-.2.1-.6.7-.9s1.6-.6,2.8-.6c1.1,0,2.1.4,2.7.8.6.4.8.8.6,1h0Z"/>
              <path class="cls-13" d="M416.2,82.7c-.2,0-7.5-2.6-7.6,5,0,7.6,7.5,6.1,7.6,5.9,0-.2,0-10.9,0-10.9Z"/>
              <path class="cls-18" d="M413.9,90.7s-.1,0-.4.2c-.2,0-.6.2-1,0-.8-.3-1.5-1.6-1.5-2.9,0-.7.1-1.3.4-1.9.2-.6.6-.9,1-1,.4,0,.7.2.8.4s0,.4,0,.4c0,0,.2-.1.1-.4,0-.2-.1-.3-.3-.5-.2-.2-.5-.2-.7-.2-.6,0-1.1.6-1.4,1.2-.3.6-.5,1.3-.5,2.1,0,1.5.8,3,1.9,3.3.5.1,1,0,1.2-.2.2-.2.3-.3.2-.4h0Z"/>
              <path class="cls-6" d="M448.9,60.1c1.2-.7-2.5-4.7-5.5-6-4.5-2.1-11.5-3.3-15.7-2.2-5.1,1.4-9.3,3.9-11.8,8.5-2.5,4.6-3.5,10-3.4,15.2,0,1.6.2,3.3,1.1,4.6,1.1,1.7,2.6,2.5,3,5,.1.8.2,1.7.8,2.3,1.4,1.5,3.1,0,3.9-1.3,1.7-3,1.9-6.5,2-9.9.1-2.4.2-4.9-.5-7.2-.4-1.3-1-2.5-1.3-3.7-.3-1.3-.3-2.7.5-3.8.1-.2.3-.4.6-.6,2.1-1.9,5.1-2.4,7.8-1.5,4.3,1.5,11.5,3.8,13.5,2.3,2.7-2.1,3.4-3.4,3.4-3.4l1.5,1.6h0Z"/>
              <path class="cls-6" d="M434.8,91.5c.3,0,.3,1.7,1.8,2.9,1.5,1.2,3.3,1,3.4,1.3,0,.1-.4.3-1.2.4-.8,0-1.9-.2-2.8-1-.9-.8-1.3-1.8-1.4-2.5,0-.7.1-1.2.2-1.2h0Z"/>
            </g>
            <g>
              <path class="cls-15" d="M410.9,82.3c-.1-.1-.4-.2-.5-.3-8.9-8.5-1.8-16.7-1.7-19.2.2-3.5-4,.9-4.5-3.7-.7-6.1,5.8-8.7,13.8-11.3,3.4-1.1,11.6-1.4,18.8,0,6.4,1.4,10.7,5.9,13.2,9.5,0,0,1.5.7,1.9,1.4,1.1,2.1.6,3,.6,3,0,0-14.2-7.4-26.2,2.3-11.9,9.7-9.8,18.1-13,18.2h-2.4c0,.1,0,.1,0,.1Z"/>
              <path class="cls-6" d="M420.6,53s-.2.1-.6.3c-.2,0-.5.2-.7.3-.3.1-.6.2-1,.4-.7.3-1.5.8-2.4,1.3-.9.6-1.8,1.2-2.6,2s-1.6,1.6-2.3,2.4c-.6.8-1.2,1.6-1.6,2.2-.2.3-.4.6-.5.9s-.3.5-.4.7c-.2.4-.3.6-.3.6,0,0,0-.2.2-.6,0-.2.2-.5.3-.7.1-.3.3-.6.5-.9.4-.7.9-1.5,1.5-2.3.6-.8,1.4-1.7,2.3-2.5.9-.8,1.8-1.5,2.7-2.1.9-.5,1.7-1,2.4-1.3.4-.2.7-.3,1-.4s.5-.2.8-.3c.4-.1.6-.2.7-.2h0Z"/>
              <path class="cls-6" d="M450.4,57.6s0,0-.1,0c-.1,0-.2,0-.4-.2-.3-.2-.8-.3-1.5-.6-.6-.2-1.4-.5-2.4-.8s-2-.5-3.2-.7c-2.4-.4-5.4-.5-8.6,0-1.6.3-3.2.7-4.9,1.3-1.6.6-3.3,1.5-4.9,2.5-1.6,1-3,2.2-4.2,3.4-1.2,1.2-2.3,2.6-3.2,3.9-1.8,2.7-3,5.4-3.9,7.7-.9,2.3-1.4,4.2-1.8,5.6-.2.7-.3,1.2-.4,1.5,0,.2,0,.3-.1.4,0,0,0,.1,0,.1,0,0,0,0,0-.1,0,0,0-.2,0-.4,0-.3.2-.9.4-1.5.3-1.3.9-3.3,1.7-5.6.9-2.3,2-5,3.8-7.8.9-1.4,2-2.7,3.2-4s2.7-2.4,4.3-3.5c1.6-1,3.2-1.8,4.9-2.5,1.7-.6,3.3-1.1,4.9-1.3,3.2-.6,6.2-.5,8.6,0,1.2.2,2.3.5,3.2.8.9.3,1.7.6,2.4.8.6.3,1.1.5,1.5.6.1,0,.3.1.4.2,0,0,.1,0,.1,0h0Z"/>
              <path class="cls-6" d="M415.8,78.6c0,0-1,.2-2-.2-1.1-.4-1.7-1.2-1.7-1.2,0,0,.7.6,1.8,1,1,.4,2,.4,2,.5Z"/>
              <path class="cls-6" d="M419.8,71.9s-.3,0-.8-.2c-.5-.2-1.1-.5-1.7-.9s-1-1-1.3-1.4-.4-.7-.3-.7c0,0,.6,1.1,1.8,2,1.1.9,2.4,1.2,2.3,1.3h0Z"/>
              <path class="cls-6" d="M426.7,63.6c0,0-.5-1-1.4-2.1-.9-1.1-1.9-1.7-1.8-1.7,0,0,1.1.5,2,1.6.9,1.1,1.3,2.2,1.2,2.2h0Z"/>
              <path class="cls-6" d="M433.6,60.2c0,0-.2-1-.7-2.2-.5-1.2-1.2-2-1.1-2,0,0,.8.7,1.3,1.9.5,1.2.5,2.3.5,2.3h0Z"/>
              <path class="cls-6" d="M443.9,59.5c0,0,.3-1,0-2.3-.3-1.2-1.1-2-1.1-2,0,0,.2.1.5.5.3.3.6.8.8,1.5.2.6.2,1.2,0,1.7,0,.4-.2.7-.2.7Z"/>
              <path class="cls-6" d="M450.1,61c0,0,.2-.8.2-1.8,0-1-.3-1.8-.2-1.8,0,0,.5.7.5,1.8,0,1-.4,1.8-.4,1.8Z"/>
            </g>
          </g>
          <path class="cls-6" d="M383.4,247.6c0,1-6.8,91.2-6.3,99.6s0,75,0,75h22.8s4.9-80.8,5.5-84.9,4.8-17.3,4.8-17.3l13.7-59.3s-1.2,48.1,0,55.6-1.5,22.7-1.5,27.1-3.9,80.6-3.9,80.6h21c0,0,1.2-5.7,2.1-9.3.5-2.3,5.1-43.4,5.4-45.3.8-5.1,1.9-19.4,3.2-25.6,1-4.5,8.4-53.3,8.7-54.2.5-1.4,4.1-33.6,4.1-33.6v-12.5l-77.6-9.9-2,13.9h0Z"/>
          <path class="cls-14" d="M415.9,114.1s6.5,5,15.4,5.2c8.5.1,12.7-1.8,12.7-1.8l1.8,6.4,8.2,70.6-7.1,47-42.2-2.7,10-54.8-.6-63.2,1.9-6.7h0Z"/>
          <g>
            <path class="cls-2" d="M442.7,124c0,0,1.4,23.9,1.3,25.4-.9,19.7-8.8,129.6-8.8,129.6l27-1,.8-7.8-1.9-67.7,3.6-43.1,1.9-31.8-18.8-7.8-3.5-6.4-2-1.2.3,11.8h0Z"/>
            <path class="cls-2" d="M466.6,127.6s8.5,3.4,12,23.7c1.9,11.2,3.9,37.1,3.9,37.1,0,0,2.7,22.9,0,26.9l-2.7,1-17.2-5.1-.7-5.2,2.1-6.5v-4.1l-5.7-20.2v-32.4l8.2-15.3h0Z"/>
            <path class="cls-6" d="M466.6,141.6s0,.2,0,.6c0,.4,0,1,0,1.6,0,1.4,0,3.5-.1,6-.2,5.1-.8,12-1.8,19.7s-1.9,14.6-2.4,19.6c-.3,2.5-.5,4.6-.6,5.9,0,.7-.1,1.2-.2,1.6,0,.4,0,.6,0,.6,0,0,0-.2,0-.6,0-.4,0-1,0-1.6,0-1.4.2-3.4.5-6,.4-5,1.3-12,2.2-19.6,1-7.6,1.6-14.6,1.9-19.6.1-2.5.2-4.6.3-6,0-.7,0-1.2,0-1.6,0-.4,0-.6,0-.6h0Z"/>
            <g>
              <polygon class="cls-15" points="427.8 224 426.4 258.6 475.6 260.9 477.3 227.3 432 224.1 429.2 224.1 427.8 224"/>
              <polygon class="cls-7" points="429.2 224.1 428.1 256.8 431.4 256.8 432 223.9 429.2 224.1"/>
              <path class="cls-6" d="M434,225.1c.1,0,0,7.6-.1,17-.2,9.4-.5,17-.6,17s0-7.6.1-17c.2-9.4.5-17,.6-17h0Z"/>
              <path class="cls-6" d="M461.3,226.2s-.5,0-1.3,0c-1,0-2.1-.1-3.6-.2-3-.2-7.2-.4-11.8-.8-4.6-.4-8.7-.7-11.8-.9-1.4,0-2.6-.1-3.6-.1-.9,0-1.3,0-1.3-.1,0,0,.5,0,1.3,0,1,0,2.2,0,3.6,0,3,.1,7.2.4,11.8.8,4.6.3,8.8.7,11.8.9,1.4.1,2.6.2,3.6.3.8,0,1.3.2,1.3.2h0Z"/>
            </g>
            <g>
              <path class="cls-13" d="M441.4,252.8s6.1-5.9,9.1-8c3-2,8.1-2.7,8.1-2.7l8.9,8.8s-4.8,12.4-5.7,13.1c-.5.4-1.7.7-2.8.8-1.1.2-2.3,0-3.4-.4l-1-.4s-6.8-.4-7.1-1.8c0,0-3.3.5-4.5-.7-1-1-1.3-2.5-1.3-2.5l6.9-2.7,1.8-3.9s-4.8,2.7-6.6,3.2-3.7-1.7-2.3-2.9h0Z"/>
              <path class="cls-13" d="M463.8,210.6l-5,31.6,8.9,8.8s4.5-10.8,6.2-16.5c1.9-6,6.8-20.1,6.8-20.1,0,0-10-5.6-16.8-3.9h0Z"/>
              <path class="cls-18" d="M453.9,259.4c0,0,.2.5-.3,1.1-.3.3-.6.5-1.1.7s-.9.3-1.4.5c-2,.6-3.7.9-3.7.7,0-.1,1.6-.6,3.5-1.2,1-.3,1.9-.6,2.4-.9.5-.4.5-.8.5-.8h0Z"/>
            </g>
            <path class="cls-6" d="M448,119.8c0,0,.4.9.8,2.6.5,1.6,1.1,3.9,1.8,6.6l.2.7-.6-.4c-1-.8-2.1-1.8-2.9-3-.5-.6-.9-1.3-1.3-2h.5c-1,3-1.8,5.7-2.3,7.7-.5,2-.8,3.1-.8,3.1,0,0,0-.3,0-.9,0-.6.2-1.4.4-2.3.4-2,1.1-4.7,2.1-7.8l.2-.6.3.5c.4.6.8,1.3,1.2,1.9.9,1.1,1.8,2.1,2.8,2.9l-.4.3c-.7-2.7-1.2-5-1.6-6.6-.4-1.6-.6-2.6-.5-2.6h0Z"/>
          </g>
          <g>
            <path class="cls-15" d="M368.2,193.4s-1.1,19.8-.5,23.9c.6,4.1,14.5,10,14.5,10l10.9-2.4s2.2-20.1,2.3-20.7,0-14.9,0-14.9l-27.2,4.1Z"/>
            <path class="cls-2" d="M382.5,122.3s-4,1.9-6.9,10.8c-1.7,5-21.9,40.2-22,47.6-.1,9.4,16.7,18.1,16.7,18.1l14.5-20.2-6.3-3.8,9.3-8.1-5.3-44.4h0Z"/>
            <path class="cls-2" d="M405.9,114.2s-21.8,6.7-23.4,8.2c-1.6,1.5,4.5,35.7,4.5,35.7v47.8l-11.4,51.8s23.2,22.4,33.5,20.2c0,0,7.1-41.7,9-58.2,1.9-16.5,2.2-44.3,1.9-55.5s-1.9-34.8-1.9-35.4-1.3-13.8-1.4-19.8h-1.8l-3.2,4.3-5.8.9h0Z"/>
            <path class="cls-15" d="M394.9,117.4s8.9,14.3,9.4,23.3c.5,8.9,2.9,34.7,2.9,34.7h7.8s-2.2-35.2-2.7-43.1c-.5-7.9-1.4-19.4-1.4-19.4,0,0-15.1,2.3-16,4.6h0Z"/>
            <path class="cls-18" d="M424.2,170.3c-.3-.5-.6-1-1.1-1.2-.6-.2-1.3,0-1.9.3-1.4.6-2.7,1.2-4,1.8l3.1,5c.4-.6,2.4-2.1,3-2.6s1.2-1,1.3-1.7c0-.6-.2-1.1-.5-1.6h0Z"/>
            <g class="cls-12">
              <path d="M415.4,183.9c-.2-.4-.5-.9-.9-1-.8-.3-1.5.4-2,1.1-5.7,7.3-8.5,16.9-15.9,22.4-4.2,3.1-9.6,4.6-13.9,7.6l-.2,2.3c7.5.4,14.5-3.6,20.7-7.9,4.1-2.9,8.1-6,10.8-10.2,2.6-4.2,3.7-9.8,1.4-14.2h0Z"/>
            </g>
            <path class="cls-15" d="M381.5,208.3s12.8-5.1,20.3-10.6c7.5-5.5,10-19.9,10-19.9l4.1-2.5s-5.1,24.1-12,29.7c-6.9,5.6-22.4,15-22.4,15v-11.7h0Z"/>
            <path class="cls-2" d="M361.7,176.3s.1-.2.5-.5c.4-.3.9-.7,1.6-1.2,1.4-.9,3.7-1.8,6.3-2,2.6-.2,5,.4,6.5,1.1.8.4,1.4.7,1.8,1s.6.4.6.5c0,0-.9-.5-2.5-1.1-1.5-.6-3.8-1.1-6.3-1s-4.7,1-6.1,1.8c-1.5.8-2.2,1.5-2.3,1.4h0Z"/>
            <g>
              <path class="cls-13" d="M378.7,177.5l20.3,4.1s6.3-10.8,7-11.2,11.4.3,11.4.3c0,0,4.1,3.6,4.2,6,.1,2.3-2.5,4.9-2.5,4.9,0,0,.2,2-2.6,4,0,0,.4,2.7-1.5,3.6,0,0,.5,2.7-1,3.5-1.5.8-3.7-.8-3.7-.8h-3.3c0,.1-2.1,3.9-3.4,4.3-1.3.5-34.2,1.1-34.2,1.1,0,0-4.7-2.4-2.9-8.9s7.7-10.3,12.1-10.9h0Z"/>
              <path class="cls-18" d="M399,190.1c-.1,0-.3-1.9-.3-4.3s.1-4.3.3-4.3.3,1.9.3,4.3-.1,4.3-.3,4.3Z"/>
              <path class="cls-18" d="M414.7,189.5c-.1.1-1.1-1.1-2.6-1.9-1.6-.9-3-1.1-3-1.3,0-.1,1.6-.1,3.3.8,1.7.9,2.5,2.3,2.4,2.4Z"/>
              <path class="cls-18" d="M410.8,181c0-.1,1.6.4,3.3,1.7,1.6,1.2,2.6,2.6,2.5,2.7-.1.1-1.2-1.1-2.8-2.2-1.6-1.2-3-1.9-3-2.1Z"/>
              <path class="cls-18" d="M412.4,176.2c0-.1,2.1,0,4.1,1.4,2.1,1.4,3.1,3.1,3,3.2-.1.1-1.3-1.5-3.2-2.8-2-1.3-3.9-1.7-3.8-1.9h0Z"/>
            </g>
            <path class="cls-6" d="M382.5,131.8s.1.5.3,1.5c.2,1.1.4,2.5.6,4.1.5,3.5,1.2,8.4,1.9,13.7.7,5.4,1.2,10.2,1.4,13.8.1,1.8.2,3.2.3,4.2,0,1,0,1.5,0,1.5s-.1-.5-.2-1.5c-.1-1.1-.3-2.5-.4-4.2-.4-3.5-.9-8.4-1.6-13.8-.7-5.3-1.2-10.1-1.7-13.8-.2-1.7-.4-3.1-.5-4.2-.1-1-.1-1.5-.1-1.5h0Z"/>
            <path class="cls-6" d="M365.2,175.4s.4-.8,1.5-1.7c1.1-.9,2.9-1.8,5.1-1.9,2.2,0,4,.7,5.2,1.5,1.1.8,1.6,1.6,1.6,1.6,0,0-.6-.6-1.8-1.3-1.1-.7-2.9-1.4-5-1.3-2,0-3.8.9-4.9,1.7-1.1.8-1.6,1.4-1.7,1.4h0Z"/>
            <path class="cls-6" d="M417.9,131.1s-.4-.7-.9-2c-.5-1.3-1.1-3.2-1.5-5.5h.4c-1,1.9-2.2,4-3.5,6.3l-.4.7v-.8c-.1-.3-.1-.6-.1-.9-.4-4.4-.4-8.4-.4-11.2,0-1.4,0-2.6.1-3.4,0-.8.1-1.2.1-1.2,0,0,0,.4,0,1.2,0,.9,0,2.1,0,3.4,0,2.9.1,6.8.5,11.2,0,.3,0,.6,0,.9h-.5c1.3-2.4,2.5-4.5,3.5-6.3l.3-.5v.6c.5,2.3,1.1,4.2,1.5,5.5.4,1.3.6,2,.6,2.1h0Z"/>
            <path class="cls-6" d="M401.8,197.7s-.3.3-.9.8c-.6.5-1.5,1.1-2.7,1.9-2.3,1.5-5.5,3.5-9.4,5.1-1.9.8-3.9,1.4-5.8,1.4-1.9,0-3.5-.3-4.8-.7-1.3-.4-2.3-1-3-1.4-.7-.4-1-.6-1-.7,0-.1,1.5.8,4.1,1.7,1.3.4,2.9.7,4.7.6,1.8-.1,3.7-.6,5.6-1.4,3.8-1.6,7.1-3.5,9.4-4.9,1.1-.7,2-1.2,2.8-1.7.6-.4,1-.6,1-.6h0Z"/>
            <path class="cls-6" d="M404.2,204.8s-.3.3-.9.8c-.6.5-1.5,1.2-2.6,2-2.2,1.6-5.4,3.8-9,6.1-3.6,2.3-6.9,4.2-9.4,5.5-1.2.7-2.2,1.2-2.9,1.5s-1.1.5-1.1.5.3-.3,1-.7c.8-.4,1.7-1,2.8-1.6,2.4-1.4,5.7-3.3,9.3-5.6,3.6-2.2,6.8-4.4,9-5.9,1.1-.7,2-1.4,2.7-1.9.6-.4,1-.7,1-.6h0Z"/>
          </g>
        </g>
      </g>
      <g id="Character_2">
        <g>
          <g>
            <path class="cls-15" d="M219.6,161.7s-21.8,8.8-22.9,16.2-.5,53.3,6.9,62.8c7.5,9.5,13.4,11.1,20.3,9.8,6.9-1.3,12.9-4.2,12.9-4.2l9.2-36.7-26.6-47.9Z"/>
            <path class="cls-6" d="M236.7,234.6s-.5,0-1.3,0c-.8,0-2.1-.1-3.6-.1-3,0-7.2.2-11.7,1.2-4.5,1-8.4,2.4-11.1,3.7-1.4.6-2.5,1.2-3.2,1.6-.8.4-1.2.6-1.2.6s.4-.3,1.1-.7c.7-.5,1.8-1.1,3.1-1.7,2.7-1.4,6.6-2.9,11.2-3.9,4.5-1,8.8-1.2,11.8-1,1.5,0,2.7.2,3.6.3s1.3.2,1.3.2h0Z"/>
            <path class="cls-6" d="M211.7,237.2s0-.2-.2-.6c-.1-.4-.3-1.1-.5-1.9-.4-1.7-.9-4.1-1.4-7.1-1-6-1.6-14.5-2.2-23.7-.6-9.3-1.1-17.6-1.5-23.8-.2-3-.3-5.4-.4-7.2,0-.8,0-1.5,0-2,0-.4,0-.7,0-.7,0,0,0,.2.1.7,0,.5.1,1.1.2,2,.1,1.8.3,4.2.6,7.2.4,6.1,1,14.5,1.7,23.8.6,9.3,1.2,17.7,2.1,23.7.4,3,.9,5.4,1.2,7.1.2.8.3,1.4.4,1.9,0,.4.1.7.1.7h0Z"/>
            <path class="cls-6" d="M208.6,209.4c0,.1-2.4,1.1-5.5,1.9-3.1.8-5.7,1.2-5.7,1.1,0-.1,2.5-.8,5.6-1.6s5.6-1.5,5.6-1.4h0Z"/>
            <path class="cls-6" d="M215,163.4s0,.2,0,.6c0,.5,0,1,0,1.8,0,1.5.1,3.8.2,6.5.2,5.5.8,13,1.7,21.4,1,8.3,2.2,15.8,3.2,21.2.5,2.7.9,4.9,1.2,6.4.1.7.2,1.3.3,1.7,0,.4.1.6,0,.6s0-.2-.2-.6c-.1-.4-.2-1-.4-1.7-.4-1.5-.9-3.7-1.4-6.4-1.1-5.4-2.4-12.9-3.4-21.2-1-8.3-1.4-15.9-1.6-21.4,0-2.7-.1-5,0-6.5,0-.7,0-1.3,0-1.8,0-.4,0-.6,0-.6h0Z"/>
          </g>
          <path class="cls-2" d="M303.5,124.8c-.5-1.4-1.9-2.4-3.2-3.1-3.9-2-8.4-2.8-12.7-3.3-9.1-1.1-18.3-.9-27.3.3-4,.6-8,1.4-11.7,3.1-1.2.6-2.4,1.2-3.2,2.3s-1.3,2.4-.9,3.7,1.9,2.2,3.1,1.8l50,2c1.6-.6,3.2-1.2,4.4-2.3s2-2.9,1.5-4.5h0Z"/>
          <g>
            <path class="cls-6" d="M299.4,96.3c-1.2.7-2.8-.2-3.3-1.4s-.3-2.7.1-4,1-2.6,1-3.9c.1-2.4-1.5-4.9-3.9-5.6,2.3-1.8,2.5-5.7.4-7.7-1-.9-2.3-1.5-3.4-2.2-.6-.4-1.2-.9-1.8-1.5,1,.2,2.1.3,3.1,0,1.7-.4,3.1-1.6,3.7-3.2.5-1.6.1-3.5-1.1-4.7-1.2-1.2-3.2-1.5-4.7-.7-1.5.8-2.3,2.4-3,3.9-.2.5-.5.9-.7,1.4-2.1-2.8-4-5.6-7.2-6.6-2.9-.9-6,0-9.1-.1-2.2-.2-4.3-1-6.5-1.2s-4.7.2-6,2c-.8,1-1,2.4-1.8,3.5-1.6,2.2-5,2.4-6.3,4.8-1.1,1.9-.2,4.3-.7,6.4-.5,2.3-2.4,4-4,5.8-1.6,1.8-2.9,4.2-2.1,6.4.8,1.9,3,3,3.8,4.9.5,1.4.1,3,.1,4.5s.6,3.3,2.1,3.7l16.9,4.5c5.8,2.4,11.8,4.8,18.1,4.8,6.3,0,13-3,15.5-8.8-.9,0-1.8-.4-2.4-1.1,1.6-.8,2.9-2.3,3.3-4h0Z"/>
            <g>
              <g>
                <path class="cls-6" d="M285.5,101.6c1.4-4.3,2.8-8.6,3.4-13.1s.5-9.1-1.1-13.3c-.2-.6-2.3-4.9-3-4.9-.5,0,.8,4.1.5,4.5-2.3,4-3,8.9-2.6,13.5.4,4.6,1.3,8.8,2.7,13.3"/>
                <path class="cls-9" d="M268.8,63.5h-1c-10.5.6-18.8,9.2-19.1,19.7-.3,9.8-.6,19.2-.3,24.4.7,10.8,11.8,11.9,11.8,11.9v5.6c.5,5.7,7.9,6.7,10.6,6.5,9.7,0,14.7-4.2,14.7-4.2l.5-42.9c.4-11.3-5.9-20.9-17.2-21Z"/>
                <path class="cls-17" d="M260.2,119.5s6.8,0,13.9-4.9c0,0-3,8.1-13.9,7.7v-2.7Z"/>
                <path class="cls-6" d="M252.7,92c0,.8.7,1.5,1.6,1.5s1.5-.7,1.5-1.5-.7-1.5-1.6-1.5-1.5.7-1.5,1.5Z"/>
                <path class="cls-6" d="M251.2,87.5c.2.2,1.3-.7,3-.8,1.7-.1,2.9.7,3.1.5,0,0-.1-.4-.7-.8-.5-.4-1.5-.7-2.5-.6-1,0-1.9.5-2.4.9-.5.4-.6.8-.5.9h0Z"/>
                <path class="cls-6" d="M267.1,92.1c0,.8.7,1.5,1.6,1.5s1.5-.7,1.5-1.5c0-.8-.7-1.5-1.6-1.5s-1.5.7-1.5,1.5Z"/>
                <path class="cls-6" d="M267.5,87.3c.2.2,1.3-.7,3-.8,1.7-.1,2.9.7,3.1.5,0,0-.1-.4-.7-.8-.5-.4-1.5-.7-2.5-.6-1,0-1.9.5-2.4.9-.5.4-.6.8-.5.9h0Z"/>
                <path class="cls-6" d="M262.2,100.4c0,0-1-.2-2.7-.3-.4,0-.8,0-.9-.4-.1-.3,0-.8.2-1.3.3-1.1.7-2.2,1.1-3.3,1.5-4.7,2.6-8.6,2.4-8.6s-1.6,3.7-3.1,8.4c-.4,1.2-.7,2.3-1,3.3-.1.5-.4,1.1-.1,1.7.1.3.5.5.7.6.3,0,.5,0,.7,0,1.7,0,2.7,0,2.7-.1h0Z"/>
                <path class="cls-6" d="M267.2,101.3c-.3,0-.2,1.8-1.6,3.2-1.5,1.4-3.4,1.3-3.4,1.5,0,.1.5.3,1.3.3.8,0,2-.3,2.9-1.2s1.2-1.9,1.3-2.7c0-.8-.2-1.2-.3-1.2Z"/>
                <path class="cls-6" d="M267.2,80.6c.2.4,1.8.1,3.8.3,2,0,3.6.6,3.8.2.1-.2-.2-.6-.9-1-.6-.4-1.7-.8-2.9-.8-1.2,0-2.2.2-2.9.5s-1,.7-1,.9h0Z"/>
                <path class="cls-6" d="M251.6,81.9c.3.4,1.4,0,2.8-.2,1.4-.1,2.6.1,2.8-.3.1-.2-.1-.6-.6-.9-.5-.3-1.4-.6-2.3-.5-.9,0-1.8.5-2.2.9-.5.4-.6.8-.5,1h0Z"/>
                <path class="cls-9" d="M285.5,92.5c.2,0,7.3-2.6,7.5,4.8s-7.3,6.1-7.3,5.8c0-.2-.1-10.7-.1-10.7h0Z"/>
                <path class="cls-5" d="M287.9,100.3s.1,0,.4.2c.2,0,.6.2,1,0,.8-.3,1.4-1.6,1.4-2.9,0-.7-.1-1.3-.4-1.8-.2-.5-.6-.9-1-1-.4,0-.7.2-.8.4,0,.2,0,.4,0,.4,0,0-.2-.1-.1-.4,0-.2.1-.3.3-.5s.4-.2.7-.2c.6,0,1.1.5,1.4,1.1.3.6.5,1.3.5,2.1,0,1.5-.8,2.9-1.8,3.2-.5.2-1,0-1.2-.2-.2-.2-.3-.3-.2-.4h0Z"/>
                <path class="cls-6" d="M253.3,70.8c-1.2-.7,2.3-4.6,5.3-5.9,4.4-2.1,11.2-3.4,15.4-2.3,5,1.3,9.1,3.7,11.6,8.2s3.5,9.7,3.5,14.8c0,1.6-.2,3.2-1,4.5-1,1.7-3,2.7-2.9,5,0,.8-.2,1.7-.7,2.3-1.3,1.5-3,.1-3.8-1.2-1.7-2.9-1.9-6.3-2.1-9.7-.1-2.4-.3-4.8.4-7.1.4-1.2.9-2.4,1.2-3.7.3-1.3.2-2.7-.6-3.7-.1-.2-.3-.4-.6-.6-2.1-1.8-5.1-2.3-7.7-1.4-4.2,1.5-11.3,3.8-13.1,2.4-2.7-2-3.4-3.3-3.4-3.3l-1.4,1.6h0Z"/>
              </g>
              <path class="cls-6" d="M273.5,61.5c-4.1-1.3-8.7-1.2-12.5.8-2,1.1-3.8,2.8-4.4,5s.4,4.9,2.5,5.7h.1c3.2,1.1,5.2.7,8.4-.5,2.6-.9,5-2.6,7.6-3.6,2.8-1,5.9-1.1,8.8-.4-2.9-3.2-6.5-5.8-10.5-7.2h0Z"/>
            </g>
            <path class="cls-15" d="M287.6,68.9c0,0-.7-.7-1.9-1.5-.6-.4-1.4-.9-2.2-1.2-.9-.3-1.9-.6-3-.5-2.2.2-4,1.2-5.2,2.1-1.1.9-1.7,1.7-1.8,1.6,0,0,0-.2.3-.6.2-.3.6-.8,1.2-1.3,1.1-1,3-2.1,5.4-2.4,1.2,0,2.3.2,3.2.6.9.4,1.7.9,2.3,1.3,1.2.9,1.7,1.7,1.7,1.8h0Z"/>
            <path class="cls-15" d="M288.3,71.5s0,.8-.6,2.1c-.5,1.3-1.4,2.9-2.8,4.5-1.4,1.6-2.9,2.7-4.1,3.3s-2,.9-2,.8c0-.1,3.1-1.4,5.8-4.4,2.7-3,3.6-6.4,3.7-6.3h0Z"/>
            <path class="cls-15" d="M291.3,72.7s0,.3,0,.8c0,.5-.1,1.3-.3,2.3-.4,1.9-1.5,4.5-3.4,6.7-2,2.3-4.4,3.7-6.2,4.3-.9.3-1.7.5-2.2.6-.5,0-.8.1-.8,0,0,0,1.2-.3,2.9-1,1.8-.7,4.1-2.1,6-4.3,1.9-2.2,3-4.7,3.5-6.5.5-1.8.5-3,.6-3h0Z"/>
            <path class="cls-15" d="M265,60.9c0,0-.8.3-2,.7-1.2.5-2.8,1.3-4.3,2.5-1.5,1.2-2.6,2.7-3.3,3.7-.7,1.1-1,1.8-1.1,1.8,0,0,.2-.8.8-2,.6-1.2,1.7-2.6,3.3-3.9,1.6-1.3,3.2-2.1,4.5-2.5,1.3-.4,2.1-.5,2.1-.4h0Z"/>
            <path class="cls-15" d="M293.7,61.8c.1,0-.2,2.2-1.9,4.1-1.7,2-3.7,2.7-3.7,2.6,0-.1,1.8-1,3.4-2.9,1.6-1.9,2.1-3.9,2.3-3.8h0Z"/>
          </g>
          <g>
            <path class="cls-6" d="M231.7,262.3s-2.8,74.8-2.8,79.5-.4,20-.3,26.4,3.1,40.4,3.1,40.4l.9,12h21.6s7-78.3,7.5-84.8c.5-6.5,9.3-68.3,9.8-66.8.5,1.5,10,61.8,10.4,68.3s0,83.3,0,83.3h24.2s4.6-48.7,6-71.3c1.3-20.9,6.1-64.3,6.1-64.3v-32l-48.2-4.9-38.3,14.2h0Z"/>
            <g>
              <g>
                <path class="cls-6" d="M304.6,405.4l.6,21.2s21.3,7.8,21.5,11.8h-41.1c0,0-.2-33-.2-33h19.3Z"/>
                <path class="cls-1" d="M292.5,424.8c-.8.2-1.3,1.1-1.2,1.9.2.8,1.1,1.4,1.9,1.2.8-.2,1.5-1.3,1.2-2-.3-.8-1.4-1.4-2.1-1"/>
                <path class="cls-15" d="M285.6,438.4v-3.3c.1,0,39.5,1.2,39.5,1.2,0,0,1.8.8,1.6,2.1h-41.1c0,0,0,0,0,0Z"/>
                <path class="cls-7" d="M305.9,426.4c0,.2-1,.3-2,.9-1,.6-1.5,1.5-1.7,1.4-.2,0,.1-1.2,1.3-2,1.2-.8,2.4-.5,2.4-.4h0Z"/>
                <path class="cls-7" d="M310.2,428.1c0,.2-.8.5-1.5,1.4-.7.8-.9,1.8-1.1,1.7-.2,0-.3-1.1.5-2.2.9-1,2-1.1,2-.9h0Z"/>
                <path class="cls-7" d="M312.7,433.3c-.2,0-.5-1,0-2.1.5-1.1,1.5-1.5,1.5-1.4.1.2-.5.8-.9,1.7-.4.9-.5,1.8-.7,1.8h0Z"/>
                <path class="cls-7" d="M305.5,421.5c0,.2-1,0-2.1,0-1.1,0-2,.4-2.1.3-.1-.1.7-.9,2.1-1,1.3,0,2.3.5,2.2.7h0Z"/>
              </g>
              <g>
                <path class="cls-6" d="M235.6,403.3l-.4,25.6-6.2,20.2c-.4,1.5.4,3,1.9,3.3h0c.8.2,1.7,0,2.3-.6,4.1-3.6,18.9-16.9,18.8-18.8,0-2.2,2.2-27,2.2-27l-18.7-2.8h0Z"/>
                <path class="cls-15" d="M230.9,452.5l21.2-21.1v1.1c0,.9-.4,1.8-1.1,2.5-1.7,1.9-6.5,6.9-17.7,16.9-.6.6-1.6.8-2.4.6h0Z"/>
                <g class="cls-11">
                  <path class="cls-7" d="M247.2,422.9c-.7.4-.9,1.4-.5,2.1s1.4.9,2,.5c.7-.4,1-1.5.5-2.2-.5-.6-1.6-.9-2.2-.3"/>
                </g>
                <path class="cls-7" d="M237.2,441.5c-.1,0-.7-1.3-2.2-2.1-1.5-.8-2.9-.5-2.9-.7,0,0,.3-.2.9-.3s1.5,0,2.3.5c.8.4,1.4,1.1,1.7,1.6.3.5.3.9.2.9h0Z"/>
                <path class="cls-7" d="M235.3,444.9c-.1.1-.9-.8-2.2-1.2-1.3-.5-2.4-.3-2.5-.4,0-.1,1.2-.6,2.7-.1,1.5.5,2.2,1.7,2,1.7h0Z"/>
                <path class="cls-7" d="M240.8,437.2c-.1.1-1.3-1.2-3.3-2.1-2-.9-3.8-.9-3.8-1,0-.1,1.9-.4,4,.5,2.1.9,3.2,2.5,3.1,2.6h0Z"/>
                <path class="cls-7" d="M241.6,429.5c0,.1-1.5-.5-3.3-.6-1.8-.2-3.3.2-3.4,0,0-.1,1.4-.8,3.4-.6,2,.1,3.3,1.1,3.3,1.2h0Z"/>
                <path class="cls-7" d="M241.9,421.9c0,.1-1.5-.8-3.4-.8-1.9,0-3.4.9-3.4.7,0,0,.2-.4.9-.7.6-.3,1.5-.6,2.6-.6s2,.3,2.6.6.9.6.9.7h0Z"/>
              </g>
            </g>
          </g>
          <g>
            <path class="cls-1" d="M259,127l-22.1,4.8,4.3,74.5-10.1,56.5c1.4,5.5,29.8,5.8,45.8,5.3,15.1-.4,40-6.7,41.8-9.5,1.8-2.8-7.6-63.5-7.6-63.5v-63l-24.5-5.6s-13.9,8.3-27.6.6h0Z"/>
            <path class="cls-2" d="M231.7,253.7s41.5,2.3,51.9,1.5c16.5-1.1,35.2-7.1,35.2-7.1v-5.8s2.2-3.1,2.2-9.1c0-.8-.1-5.7-.8-9.7-2.5-14.2-5.5-41.7-5.5-41.7l-3.7-49.8-10.8-3.5-13.1-4.7-13.9,12.4s-9.4-9.5-13.8-12l-23,7.9-2.5,68.7s-1.7,13.6-2.9,22.8c-.6,4.9-3.1,8.7-3.1,12.6s4.9,9.4,4.9,9.4l-1.1,8.1h0Z"/>
            <g class="cls-12">
              <path d="M232.4,214.6c8.9,5.8,20.1,6.5,30.8,7.1,6.1.3,12.3.7,18.4,0s12.2-2.3,17.4-5.6c2.8-1.8,5.4-4.1,8.4-5.5,2.1-.9,4.3-1.4,6.2-2.6,1.9-1.2,3.5-3.3,3.1-5.5-.4-1.9-2.1-3.3-4-3.7-1.9-.5-3.8-.3-5.7,0-2.8.3-5.7.8-7.8,2.6-1.8,1.6-2.5,4-3.8,6.1-2.5,4.1-7.1,6.6-11.8,7.6s-9.6.8-14.4.6c-11.8-.6-23.5-1.1-35.2-1.7"/>
            </g>
            <path class="cls-2" d="M336.4,174.8s-8.5-29.7-14.5-35.7c-6-6-10.9-7-10.9-7l2.9,43.9,2.2,4.4,20.4-5.7h0Z"/>
            <path class="cls-6" d="M312.4,151.4c.4,0,.9,7.1,1.5,15.8.3,4.3.5,8.2.7,11.2.1,1.4.2,2.5.2,3.4,0,.8,0,1.2,0,1.2s-.1-.4-.2-1.2-.3-2-.4-3.4c-.3-2.9-.6-6.8-.9-11.2-.2-4.3-.5-8.2-.6-11.2,0-1.4-.1-2.5-.2-3.4,0-.4,0-.6,0-.9,0-.2,0-.3,0-.3h0Z"/>
            <g>
              <rect class="cls-15" x="274.9" y="175.7" width="52.8" height="8.1" transform="translate(93.4 462.5) rotate(-84.5)"/>
              <rect class="cls-6" x="263.6" y="173.1" width="60.7" height="7.6" transform="translate(89.7 452.5) rotate(-84.5)"/>
              <rect class="cls-6" x="276.5" y="176.4" width="60.7" height="3.3" transform="translate(100.2 466.4) rotate(-84.5)"/>
            </g>
            <path class="cls-9" d="M277.5,202l2.7-1.4,10.6-8,2.8,2-2.1,4.3s25.5,3.4,25.5,5.2-1.8,2-1.8,2h-13.1s.9,3.2-.6,4.1c0,0,0,2.3-2.1,3.3,0,0,.7,1.4-2.1,2.4-2.8,1-18.7,1.7-18.7,1.7l-1-15.5h0Z"/>
            <g>
              <path class="cls-9" d="M304.3,178c-1.7-.4-7-2.1-9.3-1.7-2.2.4-2.9,1.8-2.9,1.8,0,0-4.7,2.1-3.5,5.2-.4.6-.8,1.4-1.1,2.6-.5,2.1,1.3,2.8,1.3,2.8,0,0-1.7.8-2,3.1-.4,2.4,2.2,4,2.2,4-.5,2.7,2.3,3.3,3.6,3.8,2.4,1,18.3.1,18.3.1l.9-16.1s-6.1-5.5-7.5-5.7h0Z"/>
              <path class="cls-5" d="M309.8,199.5s-.4.1-1,.2c-.8.1-1.7.2-2.7.4-2.3.3-5.5.7-9.1.5-2.2-.2-4.2-.5-5.9-1.2-.9-.3-1.6-.9-2-1.6-.4-.7-.5-1.5-.2-2.1v.2c-1.1-1-1.8-1.7-1.7-1.7,0,0,.8.5,2,1.5h0c0,0,0,.2,0,.2-.2.5,0,1.2.3,1.8.4.6,1,1.1,1.8,1.4,1.6.6,3.6.9,5.8,1.1,3.5.2,6.7-.1,9-.4,1.2-.1,2.1-.2,2.8-.2s1,0,1,0h0Z"/>
              <path class="cls-5" d="M290.4,189c0,.1-.5.2-1,.1-.5,0-.9-.3-.9-.4s.5-.2,1-.1c.5,0,.9.3.9.4Z"/>
              <path class="cls-5" d="M290.3,182.9c0,.1-.4.3-.8.4-.5,0-.9.1-.9,0,0-.1.3-.4.8-.5s.9,0,.9.1Z"/>
            </g>
            <path class="cls-2" d="M335.9,173.3s4.4,12.7,5.6,20.9c1.4,9.3-6.4,15.9-15,12.4-3.9-1.6-16.3-6.2-16.3-6.2l1-16.9,5.5.9-2.2-7.6,21.5-3.6h0Z"/>
            <path class="cls-6" d="M324.1,205.4s-.4,0-1-.3c-.7-.2-1.7-.6-2.9-1-2.5-.9-6-2.1-10.1-3.6h-.2v-.2c.2-4.1.5-9,.7-14.1,0-1.1.1-2.1.2-3.1v-.3s.3.1.3.1c1.7.6,3.4.9,5.1,1.1,1.7.2,3.3.5,4.8.7,3.1.4,5.8.9,8.1,1.6,2.2.7,3.9,1.6,4.9,2.4.5.4.9.8,1.1,1,.2.2.3.4.3.4s-.1-.1-.4-.3c-.2-.2-.6-.6-1.1-.9-1-.8-2.7-1.6-4.9-2.2-2.2-.6-5-1.1-8-1.5-1.5-.2-3.2-.4-4.9-.7-1.7-.3-3.5-.5-5.2-1.1l.4-.2c0,1-.1,2-.2,3.1-.3,5.1-.6,10-.8,14.1v-.2c4,1.5,7.4,2.8,9.9,3.7,1.2.4,2.1.8,2.8,1.1.6.3,1,.4,1,.4h0Z"/>
            <path class="cls-6" d="M318.5,242.5s-.3,0-.9.2c-.6.1-1.4.3-2.5.5-2.1.4-5.2.9-9.1,1.4-3.9.5-8.5,1.1-13.6,1.5-5.1.4-10.8.8-16.7,1-5.9.2-11.6.2-16.8.1-5.1-.1-9.8-.3-13.7-.6-3.9-.2-7-.5-9.2-.7-1.1-.1-1.9-.2-2.5-.3-.6,0-.9-.1-.9-.1s.3,0,.9,0c.6,0,1.4.1,2.5.2,2.2.2,5.3.4,9.2.6,3.9.2,8.5.4,13.6.4,5.1,0,10.8,0,16.7-.2,5.9-.2,11.6-.6,16.7-1,5.1-.4,9.7-.9,13.6-1.4,3.9-.5,7-.9,9.1-1.2,1-.1,1.9-.3,2.5-.4.6,0,.9-.1.9,0h0Z"/>
            <g>
              <path class="cls-2" d="M236.4,132.1c-1.1.4-14.2,4.9-17.2,27.8-1.8,13.6-.7,28.7-.7,28.7l23.2-1.9-5.3-54.5h0Z"/>
              <path class="cls-15" d="M236.4,132.1s2.5-6.2,8.6-3.2c0,0,.4,19.3.1,29.3-.7,33.7-5,33.9-5,33.9l-3.8-60Z"/>
              <path class="cls-2" d="M218.2,187.9s.6,17.6,6.9,22.9c7.3,6.2,53.4,7.2,53.4,7.2l-1-15.5-37.6-12.1-.5-9.4-21.2,6.9h0Z"/>
              <path class="cls-6" d="M228.3,195.4s.7-1,2.6-2.4c1.9-1.3,5.1-2.8,9.4-2.5h0c9,2.8,22.2,7,37.1,11.7h.2v.2c.1,1.5.2,3.1.3,4.7.2,3.7.5,7.4.7,10.9v.2s-.2,0-.2,0c-6.6.8-12.8.3-18.3-.1-5.5-.5-10.4-1.1-14.5-1.7s-7.3-1.1-9.6-1.5c-1.1-.2-1.9-.4-2.6-.5-.3,0-.5-.1-.7-.1-.1,0-.2,0-.2,0,0,0,0,0,.2,0,.2,0,.4,0,.7,0,.6.1,1.5.2,2.6.4,2.2.4,5.5.8,9.6,1.4,4.1.5,9,1.1,14.5,1.6,5.5.4,11.7.9,18.2,0l-.2.3c-.2-3.5-.5-7.1-.7-10.9-.1-1.6-.2-3.2-.3-4.7l.2.2c-14.9-4.8-28.1-9-37.1-11.9h0c-4.2-.3-7.4,1.2-9.3,2.4-1,.6-1.6,1.2-2.1,1.6-.2.2-.4.3-.5.5-.1.1-.2.1-.2.1h0Z"/>
            </g>
            <path class="cls-6" d="M267.8,141s-.4,0-1,0c-.6,0-1.5-.2-2.6-.4-2.2-.4-5.2-1.4-8.3-3-3.1-1.6-5.6-3.6-7.2-5.1-.8-.8-1.4-1.5-1.8-1.9-.4-.5-.6-.8-.6-.8,0,0,1,1,2.7,2.5s4.2,3.4,7.2,4.9c3,1.6,6,2.5,8.2,3.1,2.2.5,3.6.7,3.5.8h0Z"/>
            <path class="cls-6" d="M301.8,129.3s-.2.3-.7.7c-.5.4-1.2,1.1-2.2,1.8-1.9,1.4-4.7,3.1-8.1,4.6-3.3,1.4-6.5,2.3-8.9,2.8-1.2.2-2.1.4-2.8.4-.7,0-1,0-1,0,0,0,1.4-.3,3.7-.8,2.3-.5,5.4-1.4,8.7-2.9,3.3-1.4,6.1-3.1,8.1-4.4,2-1.3,3.1-2.2,3.1-2.2h0Z"/>
            <path class="cls-6" d="M272.9,138.9s.1,0,.3,0,.5,0,.9.1c.8.2,1.9.7,2.9,1.8.5.6.9,1.2,1.2,2.1.1.4.2,1-.3,1.4-.2.2-.6.3-.9.2-.3,0-.5-.2-.7-.3-1.6-1.1-3.1-2.8-3.7-5,0-.3-.1-.6-.2-.8h.5c.5,2.1-.3,4.2-1.7,5.5-.4.3-.9.5-1.4.5-.5,0-1-.4-1.1-.9-.1-.4,0-.9.1-1.3.1-.4.4-.7.5-1,.8-1.1,1.6-1.9,2.3-2.3.6-.4,1-.6,1-.6,0,0-.3.2-.9.7-.6.5-1.4,1.2-2.1,2.3-.3.6-.8,1.2-.5,1.9.2.7,1.2.8,1.8.2,1.2-1.1,2-3.2,1.5-5.1h.5c0,.1.1.4.2.7.6,2,2,3.7,3.5,4.7.4.3.8.4,1,.2.2-.2.3-.6.1-1-.2-.8-.6-1.4-1.1-2-.9-1.1-2-1.6-2.7-1.9-.8-.2-1.2-.3-1.2-.3h0Z"/>
            <path class="cls-7" d="M283.7,189.6c-.2,0-.8-2.5-1.7-7.1s-2.2-11.2-3.7-19.4h1.9c-.9,7.4-2,16.3-3.2,26l-.7,5.6-1.7-5.3c-2.4-7.4-4.9-15.6-7.6-24-.3-1-.6-2-1-3l2.5-.5c.8,9.9,1.5,19.4,2.2,28l.5,5.9-2.7-5.3c-4-7.9-7.6-15-10.7-21.1l1.8-.5c.2,7.2.6,13.1,1,17.2.3,4.1.5,6.3.3,6.3-.2,0-.7-2.2-1.4-6.2-.6-4-1.4-9.9-1.8-17.2l-.2-4.1,2,3.7c3.2,5.9,7,13,11.1,20.8l-2.2.6c-.7-8.6-1.5-18.1-2.4-28l-1-11.7,3.5,11.2c.3,1,.6,2,1,3,2.6,8.5,5.2,16.6,7.5,24l-2.4.2c1.3-9.7,2.6-18.6,3.7-26l1-6.5,1,6.5c1.2,8.2,2.2,14.9,2.8,19.6.6,4.6.9,7.2.7,7.3h0Z"/>
          </g>
        </g>
      </g>
      <g id="Character_1">
        <g>
          <g>
            <path class="cls-6" d="M68.8,100.9c-.5-5.4-1.9-10.7-2.1-16-.3-5.4.6-11.1,4.1-15.3s9.8-6.2,14.4-3.5l1.3,4.5c.1,20.9,2.2,41.9,2.4,62.8,0,2.7-2,5.4-3,7.9-1,2.6-3.3,4.8-6.1,4.9-3.6.1-6.2-3.3-7.7-6.6-5.1-12-2-25.7-3.3-38.6Z"/>
            <path class="cls-2" d="M79.2,71.9c.7-1.4,1.3-2.8,2.4-3.9,1.1-1.1,2.6-1.9,4.1-1.8.7,0,1.5.4,1.8,1.1.3.7-.1,1.6-.9,1.6v.2c-1.6,1.6-3.1,3.1-4.7,4.6-.4.4-.8.8-1.3,1-.5.2-1.1.2-1.5-.2-.7-.6-.3-1.7,0-2.5Z"/>
            <path class="cls-6" d="M76.6,77.4c4.8-7,11.6-11.4,20.1-12.3,4.8-.5,6.8.3,10.3.9s6.8,2.2,9.1,4.9c2.7,3.2,5.1,6.9,6,11.1.9,4.3.9,8.5.4,12.1-.6,4.3-2.9,11-5.2,14.8l-7.2,1.5c-6.1.8-12.2,1.5-18.3.6-6.1-.9-12.1-3.5-15.7-8.4-5.1-6.8-4.2-18.2.6-25.2h0Z"/>
            <g>
              <path class="cls-13" d="M86.4,76.5l14.2-7.2h3.9c8.6-.6,15.4,8.4,16.1,15.3.8,7.8,1.4,17.3.7,23.1-1.5,11.7-11.2,13.6-11.2,13.6,0,0,.8,6.1,1.2,10l-22.6.4-5.7-51c-.1-2.1,1.4-4,3.5-4.3h0Z"/>
              <path class="cls-18" d="M103.7,106.7c0-.6.3-1.2.7-1.6.8-.8,2.1-1,3-.4,1,.6,1.6,1.8,1.6,3h0c-.4.8-1.2,1.3-2.1,1.5-.1,0-.3,0-.4,0-.7,0-1.4-.1-1.9-.6-.6-.4-.9-1.2-.9-1.9h0Z"/>
              <g>
                <path class="cls-6" d="M118.4,94.5c0,.8-.6,1.5-1.4,1.6s-1.5-.5-1.6-1.3.6-1.5,1.4-1.6,1.5.5,1.6,1.3Z"/>
                <path class="cls-6" d="M118.3,88.8c-.2.2-1.3-.6-2.9-.5-1.6,0-2.8.9-2.9.7,0,0,0-.4.6-.8.5-.4,1.3-.8,2.3-.8s1.9.3,2.4.7c.5.4.7.7.6.8h0Z"/>
                <path class="cls-6" d="M109.1,102.3c0,0,1-.3,2.6-.6.4,0,.8-.2.9-.4,0-.3,0-.7-.3-1.2-.4-1-.9-2-1.3-3.1-1.8-4.4-3.2-8-3-8.1s1.8,3.4,3.7,7.8c.4,1.1.9,2.1,1.3,3.1.2.5.5,1,.3,1.6,0,.3-.4.5-.7.6-.3,0-.5,0-.7.1-1.6.1-2.6.2-2.7,0h0Z"/>
                <path class="cls-18" d="M110.1,121.4s-7.8.8-15.8-3.6c0,0,4.4,7.9,16.1,6.5l-.3-2.8Z"/>
                <path class="cls-6" d="M104.4,103.6c.3,0,.3,1.7,1.9,2.9,1.5,1.2,3.4.9,3.4,1.2,0,.1-.4.3-1.2.4-.8,0-1.9-.2-2.8-.9-.9-.7-1.4-1.7-1.4-2.4,0-.7,0-1.2.2-1.2Z"/>
                <path class="cls-6" d="M117.3,83.3c-.3.4-1.5.2-2.9.3-1.4.1-2.6.6-2.9.2-.2-.2,0-.6.5-1s1.3-.8,2.3-.9c1,0,1.9.1,2.4.4.6.3.8.7.7.8h0Z"/>
                <path class="cls-6" d="M100.8,95.3c0,.8.7,1.4,1.6,1.4.8,0,1.5-.7,1.4-1.5s-.7-1.4-1.6-1.4c-.8,0-1.5.7-1.4,1.5h0Z"/>
                <path class="cls-6" d="M96.6,90.1c.2.2,1.3-.7,2.9-.8,1.6-.1,2.8.6,3,.4,0,0-.1-.4-.7-.8-.5-.3-1.4-.6-2.4-.6s-1.8.5-2.3.9c-.5.4-.6.8-.5.9Z"/>
                <path class="cls-6" d="M97.1,84.9c.3.3,1.6-.1,3.1-.2,1.5-.2,2.8,0,3-.3.1-.2-.1-.6-.7-.8-.6-.3-1.5-.5-2.5-.4s-1.9.5-2.4.9c-.5.4-.7.8-.5,1h0Z"/>
              </g>
              <g>
                <path class="cls-13" d="M86.6,100.1c0-.9-1.1-2.9-2-3-2.3-.3-6.4,0-6.3,5.9.2,8,8.2,6.1,8.2,5.9,0-.2.2-5.8,0-8.8h0Z"/>
                <path class="cls-18" d="M84.3,106s-.1,0-.4.2-.6.2-1,0c-.8-.3-1.6-1.6-1.7-3s0-1.4.3-2c.2-.6.6-1,1-1.1.4-.1.7.1.8.4.1.2,0,.4.1.4,0,0,.2-.1,0-.5,0-.2-.1-.3-.3-.5-.2-.2-.5-.2-.8-.2-.6,0-1.2.6-1.4,1.3-.3.6-.5,1.4-.4,2.2,0,1.6,1,3.1,2.1,3.4.6.1,1,0,1.3-.2.2-.2.3-.4.2-.4h0Z"/>
              </g>
            </g>
            <path class="cls-6" d="M84.3,97.2l2.2,1.9c7.9-9.1,23.1-31.4,22.2-30.1,0,0-6.2-1.9-12.5-.2s-18.3,6-17.5,13.6c.9,7.6,5.6,14.8,5.6,14.8h0Z"/>
            <path class="cls-15" d="M72.7,96.5s0-.2,0-.5c0-.3.2-.8.4-1.3.5-1.1,1.4-2.6,3-4,1.6-1.4,3.8-2.7,6.4-3.8,2.6-1.1,5.5-2,8.3-3.6,2.8-1.5,5.3-3.3,7.4-5.1,2.1-1.8,3.8-3.7,5.1-5.3,1.3-1.7,2.2-3.1,2.9-4.1.3-.5.5-.9.7-1.2.2-.3.2-.4.3-.4,0,0,0,.2-.2.4-.1.3-.3.7-.6,1.2-.6,1-1.5,2.5-2.8,4.2-1.3,1.7-3,3.6-5.1,5.4-2.1,1.8-4.6,3.7-7.5,5.2-2.9,1.5-5.8,2.5-8.4,3.5-2.6,1.1-4.8,2.3-6.3,3.7-1.6,1.4-2.5,2.8-3,3.9-.5,1.1-.6,1.7-.7,1.7h0Z"/>
            <path class="cls-15" d="M75.1,97.5s-.1-.6.2-1.8c.3-1.1,1.1-2.7,2.6-4,1.5-1.4,3.8-2.4,6.4-3.2,2.6-.8,5.3-1.8,8-3.3,2.7-1.5,5-3.3,6.9-5.2,1.9-1.8,3.4-3.7,4.6-5.4,1.2-1.7,1.9-3.1,2.5-4.1.2-.5.4-.9.6-1.2.1-.3.2-.4.2-.4s0,.2-.2.4c-.1.3-.3.7-.5,1.2-.5,1-1.2,2.5-2.4,4.2-1.1,1.7-2.6,3.6-4.6,5.5-1.9,1.9-4.3,3.7-7,5.3-2.7,1.6-5.5,2.6-8.1,3.3-2.5.8-4.8,1.7-6.3,3-1.5,1.3-2.4,2.8-2.7,3.8-.3,1.1-.2,1.7-.3,1.7h0Z"/>
            <path class="cls-15" d="M85.8,110.6c0,0-.7,0-1.9-.3-1.2-.2-2.9-.8-4.7-2.1-1.8-1.3-3.4-3.3-4.7-5.9-1.3-2.6-2.2-5.7-2.5-9-.2-1.7-.2-3.3,0-4.8.2-1.6.5-3,.9-4.4.9-2.7,2.2-5,3.5-6.8,2.7-3.5,5-5,4.9-5.1s-.2,0-.4.3c-.3.2-.7.5-1.1.9-1,.8-2.3,2-3.7,3.8-1.4,1.7-2.8,4-3.7,6.8-.4,1.4-.8,2.9-1,4.5-.2,1.6-.2,3.3,0,4.9.4,3.4,1.3,6.5,2.6,9.1,1.3,2.6,3.1,4.7,4.9,6,1.8,1.3,3.6,1.8,4.8,2,.6.1,1.1,0,1.4,0,.3,0,.5,0,.5,0Z"/>
          </g>
          <g>
            <path class="cls-15" d="M145.8,164.8c.1,0,17,5.9,20.8,23.8s4,62.9-2.9,64.8c-7,1.9-22.8,0-22.8,0l-12.6-52.1,17.6-36.4h0Z"/>
            <g class="cls-12">
              <path d="M151,167.4c-6.5,9.5-13,19-19.6,28.5-1.1,1.6-2.3,3.3-2.8,5.2-.8,3.2.3,6.6,1.4,9.8,4.8,13.5,9.6,26.9,14.4,40.4l6.5,3.1c1.6-.8,2.6-2.6,2.9-4.4s0-3.7-.4-5.4c-1-4.9-2.5-9.6-4.3-14.3-1.1-2.8-2.3-6.2-.6-8.7,1.3-1.9,3.8-2.6,5.7-3.8,4.4-2.8,6-8.4,6.2-13.5.7-12.8-4.5-25-9.5-36.7h0Z"/>
            </g>
            <path class="cls-6" d="M161.4,241.5s0-.2,0-.7c0-.5.2-1.1.3-1.9.1-.8.3-1.9.5-3,.2-1.2.4-2.5.6-4,.4-3,.7-6.6,1-10.5.2-4,.4-8.4.3-13,0-4.6-.3-9-.7-12.9-.4-4-.9-7.5-1.4-10.5-.2-1.5-.5-2.8-.7-4-.2-1.2-.4-2.2-.6-3-.2-.8-.3-1.4-.4-1.9,0-.4-.1-.7-.1-.7s0,.2.2.6c.1.5.3,1.1.5,1.9.2.8.4,1.8.7,3,.2,1.2.5,2.5.8,4,.6,3,1.1,6.5,1.5,10.5.4,4,.7,8.4.7,13,0,4.6-.1,9-.4,13-.3,4-.7,7.6-1.1,10.6-.2,1.5-.4,2.9-.6,4-.2,1.2-.4,2.2-.6,3-.2.8-.3,1.4-.4,1.9-.1.4-.2.7-.2.7h0Z"/>
            <path class="cls-6" d="M166.8,246.6c0,0-.7.2-2,.3s-2.9,0-4.8-.2c-1.9-.3-3.5-.9-4.6-1.4-1.1-.5-1.8-.9-1.8-1,0-.1,2.8,1.2,6.4,1.8,3.6.6,6.7.3,6.7.4h0Z"/>
          </g>
          <polyline class="cls-13" points="74.9 135.5 90.2 127.3 110.7 128.1 123.1 132.4 104.1 144.5 93.7 146.5 74.9 136.1"/>
          <g>
            <path class="cls-6" d="M73.4,211.6s-10.8,24.4-11.7,36c-.9,11.6,7,32.1,11.1,57.5,3.3,20.5,4.5,57.9,6.8,70.1s10.6,43.7,10.6,43.7l18.3,1.1s0-83.6,0-93.6-.4-58.5-.4-58.5l25.6,78.8,12.1,75.3,21.3-1s-2.9-64-4-75.9c-1.6-17.6-8.9-82.5-12.4-93.8s-16.8-39.8-16.8-39.8h-60.5c0,.1,0,.1,0,.1Z"/>
            <g>
              <g>
                <path class="cls-6" d="M166.1,405.5l.5,20.9s21,7.8,21.2,11.7h-40.6c0,0-.1-32.7-.1-32.7h19c0,0,0,0,0,0Z"/>
                <path class="cls-1" d="M154,424.7c-.8.2-1.3,1.1-1.1,1.9.2.8,1.1,1.4,1.9,1.2.8-.2,1.5-1.2,1.2-2-.3-.8-1.4-1.4-2.1-1"/>
                <path class="cls-15" d="M147.1,438.1v-3.3c.1,0,39,1.3,39,1.3,0,0,1.8.8,1.6,2.1h-40.6q0,0,0,0Z"/>
                <path class="cls-7" d="M167.2,426.3c0,.2-1,.3-2,.9-1,.6-1.5,1.5-1.7,1.4-.2,0,.1-1.2,1.3-2,1.2-.8,2.4-.5,2.4-.3h0Z"/>
                <path class="cls-7" d="M171.4,428c0,.2-.8.5-1.5,1.4-.7.8-.9,1.7-1.1,1.7-.2,0-.3-1.1.5-2.2.9-1,2-1.1,2-.9h0Z"/>
                <path class="cls-7" d="M173.9,433.1c-.2,0-.5-1,0-2,.5-1.1,1.4-1.5,1.5-1.4.1.2-.5.8-.9,1.6-.4.9-.5,1.7-.7,1.7h0Z"/>
                <path class="cls-7" d="M166.8,421.5c0,.2-1,0-2.1,0-1.1,0-2,.4-2.1.3-.1-.1.7-.9,2.1-1,1.3,0,2.2.5,2.1.7h0Z"/>
              </g>
              <g>
                <path class="cls-6" d="M90.2,403l.6,25.3-5.3,20.2c-.4,1.5.5,2.9,2,3.2h0c.8.2,1.7,0,2.3-.7,3.9-3.7,18-17.4,17.9-19.3-.2-2.1,1.2-26.8,1.2-26.8l-18.6-2h0Z"/>
                <path class="cls-15" d="M87.5,451.8l20.2-21.7v1.1c0,.9-.3,1.8-.9,2.5-1.6,1.9-6.2,7-16.9,17.4-.6.6-1.5.9-2.4.7h0Z"/>
                <g class="cls-11">
                  <path class="cls-7" d="M102.4,421.9c-.6.4-.8,1.4-.4,2,.4.6,1.4.9,2,.4s.9-1.6.4-2.2c-.5-.6-1.6-.8-2.2-.2"/>
                </g>
                <path class="cls-7" d="M93.3,440.7c-.1,0-.7-1.3-2.2-2-1.5-.8-2.9-.4-2.9-.6,0,0,.3-.3.9-.3.6,0,1.4,0,2.3.4.8.4,1.4,1,1.7,1.6.3.5.3.9.3.9h0Z"/>
                <path class="cls-7" d="M91.4,444.1c-.1.1-.9-.7-2.2-1.1-1.3-.4-2.4-.2-2.5-.3,0-.1,1.2-.7,2.6-.2,1.5.4,2.2,1.6,2.1,1.6h0Z"/>
                <path class="cls-7" d="M96.6,436.3c-.1.1-1.4-1.1-3.3-1.9-2-.8-3.8-.7-3.8-.9,0-.1,1.8-.5,4,.4,2.1.8,3.3,2.4,3.2,2.4h0Z"/>
                <path class="cls-7" d="M97.1,428.6c0,.1-1.5-.4-3.3-.5-1.8,0-3.3.4-3.3.2,0-.1,1.4-.9,3.3-.8,2,0,3.3.9,3.3,1.1h0Z"/>
                <path class="cls-7" d="M97.1,421.2c0,.1-1.5-.7-3.4-.6-1.9,0-3.3,1-3.4.8,0,0,.2-.4.8-.7s1.5-.6,2.5-.7c1,0,2,.2,2.6.5.6.3.9.6.9.6Z"/>
                <path class="cls-7" d="M93.7,419.1s0-.3,0-1c0-.6.2-1.5.8-2.5.3-.5.6-1.1,1.3-1.4.3-.2.9-.1,1.2.2.3.3.4.7.4,1.1,0,1.6-1.4,3.2-3.2,3.4-1.8.2-3.5-.8-4.2-2.2-.2-.4-.3-.8,0-1.2.2-.4.7-.6,1.1-.5.8.1,1.2.5,1.7.9.9.7,1.4,1.4,1.7,2s.4.9.4.9c0,0-.6-1.2-2.4-2.5-.4-.3-.9-.7-1.5-.7-.3,0-.5,0-.6.3,0,.2,0,.5,0,.8.6,1.1,2.1,2.1,3.7,1.9,1.5-.2,2.7-1.5,2.8-2.8,0-.3,0-.6-.2-.8-.2-.2-.4-.2-.7-.1-.5.2-.8.7-1.1,1.2-1.1,1.9-1,3.3-1.1,3.3h0Z"/>
              </g>
            </g>
            <path class="cls-13" d="M78.8,330c7.3,3.2,22,3.1,28.2-2.5-7.2-3.4-21.8-2.3-28.2,2.5Z"/>
          </g>
          <g>
            <path class="cls-2" d="M59.3,147.4s6.2-7.5,10.3-10.1,11.9-5.9,11.9-5.9c0,0,10.7,8.9,19.9,6,9.2-2.8,13.9-8.6,13.9-8.6l20.5,2.4s3.4,46.9,2,52.7c-1.4,5.8-1.7,30.6-1.7,30.6l-64.6-1.3,2-50.6-14.2-15.2h0Z"/>
            <polygon class="cls-1" points="81.6 154.9 82.9 222.4 130.2 222.4 130.2 154.8 81.6 154.9"/>
            <path class="cls-6" d="M129.2,180.5s-.5,0-1.4-.3c-.5-.1-1.1-.2-1.7-.4-.7-.1-1.4-.4-2.2-.7-3.2-1-7.6-3.1-11.5-6.5-.5-.4-1-.9-1.4-1.3-.5-.4-.9-.9-1.3-1.4-.9-.9-1.6-1.8-2.3-2.7-1.3-1.8-2.4-3.6-3.1-5.1-.8-1.5-1.3-2.8-1.6-3.7-.3-.9-.4-1.4-.4-1.4,0,0,.2.5.6,1.4.3.9.9,2.1,1.7,3.6.8,1.5,1.9,3.2,3.2,5,.7.9,1.4,1.8,2.3,2.6.4.4.8.9,1.3,1.3.5.4.9.8,1.4,1.3,3.9,3.4,8.1,5.5,11.3,6.6.8.3,1.5.6,2.2.8.6.2,1.2.3,1.7.5.9.3,1.4.4,1.4.5h0Z"/>
            <g>
              <polygon class="cls-15" points="77.9 171.4 79 219.1 117.9 219.1 116.3 170.9 77.9 171.4"/>
              <path class="cls-6" d="M81.9,218.9s0-.2,0-.5c0-.4,0-.8,0-1.3,0-1.2,0-2.9-.2-4.9-.2-4.2-.4-9.9-.6-16.2-.3-6.3-.4-12.1-.5-16.2,0-2.1,0-3.8,0-4.9,0-.5,0-1,0-1.3,0-.3,0-.5,0-.5s0,.2,0,.5c0,.4,0,.8,0,1.3,0,1.2,0,2.9.2,4.9.2,4.2.4,9.9.6,16.2.3,6.3.4,12.1.5,16.2,0,2.1,0,3.8,0,4.9,0,.5,0,1,0,1.3,0,.3,0,.5,0,.5Z"/>
              <rect class="cls-7" x="87.9" y="179.1" width="19.2" height="6.4"/>
            </g>
            <g>
              <path class="cls-13" d="M148.4,147.7c.4,0,8.1,41.3,8.1,48.1s-.8,15-8.9,16.9-59.7-2.6-59.7-2.6l17.3-11.2,10.2-.9,24.6-3.7-4.6-34.2s7.9-11.4,12.9-12.5h0Z"/>
              <path class="cls-18" d="M146.5,200.2c0,0-.2-.6-.5-1.4-.4-.8-1-1.8-2.1-2.7-1.1-.8-2.2-1.2-3.1-1.4-.9-.2-1.4-.1-1.4-.2,0,0,.6-.2,1.5-.2.9,0,2.2.5,3.4,1.4,1.1.9,1.8,2,2.1,2.9.3.9.2,1.5.2,1.5h0Z"/>
            </g>
            <path class="cls-2" d="M131.7,130.7s7.3-.1,12.3,4.3c5,4.4,6.8,15.7,6.8,15.7l-15.9,11.5-3.2-31.5h0Z"/>
            <path class="cls-2" d="M53.4,160.1l20.9,6.7-4.7-29.5s-14,5.3-16.2,22.8h0Z"/>
            <path class="cls-6" d="M68.8,150.3c0,0,.4.9.9,2.4.6,1.7,1.2,3.6,1.9,5.8.8,2.2,1.4,4.1,2,5.8.5,1.5.8,2.4.8,2.4,0,0-.5-.9-1.1-2.3-.6-1.5-1.4-3.5-2.2-5.8s-1.4-4.4-1.8-5.9-.6-2.5-.5-2.5h0Z"/>
            <path class="cls-15" d="M127.2,130.2l9.8,64.7,3.1-.5-4.1-63.7s-7.9-2.3-8.8-.5h0Z"/>
            <g>
              <path class="cls-13" d="M121,182.7l-46,8.4-.8-24.7-19-5.8c-1.2,11.4,1.1,47.2,5.9,49.6,4.8,2.5,18.6,2.5,26.9,0s32.2-14.4,32.2-14.4l.8-13.1h0Z"/>
              <path class="cls-13" d="M115.5,184.7l5.5-2s2.3-3.7,4.3-5.7,13.7-6.8,13.7-6.8c0,0,2.9.4.7,3.1-2.2,2.8-4,3.9-4,3.9,0,0,3.2.3,3.8,1.1s.2,3.9,0,4.8c0,0,1,2.4,0,5.1v.8c0,0,.2,1.9-1.9,3.9,0,0,.9,1.8-1.4,2.5s-16.2.5-16.2.5l-4.5-11.1h0Z"/>
              <path class="cls-18" d="M120,195.8s.1,0,.4,0c.3,0,.6,0,1.1,0,1,0,2.3,0,4,0,1.7,0,3.8,0,6.2-.1,1.2,0,2.4-.1,3.7-.3.6,0,1.3-.3,1.8-.7.5-.4.6-1.1.3-1.7v-.2c0,0,0-.1,0-.1.5-.5.9-1,1.3-1.6.3-.6.5-1.4.4-2h0c0-.3,0-.6,0-.8h0s0,0,0,0c.6-1.5.6-3.3,0-4.9h0c0,0,0-.2,0-.2.2-.8.3-1.8.4-2.7,0-.5,0-.9,0-1.4,0-.2-.1-.4-.2-.6,0-.1-.3-.2-.5-.3-.9-.4-2-.6-3.1-.7h-.7c0,0,.6-.5.6-.5,1.4-.9,2.6-2.1,3.6-3.4.5-.6,1-1.2,1.1-1.9,0-.7-.6-1.1-1.3-1.2h.1c-3,1.2-5.8,2.5-8.3,3.6-1.2.6-2.4,1.1-3.4,1.7-1,.6-1.9,1.1-2.6,1.9-1.3,1.5-2.2,2.8-2.9,3.6-.3.4-.5.7-.7,1-.2.2-.2.3-.3.3s0-.1.2-.4c.1-.2.4-.6.7-1.1.6-.9,1.5-2.2,2.8-3.7.6-.8,1.6-1.4,2.6-2,1-.6,2.2-1.2,3.4-1.8,2.5-1.2,5.2-2.4,8.3-3.7h0s0,0,0,0c.4,0,.8.2,1.2.5.4.3.6.8.6,1.2-.1.9-.7,1.6-1.2,2.2-1.1,1.3-2.2,2.5-3.7,3.5v-.5c1,.1,2.1.3,3.1.7.2.1.5.2.7.5.2.2.3.5.3.8,0,.5,0,1,0,1.5,0,1-.2,1.9-.4,2.8v-.2c.6,1.8.6,3.6,0,5.2h0c0,.2,0,.5,0,.7h0c.1,1.6-.9,3-1.9,4v-.3c.4.8.2,1.7-.4,2.2-.6.5-1.3.7-2,.8-1.3.2-2.6.2-3.8.2-2.4,0-4.4,0-6.2,0-1.7,0-3.1,0-4,0-.4,0-.8,0-1.1,0-.2,0-.4,0-.4,0h0Z"/>
              <path class="cls-18" d="M70.4,200.2c0,0-.2-.6-.2-1.6s.3-2.3,1-3.7c.7-1.3,1.7-2.4,2.4-2.9.8-.6,1.4-.8,1.4-.8,0,.1-2,1.3-3.3,3.9-1.4,2.6-1.1,5-1.3,5h0Z"/>
              <path class="cls-18" d="M119.9,195.9s-.5.4-1.5.9-2.4,1.3-4.1,2.2c-3.5,1.8-8.5,4.1-14.1,6.3-5.6,2.2-10.8,3.9-14.6,5.1-1.9.6-3.4,1-4.5,1.2-1.1.3-1.7.4-1.7.4,0,0,.6-.2,1.6-.6,1.1-.4,2.6-.8,4.5-1.4,3.8-1.2,8.9-3,14.5-5.2s10.6-4.5,14.1-6.2c1.7-.8,3.1-1.5,4.2-2,1-.5,1.6-.7,1.6-.7h0Z"/>
            </g>
          </g>
          <g>
            <path class="cls-15" d="M92.4,133.2c2.6,5.4,2.2,11.1-1,12.7-3.2,1.6-7.9-1.6-10.6-7.1-2.6-5.4-2.2-11.1,1-12.7,3.2-1.6,7.9,1.6,10.6,7.1Z"/>
            <path class="cls-15" d="M85.8,137.6c1.4,3.7,1,7.4-1,8.2-2,.8-4.8-1.7-6.2-5.4-1.4-3.7-1-7.4,1-8.2,2-.8,4.8,1.7,6.2,5.4Z"/>
            <path class="cls-15" d="M110.6,133.7c-1.8-5.8-.6-11.3,2.8-12.4s7.6,2.7,9.5,8.5c1.8,5.8.6,11.3-2.8,12.4s-7.6-2.7-9.5-8.5Z"/>
            <path class="cls-15" d="M117.8,130.2c-.9-3.9,0-7.5,2.1-7.9,2.1-.5,4.5,2.3,5.4,6.2.9,3.9,0,7.5-2.1,7.9s-4.5-2.3-5.4-6.2Z"/>
            <path class="cls-15" d="M82.2,135.2s-5.2-6.7-4.7-9.8,9-10.2,9-10.2l.6,4.9s-6.4,2.3-6.2,5.6c.2,3.2,3.1,8.6,3.1,8.6l-1.7.9h0Z"/>
            <path class="cls-6" d="M85.3,145.5c0,0,.6-.8.9-2.4.2-.8.2-1.7,0-2.7-.2-1-.5-2.1-1-3.2-.5-1.1-1.1-2.1-1.8-2.9s-1.4-1.4-2.1-1.6c-.7-.2-1.4-.2-1.8,0s-.6.3-.6.2c0,0,.2-.2.6-.4s1.1-.3,1.9-.1c.8.2,1.7.8,2.4,1.6.7.8,1.3,1.9,1.8,3s.9,2.3,1,3.4c.1,1.1,0,2.1-.2,2.9-.2.8-.5,1.4-.8,1.8-.3.4-.5.5-.5.5h0Z"/>
            <path class="cls-6" d="M88.2,145.1c0,0,.9-.9,1.1-2.8.3-1.9-.5-4.4-1.5-7.1-.5-1.3-1.2-2.6-2-3.5-.8-.9-1.8-1.5-2.7-1.8-1.8-.6-3,0-3,0,0,0,.2-.2.8-.4.5-.1,1.3-.2,2.3,0,.9.2,2,.8,2.9,1.8.9.9,1.6,2.2,2.1,3.6.5,1.4.9,2.7,1.2,4,.3,1.2.3,2.4.2,3.4-.4,2-1.5,2.8-1.5,2.7h0Z"/>
            <path class="cls-6" d="M123.8,135.2s-.2.2-.6.2-1,0-1.7-.4c-.7-.4-1.3-1-1.7-1.9-.5-.8-.9-1.8-1.2-2.8-.7-2.1-.8-4.1-.6-5.5.1-.7.4-1.3.6-1.6.3-.3.5-.4.5-.4,0,0-.7.6-.8,2,0,1.3,0,3.3.7,5.3.7,2,1.5,3.8,2.7,4.5,1.2.7,2.1.4,2.1.4h0Z"/>
            <path class="cls-6" d="M123.1,139.5s-.2.3-.8.4c-.6.2-1.5.2-2.6-.2-1.1-.4-2.1-1.3-2.9-2.5-.8-1.2-1.6-2.6-2.2-4.1-1.1-3.1-1.5-6.3-.7-8.4.4-1,1-1.7,1.5-2.1.5-.4.8-.5.8-.5,0,0-.3.2-.7.6-.4.4-.9,1.1-1.3,2.1-.7,2-.3,5,.8,8.1,1.2,3,2.8,5.6,4.8,6.5.9.4,1.8.4,2.4.3.6-.1.9-.3.9-.2h0Z"/>
          </g>
        </g>
      </g>
    </g>
  </g>
</svg>