<?xml version="1.0" encoding="UTF-8"?>
<svg xmlns="http://www.w3.org/2000/svg" viewBox="0 0 688.31 450.12">
  <defs>
    <style>
      .cls-1, .cls-2 {
        fill: #0097b2;
      }

      .cls-3 {
        fill: #ebebeb;
      }

      .cls-4 {
        fill: #c27461;
      }

      .cls-5 {
        fill: #263238;
      }

      .cls-6 {
        fill: #824e44;
      }

      .cls-7 {
        fill: #ff9d64;
      }

      .cls-8 {
        fill: #5b342f;
      }

      .cls-9 {
        fill: #fff;
      }

      .cls-10 {
        fill: #ffcfb4;
      }

      .cls-11 {
        opacity: .6;
      }

      .cls-12, .cls-2 {
        opacity: .3;
      }

      .cls-13 {
        fill: #ffbf9d;
      }

      .cls-14 {
        fill: #f5f5f5;
      }

      .cls-15 {
        fill: #7d4336;
      }

      .cls-16 {
        fill: #455a64;
      }

      .cls-17 {
        fill: #ff9a6c;
      }
    </style>
  </defs>
  <g id="Background_Complete">
    <g>
      <path class="cls-14" d="M505.17,179.81c-1.69-3.83-2.08-8.06-3.2-12.08-.6-2.16-1.61-4.46-3.63-5.41-1.34-.63-2.92-.55-4.35-.98-5.11-1.53-6.5-8.66-11.34-10.88-1.53-.68-3.23-.82-4.86-1.01-6.48-.76-13.17-3.01-17.25-8.09-1.34-1.64-2.35-3.58-3.99-4.92-1.67-1.34-4.24-1.91-5.85-.55,1.37,2.73,2.71,5.47,4.05,8.17,1.23,2.46,2.49,5,4.54,6.81,2.08,1.83,5.14,2.79,7.63,1.64.82-.38,1.64-1.01,2.57-.9.66.08,1.23.55,1.67,1.07,3.53,3.91,2.38,10.39-1.07,14.38-3.42,3.96-8.5,6.04-13.39,7.98-1.75.68-3.61,1.39-5.47,1.07-3.39-.63-5.19-4.32-6.18-7.62-2.21-7.32-3.28-15.28-7.82-21.45-1.45-1.94-3.25-3.72-4.13-5.99-.93-2.46-.71-5.33-2.19-7.49-1.53-2.27-4.78-3.58-5-6.31-.14-1.91,1.45-3.61,3.2-4.43,1.75-.85,3.72-1.09,5.52-1.83.71-.3,1.5-.82,1.53-1.59,0-1.15-1.59-1.61-2-2.68-.44-1.2.79-2.32,1.31-3.5,1.12-2.68-1.67-5.38-4.37-6.48-2.68-1.09-5.93-1.89-7.19-4.51-.57-1.2-.63-2.6-.87-3.91-.63-3.31-3.06-6.5-6.4-7.05-3.36-.55-7.08,2.43-6.53,5.77.33,1.83,1.69,3.25,2.43,4.95.77,1.69.55,4.21-1.2,4.76-2.87.87-5.63-4.37-8.03-2.57.98,3.36,1.94,6.72,2.92,10.11-3.77,1.91-8.28-1.56-9.89-5.49-1.61-3.91-1.67-8.39-3.58-12.16-1.91-3.8-7.08-6.61-10.36-3.94-.16,4.86,6.26,6.83,9.1,10.77,2.05,2.84,1.75,7.46-1.28,9.26-3.01,1.8-7.79-1.34-6.64-4.65.41-1.15,1.37-2.1,1.48-3.33.11-1.53-1.18-2.76-2.35-3.74-1.83-1.56-3.66-3.09-5.49-4.62-1.18-.98-2.43-2.02-3.91-2.46-3.77-1.09-7.54,1.97-9.54,5.33-2,3.39-3.12,7.35-5.88,10.17-3.96,4.1-11.48,4.35-15.2.05-3.74-4.29-1.83-12.33,3.66-13.88,2.08-.57,4.7-.52,5.79-2.35,1.91-3.25-3.55-7.41-1.67-10.69,1.45-2.51,5.27-1.37,8.06-2.21,2.76-.85,4.32-3.63,5.96-6.04,1.61-2.38,4.15-4.78,7-4.15-.22-1.67-.44-3.47.3-4.97.74-1.53,2.81-2.51,4.18-1.53-1.39,2.3.27,5.49,2.71,6.64,2.43,1.15,5.27.88,7.95.57,2.68-.33,6.04-1.31,6.26-3.99.08-.87-.25-1.8.08-2.62,1.17-3.2,7.08,1.2,9.35-1.37,1.31-1.34-.14-3.72-1.97-4.15-1.8-.46-3.69.22-5.55.27-1.86.08-4.13-.9-4.21-2.76-.08-1.83,1.97-3.14,2.19-4.95.36-3.06-4.84-3.85-6.67-1.37-1.8,2.49-1.18,5.9-.63,8.94.57,3.03.85,6.61-1.39,8.75-.96,1.45-3.44.68-4.26-.85-.85-1.53-.66-3.39-.79-5.11-.14-1.75-.9-3.72-2.6-4.18-1.18-.33-2.43.25-3.63.41-4.76.57-8.06-5.57-6.56-10.11,1.48-4.56,5.79-7.49,9.98-9.81,3.06-1.69,6.86-3.28,9.89-1.56,1.42.79,2.41,2.16,3.8,2.98,2.4,1.42,5.38.9,8.14.96,4.35.11,8.64,1.78,11.89,4.62,1.23,1.12,2.38,2.98,1.42,4.32-1.04,1.42-4.02,1.72-3.5,3.39,3.22,1.07,7.08-1.42,7.43-4.78,1.58.71,2.73,2.32,2.87,4.04,3.47-3.53,10.14-3.01,12.98,1.07.77,1.07,1.31,2.35,2.4,3.09,1.09.71,3.01.35,3.14-.93.05-.41-.08-.82-.22-1.2-.66-1.86-1.34-3.69-1.99-5.52,2.54-1.37,5.55.77,7.27,3.06,6.4,8.55,10.96,3.42,19.98,4.81,6.09.93,8.77,4.84,12.22,9.57,10.55,14.54,24.49,26.46,34.08,41.65,1.01,1.59,1.94,3.2,2.81,4.84-.16-.41-.3-.82-.46-1.23-3.77-9.92-8.44-19.4-13.94-28.34-1.17-1.91-2.38-3.8-3.61-5.66-.76-1.15-1.56-2.32-2.35-3.44-1.01-1.48-2.08-2.9-3.14-4.32-.85-1.15-1.69-2.27-2.57-3.36-.6-.76-1.23-1.53-1.86-2.3-.66-.87-1.37-1.72-2.13-2.57l-2.3-2.65c-.22-.27-.46-.55-.74-.82-.79-.93-1.64-1.83-2.49-2.73-.05-.11-.14-.19-.25-.27-.22-.25-.46-.49-.71-.74-.68-.77-1.42-1.5-2.13-2.24-1.17-1.2-2.38-2.4-3.61-3.55-1.01-1.01-2.05-1.97-3.12-2.92-.93-.85-1.86-1.69-2.82-2.51-.93-.82-1.86-1.61-2.82-2.4-1.15-.98-2.32-1.94-3.53-2.9h-.03c-3.31-2.65-6.72-5.16-10.22-7.52-.87-.6-1.72-1.18-2.6-1.75-.87-.6-1.78-1.15-2.65-1.7-.9-.55-1.78-1.12-2.68-1.64-.9-.57-1.8-1.09-2.71-1.61-.74-.44-1.45-.85-2.19-1.23-.38-.25-.74-.44-1.12-.63-1.56-.87-3.14-1.72-4.73-2.51-.79-.41-1.59-.82-2.4-1.2-1.01-.52-2.05-1.01-3.09-1.48-.14-.08-.3-.16-.46-.22-.93-.44-1.86-.87-2.82-1.28-1.34-.57-2.68-1.15-4.02-1.69-1.53-.63-3.06-1.26-4.62-1.83-1.72-.66-3.44-1.28-5.19-1.86-1.75-.6-3.53-1.18-5.3-1.72-1.78-.55-3.55-1.04-5.36-1.53-3.55-.96-7.16-1.8-10.8-2.54-.05-.03-.14-.03-.19-.05-1.39-.27-2.79-.55-4.18-.76-.11-.03-.19-.05-.27-.05-.6-.11-1.23-.22-1.86-.3-2.6-.44-5.22-.79-7.87-1.09-.3-.05-.63-.08-.96-.11-.77-.11-1.53-.16-2.32-.25-1.75-.16-3.5-.3-5.27-.41-1.83-.14-3.69-.22-5.55-.27-1.94-.08-3.88-.11-5.82-.11-5.14,0-10.22.22-15.25.68-1.2.08-2.38.19-3.55.33-1.23.14-2.46.27-3.69.44-1.23.16-2.46.33-3.66.52-1.23.19-2.43.38-3.66.6-1.04.16-2.1.36-3.14.57-2.57.49-5.11,1.04-7.63,1.64-1.18.27-2.35.57-3.53.9-1.18.3-2.35.63-3.5.96-1.94.55-3.83,1.15-5.71,1.75h-.03c-1.53.52-3.09,1.04-4.59,1.56-.03,0-.08.03-.11.05-1.56.55-3.06,1.12-4.59,1.72-.08.03-.16.05-.25.08-1.39.55-2.79,1.12-4.15,1.69-1.72.71-3.42,1.48-5.08,2.24-1.42.66-2.81,1.31-4.18,2-1.48.74-2.95,1.48-4.4,2.24-.05.03-.11.05-.16.08-1.39.74-2.79,1.5-4.15,2.3-1.42.79-2.82,1.61-4.21,2.49h-.03c-1.31.79-2.6,1.58-3.88,2.4-.49.3-.96.63-1.45.96-1.37.88-2.68,1.78-4.02,2.71-1.64,1.12-3.23,2.3-4.81,3.47-1.39,1.04-2.76,2.1-4.1,3.17-7.73,6.18-14.95,12.98-21.48,20.36-2.32,2.57-4.51,5.19-6.64,7.87-1.8,2.3-3.55,4.62-5.22,7.02-1.5,2.09-2.95,4.22-4.35,6.39,1.4-2.17,2.85-4.3,4.35-6.39.44-.05.87-.11,1.31-.14,2.46-.19,5.06-.11,7.27-1.18,2.05-1.01,3.5-2.84,5.36-4.15,4.76-3.39,12.54-4.02,13.83-9.7.44-1.91-.08-3.99.63-5.82,1.34-3.42,5.9-3.91,9.57-3.85,1.56,0,3.39.22,4.1,1.58.52.96.22,2.16-.16,3.17-2.24,6.39-6.78,11.92-12.54,15.41-4.76,2.9-10.96,5.14-12.27,10.55.66,1.83,3.99,1.69,4.26,3.61.19,1.53-1.78,2.32-2.49,3.69-1.04,2,1.34,4.43,3.61,4.32,2.27-.11,4.15-1.75,5.82-3.28,4.97-4.62,10.19-9.59,12-16.15.77-2.71,1.04-5.88,3.22-7.68,2.6-2.13,7.24-.66,8.12,2.6,2.16-1.2,5.52-2.1,6.64.14.38.79.27,1.72.46,2.57.71,3.5,5.49,5.08,5.99,8.61.57,4.07-4.65,6.18-8.72,6.81-3.69.57-7.38,1.15-11.07,1.75-1.61.25-3.28.52-4.59,1.48-1.31.98-2.13,2.84-1.37,4.29.44.79,1.28,1.31,1.91,1.97,3.06,3.06.55,9.37-3.77,9.51-1.48.05-2.93-.49-4.4-.55-4.37-.19-7.84,3.66-9.92,7.52-2.08,3.85-3.63,8.25-7.13,10.88-5.63,4.24-15.33,3.25-18.07,9.76-1.09,2.62-.52,5.57-.08,8.39.44,2.79.63,5.9-1.01,8.23-1.61,2.3-5.82,2.79-7.02.22-.52-1.12-.36-2.43-.16-3.64.66-4.04,1.28-8.09,1.91-12.13.46-3.01.87-6.37-.9-8.83-2.49-3.44-8.06-3.12-11.29-.35-3.2,2.76-4.54,7.08-5.44,11.21-.66,3.06-1.42,7.38-3.12,10.88h0c-.57,3.39-1.04,6.83-1.39,10.3-.36,3.55-.6,7.08-.74,10.69.44-.36.9-.79,1.39-1.31,1.72-1.78,5.19-9.29,8.31-5.6.79.93.82,2.43.05,3.42-.96,1.23-2.87,1.5-3.61,2.84-.9,1.59.36,3.55,1.83,4.59,1.48,1.07,3.28,1.72,4.32,3.23,2,2.87.08,7.22,2.02,10.14,1.67,2.51,5.22,2.68,8.25,3.01.36.05.68.11,1.04.16.85-6.01,3.66-10.91,11.86-12.76,11.31-2.57,26.18,6.81,32.55,15.33,7.11,9.54,10.47,23.04,21.35,27.82,7.79,3.42,18.86,2.19,22.66,9.81,3.39,6.83-2.51,14.51-3.42,22.08-.57,5,1.07,9.98,1.45,14.98.36,5.03-1.12,10.88-5.68,12.98-2.54,1.15-5.74,1.01-7.79,2.92-3.63,3.44-.66,10.55-4.29,13.99-1.28,1.2-3.06,1.64-4.62,2.43-8.17,4.13-7.95,16.15-4.15,24.49.14.3.27.57.41.87,12.08,7.24,25.09,13.04,38.84,17.14,15.74,4.78,32.44,7.32,49.74,7.32,29.27,0,56.87-7.3,81.03-20.17h.03c5.25-2.81,10.36-5.88,15.28-9.21,7.63-5.11,14.79-10.82,21.45-17.05,4.62-4.32,9.02-8.88,13.12-13.69,2.9-3.33,5.63-6.81,8.25-10.36,1.34-1.83,2.65-3.66,3.88-5.55,3.77-5.52,7.22-11.29,10.3-17.25,4.48-8.58,8.23-17.6,11.18-26.95,3.03-9.43,5.25-19.21,6.59-29.27.52-3.88.93-7.82,1.2-11.78-1.89,1.83-4.35,3.14-6.94,3.09-4.15-.05-7.57-3.53-9.24-7.35Z"/>
      <path class="cls-3" d="M307.79,45.19c-3.42,2.04-5.24,5.91-7.88,8.89-2.64,2.99-7.37,5.12-10.49,2.63-1.5-1.2-2.17-3.17-2.34-5.08-.24-2.74.42-5.56,1.86-7.91,1.49-2.42,3.76-4.33,5.02-6.88,1.26-2.55,1-6.28-1.58-7.48-1.4-.65-3.15-.39-4.39-1.31-2.23-1.64-.63-5.52,1.95-6.5,2.59-.98,5.46-.22,8.22-.04,10.01.64,17.37-5.92,24.9-11.36,5.85-4.23,18.32-9.24,25.09-4.91,2.7,1.73,3.76,6.16,1.21,8.11-1.14.87-2.71,1.07-3.77,2.03-1.27,1.16-1.45,3.06-2.18,4.62-1.89,4.05-7.36,5.52-9.12,9.64-1.06,2.48-.58,5.55-2.21,7.7-1.29,1.7-3.54,2.3-5.62,2.79-4.35,1.03-8.7,2.07-13.05,3.1-1.93.46-3.9.93-5.61,1.95Z"/>
      <path class="cls-3" d="M424.49,257.77c-4.33,6.53-5.12,14.68-6.32,22.42-1.2,7.74-3.27,15.96-9.21,21.06-5.95,5.1-16.87,4.79-20.14-2.32-1.78-3.86-.87-8.42-1.83-12.56-1.26-5.39-5.56-9.55-7.59-14.7-1.74-4.39-1.74-9.25-1.88-13.97-.77-25.81-7.07-52.74-24.64-71.66-2.16-2.32-4.61-4.59-7.67-5.4-3.65-.97-7.81.47-10.08,3.48-1.41,1.87-2.14,4.25-3.87,5.83-3.75,3.43-10.31.97-12.82-3.45-2.51-4.42-2.16-9.84-1.74-14.91.52-6.28,1.04-12.57,1.56-18.85.27-3.29.64-6.81,2.8-9.31,3.07-3.55,8.57-3.71,12.32-6.53,4.92-3.69,5.58-10.72,8.68-16.02,3.1-5.31,12.81-7.55,14.25-1.57,10.27-21.98,32.97,10.68,46.47,8.22,3.92-.71,7.75-2.6,11.69-2.04,6.97.97,10.56,8.65,12.94,15.28,3.93,11,7.87,21.99,11.81,32.98,1.5,4.19,3.44,8.84,7.58,10.45,3.18,1.23,6.87.29,10.08,1.46,8.47,3.08,5.72,16.41-1.1,22.31-6.82,5.9-16.38,9.62-19.62,18.03-2.44,6.34-.49,13.76-3.12,20.02-1.88,4.48-5.83,7.72-8.52,11.77Z"/>
      <path class="cls-3" d="M456.65,264.94c-2.78.39-6.07-.98-8.18.87-1.23,1.08-1.51,2.85-2,4.42-.68,2.17-1.99,4.23-3.94,5.39-1.96,1.16-4.62,1.26-6.44-.12-1.81-1.37-2.37-4.3-.88-6.03.68-.79,1.65-1.25,2.4-1.96,3.69-3.49,1.16-9.97,3.97-14.12,1.66-2.45,4.26-4.93,6.08-7.41,1.4-1.91,1.91-3.42,4.48-3.93,11.26-2.22,16.34,21.23,4.5,22.89Z"/>
      <g class="cls-11">
        <path class="cls-5" d="M252.9,316.11c1.45.98,2.92,1.94,4.41,2.87,1.04.66,2.08,1.28,3.14,1.91-1.07-.63-2.1-1.26-3.14-1.91-1.49-.93-2.96-1.89-4.41-2.87Z"/>
      </g>
      <g class="cls-11">
        <path class="cls-5" d="M176.52,165.49v-.03h0v.03c-.03.33-.05.63-.05.96-.04,1.02-.04,2.07-.05,3.12.02-1.04.01-2.09.05-3.12,0-.33.03-.63.05-.96Z"/>
      </g>
      <g>
        <path class="cls-3" d="M198.9,218.07c-.55-4.95,1.09-9.89,1.18-14.9.05-3.44-.19-7.08-.25-10.55-2.95-.14-5.9-.55-8.77-1.23-.6-.14-1.26-.33-1.61-.82-.38-.52-.33-1.2-.36-1.83-.22-3.88-3.96-6.45-7.32-8.39-1.72-1.01-3.47-2-5.33-2.62,0,.41,0,.79.03,1.2.68,19.21,4.51,37.66,10.99,54.8,2.95,7.82,6.48,15.39,10.55,22.63,1.69,3.14,3.55,6.23,5.49,9.26,2.4,3.74,4.92,7.41,7.62,10.93,2.51,3.39,5.19,6.7,8.01,9.87,3.85,4.4,7.93,8.58,12.22,12.57,3.8,3.55,7.76,6.91,11.89,10.11-9.43-25.31-18.31-51.14-34.44-72.67-4.24-5.63-9.1-11.37-9.89-18.37Z"/>
        <path class="cls-3" d="M200.13,185.93c-.35-.05-.68-.11-1.04-.16-3.03-.33-6.59-.49-8.25-3.01-1.94-2.92-.03-7.27-2.02-10.14-1.04-1.5-2.84-2.16-4.32-3.23-1.48-1.04-2.73-3.01-1.83-4.59.74-1.34,2.65-1.61,3.61-2.84.77-.98.74-2.49-.05-3.42-3.12-3.69-6.59,3.83-8.31,5.6-.49.52-.96.96-1.39,1.31v.03c-.03.33-.05.63-.05.96-.04,1.02-.04,2.07-.05,3.12-.02,1.04-.05,2.08-.05,3.12,0,.85-.01.8,0,1.65.01.84.05,2.57.08,3.41,1.86.63,3.61,1.61,5.33,2.62,3.36,1.94,7.11,4.51,7.32,8.39.03.63-.03,1.31.36,1.83.35.49,1.01.68,1.61.82,2.87.68,5.82,1.09,8.77,1.23"/>
        <path class="cls-3" d="M199.83,192.62c.05,3.47.3,7.11.25,10.55-.08,5-1.72,9.95-1.18,14.9.79,7,5.66,12.74,9.89,18.37,16.12,21.54,25.01,47.36,34.44,72.67h.03c1.75,1.39,3.53,2.71,5.33,3.99,1.42,1.02,2.86,2.03,4.31,3.01,1.45.98,2.92,1.94,4.41,2.87,1.04.66,2.08,1.28,3.14,1.91-.14-.3-.27-.57-.41-.87-3.8-8.34-4.02-20.36,4.15-24.49,1.56-.79,3.33-1.23,4.62-2.43,3.64-3.44.66-10.55,4.29-13.99,2.05-1.91,5.25-1.78,7.79-2.92,4.56-2.1,6.04-7.95,5.68-12.98-.38-5-2.02-9.98-1.45-14.98.9-7.57,6.81-15.25,3.42-22.08-3.8-7.63-14.87-6.4-22.66-9.81-10.88-4.78-14.24-18.28-21.35-27.82-6.37-8.53-21.24-17.9-32.55-15.33-8.2,1.86-11.01,6.75-11.86,12.76"/>
        <path class="cls-3" d="M187.2,122.39c3.23-2.76,8.8-3.09,11.29.35,1.78,2.46,1.37,5.82.9,8.83-.63,4.04-1.26,8.09-1.91,12.13-.19,1.2-.36,2.51.16,3.64,1.2,2.57,5.41,2.08,7.02-.22,1.64-2.32,1.45-5.44,1.01-8.23-.44-2.82-1.01-5.77.08-8.39,2.73-6.5,12.44-5.52,18.07-9.76,3.5-2.62,5.06-7.02,7.13-10.88,2.08-3.85,5.55-7.71,9.92-7.52,1.48.05,2.92.6,4.4.55,4.32-.14,6.83-6.45,3.77-9.51-.63-.66-1.48-1.18-1.91-1.97-.76-1.45.05-3.31,1.37-4.29,1.31-.96,2.98-1.23,4.59-1.48,3.69-.6,7.38-1.18,11.07-1.75,4.07-.63,9.29-2.73,8.72-6.81-.49-3.53-5.27-5.11-5.99-8.61-.19-.85-.08-1.78-.46-2.57-1.12-2.24-4.48-1.34-6.64-.14-.87-3.25-5.52-4.73-8.12-2.6-2.19,1.8-2.46,4.97-3.22,7.68-1.8,6.56-7.02,11.53-12,16.15-1.67,1.53-3.55,3.17-5.82,3.28-2.27.11-4.65-2.32-3.61-4.32.71-1.37,2.68-2.16,2.49-3.69-.27-1.91-3.61-1.78-4.26-3.61,1.31-5.41,7.52-7.65,12.27-10.55,5.77-3.5,10.3-9.02,12.54-15.41.38-1.01.68-2.21.16-3.17-.71-1.37-2.54-1.58-4.1-1.58-3.66-.05-8.23.44-9.57,3.85-.71,1.83-.19,3.91-.63,5.82-1.28,5.68-9.07,6.31-13.83,9.7-1.86,1.31-3.31,3.14-5.36,4.15-2.21,1.07-4.81.98-7.27,1.18-.44.03-.87.08-1.31.14-1.5,2.09-2.95,4.22-4.35,6.39-1.4,2.17-2.74,4.37-4.04,6.59-6.12,10.47-11.15,21.65-14.98,33.4-1.34,4.09-2.52,8.24-3.55,12.46-1.02,4.22-1.89,8.49-2.6,12.82,1.69-3.5,2.46-7.82,3.12-10.88.9-4.13,2.24-8.44,5.44-11.21Z"/>
        <path class="cls-3" d="M521.35,184.04s-4.35,3.17-6.94,3.12c-4.15-.05-7.57-3.53-9.24-7.35-1.69-3.83-2.08-8.06-3.2-12.08-.6-2.16-1.61-4.46-3.63-5.41-1.34-.63-2.92-.55-4.35-.98-5.11-1.53-6.5-8.66-11.34-10.88-1.53-.68-3.23-.82-4.86-1.01-6.48-.76-13.17-3.01-17.25-8.09-1.34-1.64-2.35-3.58-3.99-4.92-1.67-1.34-4.24-1.91-5.85-.55,1.37,2.73,2.71,5.47,4.05,8.17,1.23,2.46,2.49,5,4.54,6.81,2.08,1.83,5.14,2.79,7.63,1.64.82-.38,1.64-1.01,2.57-.9.66.08,1.23.55,1.67,1.07,3.53,3.91,2.38,10.39-1.07,14.38-3.42,3.96-8.5,6.04-13.39,7.98-1.75.68-3.61,1.39-5.47,1.07-3.39-.63-5.19-4.32-6.18-7.62-2.21-7.32-3.28-15.28-7.82-21.45-1.45-1.94-3.25-3.72-4.13-5.99-.93-2.46-.71-5.33-2.19-7.49-1.53-2.27-4.78-3.58-5-6.31-.14-1.91,1.45-3.61,3.2-4.43,1.75-.85,3.72-1.09,5.52-1.83.71-.3,1.5-.82,1.53-1.59,0-1.15-1.59-1.61-2-2.68-.44-1.2.79-2.32,1.31-3.5,1.12-2.68-1.67-5.38-4.37-6.48-2.68-1.09-5.93-1.89-7.19-4.51-.57-1.2-.63-2.6-.87-3.91-.63-3.31-3.06-6.5-6.4-7.05-3.36-.55-7.08,2.43-6.53,5.77.33,1.83,1.69,3.25,2.43,4.95.77,1.69.55,4.21-1.2,4.76-2.87.87-5.63-4.37-8.03-2.57.98,3.36,1.94,6.72,2.92,10.11-3.77,1.91-8.28-1.56-9.89-5.49-1.61-3.91-1.67-8.39-3.58-12.16-1.91-3.8-7.08-6.61-10.36-3.94-.16,4.86,6.26,6.83,9.1,10.77,2.05,2.84,1.75,7.46-1.28,9.26-3.01,1.8-7.79-1.34-6.64-4.65.41-1.15,1.37-2.1,1.48-3.33.11-1.53-1.18-2.76-2.35-3.74-1.83-1.56-3.66-3.09-5.49-4.62-1.18-.98-2.43-2.02-3.91-2.46-3.77-1.09-7.54,1.97-9.54,5.33-2,3.39-3.12,7.35-5.88,10.17-3.96,4.1-11.48,4.35-15.2.05-3.74-4.29-1.83-12.33,3.66-13.88,2.08-.57,4.7-.52,5.79-2.35,1.91-3.25-3.55-7.41-1.67-10.69,1.45-2.51,5.27-1.37,8.06-2.21,2.76-.85,4.32-3.63,5.96-6.04,1.61-2.38,4.15-4.78,7-4.15-.22-1.67-.44-3.47.3-4.97.74-1.53,2.81-2.51,4.18-1.53-1.39,2.3.27,5.49,2.71,6.64,2.43,1.15,5.27.88,7.95.57,2.68-.33,6.04-1.31,6.26-3.99.08-.87-.25-1.8.08-2.62,1.17-3.2,7.08,1.2,9.35-1.37,1.31-1.34-.14-3.72-1.97-4.15-1.8-.46-3.69.22-5.55.27-1.86.08-4.13-.9-4.21-2.76-.08-1.83,1.97-3.14,2.19-4.95.36-3.06-4.84-3.85-6.67-1.37-1.8,2.49-1.18,5.9-.63,8.94.57,3.03.85,6.61-1.39,8.75-.96,1.45-3.44.68-4.26-.85-.85-1.53-.66-3.39-.79-5.11-.14-1.75-.9-3.72-2.6-4.18-1.18-.33-2.43.25-3.63.41-4.76.57-8.06-5.57-6.56-10.11,1.48-4.56,5.79-7.49,9.98-9.81,3.06-1.69,6.86-3.28,9.89-1.56,1.42.79,2.41,2.16,3.8,2.98,2.4,1.42,5.38.9,8.14.96,4.35.11,8.64,1.78,11.89,4.62,1.23,1.12,2.38,2.98,1.42,4.32-1.04,1.42-4.02,1.72-3.5,3.39,3.22,1.07,7.08-1.42,7.43-4.78,1.58.71,2.73,2.32,2.87,4.04,3.47-3.53,10.14-3.01,12.98,1.07.77,1.07,1.31,2.35,2.4,3.09,1.09.71,3.01.35,3.14-.93.05-.41-.08-.82-.22-1.2-.66-1.86-1.34-3.69-1.99-5.52,2.54-1.37,5.55.77,7.27,3.06,6.4,8.55,10.96,3.42,19.98,4.81,6.09.93,8.77,4.84,12.22,9.57,10.55,14.54,24.49,26.46,34.08,41.65,1.01,1.59,1.94,3.2,2.81,4.84t0,0v.03c.82,2.19,1.59,4.39,2.32,6.6.73,2.22,1.41,4.45,2.05,6.71,1.66,5.86,3.12,10.87,4.14,16.95,0,0,1.2,9.77,1.49,12.95.22,2.43.44,4.87.57,7.32.13,2.45.21,4.92.22,7.41l-.3,13.75Z"/>
      </g>
    </g>
    <path class="cls-14" d="M97.75,142.5c.66-4.83-6.15-8.81-11.28-9.22-2.44-.2-4.98.18-7.3-.63-5.01-1.75-7.02-8.23-11.91-10.29-3.66-1.54-7.87-.17-11.42,1.62-3.55,1.78-7.05,4.03-11.01,4.28-3.45.22-7.19-1.06-10.2.63-2.25,1.25-3.42,3.84-5.5,5.37-2.03,1.49-4.67,1.81-7.18,1.95-2.51.14-5.12.16-7.41,1.21-2.29,1.05-4.18,3.47-3.71,5.94l86.91-.86Z"/>
    <path class="cls-3" d="M200.07,45.61c.66-4.83-6.15-8.81-11.28-9.22-2.44-.2-4.98.18-7.3-.63-5.01-1.75-7.02-8.23-11.91-10.29-3.66-1.54-7.87-.17-11.42,1.62s-7.05,4.03-11.01,4.28c-3.45.22-7.19-1.06-10.2.63-2.25,1.25-3.42,3.84-5.5,5.37-2.03,1.49-4.67,1.81-7.18,1.95-2.51.14-5.12.16-7.41,1.21-2.29,1.05-4.18,3.47-3.71,5.94l86.91-.86Z"/>
    <path class="cls-14" d="M682.35,120.24c1.07-7.76-9.89-14.15-18.12-14.81-3.93-.32-8,.28-11.72-1.01-8.06-2.81-11.28-13.22-19.14-16.54-5.88-2.48-12.65-.27-18.35,2.6-5.7,2.87-11.33,6.48-17.7,6.89-5.54.35-11.55-1.7-16.4,1.01-3.61,2.02-5.5,6.18-8.83,8.63-3.26,2.4-7.5,2.91-11.54,3.13-4.04.22-8.22.26-11.9,1.94-3.68,1.68-6.72,5.57-5.96,9.55l139.66-1.38Z"/>
    <path class="cls-3" d="M578.87,45.39c.12-2.68-.76-5.36-2.21-7.62-1.42-2.22-3.44-4.11-5.89-5.07-2.6-1.02-5.63-.92-8.15.28-1.5.71-2.82,1.81-3.82,3.13-.55-1.41-1.39-2.7-2.49-3.74-2.02-1.93-4.86-2.97-7.65-2.82-2.63.15-5.13,1.31-7.18,2.97-2.08,1.69-3.76,3.96-4.48,6.55-.91,3.24-.85,6.96.41,10.08,1.33,3.3,3.86,6.2,6.57,8.49,4.57,3.86,10.61,8.74,10.61,8.74,0,0,6.3-3.3,11.84-5.54,3.3-1.33,6.61-3.29,8.9-6,2.17-2.57,3.39-6.08,3.54-9.45Z"/>
    <path class="cls-3" d="M127,83.46c-1.09-1.75-2.81-3.07-4.71-3.87-1.86-.79-3.96-1.11-5.93-.66-2.09.48-3.96,1.86-5.04,3.72-.64,1.1-1,2.37-1.06,3.64-.96-.66-2.05-1.11-3.2-1.29-2.12-.34-4.37.23-6.07,1.53-1.6,1.23-2.68,3.06-3.26,5-.59,1.98-.66,4.14,0,6.09.83,2.45,2.48,4.78,4.63,6.21,2.27,1.51,5.13,2.25,7.85,2.53,4.57.46,10.51.93,10.51.93,0,0,2.56-4.83,5.1-8.65,1.51-2.27,2.76-4.95,3.03-7.67.26-2.57-.49-5.33-1.86-7.52Z"/>
  </g>
  <g id="Table">
    <path class="cls-5" d="M688.31,449.49c0,.14-154.1.26-344.14.26s-344.17-.12-344.17-.26,154.06-.26,344.17-.26,344.14.12,344.14.26Z"/>
  </g>
  <g id="Speech_Bubble">
    <g>
      <g>
        <path class="cls-9" d="M366.6,103.21c6.63-1.22,12.96-4.4,18.06-9.55,13.3-13.42,13.21-35.08-.2-48.38-13.42-13.3-35.08-13.21-48.38.2-13.3,13.42-13.21,35.08.2,48.38,5.65,5.6,12.76,8.82,20.09,9.68l5.89,8.94,4.34-9.27Z"/>
        <path class="cls-5" d="M366.6,103.21s-.08.23-.26.64c-.2.44-.46,1.04-.8,1.81-.73,1.61-1.78,3.92-3.14,6.89l-.11.25-.15-.23c-1.63-2.44-3.64-5.45-5.94-8.9l.15.09c-5.04-.56-10.92-2.39-16.31-6.33-1.34-.98-2.66-2.07-3.9-3.3-1.17-1.3-2.46-2.55-3.49-4.06-2.17-2.93-4.06-6.32-5.2-10.11-2.38-7.52-2.22-16.55,1.49-24.68,3.64-8.1,10.85-15.11,19.94-18.28,3.71-1.31,7.59-1.96,11.43-2,3.84,0,7.6.67,11.11,1.85,3.52,1.17,6.8,2.88,9.62,5.06,2.84,2.15,5.36,4.63,7.3,7.43l.76,1.02c.23.35.44.72.65,1.08.42.73.88,1.43,1.26,2.17.7,1.5,1.44,2.97,1.92,4.52.6,1.5.89,3.07,1.29,4.59.14.77.23,1.54.35,2.3l.16,1.14.06,1.14c.28,3.02-.09,5.95-.51,8.72-.62,2.74-1.36,5.34-2.47,7.66-2.11,4.7-5.12,8.36-8.06,11.17-3.01,2.76-6.07,4.57-8.66,5.78-2.61,1.2-4.75,1.81-6.22,2.16-.74.17-1.29.28-1.67.34-.38.06-.58.09-.59.08,0,0,.18-.06.55-.15.38-.08.94-.22,1.66-.42,1.45-.39,3.57-1.05,6.13-2.27,2.55-1.24,5.55-3.07,8.5-5.83,2.88-2.8,5.81-6.43,7.86-11.08,1.09-2.29,1.8-4.86,2.39-7.56.4-2.73.75-5.6.46-8.57l-.06-1.12-.17-1.12c-.12-.75-.21-1.5-.35-2.26-.39-1.48-.68-3.02-1.28-4.5-.47-1.52-1.2-2.95-1.89-4.42-.37-.72-.83-1.41-1.24-2.12-.21-.35-.42-.71-.64-1.06l-.75-1c-1.92-2.74-4.39-5.17-7.18-7.27-2.77-2.13-5.98-3.81-9.43-4.94-3.44-1.15-7.13-1.79-10.88-1.8-3.75.03-7.55.68-11.18,1.96-8.9,3.1-15.96,9.95-19.54,17.88-3.65,7.95-3.83,16.8-1.52,24.19,1.11,3.73,2.95,7.06,5.07,9.95,1.01,1.5,2.27,2.73,3.41,4.01,1.22,1.21,2.51,2.29,3.82,3.26,5.28,3.9,11.05,5.75,16.03,6.35h.1s.05.09.05.09c2.27,3.48,4.24,6.51,5.84,8.97l-.26.02c1.43-2.97,2.53-5.27,3.3-6.87.37-.75.65-1.33.86-1.76.2-.39.3-.59.31-.57Z"/>
      </g>
      <path class="cls-1" d="M373.93,65.89c-.13-1.71-.89-3.34-1.98-4.67-1.07-1.3-2.49-2.35-4.11-2.77-1.73-.45-3.64-.16-5.15.79-.9.57-1.65,1.36-2.18,2.28-.45-.85-1.09-1.61-1.86-2.19-1.43-1.07-3.31-1.52-5.07-1.21-1.66.29-3.16,1.22-4.33,2.43-1.19,1.23-2.08,2.79-2.35,4.49-.33,2.12-.01,4.48,1.02,6.36,1.09,1.99,2.91,3.64,4.81,4.89,3.19,2.1,7.39,4.74,7.39,4.74,0,0,3.75-2.57,7.09-4.4,1.99-1.09,3.94-2.58,5.19-4.48,1.18-1.8,1.69-4.11,1.53-6.26Z"/>
    </g>
  </g>
  <g id="Characters">
    <g>
      <polygon class="cls-5" points="199.01 449.37 204.61 408.15 324.2 402.44 332.61 449.49 199.01 449.37"/>
      <path class="cls-4" d="M311.05,278.37l35.88,39.81c5.92,6.57,10.19,12.55,18.71,14.95,5.96,1.68,18.52,2.38,21.69-1.54,4.35-5.37,7.05-14.66.96-26.35-3.96-7.61-38.77-38.68-38.77-38.68l-38.46,11.8"/>
      <path class="cls-1" d="M322.87,285.02c.2,1.97,9.59,21.54,9.59,21.54l30.8-20.09s-19.83-47.1-34.31-50.27l-6.08,48.82Z"/>
      <g>
        <g>
          <path class="cls-4" d="M375.61,230.12l.44-14.97-1-19.06-3.03-15.85s-.8-1.56-2.8-.38c-2,1.18-.27,9.83-.27,9.83l.31,6.51s-1.17,5.02-1.55,4.6c-.38-.42-1.63-9.2-1.63-9.2l-3.63-18.86s-.86-2.03-3.18-1.3c-1.29.41-2.13,2.28-1.97,5.07.16,2.8,1.38,7.51,1.51,9.1.13,1.59,1.17,10.76,1.17,10.76l-6.37-21.09s-1.18-6.86-4.04-5.88c-2.86.99-.95,5.91-.82,8.04.13,2.13,4.27,16.49,3.92,20.49-.35,4-.98,2-.98,2,0,0-1.66-6.61-2.96-11.82-1.31-5.21-3.28-8.23-5.53-8.61-2.26-.38.77,11.69.77,11.69l3.82,16.87-.95,5.37-3.76-4.83s-.11-6.33-4.07-8.97c-4.02-2.68-4.98.33-4.98.33l7.38,24.51c1.74,4.01,13.04,11.8,13.04,11.8l2.02,24.57,25.11-.5-5.97-30.2Z"/>
          <path class="cls-15" d="M366.8,221.27c-.13.12-1.31-1.08-3.35-2.81-2.01-1.66-5.19-3.98-9.18-3.8-1.76.06-3.4.66-4.54,1.65l-.42.36-.36-.48c-1.61-2.12-3.34-3.97-4.36-5.31-1.08-1.33-1.61-2.23-1.49-2.3.09-.05.76.66,1.97,1.87,1.19,1.26,2.9,2.84,4.77,5.19l-.78-.12c1.3-1.2,3.21-1.91,5.18-1.98,2.18-.1,4.24.52,5.86,1.41,1.64.88,2.9,1.96,3.89,2.91,1.96,1.93,2.92,3.31,2.83,3.4Z"/>
        </g>
        <polygon class="cls-4" points="360.29 315.68 354.97 239.21 376.23 232.55 391.66 315.68 360.29 315.68"/>
      </g>
      <g>
        <path class="cls-5" d="M314.24,140.97c4.15.72,8.62-2.1,9.75-6.16,1.13-4.06-1.23-8.79-5.15-10.32,2.75-2.51,3.66-6.85,2.14-10.25-1.52-3.41-5.34-5.63-9.06-5.26.06-3.68-1.93-7.33-5.06-9.27-3.13-1.94-7.28-2.11-10.55-.42-3.86-3.72-10.39-4.23-14.78-1.15-3.53-.87-7.53.81-9.39,3.93-1.86,3.12-1.43,7.44,1.01,10.13"/>
        <g>
          <g>
            <path class="cls-4" d="M315.32,188.91c.67-9.44.48-28.98.1-46.66-.41-19.01-15.35-34.51-34.33-35.63l-1.89-.11c-20.41-.01-31.82,17.32-31.27,37.72l-3.14,78.57,12.33,11.13c11.23,10.15,29.01,7.03,36.12-6.33h0l.95-17.27s19.73-1.89,21.13-21.42Z"/>
            <path class="cls-15" d="M294.35,210.31s-12.53.01-25.17-9.01c0,0,5.19,14.42,24.8,13.81l.37-4.81Z"/>
            <path class="cls-5" d="M306.77,158.74c-.03,1.48-1.31,2.67-2.86,2.66-1.54,0-2.76-1.21-2.73-2.69.03-1.48,1.31-2.67,2.85-2.66,1.54,0,2.77,1.21,2.73,2.69Z"/>
            <path class="cls-5" d="M310.65,151.57c-.37.34-2.39-1.35-5.39-1.52-3-.21-5.29,1.2-5.6.82-.15-.17.24-.81,1.24-1.45.99-.64,2.64-1.22,4.51-1.1,1.87.12,3.4.9,4.27,1.66.88.76,1.16,1.44.98,1.59Z"/>
            <path class="cls-5" d="M279.2,158.74c-.03,1.48-1.31,2.67-2.86,2.66-1.54,0-2.76-1.21-2.73-2.69.03-1.48,1.31-2.67,2.86-2.66,1.54,0,2.77,1.21,2.73,2.69Z"/>
            <path class="cls-5" d="M281.09,150.39c-.37.34-2.39-1.35-5.4-1.51-3-.21-5.29,1.2-5.6.82-.15-.17.24-.81,1.24-1.45.99-.64,2.64-1.22,4.51-1.1,1.87.12,3.4.9,4.27,1.66.88.76,1.16,1.44.98,1.59Z"/>
            <path class="cls-5" d="M290.67,173.31c0-.17,1.88-.38,4.93-.59.77-.03,1.51-.14,1.67-.66.21-.54-.06-1.39-.38-2.3-.61-1.9-1.25-3.89-1.92-5.98-2.66-8.5-4.54-15.48-4.19-15.58.34-.1,2.78,6.7,5.44,15.21.64,2.1,1.25,4.09,1.83,6,.24.89.68,1.91.22,3.03-.24.56-.83.94-1.33,1.05-.5.12-.93.1-1.31.1-3.05-.02-4.94-.11-4.95-.28Z"/>
            <path class="cls-5" d="M281.71,174.87c.49,0,.3,3.26,2.96,5.74,2.65,2.49,6.15,2.33,6.15,2.78.03.21-.81.59-2.28.54-1.44-.04-3.52-.62-5.14-2.14-1.62-1.52-2.24-3.46-2.27-4.8-.04-1.37.37-2.16.59-2.12Z"/>
            <path class="cls-5" d="M282.56,138.66c-.34.8-3.32.24-6.87.45-3.55.15-6.46,1.01-6.88.25-.19-.36.35-1.1,1.55-1.83,1.19-.72,3.05-1.37,5.18-1.48,2.13-.11,4.05.34,5.3.94,1.26.6,1.88,1.28,1.73,1.66Z"/>
            <path class="cls-5" d="M310.06,142.81c-.57.65-2.6-.18-5.08-.36-2.48-.27-4.62.19-5.07-.55-.19-.36.18-1.02,1.14-1.61.94-.59,2.49-1.03,4.2-.87,1.71.16,3.15.86,3.98,1.61.84.75,1.09,1.47.83,1.79Z"/>
            <path class="cls-5" d="M314.06,133.18s-4.43-12.55-10.17-15.75c-6.94-3.88-10.48,3.78-17.18,1.48-6.7-2.31-13.33-6.03-20.6-1.17-7.96,5.31-4.63,9.57-5.61,18.21-3.98,35.05-10.99,44.62-11.84,27.95-.09-1.83-5.04-3.57-5.34-11.28-.38-10-.05-22.09,2.58-29.02,2.22-5.84,5.85-9.75,12.2-13.92,10.02-6.58,23.21-5.96,32.11-4.53,8.9,1.43,25.55,12.75,23.83,28.03Z"/>
            <path class="cls-4" d="M249.95,163.43c.05-3.02-2.4-5.56-5.43-5.45-3.67.13-7.85,1.96-8.05,9.51-.36,13.39,13.16,10.99,13.19,10.61.02-.26.19-9.06.29-14.67Z"/>
            <path class="cls-15" d="M246.88,172.98c-.06-.04-.24.16-.64.33-.39.17-1.05.27-1.74-.01-1.4-.56-2.53-2.84-2.53-5.25,0-1.22.29-2.37.74-3.32.44-.97,1.09-1.64,1.8-1.74.71-.15,1.21.29,1.36.68.17.38.08.64.15.67.04.03.29-.22.2-.77-.05-.27-.2-.59-.5-.85-.31-.27-.78-.42-1.28-.38-1.03.04-1.99.97-2.49,2.01-.56,1.05-.91,2.34-.91,3.71.01,2.7,1.33,5.26,3.25,5.87.94.27,1.73,0,2.14-.3.42-.32.5-.62.46-.64Z"/>
          </g>
          <path class="cls-5" d="M251.73,137.55c1.67,1.29,3.43,2.62,5.51,2.95,2.08.33,4.54-.73,5.02-2.78.21-.92.05-2.01.7-2.7.78-.81,2.11-.47,3.22-.28,3.86.64,8-1.87,9.22-5.59.9,1.54,3.22,1.61,4.78.74,1.56-.88,2.62-2.4,3.87-3.68,1.25-1.27,2.97-2.38,4.72-2.02.98.2,1.87.84,2.87.81,1.76-.05,2.74-2.06,3.11-3.78.37-1.73.69-3.75,2.24-4.61,1.43-.8,3.18-.18,4.79.15,1.6.33,3.71.08,4.22-1.48.27-.82-.04-1.71-.45-2.46-1.89-3.4-6.34-5.12-10.02-3.88-1.05-4.49-4.97-8.17-9.53-8.93-4.55-.75-9.46,1.47-11.89,5.38-2.67-2.73-6.71-4.05-10.48-3.42-3.77.63-7.16,3.19-8.81,6.64-3.2-1.05-6.98,0-9.2,2.53-2.22,2.54-2.74,6.42-1.27,9.45-2.48,1.23-4.68,3.5-4.89,6.26-.21,2.76,2.32,5.68,5.03,5.11-1.21,2.09-.5,5.07,1.52,6.39,2.02,1.33,5.03.8,6.47-1.14"/>
          <path class="cls-16" d="M296.27,112.93s0,.08-.02.24c-.03.16-.05.4-.13.71-.16.61-.46,1.51-1.12,2.52-.66.99-1.67,2.13-3.15,2.99-1.45.87-3.41,1.48-5.57,1.24l.24-.28c.35,1.17.15,2.53-.49,3.67-.61,1.16-1.52,2.17-2.48,3.15-.49.47-.92,1.03-1.59,1.45-.64.4-1.4.61-2.16.66-1.52.1-3.19-.46-4.21-1.8l.51-.11c-.5,2.64-2.16,5.21-4.66,6.69-1.32.84-2.93,1.31-4.47,1.18-1.55-.11-2.96-.65-4.27-1.2l.37-.14c-.82,1.62-2,2.97-3.41,3.94-1.38.97-3.17,1.48-4.73.99-3.12-.85-5.05-3.6-5.33-6.1l.29.16c-1.62.76-3.3.74-4.63.4-1.35-.33-2.39-.99-3.12-1.62-.73-.64-1.15-1.28-1.4-1.72-.22-.46-.31-.71-.3-.71.07-.05.38,1.04,1.84,2.26.73.58,1.75,1.19,3.05,1.47,1.28.3,2.88.28,4.38-.46l.26-.13.04.29c.29,2.33,2.16,4.9,5.05,5.65,1.42.42,2.99-.04,4.3-.95,1.31-.91,2.44-2.22,3.2-3.74l.12-.24.25.1c1.29.55,2.65,1.05,4.08,1.15,1.43.12,2.87-.3,4.13-1.1,2.36-1.4,3.92-3.8,4.41-6.3l.12-.63.39.51c.86,1.14,2.35,1.68,3.72,1.58.68-.04,1.36-.23,1.92-.57.55-.33,1-.88,1.5-1.35.96-.96,1.84-1.93,2.42-3.01.61-1.07.78-2.27.49-3.32l-.09-.33.33.04c2.03.26,3.91-.29,5.33-1.1,1.44-.8,2.44-1.87,3.12-2.82,1.34-1.95,1.38-3.37,1.47-3.33Z"/>
        </g>
      </g>
      <g>
        <path class="cls-1" d="M325.15,304.52l1.41-14.24,4.91-52.2c-2.52-2.66-12.68-6.83-12.68-6.83l-25.23-9.07s-2.42,6.92-21.36,7.2c-19.38.29-27.41-11.84-27.41-11.84-9.68,3.12-30.83,11.14-30.83,11.14l-7.21,67.92-.37,22.42-4.46,114.18s126.99-5.39,128.9-5.72l-5.14-41.12-.52-81.85Z"/>
        <polygon class="cls-2" points="288.7 271 288.7 297.73 303.24 309.59 318.4 297.83 319.24 271.75 288.7 271"/>
      </g>
      <path class="cls-12" d="M204.59,364.8l-.37,9.49s80.22-14.54,94.24-20.19c17.3-6.97,26.59-12.88,26.59-12.88l.29-7.24-120.75,30.82Z"/>
      <path class="cls-4" d="M210.16,234.4s-18.09,2.89-21.82,25.95c-2.4,14.87-9.67,80.37.27,97.97,11.5,20.36,115.36-13.8,115.36-13.8l3.55-26.36-80.03,5.29-10.05-55.55-7.28-33.51Z"/>
      <path class="cls-1" d="M181.16,311.85h50.72l-13.88-84.59s-29.07,5.89-32.88,36.26c-3.84,30.64-3.97,48.33-3.97,48.33Z"/>
      <path class="cls-5" d="M187.53,311.85s.08-.02.23-.03c.18,0,.4-.02.67-.03.63-.01,1.48-.03,2.56-.05,2.27-.02,5.49-.05,9.45-.08,8.04-.02,19.1-.05,31.43-.08l-.26.28c-.06-.66-.12-1.36-.18-2.08-1.06-12.76-2.03-24.31-2.73-32.72-.32-4.15-.58-7.53-.77-9.92-.08-1.14-.14-2.04-.18-2.7-.01-.28-.03-.51-.03-.7,0-.16,0-.24,0-.24,0,0,.02.08.05.24.02.19.05.42.09.7.07.66.16,1.56.28,2.69.22,2.38.54,5.76.93,9.91.74,8.41,1.76,19.95,2.88,32.7.06.71.12,1.42.18,2.08l.02.28h-.28c-12.33-.03-23.39-.06-31.43-.08-3.96-.03-7.18-.06-9.45-.08-1.08-.02-1.93-.04-2.56-.05-.27-.01-.49-.02-.67-.03-.15,0-.23-.02-.23-.03Z"/>
      <path class="cls-5" d="M328.95,260.46s.04.62.02,1.73c-.01,1.11-.08,2.72-.18,4.7-.21,3.97-.62,9.44-1.19,15.48-.57,6.04-1.17,11.49-1.65,15.44-.24,1.97-.45,3.57-.6,4.67-.16,1.1-.26,1.71-.3,1.7-.04,0,0-.62.1-1.72.11-1.19.26-2.77.44-4.68.39-4.03.92-9.45,1.5-15.44.57-6.03,1.04-11.49,1.34-15.45.14-1.91.26-3.49.34-4.69.08-1.11.14-1.72.18-1.72Z"/>
      <path class="cls-5" d="M232.66,251.25s-.23-.32-.57-.94c-.39-.72-.86-1.6-1.41-2.64-1.2-2.2-2.89-5.28-5.45-8.13-2.56-2.84-5.62-4.64-8-5.37-2.39-.76-3.99-.64-3.98-.75,0-.03.39-.08,1.1-.07.71,0,1.75.13,2.98.47,2.47.66,5.66,2.46,8.28,5.37,2.61,2.91,4.26,6.05,5.39,8.31.56,1.14.98,2.07,1.27,2.72.28.65.42,1.02.39,1.03Z"/>
      <path class="cls-12" d="M226.08,315.68c-.09-.5,8.77-2.66,8.77-2.66l-6.48-42.02,3.5,40.85h-6.48l.69,3.82Z"/>
    </g>
    <g>
      <path class="cls-10" d="M358.92,319.48l-1.57,21.59-7.17,9.03-17.55,23.29,21.26,1.39s24.94-6.2,28.61-13.88,3.88-41.42,3.88-41.42h-27.46Z"/>
      <g>
        <path class="cls-10" d="M463.97,247.57l1.2-83.99c.77-19.98-9.16-37.28-29.16-37.5l-1.85.09c-18.6.88-33.43,15.89-34.04,34.51-.57,17.33-.98,36.49-.43,45.75,1.15,19.16,20.46,21.23,20.46,21.23.03.59-.02,5.36-.1,11.07l.03,9.52,43.9-.67Z"/>
        <path class="cls-7" d="M420.09,227.65s12.12.13,24.61-8.56c0,0-5.42,14.29-24.63,13.47l.03-4.91Z"/>
        <path class="cls-5" d="M431.41,170.48c.42.12,2.35-1.28,5.47-2.01,3.11-.75,5.65-.41,5.93-.69.14-.13-.34-.42-1.45-.58-1.1-.17-2.88-.16-4.82.3-1.94.46-3.46,1.23-4.28,1.85-.84.63-1.05,1.08-.85,1.13Z"/>
        <path class="cls-5" d="M434.5,176.41c.02,1.37,1.19,2.48,2.62,2.49,1.43,0,2.57-1.09,2.56-2.46-.02-1.37-1.19-2.49-2.62-2.5-1.43,0-2.58,1.09-2.56,2.46Z"/>
        <path class="cls-5" d="M423.49,191.4c0-.17-1.84-.4-4.83-.64-.76-.04-1.47-.16-1.63-.66-.2-.54.07-1.36.4-2.25.62-1.85,1.27-3.8,1.95-5.83,2.7-8.3,4.62-15.11,4.28-15.22-.34-.11-2.8,6.54-5.5,14.84-.65,2.05-1.27,4-1.86,5.86-.24.87-.69,1.86-.25,2.97.23.55.8.93,1.29,1.04.49.12.91.11,1.29.12,2.99.02,4.85-.06,4.85-.22Z"/>
        <path class="cls-5" d="M433.75,157.32c.29.72,2.87.25,5.93.48,3.07.17,5.57.98,5.95.3.17-.32-.3-.99-1.32-1.65-1.02-.66-2.62-1.26-4.46-1.38-1.84-.12-3.5.26-4.59.78-1.1.52-1.63,1.12-1.51,1.46Z"/>
        <path class="cls-5" d="M403.19,162.48c.32.59,2.84,0,5.87,0,3.03-.07,5.53.44,5.87-.16.15-.28-.34-.82-1.38-1.3-1.03-.49-2.64-.88-4.46-.85-1.82.03-3.43.47-4.48.98-1.06.52-1.55,1.06-1.41,1.34Z"/>
        <path class="cls-10" d="M464.26,178.11c.34-.16,13.75-4.39,13.6,9.39-.15,13.78-13.95,10.79-13.97,10.39-.02-.4.36-19.78.36-19.78Z"/>
        <path class="cls-7" d="M468.16,192.72c.06-.04.24.17.64.36.39.19,1.07.32,1.79.06,1.46-.52,2.71-2.82,2.8-5.3.05-1.25-.2-2.45-.64-3.44-.41-1.01-1.05-1.72-1.79-1.86-.73-.18-1.25.26-1.42.64-.19.38-.1.66-.18.68-.04.03-.29-.23-.18-.8.06-.27.22-.6.55-.86.33-.26.82-.4,1.33-.34,1.06.08,2.01,1.07,2.48,2.16.54,1.1.85,2.44.79,3.85-.12,2.78-1.57,5.36-3.56,5.91-.97.24-1.78-.06-2.19-.39-.42-.34-.49-.65-.44-.68Z"/>
        <path class="cls-5" d="M403.45,169.04c.3.31,2.66.16,5.71,1.16,3.05.97,5.06,2.55,5.44,2.45.19-.04-.08-.51-.95-1.21-.86-.69-2.4-1.59-4.29-2.21-1.9-.61-3.59-.76-4.61-.68-1.04.08-1.45.34-1.3.48Z"/>
        <path class="cls-5" d="M407.12,176.08c.02,1.37,1.19,2.48,2.62,2.49,1.43,0,2.57-1.09,2.56-2.46-.02-1.37-1.19-2.49-2.62-2.5-1.43,0-2.58,1.09-2.56,2.46Z"/>
        <path class="cls-5" d="M374.65,142.86c.23-.76.8-1.38,1.5-1.77,1.52-.85,3.24-.68,4.91-.67,4.15.04,8.29-.92,12.03-2.7-1.27-.69-2.46-1.51-3.45-2.56-2.06-2.16-3.19-5.42-2.15-8.21.19-.52.52-1.07,1.06-1.22.86-.24,1.58.61,2.15,1.29,1.89,2.22,3.66,3.2,6.57,2.98,1.81-.14,3.56-.5,5-1.34.06-.06.11-.12.17-.18.7-.68,1.38-1.34,2.05-1.97,0,0,0,0,0,0h0c5.04-4.75,9.35-8.02,13.75-9.66,6.44-2.41,17.14-3.18,23.75-1.26,6.61,1.91,12.44,7.46,13.19,14.3,3.81-3.06,9.41-2.89,13.91-.95l.12-.05c5.01,1.93,7.75,7.35,9.11,12.55.07.28.14.57.21.86,1.64,2.76,3.91,5.14,6.64,6.82.48.3,1.03.66,1.08,1.22.05.56-.44,1.01-.9,1.32-1.24.84-2.66,1.37-4.14,1.6.43,1.24.94,2.44,1.59,3.6.55.98,1.2,2.16.67,3.15-.41.77-1.4,1.06-2.26.92-.86-.15-1.61-.64-2.33-1.13.53,1.37,1.06,2.73,1.59,4.1-1.84.27-3.73.08-5.49-.51-1.2,4.8-2.57,10.92-3.89,14.16-2.12-.06-4.1-.61-5.44.53-1.81,1.55-2.68,4.53-5.6,3.31-1.48-.62-2.77-3.8-3.23-5.34-3.07-10.22-3.9-21.1-2.43-31.66-2.04-2.29-4.52-4.18-7.27-5.53l.22.21c-5.29-1.99-11.29-3.97-16.42-1.59-3.98,1.85-6.4,5.87-9.42,9.05-5.73,6.03-12.58,9.17-20.89,9.32-.9,5.75-.46,13.08-.88,18.46l-4.75-8.81v.04c-.36-.64-.65-1.28-.93-1.93l-.1-.2v-.02c-.44-1.04-.87-2.07-1.44-3.1-.02.02-.03.03-.05.04-2.98,2.5-7.18-1.54-4.8-4.62.47-.61,1.03-1.15,1.67-1.59-1.36,1.22-3.37,1.77-5.1,1.18-1.73-.58-3.04-2.38-2.85-4.2.14-1.24,1.05-2.33,2.19-2.79-2.36.12-4.76-.45-6.78-1.68-1.33-.8-2.62-2.1-2.12-3.78Z"/>
        <path class="cls-16" d="M449.11,131.93s.79.53,1.87,1.8c1.07,1.27,2.26,3.47,2.77,6.42.26,1.47.41,3.11.37,4.87-.04,1.76-.23,3.64-.41,5.63-.18,1.98-.37,4.08-.3,6.27.04,1.09.14,2.2.35,3.32.21,1.1.47,2.29,1.27,3.24.64.78,1.72,1.15,2.68.98.96-.14,1.82-.63,2.46-1.31,1.27-1.4,1.62-3.22,1.97-4.81l-.4.04c.62,1.46,1.26,2.9,2.22,4.07.95,1.17,2.29,1.96,3.67,2.12.69.08,1.38-.01,1.98-.3.61-.28,1.06-.77,1.37-1.29.3-.53.46-1.12.45-1.68-.02-.57-.23-1.11-.58-1.5l-.21.18c1.43,1.72,2.97,2.66,4.03,3.19.54.26.97.42,1.26.53.29.1.45.14.45.12,0-.01-.14-.08-.43-.19-.28-.12-.7-.31-1.22-.59-1.03-.56-2.51-1.53-3.89-3.23l-.21.18c.63.7.63,1.9.05,2.84-.29.47-.7.9-1.24,1.14-.53.24-1.17.33-1.79.25-1.26-.16-2.51-.9-3.4-2.01-.91-1.11-1.53-2.52-2.14-3.98l-.26-.62-.14.66c-.35,1.6-.72,3.34-1.87,4.6-.57.61-1.36,1.05-2.2,1.17-.84.14-1.72-.16-2.27-.83-.7-.83-.96-1.96-1.17-3.03-.2-1.09-.31-2.18-.35-3.25-.08-2.15.11-4.23.28-6.22.17-1.98.35-3.87.37-5.66.03-1.78-.14-3.45-.43-4.94-.56-3-1.82-5.22-2.95-6.48-1.15-1.26-2.01-1.69-2.01-1.69Z"/>
        <path class="cls-16" d="M389.48,149.03s.05.05.15.13c.13.1.28.22.47.36.2.16.47.35.8.54.33.2.7.44,1.15.64,1.75.89,4.58,1.8,8.15,1.68,3.53-.11,7.8-1.25,11.65-3.97,3.89-2.65,7.35-6.61,10.2-11.18,1.45-2.28,2.64-4.63,3.95-6.79,1.3-2.16,2.72-4.15,4.42-5.71,1.68-1.57,3.62-2.71,5.59-3.2.99-.27,1.97-.31,2.91-.26.94.07,1.83.29,2.65.58,1.63.59,2.94,1.54,3.93,2.5.99.97,1.64,1.99,2.09,2.85.83,1.78.84,2.91.91,2.89,0,0,0-.07-.01-.2-.02-.16-.05-.35-.08-.59-.08-.51-.28-1.26-.67-2.18-.43-.9-1.07-1.95-2.07-2.96-.99-1-2.32-1.99-3.99-2.62-.84-.31-1.75-.54-2.73-.63-.97-.06-2.01-.02-3.03.25-2.05.5-4.06,1.67-5.78,3.26-1.75,1.59-3.21,3.61-4.52,5.79-1.32,2.18-2.52,4.51-3.95,6.77-2.84,4.53-6.24,8.45-10.06,11.07-3.78,2.69-7.95,3.84-11.43,3.99-3.51.16-6.3-.69-8.06-1.52-1.77-.84-2.6-1.57-2.64-1.52Z"/>
        <path class="cls-16" d="M387.95,140.58s.22.2.67.5c.44.3,1.13.68,2,1.08.87.41,1.96.8,3.19,1.14,1.24.31,2.62.56,4.1.65,1.47.08,2.88,0,4.15-.18,1.26-.19,2.38-.46,3.3-.76.91-.3,1.64-.6,2.11-.85.48-.24.74-.39.73-.41-.04-.08-1.11.44-2.93.96-.91.27-2.02.49-3.26.66-1.24.14-2.62.21-4.07.14-1.44-.09-2.8-.32-4.02-.6-1.21-.31-2.29-.66-3.16-1.03-1.76-.72-2.76-1.36-2.8-1.29Z"/>
        <path class="cls-7" d="M433.12,196.38s-6.97,2.03-9.62,2.99l1.06,3.03c.91,2.61,3.99,4.01,6.55,2.8.6-.28,1.14-.69,1.61-1.24.81-.95,1.16-2.18,1.11-3.4-.06-1.43-.45-2.89-.71-4.18Z"/>
        <path class="cls-5" d="M423.51,199.38c-.09-.25,4.13-1.79,9.48-3.46l.5-.16.11.53c.01.07.03.15.05.22.29,1.38.6,2.74.63,4.03.1,1.29-.37,2.57-1.01,3.31-1.31,1.57-2.68,1.66-2.67,1.56-.08-.15,1.12-.5,2.11-1.97,1.16-1.43.63-3.97-.01-6.74-.02-.08-.03-.16-.05-.23l.61.37c-5.31,1.65-9.66,2.77-9.75,2.52Z"/>
      </g>
      <path class="cls-16" d="M375.97,450.12l135.74-.63-7.49-115.46-.56-34.42-7.95-62.38-30.34-6.5s-7.59,13.95-26.97,13.66c-18.95-.28-18.34-8.34-18.34-8.34l-32.23,12.1s-17.67,8.6-20.91,16.93c-3.16,8.11-9.27,54.79-9.27,54.79l27.79-.34-2.53,88.31-6.95,42.28Z"/>
      <path class="cls-5" d="M386.37,278.57s.04.21.07.61c.03.45.06,1.03.1,1.74.07,1.52.13,3.71.14,6.42.04,5.43-.08,12.92-.34,21.19-.26,8.27-.59,15.76-.86,21.18-.15,2.66-.28,4.83-.37,6.41-.05.71-.1,1.29-.13,1.74-.04.4-.06.61-.08.61-.02,0-.03-.21-.02-.61,0-.46.02-1.03.03-1.75.05-1.58.12-3.76.2-6.42.18-5.48.43-12.94.71-21.18.26-8.27.44-15.75.49-21.17.04-2.71.03-4.9.02-6.42,0-.71,0-1.29,0-1.75,0-.4.02-.61.03-.61Z"/>
      <path class="cls-16" d="M494.77,238.08s13.65,1.43,20.97,11.01c6.72,8.81,19.69,36.54,19.34,37.22-.34.69-30.53,20.47-30.53,20.47l-7.46-13.76-2.32-54.95Z"/>
      <path class="cls-5" d="M501.43,251.7s.04.18.08.53c.03.4.07.9.12,1.51.1,1.31.21,3.22.33,5.57.23,4.7.41,11.21.52,18.39.11,7.18.23,13.68.36,18.39.07,2.29.12,4.18.16,5.57.01.61.02,1.11.03,1.52,0,.35,0,.53-.03.53-.02,0-.04-.18-.08-.52-.03-.4-.07-.9-.12-1.51-.1-1.31-.21-3.22-.33-5.57-.23-4.7-.41-11.21-.52-18.39-.11-7.18-.23-13.68-.36-18.38-.07-2.29-.12-4.18-.16-5.57-.01-.61-.02-1.11-.03-1.52,0-.35,0-.53.03-.53Z"/>
    </g>
    <g>
      <g>
        <path class="cls-6" d="M307.36,372.41s4.5,3.02,7.32,2.64c2.83-.38,12.07-2.64,12.07-2.64,0,0,.19.82,2.64,2.67,2.45,1.85,17.34,4.3,23.57,3.55s16.78-4.71,16.78-4.71l-3.17-17.82-28.02,4.42-31.19,7.18v4.71Z"/>
        <path class="cls-10" d="M316.76,357.9s-2.45,10.75-1.13,12.25c1.32,1.51,2.98,1.89,3.92-.19.94-2.07,2.67-9.45,2.67-9.45l1.13-2.62s-1.51,17.72,1.51,18.66c3.02.94,4.71,0,4.71,0,0,0,6.03,4.52,6.41-2.64.38-7.16,2.56-16.02,2.56-16.02l1.4-2.33v4.03s-3.18,9.43-1.4,10.75c1.78,1.32,3.66,2.26,4.79.75,1.13-1.51,6.39-12.55,7.55-16.42,0,0,3.53,5.1,8.46,5.17,3.87.05,6.11-1.61,4.53-4.02s-5.47-4.43-5.47-4.43l-5.09-11.89-12.44-2.91h-14.14l-9.99,21.3Z"/>
        <path class="cls-13" d="M296.57,350.25s11.89,7.08,17.36,8.4c5.47,1.32,34.78-3.89,34.48-5.73-.3-1.85-4.12-3.5-6.76-3.88-2.64-.38-10.37-1.7-10.37-1.7h20.74l9.99,6.32s3.55-1.43,2.39-4.33c-.61-1.54-8.43-7.65-8.43-7.65l-19.04-3.77-33.75-1.32-6.61,13.66Z"/>
      </g>
      <g>
        <path class="cls-4" d="M307.71,318.5s33.75,5.66,34.5,6.6,9.43,10.75,9.43,10.75c0,0,13,4.47,11.31,7.35-1.69,2.88-5.47,1.13-5.47,1.13,0,0,5.28,8.3,2.83,9.99-2.45,1.7-5.09.57-6.98-1.89-1.89-2.45-7.35-11.5-7.35-11.5,0,0,4.52,18.48,2.26,19.04-2.26.57-5.84.75-7.35-3.96-1.51-4.71-1.89-7.35-1.89-7.35l-7.16-11.88s2.83,21.69,1.13,23.48c0,0-4.34,1.41-5.84-2.36s-3.58-12.39-3.58-12.39l-3.58-9.48-.38,6.03s3.02,11.12,1.13,11.88c-1.89.75-4.34,0-5.66-2.54-1.32-2.55-2.77-5.54-3.39-8.02-.37-1.47-2.37-6.49-2.37-6.49l-7.16-.94,5.58-17.45Z"/>
        <path class="cls-15" d="M349.25,332.96c.12-.08,2.12,2.56,4.48,5.9,2.36,3.34,4.17,6.12,4.05,6.2-.12.08-2.12-2.56-4.48-5.9-2.35-3.34-4.17-6.12-4.05-6.2Z"/>
        <path class="cls-15" d="M338.01,326.72c.05-.04.68.66,1.58,1.89.9,1.22,2.05,2.99,3.17,5.02,1.12,2.03,2.02,3.93,2.61,5.33.59,1.4.9,2.29.83,2.31-.07.03-.49-.81-1.17-2.16-.68-1.35-1.61-3.22-2.73-5.23-1.12-2.01-2.2-3.79-3.02-5.06-.81-1.27-1.34-2.05-1.28-2.1Z"/>
        <path class="cls-15" d="M328.08,327.72c.04-.05.56.24,1.19.94.64.7,1.34,1.83,1.79,3.2.46,1.36.64,2.65.73,3.57.09.92.1,1.5.03,1.51-.07.01-.21-.55-.39-1.45-.19-.9-.43-2.15-.86-3.46-.44-1.31-1.04-2.41-1.58-3.13-.53-.73-.96-1.11-.91-1.18Z"/>
        <path class="cls-15" d="M316.09,328.74c.03-.06.53.1,1.21.59.68.48,1.53,1.33,2.1,2.49.58,1.16.73,2.35.7,3.19-.03.84-.21,1.33-.27,1.32-.16,0,.2-2.08-.89-4.28-1.08-2.2-2.95-3.18-2.85-3.31Z"/>
      </g>
    </g>
    <g>
      <path class="cls-12" d="M383.79,377.43c2.41-.02,94.07-6.73,94.07-6.73l32.34-6.69-7.99-35.8-118.17,38.03-.25,11.19Z"/>
      <path class="cls-6" d="M365.64,355.55l87.98-19.5s80.09-45.03,81.32-45.76c1.37-.81-6.19,45.76-6.19,45.76,0,0-51.02,25.93-65.71,29.29-8,1.83-96.75,8.95-96.75,8.95l-.64-18.73Z"/>
      <g>
        <path class="cls-5" d="M580.56,170.37c5.23-5.64,17.99-4.66,20.98-.89,4.46-2.26,10.59-.16,12.71,4.36,4.52,1.03,9.04,2.07,13.56,3.1,2.31.53,4.73,1.11,6.5,2.7,1.77,1.58,2.57,4.51,1.08,6.36,4.77,1.29,6.58,8.44,3,11.84,1.93,2.07,1.51,5.85-.84,7.44,3.71,4.53,6.63,9.7,8.61,15.22.83,2.31,1.48,4.88.61,7.17-.87,2.29-3.91,3.84-5.88,2.39,1.34,1.87,1.43,4.55.22,6.51,2.3.08,2.95,3.64,1.35,5.29-1.6,1.66-4.16,1.81-6.46,1.73-2.3-.08-4.79-.22-6.69,1.07.08.69.34,1.14.74,1.47,3.92,3.25,4.98,8.79,1.98,12.9-.28.38-.54.73-.76,1.05-1.35,1.88-4.66,3.58-6.72,4.62-5.22,2.66-8.31,2.12-14.12,2.9,1.55,3.76-7.96,11.95-18.66,3.7-21.57,5.57-37.11,7.61-59.39,7.46-3.18-.02-7-.49-8.38-3.35-2.58.66-5.36-.57-7.24-2.45-1.89-1.88-3.06-4.35-4.2-6.76-5.49-1.53-9.68-6.88-9.85-12.58-3.7-2.95-6.07-7.51-6.34-12.24-5.34-1.68-8.22-8.66-5.63-13.62,1.21-6.55,3.52-12.89,6.79-18.69-3.64-.82-4.96-5.75-3.43-9.15,1.53-3.4,4.87-5.56,8.03-7.54-2.73.7-5.07-2.75-4.4-5.48.68-2.74,3.16-4.61,5.59-6.03,3.56-2.09,7.38-3.75,11.34-4.93,1.34-4.78,7.53-10.19,12.04-12.27,18.2-8.4,30.92-10.44,53.84,6.7"/>
        <path class="cls-6" d="M529.77,204.41c1.57-12.46,10.81-27.29,23.19-25.2l38.31,12.26c3.76.64,6.41,4.04,6.1,7.85l-6.5,83.31c-.85,10.86-9.21,19.62-20.02,20.96h0c-13.84,1.72-26-9.23-25.74-23.17.11-5.73.18-10.04.17-10.01,0,0-15.82-3.65-17.83-24.7-1-10.47.58-27.44,2.31-41.28Z"/>
        <g>
          <g>
            <g>
              <path class="cls-5" d="M536.76,221.34c-.14,1.41.94,2.69,2.41,2.86,1.47.17,2.77-.83,2.91-2.24.14-1.41-.94-2.69-2.41-2.86-1.47-.17-2.77.83-2.91,2.24Z"/>
              <path class="cls-5" d="M532.91,213.48c.31.37,2.43-1,5.31-.82,2.88.14,4.9,1.76,5.23,1.42.16-.15-.14-.8-1.01-1.52-.86-.72-2.37-1.47-4.16-1.57-1.79-.1-3.34.47-4.25,1.09-.93.62-1.27,1.24-1.11,1.4Z"/>
            </g>
            <g>
              <path class="cls-5" d="M563.15,222.44c-.14,1.41.94,2.69,2.41,2.86,1.47.17,2.77-.83,2.91-2.24.14-1.41-.94-2.69-2.41-2.86-1.47-.17-2.77.83-2.91,2.24Z"/>
              <path class="cls-5" d="M561.16,215.78c.31.37,2.43-1,5.31-.82,2.88.14,4.9,1.76,5.23,1.42.16-.15-.13-.8-1.01-1.52-.86-.72-2.37-1.47-4.16-1.57-1.79-.1-3.34.47-4.25,1.09-.92.62-1.27,1.24-1.11,1.4Z"/>
            </g>
            <path class="cls-5" d="M549.39,236.47c.02-.16-1.75-.58-4.62-1.13-.73-.12-1.42-.31-1.51-.82-.14-.54.22-1.31.63-2.15.8-1.74,1.64-3.55,2.52-5.46,3.51-7.78,6.1-14.19,5.79-14.33-.31-.14-3.42,6.05-6.93,13.83-.85,1.92-1.66,3.75-2.43,5.5-.33.82-.87,1.74-.56,2.86.16.56.68.99,1.14,1.15.46.17.88.21,1.24.25,2.91.34,4.72.46,4.74.3Z"/>
            <path class="cls-8" d="M545.29,270.39s13.97,1.78,28.39-5.71c0,0-7.67,13.9-28.41,10.65l.02-4.94Z"/>
          </g>
          <path class="cls-5" d="M560.62,203.85c.24.8,3.13.61,6.48,1.22,3.36.55,6.02,1.71,6.52,1.03.22-.32-.21-1.09-1.26-1.91-1.04-.82-2.74-1.65-4.75-2-2.01-.35-3.89-.14-5.15.28-1.27.42-1.93,1-1.83,1.38Z"/>
          <path class="cls-5" d="M534.54,203.64c.47.68,2.49.13,4.88.25,2.39.03,4.37.71,4.88.06.22-.32-.05-.99-.9-1.67-.83-.67-2.25-1.26-3.89-1.32-1.64-.05-3.1.45-3.97,1.07-.88.62-1.2,1.27-1,1.61Z"/>
        </g>
        <path class="cls-5" d="M520.21,214.27c.25-3.27,1.34-6.57,3.62-8.93,1.25-1.29,2.82-2.26,3.93-3.67,2.4-3.04,2.14-7.33,3.21-11.06,1.37-4.81,5.21-8.84,9.95-10.44,3.94-1.33,8.37-1.06,12.08-2.95,2.74-1.39,4.85-3.86,7.67-5.09,5.49-2.39,11.76.51,16.85,3.66.95,4.1-1.7,7.59-4.25,10.94-2.55,3.35-6.63,5.48-10.84,5.66-3.26.14-7.06-.66-9.39,1.62-2.45,2.4-1.59,6.73-3.62,9.5-2.9,3.96-9.32,2.32-13.6,4.73-3.31,1.86-4.75,5.75-6.46,9.14-1.71,3.39-4.62,6.9-8.4,6.65-.5-3.24-1-6.51-.74-9.78Z"/>
        <path class="cls-5" d="M569.26,183.1c9.53.02,19.05,1.91,27.87,5.53,2.63,1.08,5.34,2.44,6.81,4.87,1.29,2.14,1.4,4.77,1.33,7.26-.23,7.82-3.54,17.33-6.65,24.51l-9.87,5.67c-7.49-1.91-3.81-14.83-3.33-21.33-5.21-2.39-8.77-7.99-8.74-13.72-4.25-2.83-7.07-7.7-7.42-12.79Z"/>
        <path class="cls-6" d="M588.93,228.14c.37-4.47,5.88-5.24,9.68-2.87,2.09,1.3,3.63,3.83,3.28,8.57-.95,12.65-13.45,9.09-13.44,8.72,0-.23.05-9.2.49-14.43Z"/>
        <path class="cls-8" d="M592.66,238.07c.06-.04.21.17.57.37.35.19.97.35,1.64.16,1.37-.39,2.66-2.43,2.89-4.7.12-1.15-.04-2.26-.38-3.2-.32-.95-.87-1.65-1.53-1.82-.66-.2-1.16.16-1.35.51-.2.34-.13.6-.2.62-.04.03-.26-.23-.11-.75.07-.25.24-.53.56-.76.32-.22.78-.32,1.24-.23.97.14,1.78,1.1,2.15,2.13.43,1.04.63,2.29.5,3.58-.27,2.54-1.76,4.83-3.62,5.22-.91.17-1.63-.16-1.99-.49-.37-.34-.41-.63-.37-.65Z"/>
        <path class="cls-16" d="M598.74,246.11c.63.03,1.31,0,2.03-.1.72-.1,1.48-.27,2.23-.63l-.15-.08c.24,1.73,1.35,3.61,3.27,4.65,1.9,1.05,4.61,1.02,6.69-.48l-.21-.04c.36.57.97.99,1.64,1.14.67.17,1.39.1,2.05-.13.66-.24,1.28-.69,1.67-1.31.4-.61.62-1.33.68-2.07.12-1.48-.4-3.01-1.3-4.25-.89-1.26-2.08-2.29-3.28-3.31l-.03.29c1.08-.61,1.8-1.75,2.06-2.96.27-1.22.17-2.54-.3-3.74-.48-1.2-1.26-2.26-2.16-3.2-.9-.94-1.92-1.77-2.95-2.59v.29c.97-.92,1.39-2.32,1.33-3.65-.06-1.34-.54-2.69-1.36-3.79-1.59-2.1-3.94-3.3-6.1-4.42l.1.22c.73-2.76-.04-5.77-1.86-7.78-1.82-2.02-4.55-3.01-7.09-2.76l.19.22c.54-2.26-.26-4.57-1.6-6.19-1.34-1.64-3.31-2.7-5.3-2.72l.16.16c.04-2.32-1.22-4.33-2.78-5.57-1.57-1.26-3.53-1.81-5.27-1.56l.14.13c-.02-1.23-.45-2.33-.97-3.27-.53-.94-1.17-1.74-1.88-2.36-1.39-1.29-3.01-1.84-4.3-1.94-.16-.01-.32-.03-.47-.04-.15,0-.3.02-.45.03-.29.03-.56.02-.8.08-.48.13-.91.18-1.22.32-.3.12-.54.22-.71.29-.16.07-.24.1-.24.11,0,0,.09-.02.25-.08.18-.06.42-.15.72-.26.31-.13.73-.17,1.21-.28.24-.05.51-.04.79-.06.14,0,.29-.02.44-.02.15.02.31.03.47.05,1.26.13,2.83.68,4.18,1.95.69.61,1.31,1.4,1.82,2.32.5.92.91,1.99.92,3.15v.15s.14-.02.14-.02c1.67-.23,3.55.3,5.05,1.53,1.5,1.2,2.69,3.15,2.64,5.34v.16s.16,0,.16,0c1.88.03,3.76,1.04,5.04,2.62,1.28,1.56,2.03,3.77,1.52,5.89l-.06.24.25-.02c2.42-.24,5.05.72,6.78,2.65,1.73,1.92,2.47,4.81,1.77,7.43l-.04.15.14.07c2.16,1.12,4.45,2.3,5.96,4.31.78,1.04,1.23,2.31,1.29,3.57.06,1.26-.33,2.53-1.2,3.36l-.16.15.17.14c2.04,1.62,4.08,3.32,5,5.62.44,1.13.54,2.38.28,3.52-.25,1.14-.91,2.18-1.88,2.73l-.22.13.2.17c1.2,1.02,2.37,2.03,3.23,3.24.88,1.19,1.36,2.63,1.26,4.02-.08,1.38-.87,2.7-2.13,3.11-1.2.45-2.7.18-3.33-.86l-.08-.14-.13.1c-1.96,1.44-4.57,1.48-6.39.49-1.85-.99-2.93-2.8-3.18-4.46l-.02-.14-.13.06c-.71.35-1.46.53-2.16.63-.7.11-1.38.14-2,.12-1.25-.04-2.3-.27-3.08-.65-.77-.37-1.26-.86-1.44-1.27-.19-.39-.22-.64-.25-.63,0,0,0,.06.03.17.04.11.04.29.16.48.17.43.66.95,1.44,1.34"/>
        <path class="cls-16" d="M642.44,230.69s.21-.23.49-.76c.27-.52.62-1.35.71-2.49.1-1.12-.07-2.6-.97-3.99-.87-1.37-2.46-2.65-4.54-3l.1.15c.44-1.93.16-4.24-1.04-6.27-.59-1.01-1.4-1.95-2.43-2.68-1.03-.75-2.27-1.14-3.43-1.69-.58-.27-1.15-.59-1.64-1.01-.49-.42-.86-.96-1.13-1.58-.54-1.22-.7-2.66-1.39-3.98-1.37-2.6-4.48-4.38-7.64-3.96l.21.22c.46-2.88-.41-6.1-2.51-8.42-2.18-2.41-5.48-3.59-8.53-3.27l.21.21c.44-3.7-1.58-7.33-4.58-8.93-3.01-1.61-6.63-1.27-9.13.36l.2.02c-1.28-1.32-2.85-2.18-4.38-2.78-1.54-.58-3.07-.97-4.52-1.12-2.91-.38-5.48-.08-7.52.38-2.04.49-3.55,1.17-4.49,1.78-.49.26-.8.57-1.04.73-.23.17-.34.27-.34.27.02.03.48-.35,1.43-.92.95-.57,2.46-1.22,4.48-1.68,2.02-.43,4.57-.7,7.44-.3,1.44.16,2.94.55,4.45,1.14,1.5.6,3.02,1.45,4.25,2.73l.09.1.11-.07c2.4-1.56,5.91-1.87,8.78-.32,2.86,1.53,4.8,5.03,4.37,8.56l-.03.24.24-.02c2.93-.3,6.11.84,8.21,3.15,2.01,2.22,2.86,5.33,2.42,8.1l-.04.25.25-.03c2.99-.41,5.97,1.29,7.27,3.75.65,1.23.82,2.66,1.39,3.95.28.65.69,1.24,1.22,1.7.53.45,1.13.78,1.73,1.06,1.2.55,2.41.94,3.39,1.65.99.69,1.79,1.59,2.36,2.57,1.17,1.95,1.46,4.19,1.05,6.06l-.03.13.13.02c2,.31,3.55,1.54,4.41,2.85.88,1.34,1.07,2.77,1,3.87-.07,1.12-.39,1.94-.64,2.47-.26.53-.44.78-.43.79Z"/>
        <path class="cls-16" d="M521.3,232.07s.27-.34.07-1.04c-.1-.34-.34-.72-.72-1.06-.38-.36-.93-.6-1.55-.81-.61-.22-1.33-.4-1.96-.86-.63-.45-1.12-1.18-1.39-2.06-.28-.87-.34-1.86-.27-2.9.06-1.04.25-2.15.27-3.33.06-2.4-.91-4.86-1.48-7.51-.28-1.33-.38-2.76-.1-4.17.27-1.4,1.03-2.78,2.36-3.52,1.3-.77,2.9-.98,4.46-1.43.78-.23,1.58-.52,2.29-1.02.72-.48,1.25-1.21,1.64-1.97.77-1.56.99-3.3,1.42-4.96.21-.83.47-1.66.92-2.39.43-.73,1.11-1.29,1.89-1.6,1.1-.39,2.31-.31,3.51-.42.6-.05,1.21-.16,1.78-.41.57-.25,1.07-.66,1.42-1.16.72-1,1-2.16,1.38-3.21.35-1.07.91-2.03,1.64-2.83,1.45-1.61,3.53-2.54,5.56-2.54,2.03-.02,3.97.77,5.34,2.04l.17.15.1-.2c1.62-3.42,4.71-5.57,7.63-6.36,1.47-.4,2.93-.45,4.24-.29,1.31.15,2.49.52,3.46,1.03,1.96,1.02,3.05,2.46,3.64,3.46.31.5.49.92.61,1.2.06.13.11.23.15.31.03.07.05.11.06.1,0,0,0-.04-.03-.11-.03-.09-.07-.19-.12-.33-.1-.29-.27-.71-.57-1.23-.56-1.03-1.65-2.52-3.64-3.58-.99-.53-2.18-.92-3.52-1.09-1.34-.18-2.82-.13-4.34.26-3,.79-6.17,2.97-7.86,6.48l.26-.05c-1.43-1.33-3.45-2.16-5.57-2.15-2.13,0-4.31.97-5.83,2.65-.77.83-1.36,1.86-1.72,2.95-.39,1.07-.67,2.21-1.33,3.11-.64.94-1.77,1.34-2.93,1.42-1.16.11-2.4.01-3.61.44-.87.35-1.62.97-2.09,1.76-.48.78-.75,1.65-.96,2.49-.43,1.69-.65,3.41-1.38,4.89-.37.73-.85,1.39-1.51,1.84-.65.46-1.41.75-2.17.97-1.53.45-3.16.66-4.54,1.48-.68.41-1.28.97-1.69,1.63-.41.66-.67,1.39-.82,2.13-.28,1.47-.17,2.94.12,4.3.6,2.7,1.57,5.11,1.52,7.44-.01,1.16-.18,2.26-.24,3.32-.07,1.06,0,2.08.31,2.98.29.9.82,1.67,1.49,2.14.68.47,1.41.64,2.02.85.62.2,1.15.43,1.52.76.37.32.61.68.72,1,.22.66-.03,1.01,0,1.01Z"/>
        <path class="cls-16" d="M497.05,212.05s.05-.08.13-.23c.09-.18.21-.41.36-.7.32-.64.77-1.56,1.35-2.72.59-1.18,1.26-2.65,2.21-4.26.95-1.58,2.24-3.39,4.32-4.47,1.03-.54,2.22-.88,3.42-1.39.6-.26,1.2-.56,1.75-.98.55-.41,1.02-.98,1.32-1.63.62-1.3.67-2.79,1.17-4.14.26-.67.65-1.29,1.25-1.71.59-.43,1.31-.68,2.05-.91.74-.23,1.52-.43,2.25-.82.75-.36,1.37-1.01,1.76-1.76.79-1.53.82-3.26,1.17-4.89.17-.82.41-1.64.88-2.31.46-.68,1.21-1.13,2.03-1.29,1.67-.32,3.45.29,5.31.03.93-.14,1.81-.6,2.46-1.25.66-.65,1.15-1.41,1.61-2.15.47-.75.9-1.49,1.43-2.16.52-.67,1.14-1.24,1.89-1.56,1.52-.67,3.23-.26,4.78.12,1.57.39,3.2.81,4.8.5,1.59-.29,2.95-1.08,4.22-1.83,1.27-.75,2.47-1.56,3.76-2.01,2.6-.88,5.27-.71,7.52-.11,2.27.61,4.11,1.75,5.52,2.96,1.41,1.23,2.32,2.58,3.01,3.69.62,1.16,1.06,2.08,1.27,2.75.12.31.21.55.28.74.07.17.1.25.11.25,0,0-.02-.09-.07-.26-.06-.19-.14-.44-.25-.75-.19-.67-.6-1.62-1.21-2.79-.68-1.13-1.58-2.51-3-3.77-1.41-1.25-3.28-2.43-5.59-3.06-2.28-.62-5-.82-7.7.07-1.35.46-2.56,1.27-3.83,2.02-1.26.75-2.6,1.51-4.1,1.78-1.51.29-3.07-.11-4.65-.51-.79-.19-1.61-.4-2.46-.47-.85-.07-1.75,0-2.56.36-.82.35-1.5.98-2.04,1.67-.55.69-.99,1.45-1.45,2.19-.46.74-.94,1.47-1.56,2.08-.61.61-1.39,1.01-2.25,1.14-1.73.26-3.51-.36-5.33-.03-.9.17-1.75.68-2.27,1.44-.53.75-.77,1.62-.94,2.46-.34,1.67-.39,3.38-1.12,4.8-.37.69-.91,1.27-1.6,1.61-.68.36-1.44.57-2.19.8-.74.23-1.51.49-2.15.97-.66.46-1.1,1.16-1.36,1.87-.52,1.43-.56,2.9-1.14,4.13-.55,1.25-1.74,1.98-2.9,2.48-1.17.51-2.37.86-3.43,1.42-2.14,1.14-3.44,3-4.38,4.6-.94,1.64-1.58,3.12-2.16,4.31-.55,1.18-.98,2.1-1.29,2.75-.14.3-.24.54-.33.72-.07.16-.11.25-.1.25Z"/>
        <path class="cls-16" d="M510.75,199.03s-.08-.02-.23-.04c-.15,0-.4,0-.68.14-.55.26-1.19,1.05-1.3,2.22-.05.59.09,1.22.24,1.9.15.67.34,1.41.29,2.2-.05.79-.43,1.57-.93,2.32-.5.76-1.14,1.49-1.66,2.39-.54.87-.81,2.09-.37,3.18.39,1.09,1.15,2,1.52,3.1.38,1.1.12,2.35-.41,3.48-.51,1.15-1.24,2.26-1.74,3.54-.26.63-.43,1.33-.44,2.05-.01.72.16,1.44.44,2.1.59,1.33,1.54,2.45,2.35,3.65.81,1.18,1.48,2.57,1.27,4.03-.19,1.46-1.03,2.78-1.6,4.25-.29.73-.5,1.52-.51,2.32,0,.8.21,1.59.55,2.29.69,1.4,1.75,2.5,2.67,3.63.93,1.12,1.76,2.28,2.15,3.62.43,1.32.64,2.71,1.25,3.96.3.62.72,1.2,1.26,1.62.54.43,1.17.68,1.78.89.61.21,1.2.39,1.74.66.53.28,1.02.62,1.45,1.02.84.82,1.46,1.79,2.03,2.74.57.95,1.09,1.89,1.68,2.73,1.17,1.71,2.81,2.81,4.35,3.32,1.55.53,2.99.61,4.13.47,1.14-.14,1.99-.44,2.54-.7.54-.26.8-.44.8-.44-.02-.08-1.09.75-3.35.99-1.12.11-2.53.02-4.04-.52-1.51-.52-3.07-1.6-4.2-3.27-.57-.83-1.09-1.76-1.65-2.73-.56-.96-1.19-1.96-2.06-2.82-.44-.43-.96-.79-1.52-1.09-.57-.28-1.18-.47-1.78-.68-.59-.21-1.19-.45-1.67-.85-.49-.39-.87-.92-1.15-1.51-.57-1.19-.78-2.56-1.22-3.92-.4-1.39-1.28-2.63-2.21-3.75-.93-1.13-1.96-2.23-2.62-3.55-.32-.66-.52-1.38-.52-2.12,0-.74.21-1.47.48-2.18.55-1.42,1.42-2.76,1.63-4.34.11-.78,0-1.58-.27-2.3-.26-.72-.65-1.38-1.06-1.99-.83-1.22-1.76-2.33-2.32-3.59-.27-.63-.43-1.29-.42-1.95,0-.66.17-1.31.41-1.93.48-1.23,1.2-2.34,1.72-3.53.54-1.16.82-2.52.4-3.72-.41-1.18-1.18-2.08-1.54-3.1-.41-1.01-.18-2.09.33-2.95.49-.87,1.12-1.62,1.63-2.39.51-.77.9-1.6.94-2.44.04-.84-.17-1.58-.33-2.25-.16-.67-.3-1.29-.27-1.85.08-1.12.67-1.9,1.18-2.16.54-.27.88-.13.87-.16Z"/>
        <path class="cls-5" d="M642.13,230.27s.35.03,1.01-.08c.65-.12,1.62-.38,2.69-1.1,1.05-.7,2.21-1.9,2.74-3.68.52-1.74.41-4.04-.92-6-.67-.96-1.58-1.78-2.48-2.65-.9-.86-1.85-1.8-2.31-3.05-.49-1.25-.25-2.69.27-4.02.51-1.35,1.27-2.66,1.77-4.15.97-2.97.82-6.53-.79-9.61-1.59-3.06-4.63-5.54-8.27-6.37l.11.3c.59-.8.99-1.75,1.15-2.75.15-1,.1-2.03-.13-3.02-.24-.99-.64-1.95-1.22-2.81-.58-.86-1.3-1.62-2.11-2.27-2.44-1.95-5.41-2.91-8.27-3.52-2.88-.6-5.77-.75-8.51-.52l.2.18c-.04-3.41-2.11-6.53-4.94-7.88-1.4-.7-2.95-1-4.43-.94-1.51.04-2.88.6-4.17,1.02-.65.2-1.31.37-1.96.41-.65.05-1.3-.05-1.9-.24-1.22-.38-2.28-1.07-3.32-1.69-1.03-.63-2.09-1.2-3.17-1.52-1.08-.33-2.16-.48-3.19-.49-2.06-.01-3.89.55-5.28,1.34-1.41.79-2.42,1.76-3.13,2.62-.71.87-1.12,1.63-1.37,2.15-.25.53-.33.82-.33.82.02,0,.12-.28.39-.79.27-.51.69-1.26,1.41-2.1.71-.84,1.73-1.78,3.12-2.54,1.38-.76,3.18-1.29,5.19-1.26,1.01.01,2.06.17,3.12.5,1.06.32,2.08.88,3.1,1.52,1.03.62,2.1,1.33,3.38,1.74.63.2,1.32.31,2.01.26.69-.04,1.37-.21,2.04-.42,1.33-.42,2.65-.96,4.09-.99,1.43-.05,2.92.24,4.26.92,2.71,1.3,4.69,4.31,4.73,7.57v.2s.2-.02.2-.02c2.71-.22,5.56-.07,8.4.53,2.82.61,5.74,1.56,8.1,3.45.78.63,1.48,1.36,2.03,2.18.55.82.93,1.74,1.17,2.68.23.95.27,1.93.13,2.87-.15.94-.52,1.83-1.07,2.58l-.17.23.28.06c3.52.8,6.49,3.2,8.04,6.17,1.57,2.98,1.72,6.45.79,9.34-.47,1.45-1.23,2.76-1.74,4.15-.53,1.36-.78,2.9-.25,4.23.5,1.33,1.5,2.29,2.4,3.15.92.86,1.82,1.66,2.47,2.59,1.3,1.87,1.44,4.11.94,5.8-.49,1.73-1.61,2.92-2.63,3.63-1.03.72-1.99,1-2.62,1.14-.65.13-.99.13-.99.15Z"/>
        <path class="cls-5" d="M506.45,190.24s.02-.08.04-.24c.02-.18.05-.41.08-.71.07-.65.17-1.56.3-2.73.15-1.18.34-2.63.69-4.28.35-1.65.86-3.52,1.77-5.43.91-1.91,2.23-3.87,4.13-5.47.95-.79,2.06-1.47,3.28-1.94,1.23-.47,2.58-.72,3.96-1.06,1.37-.32,2.79-.83,4.03-1.7,1.23-.86,2.29-1.98,3.28-3.15,1-1.17,1.96-2.4,3.07-3.51,1.1-1.12,2.39-2.07,3.85-2.74,2.93-1.36,6.14-1.71,9.18-1.78,3.06-.04,6.01.14,8.8.52,5.58.73,10.45,2.35,14.24,4.25,3.81,1.91,6.48,4.15,8.16,5.82.41.43.8.79,1.1,1.13.29.34.54.64.75.88.19.22.35.4.47.54.11.12.16.18.17.18,0,0-.04-.07-.14-.2-.11-.14-.26-.33-.44-.56-.2-.25-.44-.56-.72-.91-.3-.35-.67-.72-1.08-1.16-1.66-1.71-4.33-4-8.15-5.96-3.81-1.95-8.71-3.61-14.32-4.36-2.8-.39-5.77-.58-8.85-.54-3.06.07-6.33.41-9.34,1.81-1.5.68-2.84,1.67-3.96,2.82-1.13,1.13-2.09,2.38-3.08,3.54-.99,1.16-2.02,2.26-3.21,3.1-1.19.84-2.54,1.33-3.9,1.66-1.36.34-2.72.6-3.99,1.09-1.26.5-2.39,1.2-3.37,2.02-1.94,1.65-3.27,3.66-4.18,5.6-.91,1.95-1.4,3.84-1.74,5.51-.33,1.67-.5,3.12-.63,4.31-.12,1.19-.19,2.11-.23,2.74-.02.3-.03.53-.04.71,0,.16,0,.24,0,.24Z"/>
        <path class="cls-8" d="M561.77,243.13c-.1-1.7-1.18-3.34-2.74-4.01-1.57-.67-3.56-.28-4.68,1.01-1.06,1.23-1.17,3.19-.23,4.5.42.69,1.06,1.26,1.8,1.59.95.43,2.04.52,3.07.33.84-.16,1.69-.52,2.21-1.2.47-.62.62-1.43.58-2.21Z"/>
        <path class="cls-5" d="M560.17,236.97c-.48.01-.22,3.18-2.74,5.65-2.52,2.48-5.92,2.4-5.91,2.85-.03.2.8.55,2.23.47,1.4-.07,3.41-.69,4.95-2.2,1.54-1.52,2.1-3.41,2.1-4.72.01-1.33-.41-2.09-.62-2.05Z"/>
      </g>
      <path class="cls-1" d="M615.49,289.53l-24.58-9.32s-18.94,11.26-33.55,8.93c-11.32-1.81-12.25-7.63-12.25-7.63l-13.62,2.19s-20.62,17.14-24.93,34.56c-2.54,10.29-3.16,23.76-3.16,35.59,0,4.73,6.03,23.43,6.03,23.43l2.34,27.08-11.39,45.12h118.86v-124.85l-3.76-35.11Z"/>
      <polygon class="cls-1" points="482.46 364.01 465.21 320.79 514.73 286.28 531.5 283.7 527.14 344.87 482.46 364.01"/>
      <path class="cls-5" d="M508.32,372.22s-.12-.2-.31-.6c-.18-.4-.48-.99-.79-1.77-.65-1.55-1.47-3.85-2.21-6.77-1.53-5.83-2.36-14.22-1.52-23.38.84-9.16,2.82-17.27,4.3-23.08.75-2.91,1.4-5.25,1.86-6.87.22-.76.4-1.38.54-1.86.13-.42.21-.64.22-.64.02,0-.03.23-.12.66-.11.48-.26,1.11-.45,1.88-.42,1.69-.99,4.03-1.7,6.9-1.39,5.83-3.31,13.92-4.14,23.04-.84,9.11-.06,17.43,1.36,23.25.69,2.91,1.45,5.22,2.04,6.79.27.79.54,1.39.69,1.8.16.41.23.63.22.64Z"/>
      <g class="cls-12">
        <path d="M502.67,348.31l1.08-.78c-.06-13.13,2.13-27.03,6.44-39.43-8.04,11.9-11.46,26.9-7.53,40.21Z"/>
      </g>
      <path class="cls-12" d="M536.75,342.34s17.05,63.11,26.55,74.68c9.5,11.57,14.69,15.03,29.34,16.19,14.66,1.16,20.09-15.78,23.34-22.39,3.25-6.61,2.66-16.53,2.66-16.53l-19.97-11.16-15.8,26.04-40.7-67.95-5.43,1.12Z"/>
      <g>
        <g>
          <path class="cls-6" d="M539.42,350.56s17.36,40.4,29.81,63.56c10.54,19.61,32.04,17.43,38.87,6.53,6.82-10.91,18.24-43.57,18.24-43.57l-36.27-6.37-4.04,11.49-27.5-35.06-19.11,3.43Z"/>
          <path class="cls-6" d="M569.1,344.74l-2.67-12.08s-1.22-3.34-3.21-.39c-1.99,2.95-1.06,8.52-1.06,8.52,0,0-3.75-28.74-7.06-31.87-1.21-1.14-2.86.43-2.86.43,0,0-.39-5.62-2.15-5.58-1.76.04-3.43,4.22-3.43,4.22,0,0-2.19-1.19-3.91.89-1.54,1.87-1.55,17.49-1.55,17.49,0,0-1.47-12.87-3.77-13.68-3.69-1.3-3.69,3.6-3.69,3.6l1.08,16.75s2.02,11.43,4.56,18.62c2.54,7.19,4.02,7.26,4.02,7.26l16.56-.44s3.73-3.42,6.68-6.06c2.15-1.93,3.09-4.86,2.47-7.68Z"/>
          <path class="cls-8" d="M597.19,398.48s-.11-.17-.28-.5c-.19-.39-.42-.87-.71-1.47-.37-.64-.8-1.38-1.29-2.24-.53-.86-1.17-1.81-1.86-2.88-2.86-4.19-7.19-9.73-12.12-15.72-4.93-5.99-9.48-11.35-12.67-15.32-1.6-1.98-2.86-3.61-3.71-4.76-.38-.54-.7-.99-.95-1.34-.21-.31-.32-.48-.3-.49.01-.01.15.14.39.43.27.34.61.76,1.02,1.28.9,1.1,2.2,2.7,3.83,4.65,3.26,3.9,7.85,9.23,12.79,15.22,4.93,6,9.23,11.58,12.02,15.85.67,1.08,1.3,2.06,1.8,2.93.48.9.9,1.66,1.22,2.3.25.62.46,1.12.62,1.52.14.35.2.54.18.54Z"/>
          <g>
            <path class="cls-1" d="M611.41,288.45s19.8,4.04,24.78,26.46c4.58,20.61,3.16,64.45,3.16,64.45l-53.92-9.49,13.12-74.85,12.86-6.57Z"/>
            <path class="cls-5" d="M593.09,324.21s0,.08-.01.24c-.02.19-.05.41-.09.69-.1.65-.23,1.53-.4,2.65-.37,2.34-.9,5.66-1.55,9.76-1.37,8.28-3.25,19.68-5.34,32.36l-.21-.3c.56.1,1.16.21,1.76.31,13.05,2.36,24.87,4.49,33.47,6.04,4.24.79,7.69,1.44,10.13,1.89,1.16.23,2.08.41,2.75.54.29.06.52.11.71.15.16.04.24.06.24.07,0,0-.09,0-.25-.02-.19-.03-.43-.06-.72-.1-.67-.11-1.6-.26-2.77-.44-2.44-.42-5.9-1-10.16-1.73-8.61-1.51-20.43-3.59-33.49-5.89-.6-.11-1.21-.22-1.76-.31l-.25-.05.04-.25c2.16-12.67,4.09-24.06,5.5-32.34.72-4.08,1.3-7.39,1.71-9.73.21-1.11.37-1.99.49-2.64.06-.27.1-.5.14-.68.03-.15.06-.23.06-.23Z"/>
            <path class="cls-5" d="M596.11,317.02s.11-.47.41-1.29c.3-.81.75-1.99,1.36-3.41,1.24-2.82,3.07-6.83,6.48-10.24,1.69-1.71,3.64-2.96,5.51-3.84,1.88-.87,3.69-1.38,5.22-1.67,1.53-.29,2.8-.37,3.67-.38.87-.01,1.35.03,1.35.06,0,.11-1.93.03-4.94.68-2.98.64-7.12,2.17-10.44,5.51-3.32,3.32-5.19,7.25-6.51,10.02-.6,1.34-1.11,2.46-1.51,3.34-.35.79-.56,1.22-.6,1.21Z"/>
          </g>
        </g>
        <path class="cls-8" d="M546.35,328.88c-.07,0-.17-1.17-.27-3.06-.1-1.89-.21-4.51-.22-7.4-.01-2.9.1-5.52.3-7.41.19-1.89.44-3.04.5-3.03.08.01-.04,1.18-.13,3.06-.1,1.89-.16,4.5-.15,7.38.03,2.8.05,5.34.07,7.39,0,1.89-.03,3.07-.1,3.07Z"/>
        <path class="cls-8" d="M551.82,309.54c.07,0,.11.96.16,2.5.05,1.54.11,3.67.23,6.02.12,2.35.28,4.47.39,6.01.11,1.54.17,2.49.1,2.5-.07,0-.26-.93-.46-2.46-.21-1.53-.42-3.66-.54-6.02-.12-2.36-.13-4.5-.08-6.04.05-1.55.14-2.5.21-2.5Z"/>
      </g>
    </g>
    <g>
      <g>
        <path class="cls-1" d="M181.18,193.53c-1.34-8.9-3.54-18.63-9.41-25.45-4.24-4.92-8.4-8.69-13.95-12.05-5.94-3.59-11.17-4.77-17.55-5.45l-4.18,3.7c13.37,3.24,24.99,12.52,31.82,24.46,6.83,11.94,8.98,26.33,6.76,39.9-1.46,8.89-4.68,17.37-7.14,26.04-2.46,8.67-4.15,17.81-2.45,26.66,7.35-2.86,5.27,1.97,8.37-5.28,3.1-7.25,4.71-23.2,6.51-30.88,2.97-12.65,3.04-29.46,1.21-41.66Z"/>
        <g>
          <g>
            <path class="cls-5" d="M172.47,173.87c-11.27-17.51-37.57-22.91-37.57-22.91-38.5-2.75-45.38,26.83-49.26,53.78-2.42,16.76,6.47,69.1,6.47,69.1l9.43,3.41,61.95-.02c-.03-1.13,4.38-10.61,5.46-13.7,5.7-28.01,10.13-79.35,3.51-89.65Z"/>
            <polygon class="cls-5" points="174.19 266.23 174.19 266.23 174.19 266.23 174.19 266.23"/>
          </g>
          <path class="cls-13" d="M140.38,161l-2.41-2.3-26.03,10.49c-3.77.21-6.75,3.26-6.86,7.03l.23,84.81c-.03,5.75,1.12,10.73,4.59,15.32l3.66,4.83c8.34,11,25.48,10.1,32.08-2.03.46-.85.78-1.59.92-2.19.14-.76.35-1.25.39-1.9.77-6.82.82-12.74.82-12.74.46-7.49.62-10.57.62-10.5,0,0,15.94-1.83,20.25-22.3,2.14-10.18,1.74-24.18,1.14-37.96-.83-19.07-14.06-30.59-29.39-30.57Z"/>
          <g>
            <path class="cls-5" d="M135.68,204.29c-.02,1.4-1.22,2.54-2.68,2.54-1.46,0-2.63-1.12-2.61-2.52.02-1.4,1.22-2.54,2.68-2.54,1.46,0,2.63,1.12,2.61,2.52Z"/>
            <path class="cls-5" d="M161.9,205.18c-.02,1.4-1.22,2.54-2.68,2.54-1.46,0-2.63-1.12-2.61-2.52.02-1.4,1.22-2.54,2.68-2.54,1.46,0,2.63,1.12,2.61,2.52Z"/>
            <path class="cls-5" d="M167.05,197.02c-.35.33-2.28-1.25-5.12-1.39-2.84-.18-5.01,1.18-5.3.82-.14-.16.22-.77,1.16-1.38.93-.61,2.49-1.18,4.26-1.08,1.77.1,3.23.83,4.06,1.54.84.72,1.11,1.35.94,1.5Z"/>
          </g>
          <path class="cls-5" d="M138.16,197.32c-.38.29-2.14-1.48-4.95-1.91-2.81-.47-5.1.66-5.35.27-.13-.18.3-.74,1.3-1.26.99-.52,2.6-.92,4.35-.64,1.75.28,3.13,1.15,3.88,1.95.76.8.96,1.46.78,1.59Z"/>
          <path class="cls-5" d="M148.11,218.04c0-.16,1.78-.38,4.67-.6.73-.04,1.43-.15,1.57-.64.2-.52-.07-1.32-.38-2.18-.6-1.79-1.22-3.67-1.87-5.64-2.59-8.03-4.43-14.62-4.1-14.72.32-.1,2.69,6.33,5.28,14.36.62,1.98,1.22,3.87,1.78,5.67.23.84.66,1.8.23,2.87-.22.53-.78.9-1.25,1-.47.12-.88.11-1.24.11-2.89.01-4.68-.07-4.69-.23Z"/>
          <path class="cls-17" d="M148.39,251.83s-13.92.2-27.26-8.75c0,0,6.23,14.63,26.97,13.73l.28-4.98Z"/>
          <path class="cls-17" d="M146.56,224.84c-.96-1.4-2.71-2.24-4.5-2.14-1.24.07-2.52.6-3.32,1.57-.8.97-1.03,2.39-.4,3.38.71,1.12,2.31,1.45,3.69,1.13,1.38-.32,2.59-1.15,3.75-1.99.32-.23.65-.47.85-.8.21-.33.27-.77.05-1.06"/>
          <path class="cls-5" d="M139.63,219.59c.46,0,.31,3.09,2.85,5.41,2.53,2.33,5.84,2.15,5.84,2.58.03.2-.76.56-2.16.53-1.37-.02-3.34-.56-4.89-1.98-1.55-1.43-2.15-3.26-2.19-4.53-.05-1.3.33-2.05.54-2.02Z"/>
          <path class="cls-5" d="M140.89,186.22c-.4.72-3.15-.07-6.52-.18-3.37-.18-6.18.38-6.51-.37-.15-.36.43-1.01,1.62-1.58,1.18-.58,2.99-1.02,5.01-.94,2.02.09,3.79.68,4.92,1.36,1.14.68,1.66,1.37,1.48,1.72Z"/>
          <path class="cls-5" d="M166.64,184.79c-.53.62-2.46-.15-4.82-.3-2.35-.23-4.38.22-4.8-.48-.19-.34.16-.97,1.07-1.54.89-.57,2.35-.99,3.97-.86,1.62.13,2.99.79,3.78,1.49.8.71,1.04,1.39.8,1.69Z"/>
          <path class="cls-5" d="M105.6,212.42s14.58,4.54,22.83-31.45c2.82-12.31,14.23-22.27,14.23-22.27l-4.63-1.39s-28.75,8.1-29.24,8.46c-.48.36-7.25,14.87-7.25,14.87l4.06,31.78Z"/>
          <path class="cls-13" d="M109.2,211.08c.07-1.54-1.52-5.25-3.03-5.56-4.02-.83-11.34-.88-11.92,9.41-.8,14.06,13.48,11.96,13.53,11.56.04-.31,1.16-10.1,1.42-15.41Z"/>
          <path class="cls-17" d="M103.78,220.92c-.06-.05-.25.16-.68.32-.41.16-1.12.25-1.83-.07-1.45-.63-2.57-3.06-2.5-5.6.04-1.28.37-2.49.88-3.47.49-1,1.19-1.69,1.95-1.77.75-.13,1.26.35,1.41.75.17.4.06.68.13.71.04.04.31-.22.23-.8-.04-.28-.19-.62-.5-.91-.32-.29-.81-.46-1.33-.43-1.09.01-2.12.96-2.68,2.04-.62,1.08-1.03,2.43-1.07,3.87-.07,2.84,1.23,5.57,3.23,6.28.97.31,1.82.06,2.26-.25.45-.32.55-.63.5-.66Z"/>
          <path class="cls-5" d="M115.49,205.54s.78-.05,2.11-.42c1.32-.37,3.18-1.24,5.01-2.91.91-.83,1.8-1.86,2.61-3.06.8-1.21,1.51-2.59,2.12-4.11,1.24-3.03,2.04-6.56,3.03-10.23.99-3.67,2.06-7.13,3.23-10.21,1.16-3.08,2.45-5.77,3.66-7.94,1.22-2.17,2.37-3.84,3.22-4.94.42-.56.78-.96,1.01-1.25.24-.28.37-.42.38-.41,0,0-.1.17-.32.46-.21.3-.55.72-.95,1.29-.81,1.13-1.92,2.8-3.11,4.98-1.18,2.18-2.44,4.86-3.57,7.94-1.15,3.07-2.21,6.53-3.2,10.19-.98,3.65-1.79,7.2-3.07,10.26-.63,1.53-1.36,2.93-2.19,4.15-.84,1.21-1.76,2.25-2.69,3.08-1.88,1.67-3.79,2.52-5.15,2.85-1.36.34-2.15.28-2.15.28Z"/>
          <path class="cls-16" d="M93.73,264.18s.29-1.74.31-4.91c.03-3.18-.37-7.77-1.36-13.35-.5-2.79-1.05-5.85-1.64-9.12-.57-3.28-1.07-6.8-1.26-10.54-.17-3.72-.06-7.68.85-11.64.45-1.97,1.1-3.94,1.98-5.84.87-1.9,2.02-3.7,3.33-5.4,2.64-3.41,5.8-6.23,8.85-8.92,3.08-2.67,6.03-5.29,8.66-7.97,5.28-5.34,9.46-10.69,12.64-15.38,3.2-4.69,5.41-8.73,6.85-11.55.72-1.41,1.25-2.52,1.59-3.28.17-.37.3-.65.39-.86.09-.2.13-.3.12-.3,0,0-.06.09-.16.28-.1.21-.25.49-.43.85-.36.75-.92,1.85-1.66,3.25-1.48,2.8-3.72,6.8-6.94,11.46-3.21,4.66-7.39,9.98-12.67,15.29-2.62,2.67-5.57,5.27-8.65,7.94-3.06,2.68-6.24,5.52-8.91,8.97-1.33,1.72-2.49,3.55-3.37,5.48-.89,1.92-1.54,3.92-2,5.92-.91,4.01-1.02,7.99-.84,11.74.2,3.75.72,7.29,1.3,10.57.61,3.28,1.17,6.33,1.69,9.12,1.03,5.57,1.47,10.14,1.48,13.31.02,1.58-.03,2.81-.09,3.64-.03.4-.05.72-.06.95-.01.21-.01.32,0,.32Z"/>
          <path class="cls-16" d="M89.2,265.5s.29-1.74.31-4.91c.03-3.18-.37-7.77-1.36-13.35-.5-2.79-1.05-5.85-1.64-9.12-.57-3.28-1.07-6.8-1.26-10.54-.17-3.72-.06-7.68.85-11.64.45-1.97,1.1-3.94,1.98-5.84.87-1.9,2.02-3.7,3.33-5.4,2.64-3.41,5.8-6.23,8.85-8.92,3.08-2.67,6.03-5.29,8.66-7.97,5.28-5.34,9.46-10.69,12.64-15.38,3.2-4.69,5.41-8.73,6.85-11.55.72-1.41,1.25-2.52,1.59-3.28.17-.37.3-.65.39-.86.09-.2.13-.3.12-.3,0,0-.06.09-.16.28-.1.21-.25.49-.43.85-.36.75-.92,1.85-1.66,3.25-1.48,2.8-3.72,6.8-6.94,11.46-3.21,4.66-7.39,9.98-12.67,15.29-2.62,2.67-5.57,5.27-8.65,7.94-3.06,2.68-6.24,5.52-8.91,8.97-1.33,1.72-2.49,3.55-3.37,5.48-.89,1.92-1.54,3.92-2,5.92-.91,4.01-1.02,7.99-.84,11.74.2,3.75.72,7.29,1.3,10.57.61,3.28,1.17,6.33,1.69,9.12,1.03,5.57,1.47,10.14,1.48,13.31.02,1.58-.03,2.81-.09,3.64-.03.4-.05.72-.06.95-.01.21-.01.32,0,.32Z"/>
        </g>
        <path class="cls-5" d="M68.87,449.37s-1.31-11.7,6.17-31.26c6.13-16.02,13.33-24.87,13.33-24.87l96.96-6.39,7.48,62.52h-123.94Z"/>
        <g>
          <path class="cls-3" d="M184.23,350.49c1.42-21.6,0-54.33,0-54.33l-16.02-26.87-21.09-3.31s-.05,14.76-11.08,17.2c-18.87,4.17-31.17-18.52-31.17-18.52-1.78,0-28.63,5.64-37.14,13.74-8.74,8.32-23.21,30.39-27.29,36.71h0s-28.27,41.28-32.41,52.6c-3.13,8.56-.22,15.12,1.39,17.82.86,2.55,27.03,40.08,47.27,55.06l1.58-2.99,10.51-18.02-27.23-44.74,31.58-33.27,6.21-5.83,1.78,7.86,7.66,36.92s-15.26,30.51-17.4,46.37c0,0,75.03,25.86,121.33,13.09,0,0-9.91-67.89-8.48-89.49Z"/>
          <g>
            <path class="cls-13" d="M105.32,411.49s-12.7-3.43-13.98-2.71c-1.28.72-10.76,5.72-10.76,5.72,0,0-2.91,3.57-4.47,4.85,0,0-3.25,3.09-5.5,3.19-2.25.1-3.57-.38-3.57-.38l-8.78,15.45s5.21,4.96,7.97,4.92c2.76-.05,18.06-6.48,18.06-6.48l3.7-.81s13.88,2.01,15.02-2.17l.13-1.19-13.64-2.67-5.19.3,9.19-2.37s13,.63,14.22.42c1.23-.21,2.79-1.94,2.39-3.01l-2.68-.63s3.15-1.71,3.25-3.59l-12.02-3.25s7.75-2.89,6.67-5.58Z"/>
            <path class="cls-17" d="M108.85,423.87s-.4-.08-1.1-.28c-.7-.2-1.72-.48-2.98-.81-2.52-.66-6.03-1.49-9.91-2.35-.49-.1-.97-.24-1.41-.27-.45-.04-.91,0-1.34.09-.86.24-1.75.54-2.55.81-1.63.56-3.07,1.11-4.26,1.63-1.19.51-2.13.99-2.76,1.35-.64.35-.97.58-1,.54-.02-.02.27-.32.88-.73.61-.42,1.53-.96,2.71-1.52,1.18-.57,2.63-1.17,4.26-1.75.83-.29,1.66-.59,2.6-.86.48-.12,1-.16,1.51-.11.53.04,1,.18,1.49.28,3.89.86,7.39,1.76,9.9,2.51,1.25.38,2.26.72,2.94.99.68.27,1.05.45,1.03.49Z"/>
            <path class="cls-17" d="M98.96,417.66c-.05.08-.96-.44-2.56-.93-1.59-.5-3.91-.88-6.42-.51-2.51.37-4.63,1.41-6,2.34-1.39.93-2.11,1.7-2.18,1.63-.05-.04.58-.91,1.95-1.96,1.35-1.04,3.53-2.19,6.15-2.58,2.62-.39,5.04.08,6.63.69,1.61.61,2.47,1.26,2.43,1.31Z"/>
          </g>
          <polygon class="cls-3" points="249.41 321.09 199.91 284.24 181.42 272.08 167.77 269.3 173.57 327.01 186.39 327.01 241.58 351 309.19 356.74 310.19 335.78 249.41 321.09"/>
          <path class="cls-5" d="M185.13,375.79s-.04-.29-.07-.86c-.03-.61-.06-1.43-.11-2.46-.08-2.13-.17-5.22-.24-9.04-.07-3.82-.12-8.36-.13-13.41-.02-5.05.05-10.6-.04-16.41-.03-11.66-2.21-22.04-3.94-29.45-.87-3.71-1.64-6.71-2.15-8.78-.24-1-.44-1.8-.58-2.39-.13-.55-.19-.84-.17-.84.02,0,.11.28.27.81.17.58.39,1.37.68,2.36.57,2.06,1.39,5.04,2.31,8.74,1.83,7.39,4.08,17.82,4.11,29.53.09,5.83.01,11.38,0,16.42-.02,5.05-.01,9.59.01,13.41.03,3.78.06,6.85.07,9.04,0,1.03,0,1.85,0,2.46,0,.56-.01.86-.03.86Z"/>
          <g class="cls-12">
            <path d="M184.82,328.1c4.14-14.89-.03-31.82-10.63-43.08,5.61,13.45,9.24,27.73,10.75,42.22"/>
          </g>
        </g>
        <path class="cls-1" d="M144.01,151.41c-31,2.78-32.22,40.67-36.34,70.56-5.89,42.7,25.36,51.87,25.36,51.87l-38.81-7.27s-21.23-8.6-21.08-32.16c.15-23.57,3.86-52.42,28.57-74.34,21.34-18.93,40.35-9.94,42.3-8.64Z"/>
        <path class="cls-1" d="M174.19,264.67c-2.34-2.11-1.43-2.93-8.13-3.54-7.57-.7-16.02,4.15-23.55,5.15-7.53,1-15.58,0-21.9-4.21-7.41-4.94-11.46-13.46-15.15-21.57l-18.2,14.97c-3.53,2.91-5.64,7.27-5.46,11.84.04,1.02.17,1.84.43,2.24,1.06,1.6,8.87-2.17,10.45-1.07,8.34,5.83,11.89,15.09,19.53,21.81,8.93,7.86,17.19,14.09,23.48,13.88,6.17-.21,17.9-6.88,22.06-14.59,3.85-7.13,7.21-12.33,10.23-17.77,1.6-2.87,7.15,1.17,7.81-2.25.35-1.77-.26-3.68-1.59-4.89Z"/>
        <path class="cls-5" d="M73.14,309.19s.09.24.22.71c.14.52.32,1.2.54,2.06.46,1.85,1.1,4.43,1.88,7.6,1.55,6.42,3.64,15.31,5.85,25.15,2.21,9.84,4.12,18.78,5.38,25.26.63,3.24,1.1,5.88,1.4,7.7.12.88.22,1.58.3,2.11.06.48.09.74.07.74-.02,0-.08-.25-.17-.72-.1-.53-.23-1.22-.4-2.09-.38-1.87-.91-4.47-1.56-7.67-1.36-6.47-3.32-15.38-5.53-25.22-2.22-9.81-4.23-18.69-5.7-25.18-.72-3.18-1.3-5.78-1.72-7.64-.19-.86-.34-1.56-.45-2.08-.1-.48-.14-.73-.12-.73Z"/>
        <path class="cls-5" d="M174.19,268.59s-.06.05-.2.14c-.17.1-.37.21-.62.36-.56.29-1.34.82-2.45,1.28-2.16,1.07-5.45,2.27-9.64,3.23-4.2.97-9.31,1.56-14.99,1.7-5.68.18-11.93-.12-18.46-.54-3.27-.21-6.46-.53-9.52-1.01-3.06-.49-5.98-1.1-8.74-1.81-5.5-1.46-10.31-3.28-14.17-5.19-3.86-1.9-6.83-3.74-8.78-5.14-1-.66-1.71-1.27-2.22-1.65-.23-.18-.41-.33-.56-.45-.13-.1-.19-.16-.18-.17,0,0,.08.03.21.12.16.11.35.24.59.4.53.35,1.26.93,2.27,1.56,1.98,1.34,4.96,3.13,8.82,4.97,3.86,1.85,8.65,3.63,14.13,5.06,2.74.68,5.65,1.29,8.69,1.77,3.04.47,6.22.78,9.48.99,6.53.42,12.75.73,18.41.58,5.66-.12,10.74-.67,14.92-1.58,4.18-.9,7.47-2.05,9.64-3.05,1.12-.44,1.91-.94,2.48-1.19.26-.13.47-.23.65-.31.15-.07.23-.1.23-.09Z"/>
        <path class="cls-5" d="M114.71,272.65s-.07-.03-.2-.12c-.15-.11-.33-.24-.55-.4-.51-.38-1.21-.91-2.09-1.56-.9-.68-1.96-1.58-3.21-2.6-.62-.51-1.25-1.1-1.94-1.7-.69-.6-1.4-1.25-2.12-1.97-2.9-2.82-6.23-6.39-9.04-10.99-2.81-4.57-4.85-10.34-5.06-16.58-.23-6.23,1.02-12.08,2.36-17.25,1.37-5.18,2.86-9.77,4.07-13.63,1.19-3.83,2.15-6.94,2.84-9.15.32-1.05.57-1.88.75-2.49.08-.26.15-.47.21-.65.05-.14.08-.22.09-.22,0,0,0,.08-.04.23-.04.18-.09.4-.16.66-.16.62-.38,1.46-.66,2.52-.6,2.18-1.51,5.33-2.68,9.2-1.16,3.88-2.62,8.47-3.96,13.64-1.32,5.16-2.54,10.97-2.31,17.11.2,6.14,2.19,11.82,4.95,16.35,2.75,4.56,6.02,8.14,8.88,10.97.71.72,1.4,1.38,2.08,1.99.67.61,1.3,1.2,1.9,1.73,1.23,1.03,2.26,1.95,3.14,2.66.85.69,1.53,1.24,2.02,1.64.21.18.38.32.52.44.12.1.17.16.17.16Z"/>
        <path class="cls-5" d="M144.01,151.41c.01.11-1.61.19-4.1.91-1.25.33-2.68.92-4.24,1.63-1.53.76-3.16,1.71-4.79,2.83-3.25,2.27-5.87,4.75-7.7,6.59-1.83,1.85-2.89,3.07-2.95,3.01-.03-.02.21-.35.66-.92.45-.58,1.14-1.38,2.02-2.35,1.77-1.92,4.37-4.47,7.67-6.77,1.65-1.14,3.31-2.09,4.88-2.84,1.59-.7,3.06-1.26,4.35-1.55.63-.18,1.22-.27,1.74-.36.51-.1.96-.15,1.33-.17.73-.05,1.14-.06,1.14-.03Z"/>
        <g class="cls-12">
          <path d="M104.39,183.8c.24-.92.46-1.89.59-2.86.25-1.82-2.36-2.44-3.01-.73-2.05,5.43-4.09,10.85-6.14,16.28-4.05,10.73-8.15,21.73-8.36,33.19-.21,11.47,3.45,24.22,13.14,30.35l-2.82-5.02c-7.31-10.03-7.52-23.68-4.72-35.77,2.8-12.09,8.22-23.43,11.32-35.45Z"/>
        </g>
        <path class="cls-5" d="M174.75,271.34s.24-.45.46-1.33c.21-.86.27-2.22-.32-3.7-.57-1.48-1.92-2.97-3.83-3.85-1.9-.93-4.28-1.21-6.73-1.01-2.45.21-4.78.72-6.87,1.18-2.1.48-3.96,1-5.52,1.47-1.56.47-2.81.89-3.67,1.19-.86.29-1.34.45-1.36.41-.01-.03.44-.25,1.29-.6.84-.35,2.08-.83,3.63-1.35,1.55-.52,3.42-1.07,5.52-1.58,2.11-.49,4.43-1.02,6.94-1.23,2.5-.21,4.99.1,6.98,1.1,2,.95,3.42,2.57,3.97,4.15.59,1.58.45,3.01.18,3.88-.14.44-.3.77-.43.98-.13.2-.21.31-.22.3Z"/>
      </g>
      <g class="cls-12">
        <path d="M164.44,273.16c-11.85,5.29-25.16,7.23-38.03,5.56-12.86-1.67-23.58-5.39-33.69-13.53,0,0,16.11,9.3,41.12,9.5,20.78.16,30.6-1.54,30.6-1.54Z"/>
      </g>
    </g>
  </g>
</svg>