<?xml version="1.0" encoding="UTF-8"?>
<svg xmlns="http://www.w3.org/2000/svg" viewBox="0 0 457.18 451.68">
  <defs>
    <style>
      .cls-1 {
        fill: #0097b2;
      }

      .cls-2 {
        fill: #ffbe9d;
      }

      .cls-3 {
        fill: #ebebeb;
      }

      .cls-4 {
        fill: #263238;
      }

      .cls-5 {
        fill: #eb996e;
      }

      .cls-6 {
        fill: #fff;
      }

      .cls-7 {
        fill: #fafafa;
      }

      .cls-8 {
        opacity: .2;
      }

      .cls-9 {
        opacity: .3;
      }

      .cls-10 {
        fill: #f5f5f5;
      }

      .cls-11 {
        fill: #455a64;
      }

      .cls-12 {
        fill: #e0e0e0;
      }
    </style>
  </defs>
  <g id="Background_Complete">
    <g>
      <rect class="cls-3" x=".28" y="20.39" width="99.74" height="129.34"/>
      <g>
        <g>
          <path class="cls-12" d="M7.08,118.56s.18-.05.5.07c.3.13.73.49.87,1.13.07.31.05.7-.14,1.05-.19.35-.52.66-.96.82-.43.17-.97.18-1.45-.05-.48-.22-.88-.64-1.14-1.16-.54-1.05-.34-2.46.38-3.58.36-.57.86-1.09,1.52-1.41.33-.16.71-.25,1.09-.24.39.02.77.15,1.1.36.66.44,1.09,1.13,1.37,1.86.28.74.42,1.53.48,2.35.09,1.62-.28,3.34-1.15,4.84-.85,1.5-2,2.73-2.99,3.97-.99,1.24-1.86,2.53-2.26,3.92-.39,1.38-.33,2.83.25,3.96.56,1.15,1.76,1.75,2.83,1.73.53-.01,1.04-.17,1.42-.45.39-.28.65-.67.76-1.08.2-.83-.04-1.61-.38-2.1-.33-.52-.79-.74-1.09-.8-.16-.04-.28-.04-.36-.03-.08,0-.13,0-.13,0,0,0,.04-.01.13-.02.08-.01.21-.03.38,0,.32.04.82.26,1.19.79.37.51.66,1.31.45,2.22-.1.45-.39.89-.81,1.2-.42.32-.97.49-1.54.51-.58,0-1.19-.12-1.73-.44-.56-.3-1.03-.81-1.34-1.4-.64-1.2-.71-2.73-.3-4.17.42-1.45,1.3-2.78,2.3-4.03,1-1.26,2.12-2.48,2.95-3.94.84-1.44,1.2-3.09,1.11-4.66-.05-.78-.18-1.55-.45-2.25-.27-.69-.67-1.34-1.25-1.72-.57-.39-1.31-.41-1.9-.11-.6.28-1.08.77-1.42,1.3-.69,1.06-.89,2.37-.4,3.33.23.48.59.87,1.02,1.07.42.21.9.21,1.3.06.4-.14.71-.41.89-.73.18-.31.21-.66.15-.95-.11-.6-.49-.96-.77-1.1-.29-.14-.47-.11-.47-.13Z"/>
          <path class="cls-12" d="M7.95,106.79s-.18.05-.5-.07c-.3-.13-.73-.49-.87-1.13-.07-.31-.05-.7.14-1.05.19-.35.53-.66.96-.82.43-.17.97-.18,1.45.05.48.22.88.64,1.14,1.16.54,1.05.34,2.46-.38,3.58-.36.57-.86,1.09-1.53,1.41-.33.16-.71.25-1.09.24-.39-.01-.77-.15-1.1-.36-.66-.44-1.09-1.13-1.37-1.86-.28-.74-.42-1.53-.48-2.35-.09-1.62.28-3.34,1.15-4.84.85-1.5,2-2.73,2.99-3.97.99-1.24,1.86-2.53,2.26-3.92.39-1.38.33-2.83-.25-3.96-.56-1.15-1.76-1.75-2.83-1.73-.53.01-1.04.17-1.42.45-.39.28-.65.67-.76,1.08-.2.83.04,1.61.38,2.1.33.52.79.74,1.09.8.16.04.28.04.36.03.08,0,.13,0,.13,0,0,0-.04.01-.13.02-.08.01-.21.03-.38,0-.32-.04-.82-.26-1.19-.79-.37-.51-.66-1.31-.45-2.22.1-.45.39-.89.81-1.2.42-.32.97-.49,1.54-.51.58,0,1.19.12,1.73.44.56.3,1.03.81,1.34,1.4.64,1.2.71,2.73.3,4.17-.42,1.45-1.3,2.78-2.3,4.03-1,1.26-2.12,2.48-2.95,3.94-.84,1.44-1.2,3.09-1.11,4.66.05.78.18,1.55.45,2.25.27.69.67,1.34,1.25,1.72.57.39,1.31.41,1.9.11.6-.28,1.08-.77,1.42-1.3.69-1.06.89-2.37.4-3.33-.23-.48-.59-.87-1.02-1.07-.42-.21-.9-.21-1.3-.06-.4.14-.71.41-.89.73-.18.31-.21.66-.15.95.11.6.49.96.77,1.1.29.14.47.11.47.13Z"/>
          <path class="cls-12" d="M8.53,112.44c0,.56-.45,1.01-1.01,1.01s-1.01-.45-1.01-1.01.45-1.01,1.01-1.01,1.01.45,1.01,1.01Z"/>
          <circle class="cls-12" cx="7.95" cy="85.42" r="1.01"/>
        </g>
        <g>
          <path class="cls-12" d="M7.52,52.17s.18,0,.47-.14c.28-.14.66-.5.77-1.1.06-.29.03-.64-.15-.95-.18-.31-.49-.59-.89-.73-.4-.14-.88-.15-1.3.07-.43.21-.79.6-1.02,1.08-.48.97-.29,2.28.41,3.34.34.53.82,1.02,1.42,1.3.59.3,1.33.28,1.9-.12.57-.39.98-1.03,1.25-1.73.26-.7.4-1.47.45-2.26.08-1.57-.27-3.22-1.11-4.67-.83-1.46-1.95-2.69-2.95-3.95-1-1.25-1.88-2.59-2.3-4.04-.4-1.44-.33-2.97.3-4.18.31-.6.78-1.11,1.33-1.41.55-.32,1.16-.45,1.74-.44.58.02,1.13.2,1.55.52.42.32.7.76.81,1.21.2.91-.08,1.71-.45,2.22-.36.53-.86.75-1.19.8-.17.03-.29.02-.38,0-.08-.01-.13-.02-.13-.02s.04,0,.13,0c.08,0,.21,0,.36-.03.31-.06.77-.29,1.09-.81.34-.49.58-1.27.38-2.1-.1-.41-.37-.8-.76-1.08-.39-.28-.89-.44-1.43-.45-1.07-.02-2.27.59-2.83,1.74-.58,1.13-.64,2.59-.25,3.97.4,1.39,1.27,2.69,2.26,3.93.99,1.25,2.13,2.48,2.99,3.99.87,1.5,1.24,3.22,1.15,4.85-.05.81-.19,1.61-.47,2.35-.28.73-.72,1.43-1.37,1.87-.33.21-.71.35-1.1.36-.39.01-.76-.08-1.09-.24-.67-.32-1.17-.85-1.53-1.41-.72-1.12-.92-2.53-.39-3.59.26-.52.66-.94,1.14-1.17.48-.23,1.02-.22,1.45-.05.44.16.77.47.96.82.19.35.21.74.14,1.05-.14.64-.56,1-.87,1.13-.32.13-.5.08-.5.08Z"/>
          <path class="cls-12" d="M7.82,63.97s-.18,0-.47.13c-.28.14-.66.5-.77,1.1-.06.29-.03.64.15.95.18.31.49.59.89.73.39.14.88.15,1.3-.07.43-.21.79-.6,1.02-1.08.48-.97.29-2.28-.41-3.34-.34-.53-.82-1.02-1.42-1.3-.59-.3-1.33-.28-1.9.12-.57.39-.98,1.03-1.25,1.73-.26.7-.4,1.47-.45,2.26-.08,1.57.27,3.22,1.11,4.67.83,1.46,1.95,2.69,2.95,3.95,1,1.25,1.88,2.59,2.3,4.04.4,1.44.33,2.97-.3,4.18-.31.6-.78,1.11-1.33,1.41-.55.32-1.16.45-1.74.44-.58-.02-1.13-.2-1.55-.52-.42-.32-.71-.76-.81-1.21-.2-.91.08-1.71.45-2.22.36-.53.86-.75,1.19-.8.17-.03.29-.02.38,0,.08.01.13.02.13.02,0,0-.04,0-.13,0-.08,0-.21,0-.36.03-.31.06-.77.29-1.09.81-.34.49-.58,1.27-.38,2.1.1.41.37.8.76,1.08.39.28.89.44,1.43.45,1.07.02,2.27-.59,2.83-1.74.58-1.13.64-2.59.25-3.97-.4-1.39-1.27-2.69-2.26-3.93-.99-1.25-2.13-2.48-2.99-3.99-.87-1.5-1.24-3.22-1.15-4.85.05-.81.19-1.61.47-2.35.28-.73.72-1.43,1.37-1.87.33-.21.71-.35,1.1-.36.39-.01.76.08,1.09.24.67.32,1.17.85,1.53,1.41.72,1.12.92,2.53.39,3.59-.26.52-.66.94-1.14,1.17-.48.23-1.02.22-1.45.05-.44-.16-.77-.47-.96-.82-.19-.35-.21-.74-.14-1.05.14-.64.56-1,.87-1.13.32-.13.5-.08.5-.08Z"/>
          <circle class="cls-12" cx="7.95" cy="58.31" r="1.01"/>
        </g>
      </g>
      <g>
        <g>
          <path class="cls-12" d="M91.26,118.56s.18-.05.5.07c.3.13.73.49.87,1.13.07.31.05.7-.14,1.05-.19.35-.52.66-.96.82-.43.17-.97.18-1.45-.05-.48-.22-.88-.64-1.14-1.16-.54-1.05-.34-2.46.38-3.58.36-.57.86-1.09,1.53-1.41.33-.16.71-.25,1.09-.24.39.02.77.15,1.1.36.66.44,1.09,1.13,1.37,1.86.28.74.42,1.53.48,2.35.09,1.62-.28,3.34-1.15,4.84-.85,1.5-2,2.73-2.99,3.97-.99,1.24-1.86,2.53-2.26,3.92-.39,1.38-.33,2.83.25,3.96.56,1.15,1.76,1.75,2.83,1.73.53-.01,1.04-.17,1.42-.45.39-.28.65-.67.76-1.08.2-.83-.04-1.61-.38-2.1-.33-.52-.79-.74-1.09-.8-.16-.04-.28-.04-.36-.03-.08,0-.13,0-.13,0,0,0,.04-.01.13-.02.08-.01.21-.03.38,0,.32.04.82.26,1.19.79.37.51.66,1.31.45,2.22-.1.45-.39.89-.81,1.2-.42.32-.97.49-1.54.51-.58,0-1.19-.12-1.73-.44-.56-.3-1.03-.81-1.34-1.4-.64-1.2-.71-2.73-.3-4.17.42-1.45,1.3-2.78,2.3-4.03,1-1.26,2.12-2.48,2.95-3.94.84-1.44,1.2-3.09,1.11-4.66-.05-.78-.18-1.55-.45-2.25-.27-.69-.67-1.34-1.25-1.72-.57-.39-1.31-.41-1.9-.11-.6.28-1.08.77-1.42,1.3-.69,1.06-.89,2.37-.4,3.33.23.48.59.87,1.02,1.07.42.21.9.21,1.3.06.4-.14.71-.41.89-.73.18-.31.21-.66.15-.95-.11-.6-.49-.96-.77-1.1-.29-.14-.47-.11-.47-.13Z"/>
          <path class="cls-12" d="M92.14,106.79s-.18.05-.5-.07c-.3-.13-.73-.49-.87-1.13-.07-.31-.05-.7.14-1.05.19-.35.52-.66.96-.82.43-.17.97-.18,1.45.05.48.22.88.64,1.14,1.16.54,1.05.34,2.46-.38,3.58-.36.57-.86,1.09-1.53,1.41-.33.16-.71.25-1.09.24-.39-.01-.77-.15-1.1-.36-.66-.44-1.09-1.13-1.37-1.86-.28-.74-.42-1.53-.48-2.35-.09-1.62.28-3.34,1.15-4.84.85-1.5,2-2.73,2.99-3.97.99-1.24,1.86-2.53,2.26-3.92.39-1.38.33-2.83-.25-3.96-.56-1.15-1.76-1.75-2.83-1.73-.53.01-1.04.17-1.42.45-.39.28-.65.67-.76,1.08-.2.83.04,1.61.38,2.1.33.52.79.74,1.09.8.16.04.28.04.36.03.08,0,.13,0,.13,0,0,0-.04.01-.13.02-.08.01-.21.03-.38,0-.32-.04-.82-.26-1.19-.79-.37-.51-.66-1.31-.45-2.22.1-.45.39-.89.81-1.2.42-.32.97-.49,1.54-.51.58,0,1.19.12,1.73.44.56.3,1.03.81,1.34,1.4.64,1.2.71,2.73.3,4.17-.42,1.45-1.3,2.78-2.3,4.03-1,1.26-2.12,2.48-2.95,3.94-.84,1.44-1.2,3.09-1.11,4.66.05.78.18,1.55.45,2.25.27.69.67,1.34,1.25,1.72.57.39,1.31.41,1.9.11.6-.28,1.08-.77,1.42-1.3.69-1.06.89-2.37.4-3.33-.23-.48-.59-.87-1.02-1.07-.42-.21-.9-.21-1.3-.06-.4.14-.71.41-.89.73-.18.31-.21.66-.15.95.11.6.49.96.77,1.1.29.14.47.11.47.13Z"/>
          <path class="cls-12" d="M92.71,112.44c0,.56-.45,1.01-1.01,1.01s-1.01-.45-1.01-1.01.45-1.01,1.01-1.01,1.01.45,1.01,1.01Z"/>
          <circle class="cls-12" cx="92.14" cy="85.42" r="1.01"/>
        </g>
        <g>
          <path class="cls-12" d="M91.71,52.17s.18,0,.47-.14c.28-.14.66-.5.77-1.1.06-.29.03-.64-.15-.95-.18-.31-.49-.59-.89-.73-.39-.14-.88-.15-1.3.07-.43.21-.79.6-1.02,1.08-.48.97-.29,2.28.41,3.34.34.53.82,1.02,1.42,1.3.59.3,1.33.28,1.9-.12.57-.39.98-1.03,1.25-1.73.26-.7.4-1.47.45-2.26.08-1.57-.27-3.22-1.11-4.67-.83-1.46-1.95-2.69-2.95-3.95-1-1.25-1.88-2.59-2.3-4.04-.4-1.44-.33-2.97.3-4.18.31-.6.78-1.11,1.33-1.41.55-.32,1.16-.45,1.74-.44.58.02,1.13.2,1.55.52.42.32.71.76.81,1.21.2.91-.08,1.71-.45,2.22-.36.53-.86.75-1.19.8-.17.03-.29.02-.38,0-.08-.01-.13-.02-.13-.02s.04,0,.13,0c.08,0,.21,0,.36-.03.31-.06.76-.29,1.09-.81.34-.49.58-1.27.38-2.1-.1-.41-.37-.8-.76-1.08-.39-.28-.89-.44-1.43-.45-1.07-.02-2.27.59-2.83,1.74-.58,1.13-.64,2.59-.25,3.97.4,1.39,1.27,2.69,2.26,3.93.99,1.25,2.13,2.48,2.99,3.99.87,1.5,1.24,3.22,1.15,4.85-.05.81-.19,1.61-.47,2.35-.28.73-.72,1.43-1.37,1.87-.33.21-.71.35-1.1.36-.39.01-.76-.08-1.09-.24-.67-.32-1.17-.85-1.53-1.41-.72-1.12-.92-2.53-.38-3.59.26-.52.66-.94,1.14-1.17.48-.23,1.02-.22,1.45-.05.44.16.77.47.96.82.19.35.21.74.14,1.05-.14.64-.56,1-.87,1.13-.32.13-.5.08-.5.08Z"/>
          <path class="cls-12" d="M92.01,63.97s-.18,0-.47.13c-.28.14-.66.5-.77,1.1-.06.29-.03.64.15.95.18.31.49.59.89.73.39.14.88.15,1.3-.07.43-.21.79-.6,1.02-1.08.48-.97.29-2.28-.41-3.34-.34-.53-.82-1.02-1.42-1.3-.59-.3-1.33-.28-1.9.12-.57.39-.98,1.03-1.25,1.73-.26.7-.4,1.47-.45,2.26-.08,1.57.27,3.22,1.11,4.67.83,1.46,1.95,2.69,2.95,3.95,1,1.25,1.88,2.59,2.3,4.04.4,1.44.33,2.97-.3,4.18-.31.6-.78,1.11-1.33,1.41-.55.32-1.16.45-1.74.44-.58-.02-1.13-.2-1.55-.52-.42-.32-.71-.76-.81-1.21-.2-.91.08-1.71.45-2.22.36-.53.86-.75,1.19-.8.17-.03.29-.02.38,0,.08.01.13.02.13.02,0,0-.04,0-.13,0-.08,0-.21,0-.36.03-.31.06-.76.29-1.09.81-.34.49-.58,1.27-.38,2.1.1.41.37.8.76,1.08.39.28.89.44,1.43.45,1.07.02,2.27-.59,2.83-1.74.58-1.13.64-2.59.25-3.97-.4-1.39-1.27-2.69-2.26-3.93-.99-1.25-2.13-2.48-2.99-3.99-.87-1.5-1.24-3.22-1.15-4.85.05-.81.19-1.61.47-2.35.28-.73.72-1.43,1.37-1.87.33-.21.71-.35,1.1-.36.39-.01.76.08,1.09.24.67.32,1.17.85,1.53,1.41.72,1.12.92,2.53.38,3.59-.26.52-.66.94-1.14,1.17-.48.23-1.02.22-1.45.05-.44-.16-.77-.47-.96-.82-.19-.35-.21-.74-.14-1.05.14-.64.56-1,.87-1.13.32-.13.5-.08.5-.08Z"/>
          <circle class="cls-12" cx="92.14" cy="58.31" r="1.01"/>
        </g>
      </g>
      <g>
        <path class="cls-12" d="M43.22,142.51s0-.18-.13-.47c-.14-.28-.5-.66-1.1-.77-.29-.06-.64-.03-.95.15-.31.18-.59.49-.73.89-.14.39-.15.88.07,1.3.21.43.6.79,1.08,1.02.97.48,2.28.29,3.34-.41.53-.34,1.02-.82,1.3-1.42.3-.59.28-1.33-.12-1.9-.39-.57-1.03-.98-1.73-1.25-.7-.26-1.47-.4-2.26-.45-1.57-.08-3.22.27-4.67,1.11-1.46.83-2.69,1.95-3.95,2.95-1.25,1-2.59,1.88-4.04,2.3-1.44.4-2.97.33-4.18-.3-.6-.31-1.11-.78-1.41-1.33-.32-.55-.45-1.16-.44-1.74.02-.58.2-1.13.52-1.55.32-.42.76-.7,1.21-.81.91-.2,1.71.08,2.22.45.53.36.75.86.8,1.19.03.17.02.29,0,.38-.01.08-.02.13-.02.13,0,0,0-.04,0-.13,0-.08,0-.21-.03-.36-.06-.31-.29-.77-.8-1.09-.49-.34-1.27-.58-2.1-.38-.41.1-.8.37-1.08.76-.28.39-.44.89-.45,1.43-.02,1.07.59,2.27,1.74,2.83,1.13.58,2.59.64,3.97.25,1.39-.4,2.69-1.27,3.93-2.26,1.25-.99,2.48-2.13,3.99-2.99,1.5-.87,3.22-1.24,4.85-1.15.81.05,1.61.19,2.35.47.73.28,1.43.72,1.87,1.37.21.33.35.71.36,1.1.01.39-.08.76-.24,1.09-.32.67-.85,1.17-1.41,1.53-1.12.72-2.53.92-3.59.39-.52-.26-.94-.66-1.17-1.14-.23-.48-.22-1.02-.05-1.45.16-.44.47-.77.82-.96.35-.19.74-.21,1.05-.14.64.14,1,.56,1.13.87.13.32.08.5.08.5Z"/>
        <path class="cls-12" d="M71.6,142.21s.05.18-.08.5c-.13.3-.49.73-1.13.87-.31.07-.7.05-1.05-.14-.35-.19-.66-.53-.82-.96-.17-.43-.18-.97.05-1.45.22-.48.65-.88,1.17-1.14,1.05-.54,2.46-.33,3.59.39.57.36,1.1.86,1.41,1.53.16.33.25.71.24,1.09-.02.39-.15.77-.36,1.1-.44.66-1.14,1.09-1.87,1.37-.74.28-1.54.42-2.35.47-1.63.09-3.35-.28-4.85-1.15-1.51-.85-2.74-1.99-3.99-2.99-1.24-.99-2.53-1.86-3.93-2.26-1.38-.39-2.84-.33-3.97.25-1.16.56-1.76,1.76-1.74,2.83.01.53.17,1.04.45,1.43.29.39.67.65,1.08.76.83.2,1.61-.04,2.1-.38.52-.33.74-.79.81-1.09.04-.16.04-.28.03-.36,0-.08,0-.13,0-.13,0,0,.01.04.02.13.01.08.03.21,0,.38-.05.32-.26.82-.8,1.19-.51.37-1.31.65-2.22.45-.45-.1-.89-.39-1.21-.81-.32-.42-.5-.97-.52-1.55,0-.58.12-1.19.44-1.74.3-.56.81-1.02,1.41-1.33,1.21-.64,2.73-.7,4.18-.3,1.46.41,2.79,1.3,4.04,2.3,1.26,1,2.48,2.12,3.95,2.95,1.45.84,3.1,1.2,4.67,1.11.78-.05,1.56-.18,2.26-.45.7-.26,1.34-.67,1.73-1.25.39-.57.41-1.31.12-1.9-.28-.6-.77-1.08-1.3-1.42-1.06-.69-2.37-.89-3.34-.41-.48.23-.87.59-1.08,1.02-.21.43-.21.91-.07,1.3.14.4.41.71.73.89.31.18.66.21.95.15.6-.11.96-.49,1.1-.77.14-.29.11-.47.13-.47Z"/>
        <path class="cls-12" d="M49.35,141.07c-.56,0-1.02.45-1.02,1.01s.46,1.01,1.02,1.01,1.02-.45,1.02-1.01-.46-1.01-1.02-1.01Z"/>
        <path class="cls-12" d="M81.5,141.07c-.56,0-1.02.45-1.02,1.01s.46,1.01,1.02,1.01,1.02-.45,1.02-1.01-.45-1.01-1.02-1.01Z"/>
        <circle class="cls-12" cx="18.8" cy="142.08" r="1.02"/>
      </g>
      <g>
        <path class="cls-12" d="M43.22,27.95s0-.18-.13-.47c-.14-.28-.5-.66-1.1-.77-.29-.06-.64-.03-.95.15-.31.18-.59.49-.73.89-.14.4-.15.88.07,1.3.21.43.6.79,1.08,1.02.97.48,2.28.29,3.34-.41.53-.34,1.02-.82,1.3-1.42.3-.59.28-1.33-.12-1.9-.39-.57-1.03-.98-1.73-1.25-.7-.26-1.47-.4-2.26-.45-1.57-.08-3.22.27-4.67,1.11-1.46.83-2.69,1.95-3.95,2.95-1.25,1-2.59,1.88-4.04,2.3-1.44.4-2.97.33-4.18-.3-.6-.31-1.11-.78-1.41-1.33-.32-.55-.45-1.16-.44-1.74.02-.58.2-1.13.52-1.55.32-.42.76-.71,1.21-.81.91-.2,1.71.08,2.22.45.53.36.75.86.8,1.19.03.17.02.29,0,.38-.01.08-.02.13-.02.13,0,0,0-.04,0-.13,0-.08,0-.21-.03-.36-.06-.31-.29-.76-.8-1.09-.49-.34-1.27-.58-2.1-.38-.41.1-.8.37-1.08.76-.28.39-.44.89-.45,1.43-.02,1.07.59,2.27,1.74,2.83,1.13.58,2.59.64,3.97.25,1.39-.4,2.69-1.27,3.93-2.26,1.25-.99,2.48-2.13,3.99-2.99,1.5-.87,3.22-1.24,4.85-1.15.81.05,1.61.19,2.35.47.73.28,1.43.72,1.87,1.37.21.33.35.71.36,1.1.01.39-.08.76-.24,1.09-.32.67-.85,1.17-1.41,1.53-1.12.72-2.53.92-3.59.38-.52-.26-.94-.66-1.17-1.14-.23-.48-.22-1.02-.05-1.45.16-.44.47-.77.82-.96.35-.19.74-.21,1.05-.14.64.14,1,.56,1.13.87.13.32.08.5.08.5Z"/>
        <path class="cls-12" d="M71.6,27.64s.05.18-.08.5c-.13.3-.49.73-1.13.87-.31.07-.7.05-1.05-.14-.35-.19-.66-.52-.82-.96-.17-.43-.18-.97.05-1.45.22-.48.65-.88,1.17-1.14,1.05-.54,2.46-.33,3.59.39.57.36,1.1.86,1.41,1.53.16.33.25.71.24,1.09-.02.39-.15.77-.36,1.1-.44.66-1.14,1.09-1.87,1.37-.74.28-1.54.42-2.35.47-1.63.09-3.35-.28-4.85-1.15-1.51-.85-2.74-2-3.99-2.99-1.24-.99-2.53-1.86-3.93-2.26-1.38-.39-2.84-.33-3.97.25-1.16.56-1.76,1.76-1.74,2.83.01.53.17,1.04.45,1.43.29.39.67.65,1.08.76.83.2,1.61-.04,2.1-.38.52-.33.74-.79.81-1.09.04-.16.04-.28.03-.36,0-.08,0-.13,0-.13,0,0,.01.04.02.13.01.08.03.21,0,.38-.05.32-.26.82-.8,1.19-.51.37-1.31.65-2.22.45-.45-.1-.89-.39-1.21-.81-.32-.42-.5-.97-.52-1.55,0-.58.12-1.19.44-1.74.3-.56.81-1.02,1.41-1.33,1.21-.64,2.73-.7,4.18-.3,1.46.42,2.79,1.3,4.04,2.3,1.26,1,2.48,2.12,3.95,2.95,1.45.84,3.1,1.2,4.67,1.11.78-.05,1.56-.18,2.26-.45.7-.26,1.34-.67,1.73-1.25.39-.57.41-1.31.12-1.9-.28-.6-.77-1.08-1.3-1.42-1.06-.69-2.37-.89-3.34-.41-.48.23-.87.59-1.08,1.02-.21.42-.21.91-.07,1.3.14.4.41.71.73.89.31.18.66.21.95.15.6-.11.96-.49,1.1-.77.14-.29.11-.47.13-.47Z"/>
        <path class="cls-12" d="M49.35,26.5c-.56,0-1.02.45-1.02,1.01s.46,1.01,1.02,1.01,1.02-.45,1.02-1.01-.46-1.01-1.02-1.01Z"/>
        <path class="cls-12" d="M81.5,26.5c-.56,0-1.02.45-1.02,1.01s.46,1.01,1.02,1.01,1.02-.45,1.02-1.01-.45-1.01-1.02-1.01Z"/>
        <circle class="cls-12" cx="18.8" cy="27.51" r="1.02"/>
      </g>
      <g>
        <path class="cls-12" d="M85.58,135.65s0-.17,0-.49c0-.32,0-.8,0-1.42,0-1.26-.01-3.11-.02-5.51,0-4.82-.02-11.86-.04-20.76-.02-17.79-.04-43.02-.07-72.83l.15.15c-21.48,0-45.55,0-70.91.01h0l.16-.16c-.01,37.89-.02,72.91-.03,101.01l-.13-.13c21.54.03,39.25.05,51.59.07,6.17.01,11,.03,14.29.03,1.64,0,2.9.01,3.75.01.85,0,1.29.01,1.29.01,0,0-.42,0-1.26.01-.85,0-2.1,0-3.73.01-3.28,0-8.1.02-14.26.03-12.35.02-30.1.04-51.67.07h-.13s0-.13,0-.13c0-28.1-.02-63.12-.03-101.01v-.16s.16,0,.16,0h0c25.36,0,49.43.01,70.91.01h.15v.15c-.03,29.85-.06,55.12-.07,72.93-.02,8.89-.03,15.91-.04,20.72,0,2.39-.01,4.24-.02,5.49,0,.62,0,1.09,0,1.41,0,.31,0,.47,0,.47Z"/>
        <path class="cls-12" d="M99.99,20.47c.03.07-1.09.4-2.6,1.44-1.52,1.03-3.4,2.77-5.23,4.91-1.85,2.12-3.38,4.17-4.56,5.6-.58.72-1.08,1.29-1.43,1.67-.37.37-.58.56-.6.54-.02-.02.16-.24.5-.63.32-.4.79-.99,1.34-1.72,1.12-1.47,2.63-3.54,4.49-5.67,1.84-2.15,3.77-3.89,5.35-4.89.38-.27.76-.46,1.09-.63.16-.08.31-.16.46-.23.15-.06.29-.11.41-.15.49-.17.76-.26.77-.24Z"/>
        <path class="cls-12" d="M100.33,150.33s-.21-.2-.55-.6c-.38-.45-.86-1.02-1.43-1.69-1.21-1.42-2.93-3.35-4.95-5.36-2.02-2.01-3.95-3.73-5.38-4.93-.68-.57-1.25-1.04-1.7-1.42-.4-.33-.62-.53-.6-.55.01-.02.26.14.68.45.43.3,1.03.76,1.77,1.34,1.47,1.16,3.43,2.86,5.46,4.88,2.03,2.02,3.73,3.98,4.9,5.44.59.73,1.05,1.34,1.35,1.76.31.43.47.67.45.68Z"/>
        <path class="cls-12" d="M0,150.14s.13-.26.4-.7c.27-.44.7-1.06,1.25-1.82,1.1-1.5,2.74-3.49,4.78-5.48,2.04-1.98,4.07-3.57,5.61-4.63.77-.53,1.4-.94,1.85-1.2.45-.27.7-.4.71-.38.01.02-.22.19-.64.49-.43.29-1.04.73-1.78,1.28-1.49,1.1-3.49,2.71-5.51,4.68-2.02,1.97-3.68,3.92-4.82,5.38-.57.73-1.02,1.33-1.33,1.75-.31.42-.49.64-.51.63Z"/>
        <path class="cls-12" d="M.25,20.47s.23.17.6.53c.42.4.94.91,1.56,1.51,1.32,1.27,3.17,2.99,5.23,4.88,2.06,1.89,3.89,3.64,5.17,4.96.64.66,1.15,1.2,1.49,1.58.34.38.52.6.51.62s-.23-.17-.6-.53c-.42-.4-.94-.91-1.56-1.51-1.32-1.27-3.17-2.99-5.23-4.88-2.06-1.89-3.89-3.64-5.17-4.96-.64-.66-1.15-1.2-1.49-1.58-.34-.38-.52-.6-.51-.62Z"/>
        <path class="cls-12" d="M96.07,23.45c.09,0,.16,27.42.16,61.24s-.07,61.24-.16,61.24-.16-27.41-.16-61.24.07-61.24.16-61.24Z"/>
        <path class="cls-12" d="M94.66,23.17c0,.09-20.47.16-45.72.16s-45.72-.07-45.72-.16,20.47-.16,45.72-.16,45.72.07,45.72.16Z"/>
        <path class="cls-12" d="M3.5,143.96c-.09,0-.16-26.98-.16-60.25s.07-60.26.16-60.26.16,26.97.16,60.26-.07,60.25-.16,60.25Z"/>
        <path class="cls-12" d="M96.07,146.22c0,.09-20.22.16-45.15.16s-45.16-.07-45.16-.16,20.21-.16,45.16-.16,45.15.07,45.15.16Z"/>
        <path class="cls-12" d="M88.37,137.87s0-.17,0-.51c0-.34,0-.84,0-1.49,0-1.31-.01-3.25-.02-5.77-.01-5.04-.03-12.41-.06-21.74-.03-18.64-.08-45.09-.14-76.4l.15.15c-23.13-.08-49.21-.18-76.71-.27l.16-.16s0,.08,0,.12c.12,39.77.22,76.57.31,106.29l-.13-.13c23.19-.04,42.28-.07,55.59-.09,6.66,0,11.87,0,15.42,0,1.77,0,3.13,0,4.05,0,.92,0,1.4.01,1.4.01,0,0-.46.01-1.37.02-.91,0-2.26.01-4.03.03-3.54.02-8.74.04-15.39.08-13.33.05-32.45.13-55.67.23h-.13s0-.13,0-.13c-.1-29.72-.23-66.52-.37-106.29,0-.04,0-.08,0-.12v-.16s.16,0,.16,0c27.5.11,53.58.21,76.71.31h.15v.15c0,31.34,0,57.84-.01,76.5,0,9.31-.02,16.67-.02,21.7,0,2.51,0,4.43-.01,5.74,0,.65,0,1.14,0,1.47,0,.33,0,.49,0,.49Z"/>
        <g class="cls-8">
          <path class="cls-12" d="M14.63,37.87c0,.09-.69.16-1.55.16s-1.55-.07-1.55-.16.69-.16,1.55-.16,1.55.07,1.55.16Z"/>
        </g>
        <g>
          <path class="cls-12" d="M17.91,138.07c-.1,0-.19-.53-.16-1.19.03-.65.08-1.17.16-1.18.1,0,.19.53.16,1.19-.03.65-.08,1.17-.16,1.18Z"/>
          <path class="cls-12" d="M15.42,138.1c-.1,0-.19-.53-.16-1.19.03-.65.08-1.17.16-1.18.1,0,.19.53.16,1.19-.03.65-.08,1.17-.16,1.18Z"/>
          <path class="cls-12" d="M20.73,137.97c-.09,0-.18-.5-.2-1.13-.02-.63.03-1.14.12-1.15.09,0,.18.5.2,1.13.02.63-.03,1.14-.12,1.15Z"/>
          <path class="cls-12" d="M23.32,137.97c-.09,0-.18-.5-.2-1.13-.02-.63.03-1.14.12-1.15.09,0,.18.5.2,1.13.02.63-.03,1.14-.12,1.15Z"/>
          <path class="cls-12" d="M25.9,137.97c-.09,0-.18-.5-.2-1.13-.02-.63.03-1.14.12-1.15.09,0,.18.5.2,1.13.02.63-.03,1.14-.12,1.15Z"/>
          <path class="cls-12" d="M28.49,137.97c-.09,0-.18-.5-.2-1.13-.02-.63.03-1.14.12-1.15.09,0,.18.5.2,1.13.02.63-.03,1.14-.12,1.15Z"/>
          <path class="cls-12" d="M31.08,137.97c-.09,0-.18-.5-.2-1.13-.02-.63.03-1.14.12-1.15.09,0,.18.5.2,1.13.02.63-.03,1.14-.12,1.15Z"/>
          <path class="cls-12" d="M33.66,137.97c-.09,0-.18-.5-.2-1.13-.02-.63.03-1.14.12-1.15.09,0,.18.5.2,1.13.02.63-.03,1.14-.12,1.15Z"/>
          <path class="cls-12" d="M36.25,137.97c-.09,0-.18-.5-.2-1.13-.02-.63.03-1.14.12-1.15.09,0,.18.5.2,1.13.02.63-.03,1.14-.12,1.15Z"/>
          <path class="cls-12" d="M38.83,137.97c-.09,0-.18-.5-.2-1.13-.02-.63.03-1.14.12-1.15.09,0,.18.5.2,1.13.02.63-.03,1.14-.12,1.15Z"/>
          <path class="cls-12" d="M41.42,137.97c-.09,0-.18-.5-.2-1.13-.02-.63.03-1.14.12-1.15.09,0,.18.5.2,1.13.02.63-.03,1.14-.12,1.15Z"/>
          <path class="cls-12" d="M44.01,137.97c-.09,0-.18-.5-.2-1.13-.02-.63.03-1.14.12-1.15.09,0,.18.5.2,1.13.02.63-.03,1.14-.12,1.15Z"/>
          <path class="cls-12" d="M46.59,137.97c-.09,0-.18-.5-.2-1.13-.02-.63.03-1.14.12-1.15.09,0,.18.5.2,1.13.02.63-.03,1.14-.12,1.15Z"/>
          <path class="cls-12" d="M49.18,137.97c-.09,0-.18-.5-.2-1.13-.02-.63.03-1.14.12-1.15.09,0,.18.5.2,1.13.02.63-.03,1.14-.12,1.15Z"/>
          <path class="cls-12" d="M51.76,137.97c-.09,0-.18-.5-.2-1.13-.02-.63.03-1.14.12-1.15.09,0,.18.5.2,1.13.02.63-.03,1.14-.12,1.15Z"/>
          <path class="cls-12" d="M54.35,137.97c-.09,0-.18-.5-.2-1.13-.02-.63.03-1.14.12-1.15.09,0,.18.5.2,1.13.02.63-.03,1.14-.12,1.15Z"/>
          <path class="cls-12" d="M56.93,137.97c-.09,0-.18-.5-.2-1.13-.02-.63.03-1.14.12-1.15.09,0,.18.5.2,1.13.02.63-.03,1.14-.12,1.15Z"/>
          <path class="cls-12" d="M59.52,137.97c-.09,0-.18-.5-.2-1.13-.02-.63.03-1.14.12-1.15.09,0,.18.5.2,1.13.02.63-.03,1.14-.12,1.15Z"/>
          <path class="cls-12" d="M62.11,137.97c-.09,0-.18-.5-.2-1.13-.02-.63.03-1.14.12-1.15.09,0,.18.5.2,1.13.02.63-.03,1.14-.12,1.15Z"/>
          <path class="cls-12" d="M64.69,137.97c-.09,0-.18-.5-.2-1.13-.02-.63.03-1.14.12-1.15.09,0,.18.5.2,1.13.02.63-.03,1.14-.12,1.15Z"/>
          <path class="cls-12" d="M67.28,137.97c-.09,0-.18-.5-.2-1.13-.02-.63.03-1.14.12-1.15.09,0,.18.5.2,1.13.02.63-.03,1.14-.12,1.15Z"/>
          <path class="cls-12" d="M69.86,137.97c-.09,0-.18-.5-.2-1.13-.02-.63.03-1.14.12-1.15.09,0,.18.5.2,1.13.02.63-.03,1.14-.12,1.15Z"/>
          <path class="cls-12" d="M72.45,137.97c-.09,0-.18-.5-.2-1.13-.02-.63.03-1.14.12-1.15.09,0,.18.5.2,1.13.02.63-.03,1.14-.12,1.15Z"/>
          <path class="cls-12" d="M75.03,137.97c-.09,0-.18-.5-.2-1.13-.02-.63.03-1.14.12-1.15.09,0,.18.5.2,1.13.02.63-.03,1.14-.12,1.15Z"/>
          <path class="cls-12" d="M77.62,137.97c-.09,0-.18-.5-.2-1.13-.02-.63.03-1.14.12-1.15.09,0,.18.5.2,1.13.02.63-.03,1.14-.12,1.15Z"/>
          <path class="cls-12" d="M80.21,137.97c-.09,0-.18-.5-.2-1.13-.02-.63.03-1.14.12-1.15.09,0,.18.5.2,1.13.02.63-.03,1.14-.12,1.15Z"/>
          <path class="cls-12" d="M82.79,137.97c-.09,0-.18-.5-.2-1.13-.02-.63.03-1.14.12-1.15.09,0,.18.5.2,1.13.02.63-.03,1.14-.12,1.15Z"/>
          <path class="cls-12" d="M85.38,137.97c-.09,0-.18-.5-.2-1.13-.02-.63.03-1.14.12-1.15.09,0,.18.5.2,1.13.02.63-.03,1.14-.12,1.15Z"/>
          <path class="cls-12" d="M88.29,134.97c0,.09-.61.16-1.36.16s-1.36-.07-1.36-.16.61-.16,1.36-.16,1.36.07,1.36.16Z"/>
          <path class="cls-12" d="M88.29,132.09c0,.09-.61.16-1.36.16s-1.36-.07-1.36-.16.61-.16,1.36-.16,1.36.07,1.36.16Z"/>
          <path class="cls-12" d="M88.29,129.21c0,.09-.61.16-1.36.16s-1.36-.07-1.36-.16.61-.16,1.36-.16,1.36.07,1.36.16Z"/>
          <path class="cls-12" d="M88.29,126.33c0,.09-.61.16-1.36.16s-1.36-.07-1.36-.16.61-.16,1.36-.16,1.36.07,1.36.16Z"/>
          <path class="cls-12" d="M88.29,123.45c0,.09-.61.16-1.36.16s-1.36-.07-1.36-.16.61-.16,1.36-.16,1.36.07,1.36.16Z"/>
          <path class="cls-12" d="M88.29,120.57c0,.09-.61.16-1.36.16s-1.36-.07-1.36-.16.61-.16,1.36-.16,1.36.07,1.36.16Z"/>
          <path class="cls-12" d="M88.29,117.69c0,.09-.61.16-1.36.16s-1.36-.07-1.36-.16.61-.16,1.36-.16,1.36.07,1.36.16Z"/>
          <path class="cls-12" d="M88.29,114.82c0,.09-.61.16-1.36.16s-1.36-.07-1.36-.16.61-.16,1.36-.16,1.36.07,1.36.16Z"/>
          <path class="cls-12" d="M88.29,111.94c0,.09-.61.16-1.36.16s-1.36-.07-1.36-.16.61-.16,1.36-.16,1.36.07,1.36.16Z"/>
          <path class="cls-12" d="M88.29,109.06c0,.09-.61.16-1.36.16s-1.36-.07-1.36-.16.61-.16,1.36-.16,1.36.07,1.36.16Z"/>
          <path class="cls-12" d="M88.29,106.18c0,.09-.61.16-1.36.16s-1.36-.07-1.36-.16.61-.16,1.36-.16,1.36.07,1.36.16Z"/>
          <path class="cls-12" d="M88.29,103.3c0,.09-.61.16-1.36.16s-1.36-.07-1.36-.16.61-.16,1.36-.16,1.36.07,1.36.16Z"/>
          <path class="cls-12" d="M88.29,100.42c0,.09-.61.16-1.36.16s-1.36-.07-1.36-.16.61-.16,1.36-.16,1.36.07,1.36.16Z"/>
          <path class="cls-12" d="M88.29,97.55c0,.09-.61.16-1.36.16s-1.36-.07-1.36-.16.61-.16,1.36-.16,1.36.07,1.36.16Z"/>
          <path class="cls-12" d="M88.29,94.67c0,.09-.61.16-1.36.16s-1.36-.07-1.36-.16.61-.16,1.36-.16,1.36.07,1.36.16Z"/>
          <path class="cls-12" d="M88.29,91.79c0,.09-.61.16-1.36.16s-1.36-.07-1.36-.16.61-.16,1.36-.16,1.36.07,1.36.16Z"/>
          <path class="cls-12" d="M88.29,88.91c0,.09-.61.16-1.36.16s-1.36-.07-1.36-.16.61-.16,1.36-.16,1.36.07,1.36.16Z"/>
          <path class="cls-12" d="M88.29,86.03c0,.09-.61.16-1.36.16s-1.36-.07-1.36-.16.61-.16,1.36-.16,1.36.07,1.36.16Z"/>
          <path class="cls-12" d="M88.29,83.15c0,.09-.61.16-1.36.16s-1.36-.07-1.36-.16.61-.16,1.36-.16,1.36.07,1.36.16Z"/>
          <path class="cls-12" d="M88.29,80.28c0,.09-.61.16-1.36.16s-1.36-.07-1.36-.16.61-.16,1.36-.16,1.36.07,1.36.16Z"/>
          <path class="cls-12" d="M88.29,77.4c0,.09-.61.16-1.36.16s-1.36-.07-1.36-.16.61-.16,1.36-.16,1.36.07,1.36.16Z"/>
          <path class="cls-12" d="M88.29,74.52c0,.09-.61.16-1.36.16s-1.36-.07-1.36-.16.61-.16,1.36-.16,1.36.07,1.36.16Z"/>
          <path class="cls-12" d="M88.29,71.64c0,.09-.61.16-1.36.16s-1.36-.07-1.36-.16.61-.16,1.36-.16,1.36.07,1.36.16Z"/>
          <path class="cls-12" d="M88.29,68.76c0,.09-.61.16-1.36.16s-1.36-.07-1.36-.16.61-.16,1.36-.16,1.36.07,1.36.16Z"/>
          <path class="cls-12" d="M88.29,65.88c0,.09-.61.16-1.36.16s-1.36-.07-1.36-.16.61-.16,1.36-.16,1.36.07,1.36.16Z"/>
          <path class="cls-12" d="M88.29,63.01c0,.09-.61.16-1.36.16s-1.36-.07-1.36-.16.61-.16,1.36-.16,1.36.07,1.36.16Z"/>
          <path class="cls-12" d="M88.29,60.13c0,.09-.61.16-1.36.16s-1.36-.07-1.36-.16.61-.16,1.36-.16,1.36.07,1.36.16Z"/>
          <path class="cls-12" d="M88.29,57.25c0,.09-.61.16-1.36.16s-1.36-.07-1.36-.16.61-.16,1.36-.16,1.36.07,1.36.16Z"/>
          <path class="cls-12" d="M88.29,54.37c0,.09-.61.16-1.36.16s-1.36-.07-1.36-.16.61-.16,1.36-.16,1.36.07,1.36.16Z"/>
          <path class="cls-12" d="M88.29,51.49c0,.09-.61.16-1.36.16s-1.36-.07-1.36-.16.61-.16,1.36-.16,1.36.07,1.36.16Z"/>
          <path class="cls-12" d="M88.29,48.61c0,.09-.61.16-1.36.16s-1.36-.07-1.36-.16.61-.16,1.36-.16,1.36.07,1.36.16Z"/>
          <path class="cls-12" d="M88.29,45.74c0,.09-.61.16-1.36.16s-1.36-.07-1.36-.16.61-.16,1.36-.16,1.36.07,1.36.16Z"/>
          <path class="cls-12" d="M88.29,42.86c0,.09-.61.16-1.36.16s-1.36-.07-1.36-.16.61-.16,1.36-.16,1.36.07,1.36.16Z"/>
          <path class="cls-12" d="M88.29,39.98c0,.09-.61.16-1.36.16s-1.36-.07-1.36-.16.61-.16,1.36-.16,1.36.07,1.36.16Z"/>
          <path class="cls-12" d="M88.29,37.1c0,.09-.61.16-1.36.16s-1.36-.07-1.36-.16.61-.16,1.36-.16,1.36.07,1.36.16Z"/>
          <path class="cls-12" d="M88.29,34.22c0,.09-.61.16-1.36.16s-1.36-.07-1.36-.16.61-.16,1.36-.16,1.36.07,1.36.16Z"/>
          <path class="cls-12" d="M85.17,34.63c-.09,0-.16-.6-.16-1.35s.07-1.35.16-1.35.16.6.16,1.35-.07,1.35-.16,1.35Z"/>
          <path class="cls-12" d="M82.43,34.63c-.09,0-.16-.6-.16-1.35s.07-1.35.16-1.35.16.6.16,1.35-.07,1.35-.16,1.35Z"/>
          <path class="cls-12" d="M79.69,34.63c-.09,0-.16-.6-.16-1.35s.07-1.35.16-1.35.16.6.16,1.35-.07,1.35-.16,1.35Z"/>
          <path class="cls-12" d="M76.94,34.63c-.09,0-.16-.6-.16-1.35s.07-1.35.16-1.35.16.6.16,1.35-.07,1.35-.16,1.35Z"/>
          <path class="cls-12" d="M74.2,34.63c-.09,0-.16-.6-.16-1.35s.07-1.35.16-1.35.16.6.16,1.35-.07,1.35-.16,1.35Z"/>
          <path class="cls-12" d="M71.46,34.63c-.09,0-.16-.6-.16-1.35s.07-1.35.16-1.35.16.6.16,1.35-.07,1.35-.16,1.35Z"/>
          <path class="cls-12" d="M68.72,34.63c-.09,0-.16-.6-.16-1.35s.07-1.35.16-1.35.16.6.16,1.35-.07,1.35-.16,1.35Z"/>
          <path class="cls-12" d="M65.97,34.63c-.09,0-.16-.6-.16-1.35s.07-1.35.16-1.35.16.6.16,1.35-.07,1.35-.16,1.35Z"/>
          <path class="cls-12" d="M63.23,34.63c-.09,0-.16-.6-.16-1.35s.07-1.35.16-1.35.16.6.16,1.35-.07,1.35-.16,1.35Z"/>
          <path class="cls-12" d="M60.49,34.63c-.09,0-.16-.6-.16-1.35s.07-1.35.16-1.35.16.6.16,1.35-.07,1.35-.16,1.35Z"/>
          <path class="cls-12" d="M57.75,34.63c-.09,0-.16-.6-.16-1.35s.07-1.35.16-1.35.16.6.16,1.35-.07,1.35-.16,1.35Z"/>
          <path class="cls-12" d="M55,34.63c-.09,0-.16-.6-.16-1.35s.07-1.35.16-1.35.16.6.16,1.35-.07,1.35-.16,1.35Z"/>
          <path class="cls-12" d="M52.26,34.63c-.09,0-.16-.6-.16-1.35s.07-1.35.16-1.35.16.6.16,1.35-.07,1.35-.16,1.35Z"/>
          <path class="cls-12" d="M49.52,34.63c-.09,0-.16-.6-.16-1.35s.07-1.35.16-1.35.16.6.16,1.35-.07,1.35-.16,1.35Z"/>
          <path class="cls-12" d="M46.78,34.63c-.09,0-.16-.6-.16-1.35s.07-1.35.16-1.35.16.6.16,1.35-.07,1.35-.16,1.35Z"/>
          <path class="cls-12" d="M44.04,34.63c-.09,0-.16-.6-.16-1.35s.07-1.35.16-1.35.16.6.16,1.35-.07,1.35-.16,1.35Z"/>
          <path class="cls-12" d="M41.29,34.63c-.09,0-.16-.6-.16-1.35s.07-1.35.16-1.35.16.6.16,1.35-.07,1.35-.16,1.35Z"/>
          <path class="cls-12" d="M38.55,34.63c-.09,0-.16-.6-.16-1.35s.07-1.35.16-1.35.16.6.16,1.35-.07,1.35-.16,1.35Z"/>
          <path class="cls-12" d="M35.81,34.63c-.09,0-.16-.6-.16-1.35s.07-1.35.16-1.35.16.6.16,1.35-.07,1.35-.16,1.35Z"/>
          <path class="cls-12" d="M33.07,34.63c-.09,0-.16-.6-.16-1.35s.07-1.35.16-1.35.16.6.16,1.35-.07,1.35-.16,1.35Z"/>
          <path class="cls-12" d="M30.32,34.63c-.09,0-.16-.6-.16-1.35s.07-1.35.16-1.35.16.6.16,1.35-.07,1.35-.16,1.35Z"/>
          <path class="cls-12" d="M27.58,34.63c-.09,0-.16-.6-.16-1.35s.07-1.35.16-1.35.16.6.16,1.35-.07,1.35-.16,1.35Z"/>
          <path class="cls-12" d="M24.84,34.63c-.09,0-.16-.6-.16-1.35s.07-1.35.16-1.35.16.6.16,1.35-.07,1.35-.16,1.35Z"/>
          <path class="cls-12" d="M22.1,34.63c-.09,0-.16-.6-.16-1.35s.07-1.35.16-1.35.16.6.16,1.35-.07,1.35-.16,1.35Z"/>
          <path class="cls-12" d="M19.35,34.63c-.09,0-.16-.6-.16-1.35s.07-1.35.16-1.35.16.6.16,1.35-.07,1.35-.16,1.35Z"/>
          <path class="cls-12" d="M16.61,34.63c-.09,0-.16-.6-.16-1.35s.07-1.35.16-1.35.16.6.16,1.35-.07,1.35-.16,1.35Z"/>
          <path class="cls-12" d="M14.63,35.58c0,.09-.69.16-1.55.16s-1.55-.07-1.55-.16.69-.16,1.55-.16,1.55.07,1.55.16Z"/>
          <path class="cls-12" d="M14.63,40.16c0,.09-.69.16-1.55.16s-1.55-.07-1.55-.16.69-.16,1.55-.16,1.55.07,1.55.16Z"/>
          <path class="cls-12" d="M14.63,42.46c0,.09-.69.16-1.55.16s-1.55-.07-1.55-.16.69-.16,1.55-.16,1.55.07,1.55.16Z"/>
          <path class="cls-12" d="M14.63,44.75c0,.09-.69.16-1.55.16s-1.55-.07-1.55-.16.69-.16,1.55-.16,1.55.07,1.55.16Z"/>
          <path class="cls-12" d="M14.63,47.04c0,.09-.69.16-1.55.16s-1.55-.07-1.55-.16.69-.16,1.55-.16,1.55.07,1.55.16Z"/>
          <path class="cls-12" d="M14.63,49.34c0,.09-.69.16-1.55.16s-1.55-.07-1.55-.16.69-.16,1.55-.16,1.55.07,1.55.16Z"/>
          <path class="cls-12" d="M14.63,51.63c0,.09-.69.16-1.55.16s-1.55-.07-1.55-.16.69-.16,1.55-.16,1.55.07,1.55.16Z"/>
          <path class="cls-12" d="M14.63,53.92c0,.09-.69.16-1.55.16s-1.55-.07-1.55-.16.69-.16,1.55-.16,1.55.07,1.55.16Z"/>
          <path class="cls-12" d="M14.63,56.21c0,.09-.69.16-1.55.16s-1.55-.07-1.55-.16.69-.16,1.55-.16,1.55.07,1.55.16Z"/>
          <path class="cls-12" d="M14.63,58.51c0,.09-.69.16-1.55.16s-1.55-.07-1.55-.16.69-.16,1.55-.16,1.55.07,1.55.16Z"/>
          <path class="cls-12" d="M14.63,60.8c0,.09-.69.16-1.55.16s-1.55-.07-1.55-.16.69-.16,1.55-.16,1.55.07,1.55.16Z"/>
          <path class="cls-12" d="M14.63,63.09c0,.09-.69.16-1.55.16s-1.55-.07-1.55-.16.69-.16,1.55-.16,1.55.07,1.55.16Z"/>
          <path class="cls-12" d="M14.63,65.38c0,.09-.69.16-1.55.16s-1.55-.07-1.55-.16.69-.16,1.55-.16,1.55.07,1.55.16Z"/>
          <path class="cls-12" d="M14.63,67.68c0,.09-.69.16-1.55.16s-1.55-.07-1.55-.16.69-.16,1.55-.16,1.55.07,1.55.16Z"/>
          <path class="cls-12" d="M14.63,69.97c0,.09-.69.16-1.55.16s-1.55-.07-1.55-.16.69-.16,1.55-.16,1.55.07,1.55.16Z"/>
          <path class="cls-12" d="M14.63,72.26c0,.09-.69.16-1.55.16s-1.55-.07-1.55-.16.69-.16,1.55-.16,1.55.07,1.55.16Z"/>
          <path class="cls-12" d="M14.63,74.56c0,.09-.69.16-1.55.16s-1.55-.07-1.55-.16.69-.16,1.55-.16,1.55.07,1.55.16Z"/>
          <path class="cls-12" d="M14.63,76.85c0,.09-.69.16-1.55.16s-1.55-.07-1.55-.16.69-.16,1.55-.16,1.55.07,1.55.16Z"/>
          <path class="cls-12" d="M14.63,79.14c0,.09-.69.16-1.55.16s-1.55-.07-1.55-.16.69-.16,1.55-.16,1.55.07,1.55.16Z"/>
          <path class="cls-12" d="M14.63,81.43c0,.09-.69.16-1.55.16s-1.55-.07-1.55-.16.69-.16,1.55-.16,1.55.07,1.55.16Z"/>
          <path class="cls-12" d="M14.63,83.73c0,.09-.69.16-1.55.16s-1.55-.07-1.55-.16.69-.16,1.55-.16,1.55.07,1.55.16Z"/>
          <path class="cls-12" d="M14.63,86.02c0,.09-.69.16-1.55.16s-1.55-.07-1.55-.16.69-.16,1.55-.16,1.55.07,1.55.16Z"/>
          <path class="cls-12" d="M14.63,88.31c0,.09-.69.16-1.55.16s-1.55-.07-1.55-.16.69-.16,1.55-.16,1.55.07,1.55.16Z"/>
          <path class="cls-12" d="M14.63,90.6c0,.09-.69.16-1.55.16s-1.55-.07-1.55-.16.69-.16,1.55-.16,1.55.07,1.55.16Z"/>
          <path class="cls-12" d="M14.63,92.9c0,.09-.69.16-1.55.16s-1.55-.07-1.55-.16.69-.16,1.55-.16,1.55.07,1.55.16Z"/>
          <path class="cls-12" d="M14.63,95.19c0,.09-.69.16-1.55.16s-1.55-.07-1.55-.16.69-.16,1.55-.16,1.55.07,1.55.16Z"/>
          <path class="cls-12" d="M14.63,97.48c0,.09-.69.16-1.55.16s-1.55-.07-1.55-.16.69-.16,1.55-.16,1.55.07,1.55.16Z"/>
          <path class="cls-12" d="M14.63,99.78c0,.09-.69.16-1.55.16s-1.55-.07-1.55-.16.69-.16,1.55-.16,1.55.07,1.55.16Z"/>
          <path class="cls-12" d="M14.63,102.07c0,.09-.69.16-1.55.16s-1.55-.07-1.55-.16.69-.16,1.55-.16,1.55.07,1.55.16Z"/>
          <path class="cls-12" d="M14.63,104.36c0,.09-.69.16-1.55.16s-1.55-.07-1.55-.16.69-.16,1.55-.16,1.55.07,1.55.16Z"/>
          <path class="cls-12" d="M14.63,106.65c0,.09-.69.16-1.55.16s-1.55-.07-1.55-.16.69-.16,1.55-.16,1.55.07,1.55.16Z"/>
          <path class="cls-12" d="M14.63,108.95c0,.09-.69.16-1.55.16s-1.55-.07-1.55-.16.69-.16,1.55-.16,1.55.07,1.55.16Z"/>
          <path class="cls-12" d="M14.63,111.24c0,.09-.69.16-1.55.16s-1.55-.07-1.55-.16.69-.16,1.55-.16,1.55.07,1.55.16Z"/>
          <path class="cls-12" d="M14.63,113.53c0,.09-.69.16-1.55.16s-1.55-.07-1.55-.16.69-.16,1.55-.16,1.55.07,1.55.16Z"/>
          <path class="cls-12" d="M14.63,115.82c0,.09-.69.16-1.55.16s-1.55-.07-1.55-.16.69-.16,1.55-.16,1.55.07,1.55.16Z"/>
          <path class="cls-12" d="M14.63,118.12c0,.09-.69.16-1.55.16s-1.55-.07-1.55-.16.69-.16,1.55-.16,1.55.07,1.55.16Z"/>
          <path class="cls-12" d="M14.63,120.41c0,.09-.69.16-1.55.16s-1.55-.07-1.55-.16.69-.16,1.55-.16,1.55.07,1.55.16Z"/>
          <path class="cls-12" d="M14.63,122.7c0,.09-.69.16-1.55.16s-1.55-.07-1.55-.16.69-.16,1.55-.16,1.55.07,1.55.16Z"/>
          <path class="cls-12" d="M14.63,125c0,.09-.69.16-1.55.16s-1.55-.07-1.55-.16.69-.16,1.55-.16,1.55.07,1.55.16Z"/>
          <path class="cls-12" d="M14.63,127.29c0,.09-.69.16-1.55.16s-1.55-.07-1.55-.16.69-.16,1.55-.16,1.55.07,1.55.16Z"/>
          <path class="cls-12" d="M14.63,129.58c0,.09-.69.16-1.55.16s-1.55-.07-1.55-.16.69-.16,1.55-.16,1.55.07,1.55.16Z"/>
          <path class="cls-12" d="M14.63,131.87c0,.09-.69.16-1.55.16s-1.55-.07-1.55-.16.69-.16,1.55-.16,1.55.07,1.55.16Z"/>
          <path class="cls-12" d="M14.63,134.17c0,.09-.69.16-1.55.16s-1.55-.07-1.55-.16.69-.16,1.55-.16,1.55.07,1.55.16Z"/>
        </g>
      </g>
      <rect class="cls-6" x="14.73" y="34.64" width="70.44" height="101.07"/>
      <path class="cls-10" d="M14.58,45.98c11.95,14.22,26.05,29.16,37.51,43.79l-37.45,10.01-.06-53.8Z"/>
      <path class="cls-7" d="M14.69,98.09l.04,37.62,70.84-.55-.27-52.34c-23.6,4.79-47.14,9.88-70.61,15.27"/>
    </g>
    <g>
      <g>
        <rect class="cls-12" x="138.51" y=".02" width="70.82" height="73.83"/>
        <g>
          <rect class="cls-11" x="133.71" y=".02" width="70.82" height="73.83"/>
          <path class="cls-10" d="M204.56,73.87h-70.87V0h70.87v73.87Z"/>
        </g>
        <rect class="cls-6" x="143.23" y="9.95" width="51.78" height="53.98"/>
        <path class="cls-12" d="M143.23,64.28s-.45.61-1.28,1.49c-.83.87-1.99,2.05-3.29,3.34-1.3,1.28-2.5,2.43-3.38,3.24-.88.81-1.45,1.29-1.5,1.25s.44-.61,1.27-1.48c.83-.87,1.99-2.06,3.3-3.34,1.31-1.29,2.51-2.43,3.39-3.24.88-.81,1.45-1.29,1.49-1.24Z"/>
        <path class="cls-12" d="M195.02,64.15s.61.45,1.49,1.28c.87.83,2.05,1.99,3.34,3.29,1.28,1.3,2.43,2.5,3.24,3.38.81.88,1.29,1.45,1.25,1.5-.04.04-.61-.44-1.48-1.27-.87-.83-2.06-1.99-3.34-3.3-1.29-1.31-2.43-2.51-3.24-3.39-.81-.88-1.29-1.45-1.24-1.49Z"/>
        <path class="cls-12" d="M194.87,10.09s.45-.61,1.28-1.49c.83-.87,1.99-2.05,3.29-3.34,1.3-1.28,2.5-2.43,3.38-3.24.88-.81,1.45-1.29,1.5-1.25.04.04-.44.61-1.27,1.48-.83.87-1.99,2.06-3.3,3.34-1.31,1.29-2.51,2.43-3.39,3.24-.88.81-1.45,1.29-1.49,1.24Z"/>
        <path class="cls-12" d="M143.09,10.22s-.61-.45-1.49-1.28c-.87-.83-2.05-1.99-3.34-3.29-1.28-1.3-2.43-2.5-3.24-3.38-.81-.88-1.29-1.45-1.25-1.5.04-.04.61.44,1.48,1.27.87.83,2.06,1.99,3.34,3.3,1.29,1.31,2.43,2.51,3.24,3.39.81.88,1.29,1.45,1.24,1.49Z"/>
        <path class="cls-12" d="M194.87,63.93s0-.09-.01-.26c0-.18,0-.43-.01-.75,0-.68-.01-1.65-.02-2.91-.01-2.56-.03-6.28-.05-11-.02-9.45-.06-22.92-.1-39.05l.2.2c-15.07,0-32.78.02-51.64.03h0l.23-.23c-.01,19.81-.02,38.35-.03,53.98l-.2-.2c15.47.04,28.36.08,37.39.1,4.51.02,8.06.04,10.5.05,1.21,0,2.13.02,2.78.02.31,0,.54,0,.72.01.16,0,.25,0,.25.01,0,0-.07,0-.23.01-.17,0-.4,0-.7.01-.64,0-1.55.01-2.74.02-2.43.01-5.96.03-10.46.05-9.06.02-21.99.06-37.52.1h-.2s0-.2,0-.2c0-15.63-.02-34.17-.03-53.98v-.23s.23,0,.23,0h0c18.86.01,36.56.02,51.64.03h.2s0,.2,0,.2c-.04,16.18-.08,29.69-.1,39.18-.02,4.7-.04,8.41-.05,10.96-.01,1.25-.02,2.21-.02,2.88,0,.31,0,.55-.01.73,0,.16,0,.24-.01.24Z"/>
      </g>
      <g>
        <path class="cls-10" d="M159.58,51.56c-3.91-3.91-4.14-10.9-.51-15.07,1.44-1.65,3.35-2.86,4.69-4.6,2.89-3.76,2.85-9.69,6.86-12.22,2.93-1.84,7.14-.79,9.28,1.93,2.14,2.72,2.32,6.67.93,9.84-1.03,2.34-2.81,4.33-3.54,6.78-.75,2.5-.32,5.25-1.1,7.74-.94,3.01-4.13,4.92-7.08,6.01-2.96,1.1-6.76.84-9.53-.42"/>
        <path class="cls-12" d="M174.14,26.7s-.15.52-.5,1.43c-.35.91-.89,2.21-1.61,3.79-1.43,3.17-3.6,7.47-6.4,11.99-2.8,4.52-5.68,8.38-7.89,11.07-1.1,1.35-2.02,2.41-2.68,3.13-.66.72-1.03,1.1-1.05,1.08-.02-.02.3-.45.92-1.2.62-.75,1.5-1.85,2.56-3.21,2.14-2.73,4.96-6.61,7.75-11.11,2.78-4.5,5-8.76,6.5-11.88.75-1.56,1.34-2.84,1.74-3.73.4-.88.64-1.37.67-1.36Z"/>
        <path class="cls-12" d="M163.43,36.05c.06,0,.21,1.03.42,2.73.2,1.7.46,4.08.72,6.76l-.35-.18c.36-.21.73-.43,1.12-.65,2.59-1.51,4.94-2.85,6.66-3.81,1.72-.95,2.8-1.51,2.83-1.46.03.06-.99.72-2.66,1.74-1.67,1.03-4,2.42-6.59,3.93-.38.22-.76.44-1.12.65l-.31.18-.03-.36c-.25-2.68-.45-5.06-.57-6.78s-.17-2.75-.11-2.76Z"/>
        <path class="cls-12" d="M177.03,32.06c.03.06-.64.43-1.74.98-1.1.55-2.64,1.28-4.35,2.06-.18.08-.36.17-.53.24l-.28.13-.05-.3c-.27-1.72-.49-3.26-.62-4.38-.14-1.11-.19-1.79-.13-1.8.06,0,.22.66.44,1.75.22,1.1.49,2.63.77,4.35l-.33-.17c.17-.08.35-.16.53-.24,1.71-.78,3.27-1.46,4.41-1.94,1.14-.47,1.86-.74,1.88-.68Z"/>
      </g>
    </g>
    <g>
      <g>
        <g>
          <rect class="cls-3" x="283.75" y="398.68" width="10.33" height="48.77"/>
          <rect class="cls-3" x="371.56" y="398.68" width="10.33" height="48.77"/>
          <rect class="cls-3" x="266.66" y="337.38" width="130.36" height="12.06"/>
          <polygon class="cls-3" points="391.82 399.3 274.59 399.55 274.59 349.44 391.82 349.44 391.82 399.3"/>
          <path class="cls-12" d="M397.01,349.44c0,.13-29.18.23-65.18.23s-65.18-.11-65.18-.23,29.18-.23,65.18-.23,65.18.1,65.18.23Z"/>
          <path class="cls-12" d="M391.39,399.55c0,.13-26.05.23-58.18.23s-58.19-.1-58.19-.23,26.05-.23,58.19-.23,58.18.1,58.18.23Z"/>
          <path class="cls-12" d="M382.15,389.4s-.01-.2-.02-.58c0-.39,0-.94-.02-1.66,0-1.47-.02-3.63-.04-6.41-.02-5.58-.05-13.69-.08-23.87l.15.15c-23.51.02-58.68.05-97.89.08h0l.23-.23c0,11.3,0,22.26,0,32.52l-.23-.23c28.16.04,52.6.08,70.02.11,8.71.03,15.67.05,20.46.06,2.39.01,4.23.02,5.5.03.62,0,1.09.01,1.43.01.32,0,.49.01.49.01,0,0-.15,0-.47.01-.33,0-.79,0-1.4.01-1.25,0-3.08.02-5.45.03-4.78.02-11.72.04-20.41.06-17.46.03-41.95.06-70.17.11h-.23s0-.23,0-.23c0-10.26,0-21.22,0-32.52v-.23h.24c39.21.03,74.38.06,97.89.08h.15s0,.15,0,.15c-.04,10.21-.06,18.36-.08,23.96-.02,2.77-.03,4.91-.04,6.38,0,.71-.01,1.26-.02,1.64,0,.37-.02.54-.02.54Z"/>
          <path class="cls-12" d="M288.14,385.13c.09.09-.67,1.06-1.7,2.17-1.03,1.11-1.95,1.94-2.04,1.85-.09-.09.67-1.06,1.7-2.17,1.03-1.11,1.95-1.94,2.04-1.85Z"/>
          <path class="cls-12" d="M288.14,361.14c-.1.09-1.04-.8-2.11-1.97-1.07-1.18-1.86-2.2-1.77-2.29.1-.09,1.04.8,2.11,1.97,1.07,1.18,1.86,2.2,1.77,2.29Z"/>
          <path class="cls-12" d="M382.33,356.98c.1.1-.84,1.14-2.13,2.26-1.3,1.11-2.35,1.99-2.44,1.91-.1-.1.84-1.14,2.13-2.26,1.29-1.11,2.35-1.99,2.44-1.9Z"/>
          <path class="cls-12" d="M382.16,389.4c-.09.09-1.15-.79-2.36-1.96-1.21-1.18-2.13-2.21-2.04-2.3.09-.09,1.15.79,2.36,1.96,1.21,1.18,2.13,2.21,2.04,2.3Z"/>
          <path class="cls-12" d="M377.76,385.13s0-.15-.01-.42c0-.29,0-.69-.01-1.22,0-1.08-.02-2.66-.03-4.71-.02-4.11-.05-10.09-.08-17.64l.14.14c-20.45.02-53.01.05-89.62.09h0l.23-.23c0,8.25,0,16.29,0,23.99l-.23-.23c25.58.04,47.96.08,63.95.1,8,.03,14.4.05,18.82.07,2.2.01,3.9.02,5.07.03.57,0,1.01.01,1.32.01.3,0,.46.01.46.01,0,0-.14,0-.43.01-.31,0-.73,0-1.29.01-1.16,0-2.85.02-5.02.03-4.41.02-10.79.04-18.77.07-16.03.03-38.46.06-64.11.1h-.23s0-.23,0-.23c0-7.7,0-15.74,0-23.99v-.23h.24c36.61.04,69.17.07,89.62.09h.14s0,.14,0,.14c-.03,7.59-.06,13.6-.08,17.73-.02,2.03-.03,3.6-.03,4.67,0,.52-.01.91-.01,1.19,0,.27-.01.39-.01.39Z"/>
          <g>
            <path class="cls-12" d="M341.83,370.9c-.74-.49-1.56-.82-2.41-1.09-.77-.25-1.57-.37-2.38-.37h-6.6c-1.94,0-3.85.69-5.25,2.03-.35.33-.63.66-.79.95-.57,1.02-.59,2.43.26,3.23.85.79,2.58.41,2.72-.75-.04,1.52,1.52,2.8,3.04,2.7,1.52-.1,2.82-1.35,3.24-2.81-.02,1.29,1.09,2.5,2.38,2.6,1.29.1,2.57-.93,2.75-2.21.81,1.06,2.02,2.05,3.41,1.6.79-.26,1.38-.95,1.58-1.76.41-1.67-.61-3.21-1.95-4.11Z"/>
            <path class="cls-3" d="M331.62,369.41c.07.13-1.52.81-2.71,2.48-1.22,1.64-1.39,3.37-1.53,3.34-.06,0-.1-.44.04-1.13.13-.69.48-1.62,1.11-2.49.64-.87,1.41-1.49,2.03-1.82.61-.34,1.04-.43,1.06-.38Z"/>
            <path class="cls-3" d="M334.15,369.68c.13.02.11,1.19-.04,2.62-.15,1.43-.38,2.58-.51,2.57-.13,0-.11-1.18.04-2.62.15-1.44.38-2.59.51-2.57Z"/>
            <path class="cls-3" d="M337.33,369.6s.37.09.77.52c.39.43.78,1.16.93,2.03.15.87.08,1.65.01,2.2-.08.55-.17.89-.23.88-.07,0-.09-.35-.1-.9-.01-.55,0-1.3-.14-2.1-.14-.8-.43-1.47-.73-1.91-.29-.44-.55-.67-.5-.73Z"/>
          </g>
        </g>
        <rect class="cls-3" x="292.94" y="415.11" width="80.33" height="9.41"/>
      </g>
      <g>
        <g>
          <path class="cls-12" d="M353.07,325.17v12.12h-52.1c-3.35,0-6.06-2.71-6.06-6.06h0c0-3.35,2.71-6.06,6.06-6.06"/>
          <path class="cls-3" d="M335.45,327.71h17.62v7.04h-17.62c-1.68,0-3.05-1.37-3.05-3.05v-.93c0-1.68,1.37-3.05,3.05-3.05Z"/>
        </g>
        <g>
          <path class="cls-3" d="M353.07,313.05v12.12h-52.1c-3.35,0-6.06-2.71-6.06-6.06h0c0-3.35,2.71-6.06,6.06-6.06h52.1Z"/>
          <path class="cls-10" d="M335.45,315.59h17.62v7.04h-17.62c-1.68,0-3.05-1.37-3.05-3.05v-.93c0-1.68,1.37-3.05,3.05-3.05Z"/>
        </g>
        <g>
          <polygon class="cls-12" points="315.45 293.62 307.17 313.05 312.5 313.05 316.18 302.67 315.45 293.62"/>
          <g>
            <g>
              <polygon class="cls-10" points="340.86 276.03 344.05 313.05 317.01 313.05 314.04 276.03 340.86 276.03"/>
              <polygon class="cls-7" points="338.21 278.97 341.01 309.98 320.71 310.24 317.97 278.79 338.21 278.97"/>
            </g>
            <polygon class="cls-12" points="333.91 283.26 335.5 304.6 324.67 304.6 322.76 283.26 333.91 283.26"/>
          </g>
        </g>
      </g>
    </g>
  </g>
  <g id="Floor">
    <path class="cls-4" d="M439.25,447.99c0,.14-94.01.26-209.96.26s-209.98-.12-209.98-.26,93.99-.26,209.98-.26,209.96.12,209.96.26Z"/>
  </g>
  <g id="Plant">
    <g>
      <path class="cls-11" d="M437.13,221.21c-11.82,6.12-20.88,16.66-27.39,28.26-6.52,11.6-10.71,24.34-14.87,36.98l-3.64,65.19c13.75-23.39,24.79-50.89,27.77-77.86-3.05-.27-6.1-.54-9.15-.81,6.13-.94,11.28-5.38,14.56-10.65,3.28-5.27,4.96-11.35,6.61-17.33-3.72.55-7.44,1.11-11.16,1.66,8.74-5.83,15.08-15.16,17.28-25.44Z"/>
      <g class="cls-9">
        <path d="M437.13,221.21c-11.82,6.12-20.88,16.66-27.39,28.26-6.52,11.6-10.71,24.34-14.87,36.98l-3.64,65.19c13.75-23.39,24.79-50.89,27.77-77.86-3.05-.27-6.1-.54-9.15-.81,6.13-.94,11.28-5.38,14.56-10.65,3.28-5.27,4.96-11.35,6.61-17.33-3.72.55-7.44,1.11-11.16,1.66,8.74-5.83,15.08-15.16,17.28-25.44Z"/>
      </g>
      <path class="cls-11" d="M389.18,366.92s-29.84-35.72-29.5-69.82h12.06s-13.09-8.61-12.06-13.43,1.38-23.08,1.38-23.08l11.02,2.76s-8.27-4.13-9.3-10.68c-1.03-6.54,2.41-36.86,2.41-36.86,0,0,13.43,14.12,17.57,28.59,4.13,14.47,14.98,31.34,11.8,75.43-3.19,44.09-5.38,47.09-5.38,47.09Z"/>
      <path class="cls-11" d="M404.31,370.3s32.33-21.54,39.52-49.03l-9.69-2.64s12.41-4.06,12.63-8.16c.22-4.1,3.94-18.86,3.94-18.86l-9.46-.2s7.55-1.51,9.81-6.55c2.26-5.04,6.12-30.16,6.12-30.16,0,0-13.89,8.41-20.38,19.14-6.49,10.73-18.9,21.92-25.99,58.07-7.08,36.14-6.5,38.38-6.5,38.38Z"/>
      <path class="cls-4" d="M373.35,246.96s.04.12.11.37c.06.27.15.64.26,1.1.22,1,.54,2.42.94,4.24.41,1.84.89,4.1,1.41,6.73.53,2.63,1.15,5.61,1.75,8.93,1.28,6.62,2.62,14.54,4.01,23.35,1.34,8.82,2.69,18.53,3.88,28.75,1.17,10.23,2.08,19.99,2.78,28.89.66,8.89,1.15,16.91,1.42,23.65.17,3.37.25,6.42.33,9.1.09,2.68.14,4.98.16,6.87.02,1.86.04,3.32.05,4.34,0,.48,0,.85,0,1.13,0,.25,0,.38-.02.39,0,0-.02-.13-.04-.38-.01-.28-.03-.65-.05-1.13-.03-1.02-.08-2.48-.15-4.34-.05-1.88-.13-4.19-.25-6.86-.11-2.68-.22-5.72-.41-9.09-.32-6.73-.85-14.74-1.53-23.63-.73-8.88-1.65-18.64-2.82-28.86-1.19-10.22-2.52-19.92-3.84-28.74-1.36-8.81-2.67-16.73-3.9-23.36-.58-3.32-1.17-6.31-1.68-8.94-.49-2.63-.94-4.89-1.33-6.74-.36-1.83-.65-3.26-.85-4.26-.09-.47-.16-.84-.21-1.11-.04-.25-.06-.38-.05-.38Z"/>
      <path class="cls-11" d="M385.05,388.8s-27.31-30.99-35.79-49.72l6.4-2.74c-4.64.77-9.39-1.23-12.99-4.26-3.6-3.03-6.24-7.01-8.83-10.94l8.43-1.42c-7.67-2.15-14.43-7.39-18.43-14.27,9.95,1.64,18.95,7.1,26.37,13.93,6.01,5.53,11.1,11.96,15.98,18.52,2.38,3.2,4.47,6.61,6.21,10.2,4.59,9.49,12.66,29.31,12.64,40.69Z"/>
      <path class="cls-4" d="M444.26,272.74s-.04.11-.13.31c-.11.23-.25.52-.42.9-.4.82-.95,1.97-1.67,3.44-1.47,2.97-3.54,7.3-6.05,12.67-2.52,5.37-5.42,11.8-8.53,18.99-3.09,7.2-6.38,15.17-9.65,23.6-3.25,8.44-6.18,16.55-8.74,23.96-2.53,7.42-4.72,14.13-6.47,19.8-1.75,5.66-3.13,10.26-4.04,13.45-.46,1.57-.82,2.79-1.08,3.66-.12.4-.22.71-.29.95-.07.21-.11.32-.12.32,0,0,.01-.11.07-.33.06-.24.14-.56.24-.96.23-.88.56-2.11.99-3.69.86-3.2,2.18-7.82,3.89-13.5,1.7-5.68,3.85-12.41,6.36-19.84,2.54-7.42,5.45-15.54,8.71-23.99,3.27-8.44,6.58-16.4,9.69-23.6,3.14-7.19,6.08-13.61,8.64-18.96,2.56-5.35,4.68-9.66,6.21-12.6.75-1.45,1.34-2.59,1.75-3.39.19-.37.35-.65.47-.88.11-.2.17-.29.18-.29Z"/>
      <path class="cls-4" d="M387.36,402.08s-.06-.19-.13-.57c-.07-.43-.16-.98-.26-1.65-.1-.72-.24-1.59-.42-2.6-.18-1.01-.36-2.17-.63-3.43-.49-2.54-1.19-5.53-2.08-8.83-.92-3.29-2.05-6.87-3.44-10.56-1.4-3.68-2.92-7.12-4.4-10.2-1.51-3.06-2.96-5.78-4.27-8-.63-1.13-1.26-2.11-1.79-2.99-.53-.88-1-1.63-1.4-2.23-.36-.57-.66-1.04-.89-1.41-.2-.33-.3-.5-.28-.51.01-.01.14.15.37.45.26.36.58.81.97,1.36.42.59.93,1.32,1.48,2.19.55.87,1.21,1.84,1.86,2.96,1.35,2.21,2.85,4.91,4.39,7.98,1.51,3.08,3.05,6.52,4.46,10.22,1.39,3.71,2.51,7.31,3.41,10.62.87,3.32,1.54,6.33,1.98,8.89.25,1.27.4,2.43.56,3.45.16,1.02.26,1.9.34,2.62.07.67.12,1.22.17,1.66.03.38.04.58.02.58Z"/>
      <rect class="cls-1" x="363.63" y="394.79" width="59.77" height="12.19"/>
      <polygon class="cls-1" points="369.32 406.98 375.79 447.99 411.91 447.99 417.93 406.98 369.32 406.98"/>
      <path class="cls-4" d="M419.73,406.98c0,.14-11.31.26-25.25.26s-25.25-.12-25.25-.26,11.3-.26,25.25-.26,25.25.12,25.25.26Z"/>
    </g>
  </g>
  <g id="Character">
    <g>
      <g>
        <g>
          <g>
            <path class="cls-4" d="M133.24,96.18c.97-4.88,4.42-7.48,9.02-9.39,4.59-1.91,10.12-1.39,14.27,1.36,2.77,1.84,5.04,4.62,8.25,5.5,5.28,1.45,11.08-2.81,16.19-.82,3.02,1.18,4.96,4.64,4.39,7.83-.57,3.19-3.6,5.77-6.84,5.82,3.45,1.01,4.82,5.75,3.05,8.88-1.77,3.13-5.74,4.53-9.31,4.11-3.57-.42-6.79-2.36-9.61-4.58-2.83-2.22-5.4-4.78-8.39-6.77-3-1.99-6.56-3.41-10.13-2.98-4.83.58-8.75,4.52-10.63,9.01-1.87,4.49-2.04,9.5-1.99,14.36.05,4.87.29,9.8-.84,14.54-.13.56-.35,1.18-.88,1.39-.77.29-1.5-.5-1.94-1.2-4.96-7.9-8.34-16.77-9.9-25.97-.9-5.34-1.1-10.44,1.56-15.16,2.66-4.72,9.9-8.54,13.75-5.93"/>
            <g>
              <g>
                <path class="cls-2" d="M125.35,119.31l1.02,49.7c.19,9.28,4.85,18.88,19.51,17.91h0c12.66-1.8,12.99-10.68,12.92-21.68,0,0-.02.42,0,0,0,0,13.87-1.59,14.59-15.36.35-6.66-.05-20.42-.56-32.87-.54-13.37-11.28-24.08-24.65-24.61l-1.33-.05c-14.37.26-22.17,12.62-21.51,26.97Z"/>
                <path class="cls-5" d="M158.81,165.24s-8.71.16-17.73-6.02c0,0,3.91,10.86,17.71,10.17l.02-4.15Z"/>
              </g>
              <g>
                <g>
                  <g>
                    <path class="cls-4" d="M167.96,130.85c0,1.04-.89,1.89-1.98,1.91-1.08.01-1.96-.81-1.96-1.86,0-1.04.89-1.9,1.97-1.91,1.09-.02,1.96.82,1.96,1.86Z"/>
                    <path class="cls-4" d="M169.61,123.64c-.25.25-1.7-.92-3.82-.99-2.11-.11-3.71.92-3.93.65-.11-.12.16-.57.85-1.04.69-.46,1.84-.9,3.16-.84,1.32.06,2.41.59,3.03,1.11.63.53.83,1,.71,1.11Z"/>
                  </g>
                  <g>
                    <path class="cls-4" d="M148.34,129.99c0,1.04-.89,1.89-1.98,1.91-1.08.02-1.96-.81-1.96-1.86,0-1.04.89-1.9,1.98-1.91,1.09-.02,1.96.82,1.96,1.86Z"/>
                    <path class="cls-4" d="M148.78,123.21c-.25.25-1.7-.92-3.82-.99-2.11-.11-3.71.92-3.93.65-.11-.12.16-.57.86-1.04.69-.46,1.84-.9,3.16-.84,1.32.06,2.41.59,3.03,1.11.63.53.83,1,.71,1.11Z"/>
                  </g>
                  <path class="cls-4" d="M155.84,139.22c0-.12,1.32-.3,3.46-.48.54-.03,1.06-.12,1.16-.49.14-.39-.06-.98-.3-1.62-.46-1.33-.93-2.72-1.43-4.18-1.99-5.95-3.4-10.83-3.16-10.91.24-.08,2.05,4.68,4.03,10.63.48,1.47.93,2.87,1.37,4.2.18.62.5,1.33.2,2.13-.16.4-.57.68-.92.75-.35.09-.66.09-.92.09-2.15.03-3.48-.01-3.49-.13Z"/>
                </g>
                <path class="cls-4" d="M149.66,114.93c-.23.57-2.34.21-4.83.41-2.5.15-4.53.8-4.84.27-.14-.25.23-.78,1.07-1.31.82-.52,2.13-1,3.63-1.11,1.5-.1,2.85.19,3.74.59.9.4,1.34.87,1.24,1.14Z"/>
                <path class="cls-4" d="M169.08,117.48c-.39.47-1.83-.09-3.58-.18-1.75-.16-3.25.19-3.57-.32-.14-.25.11-.72.78-1.15.66-.43,1.74-.76,2.95-.67,1.2.09,2.23.56,2.82,1.08.6.52.78,1.02.61,1.25Z"/>
              </g>
            </g>
            <g>
              <path class="cls-2" d="M126.07,129.56c-.23-.11-9.36-3.18-9.43,6.25-.08,9.43,9.41,7.56,9.43,7.29.02-.27,0-13.55,0-13.55Z"/>
              <path class="cls-5" d="M123.22,139.51s-.17.11-.44.24c-.27.12-.74.2-1.23.02-.99-.37-1.82-1.96-1.85-3.66-.02-.86.17-1.67.48-2.35.29-.69.74-1.17,1.25-1.25.5-.11.85.19.97.46.12.26.06.45.11.47.03.02.2-.16.13-.55-.04-.19-.15-.41-.37-.59-.22-.19-.56-.28-.91-.25-.73.04-1.39.71-1.73,1.45-.38.74-.61,1.66-.59,2.62.05,1.9,1,3.69,2.36,4.09.66.18,1.22-.02,1.5-.24.29-.23.35-.44.31-.46Z"/>
            </g>
            <path class="cls-4" d="M173.52,104.17c-1.12-2.76-3.22-5.01-5.52-6.9-4.96-4.07-11.14-6.72-17.55-7.08-6.4-.35-12.99,1.68-17.8,5.93-3.85,3.39-6.46,8.07-7.78,13.03-1.32,4.96-1.4,10.19-.7,15.28.31,2.23.82,4.56,2.31,6.24.93,1.06,2.57,1.79,3.72.98.68-.48.95-1.33,1.18-2.13,2.1-7.2,4.2-14.94,1.82-22.05,1.89-2.28,4.08-4.38,6.73-5.7,2.65-1.33,5.81-1.81,8.61-.83,4.15,1.46,6.57,5.65,9.81,8.63,4.63,4.25,11.39,6.06,17.52,4.69l-2.35-10.08Z"/>
          </g>
          <g>
            <path class="cls-5" d="M156.88,145.12c-.27.85-.55,1.71-1.05,2.45-.5.74-1.27,1.35-2.16,1.45-.95.11-1.9-.39-2.48-1.15-.58-.75-.83-1.73-.85-2.68-.02-.86.31-1.91,1.15-2.07.35-.07.71.05,1.05.16,1.53.51,3.07,1.01,4.6,1.52"/>
            <path class="cls-4" d="M155.34,148.92c-.03-.14-.99.33-2.41-.14-.69-.23-1.46-.71-1.92-1.52-.46-.8-.61-1.92-.25-2.93.08-.25.22-.49.35-.7.17-.2.13-.19.33-.17.19.04.49.16.74.23.26.09.51.17.76.25.99.32,1.88.61,2.63.83,1.5.45,2.45.68,2.49.57.04-.1-.85-.52-2.3-1.11-.73-.29-1.6-.63-2.57-.99-.24-.09-.49-.18-.75-.28-.27-.09-.48-.19-.84-.28-.18-.04-.43-.05-.66.06-.23.11-.37.28-.47.42-.18.28-.34.57-.45.88-.45,1.26-.23,2.61.37,3.58.62.99,1.59,1.51,2.4,1.69.82.19,1.51.09,1.95-.05.44-.15.64-.31.62-.36Z"/>
          </g>
        </g>
        <path class="cls-11" d="M183.8,95.15s.05.21.1.64c0,.42.02,1.05-.2,1.83-.37,1.54-1.62,3.76-4.16,5.21-2.53,1.49-6.24,1.71-9.87.61-3.69-1.05-7.19-3.38-10.89-5.55-3.68-2.17-7.58-3.83-11.28-3.68-3.7.1-6.79,1.79-8.92,3.56-2.16,1.79-3.5,3.69-4.31,5.03-.8,1.36-1.12,2.18-1.18,2.15-.02,0,.05-.22.2-.61.14-.4.41-.95.77-1.66.76-1.39,2.06-3.36,4.24-5.24,2.14-1.86,5.31-3.65,9.18-3.79,3.88-.19,7.9,1.53,11.61,3.71,3.73,2.19,7.18,4.5,10.74,5.54,3.52,1.09,7.07.91,9.5-.45,2.46-1.34,3.71-3.43,4.14-4.9.45-1.51.25-2.41.33-2.41Z"/>
        <path class="cls-11" d="M119.03,114.78c-.06-.02.08-1.02.72-2.51.62-1.49,1.8-3.45,3.6-5.18.89-.87,1.84-1.58,2.76-2.14.92-.57,1.87-.94,2.73-.97.85-.04,1.52.22,1.9.49.39.27.51.51.48.53-.04.09-.8-.76-2.35-.59-1.51.17-3.36,1.5-5.1,3.12-1.73,1.67-2.92,3.52-3.63,4.92-.73,1.4-1.02,2.35-1.11,2.32Z"/>
        <path class="cls-11" d="M120.35,123.14c-.06-.02.16-1.01.89-2.48.72-1.46,2.01-3.36,3.86-5.04,1.86-1.68,3.88-2.76,5.41-3.33,1.53-.57,2.54-.69,2.55-.63.03.1-.94.37-2.39,1.03-1.45.65-3.37,1.76-5.17,3.38-1.8,1.63-3.09,3.42-3.89,4.8-.8,1.38-1.17,2.3-1.27,2.27Z"/>
      </g>
      <polygon class="cls-2" points="189.72 259.36 239.89 279.56 231.89 293.89 175 285.17 189.72 259.36"/>
      <g>
        <path class="cls-1" d="M189.82,200.96c.26,14.12-.2,48.11-.2,48.11l8.04,12.64-14.07,18.96-16.26,2.29-1.62,12.61s-28.48,12.75-51.27,5.02c-17.73-6.01-38.46,14.21-38.46,14.21,0,0-1.89-3.3,1.18-31.83,2.93-27.19,8.06-72.05,8.06-72.05l16.39-40.99,24.62-4.27c10.31,17.53,30.92,17.63,32.58,6.97l16.37,6.81c4.77,1.98,8.86,5.39,11.46,9.85,1.75,3.02,3.1,6.88,3.19,11.67Z"/>
        <path class="cls-4" d="M175.63,205.26c.14.02-1.59,16.21-3.86,36.16-2.28,19.96-4.24,36.12-4.38,36.11-.14-.02,1.59-16.2,3.86-36.16,2.28-19.95,4.24-36.12,4.38-36.1Z"/>
        <path class="cls-4" d="M167.51,241.81c.08.12-7.96,5.43-17.96,11.86-10,6.43-18.17,11.54-18.24,11.42-.08-.12,7.96-5.43,17.96-11.86,10-6.43,18.16-11.54,18.24-11.42Z"/>
      </g>
      <polygon class="cls-4" points="138.74 447.99 129.28 447.99 123.88 384.42 138.74 384.42 138.74 447.99"/>
      <polygon class="cls-4" points="65.09 447.99 55.64 447.99 50.24 384.42 65.09 384.42 65.09 447.99"/>
      <polygon class="cls-4" points="243.22 447.99 233.77 447.99 228.37 384.42 243.22 384.42 243.22 447.99"/>
      <g>
        <path class="cls-11" d="M91.02,327.78l9.01-137.82H15.04c-6.47,0-11.35,5.87-10.17,12.23l34.19,184.61c10.88-.15,209.15,0,209.15,0v-59.02H91.02Z"/>
        <path class="cls-4" d="M217.1,366.49c0,.14-18.84.26-42.07.26s-42.07-.12-42.07-.26,18.83-.26,42.07-.26,42.07.12,42.07.26Z"/>
      </g>
      <g>
        <path class="cls-1" d="M292.35,398.55l6.12,29.18s31.71,3.58,33.37,8.86l-56.15,13.89-11.4-45.07,28.06-6.86Z"/>
        <path class="cls-12" d="M280.5,429.59c-1.01.57-1.46,1.97-.94,3.01.52,1.04,1.95,1.5,2.97.96,1.02-.55,1.61-2.22.98-3.19-.64-.97-2.34-1.43-3.2-.65"/>
        <path class="cls-12" d="M275.94,451.68l-1.11-4.37,54.08-13.02s2.77.47,2.92,2.3l-55.9,15.09Z"/>
        <path class="cls-4" d="M299.31,427.22c.06.28-1.28.74-2.41,1.96-1.16,1.19-1.56,2.55-1.84,2.5-.27,0-.26-1.73,1.13-3.18,1.38-1.46,3.12-1.54,3.12-1.28Z"/>
        <path class="cls-4" d="M305.8,428.2c.13.25-.94,1.01-1.59,2.4-.68,1.37-.61,2.68-.89,2.74-.25.11-.83-1.45,0-3.16.82-1.72,2.4-2.23,2.47-1.97Z"/>
        <path class="cls-4" d="M310.89,434.42c-.23.12-.96-1.16-.62-2.83.32-1.68,1.47-2.59,1.64-2.39.21.19-.42,1.2-.67,2.58-.28,1.37-.08,2.55-.34,2.64Z"/>
        <path class="cls-4" d="M297.17,420.73c-.05.28-1.4.21-2.93.7-1.53.46-2.61,1.28-2.81,1.08-.21-.16.72-1.47,2.52-2.02,1.8-.56,3.3,0,3.22.24Z"/>
      </g>
      <path class="cls-4" d="M262.52,310.58l35.54,103.19-30.7,11.35-56.57-113.12-93.97-14.7,56.4-15.17,80.45,20.32c4.13,1.04,7.45,4.1,8.84,8.12Z"/>
      <g>
        <path class="cls-1" d="M291.37,387.09l20.3,22.29s29.48-13.15,33.63-9.39l-41.81,40.91-33.05-33.44,20.94-20.38Z"/>
        <path class="cls-12" d="M296.97,420.22c-.59,1.01-.26,2.47.73,3.1.99.63,2.47.31,3.08-.69.61-1,.27-2.76-.79-3.28-1.05-.52-2.77-.04-3.13,1.08"/>
        <path class="cls-12" d="M304.32,441.81l-3.21-3.24,40.46-39.09s2.65-1.01,3.73.51l-40.98,41.82Z"/>
        <path class="cls-4" d="M312.14,408.51c.19.21-.74,1.3-1.1,2.94-.41,1.63-.06,3.02-.32,3.12-.23.14-1.12-1.37-.64-3.35.46-1.98,1.93-2.95,2.07-2.71Z"/>
        <path class="cls-4" d="M318.3,406.03c.24.15-.3,1.36-.15,2.91.11,1.55.84,2.65.63,2.84-.16.22-1.47-.84-1.62-2.76-.17-1.92.95-3.18,1.14-2.99Z"/>
        <path class="cls-4" d="M325.92,408.84c-.14.23-1.43-.52-1.99-2.15-.58-1.63-.05-3.01.2-2.93.28.06.25,1.26.73,2.59.46,1.34,1.24,2.26,1.06,2.48Z"/>
        <path class="cls-4" d="M306.95,403.94c.1.27-1.12.9-2.19,2.11-1.1,1.19-1.62,2.45-1.9,2.38-.26-.03-.13-1.65,1.16-3.05,1.28-1.41,2.87-1.7,2.93-1.44Z"/>
      </g>
      <g>
        <path class="cls-4" d="M106.71,340.78l81.94-.35,90.94,84.68,28.27-26.33s-77.22-87.14-86.14-96.13c-8.93-8.99-94.88-14.98-94.88-14.98l-51.67,22.45,1.17,5.86c2.89,14.46,15.62,24.86,30.37,24.79Z"/>
        <path class="cls-11" d="M186.74,329.67c.14-.02.54,2.22.88,5,.34,2.78.51,5.04.36,5.06-.14.02-.54-2.22-.88-5-.34-2.78-.51-5.04-.36-5.06Z"/>
        <path class="cls-11" d="M298.42,388.28s-.34.45-1.02,1.19c-.68.74-1.68,1.8-2.93,3.1-2.5,2.59-6.01,6.11-9.98,9.9-3.97,3.79-7.66,7.13-10.36,9.51-1.35,1.19-2.46,2.14-3.23,2.78-.77.64-1.21.99-1.24.96-.02-.03.37-.42,1.1-1.11.8-.75,1.85-1.72,3.12-2.9,2.64-2.44,6.28-5.82,10.25-9.61,3.97-3.79,7.52-7.26,10.08-9.78,1.23-1.21,2.26-2.21,3.04-2.98.72-.7,1.14-1.07,1.16-1.05Z"/>
        <path class="cls-11" d="M249.5,397.09s.19.15.54.47c.36.33.88.8,1.56,1.42,1.38,1.27,3.4,3.13,6,5.52,5.21,4.83,12.75,11.81,22.12,20.48h-.25c8.03-7.5,17.62-16.45,28.24-26.37l-.02.32c-11.91-13.89-26.18-29.1-41.13-45.29-6.61-7.14-13.06-14.13-19.22-20.93-6.16-6.8-12.04-13.43-17.41-19.94-2.67-3.25-5.33-6.41-8.49-8.82-1.57-1.21-3.27-2.19-5.04-2.93-1.77-.75-3.6-1.25-5.42-1.66-3.65-.79-7.25-1.25-10.68-1.8-3.44-.53-6.74-1.05-9.89-1.54-12.59-1.97-22.78-3.57-29.84-4.67-3.51-.56-6.24-1-8.11-1.3-.91-.15-1.62-.27-2.11-.35-.47-.08-.71-.14-.71-.14,0,0,.25.02.72.08.49.07,1.2.17,2.11.3,1.87.28,4.61.68,8.12,1.2,7.07,1.07,17.27,2.61,29.87,4.51,3.15.48,6.46.98,9.9,1.51,3.44.55,7.03.99,10.72,1.78,1.84.41,3.7.92,5.5,1.68,1.81.75,3.55,1.75,5.14,2.98,3.22,2.44,5.9,5.63,8.58,8.87,5.37,6.49,11.26,13.1,17.42,19.9,6.16,6.8,12.61,13.77,19.22,20.92,14.95,16.18,29.21,31.41,41.11,45.34l.15.17-.16.15c-10.64,9.89-20.26,18.82-28.31,26.29l-.13.12-.12-.12c-9.32-8.72-16.82-15.75-22-20.6-2.57-2.42-4.56-4.3-5.93-5.59-.66-.63-1.17-1.12-1.53-1.46-.34-.33-.51-.51-.51-.51Z"/>
      </g>
      <g>
        <path class="cls-2" d="M177.59,275.26l-24.72,8.33-45.52-18.51-24.3,22.59,64.92,11.65c2.19.36,4.43.2,6.55-.47l19.14-6.01s6.26,7.07,7.56,7.17c1.3.1,3.94-.08,2.69-2.41s-4.47-6.4-4.47-6.4c0,0,8.79,7.25,9.79,6.28,1-.97.6-3.21-.96-5.04-1.56-1.83-6.73-7.76-6.73-7.76,0,0,10.83,8.97,11.86,7.61,1.03-1.36,1.54-3.51-2.8-7.67-2.85-2.73-7.24-6.63-9.55-8.67-.95-.84-2.27-1.1-3.47-.7Z"/>
        <path class="cls-5" d="M152.19,283.81c.1.1-1,1.37-2.36,2.92-1.36,1.55-2.47,2.81-2.58,2.72-.11-.08.82-1.5,2.19-3.07,1.37-1.57,2.65-2.68,2.75-2.58Z"/>
        <path class="cls-5" d="M188.65,292.92c-.06.07-.91-.72-2.08-2.13-1.19-1.4-2.77-3.39-4.56-5.54-1.82-2.06-3.35-4.41-5.33-4.02-.88.05-1.56.34-1.99.6-.43.26-.63.46-.66.43-.02-.02.13-.27.55-.6.41-.33,1.12-.7,2.07-.8.48-.05,1.01-.02,1.56.13.27.06.56.21.82.39.23.19.48.38.7.59.9.85,1.77,1.86,2.68,2.94,1.79,2.16,3.33,4.18,4.44,5.64.5.64.94,1.21,1.32,1.72.31.41.5.61.47.65Z"/>
        <path class="cls-5" d="M171.11,286.58s.15-.25.57-.52c.42-.26,1.14-.54,2.05-.52.46.01.94.07,1.47.29.52.24.95.66,1.31,1.13.37.47.68,1,1.02,1.5.34.49.76,1.01,1.15,1.54,3.22,4.23,5.61,7.85,5.39,7.98-.04.02-.18-.21-.47-.6-.37-.49-.78-1.03-1.24-1.65-1.15-1.53-2.55-3.38-4.1-5.42-.4-.54-.79-1.03-1.16-1.57-.35-.53-.65-1.05-.98-1.5-.33-.45-.7-.82-1.11-1.03-.41-.19-.89-.28-1.3-.31-1.72-.11-2.57.77-2.61.67Z"/>
        <path class="cls-5" d="M191.22,285.24c-.05.05-.81-.56-2.01-1.59-1.19-1.03-2.82-2.48-4.59-4.1-.87-.81-1.71-1.58-2.49-2.3-.75-.74-1.43-1.32-2.13-1.64-1.41-.65-2.42-.27-2.42-.35-.02-.03.21-.17.66-.24.45-.07,1.13-.05,1.9.25.38.15.77.37,1.17.65.39.29.75.62,1.14.97.79.71,1.63,1.48,2.52,2.27,1.78,1.62,3.36,3.12,4.5,4.22,1.13,1.1,1.81,1.81,1.76,1.86Z"/>
      </g>
      <g>
        <path class="cls-1" d="M80.75,288.29s-9.24-10.37-8.66-24.21c.58-13.84,4.55-53.9,6.32-64.9,1.75-10.87,10.03-25.99,23.2-29.26,9.63-2.39,11.62,26.74,11.62,26.74l-7.27,64.31,14.5,8.42-13.53,22.92-26.18-4.03Z"/>
        <path class="cls-4" d="M111.98,193.46c-.1.01-.22-1.41-.83-3.6-.3-1.1-.76-2.37-1.38-3.73-.64-1.35-1.45-2.79-2.46-4.2-1.02-1.4-2.14-2.61-3.22-3.65-1.1-1.01-2.17-1.85-3.12-2.48-1.89-1.26-3.2-1.82-3.16-1.91.01-.03.35.09.94.34.3.12.66.28,1.06.5.4.22.88.44,1.35.76.99.59,2.1,1.42,3.24,2.43,1.12,1.03,2.27,2.27,3.32,3.7,1.03,1.44,1.84,2.91,2.47,4.31.61,1.4,1.04,2.71,1.3,3.84.16.56.22,1.08.3,1.53.09.45.12.84.14,1.16.05.64.06,1,.02,1Z"/>
        <path class="cls-4" d="M105.93,261.02c.03.07-.87.53-2.29,1.34-1.42.8-3.34,1.98-5.34,3.46-1.99,1.49-3.67,2.99-4.86,4.11-1.19,1.12-1.91,1.84-1.96,1.78-.05-.04.57-.85,1.7-2.04,1.13-1.19,2.79-2.76,4.81-4.26,2.02-1.5,4-2.64,5.48-3.36,1.48-.73,2.44-1.07,2.46-1.01Z"/>
      </g>
      <g>
        <path class="cls-12" d="M201.93,246.36l-15.9,57.76h74.27l18.09-55.03c.71-2.15-.88-4.36-3.14-4.39l-70.06-.8c-1.52-.02-2.86.99-3.26,2.46Z"/>
        <path class="cls-4" d="M206.74,243.92c.14.04-3.46,13.55-8.05,30.17-4.58,16.63-8.41,30.07-8.55,30.03-.14-.04,3.46-13.54,8.05-30.17,4.58-16.62,8.41-30.07,8.55-30.03Z"/>
        <path class="cls-6" d="M235.45,273.12c-.86,1.77-.3,3.81,1.25,4.56,1.54.75,3.49-.08,4.35-1.86.86-1.77.3-3.81-1.25-4.56-1.54-.75-3.49.08-4.35,1.86Z"/>
        <path class="cls-12" d="M186.03,304.12h-49.7c0-2.35,1.9-4.25,4.25-4.25h47.29l-1.84,4.25Z"/>
      </g>
      <path class="cls-4" d="M72.09,264.08s.02.16.03.47c0,.33.02.79.03,1.37-.01.6.07,1.34.15,2.21.05.88.25,1.87.43,2.98.45,2.22,1.2,4.9,2.5,7.84,1.29,2.92,3.11,6.14,5.67,9.22l-.12-.06c7.46,1.13,16.39,2.49,26.19,3.98l-.25.12c3.29-5.58,6.85-11.62,10.54-17.87,1-1.7,2-3.39,2.98-5.05l.09.36c-5.06-2.94-9.93-5.77-14.49-8.43l-.14-.08v-.16c1.34-14.72,2.49-27.38,3.3-36.39.42-4.47.76-8.03.99-10.51.12-1.2.22-2.14.29-2.8.03-.3.06-.54.08-.72.02-.16.04-.24.04-.24,0,0,0,.08,0,.25-.01.19-.02.42-.04.73-.05.67-.12,1.61-.21,2.81-.2,2.48-.49,6.05-.85,10.52-.77,9.02-1.85,21.68-3.1,36.41l-.12-.24c4.57,2.65,9.44,5.48,14.5,8.41l.23.13-.13.23c-.98,1.67-1.98,3.35-2.98,5.05-3.69,6.25-7.26,12.28-10.56,17.86l-.09.15-.17-.03c-9.79-1.53-18.71-2.92-26.17-4.08h-.08s-.04-.06-.04-.06c-5.14-6.35-7.27-12.82-8.09-17.28-.17-1.13-.35-2.13-.38-3.01-.06-.88-.13-1.62-.1-2.22.01-.58.02-1.03.03-1.37,0-.31.02-.47.03-.47Z"/>
      <g>
        <g>
          <path class="cls-11" d="M34.89,282.13s87.83,11.12,90.97,14.2c2.75,2.71,6.27,74.04,7.05,73.7l-81.97-3.11-16.05-84.79Z"/>
          <path class="cls-4" d="M107.35,386.58c-.14.01-1.97-20.56-4.08-45.95-2.11-25.4-3.71-45.99-3.57-46,.14-.01,1.97,20.56,4.08,45.96,2.11,25.39,3.71,45.98,3.57,46Z"/>
          <path class="cls-4" d="M17.62,189.96s.04.11.1.34c.06.25.14.59.25,1.01.21.92.51,2.23.89,3.9.76,3.43,1.85,8.33,3.19,14.38,2.65,12.18,6.31,28.95,10.34,47.48,1,4.64,1.98,9.17,2.92,13.54.47,2.19.93,4.34,1.39,6.44.11.53.23,1.05.34,1.57.12.53.2,1.04.4,1.49.38.93,1.07,1.7,1.91,2.2.42.25.88.43,1.35.54.46.1.98.15,1.47.22.99.13,1.97.26,2.94.39,1.93.25,3.81.5,5.62.74,3.62.48,7,.93,10.08,1.33,6.14.83,11.12,1.5,14.6,1.97,1.7.24,3.03.43,3.97.56.43.07.77.12,1.03.16.23.04.35.06.35.07,0,0-.12,0-.36-.02-.26-.03-.6-.06-1.04-.11-.94-.11-2.28-.27-3.98-.46-3.48-.43-8.47-1.04-14.62-1.8-3.09-.39-6.47-.81-10.09-1.27-1.81-.23-3.69-.47-5.62-.71-.97-.12-1.95-.25-2.94-.37-.5-.07-.99-.11-1.52-.22-.52-.12-1.02-.31-1.49-.59-.93-.54-1.7-1.4-2.12-2.42-.22-.52-.31-1.06-.42-1.57-.11-.52-.23-1.04-.34-1.57-.46-2.1-.92-4.25-1.4-6.44-.95-4.37-1.93-8.9-2.93-13.54-3.98-18.54-7.58-35.33-10.19-47.52-1.28-6.06-2.31-10.98-3.03-14.41-.34-1.68-.61-3-.8-3.93-.08-.43-.15-.77-.19-1.02-.04-.23-.06-.35-.05-.35Z"/>
        </g>
        <path class="cls-4" d="M127.18,302c.14-.01,1.82,18.96,3.74,42.38,1.92,23.42,3.37,42.41,3.22,42.42-.14.01-1.82-18.96-3.74-42.38-1.92-23.41-3.37-42.41-3.22-42.42Z"/>
      </g>
    </g>
  </g>
  <g id="Screen">
    <g>
      <g>
        <rect class="cls-6" x="228.68" y="29.29" width="203.68" height="178.35"/>
        <rect class="cls-3" x="229.18" y="111.13" width="203.18" height="96.52"/>
        <path class="cls-4" d="M394.59,88.67c0,.14-27.87.26-62.25.26s-62.26-.12-62.26-.26,27.87-.26,62.26-.26,62.25.12,62.25.26Z"/>
        <path class="cls-4" d="M431.18,48.59c0,.14-45.11.26-100.75.26s-100.76-.12-100.76-.26,45.1-.26,100.76-.26,100.75.12,100.75.26Z"/>
        <circle class="cls-4" cx="239.71" cy="38.58" r="3.09"/>
        <circle class="cls-4" cx="250.05" cy="38.58" r="3.09"/>
        <path class="cls-4" d="M263.48,38.58c0,1.71-1.38,3.09-3.09,3.09s-3.09-1.38-3.09-3.09,1.38-3.09,3.09-3.09,3.09,1.38,3.09,3.09Z"/>
        <circle class="cls-1" cx="261.62" cy="88.12" r="8.13" transform="translate(14.32 210.8) rotate(-45)"/>
        <path class="cls-6" d="M262.99,84.04v7.87h-1.82v-6.41h-1.57v-1.46h3.4Z"/>
        <path class="cls-1" d="M343.5,88.39c-.07,0,0-1.06-.47-2.86-.46-1.77-1.65-4.38-4.32-6.4-1.32-.98-2.99-1.82-4.9-2.15-1.9-.32-4.05-.26-6.09.52-1.03.36-2.02.9-2.93,1.58-.92.67-1.76,1.5-2.45,2.46-1.42,1.9-2.23,4.33-2.25,6.84.02,2.51.82,4.95,2.25,6.84.69.96,1.52,1.79,2.45,2.46.91.68,1.9,1.22,2.93,1.58,2.04.78,4.19.84,6.09.52,1.92-.33,3.58-1.17,4.9-2.15,2.67-2.01,3.86-4.62,4.32-6.4.46-1.81.4-2.87.47-2.86.02,0,.02.26.01.76,0,.25,0,.56-.07.92-.05.36-.09.78-.22,1.24-.41,1.82-1.57,4.52-4.29,6.64-1.35,1.03-3.06,1.92-5.05,2.28-1.97.35-4.2.3-6.34-.5-1.07-.37-2.11-.93-3.06-1.63-.96-.69-1.84-1.56-2.56-2.56-1.49-1.98-2.34-4.52-2.36-7.15.02-2.62.87-5.17,2.36-7.14.72-1,1.6-1.87,2.56-2.56.95-.71,1.99-1.27,3.06-1.63,2.13-.8,4.36-.85,6.34-.5,1.99.37,3.7,1.25,5.05,2.28,2.72,2.12,3.88,4.82,4.29,6.64.13.46.17.88.22,1.24.06.36.07.67.07.92,0,.5,0,.76-.01.76Z"/>
        <path class="cls-4" d="M410.83,88.12c-.06,0-.02-.72-.35-1.96-.32-1.21-1.14-2.99-2.97-4.36-.9-.67-2.04-1.23-3.35-1.46-1.3-.22-2.76-.17-4.15.36-1.39.5-2.71,1.45-3.65,2.76-.97,1.29-1.51,2.95-1.53,4.65.02,1.71.56,3.36,1.53,4.65.94,1.31,2.27,2.26,3.65,2.76,1.39.53,2.85.58,4.15.36,1.31-.22,2.44-.79,3.35-1.46,1.83-1.37,2.65-3.14,2.97-4.36.33-1.24.29-1.96.35-1.96.02,0,.03.18.03.52,0,.34-.04.85-.18,1.49-.27,1.26-1.06,3.13-2.94,4.6-.93.72-2.12,1.33-3.49,1.59-1.37.25-2.91.22-4.39-.34-1.48-.52-2.89-1.52-3.9-2.91-1.04-1.37-1.62-3.14-1.64-4.96.02-1.82.6-3.59,1.64-4.96,1.01-1.39,2.42-2.38,3.9-2.9,1.48-.55,3.03-.58,4.39-.34,1.37.26,2.56.87,3.49,1.59,1.88,1.47,2.67,3.34,2.94,4.6.14.64.19,1.15.18,1.49,0,.34,0,.52-.03.52Z"/>
        <rect class="cls-1" x="268.64" y="87.78" width="78.98" height="1.43"/>
        <g>
          <circle class="cls-1" cx="331.66" cy="88.12" r="8.13" transform="translate(191.42 401.32) rotate(-80.76)"/>
          <path class="cls-6" d="M334.73,90.43v1.48h-5.95v-1.18l3.04-2.87c.7-.66.82-1.07.82-1.45,0-.62-.43-.98-1.26-.98-.67,0-1.25.26-1.63.79l-1.33-.85c.61-.89,1.71-1.46,3.13-1.46,1.75,0,2.92.9,2.92,2.33,0,.76-.21,1.46-1.32,2.49l-1.81,1.71h3.38Z"/>
        </g>
        <path class="cls-4" d="M405.79,89.51c0,1.33-1.02,2.54-3.26,2.54-1.1,0-2.24-.3-3-.84l.71-1.39c.6.45,1.43.71,2.25.71.91,0,1.47-.37,1.47-1.01,0-.6-.44-.97-1.47-.97h-.83v-1.2l1.62-1.83h-3.35v-1.46h5.51v1.18l-1.78,2.02c1.42.23,2.14,1.1,2.14,2.26Z"/>
        <path class="cls-4" d="M380.82,62.53c0,.14-19.78.26-44.17.26s-44.18-.12-44.18-.26,19.77-.26,44.18-.26,44.17.12,44.17.26Z"/>
        <polygon class="cls-3" points="326.23 112.29 332.34 104 338.44 112.29 326.23 112.29"/>
        <path class="cls-4" d="M432.35,207.65c0-1.85-.09-71.04-.22-178.35l.22.22c-58.56.01-128.58.03-203.66.04h-.02l.26-.26c-.01,64.8-.02,125.83-.03,178.35l-.23-.23c121.5.14,201.68.23,203.68.23-1.99,0-82.18.09-203.68.23h-.23s0-.23,0-.23c0-52.52-.02-113.55-.03-178.35v-.26h.28c75.08.01,145.1.03,203.66.04h.22s0,.22,0,.22c-.13,107.31-.22,176.5-.22,178.35Z"/>
        <path class="cls-1" d="M279.44,131.97c0,.14-6.21.26-13.88.26s-13.88-.12-13.88-.26,6.21-.26,13.88-.26,13.88.12,13.88.26Z"/>
        <path class="cls-7" d="M307.94,154.38h-52.46c-3.93,0-7.11-3.18-7.11-7.11h0c0-3.93,3.18-7.11,7.11-7.11h52.46c3.93,0,7.11,3.18,7.11,7.11h0c0,3.93-3.18,7.11-7.11,7.11Z"/>
        <path class="cls-1" d="M376.52,131.97c0,.14-5.89.26-13.15.26s-13.15-.12-13.15-.26,5.89-.26,13.15-.26,13.15.12,13.15.26Z"/>
        <path class="cls-1" d="M278.71,170.74c0,.14-5.89.26-13.15.26s-13.15-.12-13.15-.26,5.89-.26,13.15-.26,13.15.12,13.15.26Z"/>
        <path class="cls-7" d="M403.22,154.38h-52.46c-3.93,0-7.11-3.18-7.11-7.11h0c0-3.93,3.18-7.11,7.11-7.11h52.46c3.93,0,7.11,3.18,7.11,7.11h0c0,3.93-3.18,7.11-7.11,7.11Z"/>
        <path class="cls-7" d="M405.16,193.74h-149.3c-3.93,0-7.11-3.18-7.11-7.11h0c0-3.93,3.18-7.11,7.11-7.11h149.3c3.93,0,7.11,3.18,7.11,7.11h0c0,3.93-3.18,7.11-7.11,7.11Z"/>
      </g>
      <g>
        <circle class="cls-1" cx="431.18" cy="31.34" r="14.78" transform="translate(104.13 314.07) rotate(-45)"/>
        <g>
          <rect class="cls-6" x="430.06" y="24.23" width="2.96" height="13.28" transform="translate(148.2 -296.1) rotate(45)"/>
          <rect class="cls-6" x="430.06" y="24.23" width="2.96" height="13.28" transform="translate(104.57 314.18) rotate(-45)"/>
        </g>
      </g>
    </g>
  </g>
</svg>