<?xml version="1.0" encoding="UTF-8"?>
<svg xmlns="http://www.w3.org/2000/svg" version="1.1" viewBox="0 0 334 200.2">
  <defs>
    <style>
      .cls-1 {
        fill: #e0e0e0;
      }

      .cls-2 {
        fill: #aa6550;
      }

      .cls-3 {
        fill: #b78876;
      }

      .cls-4 {
        fill: #bfdd7d;
      }

      .cls-5 {
        fill: #263238;
      }

      .cls-6 {
        fill: #fafafa;
      }

      .cls-7 {
        opacity: .2;
      }

      .cls-8 {
        opacity: .3;
      }

      .cls-9 {
        fill: #455a64;
      }
    </style>
  </defs>
  <!-- Generator: Adobe Illustrator 28.6.0, SVG Export Plug-In . SVG Version: 1.2.0 Build 709)  -->
  <g>
    <g id="Calque_1">
      <g id="Calque_1-2" data-name="Calque_1">
        <g id="Calque_1-2">
          <g id="freepik--Character--inject-7">
            <polygon class="cls-3" points="274.2 190.3 311.8 189.9 308.8 176.4 275.3 173.9 274.2 190.3"/>
            <path class="cls-4" d="M293.2,173.5l17.4,1.1s7-17.3,10.2-17.4l-1,33.8-27.2-.7.5-16.9h.1Z"/>
            <path class="cls-1" d="M308.8,185c.2.7.9,1.1,1.5,1,.7-.2,1.1-.8,1-1.5-.2-.7-.9-1.1-1.6-1-.7.2-1.1,1-.9,1.7"/>
            <path class="cls-1" d="M319.8,191l-2.7-.2,2-32.4s.7-1.5,1.8-1.3l-1,33.8h0Z"/>
            <path class="cls-5" d="M310.4,174.1c.2,0,.2.8.7,1.7s1.2,1.3,1.1,1.4-1-.1-1.6-1.1-.4-2-.2-2Z"/>
            <path class="cls-5" d="M312,170.6c.2,0,.4.7,1.1,1.3s1.4.8,1.4.9-1,.2-1.8-.5-.9-1.7-.7-1.7h0Z"/>
            <path class="cls-5" d="M316.3,168.7c0,.2-.8.4-1.7,0s-1.2-1.2-1.1-1.3.6.4,1.3.8,1.4.4,1.4.6h.1Z"/>
            <path class="cls-5" d="M306.4,174.3c.1,0-.1.8,0,1.8s.3,1.7.2,1.8-.7-.6-.7-1.7.5-1.9.6-1.8h-.1Z"/>
            <path class="cls-5" d="M302.9,174.1c.1.6.1,1.1,0,1.7s-.3,1.2-.6,1.8c-.2.3-.3.7-.5,1-.1.2-.2.4-.4.5-.2.2-.6.2-.9,0-.2-.2-.4-.4-.4-.7s0-.4.1-.6c0-.3.2-.7.4-1,.3-.6.6-1.1,1.1-1.5.8-.8,1.4-1,1.4-1,0,0-.5.4-1.1,1.2-.4.5-.7,1-.9,1.5-.1.3-.2.7-.3,1-.1.4-.1.7,0,.8s0,0,.2,0c.1-.1.2-.2.3-.4.2-.3.4-.6.5-.9.3-.5.5-1.1.7-1.6.1-.6.3-1.2.5-1.7h-.1Z"/>
            <path class="cls-5" d="M303.2,174.3c-.5.3-1.1.4-1.6.4s-1.2,0-1.8-.3c-.3-.1-.7-.3-1-.5-.4-.2-.8-.6-.8-1.1s.2-.6.5-.7c.2,0,.4-.1.6-.1,1-.1,2.1.2,2.9.8.9.7,1,1.4,1,1.4,0,0-.4-.5-1.2-1.1-.5-.3-1-.5-1.6-.6h-1c-.4,0-.7.2-.6.3s.3.5.5.6c.3.2.6.3.9.4.5.2,1.1.3,1.7.4h1.6-.1Z"/>
            <path class="cls-3" d="M40.7,179.7l-2.9,11-32.2-.3s4.4-3.3,20.6-3.1l1.6-7.6h12.9Z"/>
            <path class="cls-5" d="M73.7,30.7c-1-1.8-1.7-3.7-2.3-5.7-.6-2-.6-4,0-6s2.2-3.5,4.2-4.1c1.2-.3,2.6-.2,3.7-.7,1.3-.6,2.2-1.9,3.2-2.9,1.6-1.7,3.7-2.7,6-3.1,1.2-.2,2.4,0,3.5.3,1.1.5,1.9,1.5,2.2,2.7,1.3-.6,2.8-1,4.2-1.2,1.5-.2,3,0,4.2,1s1.7,2.5,1.1,3.9c1.3-.7,2.9-.3,3.7.8.8,1.2.8,2.7,0,3.9-1,1.3-2.4,2.2-3.9,2.5-1.4.3-2.9.4-4.3.1"/>
            <path class="cls-3" d="M89.6,74.2h0c5.8-.7,9.9-5.9,9.2-11.7-.4-3.2-.7-5.9-.7-5.9,0,0,8.1-1.7,7.8-9.9s-2.7-27-2.7-27h0c-9.7-3.6-20.6-1.7-28.5,5l-1.2,1,4.2,39.1c.6,5.8,5.8,10,11.6,9.4h.3,0Z"/>
            <path class="cls-2" d="M98.1,56.4c-3.8.3-7.6-.6-10.8-2.5,0,0,2.8,5.8,11,4.6v-2.1h-.2Z"/>
            <path class="cls-3" d="M75,34.1c-.2,0-5.7-1.4-5.3,4.2s6,4,6,3.8-.7-8-.7-8Z"/>
            <path class="cls-2" d="M73.9,40.2l-.2.2c-.2.1-.5.1-.7,0-.8-.4-1.3-1.2-1.3-2.1s0-1,.2-1.4c0-.4.3-.7.7-.8.2,0,.5,0,.6.2v.3-.3c0-.1,0-.3-.2-.3-.2-.1-.4-.1-.6-.1-.5.1-.9.5-1,1-.2.5-.3,1.1-.2,1.6,0,1,.7,1.9,1.6,2.3.3,0,.6,0,.9-.2s.3-.3.3-.3h-.1Z"/>
            <path class="cls-5" d="M101.3,33.2c0,.6-.4,1.2-1.1,1.2s-1.2-.4-1.3-1h0c0-.6.4-1.2,1.1-1.2s1.2.4,1.3,1h0Z"/>
            <path class="cls-5" d="M102.3,31.2c0,.2-1.1-.5-2.3-.4s-2.1.7-2.3.6,0-.3.4-.7c.5-.4,1.2-.6,1.8-.7.7,0,1.3.1,1.9.5.4.3.6.6.5.6h0Z"/>
            <path class="cls-5" d="M89.3,33.7c0,.6-.4,1.2-1.1,1.2s-1.2-.4-1.3-1h0c0-.6.4-1.2,1.1-1.2s1.2.4,1.3,1h0Z"/>
            <path class="cls-5" d="M89.9,32.1c0,.2-1.1-.5-2.3-.4s-2.2.8-2.3.6,0-.4.4-.7c.5-.4,1.2-.6,1.8-.7.7,0,1.3.1,1.9.5.4.3.6.5.5.6h0Z"/>
            <path class="cls-5" d="M94.9,41.2c.6-.2,1.3-.4,2-.5.3,0,.6-.1.7-.4,0-.3,0-.7-.3-.9-.3-.8-.7-1.6-1.1-2.4-1-2-1.8-4.1-2.5-6.3,1.2,1.9,2.2,4,3,6.1l1,2.4c.2.4.3.8.2,1.3,0,.2-.3.4-.5.5-.2,0-.4,0-.5.1-.7.1-1.4.2-2.1.1h.1Z"/>
            <path class="cls-5" d="M91.3,42.3c.2,0,.3,1.3,1.5,2.3s2.7.7,2.7.9-.3.3-.9.3-1.6-.2-2.2-.6c-.6-.5-1-1.1-1.2-1.9v-.9h0Z"/>
            <path class="cls-5" d="M101.7,29c-.2.3-1.1,0-2.1,0s-1.9.3-2.1,0c0-.1,0-.4.4-.7.5-.4,1.1-.5,1.7-.5s1.2.1,1.7.5c.4.3.5.6.4.7h0Z"/>
            <path class="cls-5" d="M88,27.6c0,.2-.5.1-.9,0-.5,0-1-.1-1.6-.1s-1,0-1.6.2c-.4,0-.7.1-.9,0s0-.5.4-.9c.6-.5,1.3-.7,2-.7s1.4.2,2,.7c.5.4.6.7.5.9h0Z"/>
            <path class="cls-5" d="M103.8,22.1c-3.9,1.3-8.1,1.3-12,0-4.3-1.4-9.2-1.7-10.1-.7s-.5,5.1-4.3,7c0,0,1.5,7.9-1.7,8.1s-3.1-12.4-3.1-12.4l7.2-5,8.2-2.9,7.9-1.2,7.7,1.1.3,5.9h0Z"/>
            <path class="cls-4" d="M115.8,73.3l24.6,23.1,39-26.6,12.2,14-37.5,30c-3.8,3.4-8.6,5.3-13.6,5.5h0c-6.9.3-13.5-2.7-17.9-8l-13.2-11.1,6.3-26.8h0Z"/>
            <path class="cls-4" d="M92.9,63.4l22.9,9.9-.8,6.3,10.6,42.2,11.6,8.5-9.6,14.1c-2.2,3.2-5,5.8-8.3,7.8l-22.8,13.6c-4.4,1.6-9.4-.5-11.3-4.8l-20.2-45.8-20.3,62.9c-1.3,4.1-5.4,6.6-9.6,6l-8-1.2c-2.5-.4-4.3-2.7-3.9-5.3v-.5l22.7-88.2c1.2-4.6,3.1-8.9,5.8-12.9,4.9-7.4,13.2-11.9,22.1-12.1l19.1-.6h0Z"/>
            <path class="cls-4" d="M101,64l-.9-4.6-24.3-1.6v6.1c.2,1.7,3,1.2,5.6,2.3l11.9,2.4c2.9.2,9.1-.8,7.6-4.6h0Z"/>
            <path class="cls-5" d="M126,122c-.3-.5-.5-1.1-.6-1.6-.4-1-.9-2.6-1.5-4.5-1.2-3.8-2.8-9-4.3-14.9s-2.7-11.2-3.4-15.1c-.4-2-.7-3.5-.8-4.6,0-.6-.2-1.1-.2-1.7.2.5.3,1.1.4,1.7.3,1.2.6,2.7,1,4.6.9,3.9,2.1,9.2,3.6,15.1,1.5,5.9,3,11.1,4.1,14.9.5,1.8,1,3.4,1.3,4.5.2.5.3,1.1.4,1.7h0Z"/>
            <path class="cls-5" d="M72.4,94.3c-.2,1.1-.6,2.1-1,3.1-.7,2.1-1.6,4.6-2.6,7.5s-1.9,5.4-2.6,7.5c-.3,1.1-.7,2.1-1.2,3.1.2-1.1.4-2.2.8-3.2.6-2,1.4-4.6,2.5-7.6s2-5.6,2.8-7.5c.4-1,.8-2.1,1.3-3h0Z"/>
            <g class="cls-7">
              <path d="M65,115.2c2,4.4,3.9,8.8,5.8,13.3.3.7.7,1.4,1.2,2s1.3.9,2.1.8c1.4-.3,1.8-2.2,1.8-3.6.3-9.7,0-19.6-3.4-28.6-.2-.7-.7-1.4-1.4-1.4s-.9.8-1.1,1.4l-4.7,17"/>
            </g>
            <g class="cls-7">
              <path d="M128,116.1c.8-.5,1.2-1.4,1.2-2.3s-.3-1.8-.7-2.6c-2.6-6.2-6.2-11.9-10.6-17l4.8,17,5.3,5h0Z"/>
            </g>
            <path class="cls-1" d="M52.3,108.5s.2-5.8.5-12.9.7-12.9.7-12.9c0,0-.2,5.8-.5,12.9s-.7,12.9-.8,12.9h0Z"/>
            <path class="cls-1" d="M56.8,88.5v1.8c-.2,2.9-1.2,5.7-2.9,8-.3.4-.5.7-.8,1,0,.1-.2.2-.3.3,0,0,.4-.5,1-1.4,1.6-2.4,2.6-5.1,2.8-8v-1.7h.2Z"/>
            <path class="cls-1" d="M48.6,89.3s0,.6.3,1.5c.2,1.2.6,2.4,1.1,3.6.5,1.1,1.2,2.2,1.9,3.2.6.8,1,1.2,1,1.2,0,0-.2-.2-.3-.3-.3-.3-.5-.6-.8-.9-.8-1-1.5-2.1-2-3.2-.5-1.2-.9-2.4-1.1-3.6v-1.5h-.1Z"/>
            <path class="cls-1" d="M55.7,85.1v1.4c0,1.1-.3,2.2-.6,3.3s-.8,2.1-1.3,3.1c-.2.3-.3.6-.5.9,0,.1,0,.2-.2.3,0,0,.2-.5.6-1.2.5-1,.9-2,1.2-3,.3-1.1.5-2.2.7-3.3,0-.5,0-.9.2-1.4h-.1Z"/>
            <path class="cls-1" d="M50.5,85.7v1.6c0,1.3.2,2.6.5,3.8s.7,2.4,1.3,3.6c.4.9.7,1.4.7,1.4,0-.1-.2-.2-.2-.4-.2-.2-.3-.6-.6-1-.6-1.2-1-2.4-1.3-3.6-.3-1.3-.4-2.5-.4-3.8v-1.6Z"/>
            <path class="cls-1" d="M52.1,83.8s0,.4-.2.9v2.2c.4,1.7,1,3.1,1,3.1-.2-.3-.3-.6-.4-.9-.3-.7-.6-1.4-.7-2.2-.2-.8-.2-1.6,0-2.3,0-.3,0-.6.3-.9h0,.1Z"/>
            <path class="cls-1" d="M49,97s.6,1.1,1.6,2.3,1.9,2,1.9,2.1c-.2-.1-.5-.3-.7-.5-1-.9-1.8-1.9-2.5-3.1,0-.2-.3-.5-.3-.8Z"/>
            <path class="cls-1" d="M56.9,98.3c0,.3-.3.5-.5.8-.5.6-.9,1.2-1.5,1.7-.5.5-1.1,1.1-1.7,1.5-.2.2-.5.4-.8.5.2-.2.4-.5.7-.6.4-.4,1-.9,1.6-1.6s1.1-1.2,1.5-1.7c.2-.3.4-.5.6-.7h.1Z"/>
            <path class="cls-1" d="M35.3,173.2s.2-5.8.5-12.9.7-12.9.7-12.9c0,0-.2,5.8-.5,12.9s-.7,12.9-.7,12.9Z"/>
            <path class="cls-1" d="M39.8,153.1v1.8c-.2,2.9-1.2,5.7-2.9,8-.3.4-.5.7-.8,1,0,.1-.2.2-.3.3,0,0,.4-.5,1.1-1.4.8-1.2,1.5-2.5,1.9-3.8.5-1.3.8-2.7.9-4.2v-1.8h0Z"/>
            <path class="cls-1" d="M31.6,153.9s0,.6.3,1.5c.5,2.5,1.5,4.8,3.1,6.8.6.8,1,1.2,1,1.2,0,0-.2-.2-.3-.3-.3-.3-.5-.5-.8-.9-1.6-2-2.7-4.3-3.1-6.9v-1.5h-.2Z"/>
            <path class="cls-1" d="M38.8,149.7v1.4c-.2,2.3-.8,4.5-1.9,6.4-.2.4-.4.7-.5.9,0,.1,0,.2-.2.3,0,0,.2-.5.6-1.2.5-1,.9-2,1.2-3.1s.5-2.2.7-3.3v-1.4h.1Z"/>
            <path class="cls-1" d="M33.5,150.4v1.6c0,1.3.2,2.6.5,3.8.3,1.2.7,2.5,1.2,3.6.4.9.7,1.4.7,1.4,0,0,0-.1-.2-.4s-.4-.7-.6-1c-.6-1.2-1-2.4-1.3-3.6-.3-1.3-.4-2.6-.4-3.9v-1.6h0Z"/>
            <path class="cls-1" d="M35.2,148.5s0,.4-.2.9v2.3c.4,1.7,1,3.1,1,3.1-.2-.3-.3-.6-.4-.9-.3-.7-.6-1.4-.7-2.2-.2-.8-.2-1.5,0-2.3,0-.3,0-.6.3-.9h0,.1Z"/>
            <path class="cls-1" d="M32.1,161.6s.6,1.1,1.6,2.3,1.9,2,1.9,2.1c-.2-.1-.5-.3-.7-.5-.5-.4-1-.9-1.4-1.5-.4-.5-.8-1.1-1.1-1.7-.2-.2-.3-.5-.3-.8h0Z"/>
            <path class="cls-1" d="M39.9,162.9c0,.3-.3.5-.5.8-.5.6-.9,1.2-1.5,1.7-.5.5-1.1,1.1-1.7,1.5-.2.2-.5.4-.8.5.2-.2.4-.5.7-.6.4-.4,1-.9,1.6-1.6s1.1-1.2,1.5-1.7c.2-.3.4-.5.7-.7h0Z"/>
            <path class="cls-1" d="M72.3,90.2s.2-5.8.5-12.9.7-12.9.8-12.9-.2,5.8-.5,12.9-.7,12.9-.7,12.9h-.1Z"/>
            <path class="cls-1" d="M76.8,70.2v1.8c-.2,2.9-1.2,5.7-2.9,8-.3.3-.5.7-.8,1,0,.1-.2.2-.3.3,0,0,.4-.5,1.1-1.4,1.6-2.4,2.6-5.1,2.8-8,0-1.1,0-1.7.2-1.7h0Z"/>
            <path class="cls-1" d="M68.6,71s0,.6.3,1.5c.2,1.2.6,2.4,1.1,3.6.5,1.1,1.2,2.2,1.9,3.2.6.8,1,1.2,1,1.2l-.3-.3c-.3-.3-.5-.6-.8-.9-.8-1-1.5-2.1-2-3.2-.5-1.2-.9-2.4-1.1-3.6v-1.5h0Z"/>
            <path class="cls-1" d="M75.8,66.7v1.4c0,1.1-.3,2.2-.6,3.3-.3,1.1-.7,2.1-1.3,3.1-.2.4-.4.7-.5.9s-.2.3-.2.3c0,0,.2-.5.6-1.2.5-1,.9-2,1.2-3.1.3-1.1.5-2.2.7-3.3v-1.4h.1Z"/>
            <path class="cls-1" d="M70.5,67.5v1.6c0,1.3.2,2.6.5,3.8s.7,2.5,1.2,3.6c.4.9.7,1.4.7,1.4,0-.1-.2-.2-.2-.4-.2-.3-.4-.7-.6-1-.6-1.2-1-2.4-1.3-3.6-.3-1.3-.4-2.6-.4-3.9v-1.6h.1Z"/>
            <path class="cls-1" d="M72.2,65.6s0,.4-.2.9v2.3c.4,1.7,1,3.1,1,3.1-.2-.3-.3-.5-.4-.9-.3-.7-.6-1.4-.7-2.2-.2-.8-.2-1.5,0-2.3,0-.3,0-.6.3-.9h0,0Z"/>
            <path class="cls-1" d="M69.1,78.7s.6,1.1,1.6,2.3,1.9,2,1.9,2.1c-.2-.1-.5-.3-.7-.5-1-.9-1.8-1.9-2.5-3.1-.2-.2-.3-.5-.3-.8Z"/>
            <path class="cls-1" d="M76.9,80c0,.3-.3.5-.5.8-.5.6-.9,1.2-1.5,1.7-.5.5-1.1,1.1-1.7,1.5-.2.2-.5.4-.8.5.2-.2.4-.5.7-.6.4-.4,1-.9,1.6-1.5s1.1-1.2,1.5-1.7c.2-.3.4-.5.6-.7h.1Z"/>
            <path class="cls-1" d="M94,85.6s.2-5.8.5-12.9.7-12.9.7-12.9c0,0-.2,5.8-.5,12.9s-.7,12.9-.7,12.9Z"/>
            <path class="cls-1" d="M98.5,65.5v1.8c-.2,2.9-1.2,5.7-2.9,8-.3.3-.5.7-.8,1s-.3.4-.3.3.4-.5,1.1-1.4c1.6-2.4,2.6-5.1,2.8-8,0-1,0-1.7.2-1.7h0Z"/>
            <path class="cls-1" d="M90.3,66.4s0,.6.3,1.5c.2,1.2.6,2.4,1.1,3.6.5,1.1,1.2,2.2,1.9,3.2.6.8,1,1.2,1,1.2l-.3-.3c-.2-.2-.5-.5-.8-.9-.8-1-1.5-2.1-2-3.2-.5-1.2-.9-2.4-1.1-3.6v-1.5h0Z"/>
            <path class="cls-1" d="M97.4,62.1v1.4c0,1.1-.3,2.2-.6,3.3-.3,1.1-.8,2.1-1.3,3.1-.2.3-.3.6-.5.9,0,.2-.2.3-.2.3,0,0,.2-.5.6-1.2,1-2,1.6-4.2,1.9-6.4,0-.8,0-1.4.2-1.4h0Z"/>
            <path class="cls-1" d="M92.2,62.8v1.6c0,1.3.2,2.6.5,3.8s.7,2.5,1.2,3.6c.4.9.7,1.4.7,1.4,0-.1-.2-.2-.2-.4-.2-.2-.3-.6-.6-1-.6-1.2-1-2.4-1.3-3.6-.3-1.3-.4-2.6-.4-3.9v-1.6h.1Z"/>
            <path class="cls-1" d="M93.8,60.9s0,.4-.2.9v2.3c.4,1.7,1,3.1,1,3.1-.2-.3-.3-.6-.4-.9-.3-.7-.6-1.4-.7-2.2-.2-.8-.2-1.6,0-2.3,0-.3,0-.6.3-.9h0,0Z"/>
            <path class="cls-1" d="M90.7,74s.6,1.1,1.6,2.3,1.9,2,1.9,2.1c-.2-.1-.5-.3-.7-.5-.5-.4-1-.9-1.4-1.5-.4-.5-.8-1.1-1.1-1.7-.2-.2-.3-.5-.3-.8h0Z"/>
            <path class="cls-1" d="M98.6,75.4c0,.3-.3.6-.5.8-.4.6-.9,1.2-1.5,1.7-.5.5-1.1,1.1-1.7,1.5-.2.2-.5.4-.8.5.2-.2.4-.5.7-.6.4-.4,1-.9,1.6-1.5s1.1-1.2,1.5-1.7c.2-.2.4-.5.6-.7h.1Z"/>
            <path class="cls-1" d="M102.9,105.8s.2-5.8.5-12.9.7-12.9.8-12.9-.2,5.8-.5,12.9-.7,12.9-.7,12.9h-.1Z"/>
            <path class="cls-1" d="M107.4,85.8v1.8c-.2,2.9-1.2,5.7-2.9,8-.3.3-.5.7-.8,1,0,.1-.2.2-.3.3,0,0,.4-.5,1.1-1.4,1.6-2.4,2.6-5.1,2.8-8,0-1.1,0-1.7,0-1.7h0Z"/>
            <path class="cls-1" d="M99.2,86.6s0,.6.3,1.5c.2,1.2.6,2.4,1.1,3.6.5,1.1,1.2,2.2,1.9,3.2.6.8,1,1.2,1,1.2,0,0-.2-.2-.3-.3-.2-.2-.5-.5-.8-.9-.8-1-1.5-2.1-2-3.2-.5-1.2-.9-2.4-1.1-3.6,0-.5,0-.9,0-1.1v-.4h0Z"/>
            <path class="cls-1" d="M106.3,82.4v1.4c0,1.1-.3,2.2-.6,3.3-.3,1.1-.8,2.1-1.3,3.1s-.4.7-.5.9-.2.3-.2.3c0,0,.2-.5.6-1.2.5-1,.9-2,1.2-3.1s.5-2.2.7-3.3c0-.8,0-1.4,0-1.4h0Z"/>
            <path class="cls-1" d="M101.1,83.1v1.6c0,1.3.2,2.6.5,3.8s.7,2.5,1.2,3.6c.4.9.7,1.4.7,1.4,0,0,0-.1-.2-.4-.2-.3-.4-.7-.6-1-.6-1.2-1-2.4-1.3-3.6-.3-1.3-.4-2.6-.4-3.9v-1.6h.1Z"/>
            <path class="cls-1" d="M102.7,81.2s0,.4-.2.9c0,.8,0,1.5,0,2.3.4,1.7,1,3.1,1,3.1-.2-.3-.3-.6-.4-.9-.3-.7-.6-1.4-.7-2.2-.2-.8-.2-1.5,0-2.3,0-.3,0-.6.3-.9h-.1Z"/>
            <path class="cls-1" d="M99.7,94.3s.6,1.1,1.6,2.3,1.9,2,1.9,2.1c-.2-.1-.5-.3-.7-.5-.5-.4-1-.9-1.4-1.4s-.8-1.1-1.1-1.7c-.2-.2-.3-.5-.3-.8h0Z"/>
            <path class="cls-1" d="M107.5,95.6c0,.3-.3.5-.5.8-.5.6-.9,1.2-1.5,1.7-.5.5-1.1,1.1-1.7,1.5-.2.2-.5.4-.8.5.2-.2.4-.5.7-.6.4-.4,1-.9,1.6-1.5s1.1-1.2,1.5-1.7c.2-.2.4-.5.6-.7h.1Z"/>
            <path class="cls-1" d="M133.8,113.9s-1.9-5.5-4.1-12.3-3.9-12.3-3.9-12.3c0,0,1.9,5.5,4.1,12.3s3.9,12.3,3.9,12.3Z"/>
            <path class="cls-1" d="M130.9,93.5c0,.1.2.3.2.4.2.4.3.8.5,1.2.4,1.4.7,2.8.7,4.3s-.2,2.9-.5,4.3c-.1.4-.3.8-.4,1.2,0,.2-.1.3-.2.4,0,0,.2-.6.5-1.7.3-1.4.5-2.8.5-4.2s-.2-2.8-.6-4.2c-.3-1.1-.6-1.7-.5-1.7h-.2Z"/>
            <path class="cls-1" d="M123.5,97.2s.3.5.8,1.4c.7,1.1,1.5,2.1,2.3,2.9.9.9,1.9,1.7,2.9,2.3.8.5,1.4.8,1.4.8-.1,0-.3,0-.4-.1-.3-.2-.7-.3-1-.5-1.1-.6-2.1-1.4-3-2.3s-1.7-1.9-2.3-3c-.2-.3-.4-.7-.5-1,0-.1-.1-.3-.2-.4h0Z"/>
            <path class="cls-1" d="M128.7,90.7c0,.1.1.2.2.3.1.3.2.7.3,1,.3,1.1.5,2.2.6,3.3,0,1.1,0,2.3-.1,3.4,0,.4-.1.8-.2,1,0,.1,0,.2-.1.4,0,0,0-.5.1-1.4v-3.4c0-1.1-.3-2.2-.5-3.3-.2-.9-.3-1.4-.3-1.4h0Z"/>
            <path class="cls-1" d="M124,93.2s.2.6.6,1.5c1,2.4,2.4,4.5,4.3,6.3.7.7,1.2,1.1,1.2,1.1-.1,0-.3-.1-.4-.2-.3-.2-.6-.5-.9-.8-1.9-1.8-3.4-3.9-4.3-6.4-.2-.5-.3-.9-.4-1.1v-.4h-.1Z"/>
            <path class="cls-1" d="M124.9,90.8s0,.4.2.9c.2.7.5,1.4.9,2.1,1,1.5,2.1,2.5,2,2.5-.3-.2-.5-.4-.7-.6-.5-.6-1-1.2-1.5-1.8-.4-.6-.7-1.4-.9-2.1,0-.3-.1-.6,0-1h0Z"/>
            <path class="cls-1" d="M126.7,104.2s1,.8,2.3,1.6,2.5,1.2,2.5,1.3c-.3,0-.5-.1-.8-.2-.6-.2-1.2-.5-1.8-.9-.6-.3-1.1-.7-1.6-1.2l-.6-.6h0Z"/>
            <path class="cls-1" d="M134.5,102.7c0,.3,0,.6-.2.9-.2.7-.5,1.4-.8,2.1s-.6,1.4-1,2c-.1.3-.3.5-.5.8.1-.3.2-.6.4-.9.3-.5.6-1.2,1-2s.6-1.5.8-2.1c0-.3.2-.6.3-.9h0Z"/>
            <path class="cls-1" d="M166.8,85.6s-3.6,4.5-8.1,10.1-8.2,10-8.2,10c0,0,3.6-4.5,8.1-10.1s8.2-10,8.2-10Z"/>
            <path class="cls-1" d="M151.3,99.1c0-.1.2-.3.2-.4.2-.4.5-.7.8-1.1,1.9-2.2,4.3-3.9,7.1-4.8.4-.1.8-.2,1.3-.3h.5s-.7.2-1.7.5c-1.3.5-2.6,1.1-3.8,1.9s-2.3,1.8-3.2,2.8c-.7.8-1.1,1.4-1.1,1.4h-.1Z"/>
            <path class="cls-1" d="M158.4,103.3s.3-.5.7-1.4c.5-1.1.9-2.3,1.2-3.6.3-1.2.4-2.5.4-3.7s-.1-1.6,0-1.6v.4c0,.4,0,.8.1,1.1,0,1.3,0,2.5-.3,3.8-.3,1.2-.7,2.4-1.3,3.6-.2.3-.4.7-.6,1,0,.1-.1.2-.2.3h0Z"/>
            <path class="cls-1" d="M150.2,102.4s0-.1.2-.3c.2-.3.4-.5.6-.8.7-.8,1.6-1.6,2.5-2.3s1.9-1.3,2.9-1.7c.3-.2.7-.3,1-.4.1,0,.2,0,.4-.1,0,0-.5.2-1.2.6-1,.5-1.9,1.1-2.8,1.8-.9.7-1.7,1.4-2.5,2.2-.7.6-1,1-1,1h0Z"/>
            <path class="cls-1" d="M154.8,105s.4-.5.9-1.3c.7-1.1,1.4-2.2,1.9-3.4s.9-2.4,1.1-3.7c.2-1,.3-1.6.3-1.6v.4c0,.4,0,.8-.1,1.2-.2,1.3-.6,2.5-1.1,3.7s-1.2,2.3-1.9,3.4c-.3.4-.6.7-.8.9,0,.1-.2.2-.3.3h0Z"/>
            <path class="cls-1" d="M152.3,105.6s.3-.2.7-.7c.5-.6.9-1.2,1.2-1.9.7-1.6,1-3.1,1.1-3.1,0,.3,0,.7-.2,1-.2.8-.4,1.5-.7,2.2s-.8,1.4-1.3,1.9-.5.4-.8.5h0Z"/>
            <path class="cls-1" d="M162.6,96.8s.1-1.3,0-2.8-.3-2.8-.3-2.8c.1.3.2.5.2.8.1.7.2,1.3.2,2s0,1.3-.1,2c0,.3,0,.5-.2.8h.2Z"/>
            <path class="cls-1" d="M157.1,91.1c.3-.1.6-.3.9-.3.7-.2,1.5-.4,2.2-.5s1.5-.2,2.2-.2h.9c-.3,0-.6.1-.9.1-.6,0-1.4.1-2.2.3s-1.6.3-2.2.5c-.3,0-.6.2-.9.2h0Z"/>
            <path class="cls-1" d="M99.7,156.3s-.2-5.8-.4-12.9-.3-12.9-.2-12.9.2,5.8.4,12.9c.2,7.1.3,12.9.2,12.9Z"/>
            <path class="cls-1" d="M102.6,136v.5c0,.4,0,.9,0,1.3,0,2.9-.7,5.8-2.3,8.2-.3.5-.6.8-.8,1.1,0,.1-.2.3-.3.4,0,0,.4-.6.9-1.5.7-1.2,1.3-2.6,1.6-3.9.4-1.4.6-2.8.6-4.2v-1.8h.2Z"/>
            <path class="cls-1" d="M94.5,137.4s0,.6.4,1.5c.3,1.2.8,2.4,1.4,3.5s1.3,2.1,2.2,3.1c.6.7,1.1,1.1,1.1,1.1,0,0-.2-.2-.3-.3-.3-.2-.6-.5-.8-.8-.9-.9-1.6-2-2.2-3.1s-1.1-2.3-1.4-3.5c0-.4-.2-.8-.2-1.1v-.4h-.2Z"/>
            <path class="cls-1" d="M101.3,132.7v1.4c0,1.1,0,2.3-.4,3.4-.2,1.1-.6,2.2-1.1,3.2s-.3.7-.4.9c0,.1,0,.2-.2.3,0,0,.2-.5.5-1.3.4-1,.8-2.1,1-3.2s.4-2.2.4-3.3v-1.4h.2Z"/>
            <path class="cls-1" d="M96.1,133.7v1.6c0,1.3.4,2.5.8,3.8.4,1.2.9,2.4,1.5,3.5.5.9.8,1.4.8,1.4,0,0-.2-.2-.3-.3-.2-.2-.4-.5-.6-1-.7-1.1-1.2-2.3-1.6-3.5s-.6-2.5-.7-3.8v-1.6h0Z"/>
            <path class="cls-1" d="M97.7,131.7v.9c0,.8,0,1.5.3,2.2.5,1.7,1.3,3,1.2,3-.2-.3-.4-.5-.5-.8-.4-.7-.7-1.4-.9-2.1s-.3-1.5-.2-2.3c0-.3,0-.6.2-.9h0Z"/>
            <path class="cls-1" d="M95.6,145s.7,1,1.8,2.2,2.1,1.9,2,1.9c-.3-.1-.5-.3-.7-.4-.5-.4-1-.9-1.5-1.4s-.9-1-1.2-1.6c-.2-.2-.3-.5-.4-.7Z"/>
            <path class="cls-1" d="M103.5,145.7c0,.3-.3.6-.4.8-.8,1.3-1.8,2.4-2.9,3.5-.2.2-.5.4-.7.6.2-.3.4-.5.6-.7.4-.4.9-1,1.5-1.7s1-1.3,1.4-1.8c.2-.3.4-.5.6-.7h0Z"/>
            <path class="cls-1" d="M121.7,135.9s-1.9-5.5-4.1-12.2-3.9-12.3-3.9-12.3c0,0,1.9,5.5,4.1,12.3s3.9,12.3,3.9,12.3h0Z"/>
            <path class="cls-1" d="M118.8,115.5c0,.1.2.3.2.4.2.4.3.8.5,1.2.4,1.4.7,2.8.7,4.3s-.2,2.9-.5,4.3c0,.4-.3.8-.4,1.2,0,.3-.2.5-.2.4s.2-.6.5-1.7c.3-1.4.5-2.8.5-4.2s-.2-2.8-.6-4.2c-.3-1.1-.6-1.7-.5-1.7h-.2Z"/>
            <path class="cls-1" d="M111.4,119.2s.3.5.8,1.4c.7,1.1,1.4,2.1,2.3,2.9.9.9,1.9,1.7,3,2.3.8.5,1.4.8,1.4.8,0,0,0,0-.4-.1s-.6-.3-1-.5c-1.1-.6-2.1-1.4-3-2.3s-1.7-1.9-2.3-3c-.2-.3-.4-.7-.5-1-.2-.3-.3-.4-.2-.4h-.1Z"/>
            <path class="cls-1" d="M116.6,112.7c0,.1,0,.2,0,.3,0,.2.2.6.3,1,.6,2.2.8,4.5.5,6.7,0,.3,0,.7-.2,1,0,.1,0,.3,0,.4,0-.5,0-.9,0-1.4v-3.3c0-1.1-.3-2.2-.5-3.3,0-.5-.2-.9-.3-1.4h0Z"/>
            <path class="cls-1" d="M111.9,115.2s.2.6.6,1.5c.5,1.2,1.1,2.3,1.8,3.4s1.5,2,2.4,2.9c.7.7,1.2,1.1,1.2,1.1,0,0-.2-.1-.4-.2-.2-.2-.5-.4-.9-.8-1-.9-1.8-1.9-2.5-2.9-.7-1.1-1.3-2.2-1.8-3.5-.2-.5-.3-.9-.4-1.1v-.4h0Z"/>
            <path class="cls-1" d="M112.8,112.9s0,.4.2.9c.2.7.5,1.4.9,2.1,1,1.5,2.1,2.5,2,2.6-.2-.2-.5-.4-.7-.7-.5-.5-1-1.1-1.5-1.8-.4-.7-.7-1.4-.9-2.1,0-.3,0-.6,0-.9h0Z"/>
            <path class="cls-1" d="M114.5,126.2s1,.8,2.3,1.6,2.5,1.2,2.5,1.3c-.3,0-.5-.1-.8-.2-.6-.2-1.2-.5-1.8-.9-.6-.3-1.1-.7-1.6-1.2s-.4-.4-.6-.6h0Z"/>
            <path class="cls-1" d="M122.3,124.7c0,.3,0,.6-.2.9-.4,1.4-1,2.8-1.8,4.1,0,.3-.3.5-.5.8,0-.3.2-.6.4-.8.3-.5.6-1.2.9-2s.6-1.5.8-2.1c0-.3.2-.6.3-.9h.1,0Z"/>
            <path class="cls-1" d="M53.4,143.9s-1.9-5.5-4.1-12.2-3.9-12.3-3.9-12.3c0,0,1.9,5.5,4.1,12.3s3.9,12.3,3.9,12.3h0Z"/>
            <path class="cls-1" d="M50.4,123.6c0,.1.2.3.2.4.2.4.3.8.5,1.2.4,1.4.7,2.8.7,4.3s-.2,2.9-.5,4.3c0,.4-.3.8-.4,1.2,0,.3-.2.5-.2.4s.2-.6.5-1.7c.3-1.4.5-2.8.5-4.2s-.2-2.8-.6-4.2c-.3-1-.6-1.7-.5-1.7h-.2Z"/>
            <path class="cls-1" d="M43.1,127.2s.3.5.8,1.3c.7,1.1,1.4,2.1,2.3,2.9.9.9,1.9,1.7,3,2.3.8.5,1.4.8,1.3.8s-.3,0-.4-.1c-.2-.1-.6-.3-1-.5-1.1-.6-2.1-1.4-3-2.3s-1.7-1.9-2.3-3c-.2-.3-.4-.7-.5-1,0-.1-.2-.3-.2-.4h0Z"/>
            <path class="cls-1" d="M48.3,120.7c0,.1,0,.2.2.3,0,.2.2.6.3,1,.6,2.2.8,4.4.5,6.7,0,.4,0,.8-.2,1v.4-4.7c0-1.1-.3-2.2-.5-3.3,0-.4-.2-.9-.3-1.3h0Z"/>
            <path class="cls-1" d="M43.6,123.3s.2.6.6,1.5c.5,1.2,1.1,2.3,1.8,3.4.7,1.1,1.5,2,2.4,2.9.7.7,1.2,1.1,1.2,1.1l-.3-.2c-.3-.2-.6-.5-.9-.8-1-.9-1.8-1.9-2.5-2.9-.7-1.1-1.3-2.2-1.8-3.5-.2-.5-.3-.9-.4-1.1v-.4h0Z"/>
            <path class="cls-1" d="M44.5,120.9s0,.4.2.9c.2.7.5,1.4.9,2.1,1,1.5,2.1,2.5,2,2.5-.3-.2-.5-.4-.7-.6-.5-.5-1-1.1-1.5-1.8-.4-.7-.7-1.4-.9-2.1v-1h0Z"/>
            <path class="cls-1" d="M46.2,134.2s1,.8,2.3,1.6,2.5,1.2,2.5,1.3c-.3,0-.5-.1-.8-.2-.6-.2-1.2-.5-1.8-.9-.6-.3-1.1-.7-1.6-1.2-.2-.2-.4-.4-.6-.6h0Z"/>
            <path class="cls-1" d="M54,132.7c0,.3,0,.6-.2.9-.2.7-.5,1.4-.8,2.1s-.6,1.4-1,2c0,.3-.3.5-.5.8,0-.3.2-.6.4-.8.3-.5.6-1.2,1-2s.6-1.5.8-2.1c0-.3.2-.6.3-.9Z"/>
            <path class="cls-1" d="M82.4,124.1s.2-5.8.5-12.9.7-12.9.8-12.9-.2,5.8-.5,12.9-.7,12.9-.7,12.9h-.1Z"/>
            <path class="cls-1" d="M86.9,104.1v1.8c-.2,2.9-1.2,5.7-2.9,8-.3.3-.5.7-.8,1,0,.1-.2.2-.3.3,0,0,.4-.5,1.1-1.4,1.6-2.4,2.6-5.1,2.8-8,0-1.1,0-1.7.2-1.7h0Z"/>
            <path class="cls-1" d="M78.8,104.9s0,.6.3,1.5c.2,1.2.6,2.4,1.1,3.6.5,1.1,1.2,2.2,1.9,3.2.6.8,1,1.2,1,1.2l-.3-.3c-.3-.3-.5-.6-.8-.9-.8-1-1.5-2.1-2-3.2-.5-1.2-.9-2.4-1.1-3.6v-1.5h0Z"/>
            <path class="cls-1" d="M85.9,100.7v1.4c0,1.1-.3,2.2-.6,3.3-.3,1.1-.8,2.1-1.3,3.1-.2.3-.3.6-.5.9,0,.1,0,.2-.2.3,0,0,.2-.5.6-1.2.5-1,.9-2,1.2-3.1.3-1.1.5-2.2.7-3.3v-1.4h.1Z"/>
            <path class="cls-1" d="M80.6,101.4v1.6c0,1.3.2,2.6.5,3.8s.7,2.5,1.2,3.6c.4.9.7,1.4.7,1.4,0-.1-.2-.2-.2-.4-.2-.3-.4-.7-.6-1-.6-1.2-1-2.4-1.3-3.6-.3-1.3-.4-2.6-.4-3.9v-1.6h.1Z"/>
            <path class="cls-1" d="M82.3,99.5s0,.4-.2.9v2.2c.4,1.7,1,3.1,1,3.1-.2-.3-.3-.6-.4-.9-.3-.7-.6-1.4-.7-2.2-.2-.8-.2-1.5,0-2.3,0-.3,0-.6.3-.9h0,0Z"/>
            <path class="cls-1" d="M79.2,112.6s.6,1.1,1.6,2.3,1.9,2,1.9,2.1c-.2-.1-.5-.3-.7-.5-1-.9-1.8-1.9-2.5-3.1-.2-.2-.3-.5-.3-.8Z"/>
            <path class="cls-1" d="M87,113.9c0,.3-.3.5-.5.8-.9,1.2-2,2.3-3.1,3.2-.2.2-.5.4-.8.5.2-.2.4-.5.7-.6.4-.4,1-.9,1.6-1.5s1.1-1.2,1.5-1.7c.2-.3.4-.5.6-.7h0Z"/>
            <g class="cls-8">
              <path d="M76.6,64.4c3.9,3.1,8.4,5.5,13.2,6.9,2,.7,4.2,1,6.3.7,2.2-.3,4-1.8,4.7-3.8,0-.5,0-1.2-.4-1.4s-1,.2-1.5.6c-1.4,1.1-5.7,1.3-7.5,1.1-5.8-.7-9.6-2.1-14.9-4.1"/>
            </g>
            <path class="cls-5" d="M114.2,105c0,.2,0,.3.2.5,0,.3.2.8.4,1.4.4,1.8.6,3.6.7,5.4.5,12.3-5.8,23.9-16.5,30-1.6.9-3.2,1.7-4.9,2.3-.6.2-1.1.4-1.4.5-.2,0-.3,0-.5.1.6-.3,1.2-.5,1.8-.8,1.7-.7,3.3-1.5,4.8-2.4,10.4-6.2,16.7-17.5,16.4-29.6,0-1.8-.2-3.6-.5-5.4,0-.7-.3-1.3-.3-2h-.2Z"/>
            <g class="cls-7">
              <path d="M115,111.6c0,4.4-1.7,8.6-5.1,11.5-2.1,1.8-4.8,2.9-7,4.7-2,1.7-3.4,3.8-4.2,6.3-.4,1.3-.6,2.8.3,3.8s2.8.8,4.2.2c4.5-1.9,7.7-6.1,9.4-10.7s2.1-9.5,2.4-14.4"/>
            </g>
            <path class="cls-5" d="M140.3,107.9c-1.6-3.9-1.5-8.3.1-12.2-.4,2-.6,4.1-.8,6.1,0,2.1.3,4.1.6,6.1h0Z"/>
            <path class="cls-5" d="M143.3,106.7c-1.3-1.5-2.1-3.4-2.5-5.3-.5-1.9-.6-3.9,0-5.9,0,1.9.2,3.9.6,5.8.5,1.9,1.2,3.7,2,5.4h-.1Z"/>
            <path class="cls-2" d="M192.8,78.4s-.3-.2-.9-.5c-.7-.4-1.6-.4-2.4-.2h-.4c0,.1.2-.3.2-.3.3-.6.5-1.2.6-1.9.2-1.3,0-2.6-.6-3.8-.4-.9-.9-1.4-.9-1.4.5.3.9.7,1.1,1.3.7,1.2,1,2.6.7,4-.1.7-.3,1.4-.7,2l-.2-.3c.9-.2,1.8,0,2.6.4.6.4.8.7.8.7h0Z"/>
            <path class="cls-3" d="M199.5,74c.9-2.3,10.2-6.3,9-7.7-1.6-1.9-9.6,4.6-10.3,5.1s-1.4-.5-.8-1c.9-.6,10.9-7.1,9.3-9-.9-1-2.5.7-2.5.7,0,0-8.8,6.8-9.5,5.9s4.3-5.1,6.1-6.4,1.9-2.6.7-3c-.8-.2-6.4,3.6-8.2,4.9s-6.5,5-5.6,1.2.2-7-.5-7.7-2.1.1-1.9,1.3c.1,1.3,0,2.6-.2,3.9-.2,1-.6,2-1,3-.9,2.2-2.4,4.1-4.4,5.5l9.9,11.6,1.3-.9c4.9-3.3,9.4-4.6,12.1-6.1,4.9-2.8,4.7-3.3,4.3-3.8-1.1-1.4-8.8,4.7-7.8,2.4h0Z"/>
            <path class="cls-9" d="M186.2,55.7l3.2,20.7,12.5-.2.6-3.9s7.1,0,7.6-6-5.5-6.1-5.5-6.1l.9-5.4-19.3.8h0ZM202.8,70.3l1.5-7.7s4.3,0,3.9,3.4-5.5,4.3-5.5,4.3h.1Z"/>
            <path class="cls-5" d="M195.5,27.8l.2.2c.2.2.4.4.5.7.4,1,.5,2,.3,3.1-.3,1.5-.9,2.9-1.6,4.2-.4.8-.7,1.6-.9,2.5s-.1,1.8.2,2.7c.8,1.6,1.8,3.1,3.2,4.4,1.1,1.1,1.9,2.4,2.3,3.9.2,1,0,2.1-.4,3-.1.2-.3.5-.5.7l-.2.2c.2-.3.4-.6.6-.9.4-.9.5-1.9.2-2.9-.4-1.4-1.2-2.7-2.3-3.7-1.4-1.3-2.5-2.8-3.3-4.5-.4-.9-.4-2-.2-2.9s.5-1.7.9-2.6c.7-1.3,1.3-2.7,1.7-4.1.2-1,.2-2-.1-2.9-.3-.6-.6-.9-.5-.9v-.2h0Z"/>
            <path class="cls-5" d="M192.2,27.9l.2.2c.2.2.4.4.5.7.4,1,.5,2,.3,3.1-.4,1.5-.9,2.9-1.6,4.2-.4.8-.7,1.6-.9,2.5s-.1,1.8.2,2.7c.8,1.6,1.9,3.1,3.2,4.4,1.1,1.1,1.9,2.4,2.3,3.9.2,1,0,2.1-.4,3-.1.2-.3.5-.5.6l-.2.2s.3-.3.6-.9c.4-.9.5-1.9.2-2.9-.4-1.4-1.2-2.7-2.3-3.7-1.4-1.3-2.5-2.8-3.3-4.5-.3-.9-.4-2-.2-3,.2-.9.5-1.7.9-2.6.7-1.3,1.3-2.7,1.7-4.1.3-1,.2-2-.1-2.9-.3-.6-.6-.9-.5-1h0Z"/>
            <path class="cls-6" d="M187.4,64.2s0-.3.4-.6c.6-.4,1.3-.5,2-.3,1,.4,1.8.9,2.5,1.7.7.9,1.8,1.4,3,1.4,1.2-.1,2.2-1,3.2-1.4s1-.4,1.6-.4,1,0,1.4.3c.6.3,1.2.8,1.5,1.4s.3.7.2.7-.1-.2-.4-.6c-.4-.5-.9-.9-1.5-1.1-.4-.2-.8-.2-1.3-.2s-1,.2-1.4.4c-1,.7-2.2,1.2-3.4,1.5-.7,0-1.4,0-2-.5-.5-.3-1-.7-1.4-1.1-.6-.7-1.4-1.3-2.3-1.7-.6-.2-1.3-.1-1.8.1-.3.2-.5.5-.5.5h.2Z"/>
            <path class="cls-6" d="M186.9,61.5s0-.3.4-.6c.6-.4,1.4-.6,2.1-.4,1,.4,1.9,1,2.7,1.8s1.9,1.7,3.2,1.5,2.3-1,3.4-1.5c.5-.3,1.1-.4,1.7-.5,1.3,0,2.5.6,3.1,1.8.2.5.3.8.2.8s-.1-.2-.4-.6c-.4-.5-1-1-1.6-1.2-.4-.2-.9-.2-1.4-.2s-1,.2-1.5.5c-1,.5-2.1,1.4-3.6,1.6-.7,0-1.4,0-2.1-.5-.5-.3-1-.7-1.5-1.2-.7-.8-1.5-1.4-2.4-1.8-.6-.2-1.3-.2-1.9.2-.4.3-.5.5-.6.5l.2-.2h0Z"/>
            <polygon class="cls-5" points="93.4 166.3 110.7 190.6 299.8 190.5 299.7 169 204.1 159.9 124.6 148.1 93.4 166.3"/>
            <path class="cls-5" d="M123.9,148.8l13.4-18.5,37.8-46.7c5.3-5.7,13-8.6,20.7-7.8h0c9.5,1,17.5,7.4,20.7,16.4l25,76.2-33.1-5.2-16.8-47.2-26.5,37-41.2-4.2h0Z"/>
            <path class="cls-9" d="M241.4,163.5h-1.1l-3.3-.2-12.2-1-40.1-3.4-22.1-1.9c-3.4-.3-6.6-.6-9.6-.9-2.8-.3-5.6-.8-8.3-1.4-2.3-.5-4.5-1.3-6.6-2.3-1.6-.8-3-1.9-4.1-3.2-.8-.8-1.4-1.8-1.9-2.8-.2-.3-.3-.7-.4-1.1.6,1.4,1.4,2.6,2.4,3.7,1.2,1.3,2.6,2.3,4.1,3.1,2.1,1,4.3,1.8,6.5,2.2,2.7.6,5.5,1,8.3,1.3,3,.3,6.2.5,9.6.8l22.1,1.9,40.1,3.5,12.1,1.1,3.3.3h.9c0,.1.2.2.2.2h.1,0Z"/>
            <path class="cls-9" d="M194.2,99c-.2.8-.5,1.6-.8,2.4-1.3,3.9-1.9,8-1.8,12.1v2.6c-.2-.8-.4-1.7-.4-2.5-.1-2.1,0-4.2.3-6.2.3-2.1.8-4.1,1.6-6,.3-.8.6-1.6,1.1-2.3h0Z"/>
            <path class="cls-9" d="M186.9,105.4c.5,1.9,1.1,3.8,1.8,5.7.9,1.8,1.8,3.6,2.9,5.3-2.9-3-4.5-6.9-4.7-11h0Z"/>
            <path class="cls-9" d="M294.9,175.5c-.8,2.5-1.3,5-1.6,7.5-.1,2.6,0,5.1.3,7.7-.3-.7-.5-1.4-.6-2.2-.3-1.8-.4-3.7-.2-5.5.2-1.8.5-3.6,1.1-5.4.2-.7.5-1.4,1-2.1h0Z"/>
            <path class="cls-5" d="M101,66.2l-.2.2c-.2.2-.4.4-.6.5-.8.6-1.6,1-2.6,1.3-2.4.7-5.8.5-9.4,0-3.1-.5-6.1-1.4-9-2.6-1.1-.5-2-.9-2.6-1.2-.3-.1-.6-.3-.9-.6,0,0,1.4.6,3.6,1.4,2.9,1.1,5.9,1.9,9,2.4,3.6.6,6.9.8,9.2.2,1.2-.3,2.3-.9,3.3-1.7h.2Z"/>
          </g>
        </g>
      </g>
    </g>
  </g>
</svg>