<?xml version="1.0" encoding="UTF-8"?>
<svg xmlns="http://www.w3.org/2000/svg" xmlns:xlink="http://www.w3.org/1999/xlink" version="1.1" viewBox="0 0 698 314.1">
  <defs>
    <style>
      .cls-1 {
        fill: none;
      }

      .cls-2 {
        fill: #e0e0e0;
      }

      .cls-3 {
        fill: #aa6550;
      }

      .cls-4 {
        fill: #b78876;
      }

      .cls-5 {
        fill: #bfdd7d;
      }

      .cls-6 {
        fill: #ebebeb;
      }

      .cls-7 {
        fill: #263238;
      }

      .cls-8 {
        fill: #fff;
      }

      .cls-9 {
        fill: #fafafa;
      }

      .cls-10 {
        opacity: .2;
      }

      .cls-11 {
        opacity: .3;
      }

      .cls-12 {
        fill: #455a64;
      }

      .cls-13 {
        clip-path: url(#clippath);
      }
    </style>
    <clipPath id="clippath">
      <path class="cls-1" d="M367.3,153.6h-135.1c-6.6,0-11.9-5.3-11.9-11.9s5.3-11.9,11.9-11.9h135.1c4.7,0,8.5,3.8,8.5,8.5v6.8c0,4.7-3.8,8.5-8.5,8.5Z"/>
    </clipPath>
  </defs>
  <!-- Generator: Adobe Illustrator 28.6.0, SVG Export Plug-In . SVG Version: 1.2.0 Build 709)  -->
  <g>
    <g id="Calque_1">
      <g id="Calque_1-2" data-name="Calque_1">
        <g id="freepik--Floor--inject-7">
          <path class="cls-7" d="M689,303.8c0,.1-151.8.3-339,.3s-339-.2-339-.3,151.8-.3,339-.3,339,0,339,.3Z"/>
        </g>
        <g id="freepik--Device--inject-7">
          <rect class="cls-12" x="144.4" y="8.1" width="437.3" height="289.2" rx="14.6" ry="14.6"/>
          <path class="cls-12" d="M127.3,278.6h473.8v7.5c0,9.8-8,17.8-17.8,17.8H145.1c-9.8,0-17.8-8-17.8-17.8v-7.5h0Z"/>
          <rect class="cls-7" x="156.1" y="19.5" width="412.6" height="244.2"/>
          <polygon class="cls-7" points="319.9 275.9 325.8 285.2 408.5 285.2 414 275.9 319.9 275.9"/>
          <rect class="cls-6" x="164.6" y="27.8" width="396.5" height="235.2" rx="3.3" ry="3.3"/>
          <polygon class="cls-9" points="560.6 263.3 164.2 263.3 164.6 45.4 560.6 45.4 560.6 263.3"/>
          <path class="cls-7" d="M197.1,36.9c0,1.8-1.4,3.2-3.2,3.2s-3.2-1.4-3.2-3.2,1.4-3.2,3.2-3.2h0c1.7,0,3.2,1.4,3.2,3.2h0Z"/>
          <path class="cls-7" d="M177.9,36.9c0,1.8-1.4,3.2-3.2,3.2s-3.2-1.4-3.2-3.2,1.4-3.2,3.2-3.2h0c1.7,0,3.2,1.4,3.2,3.2h0Z"/>
          <path class="cls-7" d="M187.1,36.9c0,1.8-1.4,3.2-3.2,3.2s-3.2-1.4-3.2-3.2,1.4-3.2,3.2-3.2h0c1.8,0,3.2,1.4,3.2,3.2Z"/>
          <path class="cls-7" d="M577.9,275.8c0,.2-97.1.3-216.8.3s-216.8-.1-216.8-.3,97-.3,216.8-.3,216.8.1,216.8.3Z"/>
          <path class="cls-6" d="M501.6,153.6H232.2c-6.6,0-11.9-5.3-11.9-11.9h0c0-6.6,5.3-11.9,11.9-11.9h269.4c6.6,0,11.9,5.3,11.9,11.9h0c0,6.6-5.3,11.9-11.9,11.9Z"/>
          <path class="cls-2" d="M371.4,153.6h-14.4c-6.6,0-12-5.3-12.1-11.9v-.2h0c0-6.4,5-11.7,11.5-11.8h15c6.7.2,12.1,5.6,12,12.4h0c0,6.6-5.4,11.5-12,11.5Z"/>
          <g class="cls-13">
            <g>
              <path class="cls-5" d="M363.9,153.6h-131.7c-6.6,0-11.9-5.3-11.9-11.9h0c0-6.6,5.3-11.9,11.9-11.9h131.7c6.6,0,11.9,5.3,11.9,11.9h0c0,6.6-5.3,11.9-11.9,11.9h0Z"/>
              <g class="cls-10">
                <polygon class="cls-8" points="236.8 129.7 251.3 153.6 261.6 153.6 246.5 129.7 236.8 129.7"/>
              </g>
              <g class="cls-10">
                <polygon class="cls-8" points="214.7 129.7 229.3 153.6 239.6 153.6 224.4 129.7 214.7 129.7"/>
              </g>
              <g class="cls-10">
                <polygon class="cls-8" points="258.1 129.7 272.7 153.6 283 153.6 267.8 129.7 258.1 129.7"/>
              </g>
              <g class="cls-10">
                <polygon class="cls-8" points="279.4 129.7 294 153.6 304.3 153.6 289.2 129.7 279.4 129.7"/>
              </g>
              <g class="cls-10">
                <polygon class="cls-8" points="300.8 129.7 315.3 153.6 325.6 153.6 310.5 129.7 300.8 129.7"/>
              </g>
              <g class="cls-10">
                <polygon class="cls-8" points="322.1 129.7 336.7 153.6 347 153.6 331.8 129.7 322.1 129.7"/>
              </g>
              <g class="cls-10">
                <polygon class="cls-8" points="343.4 129.7 358 153.6 368.3 153.6 353.2 129.7 343.4 129.7"/>
              </g>
              <g class="cls-10">
                <polygon class="cls-8" points="364.8 129.7 379.4 153.6 389.7 153.6 374.5 129.7 364.8 129.7"/>
              </g>
            </g>
          </g>
          <path class="cls-5" d="M301.7,176.5c2.5,0,4,1.3,4,3.4s-1.5,3.6-4,3.6h-2.3v3h-1.7v-10h4ZM299.4,182h2.2c1.5,0,2.4-.7,2.4-2s-.9-2-2.4-2h-2.2v4Z"/>
          <path class="cls-5" d="M307.6,186.5v-10.7h1.7v10.7h-1.7Z"/>
          <path class="cls-5" d="M318.8,183.3h-5.8c.2,1.1,1.2,2,2.4,1.9.8,0,1.6-.3,2.2-.9l.9.9c-.8.9-2,1.3-3.2,1.3-2,.1-3.8-1.4-3.9-3.4v-.5c-.1-2.1,1.5-3.8,3.5-3.9h.3c2.7,0,3.7,1.8,3.6,4.5h0ZM317.4,182.1c0-1.1-.9-2-2-2h-.1c-1.2,0-2.1.8-2.2,2h4.4,0Z"/>
          <path class="cls-5" d="M325.5,185.6c-.6.7-1.6,1.1-2.5,1-1.3.1-2.5-.8-2.7-2.1v-.2c0-1.4,1-2.3,2.9-2.3h2.3v-.2c0-1-.6-1.5-1.8-1.5s-1.6.3-2.3.8l-.7-1.1c1-.7,2.1-1,3.3-1,2,0,3.1,1,3.1,2.7v5h-1.6v-1.1ZM325.5,183.9v-.7h-2.1c-1.1,0-1.6.3-1.6,1s.6,1.1,1.5,1.1,2.1-.6,2.1-1.4h.1Z"/>
          <path class="cls-5" d="M334.5,179.6l-.6,1.2c-.7-.4-1.4-.7-2.2-.7s-1.1.2-1.1.8c0,1.4,4.1.6,4.1,3.4s-1.4,2.3-2.9,2.3-2.2-.4-3.1-1.1l.6-1.2c.7.6,1.6.9,2.6,1,.7,0,1.3-.2,1.3-.8,0-1.6-4-.7-4-3.5s1.4-2.2,2.8-2.2,1.9.3,2.7.8h-.2Z"/>
          <path class="cls-5" d="M343.4,183.3h-5.8c.2,1.1,1.2,2,2.4,1.9.8,0,1.6-.3,2.2-.9l.9.9c-.8.9-2,1.3-3.2,1.3-2,.1-3.8-1.4-3.9-3.4v-.5c0-2.1,1.5-3.8,3.6-3.9h.3c2.7,0,3.8,1.8,3.6,4.5h-.1ZM341.9,182.1c0-1.1-.9-2-2-2h-.1c-1.2,0-2.2.8-2.2,2h4.4,0Z"/>
          <path class="cls-5" d="M358.1,186.5l-2.4-7.9-2.4,7.9h-1.8l-3.3-10.1h1.8l2.5,8.2,2.4-8.2h1.7l2.5,8.2,2.4-8.2h1.8l-3.4,10.1h-1.8Z"/>
          <path class="cls-5" d="M368.5,185.6c-.6.7-1.6,1.1-2.5,1-1.3.1-2.5-.8-2.7-2.1v-.2c0-1.4,1-2.3,2.9-2.3h2.3v-.2c0-1-.6-1.5-1.8-1.5s-1.6.3-2.3.8l-.7-1.1c1-.7,2.1-1,3.3-1,2,0,3.1,1,3.1,2.7v5h-1.6v-1.1ZM368.5,183.9v-.7h-2.1c-1.1,0-1.6.3-1.6,1s.6,1.1,1.5,1.1,2.1-.6,2.2-1.4h0Z"/>
          <path class="cls-5" d="M374.4,176.7c0,.6-.4,1-1,1s-1-.4-1-1,.4-1,1-1,1,.4,1,1ZM372.6,186.5v-7.7h1.6v7.7h-1.6Z"/>
          <path class="cls-5" d="M381.4,186c-.6.4-1.2.5-1.9.6-1.1,0-2.1-.7-2.1-1.8v-4.4h-1.1v-1.2h1.1v-2.1h1.7v2.1h2.3v1.2h-2.3v3.7c0,.8.3,1,.8,1s.8-.1,1.1-.3l.4,1.3h0Z"/>
          <path class="cls-5" d="M390.3,175.8c-2.3,3.8-2.3,8.6,0,12.5h-1.5c-2.3-3.8-2.3-8.6,0-12.5h1.5Z"/>
          <path class="cls-5" d="M396.1,182.5v-2.4h1.6v2.4h1.5v1.5h-1.5v2.5h-1.6v-2.5h-4.8v-1.2l3.4-6.3h1.6l-3.3,6.1h3.1Z"/>
          <path class="cls-5" d="M402.5,178v2.2h1.4c2.2,0,3.6,1.3,3.6,3.1s-1.5,3.4-3.7,3.4-2.5-.4-3.6-1.1l.7-1.4c.8.7,1.7,1,2.7,1.1,1.3,0,2.1-.7,2.1-1.8s-.8-1.6-2.1-1.6-2,0-2.6.1v-5.3h6.1v1.5h-4.5v-.2Z"/>
          <path class="cls-5" d="M414.2,179.4c0,1.9-1,3-2.7,3s-2.7-1.1-2.7-3,1-3,2.7-3,2.7,1.1,2.7,3ZM410,179.4c0,1.3.6,2,1.6,2s1.6-.8,1.6-2-.6-2-1.6-2-1.5.7-1.5,2h-.1ZM418.2,176.4h1.6l-7.4,10.1h-1.6l7.4-10.1ZM421.8,183.5c0,1.9-1,3-2.7,3s-2.7-1.1-2.7-3,1-3,2.7-3,2.7,1.2,2.7,3h0ZM417.6,183.5c0,1.3.6,2,1.5,2s1.6-.7,1.6-2-.6-2-1.6-2-1.5.8-1.5,2h0Z"/>
          <path class="cls-5" d="M425.9,175.8c2.3,3.8,2.3,8.6,0,12.5h-1.5c2.3-3.8,2.3-8.6,0-12.5h1.5Z"/>
          <path d="M318.7,101.5h1.7v10.3h6.4v1.5h-8v-11.7h-.1Z"/>
          <path d="M327.5,107.3c-.1-3.4,2.6-6.3,6-6.5,3.4-.1,6.3,2.6,6.5,6s-2.6,6.3-6,6.5h-.2c-3.3.1-6.1-2.4-6.2-5.7v-.3h0ZM338.3,107.3c0-2.5-2-4.6-4.5-4.6s-4.6,2-4.6,4.5,2,4.6,4.5,4.6h0c2.4,0,4.5-1.8,4.5-4.3v-.3h.1Z"/>
          <path d="M349.8,110.3h-6.2l-1.3,2.9h-1.7l5.3-11.7h1.7l5.3,11.7h-1.8l-1.3-2.9ZM349.2,108.9l-2.5-5.7-2.5,5.7h5.1-.1Z"/>
          <path d="M354.6,101.5h4.9c3.8,0,6.3,2.4,6.3,5.9s-2.6,5.9-6.3,5.9h-4.9v-11.7h0ZM359.5,111.7c2.9,0,4.8-1.8,4.8-4.4s-1.9-4.4-4.8-4.4h-3.2v8.8h3.2Z"/>
          <path d="M368.5,101.5h1.7v11.7h-1.7v-11.7Z"/>
          <path d="M383.7,101.5v11.7h-1.4l-7-8.8v8.8h-1.7v-11.7h1.3l7,8.7v-8.7h1.8Z"/>
          <path d="M395.4,107.3h1.6v4.6c-1.3,1-2.8,1.5-4.4,1.5-3.3,0-6-2.7-6-6s2.7-6,6-6,3.3.6,4.5,1.8l-1,1c-.9-.9-2.1-1.4-3.4-1.4-2.5-.2-4.6,1.7-4.8,4.2-.2,2.5,1.7,4.6,4.2,4.8h.6c1,0,1.9-.2,2.8-.8v-3.8h-.1Z"/>
          <path d="M399.4,112.1c0-.6.5-1.1,1.1-1.1h0c.6,0,1.1.5,1.1,1.1h0c0,.6-.5,1.1-1.1,1.2h0c-.6,0-1.1-.5-1.1-1.1h0Z"/>
          <path d="M403.2,112.1c0-.6.5-1.1,1.1-1.1h0c.6,0,1.1.5,1.1,1.1h0c0,.6-.5,1.1-1.1,1.2h0c-.6,0-1.1-.5-1.1-1.1h0Z"/>
          <path d="M407,112.1c0-.6.5-1.1,1.1-1.1h0c.6,0,1.1.5,1.1,1.1h0c0,.6-.5,1.1-1.1,1.2h0c-.6,0-1.1-.5-1.1-1.1h0Z"/>
        </g>
        <g id="freepik--Character--inject-7">
          <polygon class="cls-4" points="281 303.4 318.6 303 315.6 289.5 282.1 287 281 303.4"/>
          <path class="cls-5" d="M300,286.6l17.4,1.1s7-17.3,10.2-17.4l-1,33.8-27.2-.7.5-16.9h.1Z"/>
          <path class="cls-2" d="M315.6,298.1c.2.7.9,1.1,1.5,1,.7-.2,1.1-.8,1-1.5-.2-.7-.9-1.1-1.6-1-.7.2-1.1,1-.9,1.7"/>
          <path class="cls-2" d="M326.6,304.1l-2.7-.2,2-32.4s.7-1.5,1.8-1.3l-1,33.8h0Z"/>
          <path class="cls-7" d="M317.2,287.2c.2,0,.2.8.7,1.7s1.2,1.3,1.1,1.4-1-.1-1.6-1.1-.4-2-.2-2Z"/>
          <path class="cls-7" d="M318.8,283.7c.2,0,.4.7,1.1,1.3s1.4.8,1.4.9-1,.2-1.8-.5-.9-1.7-.7-1.7h0Z"/>
          <path class="cls-7" d="M323.1,281.8c0,.2-.8.4-1.7,0s-1.2-1.2-1.1-1.3.6.4,1.3.8,1.4.4,1.4.6h.1Z"/>
          <path class="cls-7" d="M313.2,287.4c.1,0-.1.8,0,1.8s.3,1.7.2,1.8-.7-.6-.7-1.7.5-1.9.6-1.8h-.1Z"/>
          <path class="cls-7" d="M309.7,287.2c.1.6.1,1.1,0,1.7s-.3,1.2-.6,1.8c-.2.3-.3.7-.5,1-.1.2-.2.4-.4.5-.2.2-.6.2-.9,0-.2-.2-.4-.4-.4-.7s0-.4.1-.6c0-.3.2-.7.4-1,.3-.6.6-1.1,1.1-1.5.8-.8,1.4-1,1.4-1,0,0-.5.4-1.1,1.2-.4.5-.7,1-.9,1.5-.1.3-.2.7-.3,1-.1.4-.1.7,0,.8s0,0,.2,0c.1-.1.2-.2.3-.4.2-.3.4-.6.5-.9.3-.5.5-1.1.7-1.6.1-.6.3-1.2.5-1.7h-.1Z"/>
          <path class="cls-7" d="M310,287.4c-.5.3-1.1.4-1.6.4s-1.2,0-1.8-.3c-.3-.1-.7-.3-1-.5-.4-.2-.8-.6-.8-1.1s.2-.6.5-.7c.2,0,.4-.1.6-.1,1-.1,2.1.2,2.9.8.9.7,1,1.4,1,1.4,0,0-.4-.5-1.2-1.1-.5-.3-1-.5-1.6-.6h-1c-.4,0-.7.2-.6.3s.3.5.5.6c.3.2.6.3.9.4.5.2,1.1.3,1.7.4h1.6-.1Z"/>
          <path class="cls-4" d="M47.5,292.8l-2.9,11-32.2-.3s4.4-3.3,20.6-3.1l1.6-7.6h12.9Z"/>
          <path class="cls-7" d="M80.5,143.8c-1-1.8-1.7-3.7-2.3-5.7-.6-2-.6-4,0-6s2.2-3.5,4.2-4.1c1.2-.3,2.6-.2,3.7-.7,1.3-.6,2.2-1.9,3.2-2.9,1.6-1.7,3.7-2.7,6-3.1,1.2-.2,2.4-.1,3.5.3,1.1.5,1.9,1.5,2.2,2.7,1.3-.6,2.8-1,4.2-1.2,1.5-.2,3,.1,4.2,1s1.7,2.5,1.1,3.9c1.3-.7,2.9-.3,3.7.8.8,1.2.8,2.7,0,3.9-1,1.3-2.4,2.2-3.9,2.5-1.4.3-2.9.4-4.3.1"/>
          <path class="cls-4" d="M96.4,187.3h0c5.8-.7,9.9-5.9,9.2-11.7-.4-3.2-.7-5.9-.7-5.9,0,0,8.1-1.7,7.8-9.9s-2.7-27-2.7-27h0c-9.7-3.6-20.6-1.7-28.5,5l-1.2,1,4.2,39.1c.6,5.8,5.8,10,11.6,9.4h.3Z"/>
          <path class="cls-3" d="M104.9,169.5c-3.8.3-7.6-.6-10.8-2.5,0,0,2.8,5.8,11,4.6v-2.1h-.2Z"/>
          <path class="cls-4" d="M81.8,147.2c-.2,0-5.7-1.4-5.3,4.2s6,4,6,3.8-.7-8-.7-8Z"/>
          <path class="cls-3" d="M80.7,153.3l-.2.2c-.2.1-.5.1-.7,0-.8-.4-1.3-1.2-1.3-2.1s0-1,.2-1.4c0-.4.3-.7.7-.8.2,0,.5,0,.6.2v.3s0-.1,0-.3c0-.1,0-.3-.2-.3-.2-.1-.4-.1-.6-.1-.5.1-.9.5-1,1-.2.5-.3,1.1-.2,1.6,0,1,.7,1.9,1.6,2.3.3,0,.6,0,.9-.2s.3-.3.3-.3h-.1Z"/>
          <path class="cls-7" d="M108.1,146.3c0,.6-.4,1.2-1.1,1.2s-1.2-.4-1.3-1h0c0-.6.4-1.2,1.1-1.2s1.2.4,1.3,1h0Z"/>
          <path class="cls-7" d="M109.1,144.3c-.1.2-1.1-.5-2.3-.4s-2.1.7-2.3.6,0-.3.4-.7c.5-.4,1.2-.6,1.8-.7.7,0,1.3.1,1.9.5.4.3.6.6.5.6h0Z"/>
          <path class="cls-7" d="M96.1,146.8c0,.6-.4,1.2-1.1,1.2s-1.2-.4-1.3-1h0c0-.6.4-1.2,1.1-1.2s1.2.4,1.3,1h0Z"/>
          <path class="cls-7" d="M96.7,145.2c0,.2-1.1-.5-2.3-.4s-2.2.8-2.3.6,0-.4.4-.7c.5-.4,1.2-.6,1.8-.7.7,0,1.3.1,1.9.5.4.3.6.5.5.6h0Z"/>
          <path class="cls-7" d="M101.7,154.3c.6-.2,1.3-.4,2-.5.3,0,.6-.1.7-.4,0-.3,0-.7-.3-.9-.3-.8-.7-1.6-1.1-2.4-1-2-1.8-4.1-2.5-6.3,1.2,1.9,2.2,4,3,6.1l1,2.4c.2.4.3.8.2,1.3,0,.2-.3.4-.5.5-.2,0-.4,0-.5.1-.7.1-1.4.2-2.1.1h0Z"/>
          <path class="cls-7" d="M98.1,155.4c.2,0,.3,1.3,1.5,2.3s2.7.7,2.7.9-.3.3-.9.3-1.6-.2-2.2-.6c-.6-.5-1-1.1-1.2-1.9,0-.6,0-.9,0-.9h0Z"/>
          <path class="cls-7" d="M108.5,142.1c-.2.3-1.1,0-2.1,0s-1.9.3-2.1,0c-.1-.1,0-.4.4-.7.5-.4,1.1-.5,1.7-.5s1.2.1,1.7.5c.4.3.5.6.4.7h0Z"/>
          <path class="cls-7" d="M94.8,140.7c0,.2-.5.1-.9,0-.5,0-1-.1-1.6-.1s-1,0-1.6.2c-.4,0-.7.1-.9,0s0-.5.4-.9c.6-.5,1.3-.7,2-.7s1.4.2,2,.7c.5.4.6.7.5.9h0Z"/>
          <path class="cls-7" d="M110.6,135.2c-3.9,1.3-8.1,1.3-12,0-4.3-1.4-9.2-1.7-10.1-.7s-.5,5.1-4.3,7c0,0,1.5,7.9-1.7,8.1s-3.1-12.4-3.1-12.4l7.2-5,8.2-2.9,7.9-1.2,7.7,1.1.3,5.9h-.1Z"/>
          <path class="cls-5" d="M122.6,186.4l24.6,23.1,39-26.6,12.2,14-37.5,30c-3.8,3.4-8.6,5.3-13.6,5.5h0c-6.9.3-13.5-2.7-17.9-8l-13.2-11.1,6.3-26.8h0Z"/>
          <path class="cls-5" d="M99.7,176.5l22.9,9.9-.8,6.3,10.6,42.2,11.6,8.5-9.6,14.1c-2.2,3.2-5,5.8-8.3,7.8l-22.8,13.6c-4.4,1.6-9.4-.5-11.3-4.8l-20.2-45.8-20.3,62.9c-1.3,4.1-5.4,6.6-9.6,6l-8-1.2c-2.5-.4-4.3-2.7-3.9-5.3v-.5l22.7-88.2c1.2-4.6,3.1-8.9,5.8-12.9,4.9-7.4,13.2-11.9,22.1-12.1l19.1-.6h0Z"/>
          <path class="cls-5" d="M107.8,177.1l-.9-4.6-24.3-1.6v6.1c.2,1.7,3,1.2,5.6,2.3l11.9,2.4c2.9.2,9.1-.8,7.6-4.6h0Z"/>
          <path class="cls-7" d="M132.8,235.1c-.3-.5-.5-1.1-.6-1.6-.4-1-.9-2.6-1.5-4.5-1.2-3.8-2.8-9-4.3-14.9s-2.7-11.2-3.4-15.1c-.4-2-.7-3.5-.8-4.6-.1-.6-.2-1.1-.2-1.7.2.5.3,1.1.4,1.7.3,1.2.6,2.7,1,4.6.9,3.9,2.1,9.2,3.6,15.1s3,11.1,4.1,14.9c.5,1.8,1,3.4,1.3,4.5.2.5.3,1.1.4,1.7h0Z"/>
          <path class="cls-7" d="M79.2,207.4c-.2,1.1-.6,2.1-1,3.1-.7,2.1-1.6,4.6-2.6,7.5s-1.9,5.4-2.6,7.5c-.3,1.1-.7,2.1-1.2,3.1.2-1.1.4-2.2.8-3.2.6-2,1.4-4.6,2.5-7.6s2-5.6,2.8-7.5c.4-1,.8-2.1,1.3-3h0Z"/>
          <g class="cls-10">
            <path d="M71.8,228.3c2,4.4,3.9,8.8,5.8,13.3.3.7.7,1.4,1.2,2s1.3.9,2.1.8c1.4-.3,1.8-2.2,1.8-3.6.3-9.7,0-19.6-3.4-28.6-.2-.7-.7-1.4-1.4-1.4s-.9.8-1.1,1.4l-4.7,17"/>
          </g>
          <g class="cls-10">
            <path d="M134.8,229.2c.8-.5,1.2-1.4,1.2-2.3s-.3-1.8-.7-2.6c-2.6-6.2-6.2-11.9-10.6-17l4.8,17,5.3,5h0Z"/>
          </g>
          <path class="cls-2" d="M59.1,221.6s.2-5.8.5-12.9.7-12.9.7-12.9c0,0-.2,5.8-.5,12.9s-.7,12.9-.8,12.9h.1Z"/>
          <path class="cls-2" d="M63.6,201.6v1.8c-.2,2.9-1.2,5.7-2.9,8-.3.4-.5.7-.8,1,0,.1-.2.2-.3.3,0,0,.4-.5,1-1.4,1.6-2.4,2.6-5.1,2.8-8,0-1,0-1.7,0-1.7h.1Z"/>
          <path class="cls-2" d="M55.4,202.4s0,.6.3,1.5c.2,1.2.6,2.4,1.1,3.6.5,1.1,1.2,2.2,1.9,3.2.6.8,1,1.2,1,1.2,0,0-.2-.2-.3-.3-.3-.3-.5-.6-.8-.9-.8-1-1.5-2.1-2-3.2-.5-1.2-.9-2.4-1.1-3.6,0-.4,0-.8,0-1.1v-.4h0Z"/>
          <path class="cls-2" d="M62.5,198.2v1.4c0,1.1-.3,2.2-.6,3.3-.3,1.1-.8,2.1-1.3,3.1-.2.3-.3.6-.5.9,0,.1,0,.2-.2.3,0,0,.2-.5.6-1.2.5-1,.9-2,1.2-3,.3-1.1.5-2.2.7-3.3,0-.5,0-.9.2-1.4h0Z"/>
          <path class="cls-2" d="M57.3,198.8v1.6c0,1.3.2,2.6.5,3.8.3,1.2.7,2.4,1.3,3.6.4.9.7,1.4.7,1.4,0-.1-.2-.2-.2-.4-.2-.2-.3-.6-.6-1-.6-1.2-1-2.4-1.3-3.6-.3-1.3-.4-2.5-.4-3.8v-1.6Z"/>
          <path class="cls-2" d="M58.9,196.9s0,.4-.2.9c0,.8,0,1.5,0,2.2.4,1.7,1,3.1,1,3.1-.2-.3-.3-.6-.4-.9-.3-.7-.6-1.4-.7-2.2-.2-.8-.2-1.6,0-2.3,0-.3,0-.6.3-.9h-.1Z"/>
          <path class="cls-2" d="M55.8,210.1s.6,1.1,1.6,2.3,1.9,2,1.9,2.1c-.2-.1-.5-.3-.7-.5-1-.9-1.8-1.9-2.5-3.1,0-.2-.3-.5-.3-.8Z"/>
          <path class="cls-2" d="M63.7,211.4c0,.3-.3.5-.5.8-.5.6-.9,1.2-1.5,1.7-.5.5-1.1,1.1-1.7,1.5-.2.2-.5.4-.8.5.2-.2.4-.5.7-.6.4-.4,1-.9,1.6-1.6s1.1-1.2,1.5-1.7c.2-.3.4-.5.6-.7h.1Z"/>
          <path class="cls-2" d="M42.1,286.3s.2-5.8.5-12.9.7-12.9.7-12.9c0,0-.2,5.8-.5,12.9s-.7,12.9-.7,12.9Z"/>
          <path class="cls-2" d="M46.6,266.2v1.8c-.2,2.9-1.2,5.7-2.9,8-.3.4-.5.7-.8,1,0,.1-.2.2-.3.3,0,0,.4-.5,1.1-1.4.8-1.2,1.5-2.5,1.9-3.8.5-1.3.8-2.7.9-4.2,0-1.1,0-1.8,0-1.8h0Z"/>
          <path class="cls-2" d="M38.4,267s0,.6.3,1.5c.5,2.5,1.5,4.8,3.1,6.8.6.8,1,1.2,1,1.2,0,0-.2-.2-.3-.3-.3-.3-.5-.5-.8-.9-1.6-2-2.7-4.3-3.1-6.9,0-.4,0-.8,0-1.1v-.4h0Z"/>
          <path class="cls-2" d="M45.6,262.8v1.4c-.2,2.3-.8,4.5-1.9,6.4-.2.4-.4.7-.5.9,0,.1,0,.2-.2.3,0,0,.2-.5.6-1.2.5-1,.9-2,1.2-3.1.3-1.1.5-2.2.7-3.3,0-.9,0-1.4,0-1.4h0Z"/>
          <path class="cls-2" d="M40.3,263.5v1.6c0,1.3.2,2.6.5,3.8.3,1.2.7,2.5,1.2,3.6.4.9.7,1.4.7,1.4,0,0,0-.1-.2-.4s-.4-.7-.6-1c-.6-1.2-1-2.4-1.3-3.6-.3-1.3-.4-2.6-.4-3.9v-1.6h.1Z"/>
          <path class="cls-2" d="M42,261.6s0,.4-.2.9c0,.8,0,1.5,0,2.3.4,1.7,1,3.1,1,3.1-.2-.3-.3-.6-.4-.9-.3-.7-.6-1.4-.7-2.2-.2-.8-.2-1.5,0-2.3,0-.3,0-.6.3-.9h-.1Z"/>
          <path class="cls-2" d="M38.9,274.7s.6,1.1,1.6,2.3,1.9,2,1.9,2.1c-.2-.1-.5-.3-.7-.5-.5-.4-1-.9-1.4-1.5-.4-.5-.8-1.1-1.1-1.7-.2-.2-.3-.5-.3-.8h0Z"/>
          <path class="cls-2" d="M46.7,276c0,.3-.3.5-.5.8-.5.6-.9,1.2-1.5,1.7-.5.5-1.1,1.1-1.7,1.5-.2.2-.5.4-.8.5.2-.2.4-.5.7-.6.4-.4,1-.9,1.6-1.6s1.1-1.2,1.5-1.7c.2-.3.4-.5.7-.7h0Z"/>
          <path class="cls-2" d="M79.1,203.3s.2-5.8.5-12.9.7-12.9.8-12.9-.2,5.8-.5,12.9-.7,12.9-.7,12.9h-.1Z"/>
          <path class="cls-2" d="M83.6,183.3v1.8c-.2,2.9-1.2,5.7-2.9,8-.3.3-.5.7-.8,1,0,.1-.2.2-.3.3,0,0,.4-.5,1.1-1.4,1.6-2.4,2.6-5.1,2.8-8,0-1.1,0-1.7.2-1.7h0Z"/>
          <path class="cls-2" d="M75.4,184.1s0,.6.3,1.5c.2,1.2.6,2.4,1.1,3.6.5,1.1,1.2,2.2,1.9,3.2.6.8,1,1.2,1,1.2,0,0-.2-.2-.3-.3-.3-.3-.5-.6-.8-.9-.8-1-1.5-2.1-2-3.2-.5-1.2-.9-2.4-1.1-3.6,0-.5,0-.9,0-1.1v-.4h0Z"/>
          <path class="cls-2" d="M82.6,179.8v1.4c0,1.1-.3,2.2-.6,3.3-.3,1.1-.7,2.1-1.3,3.1-.2.4-.4.7-.5.9s-.2.3-.2.3c0,0,.2-.5.6-1.2.5-1,.9-2,1.2-3.1.3-1.1.5-2.2.7-3.3,0-.8,0-1.4,0-1.4h0Z"/>
          <path class="cls-2" d="M77.3,180.6v1.6c0,1.3.2,2.6.5,3.8.3,1.2.7,2.5,1.2,3.6.4.9.7,1.4.7,1.4,0-.1-.2-.2-.2-.4-.2-.3-.4-.7-.6-1-.6-1.2-1-2.4-1.3-3.6-.3-1.3-.4-2.6-.4-3.9v-1.6h.1Z"/>
          <path class="cls-2" d="M79,178.7s0,.4-.2.9c0,.8,0,1.5,0,2.3.4,1.7,1,3.1,1,3.1-.2-.3-.3-.5-.4-.9-.3-.7-.6-1.4-.7-2.2-.2-.8-.2-1.5,0-2.3,0-.3,0-.6.3-.9h-.1Z"/>
          <path class="cls-2" d="M75.9,191.8s.6,1.1,1.6,2.3,1.9,2,1.9,2.1c-.2-.1-.5-.3-.7-.5-1-.9-1.8-1.9-2.5-3.1-.2-.2-.3-.5-.3-.8Z"/>
          <path class="cls-2" d="M83.7,193.1c0,.3-.3.5-.5.8-.5.6-.9,1.2-1.5,1.7-.5.5-1.1,1.1-1.7,1.5-.2.2-.5.4-.8.5.2-.2.4-.5.7-.6.4-.4,1-.9,1.6-1.5s1.1-1.2,1.5-1.7c.2-.3.4-.5.6-.7h.1Z"/>
          <path class="cls-2" d="M100.8,198.7s.2-5.8.5-12.9.7-12.9.7-12.9c0,0-.2,5.8-.5,12.9s-.7,12.9-.7,12.9Z"/>
          <path class="cls-2" d="M105.3,178.6v1.8c-.2,2.9-1.2,5.7-2.9,8-.3.3-.5.7-.8,1-.2.2-.3.4-.3.3s.4-.5,1.1-1.4c1.6-2.4,2.6-5.1,2.8-8,.1-1,.1-1.7.2-1.7h0Z"/>
          <path class="cls-2" d="M97.1,179.5s0,.6.3,1.5c.2,1.2.6,2.4,1.1,3.6.5,1.1,1.2,2.2,1.9,3.2.6.8,1,1.2,1,1.2,0,0-.2-.2-.3-.3-.2-.2-.5-.5-.8-.9-.8-1-1.5-2.1-2-3.2-.5-1.2-.9-2.4-1.1-3.6,0-.5,0-.9,0-1.1v-.4h0Z"/>
          <path class="cls-2" d="M104.2,175.2v1.4c0,1.1-.3,2.2-.6,3.3-.3,1.1-.8,2.1-1.3,3.1-.2.3-.3.6-.5.9,0,.2-.2.3-.2.3,0,0,.2-.5.6-1.2,1-2,1.6-4.2,1.9-6.4,0-.8.1-1.4.2-1.4h0Z"/>
          <path class="cls-2" d="M99,175.9v1.6c0,1.3.2,2.6.5,3.8.3,1.2.7,2.5,1.2,3.6.4.9.7,1.4.7,1.4,0-.1-.2-.2-.2-.4-.2-.2-.3-.6-.6-1-.6-1.2-1-2.4-1.3-3.6-.3-1.3-.4-2.6-.4-3.9v-1.6h.1Z"/>
          <path class="cls-2" d="M100.6,174s0,.4-.2.9c0,.8,0,1.5,0,2.3.4,1.7,1,3.1,1,3.1-.2-.3-.3-.6-.4-.9-.3-.7-.6-1.4-.7-2.2-.2-.8-.2-1.6,0-2.3,0-.3,0-.6.3-.9h-.1Z"/>
          <path class="cls-2" d="M97.5,187.1s.6,1.1,1.6,2.3,1.9,2,1.9,2.1c-.2-.1-.5-.3-.7-.5-.5-.4-1-.9-1.4-1.5-.4-.5-.8-1.1-1.1-1.7-.2-.2-.3-.5-.3-.8h0Z"/>
          <path class="cls-2" d="M105.4,188.5c-.1.3-.3.6-.5.8-.4.6-.9,1.2-1.5,1.7-.5.5-1.1,1.1-1.7,1.5-.2.2-.5.4-.8.5.2-.2.4-.5.7-.6.4-.4,1-.9,1.6-1.5s1.1-1.2,1.5-1.7c.2-.2.4-.5.6-.7h0Z"/>
          <path class="cls-2" d="M109.7,218.9s.2-5.8.5-12.9.7-12.9.8-12.9-.2,5.8-.5,12.9-.7,12.9-.7,12.9h-.1Z"/>
          <path class="cls-2" d="M114.2,198.9v1.8c-.2,2.9-1.2,5.7-2.9,8-.3.3-.5.7-.8,1,0,.1-.2.2-.3.3,0,0,.4-.5,1.1-1.4,1.6-2.4,2.6-5.1,2.8-8,.1-1.1.1-1.7.1-1.7h0Z"/>
          <path class="cls-2" d="M106,199.7s0,.6.3,1.5c.2,1.2.6,2.4,1.1,3.6.5,1.1,1.2,2.2,1.9,3.2.6.8,1,1.2,1,1.2-.1,0-.2-.2-.3-.3-.2-.2-.5-.5-.8-.9-.8-1-1.5-2.1-2-3.2-.5-1.2-.9-2.4-1.1-3.6,0-.5-.1-.9-.1-1.1v-.4h0Z"/>
          <path class="cls-2" d="M113.1,195.5v1.4c0,1.1-.3,2.2-.6,3.3-.3,1.1-.8,2.1-1.3,3.1s-.4.7-.5.9-.2.3-.2.3c0,0,.2-.5.6-1.2.5-1,.9-2,1.2-3.1s.5-2.2.7-3.3c0-.8.1-1.4.1-1.4h0Z"/>
          <path class="cls-2" d="M107.9,196.2v1.6c0,1.3.2,2.6.5,3.8.3,1.2.7,2.5,1.2,3.6.4.9.7,1.4.7,1.4,0,0-.1-.1-.2-.4-.2-.3-.4-.7-.6-1-.6-1.2-1-2.4-1.3-3.6-.3-1.3-.4-2.6-.4-3.9v-1.6h.1Z"/>
          <path class="cls-2" d="M109.5,194.3s0,.4-.2.9c0,.8,0,1.5.1,2.3.4,1.7,1,3.1,1,3.1-.2-.3-.3-.6-.4-.9-.3-.7-.6-1.4-.7-2.2-.2-.8-.2-1.5,0-2.3,0-.3.1-.6.3-.9h-.1Z"/>
          <path class="cls-2" d="M106.5,207.4s.6,1.1,1.6,2.3,1.9,2,1.9,2.1c-.2-.1-.5-.3-.7-.5-.5-.4-1-.9-1.4-1.4s-.8-1.1-1.1-1.7c-.2-.2-.3-.5-.3-.8Z"/>
          <path class="cls-2" d="M114.3,208.7c-.1.3-.3.5-.5.8-.5.6-.9,1.2-1.5,1.7-.5.5-1.1,1.1-1.7,1.5-.2.2-.5.4-.8.5.2-.2.4-.5.7-.6.4-.4,1-.9,1.6-1.5s1.1-1.2,1.5-1.7c.2-.2.4-.5.6-.7h0Z"/>
          <path class="cls-2" d="M140.6,227s-1.9-5.5-4.1-12.3-3.9-12.3-3.9-12.3c0,0,1.9,5.5,4.1,12.3s3.9,12.3,3.9,12.3Z"/>
          <path class="cls-2" d="M137.7,206.6c0,.1.2.3.2.4.2.4.3.8.5,1.2.4,1.4.7,2.8.7,4.3s-.2,2.9-.5,4.3c-.1.4-.3.8-.4,1.2,0,.2-.1.3-.2.4,0,0,.2-.6.5-1.7.3-1.4.5-2.8.5-4.2s-.2-2.8-.6-4.2c-.3-1.1-.6-1.7-.5-1.7h-.2Z"/>
          <path class="cls-2" d="M130.3,210.3s.3.5.8,1.4c.7,1.1,1.5,2.1,2.3,2.9.9.9,1.9,1.7,2.9,2.3.8.5,1.4.8,1.4.8-.1,0-.3,0-.4-.1-.3-.2-.7-.3-1-.5-1.1-.6-2.1-1.4-3-2.3s-1.7-1.9-2.3-3c-.2-.3-.4-.7-.5-1,0-.1-.1-.3-.2-.4h0Z"/>
          <path class="cls-2" d="M135.5,203.8c0,.1.1.2.2.3.1.3.2.7.3,1,.3,1.1.5,2.2.6,3.3,0,1.1,0,2.3-.1,3.4,0,.4-.1.8-.2,1,0,.1,0,.2-.1.4,0,0,0-.5.1-1.4v-3.4c0-1.1-.3-2.2-.5-3.3-.2-.9-.3-1.4-.3-1.4h0Z"/>
          <path class="cls-2" d="M130.8,206.3s.2.6.6,1.5c1,2.4,2.4,4.5,4.3,6.3.7.7,1.2,1.1,1.2,1.1-.1,0-.3-.1-.4-.2-.3-.2-.6-.5-.9-.8-1.9-1.8-3.4-3.9-4.3-6.4-.2-.5-.3-.9-.4-1.1v-.4h-.1Z"/>
          <path class="cls-2" d="M131.7,203.9s0,.4.2.9c.2.7.5,1.4.9,2.1,1,1.5,2.1,2.5,2,2.5-.3-.2-.5-.4-.7-.6-.5-.6-1-1.2-1.5-1.8-.4-.6-.7-1.4-.9-2.1,0-.3-.1-.6,0-1Z"/>
          <path class="cls-2" d="M133.5,217.3s1,.8,2.3,1.6,2.5,1.2,2.5,1.3c-.3,0-.5-.1-.8-.2-.6-.2-1.2-.5-1.8-.9-.6-.3-1.1-.7-1.6-1.2-.2-.2-.4-.4-.6-.6h0Z"/>
          <path class="cls-2" d="M141.3,215.8c0,.3,0,.6-.2.9-.2.7-.5,1.4-.8,2.1s-.6,1.4-1,2c-.1.3-.3.5-.5.8.1-.3.2-.6.4-.9.3-.5.6-1.2,1-2s.6-1.5.8-2.1c0-.3.2-.6.3-.9h0Z"/>
          <path class="cls-2" d="M173.6,198.7s-3.6,4.5-8.1,10.1-8.2,10-8.2,10c0,0,3.6-4.5,8.1-10.1s8.2-10,8.2-10Z"/>
          <path class="cls-2" d="M158.1,212.2c0-.1.2-.3.2-.4.2-.4.5-.7.8-1.1,1.9-2.2,4.3-3.9,7.1-4.8.4-.1.8-.2,1.3-.3h.5s-.7.2-1.7.5c-1.3.5-2.6,1.1-3.8,1.9s-2.3,1.8-3.2,2.8c-.7.8-1.1,1.4-1.1,1.4h-.1Z"/>
          <path class="cls-2" d="M165.2,216.4s.3-.5.7-1.4c.5-1.1.9-2.3,1.2-3.6.3-1.2.4-2.5.4-3.7s-.1-1.6,0-1.6v.4c0,.4,0,.8.1,1.1,0,1.3,0,2.5-.3,3.8-.3,1.2-.7,2.4-1.3,3.6-.2.3-.4.7-.6,1,0,.1-.1.2-.2.3h0Z"/>
          <path class="cls-2" d="M157,215.5s0-.1.2-.3c.2-.3.4-.5.6-.8.7-.8,1.6-1.6,2.5-2.3.9-.7,1.9-1.3,2.9-1.7.3-.2.7-.3,1-.4.1,0,.2,0,.4-.1,0,0-.5.2-1.2.6-1,.5-1.9,1.1-2.8,1.8-.9.7-1.7,1.4-2.5,2.2-.7.6-1,1-1,1h0Z"/>
          <path class="cls-2" d="M161.6,218.1s.4-.5.9-1.3c.7-1.1,1.4-2.2,1.9-3.4.5-1.2.9-2.4,1.1-3.7.2-1,.3-1.6.3-1.6v.4c0,.4,0,.8-.1,1.2-.2,1.3-.6,2.5-1.1,3.7s-1.2,2.3-1.9,3.4c-.3.4-.6.7-.8.9,0,.1-.2.2-.3.3h0Z"/>
          <path class="cls-2" d="M159.1,218.7s.3-.2.7-.7c.5-.6.9-1.2,1.2-1.9.7-1.6,1-3.1,1.1-3.1,0,.3,0,.7-.2,1-.2.8-.4,1.5-.7,2.2s-.8,1.4-1.3,1.9c-.2.2-.5.4-.8.5h0Z"/>
          <path class="cls-2" d="M169.4,209.9s.1-1.3,0-2.8-.3-2.8-.3-2.8c.1.3.2.5.2.8.1.7.2,1.3.2,2s0,1.3-.1,2c0,.3,0,.5-.2.8h.2Z"/>
          <path class="cls-2" d="M163.9,204.2c.3-.1.6-.3.9-.3.7-.2,1.5-.4,2.2-.5s1.5-.2,2.2-.2h.9c-.3,0-.6.1-.9.1-.6,0-1.4.1-2.2.3s-1.6.3-2.2.5c-.3,0-.6.2-.9.2h0Z"/>
          <path class="cls-2" d="M106.5,269.4s-.2-5.8-.4-12.9-.3-12.9-.2-12.9.2,5.8.4,12.9.3,12.9.2,12.9Z"/>
          <path class="cls-2" d="M109.4,249.1v.5c0,.4,0,.9.1,1.3,0,2.9-.7,5.8-2.3,8.2-.3.5-.6.8-.8,1.1,0,.1-.2.3-.3.4,0,0,.4-.6.9-1.5.7-1.2,1.3-2.6,1.6-3.9.4-1.4.6-2.8.6-4.2v-1.8h.2Z"/>
          <path class="cls-2" d="M101.3,250.5s0,.6.4,1.5c.3,1.2.8,2.4,1.4,3.5.6,1.1,1.3,2.1,2.2,3.1.6.7,1.1,1.1,1.1,1.1-.1,0-.2-.2-.3-.3-.3-.2-.6-.5-.8-.8-.9-.9-1.6-2-2.2-3.1-.6-1.1-1.1-2.3-1.4-3.5,0-.4-.2-.8-.2-1.1v-.4h-.2Z"/>
          <path class="cls-2" d="M108.1,245.8v1.4c0,1.1-.1,2.3-.4,3.4-.2,1.1-.6,2.2-1.1,3.2s-.3.7-.4.9c0,.1-.1.2-.2.3,0,0,.2-.5.5-1.3.4-1,.8-2.1,1-3.2s.4-2.2.4-3.3v-1.4h.2Z"/>
          <path class="cls-2" d="M102.9,246.8s0,.6,0,1.6c.1,1.3.4,2.5.8,3.8.4,1.2.9,2.4,1.5,3.5.5.9.8,1.4.8,1.4-.1,0-.2-.2-.3-.3-.2-.2-.4-.5-.6-1-.7-1.1-1.2-2.3-1.6-3.5-.4-1.2-.6-2.5-.7-3.8v-1.6h0Z"/>
          <path class="cls-2" d="M104.5,244.8v.9c0,.8,0,1.5.3,2.2.5,1.7,1.3,3,1.2,3-.2-.3-.4-.5-.5-.8-.4-.7-.7-1.4-.9-2.1s-.3-1.5-.2-2.3c0-.3.1-.6.2-.9h-.1Z"/>
          <path class="cls-2" d="M102.4,258.1s.7,1,1.8,2.2,2.1,1.9,2,1.9c-.3-.1-.5-.3-.7-.4-.5-.4-1-.9-1.5-1.4s-.9-1-1.2-1.6c-.2-.2-.3-.5-.4-.7Z"/>
          <path class="cls-2" d="M110.3,258.8c-.1.3-.3.6-.4.8-.8,1.3-1.8,2.4-2.9,3.5-.2.2-.5.4-.7.6.2-.3.4-.5.6-.7.4-.4.9-1,1.5-1.7s1-1.3,1.4-1.8c.2-.3.4-.5.6-.7h-.1Z"/>
          <path class="cls-2" d="M128.5,249s-1.9-5.5-4.1-12.2-3.9-12.3-3.9-12.3c0,0,1.9,5.5,4.1,12.3s3.9,12.3,3.9,12.3h0Z"/>
          <path class="cls-2" d="M125.6,228.6c0,.1.2.3.2.4.2.4.3.8.5,1.2.4,1.4.7,2.8.7,4.3s-.2,2.9-.5,4.3c-.1.4-.3.8-.4,1.2-.1.3-.2.5-.2.4s.2-.6.5-1.7c.3-1.4.5-2.8.5-4.2s-.2-2.8-.6-4.2c-.3-1.1-.6-1.7-.5-1.7h-.2Z"/>
          <path class="cls-2" d="M118.2,232.3s.3.5.8,1.4c.7,1.1,1.4,2.1,2.3,2.9.9.9,1.9,1.7,3,2.3.8.5,1.4.8,1.4.8,0,0-.1,0-.4-.1s-.6-.3-1-.5c-1.1-.6-2.1-1.4-3-2.3s-1.7-1.9-2.3-3c-.2-.3-.4-.7-.5-1-.2-.3-.3-.4-.2-.4h-.1Z"/>
          <path class="cls-2" d="M123.4,225.8c0,.1.1.2.1.3,0,.2.2.6.3,1,.6,2.2.8,4.5.5,6.7,0,.3-.1.7-.2,1,0,.1,0,.3-.1.4,0-.5,0-.9.1-1.4v-3.3c0-1.1-.3-2.2-.5-3.3-.1-.5-.2-.9-.3-1.4h0Z"/>
          <path class="cls-2" d="M118.7,228.3s.2.6.6,1.5c.5,1.2,1.1,2.3,1.8,3.4s1.5,2,2.4,2.9c.7.7,1.2,1.1,1.2,1.1-.1,0-.2-.1-.4-.2-.2-.2-.5-.4-.9-.8-1-.9-1.8-1.9-2.5-2.9-.7-1.1-1.3-2.2-1.8-3.5-.2-.5-.3-.9-.4-1.1v-.4h0Z"/>
          <path class="cls-2" d="M119.6,226s0,.4.2.9c.2.7.5,1.4.9,2.1,1,1.5,2.1,2.5,2,2.6-.2-.2-.5-.4-.7-.7-.5-.5-1-1.1-1.5-1.8-.4-.7-.7-1.4-.9-2.1,0-.3-.1-.6,0-.9h0Z"/>
          <path class="cls-2" d="M121.3,239.3s1,.8,2.3,1.6,2.5,1.2,2.5,1.3c-.3,0-.5-.1-.8-.2-.6-.2-1.2-.5-1.8-.9-.6-.3-1.1-.7-1.6-1.2-.2-.2-.4-.4-.6-.6h0Z"/>
          <path class="cls-2" d="M129.1,237.8c0,.3,0,.6-.2.9-.4,1.4-1,2.8-1.8,4.1-.1.3-.3.5-.5.8.1-.3.2-.6.4-.8.3-.5.6-1.2.9-2s.6-1.5.8-2.1c0-.3.2-.6.3-.9h.1Z"/>
          <path class="cls-2" d="M60.2,257s-1.9-5.5-4.1-12.2-3.9-12.3-3.9-12.3c0,0,1.9,5.5,4.1,12.3s3.9,12.3,3.9,12.3h0Z"/>
          <path class="cls-2" d="M57.2,236.7c0,.1.2.3.2.4.2.4.3.8.5,1.2.4,1.4.7,2.8.7,4.3s-.2,2.9-.5,4.3c0,.4-.3.8-.4,1.2,0,.3-.2.5-.2.4s.2-.6.5-1.7c.3-1.4.5-2.8.5-4.2s-.2-2.8-.6-4.2c-.3-1-.6-1.7-.5-1.7h-.2Z"/>
          <path class="cls-2" d="M49.9,240.3s.3.5.8,1.3c.7,1.1,1.4,2.1,2.3,2.9.9.9,1.9,1.7,3,2.3.8.5,1.4.8,1.3.8s-.3,0-.4-.1c-.2-.1-.6-.3-1-.5-1.1-.6-2.1-1.4-3-2.3s-1.7-1.9-2.3-3c-.2-.3-.4-.7-.5-1,0-.1-.2-.3-.2-.4h0Z"/>
          <path class="cls-2" d="M55.1,233.8c0,.1,0,.2.2.3,0,.2.2.6.3,1,.6,2.2.8,4.4.5,6.7,0,.4,0,.8-.2,1v.4s0-.5,0-1.4v-3.3c0-1.1-.3-2.2-.5-3.3,0-.4-.2-.9-.3-1.3h0Z"/>
          <path class="cls-2" d="M50.4,236.4s.2.6.6,1.5c.5,1.2,1.1,2.3,1.8,3.4.7,1.1,1.5,2,2.4,2.9.7.7,1.2,1.1,1.2,1.1l-.3-.2c-.3-.2-.6-.5-.9-.8-1-.9-1.8-1.9-2.5-2.9-.7-1.1-1.3-2.2-1.8-3.5-.2-.5-.3-.9-.4-1.1v-.4h0Z"/>
          <path class="cls-2" d="M51.3,234s0,.4.2.9c.2.7.5,1.4.9,2.1,1,1.5,2.1,2.5,2,2.5-.3-.2-.5-.4-.7-.6-.5-.5-1-1.1-1.5-1.8-.4-.7-.7-1.4-.9-2.1v-1Z"/>
          <path class="cls-2" d="M53,247.3s1,.8,2.3,1.6,2.5,1.2,2.5,1.3c-.3,0-.5-.1-.8-.2-.6-.2-1.2-.5-1.8-.9-.6-.3-1.1-.7-1.6-1.2-.2-.2-.4-.4-.6-.6h0Z"/>
          <path class="cls-2" d="M60.8,245.8c0,.3,0,.6-.2.9-.2.7-.5,1.4-.8,2.1s-.6,1.4-1,2c0,.3-.3.5-.5.8,0-.3.2-.6.4-.8.3-.5.6-1.2,1-2s.6-1.5.8-2.1c0-.3.2-.6.3-.9Z"/>
          <path class="cls-2" d="M89.2,237.2s.2-5.8.5-12.9.7-12.9.8-12.9-.2,5.8-.5,12.9-.7,12.9-.7,12.9h-.1Z"/>
          <path class="cls-2" d="M93.7,217.2v1.8c-.2,2.9-1.2,5.7-2.9,8-.3.3-.5.7-.8,1,0,.1-.2.2-.3.3,0,0,.4-.5,1.1-1.4,1.6-2.4,2.6-5.1,2.8-8,0-1.1,0-1.7.2-1.7h0Z"/>
          <path class="cls-2" d="M85.6,218s0,.6.3,1.5c.2,1.2.6,2.4,1.1,3.6.5,1.1,1.2,2.2,1.9,3.2.6.8,1,1.2,1,1.2,0,0-.2-.2-.3-.3-.3-.3-.5-.6-.8-.9-.8-1-1.5-2.1-2-3.2-.5-1.2-.9-2.4-1.1-3.6,0-.4,0-.8,0-1.1v-.4h0Z"/>
          <path class="cls-2" d="M92.7,213.8v1.4c0,1.1-.3,2.2-.6,3.3-.3,1.1-.8,2.1-1.3,3.1-.2.3-.3.6-.5.9,0,.1,0,.2-.2.3,0,0,.2-.5.6-1.2.5-1,.9-2,1.2-3.1.3-1.1.5-2.2.7-3.3,0-.8,0-1.4,0-1.4h0Z"/>
          <path class="cls-2" d="M87.4,214.5v1.6c0,1.3.2,2.6.5,3.8.3,1.2.7,2.5,1.2,3.6.4.9.7,1.4.7,1.4,0-.1-.2-.2-.2-.4-.2-.3-.4-.7-.6-1-.6-1.2-1-2.4-1.3-3.6-.3-1.3-.4-2.6-.4-3.9v-1.6h.1Z"/>
          <path class="cls-2" d="M89.1,212.6s0,.4-.2.9c0,.8,0,1.5,0,2.2.4,1.7,1,3.1,1,3.1-.2-.3-.3-.6-.4-.9-.3-.7-.6-1.4-.7-2.2-.2-.8-.2-1.5,0-2.3,0-.3,0-.6.3-.9h-.1Z"/>
          <path class="cls-2" d="M86,225.7s.6,1.1,1.6,2.3,1.9,2,1.9,2.1c-.2-.1-.5-.3-.7-.5-1-.9-1.8-1.9-2.5-3.1-.2-.2-.3-.5-.3-.8Z"/>
          <path class="cls-2" d="M93.8,227c0,.3-.3.5-.5.8-.9,1.2-2,2.3-3.1,3.2-.2.2-.5.4-.8.5.2-.2.4-.5.7-.6.4-.4,1-.9,1.6-1.5s1.1-1.2,1.5-1.7c.2-.3.4-.5.6-.7h0Z"/>
          <g class="cls-11">
            <path d="M83.4,177.5c3.9,3.1,8.4,5.5,13.2,6.9,2,.7,4.2,1,6.3.7,2.2-.3,4-1.8,4.7-3.8.1-.5.1-1.2-.4-1.4s-1,.2-1.5.6c-1.4,1.1-5.7,1.3-7.5,1.1-5.8-.7-9.6-2.1-14.9-4.1"/>
          </g>
          <path class="cls-7" d="M121,218.1c0,.2.1.3.2.5,0,.3.2.8.4,1.4.4,1.8.6,3.6.7,5.4.5,12.3-5.8,23.9-16.5,30-1.6.9-3.2,1.7-4.9,2.3-.6.2-1.1.4-1.4.5-.2,0-.3,0-.5.1.6-.3,1.2-.5,1.8-.8,1.7-.7,3.3-1.5,4.8-2.4,10.4-6.2,16.7-17.5,16.4-29.6,0-1.8-.2-3.6-.5-5.4-.1-.7-.3-1.3-.3-2h-.2Z"/>
          <g class="cls-10">
            <path d="M121.8,224.7c.1,4.4-1.7,8.6-5.1,11.5-2.1,1.8-4.8,2.9-7,4.7-2,1.7-3.4,3.8-4.2,6.3-.4,1.3-.6,2.8.3,3.8s2.8.8,4.2.2c4.5-1.9,7.7-6.1,9.4-10.7s2.1-9.5,2.4-14.4"/>
          </g>
          <path class="cls-7" d="M147.1,221c-1.6-3.9-1.5-8.3.1-12.2-.4,2-.6,4.1-.8,6.1,0,2.1.3,4.1.6,6.1h0Z"/>
          <path class="cls-7" d="M150.1,219.8c-1.3-1.5-2.1-3.4-2.5-5.3-.5-1.9-.6-3.9,0-5.9,0,1.9.2,3.9.6,5.8.5,1.9,1.2,3.7,2,5.4h-.1Z"/>
          <path class="cls-3" d="M199.6,191.5s-.3-.2-.9-.5c-.7-.4-1.6-.4-2.4-.2h-.4c0,.1.2-.3.2-.3.3-.6.5-1.2.6-1.9.2-1.3,0-2.6-.6-3.8-.4-.9-.9-1.4-.9-1.4.5.3.9.7,1.1,1.3.7,1.2,1,2.6.7,4-.1.7-.3,1.4-.7,2l-.2-.3c.9-.2,1.8,0,2.6.4.6.4.8.7.8.7h0Z"/>
          <path class="cls-4" d="M206.3,187.1c.9-2.3,10.2-6.3,9-7.7-1.6-1.9-9.6,4.6-10.3,5.1s-1.4-.5-.8-1c.9-.6,10.9-7.1,9.3-9-.9-1-2.5.7-2.5.7,0,0-8.8,6.8-9.5,5.9s4.3-5.1,6.1-6.4,1.9-2.6.7-3c-.8-.2-6.4,3.6-8.2,4.9s-6.5,5-5.6,1.2.2-7-.5-7.7-2.1.1-1.9,1.3c.1,1.3,0,2.6-.2,3.9-.2,1-.6,2-1,3-.9,2.2-2.4,4.1-4.4,5.5l9.9,11.6,1.3-.9c4.9-3.3,9.4-4.6,12.1-6.1,4.9-2.8,4.7-3.3,4.3-3.8-1.1-1.4-8.8,4.7-7.8,2.4h0Z"/>
          <path class="cls-12" d="M193,168.8l3.2,20.7,12.5-.2.6-3.9s7.1,0,7.6-6-5.5-6.1-5.5-6.1l.9-5.4-19.3.8h0ZM209.6,183.4l1.5-7.7s4.3,0,3.9,3.4-5.5,4.3-5.5,4.3h.1Z"/>
          <path class="cls-7" d="M202.3,140.9l.2.2c.2.2.4.4.5.7.4,1,.5,2,.3,3.1-.3,1.5-.9,2.9-1.6,4.2-.4.8-.7,1.6-.9,2.5s-.1,1.8.2,2.7c.8,1.6,1.8,3.1,3.2,4.4,1.1,1.1,1.9,2.4,2.3,3.9.2,1,0,2.1-.4,3-.1.2-.3.5-.5.7-.1.1-.2.2-.2.2.2-.3.4-.6.6-.9.4-.9.5-1.9.2-2.9-.4-1.4-1.2-2.7-2.3-3.7-1.4-1.3-2.5-2.8-3.3-4.5-.4-.9-.4-2-.2-2.9s.5-1.7.9-2.6c.7-1.3,1.3-2.7,1.7-4.1.2-1,.2-2-.1-2.9-.3-.6-.6-.9-.5-.9v-.2Z"/>
          <path class="cls-7" d="M199,141l.2.2c.2.2.4.4.5.7.4,1,.5,2,.3,3.1-.4,1.5-.9,2.9-1.6,4.2-.4.8-.7,1.6-.9,2.5s-.1,1.8.2,2.7c.8,1.6,1.9,3.1,3.2,4.4,1.1,1.1,1.9,2.4,2.3,3.9.2,1,0,2.1-.4,3-.1.2-.3.5-.5.6-.1.1-.2.2-.2.2,0,0,.3-.3.6-.9.4-.9.5-1.9.2-2.9-.4-1.4-1.2-2.7-2.3-3.7-1.4-1.3-2.5-2.8-3.3-4.5-.3-.9-.4-2-.2-3,.2-.9.5-1.7.9-2.6.7-1.3,1.3-2.7,1.7-4.1.3-1,.2-2-.1-2.9-.3-.6-.6-.9-.5-1h0Z"/>
          <path class="cls-9" d="M194.2,177.3s0-.3.4-.6c.6-.4,1.3-.5,2-.3,1,.4,1.8.9,2.5,1.7.7.9,1.8,1.4,3,1.4,1.2-.1,2.2-1,3.2-1.4.5-.2,1-.4,1.6-.4s1,0,1.4.3c.6.3,1.2.8,1.5,1.4s.3.7.2.7-.1-.2-.4-.6c-.4-.5-.9-.9-1.5-1.1-.4-.2-.8-.2-1.3-.2s-1,.2-1.4.4c-1,.7-2.2,1.2-3.4,1.5-.7,0-1.4,0-2-.5-.5-.3-1-.7-1.4-1.1-.6-.7-1.4-1.3-2.3-1.7-.6-.2-1.3-.1-1.8.1-.3.2-.5.5-.5.5h.2Z"/>
          <path class="cls-9" d="M193.7,174.6s0-.3.4-.6c.6-.4,1.4-.6,2.1-.4,1,.4,1.9,1,2.7,1.8s1.9,1.7,3.2,1.5,2.3-1,3.4-1.5c.5-.3,1.1-.4,1.7-.5,1.3,0,2.5.6,3.1,1.8.2.5.3.8.2.8s-.1-.2-.4-.6c-.4-.5-1-1-1.6-1.2-.4-.2-.9-.2-1.4-.2s-1,.2-1.5.5c-1,.5-2.1,1.4-3.6,1.6-.7,0-1.4,0-2.1-.5-.5-.3-1-.7-1.5-1.2-.7-.8-1.5-1.4-2.4-1.8-.6-.2-1.3-.2-1.9.2-.4.3-.5.5-.6.5l.2-.2Z"/>
          <polygon class="cls-7" points="100.2 279.4 117.5 303.7 306.6 303.6 306.5 282.1 210.9 273 131.4 261.2 100.2 279.4"/>
          <path class="cls-7" d="M130.7,261.9l13.4-18.5,37.8-46.7c5.3-5.7,13-8.6,20.7-7.8h0c9.5,1,17.5,7.4,20.7,16.4l25,76.2-33.1-5.2-16.8-47.2-26.5,37-41.2-4.2h0Z"/>
          <path class="cls-12" d="M248.2,276.6h-1.1l-3.3-.2-12.2-1-40.1-3.4-22.1-1.9c-3.4-.3-6.6-.6-9.6-.9-2.8-.3-5.6-.8-8.3-1.4-2.3-.5-4.5-1.3-6.6-2.3-1.6-.8-3-1.9-4.1-3.2-.8-.8-1.4-1.8-1.9-2.8-.2-.3-.3-.7-.4-1.1.6,1.4,1.4,2.6,2.4,3.7,1.2,1.3,2.6,2.3,4.1,3.1,2.1,1,4.3,1.8,6.5,2.2,2.7.6,5.5,1,8.3,1.3,3,.3,6.2.5,9.6.8l22.1,1.9,40.1,3.5,12.1,1.1,3.3.3h.9c0,.1.2.2.2.2h.1Z"/>
          <path class="cls-12" d="M201,212.1c-.2.8-.5,1.6-.8,2.4-1.3,3.9-1.9,8-1.8,12.1v2.6c-.2-.8-.4-1.7-.4-2.5-.1-2.1,0-4.2.3-6.2.3-2.1.8-4.1,1.6-6,.3-.8.6-1.6,1.1-2.3h0Z"/>
          <path class="cls-12" d="M193.7,218.5c.5,1.9,1.1,3.8,1.8,5.7.9,1.8,1.8,3.6,2.9,5.3-2.9-3-4.5-6.9-4.7-11h0Z"/>
          <path class="cls-12" d="M301.7,288.6c-.8,2.5-1.3,5-1.6,7.5-.1,2.6,0,5.1.3,7.7-.3-.7-.5-1.4-.6-2.2-.3-1.8-.4-3.7-.2-5.5.2-1.8.5-3.6,1.1-5.4.2-.7.5-1.4,1-2.1h0Z"/>
          <path class="cls-7" d="M107.8,179.3l-.2.2c-.2.2-.4.4-.6.5-.8.6-1.6,1-2.6,1.3-2.4.7-5.8.5-9.4,0-3.1-.5-6.1-1.4-9-2.6-1.1-.5-2-.9-2.6-1.2-.3-.1-.6-.3-.9-.6,0,0,1.4.6,3.6,1.4,2.9,1.1,5.9,1.9,9,2.4,3.6.6,6.9.8,9.2.2,1.2-.3,2.3-.9,3.3-1.7h.2Z"/>
        </g>
        <g id="freepik--Plant--inject-7">
          <path class="cls-5" d="M639.5,224.3c4.2-2.2,9.1-2.4,13.8-1.7,2.5.4,5.1,1.2,6.8,3s2,5.2,0,6.8c-1.3.9-2.8,1.2-4.3,1.1-3.6,0-7.7-.7-10.6,1.5-1.7,1.2-2.8,3.3-4.8,4-2,.5-4.2-.5-5.2-2.3-.9-1.8-1.2-3.9-.6-5.9.5-2.8,2.2-5.2,4.7-6.4h.2Z"/>
          <path class="cls-5" d="M629.9,205.7c2.6,3.7,7.5,2.5,9.9.2s3.3-5.5,4.2-8.6c2-7.1,4.1-14.5,2.6-21.6-.4-2.2-1.3-4.2-2.8-5.9-1.5-1.7-3.8-2.5-6-2-2.5.7-4.1,3.1-5.2,5.5-3.3,6.9-5.1,14.5-5.1,22.1s.4,7.3,2.4,10.2"/>
          <path class="cls-5" d="M622.9,211c2.8-3.3,3.3-8.1,2.1-12.3-1.4-4.1-3.9-7.8-7.3-10.5-3.8-3.4-8.2-6-13-7.7-1.9-.8-3.9-1.1-5.8-1-2,.1-3.9,1.3-4.9,3-1.4,2.6,0,5.8,1.4,8.4,2.5,4.6,5.4,8.9,8.5,13,2.6,3.3,5.5,6.6,9.4,8s8,1.3,10-1.4"/>
          <path class="cls-7" d="M629.7,261c0-.5.2-1.1.2-1.7,0-1.2.3-2.7.4-4.5.2-2.2.6-4.5,1-6.7.6-2.7,1.4-5.3,2.4-7.9,1-2.5,2.3-4.9,4-7.1,1.4-1.8,3.1-3.2,5.1-4.2,1.3-.7,2.8-1.1,4.3-1.3.6,0,1.1-.1,1.7-.2h-1.7c-1.5.1-3.1.5-4.5,1.2-2.1,1-3.9,2.4-5.3,4.3-1.7,2.2-3.1,4.6-4.2,7.2-1,2.6-1.8,5.3-2.4,8-.4,2.2-.7,4.5-.9,6.8-.2,1.9-.2,3.5-.2,4.6v1.6h.1Z"/>
          <path class="cls-7" d="M630,257.5v-11.1c.2-6.9.8-14.2,1.9-24.6,1.1-9.8,2.5-21.1,4-28.5.3-1.7.7-3.2,1-4.5s.5-2.5.8-3.4.4-1.6.5-2.1c0-.3,0-.5,0-.8,0,.2-.2.5-.3.7-.2.5-.4,1.2-.6,2.1s-.6,2.1-.9,3.4-.7,2.8-1.1,4.5c-1.9,8.7-3.3,17.6-4.3,26.5-1.1,10.4-1.7,19.9-1.7,26.8s0,6.2,0,8.1c0,.9,0,1.6,0,2.2,0,.3,0,.5.2.8h.2Z"/>
          <path class="cls-7" d="M630.1,239.2v-2.3c0-1.5-.3-3.6-.7-6.2-.5-3.1-1.2-6.1-2-9.1-1-3.7-2.3-7.3-3.8-10.8-2.6-6.4-6.4-12.3-11.2-17.4-.8-.9-1.7-1.7-2.6-2.4-.4-.3-.8-.7-1.1-1l-1-.7c-.6-.5-1.3-.9-2-1.2,2.2,1.8,4.4,3.7,6.4,5.7,4.6,5.1,8.3,11,10.9,17.4,1.5,3.5,2.8,7,3.8,10.7.9,3,1.6,6,2.2,9,.5,2.6.8,4.7.9,6.2,0,.8,0,1.5.3,2.3v-.2Z"/>
          <polygon class="cls-7" points="612.4 271.5 614.2 296.6 646.5 296.6 648.3 271.5 612.4 271.5"/>
          <rect class="cls-7" x="609.3" y="261.6" width="42.9" height="9.9"/>
          <polygon class="cls-12" points="609.3 295.6 609.3 298.4 611.3 298.4 651.5 298.4 651.5 295.6 609.3 295.6"/>
          <polygon class="cls-12" points="613.3 303.2 611.3 298.4 649.9 298.4 647.6 303.2 613.3 303.2"/>
          <path class="cls-2" d="M647.7,279.7s0,.2-.2.2l-.5.6-1.9,2.4h0c0,.1,0,0,0,0l-4.6-6.4h.3l-4.5,6.4-.2.2-.2-.2-5.4-6.4h.3l-.3.4-4.8,6-.2.2-.2-.2-4.5-6.4h.3l-5.6,6.4h0c0,.1,0,0,0,0l-1.8-3-.5-.8s0-.2,0-.3l.2.2.5.8,1.8,2.9h-.2c1.4-1.7,3.3-3.9,5.5-6.5v-.2c0,0,.3.2.3.2l4.6,6.4h-.3l4.8-6,.3-.4.2-.2.2.2,5.4,6.4h-.3l4.6-6.4v-.2c0,0,.3.2.3.2l4.5,6.5h-.2l2-2.4.5-.6s0-.1.2-.2l-.3.2Z"/>
          <path class="cls-12" d="M648.8,271.3c0,.1-8.1.2-18,.2s-18,0-18-.2,8.1-.2,18-.2,18,0,18,.2Z"/>
          <path class="cls-7" d="M650.4,298.6c0,.1-8.8.2-19.6.2s-19.6,0-19.6-.2,8.8-.2,19.6-.2,19.6,0,19.6.2Z"/>
        </g>
      </g>
    </g>
  </g>
</svg>