<?xml version="1.0" encoding="UTF-8"?>
<svg xmlns="http://www.w3.org/2000/svg" version="1.1" viewBox="0 0 465 446.6">
  <defs>
    <style>
      .cls-1 {
        fill: #e0e0e0;
      }

      .cls-2 {
        fill: #bfdd7d;
      }

      .cls-3 {
        fill: #ebebeb;
      }

      .cls-4 {
        fill: #263238;
      }

      .cls-5 {
        fill: #fff;
      }

      .cls-6 {
        opacity: .7;
      }

      .cls-7 {
        opacity: .3;
      }

      .cls-8 {
        fill: #ffbf9d;
      }

      .cls-9 {
        fill: #f5f5f5;
      }

      .cls-10 {
        fill: #455a64;
      }

      .cls-11 {
        display: none;
      }

      .cls-12 {
        fill: #cae9eb;
      }

      .cls-13 {
        fill: #ff9a6c;
      }
    </style>
  </defs>
  <!-- Generator: Adobe Illustrator 28.6.0, SVG Export Plug-In . SVG Version: 1.2.0 Build 709)  -->
  <g>
    <g id="Calque_1">
      <g id="Calque_1-2" data-name="Calque_1">
        <g id="Background_Complete" class="cls-11">
          <g>
            <path class="cls-12" d="M29.7,392.6c23.5-12.7,47-5.6,47-5.6-16.7,15.2-47,5.6-47,5.6Z"/>
            <path class="cls-12" d="M104.1,369.5c4.6,15.8-2.8,29.8-2.8,29.8-7.1-11.7,2.8-29.8,2.8-29.8Z"/>
            <path class="cls-12" d="M101.5,406.7c-17.5,9.1-35.7,3.7-35.7,3.7,12.2-11,35.7-3.7,35.7-3.7Z"/>
            <path class="cls-12" d="M64.8,372.8c.2-.3,11.6,8.4,25.3,19.4,13.8,11,24.7,20.1,24.5,20.4s-11.6-8.4-25.3-19.4c-13.8-11-24.7-20.1-24.5-20.4h0Z"/>
            <path class="cls-12" d="M28.4,351s30.5,1.6,41.6,26.5c0,0-26-1-41.6-26.5Z"/>
            <path class="cls-12" d="M70.8,341.8s23.5,19.5,17.6,46.1c0,0-20.3-16.3-17.6-46.1h0Z"/>
          </g>
          <g>
            <path class="cls-12" d="M441.2,174.1c-27.7-5.5-49,8.9-49,8.9,21.6,10.2,49-8.9,49-8.9Z"/>
            <path class="cls-12" d="M359,173.9c.2,17.3,12,29.2,12,29.2,3.5-14-12-29.2-12-29.2Z"/>
            <path class="cls-12" d="M373.1,210.6c20.5,3.8,37.1-7.3,37.1-7.3-15.7-7.3-37.1,7.3-37.1,7.3Z"/>
            <path class="cls-12" d="M399.7,165c-.3-.2-9.1,12-19.5,27.3-10.5,15.3-18.7,27.9-18.4,28.1.3.2,9.1-12,19.5-27.3,10.5-15.3,18.7-27.9,18.4-28.1h0Z"/>
            <path class="cls-12" d="M429.7,131.8s-30.2,11.1-33.8,39.6c0,0,25.9-9.1,33.8-39.6h0Z"/>
            <path class="cls-12" d="M384,135.6s-17.7,26.9-3.5,51.9c0,0,15.4-22.7,3.5-51.9Z"/>
          </g>
          <g>
            <path class="cls-12" d="M417.4,364.1c-19.4-3.9-34.4,6.2-34.4,6.2,15.1,7.1,34.4-6.2,34.4-6.2Z"/>
            <path class="cls-12" d="M359.7,363.9c.1,12.1,8.4,20.5,8.4,20.5,2.5-9.8-8.4-20.5-8.4-20.5Z"/>
            <path class="cls-12" d="M369.6,389.7c14.4,2.6,26-5.1,26-5.1-11-5.1-26,5.1-26,5.1Z"/>
            <path class="cls-12" d="M388.2,357.8c-.2-.1-6.4,8.4-13.7,19.2-7.4,10.8-13.1,19.6-12.9,19.7s6.4-8.4,13.7-19.2c7.4-10.7,13.1-19.6,12.9-19.7Z"/>
            <path class="cls-12" d="M409.3,334.4s-21.2,7.8-23.7,27.8c0,0,18.2-6.4,23.7-27.8Z"/>
            <path class="cls-12" d="M377.3,337.1s-12.4,18.9-2.5,36.4c0,0,10.8-16,2.5-36.4Z"/>
          </g>
        </g>
        <g id="Pencil" class="cls-11">
          <g>
            <g>
              <polygon class="cls-2" points="71.5 253.6 84 278.6 139.5 325.2 153.1 307.4 98.7 262 71.5 253.6"/>
              <g class="cls-6">
                <path class="cls-5" d="M98.7,262c0,1.1-1,1.9-2.1,1.6,1.2,1.7,1.2,4.1,0,5.8s-3.5,2.5-5.5,1.9c.5,2,0,4.2-1.5,5.6s-3.7,2-5.7,1.4l-12.4-24.8,27.2,8.4h0Z"/>
              </g>
              <path class="cls-2" d="M76.5,263.6s5.3.9,6.1-6.6l-11.1-3.5,5,10.1h0Z"/>
            </g>
            <g class="cls-7">
              <path d="M91.1,271.3l54.6,45.2-6.3,8.7-55.4-46.6v-.2s1.1.4,2.5.1c.9-.2,2.1-.6,3-1.5,1.2-1.1,1.7-2.5,1.8-3.6,0-1.2-.2-2.2-.2-2.2h0Z"/>
            </g>
            <g class="cls-7">
              <path d="M96.6,263.6l54.8,46.1,1.8-2.3-54.4-45.4s0,1.6-1.7,1.7h-.5Z"/>
            </g>
            <path class="cls-5" d="M85.1,270s0,.1.2.2c.2,0,.6,0,.7-.4s0-.9,0-1.4-.2-.5-.5-.7c-.2-.2-.6-.3-.9-.1-.3.1-.5.4-.7.8s-.2.8-.2,1.2c0,.8,0,1.7.4,2.6.2.4.5.8.9,1,.4.1,1,0,1.3-.3.8-.7,1-1.8,1.1-2.8,0-2.2-1.2-4.2-2.9-5-.4-.2-.9-.2-1.3,0s-.7.5-.9.9c-.5.7-.8,1.4-1,2.1-.4,1.4-.4,2.5-.3,3.3,0,.4,0,.7.2.9v.3s-.2-.4-.3-1.2c0-.8-.2-2,.2-3.4.2-.7.5-1.4,1-2.1.2-.4.5-.7,1-.9.4-.2.9-.2,1.4,0,1.8.8,3,2.9,3,5.1s0,1.1-.3,1.6c-.2.5-.4,1-.8,1.4-.4.3-1,.5-1.5.3s-.8-.6-1-1.1c-.3-.9-.4-1.8-.4-2.7s0-.8.2-1.2.4-.7.7-.9c.4-.1.8,0,1,.2.3.2.4.5.5.8.2.5.2,1.1,0,1.5s-.6.5-.8.4c-.2,0-.2-.2-.2-.2h0l.2-.2Z"/>
            <path class="cls-5" d="M87.4,258.7s0,.3-.2.9,0,1.4,0,2.4c.2,1,.7,2.1,1.2,3.3.6,1.2,1.2,2.6,1.4,4.2.2,1.6-.2,3.1-.8,4.3-.6,1.2-1.6,2.1-2.4,2.7-.9.6-1.7.9-2.2,1-.6.1-.9.2-.9.2h.2c.2,0,.4,0,.6-.2.5-.2,1.3-.5,2.2-1,.8-.6,1.7-1.4,2.3-2.6.6-1.2,1-2.7.8-4.2s-.8-2.9-1.4-4.1-1-2.4-1.2-3.4-.2-1.9,0-2.4c0-.6.3-.8.3-.8h0v-.3Z"/>
            <path class="cls-5" d="M93.6,260.3s-.7.3-1,1.3-.4,2.5-.3,4c0,1.6.3,3,.5,4s.2.9.3,1.2c0,.3,0,.4,0,.4s0-.1-.2-.4c0-.3-.2-.7-.3-1.2-.3-1-.5-2.5-.6-4.1v-2.3c0-.7.2-1.3.3-1.8.2-.5.5-.8.7-1s.4-.2.4-.2h.2Z"/>
            <path class="cls-5" d="M96,270s-.2-.3-.4-.8c-.2-.5-.5-1.3-.4-2.2,0-.9.5-1.6,1-2,.2-.2.5-.3.6-.3h.2s-.4,0-.8.4c-.4.3-.9,1-.9,1.9s.2,1.6.4,2.1c.2.5.3.9.3.9h0Z"/>
            <path class="cls-5" d="M83.7,257.3h0c0,.2,0,.3,0,.5,0,.2,0,.4,0,.6s0,.5-.2.8c-.3.5-.7,1.1-1.1,1.8-.4.7-.8,1.4-1.2,2.2-.7,1.7-1.1,3.3-1.3,4.4,0,.5-.2,1-.3,1.4,0,.3,0,.5,0,.5v-.5c0-.3.2-.8.3-1.4.2-1.2.6-2.8,1.3-4.4s.8-1.6,1.2-2.3.9-1.2,1.1-1.7c.3-.5.3-1,.2-1.3,0-.3-.2-.5,0-.5h0Z"/>
          </g>
        </g>
        <g id="Book" class="cls-11">
          <g>
            <path class="cls-10" d="M391.8,315.9l-2.3,5.7s-33.1-25.2-58.6-23.1h0c-1.2.9-2.9,1.2-4.5.8l-9.5-2.4c-2-.5-3.6-2.1-4-3.9h0s-19.3-15.9-45.4-13.4l-9.7.4,41.2-68.2,112.3,18.1-19.5,85.9h0Z"/>
            <path class="cls-3" d="M400.4,309.7l-3.8,10.4s-31-30.4-74.3-23.7l25.9-47.2s52.8,49,52.1,60.5h.1Z"/>
            <g>
              <path class="cls-5" d="M432.3,236.2s-35.1-42.8-81.6-14.4l-28.3,74.5s51.8-20.8,81.4,17l28.5-77.1h0Z"/>
              <path class="cls-4" d="M432.3,236.2s-.1.5-.5,1.4c-.3.9-.8,2.3-1.5,4.1-1.3,3.6-3.2,8.9-5.7,15.6-5,13.5-12,32.8-20.6,56v.4c-.1,0-.4-.3-.4-.3-4-5-8.9-9.6-14.8-13.3-5.9-3.7-12.7-6.4-19.9-7.8-7.3-1.4-15-1.8-22.8-1s-7.8,1-11.7,1.8c-3.9.9-7.8,1.9-11.6,3.3-.1,0-.3.1-.4.2l-.5.2.2-.5c10.3-27.1,20-52.5,28.3-74.4h0c5.8-3.6,11.8-6.3,17.8-7.9s11.9-2.1,17.5-1.9c5.5.3,10.6,1.4,15.2,3,4.5,1.5,8.5,3.5,12,5.4,6.9,4,11.7,8.1,14.8,11.1,1.5,1.5,2.7,2.7,3.4,3.5s.6.7.8.9c.2.2.3.3.3.3,0,0-.1-.1-.3-.3-.2-.2-.5-.5-.9-.9-.8-.8-1.9-2-3.5-3.4-3.1-2.9-7.9-7-14.8-10.9-3.5-2-7.4-3.9-12-5.4-4.5-1.5-9.6-2.6-15.1-2.9-5.5-.3-11.4.3-17.3,1.9-6,1.6-11.9,4.2-17.7,7.8h0c-8.3,21.8-18,47.3-28.2,74.4l-.3-.3c.1,0,.3-.1.4-.2,3.8-1.4,7.8-2.5,11.7-3.3,3.9-.9,7.9-1.5,11.8-1.8,7.8-.8,15.6-.4,22.9,1,7.3,1.5,14.2,4.2,20.1,7.9,5.9,3.8,10.9,8.4,14.8,13.5h-.4c8.6-23.1,15.7-42.3,20.7-55.8,2.5-6.7,4.5-12,5.8-15.6.7-1.8,1.2-3.2,1.5-4.1.4-.9.6-1.4.6-1.4h0l.3-.3Z"/>
            </g>
            <g>
              <path class="cls-9" d="M322,296.2s-31.2-32.6-65.9-20.3l30.6-66.4,63,14.9-27.8,71.8h0Z"/>
              <path class="cls-4" d="M322.1,297.1l-.5-.6c-.3-.3-31.4-32.2-65.3-20.2l-1.1.4,31.3-67.9h.4l63.5,15.2-.2.5-28,72.5h0ZM272.1,272.6c25.2,0,46.1,19.1,49.7,22.6l27.3-70.5-62-14.7-30,65c5.1-1.7,10.2-2.4,15.1-2.4h-.1Z"/>
            </g>
            <g>
              <path class="cls-5" d="M350.7,221.9s-6.3-29.1-35.1-35.9l-18.6-3.9-32.4,66.2s46.5,10.1,57.9,47.6l28.2-74h0Z"/>
              <path class="cls-4" d="M350.7,221.9s0,.1-.1.4c0,.2-.2.6-.4,1-.3.9-.8,2.2-1.5,4-1.3,3.5-3.2,8.6-5.7,15.1-4.9,13-12,31.5-20.4,53.7l-.2.6-.2-.6c-1.5-5-3.9-10.1-7.1-14.8-.8-1.2-1.7-2.3-2.5-3.5-.9-1.1-1.8-2.3-2.8-3.3-1.9-2.2-4.1-4.2-6.4-6.2-9.2-7.9-20.7-13.9-33.2-17.9-1.9-.6-3.8-1.2-5.7-1.6h-.3v-.4c12-24.3,23.1-47,32.5-66.2h0c0-.1.2-.1.2-.1,5.3,1.1,10.4,2.2,15.2,3.2,4.8.9,9.4,2.3,13.3,4.3,7.9,4,13.4,9.6,17,14.8,3.6,5.1,5.6,9.7,6.8,12.9.6,1.6,1,2.8,1.2,3.6s.3,1.3.3,1.3v-.3c0-.2-.1-.5-.3-.9-.2-.8-.6-2.1-1.2-3.6-1.2-3.1-3.2-7.7-6.9-12.8-3.6-5.1-9.1-10.7-17-14.6-3.9-1.9-8.4-3.4-13.2-4.2-4.8-1-9.9-2.1-15.2-3.1h.2c-9.4,19.1-20.5,41.8-32.3,66.1l-.2-.4c1.9.4,3.9,1,5.8,1.6,6.3,2,12.3,4.6,17.9,7.6s10.8,6.5,15.5,10.5c2.3,2,4.5,4.1,6.4,6.3,1,1.1,1.9,2.2,2.8,3.4.9,1.2,1.8,2.3,2.5,3.5,3.2,4.8,5.6,9.8,7.1,14.9h-.4c8.5-22.1,15.5-40.6,20.5-53.6s4.5-11.6,5.8-15.1c.7-1.7,1.2-3.1,1.5-4,.2-.4.3-.8.4-1,0-.2.1-.3.1-.3h0l.2-.3Z"/>
            </g>
            <path class="cls-1" d="M303.9,197c0,.2,2.9.7,7.5,2.3,4.5,1.5,10.6,4.4,16.2,8.7s9.6,9.2,12,12.9,3.3,6.2,3.6,6.1c.1,0,0-.6-.4-1.8-.4-1.1-1.1-2.8-2.2-4.7-2.1-3.9-6.1-9-12-13.5s-12.2-7.3-16.9-8.6c-2.4-.7-4.3-1.1-5.6-1.3-1.4-.2-2.1-.2-2.1-.1h-.1Z"/>
            <path class="cls-1" d="M299,204.1c0,.2,2.9.7,7.5,2.3,4.5,1.5,10.6,4.4,16.2,8.7s9.6,9.2,12,12.9,3.3,6.2,3.6,6.1c.1,0,0-.6-.4-1.8-.4-1.1-1.1-2.8-2.2-4.7-2.1-3.9-6.1-9-12-13.5s-12.2-7.3-16.9-8.6c-2.4-.7-4.3-1.1-5.6-1.3-1.4-.2-2.1-.2-2.1-.1h-.1Z"/>
            <path class="cls-1" d="M295.6,212.5c0,.2,2.9.7,7.5,2.3,4.5,1.5,10.6,4.4,16.2,8.7s9.6,9.2,12,12.9,3.3,6.2,3.6,6.1c.1,0,0-.6-.4-1.8-.4-1.1-1.1-2.8-2.2-4.7-2.1-3.9-6.1-9-12-13.5s-12.2-7.3-16.9-8.6c-2.4-.7-4.3-1.1-5.6-1.3-1.4-.2-2.1-.2-2.1-.1h-.1Z"/>
            <path class="cls-1" d="M291,219.8c0,.2,2.9.7,7.5,2.3,4.5,1.5,10.6,4.4,16.2,8.7s9.6,9.2,12,12.9,3.3,6.2,3.6,6.1c.1,0,0-.6-.4-1.8-.4-1.1-1.1-2.8-2.2-4.7-2.1-3.9-6.1-9-12-13.5s-12.2-7.3-16.9-8.6c-2.4-.7-4.3-1.1-5.6-1.3-1.4-.2-2.1-.2-2.1-.1h-.1Z"/>
            <path class="cls-1" d="M286,227.5c0,.2,2.9.7,7.5,2.3,4.5,1.5,10.6,4.4,16.2,8.7s9.6,9.2,12,12.9,3.3,6.2,3.6,6.2,0-.6-.4-1.8c-.4-1.1-1.1-2.8-2.2-4.7-2.1-3.9-6.1-9-12-13.5s-12.2-7.3-16.9-8.6c-2.4-.7-4.3-1.1-5.6-1.3-1.4-.2-2.1-.2-2.1-.1h-.1Z"/>
            <path class="cls-1" d="M279.9,235.9c0,.2,3.2.8,8.1,2.5,2.5.8,5.3,2.1,8.4,3.6,3,1.6,6.2,3.5,9.4,5.8,3.1,2.3,5.9,4.7,8.3,7,2.3,2.4,4.2,4.6,5.5,6.6,2.8,3.9,3.8,6.7,4,6.6.1,0,0-.7-.5-1.9-.2-.6-.5-1.4-1-2.2-.4-.9-.9-1.8-1.6-2.9-1.2-2.1-3.2-4.4-5.4-6.9-2.4-2.4-5.2-4.9-8.4-7.2-3.2-2.3-6.6-4.2-9.7-5.8-3.2-1.5-6.1-2.7-8.7-3.5-1.3-.4-2.4-.7-3.5-.9-1-.3-1.9-.4-2.6-.5-1.5-.2-2.3-.3-2.3-.2h0Z"/>
            <path class="cls-1" d="M277,243.3c0,.2,3.2.8,8.1,2.6,2.5.9,5.3,2.2,8.3,3.8,3,1.7,6.1,3.7,9.3,6.1,3.1,2.4,5.8,4.9,8.1,7.2,2.2,2.4,4.1,4.7,5.4,6.7,2.7,4,3.7,6.7,4,6.7s0-.7-.5-2c-.2-.6-.5-1.4-1-2.2-.4-.9-.9-1.8-1.6-2.9-1.2-2.1-3.1-4.5-5.3-7-2.3-2.5-5-5-8.2-7.5-3.2-2.4-6.5-4.4-9.6-6.1-3.1-1.6-6.1-2.9-8.6-3.7-1.3-.4-2.4-.8-3.5-1-1-.3-1.9-.5-2.7-.6-1.5-.2-2.3-.3-2.3-.2h.1Z"/>
            <path class="cls-1" d="M341.7,281.1c.2.2,2.8-1.3,7.6-2.8,4.8-1.4,12-2.6,20-1.5,8.1,1,15.1,4,19.7,6.7,4.6,2.6,7.1,4.8,7.3,4.7,0,0-.5-.7-1.6-1.6-1.1-1-2.8-2.3-5.1-3.8-4.6-2.9-11.8-6.1-20.1-7.2s-15.8.2-20.6,1.9c-2.4.8-4.2,1.7-5.4,2.4-1.2.7-1.8,1.1-1.7,1.2h0Z"/>
            <path class="cls-1" d="M345.6,271.6c.2.2,2.8-1.3,7.6-2.8,4.8-1.4,12-2.6,20-1.5,8.1,1,15.1,4,19.7,6.7,4.6,2.6,7.1,4.8,7.3,4.7,0,0-.5-.7-1.6-1.6-1.1-1-2.8-2.3-5.1-3.8-4.6-2.9-11.8-6.1-20.1-7.2s-15.8.2-20.6,1.9c-2.4.8-4.2,1.7-5.4,2.4-1.2.7-1.8,1.1-1.7,1.2h0Z"/>
            <path class="cls-1" d="M349.5,262.2c.2.2,2.8-1.3,7.6-2.8,4.8-1.4,12-2.6,20-1.5,8.1,1,15.1,4,19.6,6.7,4.6,2.6,7.1,4.8,7.3,4.7,0,0-.5-.7-1.6-1.6-1.1-1-2.8-2.3-5.1-3.8-4.6-2.9-11.8-6.1-20.1-7.2s-15.8.2-20.6,1.9c-2.4.8-4.2,1.7-5.4,2.4-1.2.7-1.8,1.1-1.7,1.2h0Z"/>
            <path class="cls-1" d="M353.4,252.7c.2.2,2.8-1.3,7.6-2.8,4.8-1.4,12-2.6,20-1.5,8.1,1.1,15.1,4,19.7,6.7s7.1,4.8,7.3,4.7c0,0-.5-.7-1.6-1.6-1.1-1-2.8-2.3-5.1-3.8-4.6-2.9-11.8-6.1-20.1-7.2s-15.8.2-20.6,1.9c-2.4.8-4.2,1.7-5.4,2.4-1.2.7-1.8,1.1-1.7,1.2h0Z"/>
            <path class="cls-1" d="M357.3,243.2c.2.2,2.8-1.3,7.6-2.8,4.8-1.4,12-2.6,20-1.5,8.1,1.1,15.1,4,19.7,6.7,4.6,2.6,7.1,4.8,7.3,4.7,0,0-.5-.7-1.6-1.6-1.1-1-2.8-2.3-5.1-3.8-4.6-2.9-11.8-6.1-20.1-7.2s-15.8.2-20.6,1.9c-2.4.8-4.2,1.7-5.4,2.4-1.2.7-1.8,1.1-1.7,1.2h0Z"/>
            <path class="cls-1" d="M361.2,233.8c.2.2,2.8-1.3,7.6-2.8,4.8-1.4,12-2.6,20-1.5,8.1,1.1,15.1,4,19.6,6.7,4.6,2.6,7.1,4.8,7.3,4.7,0,0-.5-.7-1.6-1.6-1.1-1-2.8-2.3-5.1-3.8-4.6-2.9-11.8-6.1-20.1-7.2s-15.8.2-20.6,1.9c-2.4.8-4.2,1.7-5.4,2.4-1.2.7-1.8,1.1-1.7,1.2h0Z"/>
          </g>
        </g>
        <g id="Character">
          <g>
            <g>
              <rect class="cls-4" x="109" y="380.4" width="15.2" height="54.7" rx="7.2" ry="7.2"/>
              <path class="cls-4" d="M170.2,446.5h-28.6c-8.8,0-18.2,1-22-4.2-3-4-2.5-9.4-2.2-14.2.6-13.6,1.3-27.2,1.9-40.9.2-3.7.4-7.5,1.9-10.9s8.5-51.2,12.7-52h35.4l1,122.1h0Z"/>
              <path class="cls-10" d="M162.7,424.7c0,.1-9.5.3-21.2.3s-21.2-.1-21.2-.3,9.5-.3,21.2-.3,21.2.1,21.2.3Z"/>
              <path class="cls-10" d="M145.8,369.3c.1,0,.3,12.4.3,27.6s-.1,27.6-.3,27.6-.3-12.4-.3-27.6.1-27.6.3-27.6h0Z"/>
              <path class="cls-10" d="M119.3,431.9v-2c0-1.3,0-3.1-.2-5.4,0-4.5-.2-10.8,0-17.7,0-6.9.2-13.2.4-17.7,0-2.3.2-4.1.2-5.4v-2,7.4c0,4.6-.2,10.8-.2,17.7v25.1h-.2Z"/>
            </g>
            <g>
              <path class="cls-2" d="M315.2,255.3s15.5,3,23.5,28.1c9,28.7,24.3,87.6,24.2,94.4s-17.4,17.7-17.4,17.7l-24.8-8.3-13-49,7.6-82.9h-.1Z"/>
              <path class="cls-2" d="M315.2,255.3l-38.3-14.2-2.6-3.4-49.3,1.5-3.7,2.4s-37.1,8.1-40.9,8.6c-9,1.1-18.4,13.5-18.4,13.5-.9,1.2-47.6,68.9-47.6,68.9l10.9,42.6s5.1,1.8,19.9-7.9c11.7-7.7,20.8-19.8,24-24.5v103.5h144.5l-7.9-65.7,9.5-125.6h0v.3Z"/>
              <path class="cls-4" d="M307.9,323.5v-.5c0-.4.2-.9.3-1.5.3-1.3.6-3.1,1.1-5.3.9-4.5,2-10.7,3.1-17.6,1-6.9,1.8-13.2,2.2-17.8.2-2.2.4-4,.5-5.4,0-.6.1-1.1.2-1.5v-.5,2c0,1.3-.2,3.1-.4,5.4-.4,4.6-1.1,10.9-2.1,17.8s-2.2,13.1-3.2,17.6c-.5,2.2-.9,4-1.2,5.3-.1.6-.3,1-.4,1.4,0,.3-.1.5-.2.5h.1Z"/>
              <path class="cls-4" d="M164.6,295.8s0,.2.1.6c0,.5.2,1.1.3,1.8.2,1.6.5,3.8.9,6.6.7,5.6,1.5,13.4,2.1,22s.9,16.4,1.1,22.1c0,2.8.1,5.1,0,6.7v2.4-2.4c0-1.6-.1-3.9-.3-6.7-.2-5.6-.6-13.4-1.2-22-.6-8.6-1.4-16.4-2-22-.3-2.8-.5-5-.7-6.6,0-.7-.1-1.3-.2-1.8v-.6h-.1Z"/>
              <path class="cls-4" d="M277,246.2s-.2.2-.5.5c-.4.3-.9.8-1.5,1.4-1.4,1.1-3.3,2.8-5.9,4.7s-5.6,4.1-9.4,6c-3.9,1.8-8.4,2.9-13.3,3.1-4.9.2-9.6-.3-13.5-1.9s-7-4-9.1-6.5c-2-2.5-3.1-4.9-3.6-6.6-.2-.9-.4-1.5-.4-2v-.7s0,.2.2.7c0,.5.3,1.1.5,2,.5,1.7,1.6,4,3.7,6.4,2,2.4,5.1,4.8,8.9,6.3,3.9,1.5,8.5,2,13.3,1.8,4.8-.3,9.3-1.3,13.1-3.1,3.8-1.8,6.9-4,9.4-5.9,2.6-1.9,4.6-3.5,6-4.6.7-.5,1.2-.9,1.6-1.3.4-.3.6-.4.6-.4h-.1Z"/>
            </g>
            <g>
              <g class="cls-7">
                <path d="M203.1,294.1c-5.8,4-6.5,12.1-6.8,19.1-1.4,28.7-19.7,83.6-27.2,111.4,23.8-36.7,38.3-87,34-130.4h0Z"/>
              </g>
              <path class="cls-4" d="M204.7,245.2s-1.9,61.8-7.2,99c-5.3,37.1-31,86.5-31,86.5l-4.1-8.1s14.2-41.2,20.6-75.8c4.6-24.4,0-98,0-98,0,0,9.4-6.5,21.7-3.6h0Z"/>
              <path class="cls-10" d="M191.1,306.5c-.1,0,.2-12.9.8-28.8s1.1-28.8,1.3-28.8-.2,12.9-.8,28.8-1.1,28.8-1.3,28.7h0Z"/>
            </g>
            <g>
              <g>
                <path class="cls-2" d="M111,310l-4.9,12.7s-6.5,13.3-6,22.4,11.9,42.2,35,31.4c23.1-10.7,11.6-28.2,11.6-28.2l-10.8-29.7-17-11.2c-2.8-1.8-6.5-.6-7.7,2.5h-.2Z"/>
                <path class="cls-8" d="M138.2,274.6c1.5,2,10.2-.3,12.2,3.8s0,7.1,0,7.1c0,0,3.4,3.9.9,9,0,0,1.4,2.8.9,6-.4,3.3-2.9,5.3-2.9,5.3,0,0,.7,3.5-2.3,5.5s-10.9,3.5-10.9,3.5l-3.3,6s-4.5,5-10.1,2.8c-5.6-2.3-9.4-13.4-9.4-13.4.2-1.4,6.5-11.8,6.5-11.8,0,0,1.3-15.5,4-19.3s4-4.5,4-4.5c0,0,2.4-5.2,2.4-7.4s-2.1-9.3-.8-10.8c1.2-1.4,6.3-.4,8.5,5.4s.2,12.7.2,12.7h.1Z"/>
                <path class="cls-13" d="M150.1,285c0,.2-3-.4-6.7-.4s-6.7.5-6.7.3c0,0,.7-.3,1.9-.5s2.9-.4,4.8-.4,3.6.2,4.8.4c1.2.2,1.9.4,1.9.5h0Z"/>
                <path class="cls-13" d="M150.8,295.3c0,.2-2.8-.4-6.3-.4s-6.3.5-6.3.4,2.8-.9,6.3-.9,6.3.8,6.3.9h0Z"/>
                <path class="cls-13" d="M150.1,305.6c0,.1-2.4,1-5.5,1.2s-5.6-.2-5.6-.4,2.5,0,5.6-.2,5.5-.8,5.5-.6Z"/>
                <path class="cls-13" d="M142.4,313s-.8.5-2.3,1-3.6.9-6.1.8c-2.4,0-4.5-.7-6-1.3-1.4-.6-2.3-1.1-2.2-1.2,0-.2,3.5,1.8,8.2,1.9,4.7.2,8.3-1.5,8.3-1.3h.1Z"/>
                <path class="cls-13" d="M142.5,275.9c0,.2-3.2-.5-7.2-.4s-7.1,1-7.2.8c0,0,.8-.4,2-.7s3.1-.6,5.1-.7c2,0,3.9.1,5.2.4s2.1.5,2.1.5h0Z"/>
                <path class="cls-4" d="M144.3,363.3s.3-.6.7-1.8c.4-1.1,1-2.8,1.3-5,.3-2.1.4-4.8,0-7.6-.5-2.8-1.6-5.8-3.4-8.6-1.8-2.8-3.8-5.3-5-8.1-1.2-2.7-1.7-5.3-2.1-7.5-.4-2.2-.5-3.9-.6-5.2,0-.6,0-1-.1-1.4v-.5s0,.2.1.5c0,.4.1.8.2,1.4.2,1.2.4,3,.8,5.1.4,2.1,1,4.7,2.2,7.3,1.1,2.7,3.1,5.1,5,8,1.9,2.8,3,5.9,3.4,8.8.5,2.9.3,5.6,0,7.7-.4,2.2-1,3.9-1.5,5-.2.6-.5,1-.6,1.3-.2.3-.2.4-.3.4h0v.2Z"/>
              </g>
              <g>
                <g class="cls-7">
                  <path d="M135.3,317.4c.1.5.3,1.1.5,1.6v-1.6h-.5Z"/>
                </g>
                <g class="cls-7">
                  <path d="M145.2,335.3c-3.4-5.3-7.5-10.3-9.4-16.3,0,5,.2,10.2,2.4,14.7,1.4,3,3.5,5.6,5.3,8.4s3.2,6,3,9.2c0,1.2-.4,2.4,0,3.5s1.4,2.2,2.6,1.8c.8-.3,1.2-1.2,1.4-2.1,1.7-6.6-1.4-13.5-5.1-19.3h-.2Z"/>
                </g>
              </g>
            </g>
            <g>
              <g>
                <path class="cls-4" d="M301.2,187.3c-2.3,1.3-5.4-.4-6.4-2.8-1-2.4-.6-5.2.2-7.7s1.9-4.9,2-7.6c.3-4.8-3-9.5-7.5-11,4.5-3.5,4.8-11.1.7-15-1.9-1.8-4.5-2.9-6.7-4.3-1.3-.8-2.4-1.8-3.5-2.9,2,.4,4,.6,6.1.2,3.2-.7,6.1-3.1,7.1-6.2,1.1-3.1.2-6.8-2.1-9.1-2.4-2.3-6.2-2.9-9.2-1.4-2.9,1.5-4.5,4.7-5.9,7.6-.4.9-.9,1.8-1.3,2.7-4-5.4-7.9-10.9-14.1-12.8-5.7-1.7-11.8.2-17.6-.2-4.3-.3-8.4-1.9-12.7-2.3-4.3-.5-9.2.4-11.7,3.9-1.5,2.1-1.9,4.7-3.5,6.7-3.1,4.2-9.8,4.8-12.3,9.3-2.1,3.7-.5,8.4-1.4,12.5-1,4.5-4.7,7.8-7.7,11.3s-5.7,8.2-4,12.5c1.5,3.8,5.9,5.8,7.3,9.6,1.1,2.8.3,5.9.2,8.8,0,3,1.1,6.5,4,7.1l32.9,8.7c11.3,4.6,23,9.3,35.2,9.3s25.2-5.9,30.1-17.1c-1.8,0-3.5-.8-4.7-2.1,3.2-1.4,5.6-4.4,6.4-7.8h0Z"/>
                <g>
                  <g>
                    <path class="cls-4" d="M274.3,197.6c2.7-8.3,5.4-16.7,6.6-25.4s1-17.7-2.1-25.9c-.5-1.2-4.4-9.6-5.7-9.5-.9,0,1.5,7.9,1,8.7-4.6,7.8-5.8,17.2-5.1,26.3.7,9,2.6,17.1,5.3,25.8"/>
                    <path class="cls-8" d="M241.7,123.4h-2c-20.4,1.2-36.6,17.8-37.2,38.3-.5,19-1.2,37.3-.5,47.5,1.4,21,23,23.2,23,23.2v10.9c.9,11.1,15.3,13.1,20.7,12.6,18.8,0,28.6-15.4,28.6-15.4l.9-76.3c.7-22-11.5-40.7-33.4-40.8h0Z"/>
                    <path class="cls-13" d="M224.9,232.4s13.3,0,27-9.6c0,0-5.9,15.7-27,14.9v-5.3h0Z"/>
                    <path class="cls-4" d="M212.2,178.9c0,1.6,1.4,2.9,3.1,2.9s3-1.3,2.9-2.9c0-1.6-1.4-2.9-3.1-2.9s-3,1.3-3,2.9h.1Z"/>
                    <path class="cls-4" d="M207.4,170.2c.4.4,2.6-1.4,5.8-1.6,3.2-.2,5.7,1.3,6,.9.2-.2-.2-.9-1.3-1.6-1.1-.7-2.8-1.3-4.9-1.2-2,.1-3.7.9-4.6,1.8-.9.8-1.2,1.5-1.1,1.7h.1Z"/>
                    <path class="cls-4" d="M241.4,179c0,1.6,1.4,2.9,3.1,2.9s3-1.3,2.9-2.9c0-1.6-1.4-2.9-3.1-2.9s-3,1.3-3,2.9h.1Z"/>
                    <path class="cls-4" d="M239.2,169.8c.4.4,2.6-1.4,5.8-1.6,3.2-.2,5.7,1.3,6,.9.2-.2-.2-.9-1.3-1.6-1.1-.7-2.8-1.3-4.9-1.2-2,.1-3.7.9-4.6,1.8-.9.8-1.2,1.5-1.1,1.7h.1Z"/>
                    <path class="cls-4" d="M228.9,195.3c0-.2-2-.4-5.3-.7-.8,0-1.6-.2-1.8-.7-.2-.6,0-1.5.4-2.5.7-2,1.4-4.2,2.1-6.4,2.9-9.1,5-16.6,4.6-16.8-.4-.1-3,7.2-5.9,16.3-.7,2.2-1.4,4.4-2,6.4s-.7,2.1-.2,3.3c.3.6.9,1,1.4,1.1s1,.1,1.4.1c3.3,0,5.3,0,5.3-.3h0v.2Z"/>
                    <path class="cls-4" d="M238.6,197c-.5,0-.4,3.5-3.2,6.2-2.9,2.7-6.6,2.5-6.6,3s.9.6,2.4.6,3.8-.6,5.6-2.3c1.8-1.6,2.4-3.7,2.5-5.2,0-1.5-.4-2.3-.6-2.3h0Z"/>
                    <path class="cls-4" d="M238.7,156.7c.4.9,3.6.3,7.4.5,3.8.2,6.9,1.1,7.4.3.2-.4-.4-1.2-1.7-2s-3.3-1.5-5.6-1.6-4.4.4-5.7,1c-1.4.6-2,1.4-1.9,1.8h.1Z"/>
                    <path class="cls-4" d="M208.2,159.4c.6.7,2.8-.2,5.5-.4,2.7-.3,5,.2,5.5-.6.2-.4-.2-1.1-1.2-1.7-1-.6-2.7-1.1-4.5-1-1.8.2-3.4.9-4.3,1.7-.9.8-1.2,1.6-.9,1.9h-.1Z"/>
                    <path class="cls-8" d="M274.2,179.9c.4-.2,14.2-5.1,14.5,9.4s-14.2,11.8-14.3,11.4c0-.4-.3-20.7-.3-20.7h0Z"/>
                    <path class="cls-13" d="M278.8,195s.3.2.7.4c.4.2,1.1.3,1.9,0,1.5-.6,2.7-3,2.8-5.6,0-1.3-.3-2.6-.8-3.6-.5-1.1-1.2-1.8-1.9-1.9-.8-.2-1.3.3-1.5.7s0,.7-.2.7c0,0-.3-.2-.2-.8,0-.3.2-.6.5-.9.3-.3.9-.4,1.4-.4,1.1,0,2.1,1.1,2.7,2.2.6,1.1,1,2.5,1,4,0,2.9-1.5,5.7-3.5,6.3s-1.9,0-2.3-.3c-.5-.4-.5-.7-.5-.7h-.1Z"/>
                    <path class="cls-4" d="M211.5,137.7c-2.4-1.3,4.6-8.9,10.3-11.6,8.6-4,21.8-6.6,29.9-4.5,9.7,2.6,17.7,7.3,22.7,16,4.9,8.7,6.9,18.9,6.7,28.9,0,3.1-.3,6.2-1.9,8.8-2,3.2-5.8,5.3-5.6,9.7,0,1.6-.4,3.2-1.4,4.4-2.6,2.8-5.9.2-7.4-2.4-3.2-5.6-3.7-12.4-4-18.8-.3-4.6-.5-9.3.7-13.7.7-2.4,1.8-4.7,2.3-7.1s.4-5.2-1.1-7.2c-.2-.3-.7-.7-1.2-1.2-4.1-3.5-9.9-4.5-15-2.6-8.1,3-21.9,7.4-25.6,4.7-5.3-3.9-6.5-6.5-6.5-6.5l-2.8,3.1h0Z"/>
                  </g>
                  <path class="cls-4" d="M250.8,119.7c-8-2.6-17-2.3-24.4,1.7-3.9,2.1-7.4,5.4-8.6,9.7-1.1,4.3.7,9.5,4.9,11.1l.3.2c6.2,2,10.2,1.1,16.3-1.1,5.1-1.9,9.7-5.1,14.8-6.9,5.5-1.9,11.5-2.2,17.1-.7-5.6-6.2-12.5-11.4-20.5-13.9h0Z"/>
                </g>
                <path class="cls-10" d="M278.2,133.9c-.1.1-1.3-1.3-3.6-2.9-1.2-.8-2.6-1.7-4.4-2.3-1.7-.7-3.8-1.2-5.9-1-4.3.4-7.9,2.4-10.1,4.2-2.2,1.8-3.3,3.2-3.4,3.1,0,0,.1-.4.6-1.1.5-.7,1.2-1.6,2.3-2.6,2.2-1.9,5.8-4.2,10.4-4.6,2.3-.2,4.5.4,6.3,1.1s3.3,1.7,4.5,2.6c2.3,1.8,3.3,3.4,3.2,3.4h0Z"/>
                <path class="cls-10" d="M279.7,139c.1,0-.1,1.6-1.1,4.1s-2.7,5.7-5.4,8.8c-2.7,3-5.7,5.2-8,6.4s-3.9,1.7-4,1.6c-.2-.3,6-2.6,11.3-8.6,5.3-5.9,6.9-12.4,7.2-12.2h0Z"/>
                <path class="cls-10" d="M285.5,141.4s.1.6,0,1.6-.2,2.6-.6,4.4c-.8,3.7-2.8,8.7-6.7,13.1-3.8,4.4-8.5,7.1-12.1,8.4-1.8.7-3.3,1-4.3,1.2s-1.6.2-1.6.2c0-.2,2.3-.6,5.7-2,3.4-1.4,7.9-4.1,11.6-8.4s5.8-9.1,6.7-12.6c1-3.6,1.1-5.9,1.2-5.9h0Z"/>
                <path class="cls-10" d="M234.3,118.4c0,.2-1.5.5-3.8,1.4s-5.4,2.5-8.4,4.9c-2.9,2.4-5.1,5.1-6.4,7.2-1.4,2.1-2,3.5-2.1,3.5s.3-1.6,1.6-3.8c1.2-2.2,3.4-5.1,6.4-7.7,3-2.5,6.3-4.1,8.7-4.8,2.4-.8,4-.9,4.1-.8h-.1Z"/>
                <path class="cls-10" d="M290.1,120.2c.2,0-.4,4.2-3.7,8-3.2,3.9-7.2,5.2-7.3,5-.1-.3,3.5-1.9,6.5-5.6,3.1-3.6,4.1-7.5,4.4-7.4h.1Z"/>
              </g>
              <path class="cls-13" d="M244.4,187.8c0,.3-.2.5-.5.5s-.5-.2-.5-.5.2-.5.5-.5.5.2.5.5Z"/>
              <circle class="cls-13" cx="247.9" cy="187.8" r=".5"/>
            </g>
            <g>
              <g>
                <rect class="cls-10" x="219.8" y="289.8" width="93.4" height="68.8" rx="2" ry="2" transform="translate(-120.3 487) rotate(-73.4)"/>
                <path class="cls-4" d="M224.1,347.2c-2.6-.5-4.5-2.8-4.4-5.5.1-3,2.6-5.3,5.6-5.2,3,.1,5.3,2.6,5.2,5.6h-1c0-2.5-1.8-4.5-4.3-4.6-2.4,0-4.5,1.8-4.6,4.3,0,2.2,1.4,4.1,3.6,4.5l-.2,1h0Z"/>
                <path class="cls-4" d="M226.3,339.8c-2.6-.5-4.5-2.8-4.4-5.5.1-3,2.6-5.3,5.6-5.2,3,.1,5.3,2.6,5.2,5.6h-1c0-2.5-1.8-4.5-4.3-4.6s-4.5,1.8-4.6,4.3c0,2.2,1.4,4.1,3.6,4.5l-.2,1h0Z"/>
                <path class="cls-4" d="M228.6,332.5c-2.6-.5-4.5-2.8-4.4-5.5,0-1.5.7-2.8,1.7-3.8,1.1-1,2.4-1.5,3.9-1.5,3,.1,5.3,2.6,5.2,5.6h-1c0-2.5-1.8-4.5-4.3-4.6-1.2,0-2.3.4-3.2,1.2-.9.8-1.4,1.9-1.4,3.1,0,2.2,1.4,4.1,3.6,4.5l-.2,1h0Z"/>
                <path class="cls-4" d="M230.8,325.1c-2.6-.5-4.5-2.8-4.4-5.5.1-3,2.6-5.3,5.6-5.2,1.4,0,2.8.7,3.8,1.7,1,1.1,1.5,2.4,1.4,3.9h-1c0-1.2-.4-2.4-1.2-3.2-.8-.9-1.9-1.4-3.1-1.4s-2.3.4-3.2,1.2c-.9.8-1.4,1.9-1.4,3.1,0,2.2,1.4,4.1,3.6,4.5l-.2,1h0Z"/>
                <path class="cls-4" d="M233.1,317.7c-2.6-.5-4.5-2.8-4.4-5.5,0-1.5.7-2.8,1.7-3.8,1.1-1,2.4-1.5,3.9-1.5,3,.1,5.3,2.6,5.2,5.6h-1c0-2.5-1.8-4.5-4.3-4.6-1.2,0-2.3.4-3.2,1.2-.9.8-1.4,1.9-1.4,3.1,0,2.2,1.4,4.1,3.6,4.5l-.2,1h0Z"/>
                <path class="cls-4" d="M235.3,310.4c-2.6-.5-4.5-2.8-4.4-5.5,0-1.5.7-2.8,1.7-3.8,1.1-1,2.5-1.5,3.9-1.5s2.8.7,3.8,1.7,1.5,2.4,1.4,3.9h-1c0-2.5-1.8-4.5-4.3-4.6-1.2,0-2.3.4-3.2,1.2-.9.8-1.4,1.9-1.4,3.1,0,2.2,1.4,4.1,3.6,4.5l-.2,1h0Z"/>
                <path class="cls-4" d="M237.5,303c-2.6-.5-4.5-2.8-4.4-5.5.1-2.9,2.5-5.2,5.4-5.2h.2c3,.1,5.3,2.6,5.2,5.6h-1c0-2.5-1.8-4.5-4.3-4.6-2.4,0-4.5,1.8-4.6,4.3,0,2.2,1.4,4.1,3.6,4.5l-.2,1h.1Z"/>
                <path class="cls-4" d="M239.8,295.6c-2.6-.5-4.5-2.8-4.4-5.5.1-3,2.6-5.3,5.6-5.2,1.4,0,2.8.7,3.8,1.7s1.5,2.4,1.4,3.9h-1c0-1.2-.4-2.4-1.2-3.2-.8-.9-1.9-1.4-3.1-1.4-2.5-.1-4.5,1.8-4.6,4.3,0,2.2,1.4,4.1,3.6,4.5l-.2,1h0Z"/>
                <path class="cls-4" d="M242,288.3c-2.6-.5-4.5-2.8-4.4-5.5,0-1.5.7-2.8,1.7-3.8s2.4-1.5,3.9-1.5c3,.1,5.3,2.6,5.2,5.6h-1c0-2.5-1.8-4.5-4.3-4.6-1.2,0-2.3.4-3.2,1.2-.9.8-1.4,1.9-1.4,3.1,0,2.2,1.4,4.1,3.6,4.5l-.2,1h0Z"/>
                <path class="cls-4" d="M244.2,280.9c-2.6-.5-4.5-2.8-4.4-5.5,0-1.5.7-2.8,1.7-3.8,1.1-1,2.4-1.5,3.9-1.5,3,.1,5.3,2.6,5.2,5.6h-1c0-2.5-1.8-4.5-4.3-4.6-2.4-.1-4.5,1.8-4.6,4.3,0,2.2,1.4,4.1,3.6,4.5l-.2,1h.1Z"/>
                <path class="cls-4" d="M221.9,354.5c-2.6-.5-4.5-2.8-4.4-5.5,0-1.5.7-2.8,1.7-3.8,1.1-1,2.4-1.5,3.9-1.5,3,.1,5.3,2.6,5.2,5.6h-1c0-2.5-1.8-4.5-4.3-4.6-1.2,0-2.3.4-3.2,1.2-.9.8-1.4,1.9-1.4,3.1,0,2.2,1.4,4.1,3.6,4.5l-.2,1h0Z"/>
              </g>
              <path class="cls-5" d="M229.4,348.8c1.1-2.8,13.1-44.9,18.6-62.2,1.2-3.9,5.7-6.1,9.5-4.9l61.5,18.3c3.7,1.2,5.8,5.1,4.7,8.9l-27.2,94.1c-1.1,3.8-5,6-8.9,5l-62.6-16.9c-3.9-1.1-6.2-5.1-5.1-9l9.4-32.9v-.4h.1Z"/>
              <g>
                <path class="cls-1" d="M251.4,279.6c-2.5-.7-5,.8-5.8,3.2-4.6,15-19.4,63.3-20.4,66.3l-10.9,35.7c-.8,2.6.7,5.3,3.4,6l67.5,17.5c2.5.6,5.1-.8,5.8-3.3l29.4-102c.7-2.6-.8-5.2-3.4-5.9l-65.6-17.6h0Z"/>
                <path class="cls-4" d="M251.4,279.6s.3,0,1,.2c.6.2,1.6.4,2.8.7,2.5.6,6.1,1.6,10.7,2.8,9.3,2.5,22.8,6,39.4,10.5,2.1.5,4.2,1.1,6.4,1.7,1.1.3,2.2.6,3.3.9.6.1,1.1.3,1.7.5.5.1,1.2.3,1.7.6,1,.6,1.9,1.7,2.2,2.9.2.6.2,1.2.2,1.9s-.3,1.2-.4,1.8c-.7,2.4-1.4,4.7-2.1,7.2-2.8,9.7-5.8,20.1-8.9,31s-6.5,22.4-9.9,34.3c-1.7,6-3.5,12-5.2,18.1-.9,3.1-1.8,6.2-2.7,9.3l-.3,1.2c-.1.4-.3.8-.5,1.2-.4.7-1.1,1.4-1.8,1.8-.8.4-1.6.7-2.5.6-.4,0-.9,0-1.3-.2l-1.2-.3c-12.7-3.3-25.1-6.5-37.1-9.6s-11.9-3.1-17.6-4.6c-2.9-.8-5.7-1.5-8.6-2.2-.7-.2-1.4-.4-2.1-.5-.7-.2-1.4-.3-2.1-.7-1.3-.7-2.2-2.1-2.5-3.6-.1-.7,0-1.5.1-2.2.2-.7.4-1.4.6-2,.4-1.3.8-2.7,1.2-4,.8-2.6,1.6-5.3,2.4-7.8,1.6-5.1,3.1-10.2,4.6-15,3-9.7,5.8-18.7,8.3-26.9,5.1-16.4,9.2-29.7,12.1-38.9.7-2.3,1.4-4.3,1.9-6.1.3-.9.5-1.7.9-2.4.4-.7,1-1.1,1.5-1.5,1.1-.7,2.1-.7,2.8-.7s1,.2,1,.2c0,0-.3,0-1-.1-.6,0-1.6,0-2.7.7-.5.3-1.1.8-1.5,1.5-.4.6-.6,1.5-.9,2.4-.5,1.8-1.2,3.8-1.9,6.1-2.8,9.2-6.9,22.5-11.9,39-2.5,8.2-5.3,17.2-8.2,26.9-1.5,4.8-3,9.9-4.6,15-.8,2.6-1.6,5.2-2.4,7.8s-.8,2.7-1.2,4c-.2.7-.4,1.4-.6,2-.2.6-.2,1.3-.1,2,.2,1.3,1,2.6,2.2,3.2.6.4,1.3.5,2,.7s1.4.4,2.1.5c2.8.7,5.7,1.5,8.6,2.2,5.8,1.5,11.6,3,17.6,4.6,12,3.1,24.4,6.3,37.1,9.6.8.2,1.6.5,2.3.5s1.5-.2,2.2-.6,1.2-.9,1.6-1.6c.4-.6.6-1.4.8-2.2.9-3.1,1.8-6.2,2.7-9.3,1.8-6.1,3.5-12.2,5.2-18.1,3.4-11.9,6.8-23.4,9.9-34.3s6.2-21.3,9-31c.7-2.4,1.4-4.8,2.1-7.2.2-.6.4-1.2.4-1.7s0-1.2-.2-1.7c-.3-1.1-1.1-2.1-2-2.6-.5-.3-1-.5-1.6-.6s-1.1-.3-1.7-.5c-1.1-.3-2.2-.6-3.3-.9-2.2-.6-4.3-1.2-6.4-1.7-16.6-4.5-30-8.1-39.4-10.6-4.6-1.3-8.2-2.2-10.7-2.9-1.2-.3-2.1-.6-2.8-.8-.6-.2-.9-.3-.9-.3h0l.2-.2Z"/>
              </g>
              <g class="cls-7">
                <path d="M256.2,378.7l-40-3.1c.5,3,2.8,5.4,5.5,6.7,2.7,1.4,5.7,1.9,8.6,2.4,4.5.8,9.1,1.5,13.6,2.3,1.7.3,3.6.6,4.9,1.8,1.4,1.3,1.9,3.3,2.9,4.8,1.8,2.5,5,3.6,8,4.5,11.8,3.5,23.7,6.6,35.8,8.9,3.4.6,6.8,1.1,10.2.4,3.3-.8,6.5-3.3,7-6.6l-56.5-21.9h0v-.2Z"/>
              </g>
              <path class="cls-4" d="M254.2,281.4c.1,0-7.4,24.6-16.9,54.9s-17.3,54.8-17.4,54.7,7.4-24.6,16.9-54.9c9.5-30.2,17.3-54.8,17.4-54.7h0Z"/>
              <rect class="cls-5" x="268.3" y="299.2" width="20.3" height="40.6" transform="translate(-107.3 495.1) rotate(-73.4)"/>
            </g>
            <g>
              <g>
                <path class="cls-8" d="M261.9,349.9s-9.9-13.1-13.4-16.1c-3.6-3-18.4-.6-18.4-.6l-6.4,6.8s1.3,5.1,7.3,2.6l1.7-1.3h6.9l4.3,5-13.4-.2s-6.6-4.3-8.1-4.3-5.1,2.9-2.5,8c0,0-5,1.6-3.3,8.4,0,0-4.2,1.1-.4,9.2l.5.9s-4.4,2.1-1.5,6.7,10.1,6,12.3,5.9,41.6,5.7,41.6,5.7l10.7-27.7-17.8-8.9h-.1Z"/>
                <path class="cls-13" d="M232,356.7s-.8.1-2.1-.1-3.1-.7-4.8-1.7c-1.8-1-3.1-2.2-4-3.2s-1.3-1.7-1.2-1.7c.1-.1,2,2.6,5.5,4.5,3.4,1.9,6.7,2.1,6.7,2.2h0Z"/>
                <path class="cls-13" d="M225.7,365.5s-.7,0-1.8-.5c-1.1-.4-2.5-1.2-3.9-2.3-1.4-1.1-2.4-2.3-3.1-3.2s-1-1.6-.9-1.6c.1-.1,1.6,2.3,4.4,4.4,2.7,2.1,5.4,3,5.3,3.2h0Z"/>
                <path class="cls-13" d="M225.7,373.5c0,.1-2.5-.3-5.2-1.8s-4.4-3.4-4.3-3.5c.1-.1,1.9,1.6,4.6,3,2.6,1.5,5,2.1,5,2.2h-.1Z"/>
              </g>
              <path class="cls-2" d="M361.2,367.5l-42.9-6.7-50.4-9.5-11.8,39.6s60.2,17.6,76.7,19.8c17.6,2.3,24.5,0,30-11.6,3.6-7.4,1.4-22.2-1.7-31.6h0Z"/>
              <path class="cls-4" d="M321.3,408.5h-.3c-.2,0-.5-.1-.9-.2-.9-.2-2.1-.5-3.6-.9-3.2-.8-7.8-2.1-13.6-3.6-11.6-3.1-27.9-7.5-46.7-12.5h-.2v-.3c2.4-7.9,4.9-16.5,7.5-25.3,1.5-4.9,2.9-9.7,4.3-14.3v-.2h.3c22,4.4,41.3,8.2,55.2,10.9,6.9,1.4,12.5,2.5,16.3,3.3s3.4.7,4.4.9c.5.1.9.2,1.1.2s.4,0,.4.1h-.4c-.3,0-.7-.1-1.1-.2-1-.2-2.5-.5-4.4-.8-3.9-.7-9.4-1.8-16.3-3.1-13.9-2.7-33.2-6.5-55.2-10.8l.3-.2c-1.4,4.6-2.8,9.4-4.2,14.3-2.6,8.9-5.2,17.4-7.5,25.3l-.2-.3c18.8,5.1,35.1,9.5,46.7,12.7,5.8,1.6,10.3,2.9,13.5,3.7,1.6.4,2.8.8,3.6,1,.4.1.7.2.9.3.2,0,.3.1.3.1h-.2Z"/>
            </g>
          </g>
        </g>
      </g>
    </g>
  </g>
</svg>