<svg width="695" height="615" viewBox="0 0 695 615" fill="none" xmlns="http://www.w3.org/2000/svg">
<g clip-path="url(#clip0_54_25)">
<path d="M532.817 511.808H534.105C540.509 511.808 545.7 516.996 545.7 523.395V588.249C545.7 594.648 540.509 599.836 534.105 599.836H532.817C526.414 599.836 521.223 594.648 521.223 588.249V523.395C521.223 516.996 526.414 511.808 532.817 511.808Z" fill="#263238"/>
<path d="M447.148 618.181C447.148 618.181 479.193 618.181 493.203 618.181C507.374 618.181 522.511 619.791 528.63 611.422C533.461 604.985 532.656 596.295 532.173 588.571C531.207 566.684 530.079 544.798 529.113 522.751C528.791 516.797 528.469 510.681 526.054 505.21C523.638 499.738 512.366 422.815 505.602 421.527H448.597L446.987 618.02L447.148 618.181Z" fill="#263238"/>
<path d="M459.225 583.099C459.225 583.26 474.523 583.582 493.364 583.582C512.205 583.582 527.503 583.421 527.503 583.099C527.503 582.777 512.205 582.616 493.364 582.616C474.523 582.616 459.225 582.777 459.225 583.099Z" fill="#455A64"/>
<path d="M486.44 493.945C486.278 493.945 485.956 513.9 485.956 538.361C485.956 562.822 486.117 582.777 486.44 582.777C486.762 582.777 486.923 562.822 486.923 538.361C486.923 513.9 486.762 493.945 486.44 493.945Z" fill="#455A64"/>
<path d="M529.113 594.686C529.113 594.686 529.113 594.364 529.113 593.881C529.113 593.238 529.113 592.433 529.113 591.467C529.113 589.375 529.274 586.479 529.435 582.777C529.435 575.535 529.758 565.397 529.435 554.293C529.435 543.189 529.113 533.05 528.791 525.809C528.791 522.107 528.469 519.211 528.469 517.119C528.469 516.153 528.469 515.348 528.469 514.705V517.119C528.469 519.211 528.469 522.107 528.469 525.809C528.469 533.211 528.791 543.189 528.791 554.293C528.791 565.397 528.791 575.375 528.791 582.777V591.467C528.791 592.433 528.791 593.238 528.791 593.881C528.791 594.364 528.791 594.686 528.791 594.686H529.113Z" fill="#455A64"/>
<path d="M213.651 310.487C213.651 310.487 188.691 315.315 175.808 355.708C161.315 401.894 136.677 496.681 136.838 507.624C136.999 518.567 164.858 536.108 164.858 536.108L204.794 522.751L225.728 443.896L213.49 310.487H213.651Z" fill="#BFDD7D"/>
<path d="M213.65 310.487L275.326 287.635L279.513 282.164L358.902 284.577L364.86 288.44C364.86 288.44 424.603 301.475 430.722 302.28C445.215 304.05 460.352 324.005 460.352 324.005C461.802 325.936 537.004 434.884 537.004 434.884L519.451 503.44C519.451 503.44 511.239 506.336 487.406 490.726C468.565 478.335 453.911 458.863 448.758 451.299V617.86H216.066L228.788 512.13L213.489 310.004L213.65 310.487Z" fill="#BFDD7D"/>
<path d="M225.406 420.24C225.406 420.24 225.406 419.918 225.406 419.435C225.406 418.791 225.084 417.987 224.923 417.021C224.44 414.929 223.957 412.032 223.151 408.492C221.702 401.25 219.931 391.273 218.159 380.169C216.549 369.065 215.261 358.926 214.617 351.523C214.295 347.983 213.973 345.086 213.811 342.833C213.811 341.868 213.65 341.063 213.489 340.419C213.489 341.063 213.489 341.868 213.489 342.833C213.489 344.925 213.812 347.822 214.134 351.523C214.778 358.926 215.905 369.065 217.515 380.169C219.126 391.273 221.058 401.25 222.668 408.492C223.473 412.032 224.118 414.929 224.601 417.021C224.762 417.987 225.084 418.631 225.245 419.274C225.245 419.757 225.406 420.079 225.567 420.079L225.406 420.24Z" fill="#263238"/>
<path d="M456.166 375.663C456.166 375.663 456.166 375.985 456.005 376.628C456.005 377.433 455.683 378.399 455.522 379.525C455.2 382.1 454.716 385.64 454.072 390.146C452.945 399.158 451.657 411.711 450.691 425.551C449.724 439.39 449.241 451.943 448.919 461.116C448.919 465.622 448.758 469.323 448.919 471.898C448.919 473.185 448.919 474.151 448.919 474.795C448.919 473.99 448.919 473.024 448.919 471.898C448.919 469.323 449.08 465.622 449.402 461.116C449.724 452.104 450.369 439.551 451.335 425.711C452.301 411.872 453.589 399.319 454.555 390.307C455.039 385.801 455.361 382.261 455.683 379.686C455.683 378.559 455.844 377.594 456.005 376.789C456.005 376.146 456.005 375.824 456.005 375.824L456.166 375.663Z" fill="#263238"/>
<path d="M275.165 295.842C275.165 295.842 275.487 296.164 275.97 296.647C276.614 297.13 277.419 297.934 278.386 298.9C280.64 300.67 283.7 303.406 287.887 306.464C292.073 309.521 296.904 313.062 303.024 316.119C309.304 319.016 316.55 320.786 324.441 321.108C332.332 321.43 339.9 320.625 346.18 318.05C352.461 315.476 357.453 311.613 360.834 307.59C364.055 303.567 365.826 299.705 366.632 296.969C366.954 295.521 367.276 294.555 367.276 293.75C367.276 292.946 367.276 292.624 367.276 292.624C367.276 292.624 367.276 292.946 366.954 293.75C366.954 294.555 366.47 295.521 366.148 296.969C365.343 299.705 363.572 303.406 360.19 307.268C356.97 311.131 351.978 314.993 345.858 317.407C339.578 319.821 332.171 320.625 324.441 320.303C316.711 319.821 309.465 318.211 303.346 315.315C297.226 312.418 292.234 308.878 288.209 305.82C284.022 302.762 280.801 300.187 278.547 298.417C277.419 297.613 276.614 296.969 275.97 296.325C275.326 295.842 275.004 295.681 275.004 295.681L275.165 295.842Z" fill="#263238"/>
<g opacity="0.3">
<path d="M394.168 372.927C403.508 379.364 404.635 392.399 405.118 403.664C407.373 449.851 436.842 538.2 448.919 582.938C410.593 523.878 387.243 442.931 394.168 373.088V372.927Z" fill="black"/>
</g>
<path d="M391.591 294.233C391.591 294.233 394.651 393.687 403.186 453.552C411.721 513.256 453.106 592.755 453.106 592.755L459.708 579.72C459.708 579.72 436.842 513.417 426.536 457.736C419.128 418.47 426.536 300.027 426.536 300.027C426.536 300.027 411.398 289.566 391.591 294.233Z" fill="#263238"/>
<path d="M413.492 392.882C413.653 392.882 413.17 372.122 412.204 346.535C411.238 320.947 410.432 300.188 410.11 300.188C409.788 300.188 410.432 320.947 411.399 346.535C412.365 372.122 413.17 392.882 413.492 392.721V392.882Z" fill="#455A64"/>
<path d="M542.479 398.515L550.37 418.952C550.37 418.952 560.837 440.356 560.032 455C559.226 469.645 540.869 522.912 503.67 505.532C466.472 488.312 484.99 460.15 484.99 460.15L502.382 412.354L529.757 394.33C534.266 391.434 540.224 393.365 542.157 398.354L542.479 398.515Z" fill="#BFDD7D"/>
<path d="M498.678 341.546C496.263 344.765 482.253 341.063 479.032 347.661C475.812 354.259 479.032 359.087 479.032 359.087C479.032 359.087 473.557 365.363 477.583 373.571C477.583 373.571 475.329 378.077 476.134 383.226C476.778 388.537 480.804 391.756 480.804 391.756C480.804 391.756 479.676 397.388 484.507 400.607C489.338 403.825 502.06 406.239 502.06 406.239L507.374 415.895C507.374 415.895 514.621 423.941 523.638 420.401C532.656 416.699 538.775 398.836 538.775 398.836C538.453 396.583 528.308 379.847 528.308 379.847C528.308 379.847 526.215 354.903 521.867 348.788C517.519 342.672 515.426 341.546 515.426 341.546C515.426 341.546 511.561 333.178 511.561 329.637C511.561 326.097 514.943 314.671 512.849 312.257C510.917 310.004 502.704 311.613 499.161 320.947C495.619 330.281 498.839 341.385 498.839 341.385L498.678 341.546Z" fill="#FFBF9D"/>
<path d="M479.515 358.282C479.515 358.604 484.346 357.639 490.304 357.639C496.263 357.639 501.094 358.443 501.094 358.122C501.094 358.122 499.966 357.639 498.034 357.317C496.101 356.995 493.364 356.673 490.304 356.673C487.245 356.673 484.507 356.995 482.575 357.317C480.642 357.639 479.515 357.961 479.515 358.122V358.282Z" fill="#FF9A6C"/>
<path d="M478.388 374.858C478.388 375.18 482.897 374.214 488.533 374.214C494.169 374.214 498.678 375.019 498.678 374.858C498.678 374.697 494.169 373.41 488.533 373.41C482.736 373.41 478.388 374.697 478.388 374.858Z" fill="#FF9A6C"/>
<path d="M479.515 391.434C479.515 391.595 483.38 393.043 488.372 393.365C493.364 393.687 497.39 393.043 497.39 392.721C497.39 392.399 493.364 392.721 488.372 392.399C483.38 392.077 479.515 391.112 479.515 391.434Z" fill="#FF9A6C"/>
<path d="M491.915 403.342C491.915 403.342 493.203 404.147 495.618 404.952C498.034 405.756 501.416 406.4 505.441 406.239C509.306 406.239 512.688 405.113 515.103 404.147C517.358 403.181 518.807 402.377 518.646 402.216C518.646 401.894 513.01 405.113 505.441 405.274C497.873 405.595 492.076 402.86 492.076 403.181L491.915 403.342Z" fill="#FF9A6C"/>
<path d="M491.754 343.638C491.754 343.96 496.907 342.833 503.348 342.994C509.789 343.155 514.781 344.604 514.942 344.282C514.942 344.282 513.654 343.638 511.722 343.155C509.789 342.673 506.73 342.19 503.509 342.029C500.288 342.029 497.229 342.19 495.135 342.673C493.042 343.155 491.754 343.477 491.754 343.477V343.638Z" fill="#FF9A6C"/>
<path d="M488.855 484.289C488.855 484.289 488.372 483.324 487.728 481.393C487.084 479.622 486.117 476.887 485.634 473.346C485.151 469.967 484.99 465.622 485.634 461.116C486.439 456.61 488.211 451.782 491.109 447.276C494.008 442.77 497.229 438.747 499.161 434.241C501.093 429.896 501.899 425.711 502.543 422.171C503.187 418.631 503.348 415.895 503.509 413.803C503.509 412.837 503.509 412.193 503.67 411.55C503.67 411.067 503.67 410.745 503.67 410.745C503.67 410.745 503.67 411.067 503.509 411.55C503.509 412.193 503.348 412.837 503.187 413.803C502.865 415.734 502.543 418.631 501.899 422.01C501.254 425.39 500.288 429.574 498.356 433.758C496.585 438.103 493.364 441.965 490.304 446.632C487.245 451.138 485.473 456.127 484.829 460.794C484.024 465.461 484.346 469.806 484.829 473.185C485.473 476.726 486.439 479.461 487.245 481.232C487.567 482.197 488.05 482.841 488.211 483.324C488.533 483.806 488.533 483.967 488.694 483.967L488.855 484.289Z" fill="#263238"/>
<g opacity="0.3">
<path d="M503.348 410.423C503.187 411.228 502.865 412.193 502.543 412.998V410.423H503.348Z" fill="black"/>
</g>
<g opacity="0.3">
<path d="M487.406 439.229C492.881 430.7 499.484 422.654 502.543 412.998C502.543 421.044 502.221 429.413 498.678 436.654C496.424 441.482 493.042 445.666 490.144 450.172C487.245 454.678 484.991 459.828 485.313 464.978C485.313 466.909 485.957 468.84 485.313 470.61C484.669 472.381 483.058 474.151 481.126 473.507C479.838 473.024 479.193 471.576 478.871 470.128C476.134 459.506 481.126 448.402 487.084 439.068L487.406 439.229Z" fill="black"/>
</g>
<path d="M236.195 201.056C239.899 203.148 244.891 200.412 246.501 196.55C248.112 192.687 247.467 188.181 246.179 184.158C244.891 180.135 243.119 176.273 242.958 171.928C242.475 164.203 247.789 156.64 255.036 154.226C247.789 148.593 247.306 136.363 253.909 130.086C256.968 127.19 261.155 125.419 264.698 123.166C266.791 121.879 268.563 120.27 270.334 118.5C267.113 119.143 263.893 119.465 260.511 118.821C255.358 117.695 250.688 113.833 249.078 108.844C247.306 103.855 248.756 97.9008 252.459 94.1994C256.324 90.4981 262.443 89.5325 267.274 91.9464C271.944 94.3604 274.521 99.5101 276.775 104.177C277.419 105.625 278.225 107.074 278.869 108.522C285.31 99.8319 291.59 90.9809 301.574 87.9232C310.753 85.1875 320.576 88.2451 329.916 87.6014C336.84 87.1186 343.443 84.5437 350.367 83.9C357.292 83.0954 365.182 84.5437 369.208 90.1762C371.623 93.5557 372.268 97.7398 374.844 100.958C379.836 107.717 390.625 108.683 394.651 115.925C398.033 121.879 395.456 129.443 396.906 136.041C398.516 143.282 404.474 148.593 409.305 154.226C414.136 159.858 418.484 167.422 415.746 174.342C413.331 180.457 406.246 183.675 403.991 189.791C402.22 194.297 403.508 199.286 403.669 203.952C403.669 208.78 401.898 214.413 397.228 215.378L344.248 229.379C326.051 236.782 307.21 244.345 287.565 244.345C267.919 244.345 246.984 234.851 239.094 216.827C241.992 216.827 244.73 215.539 246.662 213.447C241.509 211.194 237.644 206.366 236.356 200.895L236.195 201.056Z" fill="#263238"/>
<path d="M279.513 217.631C275.165 204.274 270.817 190.756 268.885 176.756C266.952 162.755 267.274 148.271 272.266 135.075C273.071 133.144 279.352 119.626 281.445 119.787C282.894 119.787 279.03 132.5 279.835 133.788C287.242 146.34 289.175 161.467 288.047 176.112C286.92 190.595 283.861 203.631 279.513 217.631Z" fill="#263238"/>
<path d="M332.009 98.2228H335.23C368.081 100.154 394.168 126.868 395.134 159.858C395.939 190.435 397.066 219.884 395.939 236.299C393.685 270.094 358.902 273.634 358.902 273.634V291.176C357.452 309.039 334.264 312.257 325.568 311.453C295.294 311.453 279.513 286.67 279.513 286.67L278.063 163.881C276.936 128.477 296.582 98.3837 331.848 98.2228H332.009Z" fill="#FFBF9D"/>
<path d="M359.063 273.634C359.063 273.634 337.646 273.634 315.584 258.185C315.584 258.185 325.085 283.451 359.063 282.164V273.634Z" fill="#FF9A6C"/>
<path d="M379.514 187.538C379.514 190.113 377.26 192.205 374.522 192.205C371.784 192.205 369.691 190.113 369.852 187.538C369.852 184.963 372.107 182.871 374.844 182.871C377.582 182.871 379.675 184.963 379.675 187.538H379.514Z" fill="#263238"/>
<path d="M387.243 173.537C386.599 174.181 383.057 171.284 377.904 170.962C372.751 170.64 368.725 173.054 368.242 172.411C367.92 172.089 368.564 170.962 370.335 169.836C372.106 168.709 374.844 167.744 378.226 167.905C381.446 168.066 384.184 169.353 385.633 170.801C387.082 172.089 387.566 173.215 387.404 173.537H387.243Z" fill="#263238"/>
<path d="M332.493 187.699C332.493 190.274 330.238 192.366 327.501 192.366C324.763 192.366 322.67 190.274 322.831 187.699C322.831 185.124 325.085 183.032 327.823 183.032C330.56 183.032 332.654 185.124 332.654 187.699H332.493Z" fill="#263238"/>
<path d="M336.035 172.893C335.391 173.537 331.848 170.64 326.695 170.319C321.542 169.997 317.516 172.411 317.033 171.767C316.711 171.445 317.355 170.319 319.127 169.192C320.898 168.066 323.636 167.1 327.017 167.261C330.238 167.422 332.976 168.709 334.425 170.158C335.874 171.445 336.357 172.572 336.196 172.893H336.035Z" fill="#263238"/>
<path d="M352.622 213.93C352.622 213.608 355.842 213.286 361.156 212.804C362.444 212.804 363.733 212.482 364.055 211.677C364.377 210.711 364.055 209.263 363.411 207.654C362.283 204.435 361.156 200.895 360.029 197.354C355.359 182.71 351.977 170.64 352.622 170.319C353.266 170.158 357.452 181.905 362.122 196.55C363.25 200.09 364.377 203.631 365.343 206.849C365.826 208.458 366.47 210.229 365.665 212.16C365.182 213.125 364.216 213.769 363.411 213.93C362.606 214.091 361.8 214.091 361.156 214.091C355.842 214.091 352.622 214.091 352.622 213.608V213.93Z" fill="#263238"/>
<path d="M337.002 216.666C337.807 216.666 337.646 222.298 342.155 226.643C346.825 230.988 352.783 230.667 352.783 231.471C352.783 231.793 351.333 232.437 348.918 232.437C346.341 232.437 342.799 231.471 339.9 228.735C337.002 226.161 336.035 222.781 335.874 220.367C335.874 217.953 336.518 216.666 336.84 216.666H337.002Z" fill="#263238"/>
<path d="M336.84 151.812C336.196 153.26 331.043 152.295 324.924 152.616C318.804 152.938 313.812 154.387 313.007 153.099C312.685 152.455 313.651 151.168 315.745 149.881C317.838 148.593 321.059 147.467 324.763 147.306C328.466 147.145 331.848 147.949 333.942 148.915C336.196 149.881 337.162 151.168 337.001 151.812H336.84Z" fill="#263238"/>
<path d="M385.955 156.157C384.989 157.283 381.447 155.835 377.099 155.513C372.751 155.03 369.047 155.835 368.242 154.548C367.92 153.904 368.564 152.777 370.174 151.812C371.785 150.846 374.522 150.042 377.421 150.202C380.319 150.524 382.896 151.651 384.345 152.938C385.794 154.226 386.278 155.513 385.794 155.996L385.955 156.157Z" fill="#263238"/>
<path d="M279.674 189.147C279.03 188.825 256.807 180.94 256.324 204.274C255.841 227.609 279.191 223.264 279.352 222.62C279.352 221.976 279.835 189.308 279.835 189.308L279.674 189.147Z" fill="#FFBF9D"/>
<path d="M272.266 213.447C272.266 213.447 271.783 213.769 271.139 214.091C270.495 214.413 269.368 214.574 268.079 214.091C265.664 213.125 263.731 209.263 263.57 205.079C263.57 202.987 264.053 200.895 264.859 199.286C265.664 197.515 266.791 196.389 267.918 196.228C269.206 195.906 270.012 196.711 270.334 197.354C270.656 197.998 270.334 198.481 270.656 198.481C270.656 198.481 271.139 198.159 270.978 197.193C270.978 196.711 270.656 196.228 270.173 195.745C269.69 195.262 268.723 195.101 267.918 195.101C266.147 195.101 264.537 196.872 263.57 198.642C262.604 200.412 261.96 202.665 261.96 205.079C261.96 209.746 264.375 214.252 267.596 215.217C269.206 215.7 270.656 215.217 271.3 214.735C272.105 214.091 272.105 213.608 272.105 213.608L272.266 213.447Z" fill="#FF9A6C"/>
<path d="M380.641 121.235C384.506 119.143 373.234 106.913 364.055 102.568C350.206 96.1306 328.95 91.9465 315.906 95.326C300.286 99.5101 287.403 107.074 279.352 121.075C271.461 135.075 268.24 151.49 268.562 167.583C268.562 172.571 269.046 177.56 271.622 181.744C274.843 186.894 280.962 190.274 280.64 197.354C280.64 199.929 281.284 202.504 282.894 204.435C287.081 208.941 292.395 204.757 294.811 200.573C299.964 191.561 300.769 180.618 301.252 170.318C301.735 162.916 302.057 155.352 300.125 148.271C298.998 144.409 297.226 140.708 296.421 136.845C295.616 132.983 295.777 128.477 298.192 125.259C298.514 124.776 299.32 124.132 300.125 123.327C306.727 117.695 316.067 116.086 324.28 119.143C337.323 123.971 359.546 131.052 365.504 126.707C374.039 120.431 375.971 116.247 375.971 116.247L380.48 121.235H380.641Z" fill="#263238"/>
<path d="M317.355 92.2684C330.238 88.0842 344.731 88.567 356.647 95.0041C362.928 98.3836 368.564 103.694 370.496 110.614C372.267 117.534 369.369 125.902 362.605 128.477L362.122 128.799C352.138 132.018 345.697 130.569 335.874 127.029C327.661 123.971 320.254 118.821 312.041 115.925C303.184 112.867 293.522 112.384 284.505 114.798C293.522 104.821 304.634 96.4525 317.516 92.4293L317.355 92.2684Z" fill="#263238"/>
<path d="M273.233 115.12C273.394 115.281 275.326 113.028 279.03 110.453C280.962 109.166 283.217 107.717 286.115 106.752C288.853 105.625 292.234 104.821 295.616 105.143C302.54 105.786 308.338 109.005 311.88 111.902C315.423 114.798 317.194 117.051 317.355 116.89C317.355 116.89 317.194 116.247 316.389 115.12C315.584 113.994 314.457 112.545 312.686 110.936C309.143 107.878 303.346 104.177 295.938 103.533C292.234 103.211 288.692 104.177 285.793 105.303C282.895 106.43 280.479 108.039 278.547 109.488C274.843 112.384 273.233 114.959 273.394 114.959L273.233 115.12Z" fill="#455A64"/>
<path d="M270.817 123.327C270.656 123.327 270.978 125.902 272.588 129.925C274.199 133.949 276.936 139.098 281.284 144.087C285.632 148.915 290.463 152.455 294.167 154.387C297.871 156.318 300.447 157.122 300.608 156.961C300.93 156.479 290.946 152.777 282.411 143.122C273.877 133.627 271.3 123.166 270.817 123.488V123.327Z" fill="#455A64"/>
<path d="M261.477 127.19C261.477 127.19 261.316 128.155 261.477 129.765C261.638 131.374 261.799 133.949 262.443 136.845C263.732 142.8 266.952 150.846 273.233 157.927C279.352 165.008 286.92 169.353 292.718 171.445C295.616 172.571 298.032 173.054 299.642 173.376C301.252 173.698 302.219 173.698 302.219 173.698C302.219 173.376 298.515 172.732 293.04 170.479C287.565 168.226 280.318 163.881 274.36 156.961C268.402 150.041 265.02 142.317 263.571 136.684C261.96 130.891 261.799 127.19 261.638 127.19H261.477Z" fill="#455A64"/>
<path d="M343.926 90.1763C343.926 90.4981 346.341 90.9809 350.045 92.4293C353.749 93.8776 358.741 96.4525 363.572 100.315C368.242 104.177 371.785 108.522 373.878 111.902C376.132 115.281 377.099 117.534 377.26 117.534C377.421 117.534 376.777 114.959 374.683 111.419C372.751 107.878 369.208 103.211 364.377 99.0273C359.546 95.0041 354.232 92.4293 350.367 91.3028C346.502 90.0154 343.926 89.8544 343.765 90.0154L343.926 90.1763Z" fill="#455A64"/>
<path d="M254.07 93.0729C253.748 93.0729 254.714 99.8319 260.028 105.947C265.181 112.223 271.622 114.315 271.783 113.994C271.944 113.511 266.147 110.936 261.316 104.982C256.324 99.1882 254.714 92.912 254.231 93.0729H254.07Z" fill="#455A64"/>
<path d="M327.661 201.86C327.661 202.343 327.983 202.665 328.467 202.665C328.95 202.665 329.272 202.343 329.272 201.86C329.272 201.378 328.95 201.056 328.467 201.056C327.983 201.056 327.661 201.378 327.661 201.86Z" fill="#FF9A6C"/>
<path d="M322.026 202.665C321.581 202.665 321.22 202.305 321.22 201.86C321.22 201.416 321.581 201.056 322.026 201.056C322.47 201.056 322.831 201.416 322.831 201.86C322.831 202.305 322.47 202.665 322.026 202.665Z" fill="#FF9A6C"/>
<path d="M324.524 336.596L365.653 474.469C366.161 476.173 365.191 477.965 363.486 478.473L263.486 508.265C261.782 508.773 259.988 507.804 259.48 506.1L218.351 368.227C217.843 366.523 218.813 364.73 220.517 364.223L320.518 334.431C322.222 333.923 324.016 334.892 324.524 336.596Z" fill="#455A64"/>
<path d="M360.351 458.38C364.538 457.575 367.597 453.874 367.436 449.529C367.275 444.701 363.249 441 358.418 441.161C353.587 441.321 349.884 445.345 350.045 450.173H351.655C351.655 446.149 354.554 442.931 358.58 442.77C362.444 442.77 365.826 445.667 365.987 449.69C365.987 453.23 363.733 456.288 360.19 456.932L360.512 458.541L360.351 458.38Z" fill="#263238"/>
<path d="M356.808 446.471C360.995 445.667 364.055 441.965 363.894 437.62C363.733 432.792 359.707 429.091 354.876 429.252C350.045 429.413 346.341 433.436 346.502 438.264H348.113C348.113 434.241 351.011 431.022 355.037 430.861C359.063 430.7 362.283 433.758 362.445 437.781C362.445 441.321 360.19 444.379 356.647 445.023L356.969 446.632L356.808 446.471Z" fill="#263238"/>
<path d="M353.105 434.723C357.291 433.919 360.351 430.217 360.19 425.872C360.19 423.459 359.063 421.366 357.452 419.757C355.681 418.148 353.588 417.343 351.172 417.343C346.341 417.504 342.637 421.527 342.798 426.355H344.409C344.409 422.332 347.307 419.113 351.333 418.953C353.266 418.953 355.037 419.596 356.486 420.884C357.936 422.171 358.741 423.941 358.741 425.872C358.741 429.413 356.486 432.47 352.944 433.114L353.266 434.723H353.105Z" fill="#263238"/>
<path d="M349.562 422.815C353.748 422.01 356.808 418.309 356.647 413.964C356.486 409.136 352.46 405.434 347.629 405.595C345.375 405.595 343.12 406.722 341.51 408.331C339.9 410.101 339.094 412.193 339.255 414.607H340.866C340.866 412.676 341.51 410.745 342.798 409.458C344.086 408.009 345.858 407.205 347.79 407.205C349.723 407.205 351.494 407.848 352.943 409.136C354.393 410.423 355.198 412.193 355.198 414.125C355.198 417.665 352.943 420.723 349.401 421.366L349.723 422.976L349.562 422.815Z" fill="#263238"/>
<path d="M345.858 410.906C350.045 410.101 353.104 406.4 352.943 402.055C352.943 399.641 351.816 397.549 350.206 395.94C348.434 394.33 346.341 393.526 343.926 393.526C339.095 393.687 335.391 397.71 335.552 402.538H337.162C337.162 398.515 340.061 395.296 344.087 395.135C346.019 395.135 347.79 395.779 349.24 397.066C350.689 398.354 351.494 400.124 351.494 402.055C351.494 405.595 349.24 408.653 345.697 409.297L346.019 410.906H345.858Z" fill="#263238"/>
<path d="M342.315 399.158C346.502 398.354 349.562 394.652 349.401 390.307C349.401 387.893 348.273 385.801 346.663 384.192C344.892 382.583 342.637 381.778 340.383 381.778C338.128 381.778 335.874 382.904 334.264 384.514C332.653 386.123 331.848 388.376 332.009 390.79H333.619C333.619 386.767 336.518 383.548 340.544 383.387C342.476 383.387 344.248 384.031 345.697 385.318C347.146 386.606 347.951 388.376 347.951 390.307C347.951 393.848 345.697 396.905 342.154 397.549L342.476 399.158H342.315Z" fill="#263238"/>
<path d="M338.773 387.25C342.959 386.445 346.019 382.744 345.858 378.399C345.697 373.732 341.832 370.03 337.162 370.03H336.84C332.009 370.191 328.305 374.214 328.466 379.042H330.077C330.077 375.019 332.975 371.8 337.001 371.64C340.866 371.64 344.248 374.536 344.409 378.559C344.409 382.1 342.154 385.158 338.611 385.801L338.934 387.411L338.773 387.25Z" fill="#263238"/>
<path d="M335.069 375.341C339.256 374.536 342.315 370.835 342.154 366.49C341.993 361.662 337.967 357.961 333.136 358.122C330.882 358.122 328.628 359.248 327.017 360.857C325.407 362.467 324.602 364.72 324.763 367.134H326.373C326.373 365.202 327.017 363.271 328.306 361.984C329.594 360.535 331.365 359.731 333.298 359.731C337.323 359.57 340.544 362.628 340.705 366.651C340.705 370.191 338.451 373.249 334.908 373.893L335.23 375.502L335.069 375.341Z" fill="#263238"/>
<path d="M331.526 363.593C335.713 362.788 338.773 359.087 338.612 354.742C338.612 352.328 337.484 350.236 335.874 348.627C334.264 347.018 332.009 346.213 329.594 346.213C324.763 346.374 321.059 350.397 321.22 355.225H322.83C322.83 351.202 325.729 347.983 329.755 347.822C331.687 347.822 333.459 348.466 334.908 349.753C336.357 351.041 337.162 352.811 337.162 354.742C337.162 358.282 334.908 361.34 331.365 361.984L331.687 363.593H331.526Z" fill="#263238"/>
<path d="M327.983 351.684C332.17 350.88 335.23 347.178 335.069 342.833C335.069 340.42 333.941 338.327 332.331 336.718C330.56 335.109 328.466 334.304 326.051 334.304C321.22 334.465 317.516 338.488 317.677 343.316H319.287C319.287 339.293 322.186 336.074 326.212 335.914C330.077 335.753 333.458 338.81 333.619 342.833C333.619 346.374 331.365 349.431 327.822 350.075L328.144 351.684H327.983Z" fill="#263238"/>
<path d="M363.894 470.128C368.08 469.323 371.14 465.622 370.979 461.276C370.979 458.863 369.852 456.771 368.241 455.161C366.47 453.552 364.377 452.747 361.961 452.747C357.13 452.908 353.426 456.931 353.588 461.759H355.198C355.198 457.736 358.096 454.518 362.122 454.357C364.055 454.357 365.826 455 367.275 456.288C368.725 457.575 369.53 459.345 369.53 461.276C369.53 464.817 367.275 467.875 363.733 468.518L364.055 470.128H363.894Z" fill="#263238"/>
<path d="M351.816 460.955C350.045 456.449 330.721 388.698 321.864 360.857C319.932 354.581 312.685 351.041 306.566 352.972L207.531 382.422C201.573 384.353 198.191 390.629 199.963 396.744L243.763 548.178C245.535 554.293 251.815 557.833 258.095 556.224L358.902 529.027C365.182 527.257 368.886 520.82 367.114 514.544L351.977 461.598V460.955C351.816 460.955 351.816 460.955 351.816 460.955Z" fill="white"/>
<path d="M316.389 349.592C320.415 348.466 324.441 350.88 325.729 354.742C333.137 378.881 356.969 456.61 358.58 461.437L376.132 518.889C377.421 523.073 375.005 527.418 370.657 528.544L261.96 556.707C257.934 557.672 253.747 555.419 252.62 551.396L205.277 387.25C204.149 383.065 206.565 378.881 210.752 377.755L316.389 349.431V349.592Z" fill="#E0E0E0"/>
<path d="M316.389 349.592C316.389 349.592 315.906 349.592 314.779 349.914C313.813 350.236 312.202 350.558 310.27 351.041C306.244 352.006 300.447 353.616 293.04 355.547C278.063 359.57 256.324 365.202 229.593 372.444C226.211 373.249 222.829 374.214 219.287 375.18C217.515 375.663 215.744 376.146 213.973 376.628C213.006 376.789 212.201 377.111 211.235 377.433C210.43 377.594 209.303 377.916 208.497 378.399C206.887 379.364 205.438 381.134 204.955 383.065C204.633 384.031 204.633 384.997 204.633 386.123C204.633 387.089 205.116 388.054 205.277 389.02C206.404 392.882 207.531 396.583 208.658 400.607C213.167 416.217 217.998 432.953 222.99 450.494C227.982 468.035 233.457 486.542 238.933 505.693C241.67 515.348 244.569 525.004 247.306 534.821C248.756 539.809 250.205 544.798 251.654 549.787L252.137 551.718C252.298 552.362 252.62 553.006 252.942 553.649C253.587 554.776 254.714 555.902 255.841 556.546C257.129 557.19 258.417 557.672 259.867 557.512C260.511 557.512 261.316 557.512 261.96 557.19L263.893 556.707C284.344 551.396 304.312 546.247 323.636 541.258C342.96 536.269 342.799 536.269 351.977 533.855C356.647 532.568 361.156 531.441 365.826 530.315C366.953 529.993 368.081 529.671 369.208 529.51C370.335 529.188 371.462 529.027 372.59 528.384C374.683 527.257 376.132 525.004 376.615 522.59C376.776 521.464 376.615 520.176 376.454 519.05C376.132 517.923 375.81 516.797 375.488 515.831C374.844 513.739 374.2 511.486 373.556 509.394C372.268 505.21 370.979 500.865 369.691 496.842C367.115 488.634 364.699 480.427 362.284 472.702C357.453 457.092 352.944 442.609 348.918 429.413C340.705 403.021 334.103 381.617 329.433 366.812C328.306 363.11 327.178 359.892 326.373 356.995C325.89 355.547 325.568 354.259 324.924 353.133C324.28 352.006 323.314 351.363 322.508 350.719C320.737 349.592 319.127 349.592 318 349.592C317.033 349.592 316.389 349.914 316.389 349.914C316.389 349.914 316.872 349.914 318 349.753C318.966 349.753 320.576 349.753 322.347 350.88C323.153 351.363 324.119 352.167 324.763 353.294C325.407 354.259 325.729 355.708 326.212 357.156C327.017 360.053 328.145 363.271 329.272 366.973C333.781 381.778 340.383 403.181 348.435 429.735C352.461 442.931 356.969 457.414 361.639 473.024C364.055 480.749 366.47 488.956 369.047 497.163C370.335 501.348 371.623 505.532 372.912 509.716C373.556 511.808 374.2 514.061 374.844 516.153C375.166 517.28 375.488 518.406 375.81 519.372C376.132 520.337 376.132 521.464 375.971 522.59C375.649 524.682 374.361 526.774 372.429 527.74C371.462 528.384 370.335 528.544 369.208 528.866C368.081 529.188 366.953 529.51 365.826 529.671C361.317 530.797 356.647 532.085 351.977 533.211C342.638 535.625 333.298 538.039 323.636 540.614C304.312 545.603 284.344 550.753 263.893 556.063C262.604 556.385 261.316 556.868 260.189 556.868C258.901 556.868 257.773 556.546 256.646 555.902C255.519 555.259 254.714 554.454 254.07 553.327C253.425 552.362 253.103 551.074 252.781 549.787C251.332 544.798 249.883 539.809 248.433 534.821C245.535 525.004 242.797 515.187 240.06 505.693C234.585 486.542 229.11 468.035 224.118 450.494C219.126 432.953 214.134 416.217 209.625 400.607C208.497 396.744 207.37 392.882 206.243 389.02C205.921 388.054 205.599 387.089 205.599 386.284C205.599 385.318 205.599 384.353 205.921 383.548C206.404 381.778 207.692 380.169 209.142 379.364C209.947 378.881 210.752 378.559 211.718 378.399C212.684 378.238 213.489 377.916 214.456 377.594C216.227 377.111 217.998 376.628 219.77 376.146C223.312 375.18 226.694 374.214 230.076 373.41C256.807 366.168 278.386 360.375 293.523 356.351C300.93 354.259 306.727 352.811 310.753 351.684C312.685 351.202 314.135 350.719 315.262 350.397C316.228 350.075 316.711 349.914 316.711 349.914L316.389 349.592Z" fill="#263238"/>
<g opacity="0.3">
<path d="M308.659 509.072L373.073 504.083C372.267 508.911 368.564 512.774 364.216 514.866C359.868 517.119 355.037 517.923 350.367 518.728C343.12 520.015 335.713 521.142 328.466 522.429C325.729 522.912 322.669 523.395 320.576 525.326C318.321 527.418 317.516 530.637 315.906 533.051C313.007 537.074 307.854 538.844 303.023 540.292C284.021 545.925 264.859 550.914 245.374 554.615C239.899 555.58 234.423 556.385 228.948 555.259C223.634 553.971 218.481 549.948 217.676 544.637L308.659 509.394V509.072Z" fill="black"/>
</g>
<path d="M311.88 352.489C311.719 352.489 323.797 392.077 339.095 440.839C354.393 489.6 366.954 529.027 367.115 528.866C367.276 528.705 355.198 489.278 339.9 440.517C324.602 391.917 312.041 352.328 311.88 352.489Z" fill="#263238"/>
<path d="M299.481 388.806L308.82 420.113L246.165 438.779L236.826 407.472L299.481 388.806Z" fill="white"/>
<path d="M299.481 462.725C299.481 462.725 315.423 441.643 321.059 436.815C326.856 431.988 350.689 435.85 350.689 435.85L360.995 446.793C360.995 446.793 358.902 455 349.24 450.977L346.502 448.885H335.391L328.467 456.931L350.045 456.61C350.045 456.61 360.673 449.69 363.089 449.69C365.504 449.69 371.301 454.357 367.115 462.564C367.115 462.564 375.166 465.139 372.429 476.082C372.429 476.082 379.192 477.852 373.073 490.887L372.268 492.336C372.268 492.336 379.353 495.715 374.683 503.118C370.013 510.521 358.419 512.773 354.876 512.613C351.333 512.452 287.886 521.785 287.886 521.785L270.656 477.208L299.32 462.886L299.481 462.725Z" fill="#FFBF9D"/>
<path d="M347.63 473.668C347.63 473.668 348.918 473.829 351.011 473.507C353.105 473.185 356.003 472.381 358.741 470.771C361.639 469.162 363.733 467.231 365.182 465.622C366.631 464.012 367.276 462.886 367.115 462.886C366.953 462.725 363.894 467.07 358.258 470.128C352.783 473.185 347.469 473.507 347.469 473.668H347.63Z" fill="#FF9A6C"/>
<path d="M357.774 487.83C357.774 487.83 358.902 487.83 360.673 487.025C362.444 486.381 364.699 485.094 366.953 483.324C369.208 481.553 370.818 479.622 371.945 478.174C373.073 476.726 373.556 475.599 373.395 475.599C373.234 475.438 370.818 479.3 366.309 482.68C361.961 486.059 357.613 487.508 357.774 487.83Z" fill="#FF9A6C"/>
<path d="M357.775 500.704C357.775 500.865 361.801 500.221 366.148 497.807C370.496 495.393 373.234 492.336 373.073 492.175C372.912 492.014 370.013 494.75 365.665 497.003C361.478 499.417 357.614 500.382 357.614 500.543L357.775 500.704Z" fill="#FF9A6C"/>
<path d="M139.576 491.048L208.659 480.266L289.819 464.978L308.821 528.705C308.821 528.705 211.879 557.029 185.309 560.569C156.967 564.271 145.856 560.569 136.999 541.902C131.202 529.993 134.745 506.176 139.737 491.048H139.576Z" fill="#BFDD7D"/>
<path d="M203.827 557.029C203.827 557.029 203.988 557.029 204.311 557.029C204.633 557.029 205.116 556.868 205.76 556.707C207.209 556.385 209.141 555.902 211.557 555.258C216.71 553.971 224.118 551.879 233.457 549.465C252.137 544.476 278.385 537.395 308.66 529.349H308.982V528.866C305.117 516.153 301.091 502.313 296.904 488.151C294.489 480.266 292.234 472.541 289.98 465.139V464.817H289.497C254.07 471.898 222.99 478.013 200.607 482.358C189.496 484.611 180.478 486.381 174.358 487.669C171.299 488.312 168.883 488.795 167.273 489.117C166.468 489.278 165.824 489.439 165.502 489.439C165.18 489.439 164.858 489.439 164.858 489.6C164.858 489.6 165.019 489.6 165.502 489.6C165.985 489.6 166.629 489.439 167.273 489.278C168.883 488.956 171.299 488.473 174.358 487.991C180.639 486.864 189.496 485.094 200.607 483.002C222.99 478.657 254.07 472.541 289.497 465.622L289.014 465.3C291.268 472.702 293.523 480.427 295.777 488.312C299.964 502.635 304.151 516.314 307.854 529.027L308.177 528.544C277.902 536.752 251.654 543.833 232.974 548.982C223.634 551.557 216.388 553.649 211.235 554.937C208.658 555.58 206.726 556.224 205.438 556.546C204.794 556.707 204.31 556.868 203.988 557.029C203.666 557.029 203.505 557.19 203.505 557.19L203.827 557.029Z" fill="#263238"/>
</g>
<defs>
<clipPath id="clip0_54_25">
<rect width="694.076" height="615" fill="white" transform="matrix(-1 0 0 1 694.076 0)"/>
</clipPath>
</defs>
</svg>
