<?xml version="1.0" encoding="UTF-8"?>
<svg xmlns="http://www.w3.org/2000/svg" version="1.1" viewBox="0 0 455.8 435.1">
  <defs>
    <style>
      .cls-1 {
        fill: #e0e0e0;
      }

      .cls-2 {
        fill: #ae7461;
      }

      .cls-3 {
        isolation: isolate;
      }

      .cls-3, .cls-4 {
        opacity: .3;
      }

      .cls-5 {
        fill: #ebebeb;
      }

      .cls-6 {
        fill: #263238;
      }

      .cls-7 {
        fill: #6f4439;
      }

      .cls-8 {
        fill: #fff;
      }

      .cls-9 {
        fill: #fafafa;
      }

      .cls-10 {
        fill: #ffbf9d;
      }

      .cls-11 {
        fill: #f5f5f5;
      }

      .cls-12 {
        fill: #455a64;
      }

      .cls-13 {
        display: none;
      }

      .cls-14 {
        fill: #cae9eb;
      }

      .cls-15 {
        fill: #ff9a6c;
      }
    </style>
  </defs>
  <!-- Generator: Adobe Illustrator 28.6.0, SVG Export Plug-In . SVG Version: 1.2.0 Build 709)  -->
  <g>
    <g id="Calque_1">
      <g id="Calque_1-2" data-name="Calque_1">
        <g id="Background_Complete" class="cls-13">
          <g>
            <path class="cls-11" d="M351.9,425c-1.4-1.2-4.6-5.1-2.2-9.7.9-1.7,2.8-2.5,4.6-3.2,1.7-.7,3.6-1.4,5-2.6,2.7-2.3,3.5-6.2,5.3-9.2,2.1-3.5,5.9-6.2,10-6,4.7.2,8.6,4,10.4,8.4s1.8,9.2,1.9,13.9c0,2.6-.1,5.5-2,7.3-1.8,1.6-4.4,1.6-6.8,1.6-8.5-.3-17.1-.5-25.6-.8"/>
            <path class="cls-1" d="M400.8,354.6h-67.3l12.1,72.3c.5,3.2,2.8,5.6,5.7,6.4h.2c.2,0,.4.1.6.1.4,0,.9.1,1.4.2h30.3c.6,0,1.1,0,1.6-.2,3.5-.5,6.4-3.4,6.8-7.1l5.8-49.8.3-2h0l2.3-19.7v-.4h0l.2.2ZM388.1,400.7h-6.9l.7-21h8l-1.8,21h0ZM390.6,379.7h6.6l-2.5,21h-5.9l1.8-21ZM370.9,424l-.4-18.2h9.9l-.6,18.2h-8.9ZM360.1,405.7h9.7l.4,18.2h-8.7l-1.4-18.2h0ZM360.9,424h-8.1c-.8-4.9-1.8-11.3-2.9-18.2h9.5l1.4,18.2h.1ZM359.7,400.7l-1.6-21h11.1l.5,21h-10ZM370.3,400.7l-.5-21h11.4l-.7,21h-10.2,0ZM369.7,374.7l-.5-19.4h12.8l-.6,19.4h-11.7,0ZM369,374.7h-11.4l-1.5-19.4h12.4l.5,19.4h0ZM357,374.7h-12c-.4-2.7-.8-5.2-1.2-7.5-1.2-7.9-1.7-10.8-2-11.9h13.7l1.5,19.4h0ZM357.4,379.7l1.6,21h-9.9c-.3-2.1-.7-4.3-1-6.4-.8-5-1.6-9.9-2.3-14.5h11.6,0ZM348.4,400.7h-6.5l-3.5-21h6.7c1,6.5,2.2,13.7,3.3,21ZM349.2,405.7c1,6.3,2,12.5,2.9,18.2h-6.2l-3.1-18.2h6.4ZM380.4,424l.6-18.2h6.6l-1.6,18.2h-5.7.1ZM382.1,374.7l.6-19.4h9.3l-1.7,19.4h-8.3.1ZM341.2,355.3c.3,1.4,1.5,9,3.1,19.4h-6.8l-3.3-19.4h7ZM392,424h-5.2l1.6-18.2h5.8l-2.1,18.2h0ZM397.8,374.7h-6.8l1.7-19.4h7.4l-2.3,19.4h0Z"/>
          </g>
          <g>
            <rect class="cls-1" x="295" y="17.8" width="127.2" height="201"/>
            <rect class="cls-11" x="298.4" y="21.5" width="119.9" height="193.9"/>
            <g>
              <rect class="cls-8" x="358.4" y="32.8" width="47.8" height="74.2"/>
              <path class="cls-1" d="M384.8,39.4c0,1-.8,1.8-1.8,1.8s-1.8-.8-1.8-1.8.8-1.8,1.8-1.8,1.8.8,1.8,1.8Z"/>
            </g>
            <g>
              <rect class="cls-8" x="310.2" y="127.6" width="47.8" height="74.2"/>
              <path class="cls-1" d="M336.6,134.2c0,1-.8,1.8-1.8,1.8s-1.8-.8-1.8-1.8.8-1.8,1.8-1.8,1.8.8,1.8,1.8Z"/>
            </g>
            <g>
              <rect class="cls-8" x="309.6" y="32.8" width="40.8" height="57.9"/>
              <path class="cls-1" d="M331.5,38.1c0,.8-.7,1.5-1.5,1.5s-1.5-.7-1.5-1.5.7-1.5,1.5-1.5,1.5.7,1.5,1.5Z"/>
            </g>
            <g>
              <rect class="cls-8" x="365.2" y="131.2" width="43.9" height="24.3" transform="translate(-13.6 44.1) rotate(-6.4)"/>
              <path class="cls-1" d="M388,135.7c0,.8-.7,1.5-1.5,1.5s-1.5-.7-1.5-1.5.7-1.5,1.5-1.5,1.5.7,1.5,1.5Z"/>
            </g>
            <path class="cls-1" d="M351.6,144.6c0,.2-7.5.4-16.8.4s-16.8-.2-16.8-.4,7.5-.4,16.8-.4,16.8.2,16.8.4Z"/>
            <path class="cls-1" d="M351.6,149.9c0,.2-7.5.4-16.8.4s-16.8-.2-16.8-.4,7.5-.4,16.8-.4,16.8.2,16.8.4Z"/>
            <path class="cls-1" d="M351.6,155.2c0,.2-7.5.4-16.8.4s-16.8-.2-16.8-.4,7.5-.4,16.8-.4,16.8.2,16.8.4Z"/>
            <path class="cls-1" d="M351.6,160.5c0,.2-7.5.4-16.8.4s-16.8-.2-16.8-.4,7.5-.4,16.8-.4,16.8.2,16.8.4Z"/>
            <path class="cls-1" d="M351.6,165.8c0,.2-7.5.4-16.8.4s-16.8-.2-16.8-.4,7.5-.4,16.8-.4,16.8.2,16.8.4Z"/>
            <path class="cls-1" d="M351.6,171.1c0,.2-7.5.4-16.8.4s-16.8-.2-16.8-.4,7.5-.4,16.8-.4,16.8.2,16.8.4Z"/>
            <path class="cls-1" d="M351.6,176.4c0,.2-7.5.4-16.8.4s-16.8-.2-16.8-.4,7.5-.4,16.8-.4,16.8.2,16.8.4Z"/>
            <path class="cls-1" d="M403.7,138.9c0,.2-7.4,1.4-16.5,2.7-9.2,1.3-16.6,2.2-16.6,2s7.4-1.4,16.5-2.7c9.2-1.3,16.6-2.2,16.6-2h0Z"/>
            <path class="cls-1" d="M404.3,142.2c0,.2-7.4,1.4-16.5,2.7-9.2,1.3-16.6,2.2-16.6,2s7.4-1.4,16.5-2.7c9.2-1.3,16.6-2.2,16.6-2h0Z"/>
            <path class="cls-1" d="M404.9,145.3c0,.2-7.4,1.4-16.5,2.7-9.2,1.3-16.6,2.2-16.6,2s7.4-1.4,16.5-2.7c9.2-1.3,16.6-2.2,16.6-2Z"/>
            <path class="cls-1" d="M402,48.3c0,.2-8.5.4-18.9.4s-18.9-.2-18.9-.4,8.5-.4,18.9-.4,18.9.2,18.9.4Z"/>
            <path class="cls-1" d="M402,51.5c0,.2-8.5.4-18.9.4s-18.9-.2-18.9-.4,8.5-.4,18.9-.4,18.9.2,18.9.4Z"/>
            <path class="cls-1" d="M402,54.7c0,.2-8.5.4-18.9.4s-18.9-.2-18.9-.4,8.5-.4,18.9-.4,18.9.2,18.9.4Z"/>
            <path class="cls-1" d="M402,57.8c0,.2-8.5.4-18.9.4s-18.9-.2-18.9-.4,8.5-.4,18.9-.4,18.9.2,18.9.4Z"/>
            <path class="cls-1" d="M402,61c0,.2-8.5.4-18.9.4s-18.9-.2-18.9-.4,8.5-.4,18.9-.4,18.9.2,18.9.4Z"/>
            <path class="cls-1" d="M402,64.1c0,.2-8.5.4-18.9.4s-18.9-.2-18.9-.4,8.5-.4,18.9-.4,18.9.2,18.9.4Z"/>
            <path class="cls-1" d="M402,67.3c0,.2-8.5.4-18.9.4s-18.9-.2-18.9-.4,8.5-.4,18.9-.4,18.9.2,18.9.4Z"/>
            <path class="cls-1" d="M402,76.6c0,.2-8.5.4-18.9.4s-18.9-.2-18.9-.4,8.5-.4,18.9-.4,18.9.2,18.9.4Z"/>
            <path class="cls-1" d="M402.2,80c0,.2-8.5.4-18.9.4s-18.9-.2-18.9-.4,8.5-.4,18.9-.4,18.9.2,18.9.4Z"/>
            <path class="cls-1" d="M402.5,83.3c0,.2-8.5.4-18.9.4s-18.9-.2-18.9-.4,8.5-.4,18.9-.4,18.9.2,18.9.4Z"/>
            <path class="cls-1" d="M402.8,86.6c0,.2-8.5.4-18.9.4s-18.9-.2-18.9-.4,8.5-.4,18.9-.4,18.9.2,18.9.4Z"/>
            <path class="cls-1" d="M403,90c0,.2-8.5.4-18.9.4s-18.9-.2-18.9-.4,8.5-.4,18.9-.4,18.9.2,18.9.4Z"/>
            <path class="cls-1" d="M403.3,93.3c0,.2-8.5.4-18.9.4s-18.9-.2-18.9-.4,8.5-.4,18.9-.4,18.9.2,18.9.4Z"/>
          </g>
          <g>
            <rect class="cls-1" x="194.6" y="12.4" width="17.6" height="422.8"/>
            <g>
              <rect class="cls-5" x="19.8" y="30.2" width="174.8" height="404.9"/>
              <rect class="cls-1" x="8.5" y="12.4" width="16.2" height="422.8"/>
              <rect class="cls-1" x="8.5" y="12.4" width="203.6" height="17.8"/>
              <path class="cls-5" d="M212.1,12.4s-.2.3-.6.7c-.5.5-1.2,1.1-1.9,1.8-1.7,1.6-3.9,3.6-6.3,5.9-2.4,2.3-4.6,4.4-6.1,6.1-.8.8-1.3,1.5-1.7,2-.2.2-.3.5-.4.6,0,.1,0,.2-.1.2s0,0,0-.3.1-.4.3-.7c.3-.5.9-1.3,1.6-2.1,1.4-1.7,3.6-3.9,6-6.2s4.7-4.4,6.4-5.8c.8-.7,1.5-1.3,2-1.7s.8-.6.8-.6h0Z"/>
              <path class="cls-5" d="M24.7,30.6c-.1.1-3.8-3.9-8.3-8.9s-8-9.2-7.9-9.3,3.8,3.9,8.3,8.9c4.5,5,8,9.2,7.9,9.3h0Z"/>
              <g>
                <path class="cls-1" d="M35.1,268.5h0c-3.2,0-5.9-2.6-5.9-5.9v-42.3c0-3.2,2.6-5.9,5.9-5.9h0c3.2,0,5.9,2.6,5.9,5.9v42.3c0,3.2-2.6,5.9-5.9,5.9Z"/>
                <path class="cls-5" d="M37.5,255.3c0-1.1-.9-2.1-2-2.1s-2,.9-2,2.1.5,1.5,1.1,1.8v2.4c0,.5.4.9.9.9h0c.5,0,.9-.4.9-.9v-2.4c.7-.3,1.1-1,1.1-1.8h0Z"/>
                <rect class="cls-1" x="35" y="232.7" width="32.4" height="6.5" rx="3.2" ry="3.2"/>
                <path class="cls-5" d="M46.7,239.3h-1c-.8,0-1.6,0-2.7.1-1.1,0-2.5,0-4-.1-.8-.1-1.5-.2-2.3-.6-.8-.4-1.5-.9-2-1.8-.5-.9-.5-1.9,0-2.8.2-.4.5-.8.9-1s.7-.4,1.1-.5c1.5-.5,2.9-.5,4-.5s2,0,2.7.1c.6,0,1,0,1,.1,0,0-1.4,0-3.7.1-1.1,0-2.5,0-3.9.6-.7.2-1.4.6-1.7,1.3s-.2,1.6,0,2.3c.4.7,1.1,1.2,1.8,1.6.7.3,1.5.5,2.2.6,1.5.2,2.8.2,3.9.2,2.3,0,3.7,0,3.7.2h0Z"/>
              </g>
              <rect class="cls-9" x="47.6" y="54.3" width="125.4" height="129.8"/>
            </g>
          </g>
        </g>
        <g id="Character_3">
          <g>
            <g>
              <path class="cls-10" d="M275.1,45.7s8.9,40.8,15.1,51.4c3.2,5.4,30.5,35.2,30.5,35.2l12-20.4-28.2-26.1-18.2-41.8-11.2,1.7h0Z"/>
              <g>
                <path class="cls-10" d="M274.6,34.5c0-.3-1.1-3.6-.4-4.6s2-.9,2-.9c0,0,.5-1.5,1.5-2,1.1-.6,2.6-.2,2.6-.2l.9-.7c1.3-1,2.3-.6,2.3-.6,0,0,1.2.8,2.4.7,1.2-.1,3.1,3.2,4.1,4.8,1.1,1.7,2.4,3.7,1,6.2-1.9,3.5-5,7.6-5,7.6l-10.2,1.9s-1.5-1.1-2-4.8.8-7.3.8-7.3h0Z"/>
                <path class="cls-15" d="M276.2,29s.4.7.8,1.9,1.1,2.8,1.7,4.6c0,.2.2.5.2.7v.5c0,.2-.2.3-.3.3-.4.3-.9.4-1.3.5-.5,0-.9,0-1.2-.3-.3-.2-.6-.5-.8-.8-.4-.5-.6-1-.7-1.3s-.2-.5-.1-.5c0,0,.3.7,1.1,1.7.4.5,1,1,1.7.8.4,0,.8-.2,1.1-.4,0,0,.1,0,.1-.2v-.2c0-.2-.2-.4-.2-.7-.6-1.8-1.2-3.4-1.6-4.6-.4-1.2-.6-1.9-.5-2h0Z"/>
                <path class="cls-15" d="M280.3,26.7s.2.6.5,1.6c.2,1,.6,2.5.9,4h0c.3.9.4,1.8.2,2.5-.1.8-.8,1.3-1.3,1.5-.6.2-1,0-1.3,0s-.5-.2-.5-.2h.5c.3,0,.7,0,1.2-.2s.9-.7,1-1.3c.1-.7,0-1.4-.3-2.2v-.2h0c-.3-1.6-.6-3-.8-4.1-.2-1-.2-1.7-.2-1.7h0v.3Z"/>
                <path class="cls-15" d="M283.5,25.4v2.6h0c.5,1.2,1.2,2.9,1.9,4.8.2.4.3.8.5,1.2h0v.2c-.2.5-.5.8-.8,1.1s-.8.5-1.2.5-.9-.2-1.1-.4c-.3-.3-.4-.5-.6-.8-.3-.5-.4-1-.5-1.3v-.5s.2.7.8,1.7.7,1.1,1.4,1c.7,0,1.3-.7,1.7-1.5v.2c-.2-.4-.3-.8-.5-1.2-.7-1.9-1.4-3.6-1.8-4.9h0c.1-1.6.2-2.5.3-2.5h0v-.2Z"/>
                <g>
                  <path class="cls-12" d="M264.4,50.2l-3.6-.8s-3.8-5.3-5.1-12.9c-1.2-7-1.1-16.1-1.1-16.1L292.5,0l3.2,18.5-31.3,31.8h0Z"/>
                  <path class="cls-8" d="M297.8,27.2V2.4c.1,0-2.9-1.3-2.9-1.3l-39.1,21.3s-1.3,16.1,5.6,26.3l2.5.6,33.9-21.9h0v-.2Z"/>
                  <path class="cls-12" d="M264.4,50.2l34.8-22.4s-.6-21.9,2.4-25.8l-41.6,24s-3.9,6.7,4.5,24.1h0Z"/>
                  <path class="cls-6" d="M295.8,1.7s-.5.4-1.5.9c-1,.6-2.4,1.4-4.1,2.3-3.5,2-8.2,4.6-13.5,7.5s-10.1,5.5-13.6,7.4c-1.7.9-3.1,1.6-4.1,2.2-1,.5-1.5.8-1.6.7s.5-.4,1.5-.9c1-.6,2.4-1.4,4.1-2.3,3.5-2,8.2-4.6,13.5-7.5s10.1-5.5,13.6-7.4c1.7-.9,3.1-1.6,4.1-2.2,1-.5,1.5-.8,1.6-.7Z"/>
                  <path class="cls-6" d="M297.5,2.5s-.5.4-1.5.9c-1,.6-2.4,1.4-4.1,2.3-3.5,1.9-8.2,4.6-13.5,7.5s-10.1,5.5-13.6,7.4c-1.7.9-3.1,1.6-4.1,2.2-1,.5-1.5.8-1.6.7s.5-.4,1.5-.9c1-.6,2.4-1.4,4.1-2.3,3.5-2,8.2-4.6,13.5-7.5s10.1-5.5,13.6-7.4c1.7-.9,3.1-1.6,4.1-2.2,1-.5,1.5-.8,1.6-.7Z"/>
                </g>
                <g>
                  <path class="cls-10" d="M286,44.6s5-7.3,5-7.6-2-8-3.4-9.4-3.3-3-3.3-3c0,0-2,.5-1,3.5s2.3,6,2.3,6l-1.7,2.5s-6.5,1.8-6,8.1"/>
                  <path class="cls-15" d="M278,44.8v-1.7c0-.4.1-.8.3-1.3.3-.9.9-2,1.9-2.9s2.3-1.8,3.9-2.3h-.1c.5-.7,1.1-1.6,1.7-2.5v.2c-.6-1.4-1.2-2.9-1.8-4.5-.3-.8-.6-1.6-.8-2.5v-1.4c.1-.5.4-.9.9-1.2.1,0,.3-.2.5-.2h.1c.6.5,1.2,1.1,1.8,1.6.3.3.6.5.9.8s.6.5.8.8c.5.7.8,1.4,1,2.1.3.7.5,1.4.7,2,.4,1.3.8,2.6,1.1,3.8,0,.3.1.6.2.9v.6c0,.2-.2.3-.2.4-.3.5-.6,1-.9,1.4-1.2,1.8-2.2,3.2-2.9,4.1-.3.5-.6.8-.8,1.1-.2.2-.3.4-.3.4,0,0,0-.2.2-.4.2-.3.4-.7.7-1.2.7-1,1.6-2.5,2.8-4.2.3-.5.6-.9.9-1.4l.2-.4h0c-.1,0,0,0,0,0h0v-.2c-.1-.3-.2-.6-.3-.9-.3-1.2-.7-2.5-1.1-3.8-.2-.7-.5-1.3-.7-2-.3-.7-.6-1.4-1-2-.2-.3-.5-.5-.8-.8s-.6-.5-.9-.8c-.6-.5-1.2-1.1-1.8-1.6h.2s-.2.1-.3.2c-.7.4-.9,1.4-.7,2.1.1.8.5,1.6.8,2.4.6,1.6,1.2,3.1,1.8,4.4h0v.2c-.6.9-1.2,1.7-1.7,2.5h0c-1.5.5-2.8,1.3-3.8,2.2s-1.5,1.9-1.9,2.8c-.6,1.8-.4,2.9-.5,2.9h0v.3Z"/>
                </g>
              </g>
              <path class="cls-14" d="M290.9,54.5c5.6,8.3,7.6,19,13.8,26.8,3,3.7-.1,3.1,3.1,5.9,6.3,5.5,17.7,15,23.1,20.5,1.7,1.7,7.4-1.8,10.3,2.8,1.1,1.7-6.9,5.5-7.6,7.4-3.4,8.7-1.3,19.4-4.7,28.1-9.1-8-21.7-19.8-29.6-28.8s-13.4-17.5-17-28.8c-3.1-9.9-4.7-16.4-6.5-25.7l1.2-2.7-.8-3.8,13-5.3,1.6,3.6h.1Z"/>
            </g>
            <path class="cls-12" d="M425.7,124.5c-1.8-3.1-9.3-8.8-14.5-10.7-4.3-1.6-27-4.3-29.7,2.5l-1,53.7c-1.5,5.7-3.1,11.4-3.3,17.3-.2,5.8,1,11.8,4.6,16.5,3.1,4.1,8.1,7.2,13.6,8s11.5-.6,15.8-3.9c5.7-4.4,8-11.4,9.5-18,2.9-12.6,4.1-25.4,5.3-38.1.6-6.4,1.2-12.7,1.2-19.1s0-5.7-1.5-8.2h0Z"/>
            <g>
              <path class="cls-12" d="M418.7,296.8l22-3.5s11,21.1,15.1,20.9l-5.3-42.8-34.4,4.1,2.7,21.4h-.1Z"/>
              <path class="cls-1" d="M437.2,280.2c.1-.9,1-1.5,1.9-1.5s1.6,1,1.5,1.8c-.1.9-1.1,1.7-2,1.5s-1.6-1.2-1.3-2.1"/>
              <path class="cls-6" d="M450.5,271.3l-3.5.5,6.4,40.9s1.1,1.8,2.4,1.4l-5.3-42.8Z"/>
              <path class="cls-8" d="M440.6,294c.2,0,.2-1.1.7-2.2s1.4-1.8,1.2-2c0-.2-1.3.3-1.9,1.6-.6,1.4-.2,2.6,0,2.5h0Z"/>
              <path class="cls-8" d="M443,298.2c.2,0,.5-.9,1.2-1.8.8-.8,1.7-1.1,1.7-1.4s-1.2-.2-2.2.9c-1,1-.9,2.3-.7,2.2h0Z"/>
              <path class="cls-8" d="M448.7,300.1c0-.2-1.1-.4-2.1.3-1.1.7-1.4,1.7-1.2,1.8.2.1.7-.6,1.6-1.2s1.8-.7,1.8-.9h0Z"/>
              <path class="cls-8" d="M435.5,294.2c.2-.1-.2-1-.3-2.2,0-1.2.2-2.2,0-2.2-.2-.1-.8.9-.7,2.3,0,1.4.9,2.3,1,2.2h0Z"/>
            </g>
            <g>
              <path class="cls-12" d="M384.6,302.8l22-3.5s11,21.1,15.1,20.9l-5.3-42.8-34.4,4.1,2.7,21.4h-.1Z"/>
              <path class="cls-1" d="M403.1,286.3c.1-.9,1-1.5,1.9-1.5s1.6,1,1.5,1.8c-.1.9-1.1,1.7-2,1.5s-1.6-1.2-1.3-2.1"/>
              <path class="cls-6" d="M416.3,277.4l-3.5.5,6.4,40.9s1.1,1.8,2.4,1.4l-5.3-42.8Z"/>
              <path class="cls-8" d="M406.4,300c.2,0,.2-1.1.7-2.2s1.4-1.8,1.2-2c0-.2-1.3.3-1.9,1.6-.6,1.4-.2,2.6,0,2.5h0Z"/>
              <path class="cls-8" d="M408.9,304.3c.2,0,.5-.9,1.2-1.8.8-.8,1.7-1.1,1.7-1.4s-1.2-.2-2.2.9c-1,1-.9,2.3-.7,2.2h0Z"/>
              <path class="cls-8" d="M414.5,306.2c0-.2-1.1-.4-2.1.3-1.1.7-1.4,1.7-1.2,1.8.2.1.7-.6,1.6-1.2s1.8-.7,1.8-.9h0Z"/>
              <path class="cls-8" d="M401.4,300.3c.2-.1-.2-1-.3-2.2,0-1.2.2-2.2,0-2.2-.2-.1-.8.9-.7,2.3,0,1.4.9,2.3,1,2.2h0Z"/>
            </g>
            <g>
              <g>
                <path class="cls-6" d="M327.5,209.3s-13.8,39.5-15.9,47.4c-2.1,7.9-8,28.7-1.9,38s19.3,8.2,25.1,6.2c5.8-2.1,49.6-27.8,49.6-27.8l-.7-14.5-38.7,5.4,8.3-37.7,1.2-21.8-27.1,4.7h.1Z"/>
                <path class="cls-6" d="M346.1,231.8l3.1,3.6s-9,39.7-8.6,48.2c.3,7-.1,17.6,11.9,22.3,4.6,1.8,9.6,2.1,14.5,1.1l17-2.2,48.3-7.5-2.6-25.5-51.6,1.1,9.2-26.1s5.2-12.4,6.6-21.1c1.4-8.8,4-17.4,3.4-17.6-2.4-.8-7-9.2-7-9.2l-42.3-.7-3.7,23.6,1.8,10h0Z"/>
                <path class="cls-12" d="M387.3,246.9s-.1.6-.4,1.6c-.4,1.1-.8,2.5-1.4,4.2-1.2,3.6-2.8,8.4-4.6,13.8-.9,2.7-1.8,5.2-2.6,7.6-.8,2.3-1.7,4.4-2.4,6.1-.8,1.7-1.5,3-2,4-.5.9-.8,1.4-.9,1.4,0,0,.2-.5.7-1.5s1.1-2.3,1.8-4c.7-1.7,1.5-3.8,2.3-6.1.8-2.3,1.6-4.9,2.6-7.6,1.8-5.4,3.5-10.3,4.8-13.8.6-1.7,1.1-3.1,1.5-4.2.4-1,.6-1.5.6-1.5h0Z"/>
                <path class="cls-12" d="M340.7,285.9s-.4.8-1.3,1.9-2.1,2.6-3.6,4.2c-1.5,1.5-3,2.9-4.1,3.7s-1.9,1.4-1.9,1.3c-.1-.1,2.6-2.3,5.6-5.4s5.1-5.9,5.3-5.8h0Z"/>
                <path class="cls-12" d="M345.5,301.4s-.2-.1-.6-.4-.8-.8-1.3-1.5c-1-1.5-2-3.9-2.6-7-.1-.8-.2-1.6-.3-2.5s-.2-1.7-.3-2.7c0-.9-.1-1.9-.1-2.9v-3c.2-4.2.8-8.7,1.6-13.4,1.8-9.5,3.9-17.9,5.2-24,.7-3,1.2-5.5,1.6-7.3.2-.8.3-1.5.5-2,.1-.4.2-.7.2-.7v.7c0,.5-.2,1.2-.4,2-.3,1.7-.8,4.2-1.5,7.3-1.3,6.1-3.3,14.6-5.1,24-.9,4.7-1.5,9.2-1.7,13.4v5.9c0,.9.1,1.8.2,2.6.1.9.2,1.7.3,2.4.5,3.1,1.5,5.5,2.4,7s1.8,2.1,1.7,2.1h.2Z"/>
                <path class="cls-12" d="M429.6,271.9h-2c-1.4,0-3.2,0-5.5.1-4.7.1-11,.3-18,.5s-13.4.4-18,.4h-7.5,2c1.4,0,3.2,0,5.5-.1,4.7-.1,11-.3,18-.5s13.4-.4,18-.4h7.5Z"/>
              </g>
              <path class="cls-12" d="M347.7,218.5c.2,0,.2,3.2.8,7,.5,3.9,1.3,6.9,1.1,6.9,0,0-.3-.7-.7-2-.3-1.2-.7-3-1-4.9s-.4-3.7-.4-5,0-2.1.1-2.1h.1Z"/>
            </g>
            <g>
              <path class="cls-14" d="M395.1,87.6c-2.5-3.5-6.8-5.4-11-5.8-4.3-.4-8.5.6-12.6,1.8-11.1,3.5-21.4,9.8-29.7,17.9-1.5,1.5-3.1,3.2-3.5,5.3-.4,2.1.7,4.7,2.8,5l26.6,9.3c4.8-.5,9.6-1,14.1-2.4s8.9-3.9,11.8-7.7c2.9-3.7,4.1-8.5,4.2-13.2,0-3.6-.6-7.3-2.7-10.3h0Z"/>
              <path class="cls-14" d="M346.7,107.5c-.8.3-17.4,4.7-19,7.6-1.7,2.9-4.9,57-4.5,60.5.2,1.7,1.1,5.7,1.9,9.2,1,4,0,6.1-2.2,9.8-2.4,4.1-4.1,5.7-3.6,10.6.2,1.9,2.6,6.7,3.2,8.8l-1.7,5.5s16.4.3,42.9,1.1c26.5.9,32.3,1.8,32.3,1.8v-6s3.5-7.5,4.8-17.1c.9-6.4-8.8-26.8-8.8-26.8l8.5-48.3.8-7.5s-4.4-5.7-12.7-8.3-41.9-.6-41.9-.6h0v-.3Z"/>
              <g class="cls-4">
                <path d="M359.3,158.3c1.9,4,4.2,8.5,8.4,9.8,2,.6,4.1.4,6.2.6,3.6.4,6.9,2.1,10.2,3.5,5.3,2.3,10.9,4.1,16.6,5.3,3.2.7,6.6,1.1,9.8.4,3.2-.8,6.2-3,7.1-6.2l-58.3-13.5h0Z"/>
              </g>
              <path class="cls-6" d="M402.6,118.2c-.1,0-2.1-3-5.8-5.7-3.6-2.7-7.2-3.8-7.1-3.9,0,0,.9,0,2.3.7s3.3,1.5,5.1,2.9c1.8,1.4,3.3,2.9,4.2,4.1.9,1.2,1.3,2,1.3,2.1h0v-.2Z"/>
              <path class="cls-12" d="M366.3,148.5l17.2-29.6,7.5-10.1c-4-2.2-7.5-3.4-12-2.3-.3.7-3.3,3.7-6.7,9.8-7.9,14.2-14.4,29.3-14.4,29.3l.9,11.5,41.9,48.1,3.1-12.1-16.1-12s-18.9-19.1-18.7-19.9c.2-.8-2.7-12.8-2.7-12.8h0Z"/>
              <path class="cls-6" d="M326.7,124.4c.1,0-.4,6.9-1.2,15.3-.8,8.4-1.5,15.3-1.7,15.3s.4-6.9,1.2-15.3,1.5-15.3,1.7-15.2h0Z"/>
              <path class="cls-6" d="M347.3,123.1s-.7-.5-1.7-1.6-2.2-2.6-3.5-4.4c-1.2-1.8-2.2-3.6-2.8-4.9s-.9-2.1-.9-2.2c.1,0,1.7,3.1,4.1,6.7s4.9,6.2,4.8,6.3h0Z"/>
              <path class="cls-6" d="M379.5,105.6s-.2.4-.8,1c-.5.6-1.3,1.5-2.4,2.6-2.1,2.1-5.3,4.7-9,7.3-3.8,2.5-7.4,4.5-10.1,5.8-1.4.6-2.5,1-3.3,1.3-.8.2-1.2.4-1.2.3,0,0,.4-.2,1.2-.5.8-.3,1.9-.8,3.2-1.4,2.6-1.3,6.2-3.3,9.9-5.8,3.7-2.6,6.9-5.1,9.1-7.1s1.9-1.8,2.5-2.4.9-.9.9-.9h0v-.2Z"/>
              <path class="cls-6" d="M337.8,178.6v.9c0,.6-.1,1.3-.4,2.3-.4,1.9-1.3,4.6-2.8,7.2-1.5,2.6-3.3,4.7-4.8,6-.7.7-1.4,1.1-1.8,1.5-.5.3-.7.5-.7.4,0,0,.9-.8,2.3-2.2s3.1-3.4,4.6-6,2.4-5.1,2.9-7,.6-3.1.7-3.1h0Z"/>
              <path class="cls-6" d="M378.1,197.2s-.8-.6-1.9-1.9c-1.1-1.2-2.6-3-3.8-5.3-1.1-2.3-1.5-4.7-1.3-6.4,0-.8.3-1.5.5-1.9s.3-.6.3-.6c0,0-.3,1-.4,2.6s.3,3.9,1.4,6.1c1.1,2.2,2.5,4,3.6,5.3,1,1.3,1.7,2.1,1.6,2.1h0Z"/>
              <path class="cls-6" d="M390.4,215h-.7c-.5,0-1.1,0-1.9-.2-1.7-.1-4-.4-6.9-.6-5.9-.5-13.9-1-22.9-1.3s-17.1-.3-22.9-.2c-2.9,0-5.2.1-7,.1h-2.6.7c.5,0,1.1,0,1.9-.1,1.6-.1,4-.2,7-.3,5.9-.2,14-.3,23,0s17.1.9,22.9,1.5,5.3.6,6.9.8c.8.1,1.4.2,1.9.2s.6.1.6.1h0Z"/>
              <path class="cls-6" d="M366.5,177.1s-1.5-.3-3.9-.9c-2.4-.5-5.7-1.1-9.4-1.4-3.7-.2-7.1-.1-9.5,0s-3.9.4-4,.3c0,0,.4-.1,1-.3.7-.1,1.7-.3,2.9-.4,2.4-.3,5.9-.5,9.6-.2,3.8.3,7.1.9,9.5,1.5,1.2.3,2.1.6,2.8.8.6.2,1,.4,1,.4h0v.2Z"/>
              <path class="cls-14" d="M401.3,116.4s17.3,21.2,19.9,26,7.7,16.3,6.3,21.3c-1.4,5-4.9,9.7-10,11.1s-22-2.7-22-2.7c0,0,1.6-16.7,2.2-16s4.5-1.2,4.5-1.2l-9.5-9.1-.7-15.3,9.3-14.2h0Z"/>
              <path class="cls-6" d="M417.9,155.2c0,.2-3.6-1.1-8.3-1-4.6,0-8.2,1.5-8.2,1.3,0,0,.8-.5,2.3-.9s3.6-.9,5.9-.9,4.5.3,6,.7,2.4.8,2.3.9h0Z"/>
              <path class="cls-6" d="M400.1,127.6v1c0,.6-.2,1.6-.4,2.7-.3,2.3-.9,5.4-1.5,8.8-.7,3.4-1.4,6.5-1.9,8.8-.3,1.1-.5,2-.7,2.6s-.3,1-.3.9c0,0,0-.4.1-1,.1-.8.3-1.6.5-2.7.5-2.4,1.1-5.4,1.7-8.8.6-3.4,1.2-6.4,1.7-8.8.2-1,.4-1.9.5-2.7.1-.6.2-1,.3-1h0v.2Z"/>
            </g>
            <g class="cls-4">
              <path d="M384.3,103.7c-.5-.5-1.4-.5-2-.3-.7.2-1.3.7-1.8,1.2-6.6,6.4-11.7,11.8-21.8,16.6h0c7.4-2.2,18.4-6.9,24.7-13.6.5-.6,1-1.2,1.3-1.9.2-.7.2-1.6-.4-2.1h0Z"/>
            </g>
            <g>
              <path class="cls-10" d="M374.7,152s-1.5-7.3-2-8.3c-.6-1-11.4-2.8-11.4-2.8,0,0-5.8.2-5.7,2.6.1,2.4,1.3,2.9,1.3,2.9,0,0-1.9,1.3-1.6,2.7s.8,1.7.8,1.7c0,0-1.4.6-1,2.1s1.7,2.6,1.7,2.6c0,0-.7,1.1.4,2.2,1.1,1.1,3.2,1.5,3.2,1.5,0,0,4.7,5.6,6.7,5.8s8.3,0,8.3,0l20.2,6.6,1.7-14.3-22.6-5.3h0Z"/>
              <path class="cls-15" d="M362.3,146.2c0,.1-1.3.3-2.8.4-1.6,0-2.8,0-2.8-.2s1.3-.3,2.8-.4c1.6,0,2.8,0,2.8.2Z"/>
              <path class="cls-15" d="M360.9,150.9c0,.1-1,.3-2.3.3s-2.3,0-2.3-.2,1-.3,2.3-.3,2.3,0,2.3.2Z"/>
              <path class="cls-15" d="M361.2,154.8c0,.1-1,.4-2.2.5s-2.2.1-2.2,0,1-.4,2.2-.5,2.2-.1,2.2,0Z"/>
              <path class="cls-15" d="M362,153.4s-.2-.1-.3-.4,0-.8.3-1.1.6-.6.9-.7h.5c0,.1-.6.3-1,.9-.4.6-.3,1.2-.4,1.3h0Z"/>
              <path class="cls-15" d="M364.6,149.7s-.2,0-.2-.4,0-.6.2-1c.2-.3.5-.5.8-.6h.4c0,.1-.5.4-.8.9s-.3,1-.4,1h0Z"/>
              <path class="cls-15" d="M366.7,144.7c-.1,0-.3-.5,0-1.1.4-.5.9-.6,1-.4,0,.1-.3.4-.5.7-.3.4-.3.7-.5.8Z"/>
              <path class="cls-15" d="M374.5,156.4c-.1,0-.2-1-.2-2.2s.2-2.2.3-2.2.2,1,.2,2.2-.2,2.2-.3,2.2Z"/>
            </g>
            <g>
              <g class="cls-4">
                <path d="M379.3,87.6c-.6-.3-1.3-.2-2,0-1.8.3-3.6.8-5.3,1.5-.9.4-1.8.9-2.2,1.8-.3.6-.3,1.3-.3,2,0,4.2.2,8.4.2,12.7l1.2-1.4c3.4-3.4,6.2-7.4,8.6-11.6.4-.8.8-1.6.9-2.5s-.3-1.9-1.1-2.3h0Z"/>
              </g>
              <path class="cls-6" d="M369.4,90.6s.1-.2.4-.4c.3-.2.7-.6,1.4-1,1.2-.8,3.2-1.6,5.8-1.9.6,0,1.3-.2,2.1,0,.7,0,1.5.7,1.7,1.5.3,1.7-.7,3.2-1.6,4.6-1.8,2.9-3.9,6-6.4,9.1-5,6.1-10.3,10.9-14.5,14-2.1,1.6-3.8,2.7-5,3.5-.6.3-1,.6-1.4.9-.3.2-.5.3-.5.3,0,0,.1,0,.5-.4.4-.2.8-.6,1.4-.9,1.2-.8,2.9-2,4.9-3.6,4-3.2,9.4-7.9,14.3-14,2.5-3.1,4.6-6.1,6.4-9,.4-.7.9-1.4,1.2-2.1.3-.7.5-1.5.3-2.1-.1-.7-.7-1.1-1.4-1.2-.6,0-1.3,0-1.9,0-2.5.3-4.5,1.1-5.7,1.8-1.2.7-1.9,1.2-1.9,1.2h0v-.3Z"/>
              <g>
                <g>
                  <g>
                    <path class="cls-10" d="M352.2,52.9h-1c-10,1-17.7,9.4-17.6,19.4,0,9.3,0,17.8.6,22.8,1,10.3,11.6,11.4,11.6,11.4,0,0,.2,4.2.4,7.2l4,8.4c7.1-5.2,15-11.7,19.5-16.7l-.4-33.1c0-10.8-6.3-19.8-17.1-19.4h0Z"/>
                    <path class="cls-15" d="M345.8,106.4s6.5-.2,13.1-5.2c0,0-2.5,8-12.9,8l-.2-2.9h0Z"/>
                    <path class="cls-6" d="M338.8,80.7c0,.8.7,1.4,1.5,1.4s1.4-.7,1.4-1.5-.7-1.4-1.5-1.4-1.4.7-1.4,1.5Z"/>
                    <path class="cls-6" d="M336.2,76.7c.2.2,1.2-.8,2.8-.9,1.6-.2,2.8.6,3,.3,0,0-.1-.4-.7-.8-.5-.3-1.4-.6-2.4-.5s-1.8.5-2.2.9c-.5.4-.6.8-.5.9h0Z"/>
                    <path class="cls-6" d="M353,80c0,.8.7,1.4,1.5,1.4s1.4-.7,1.4-1.5-.7-1.4-1.5-1.4-1.4.7-1.4,1.5Z"/>
                    <path class="cls-6" d="M351.8,75.7c.2.2,1.2-.8,2.8-.9,1.6-.2,2.8.6,3,.3,0,0-.1-.4-.7-.8-.5-.3-1.4-.6-2.4-.5s-1.8.5-2.2.9c-.5.4-.6.8-.5.9h0Z"/>
                    <path class="cls-6" d="M347.2,88.3s-1-.2-2.6-.2-.8,0-.9-.3,0-.7.2-1.2c.3-1,.6-2.1.9-3.2,1.3-4.5,2.2-8.2,2-8.3-.2,0-1.4,3.6-2.6,8.1-.3,1.1-.6,2.2-.9,3.2-.1.5-.3,1,0,1.6.1.3.5.5.7.5h.7c1.6,0,2.6,0,2.6-.2h-.1Z"/>
                    <path class="cls-6" d="M350.8,70.7c.2.4,1.8-.2,3.6-.4,1.9-.2,3.5,0,3.6-.5,0-.2-.3-.5-1-.8s-1.7-.4-2.8-.3-2.1.5-2.7,1c-.6.4-.9.8-.8,1h0Z"/>
                    <path class="cls-6" d="M335.7,72c.4.3,1.6,0,3.2-.3,1.5-.2,2.9,0,3.2-.4.1-.2-.1-.5-.7-.8s-1.6-.5-2.6-.4-2,.5-2.5.9-.7.8-.5,1h-.1Z"/>
                    <path class="cls-10" d="M369.1,80c.2,0,6.9-2.7,7.3,4.3.4,7.1-6.8,6-6.8,5.8s-.5-10.2-.5-10.2h0Z"/>
                    <path class="cls-15" d="M371.6,87.3s.1,0,.3.2.6,0,.9,0c.7-.3,1.3-1.5,1.3-2.8s-.2-1.2-.4-1.7c-.2-.5-.6-.8-1-.9-.4,0-.6.2-.7.4v.4s-.2,0-.1-.4c0,0,0-.3.2-.5s.4-.2.7-.2c.5,0,1.1.5,1.4,1s.5,1.2.5,1.9c0,1.4-.6,2.8-1.6,3.2s-.9,0-1.1,0c-.2-.2-.3-.3-.2-.3h0l-.2-.2Z"/>
                  </g>
                  <g>
                    <path class="cls-6" d="M318.9,63.7c0-.4.4-.8.7-1,.8-.5,1.7-.5,2.6-.6,2.2-.2,4.4-.9,6.4-2-.7-.3-1.4-.7-2-1.2-1.2-1.1-2-2.8-1.5-4.3,0-.3.2-.6.5-.7.5-.2.9.3,1.2.6,1.1,1.1,2.1,1.6,3.7,1.3,1-.2,1.9-.4,2.6-1h0c.4-.4.7-.8,1-1.2h0c2.5-2.8,4.7-4.8,7-5.8,3.4-1.6,9.1-2.5,12.8-1.8,3.6.7,7,3.5,7.8,7.1,1.9-1.8,5-2,7.5-1.1h0c2.8.8,4.5,3.6,5.5,6.3,0,.2.1.3.1.5,1,1.4,2.3,2.6,3.9,3.4.3,0,.6.3.6.6s-.2.6-.4.8c-.6.5-1.4.9-2.2,1,.3.7.6,1.3,1,1.9.3.5.7,1.1.5,1.7-.2.4-.7.6-1.2.6s-.9-.3-1.3-.5c.4.7.7,1.4,1,2.1-1,.2-2,.2-3,0-.4,2.6-.6,7.5-1.1,9.3-1.9,0-2.3,0-3.3.3-1.2.5-.6,2.6-2.2,2.1-.8-.3-2.2-3.3-2.6-4.1-2.1-5.4-3.1-11.2-2.7-17-1.2-1.1-2.6-2-4.2-2.7h.1c-3-.7-6.3-1.5-8.9,0-2.1,1.2-3.2,3.5-4.7,5.3-2.8,3.5-6.1,5.5-10.6,5.9-.2,3.1,0,8.2,0,11.2l-2.8-5.7h0c-.2-.3-.4-.6-.6-1h0c-.3-.7-.6-1.2-.9-1.7h0c-1.5,1.5-3.9-.5-2.8-2.3.2-.3.5-.7.8-.9-.7.7-1.7,1.1-2.7.9s-1.8-1.2-1.7-2.1c0-.7.5-1.3,1-1.6-1.3.2-2.6,0-3.7-.6-.8-.4-1.5-1-1.3-1.9h.1Z"/>
                    <path class="cls-12" d="M358.6,54.4s.5.2,1.1.9c.6.6,1.4,1.8,1.8,3.3.2.8.4,1.7.4,2.6v3.1c0,1.1,0,2.2.1,3.4,0,.6.2,1.2.3,1.8.2.6.4,1.2.8,1.7.4.4,1,.5,1.5.4s1-.4,1.3-.8c.6-.8.7-1.8.8-2.7h-.2c.4.8.8,1.6,1.4,2.1.6.6,1.3.9,2.1,1,.4,0,.8,0,1-.2.3-.2.5-.5.7-.8.1-.3.2-.6.2-.9s-.2-.6-.4-.8h-.1c.9,1,1.7,1.4,2.3,1.6s.5.2.7.2h.2-.2c-.2,0-.4,0-.7-.3-.6-.3-1.4-.7-2.2-1.6h-.1c.4.4.4,1.1.2,1.6-.1.3-.3.5-.6.7-.3.2-.6.2-1,.2-.7,0-1.4-.4-1.9-.9-.5-.6-.9-1.3-1.3-2.1l-.2-.3v.4c-.2.9-.3,1.8-.8,2.6-.3.3-.7.6-1.1.7-.5,0-.9,0-1.3-.3-.4-.4-.6-1-.8-1.6-.2-.6-.3-1.2-.3-1.7-.1-1.2-.1-2.3-.1-3.4v-3.1c0-1-.2-1.8-.5-2.6-.4-1.6-1.2-2.7-1.9-3.4-.7-.6-1.2-.8-1.2-.8h0Z"/>
                    <path class="cls-12" d="M327.2,66.3h0s.2,0,.3.2c.1,0,.3.2.5.3.2,0,.4.2.6.3,1,.4,2.5.8,4.5.5,1.9-.2,4.1-1,6.1-2.7,2-1.6,3.7-3.9,5-6.5.7-1.3,1.2-2.6,1.8-3.8.6-1.2,1.3-2.4,2.1-3.3.8-.9,1.8-1.6,2.9-2,.5-.2,1-.2,1.6-.3.5,0,1,0,1.5.2.9.2,1.7.7,2.2,1.2.6.5,1,1,1.3,1.5.5.9.6,1.5.6,1.5h0v-.4c0-.3-.2-.7-.5-1.1-.3-.5-.7-1-1.2-1.5s-1.3-1-2.3-1.2c-.5,0-1-.2-1.5-.2s-1.1,0-1.6.3c-1.1.4-2.1,1.1-3,2s-1.6,2.1-2.2,3.3-1.1,2.5-1.8,3.8c-1.3,2.6-3,4.8-4.9,6.4s-4.1,2.4-6,2.7c-1.9.2-3.4,0-4.4-.5-1-.4-1.5-.7-1.5-.7h-.1Z"/>
                    <path class="cls-12" d="M326,61.8s.1,0,.4.2c.2,0,.6.3,1.1.5s1.1.3,1.8.5c.7,0,1.4.2,2.2.2s1.5,0,2.2-.3,1.3-.3,1.7-.6c.5-.2.9-.4,1.1-.5.2-.2.4-.2.4-.3,0,0-.6.3-1.5.7s-1.1.4-1.7.5c-.7,0-1.4.2-2.2.3-.8,0-1.5,0-2.2,0s-1.3-.2-1.8-.4c-1-.3-1.5-.6-1.6-.6h.1Z"/>
                  </g>
                </g>
                <path class="cls-15" d="M354.1,89.2c0,0-.2-.3-.3-.3-.2,0-.4,0-.6,0-1.3.7-2.5,1.5-3.8,2.2l-.6.3c.4,1.3,1.5,2.3,2.8,2.6s2.8-.6,3.1-1.8c.3-1,0-2.1-.6-3.1h0Z"/>
                <path class="cls-6" d="M352,94.2s.7,0,1.6-.9c.4-.4.8-.9.9-1.6s0-1.5-.4-2.2c-.1-.2-.3-.3-.4-.5h.3c-2.8,1.5-5.1,2.6-5.2,2.5,0,0,2.1-1.4,4.9-2.9h.3c.2.2.3.4.5.6.5.8.7,1.8.5,2.6-.2.8-.7,1.4-1.1,1.8-1,.8-1.8.7-1.8.6h-.1Z"/>
              </g>
            </g>
            <g class="cls-4">
              <path d="M324,219.3c3.4,2.5,7.5,3.9,11.8,4.3s8.4,0,12.6-.3c15.1-.9,30.5.5,45.6,1.7l.6-2.9-28.9-1.6-41.8-1.1h0Z"/>
            </g>
            <g class="cls-4">
              <path d="M333.2,205l.3.3c4.4,2.7,9.8,3.1,14.9,3.5,4.1.3,8.3.6,12.5,0s8.2-2,11.3-4.8c-12.7,3.1-26.1,3.4-39,.9h0Z"/>
            </g>
          </g>
        </g>
        <g id="Character_2">
          <g>
            <g>
              <path class="cls-2" d="M251.8,171.4c.1,1.3,6.5,12.3,10.6,24.8l6.2-31.5h12.1s-1.9,31.8-4,41.6c-2.5,11.9-10.7,15.4-17.5,12.8-6.8-2.7-13.3-16.4-13.3-16.4l-5.8-14,11.7-17.2h0Z"/>
              <g>
                <path class="cls-2" d="M266.7,132.2s-3.2-1.5-2.4,1.9c.7,3.4,3.5,13.4,3.5,13.4l.9,23,11.1-4.2c1.2-.5,2-1.6,2.1-2.9l.4-6.9s3.3-5.9,2.6-6.9-1.3-.8-1.3-.8c0,0,0-1.9-.7-3.5s-2.2-1.1-3.1-.5-1.6,2.8-1.6,2.8l-1.1-1.4s2.7-14.4,2.5-14.7-1.8-2.1-2.8.5-2.8,12.7-3.5,13.2-2.1.3-2.2-.8-4.2-11.9-4.2-11.9h0l-.2-.3Z"/>
                <path class="cls-7" d="M283.4,148.7s.1,1-.1,2.5c-.1.8-.4,1.6-.8,2.6-.2.5-.5,1-1.1,1.3-.3.1-.7.1-1,0s-.6-.4-.8-.6c-.4-.6-.4-1.2-.4-1.8v-1.6c0-.9.1-1.9.1-2.7.1-1.5.2-2.4.3-2.4s.1.9.1,2.5v4.3c0,.5,0,1.1.3,1.5s.8.6,1.1.5c.4-.2.7-.6.9-1,.4-.9.7-1.8.9-2.5.4-1.5.4-2.4.5-2.4h0v-.2Z"/>
                <path class="cls-7" d="M282.4,156c0,.1-.6.1-.9-.4-.3-.6,0-1.1.1-1,.1,0,.1.4.3.7.2.3.5.5.4.6h.1Z"/>
                <g>
                  <path class="cls-2" d="M269,159.9c1-2.9,3.2-5.3,5.5-7.3s5-3.7,7.3-5.8c.5.6.7,1.4.6,2.2s-.5,1.5-.9,2.2c-1.1,1.9-2.4,3.7-3.9,5.3,1.9,2.5,2.5,6,1.4,8.9"/>
                  <path class="cls-7" d="M279,165.4s.3-.9.4-2.5c0-1.6-.2-4-2-6.3h-.1c0-.1.1-.3.1-.3,1-1.1,2-2.4,2.9-3.8.5-.7.9-1.5,1.3-2.2.4-.8.6-1.7.4-2.5,0-.3-.2-.6-.5-.8h.4c-2,1.8-4,3.1-5.7,4.5-1.8,1.4-3.2,2.7-4.3,3.9-1.1,1.2-1.8,2.4-2.2,3.2-.4.8-.6,1.3-.6,1.3v-.4c0-.2.2-.6.4-1,.4-.9,1.1-2.1,2.1-3.4,1.1-1.3,2.6-2.7,4.3-4.1,1.7-1.4,3.8-2.8,5.7-4.5l.2-.2.2.2c.3.3.5.6.6,1,.3,1,0,2-.4,2.9-.4.8-.9,1.6-1.4,2.3-1,1.4-2,2.7-3,3.8v-.3c1.8,2.4,2,4.9,1.9,6.5,0,.8-.2,1.5-.4,1.9-.1.4-.2.6-.3.6h0v.2Z"/>
                </g>
              </g>
            </g>
            <g>
              <path class="cls-12" d="M287.1,370.5l-8.5,20.5s18,15.5,16.8,19.4l-40.4-15,11.9-32.5,20.1,7.5h.1Z"/>
              <path class="cls-1" d="M266.9,384.7c-.9,0-1.7.6-1.8,1.5s.6,1.7,1.4,1.8,1.9-.7,1.9-1.5-.8-1.9-1.7-1.7"/>
              <path class="cls-6" d="M255.1,395.5l1.3-3.2,38.2,15.6s1.5,1.5.8,2.6l-40.4-15h.1Z"/>
              <path class="cls-8" d="M279.4,391.1c0,.2-1.1,0-2.3.2-1.2.2-2,.9-2.2.8s.6-1.2,2-1.5c1.5-.3,2.6.4,2.5.5h0Z"/>
              <path class="cls-8" d="M283,394.4c0,.2-1,.2-2,.8-1,.6-1.5,1.4-1.7,1.3-.2,0,.1-1.2,1.3-2,1.2-.7,2.4-.4,2.4-.2h0Z"/>
              <path class="cls-8" d="M283.5,400.4c-.2,0-.1-1.1.8-2s2-1,2-.8-.8.6-1.5,1.3c-.8.7-1.1,1.5-1.3,1.5h0Z"/>
              <path class="cls-8" d="M280.8,386.2c-.1.1-1-.5-2.1-.8-1.1-.4-2.1-.3-2.2-.5,0-.2,1.1-.6,2.4-.2s2,1.4,1.9,1.5h0Z"/>
            </g>
            <g>
              <path class="cls-12" d="M185.2,361.4l-22.6,2s-5.6,23.6-9.7,24.4l-5.4-43.7,35.1-4.5,2.6,21.8h0Z"/>
              <path class="cls-1" d="M162.8,349.7c-.3-.8-1.4-1.3-2.2-1s-1.3,1.3-1,2.2c.3.8,1.5,1.4,2.3,1s1.3-1.6.8-2.4"/>
              <path class="cls-6" d="M147.5,344.1l3.6-.3,3.9,42s-.6,2-2,2l-5.4-43.7h-.1Z"/>
              <path class="cls-8" d="M162.9,364.1c-.2,0-.4-1-1.3-2-.8-1-1.8-1.4-1.7-1.6,0-.2,1.3,0,2.3,1.1,1,1.2.9,2.5.7,2.5h0Z"/>
              <path class="cls-8" d="M161.6,368.9c-.2,0-.7-.8-1.7-1.4s-2-.7-2-.9,1.2-.5,2.4.3,1.5,2,1.3,2h0Z"/>
              <path class="cls-8" d="M156.4,372.2c0-.2,1-.6,2.2-.2s1.8,1.3,1.7,1.5c-.2.1-.9-.4-1.9-.7-1-.3-1.9-.3-2-.5h0Z"/>
              <path class="cls-8" d="M168,363.1c-.2,0,0-1.1-.3-2.3-.2-1.2-.7-2.1-.6-2.2.1-.1,1,.7,1.3,2.1s-.3,2.5-.5,2.4h.1Z"/>
            </g>
            <g>
              <path class="cls-6" d="M182.6,247.7c0,1.1-4.2,18.9.3,31.8,2.3,6.4,21.1,53.5,21.1,53.5l-4.3.7-37.4,6.6,3.6,23.3s52.9-3.5,59.9-5.7c7-2.1,13.2-7.8,13.2-16.5s-8-55-8-55l-6.8-34.5-41.7-4.2h0Z"/>
              <path class="cls-6" d="M246.4,248.8c.5.6,55.3,54.2,58.6,60.2,3.3,6,2.7,14.3.3,21.2s-20.9,56-20.9,56l-25.4-8.8,14.2-40.8s.4-2.5,2.5-3.7l.2-5.1h0l-21.5-19.5-24.5-23.9-5.7-32.7,22.1-3.1h0v.2Z"/>
              <path class="cls-12" d="M288.3,324.1c0,.1-2.9.8-6.3,2.1-3.5,1.2-6.1,2.6-6.2,2.4,0,0,.6-.5,1.7-1s2.6-1.3,4.4-1.9,3.4-1.1,4.6-1.3c1.2-.2,1.9-.3,2-.3h-.2Z"/>
              <path class="cls-12" d="M210.7,345.2s-.9-.6-1.9-1.9c-1.1-1.3-2.2-3.3-3.3-5.6-1-2.3-1.8-4.5-2.3-6.1s-.8-2.6-.8-2.6c0,0,.5.9,1.1,2.5.6,1.5,1.4,3.7,2.4,6s2.1,4.3,3.1,5.6c.9,1.4,1.6,2.1,1.6,2.2h0Z"/>
            </g>
            <g class="cls-4">
              <path d="M180.6,261.5c5.6,6.2,13.1,9.3,21.2,11.2,8.1,1.9,16.9,2.7,25.1,1.3,5.4-.9,10.8-2.4,15.5-5.1,4.8-2.7,9.4-7.7,11.4-12.7l-5.3-5.3-66.1,8.4-1.9,2.2h.1Z"/>
            </g>
            <g>
              <path class="cls-6" d="M167.8,196.1s-4,31.6-1.8,39.8,5.7,16.4,16.6,14.7l9.2-2.5s4.7-33,5-33.6-3.4-30.3-3.4-30.3l-12.4-4.6-13.2,16.4h0Z"/>
              <path class="cls-14" d="M176.4,194.8l2.9,2.5,6,23.9-6.2,38.1s7.1,6.9,15.1,8.5c8,1.5,24.7,7,37.6,1,15.7-7.3,17.6-15.2,21.1-17.9l-5.2-5.9s-2.2-51.9-2.4-62.5-14.6-32.1-14.6-32.1l-26.1-1.4-20,6.9-8.3,38.9h.1Z"/>
              <polygon class="cls-14" points="240.1 227.3 224.3 231.6 221.6 182.1 237.7 180.2 240.1 227.3"/>
              <path class="cls-14" d="M184.7,155.9s-9.2,3.5-11.7,8.3-19.8,27.8-19.8,27.8l24,14c-.2-.3,11.9-13,14-21.5,2.2-8.7-1.8-22.5-2.8-24.8s-3.9-3.8-3.9-3.8h.2Z"/>
              <path class="cls-6" d="M191.6,153.6s11.7,9.6,14.1,16.5,13.7,39.9,13.7,39.9c0,0-13.6,19.7-21.3,22s-18.7,5.2-18.7,5.2l1.7,8.3s29.1-9.8,36.3-19,7-16,7-16c0,0-9.4-39.3-12.8-47-3.4-7.7-10.8-13.1-10.8-13.1-3.6,0-6.7.7-9.2,3.2h0Z"/>
              <path class="cls-6" d="M191.6,187.3s-.7,1.1-1.9,2.9c-1.2,1.7-3,4.1-5,6.6s-3.7,4.8-5.1,6.6c-1.3,1.7-2.1,2.7-2.2,2.7s.7-1.1,1.9-2.9c1.2-1.7,3-4.1,5-6.6s3.7-4.8,5.1-6.6c1.3-1.7,2.1-2.7,2.2-2.7Z"/>
              <path class="cls-14" d="M231.8,151.8s11,1.6,16.4,9.9c5,7.7,12.7,28.2,12.7,28.2l-15.4,8.6-10.3-31.9-3.4-14.8h0Z"/>
              <path class="cls-6" d="M229.8,150.1s5.3-2.8,10.2,11.2c2.5,7.1,9.4,21.4,9.4,32.1s-2.6,27.6-2.6,27.6l-1-23.1c-.4-6.8-7.6-32.4-16-47.8h0Z"/>
              <path class="cls-6" d="M192.9,168.4s-.4-.8-1.1-2.1c-.7-1.3-1.9-2.9-3.6-4.3-1.7-1.4-3.5-2.3-4.9-2.8s-2.3-.7-2.2-.8c0,0,.9,0,2.4.4,1.4.4,3.3,1.3,5.1,2.8,1.7,1.5,2.9,3.2,3.6,4.5s.9,2.2.8,2.3h-.1Z"/>
              <path class="cls-6" d="M244.8,173.5s.1.4.3,1.2c.1.8.3,2,.4,3.4.3,2.9.5,6.9.6,11.3s.1,8.4,0,11.3v3.4c0,.8,0,1.3-.1,1.3s0-.4-.1-1.3v-3.4c0-3-.1-6.9-.2-11.3-.1-4.4-.3-8.4-.4-11.3-.1-1.4-.2-2.5-.2-3.4v-1.3h-.3Z"/>
              <path class="cls-6" d="M215.6,260.5s.5,0,1.5.1,2.4.2,4.1.2c3.4,0,8.2-.7,13-3,2.4-1.1,4.5-2.4,6.4-3.8,1.8-1.4,3.3-2.8,4.4-4.1,2.2-2.6,3.1-4.6,3.2-4.6,0,0,0,.1-.1.4-.1.2-.2.6-.5,1-.4.9-1.2,2.1-2.3,3.4-1.1,1.4-2.6,2.8-4.4,4.2-1.8,1.4-4,2.7-6.4,3.9-4.8,2.3-9.7,3-13.2,2.9-1.7,0-3.1-.2-4.1-.4-1-.2-1.5-.3-1.5-.3h0Z"/>
              <g class="cls-4">
                <path d="M185,222.6l-2.1,12.4c4.4,1.2,9.8,1.6,14.4,1.9,4.6.3,9.4-.3,13.4-2.6s7.1-6.4,7.4-11c-11.1,7.4-22.3,7.3-33-.7h0Z"/>
              </g>
            </g>
            <g>
              <path class="cls-2" d="M222,205.6c-.2,0-8.4,1-9.8,1.7s-1.9,2.5-2.4,3.1c-.4.7-4.1,8.1-4.1,8.1l-2.4,1.3-.8,11s6.3,1.6,8.6,0c2.4-1.6,4.9-5.4,4.9-5.4,0,0,4.8-.5,5.4-1.4.6-.9.4-2.5.4-2.5,0,0,2.4-.2,2.6-1.2.2-.9-.4-2.5-.4-2.5,0,0,1.4-.9,1.4-2.4s-.8-3-.8-3c0,0-.6-4.7-1.2-5.9-.6-1.2-1.7-1.1-1.7-1.1h0l.3.2Z"/>
              <path class="cls-7" d="M216.4,211.3c0-.1,1.9-.2,4.2.2,2.3.5,4,1.3,4,1.5s-1.8-.5-4.1-.9c-2.2-.5-4.1-.6-4.1-.7h0Z"/>
              <path class="cls-7" d="M218.2,215.3c0-.1,1.6-.2,3.4.6,1.8.7,2.9,1.8,2.9,1.9-.1.1-1.3-.8-3-1.4-1.7-.7-3.2-.9-3.2-1.1h0Z"/>
              <path class="cls-7" d="M217.2,220c0-.1,1.3,0,2.7.5,1.4.6,2.4,1.4,2.3,1.5,0,.1-1.1-.5-2.5-1-1.3-.6-2.5-.8-2.5-1h0Z"/>
              <path class="cls-7" d="M205.9,225.7c-.1,0-.3-1.6-.4-3.5,0-1.9,0-3.5.1-3.5s.3,1.6.4,3.5c0,1.9,0,3.5-.1,3.5Z"/>
              <path class="cls-7" d="M222.3,209.7c0,.1-.6.7-1.6,1.2s-1.9.7-1.9.6.7-.5,1.7-1,1.7-.9,1.8-.8Z"/>
              <path class="cls-7" d="M221.9,211.9c-.1,0-.4-.1-.6-.6-.2-.4-.1-.8,0-.8s.3.3.5.6c.1.4.3.7.1.8h0Z"/>
              <path class="cls-2" d="M170.4,204.9l1.4-2.2-16.1-9.4s-8.7,9.2-7.4,17.2c.6,3.9,17,19.6,54.4,20.3l.8-11s-32.5-14.3-33.1-14.9h0Z"/>
              <path class="cls-7" d="M159.1,208.8s.4-.6,1.3-1.3c.9-.7,2.3-1.5,4-2.1s3.3-.7,4.4-.7,1.9.2,1.8.3c0,.2-2.9-.2-6.1.9-3.3,1.1-5.4,3-5.5,2.9h.1Z"/>
            </g>
            <g>
              <path class="cls-6" d="M245.1,100.1c.9-1,1-2.8,0-3.6-.8-2.2-3.5-3.6-5.8-3-.9-1.5-2.7-2.3-4.4-2.1.5,0,1-.2,1.5-.3,0-.5-.1-1-.2-1.5,1.2.3,2.5-1.1,2.1-2.3.9-.3,1.5-1.4,1.2-2.3-1.1-.9-2.8-1.1-4.1-.4-1.9,0-3.9.8-5.5,1.9-.2-.4-.5-.8-.8-1.3.5-1.7.5-3.6,0-5.3-.2-.8-.7-1.6-1.5-1.8s-1.8.7-1.3,1.4c-.9-.5-2.3,0-2.7,1-1.3-.2-2.3,1.6-1.5,2.6-.9-.5-2,.4-2.1,1.4,0,.6,0,1.3.3,1.8-.4-.3-1-.5-1.5-.2,0-1.2-1.6-2.1-2.6-1.4-1.1-1.6-2.9-2.8-4.8-3.1.5-.3.4-1.2-.2-1.4-.5-.2-1.2,0-1.6.5s-.6,1-.7,1.6c-.3,1.2-.7,2.4-.5,3.6s1.2,2.3,2.4,2.3c-1.2,1.7.2,4.5,2.3,4.6l20.4,12.1c1.4,1.1,2.7,2.1,4.1,3.2,1.2.9,2.4,1.8,3.9,2s3.2-.7,3.4-2.1c.1-1.1-.6-2.1-1.3-2.9-1.8-2-3.9-3.7-6.2-5.1,1.2.6,2.5,1.1,3.8,1.3,1.3.2,2.8-.2,3.7-1.2h.2Z"/>
              <path class="cls-6" d="M245.1,108.5c.4,0,.6-.5.6-.9s-.3-.8-.7-.8c.2-.3.2-.7,0-1s-.6-.4-.9-.3c.3-.3.3-.8,0-1.1s-.7-.3-1.1,0c0-.5-.2-1.1-.7-1.3s-1.1,0-1.4.2c.1-.8-.3-1.7-1.1-2.1s-1.7-.2-2.3.4l-1.9,7.5c1.1,1,2.5,1.6,4,1.8.8.2,1.6.4,2.5.6.3,0,.6,0,.9,0,.3,0,.5-.3.5-.6,0,.5.7.7,1,.3.3-.4.2-.9,0-1.4.3,0,.8,0,.9-.3.2-.3,0-.8-.3-.9h0Z"/>
              <g>
                <path class="cls-2" d="M239.2,131c-.3-5.3-1.1-13.9-2.5-23.6-1.5-10.5-10.8-18-21.3-17.3h-1c-11.2,1.5-14.1,12.1-12.4,23.4l2.8,35.6,25.7,8.6-.6-13s10-2.8,9.4-13.7h0Z"/>
                <path class="cls-7" d="M229.8,144.7s-6.9.7-14.4-3.4c0,0,3.9,8.3,14.6,6.6l-.2-3.2h0Z"/>
                <path class="cls-6" d="M233.3,117.7c0,.8-.5,1.6-1.4,1.7-.9,0-1.6-.5-1.7-1.3,0-.8.5-1.6,1.4-1.7.9,0,1.6.5,1.7,1.3h0Z"/>
                <path class="cls-6" d="M234.9,113.4c-.2.2-1.4-.6-3.1-.5-1.7,0-2.8,1-3,.8,0,0,0-.5.6-.9.5-.4,1.4-.9,2.4-.9s1.9.3,2.5.6c.5.4.7.7.6.8h0Z"/>
                <path class="cls-6" d="M218.3,118.4c0,.8-.5,1.6-1.4,1.7-.9,0-1.6-.5-1.7-1.3,0-.8.5-1.6,1.4-1.7.9,0,1.6.5,1.7,1.3h0Z"/>
                <path class="cls-6" d="M218.9,114.2c-.2.2-1.4-.6-3.1-.5-1.7,0-2.8,1-3,.8,0,0,0-.5.6-.9.5-.4,1.4-.9,2.4-.9s1.9.3,2.5.6c.5.4.7.7.6.8h0Z"/>
                <path class="cls-6" d="M225.2,126.3s1-.3,2.7-.7c.4,0,.8-.2.9-.5,0-.3-.1-.8-.4-1.2-.5-1-1-2.1-1.5-3.2-2.1-4.5-3.6-8.2-3.4-8.3.2,0,2,3.5,4,8,.5,1.1,1,2.2,1.4,3.2s.5,1,.3,1.7c0,.3-.4.6-.7.7-.3,0-.5,0-.7.2-1.7.2-2.7.3-2.7.2h0Z"/>
                <path class="cls-6" d="M218.6,109.4c-.2.4-1.6.2-3.4.3-1.7,0-3.2.6-3.4.2,0-.2.2-.6.8-1s1.5-.8,2.5-.8,2,.2,2.6.5.9.7.8.9h0Z"/>
                <path class="cls-6" d="M234.2,108.8c-.2.4-1.4.2-2.8.4-1.4,0-2.5.6-2.8.3-.1-.2,0-.6.4-1s1.2-.8,2.2-1c.9,0,1.8,0,2.3.4s.8.7.6.9h.1Z"/>
                <path class="cls-6" d="M235.3,102.5s-3.3-6.6-6.7-8c-4.1-1.7-5.5,2.8-9.3,2s-7.7-2.4-11.4.8c-4,3.5-1.9,5.6-1.8,10.4.2,19.6-2.9,25.4-4.6,16.2-.2-1-3-1.6-3.7-5.9-.9-5.5-1.6-12.2-.6-16.2.8-3.4,2.5-5.8,5.7-8.5,5.1-4.3,12.3-4.9,17.3-4.7,5,.2,14.9,5.3,15,13.8h.1Z"/>
                <path class="cls-2" d="M203.6,123.5c-.2-1.7-1.7-2.9-3.4-2.6-2,.3-4.2,1.6-3.8,5.8.7,7.4,8,5.2,8,4.9s-.5-5-.9-8.1h0Z"/>
                <path class="cls-7" d="M202.5,129s-.1.1-.3.2c-.2.1-.6.2-1,.1-.8-.2-1.6-1.4-1.8-2.7,0-.7,0-1.3.2-1.9s.5-1,.9-1.1.7,0,.8.3c.1.2,0,.3.1.4,0,0,.1,0,0-.4,0,0-.1-.3-.3-.4s-.5-.2-.7,0c-.6,0-1,.7-1.2,1.3-.2.6-.3,1.4-.2,2.1.2,1.5,1.1,2.8,2.2,3,.5,0,.9-.1,1.2-.3.2-.2.2-.4.2-.4h0Z"/>
              </g>
              <path class="cls-6" d="M229.1,89.8c-.7-.8-1.9-1.1-2.9-.7l-15.2.9c-.3-1.2-1.4-2.2-2.7-2.4-1.2-.2-2.6.5-3.2,1.6-.6-.9-1.8-1.3-2.9-1-1,.3-1.9,1.2-2,2.2-1.1-.8-2.8-1-4-.4-1.3.6-2.2,1.9-2.4,3.3-1.5-.2-3.2-.5-4.4.4-1.3.8-1.5,3.2,0,3.7-.4.6-.2,1.5.3,2,.6.5,1.5.4,2,0-.5,1,.6,2.4,1.7,2.1-1.3.8-2.3,2-2.8,3.4-.4,1.1-.4,2.4.4,3.2s2.5.7,2.8-.4c.3.8,1.3,1.4,2.2,1.2.9-.2,1.6-1,1.6-1.9,1,1.2,3.3.6,3.7-.9,1.1.7,2.9,0,3.4-1.1-.2.9,0,1.9.7,2.6s2.1,1.1,3.1.7c.2,1.4,1.2,2.7,2.5,3.2,1-.5,2-1,2.6-2,.5-1,.2-2.5-.9-2.7.8-1.1.8-2.7-.1-3.7,1.2.5,2.5-1.1,1.9-2.2.5,1.8,2.7,3,4.5,2.4,1.1,1,3.1.9,4.1-.2s.9-3.1-.2-4.1c.5-1.2-.4-2.7-1.7-2.8.9.3,2-.4,2.1-1.3,2.2.2,5,0,6-1.9.5-.9.4-2.2-.3-3h0v-.2Z"/>
              <path class="cls-6" d="M247.3,97.8c-.1-.3-.4-.4-.7-.4v-.2c0-.2-.3-.3-.5-.4-.6-.2-1.2-.3-1.8-.3-.3-.5-.8-.8-1.3-1,.1,0,.2-.2.3-.3-.1-.4-.5-.7-.9-.8l-6,4.6c.3.6.6,1.2,1.1,1.5s1.2,0,1.4-.5c0,.5.2,1,.7,1.2.6.2,1.3,0,1.6-.5-.2.5.2,1.1.7,1.1s1-.4,1-.9c0,.4.5.7.9.6s.7-.5.6-.9c.2.3.7.4,1.1.2.3-.2.4-.7.2-1.1.6.2,1.3-.4,1.2-1,.4,0,.7-.6.5-.9h-.1Z"/>
              <path class="cls-6" d="M229.2,96.5c.8,0,1.3-1,1.1-1.7.5-.5.8-1.3.6-2-.1-.7-.7-1.3-1.4-1.6l-7.3,2.8c-.1.6,0,1.2.5,1.7s1.1.5,1.7.3c0,.6.2,1.1.6,1.5s1.1.4,1.6.2c-.3.9.2,2.1,1.2,2.4.9.3,2.1-.2,2.5-1.1s-.2-2.1-1.1-2.5h0Z"/>
              <path class="cls-12" d="M225.9,91.4s0-.2-.4-.5c-.2-.3-.9-.6-1.5-.3h-.2c0-.8-.7-1.7-1.6-2-.9-.3-2.3,0-2.8,1.2v.3c-.1,0-.4-.2-.4-.2-.4-.4-1.1-.7-1.8-.6-.6,0-1.3.6-1.6,1.2,0,.2-.1.4-.2.5v.2h-.2c-.9.2-1.6.9-1.8,1.7-.2.8,0,1.7.4,2.3v.2c.1,0,0,0,0,0-.6.5-.7,1.3-.5,1.9s.8,1,1.3,1.1h.3l-.2.3c-.6.6-.5,1.4-.4,1.9.1.4.4.6.3.7,0,0-.3,0-.5-.6-.2-.4-.4-1.3.3-2.2v.3c-.5,0-1.2-.5-1.5-1.3s-.2-1.8.6-2.4v.3c-.6-.7-.9-1.7-.6-2.7.3-1,1.1-1.8,2.2-2.1l-.2.2c0-.2.1-.5.2-.7.4-.8,1.1-1.4,1.9-1.5.8,0,1.6.2,2.2.7h-.4c.7-1.3,2.3-1.8,3.4-1.3,1.1.4,1.7,1.5,1.8,2.3h-.2c.9-.4,1.5,0,1.7.4.3.4.2.6.2.6h.2Z"/>
              <path class="cls-12" d="M235.2,91.1s-.3-.3-.8-.7c-.3,0-.6-.2-1-.2s-.8.2-1.1.6c0,0-.1,0-.1.2v.2h-.3c-.8-.3-1.6,0-2,.5-.4.4-.5.8-.6.8,0,0-.1-.4.3-1,.4-.6,1.4-1.1,2.5-.7h-.3s.1,0,.2-.2c.4-.4,1-.7,1.5-.7s1,.2,1.3.4c.6.4.7.9.6,1h0l-.2-.2Z"/>
              <path class="cls-12" d="M230.3,86.5s-.4,0-1,.2-1.3.7-1.3,1.6v1h-.2c-.7,0-1.1.7-1.1,1.1v.8s-.3-.2-.3-.8.4-1.5,1.4-1.6l-.2.3c0-.3-.1-.6,0-.8,0-.6.3-1,.7-1.4.4-.3.8-.5,1.1-.6.7,0,1.1.2,1.1.2h-.2Z"/>
              <path class="cls-12" d="M193.7,99.4v-.2c0,0,.3-.4.7-.2h-.1c0-.5.4-1.4,1.4-2,.9-.6,2.4-.8,3.6,0l-.4.2c0-.8.3-1.8,1-2.4s1.9-.8,2.8-.4h0l-.4.2c0-1.3,1-2.4,2.1-2.8,1.2-.3,2.3.2,3,.9h-.4c0-.8.6-1.5,1.2-1.9.6-.4,1.3-.4,1.8-.3s.8.3,1,.5.3.3.2.3c0,0-.4-.4-1.3-.6-.4,0-1,0-1.6.3-.5.3-.9,1-1,1.8v.6l-.4-.4c-.6-.6-1.6-1-2.5-.7-.9.2-1.7,1.2-1.8,2.3v.4h-.4v-.2c-.8-.3-1.7-.2-2.3.3s-.9,1.3-.9,2v.5l-.4-.3c-1-.8-2.4-.7-3.1-.2-.8.5-1.2,1.3-1.4,1.8h0c0,0-.1,0-.1,0-.2,0-.4,0-.5,0v.2h0l.2.2Z"/>
              <path class="cls-12" d="M207.1,108s-.6.2-1.4-.4c-.4-.3-.8-.8-.8-1.6s.2-1.5.9-2.1l.2.4c-.4,0-.9-.2-1.1-.4-.3-.3-.5-.7-.6-1.1-.2-1.5.7-2.8,1.7-3.2v.4c-.6-.3-.9-.9-.9-1.4s.2-1,.5-1.2c.5-.5,1-.4,1-.4,0,0-.4,0-.8.6-.2.2-.4.6-.3,1,0,.4.3.8.8,1l.4.2-.4.2c-.9.4-1.6,1.6-1.4,2.7.1.6.6,1.2,1.1,1.2h.9c0,0-.7.4-.7.4-.5.4-.8,1.1-.8,1.7s.3,1,.6,1.3c.6.6,1.3.6,1.2.7h0Z"/>
              <path class="cls-12" d="M210.4,89v.6-.6Z"/>
              <path class="cls-12" d="M214.9,90.8s0-.3-.3-.5c-.2-.3-.8-.5-1.2-.2l-.4.3v-.5c0,0,0-.3-.1-.4-.4-.5-1.1-.5-1.6-.3-.5,0-.8.2-.8.2,0,0,.2-.3.7-.5.2,0,.6-.2,1-.2s.9.2,1.2.6c.1.2.2.5.2.7l-.4-.2c.7-.5,1.6,0,1.8.4s.1.7,0,.7h0Z"/>
              <path class="cls-12" d="M221.6,87.9c-.1,0-.3-.5-.6-.9-.4-.4-.8-.6-.8-.7,0-.2.7-.2,1.2.4s.4,1.3.2,1.2h0Z"/>
              <path class="cls-12" d="M204.9,106.7s.2.3.2,1,0,.8-.4,1.2-.4.3-.7.4c-.3,0-.7,0-.9-.3l.4-.2c.2.7.2,1.7-.6,2.4-.4.3-.9.5-1.4.4-.6,0-1-.5-1.2-1,0-.2-.1-.5,0-.8l.4.2c-.4.4-1,.4-1.4.2-.4-.2-.8-.6-.9-1-.3-.8-.1-1.6,0-2.2h.4c-.6,1.1-1.5,1.6-2.1,1.7s-1,0-1,0c0,0,.4,0,.9-.2.6-.2,1.4-.7,1.8-1.6l.5-1v1.1c-.2.6-.3,1.3,0,1.9.2.6,1.1,1,1.5.6l.6-.6-.2.8v.5c.1.3.5.6.8.7.4,0,.8,0,1-.3.6-.5.6-1.3.5-1.9l-.3-1.1.7.8c.2.3.8.2,1.1,0s.3-.7.4-.9v-1h0v.2Z"/>
              <path class="cls-12" d="M240.5,100.1s-.2.6-1.1.9c-.4.2-1,.2-1.6,0s-1.1-.7-1.4-1.4l.4.2s-.2,0-.2,0c-.7.3-1.4.3-2.1,0-.6-.2-1.1-.6-1.4-.9-.6-.8-.6-1.4-.6-1.4,0,0,.2.5.8,1.1.3.3.7.6,1.2.7s1.1,0,1.7,0h.5c0,0,0,0,0,0,.2.5.6,1,1.1,1.2s.9.2,1.3,0c.8-.2,1.1-.6,1.2-.6h.2Z"/>
              <path class="cls-12" d="M227.1,98.7s-.2.2-.6,0c-.4,0-1-.8-.7-1.6l.2.3c-.6,0-1.4,0-2-.6-.5-.6-.8-1.6-.2-2.5,0,0,.3-.3.6-.2.1,0,.2.2.2.3v.3c0,.2-.4.3-.5.3-.2,0-.3,0-.4-.2-.4-.3-.6-.7-.7-1.2-.2-.8,0-1.7.6-2.1.5-.4,1-.6,1.3-.6h.5s-.8,0-1.6.8c-.4.4-.6,1.1-.4,1.7,0,.3.3.7.6.9h.2c-.1.2-.2.6-.2.9s.2.6.4.9c.4.5,1,.6,1.5.6h.4l-.2.3c-.3.5,0,1.1.4,1.2.3.2.6,0,.6.2h0v.3Z"/>
              <g>
                <path class="cls-7" d="M224.2,128.3c-1.1-.6-1.4-.6-2.6-.9s-.9-.2-1.2,0c-.5.3-.6,1-.5,1.6.2,1.3.6,2.6,1.7,3.3,1,.6,2.4.4,3.3-.4.9-.7,1.4-1.9,1.6-3.1l-2.3-.6h0Z"/>
                <path class="cls-6" d="M224.9,131.9s-.6.6-1.9.6-1.5-.2-2.1-.8c-.7-.6-1.2-1.5-1.3-2.5,0-.5,0-1,.2-1.5.1-.2.3-.5.6-.6h.8c.7.2,1.4.4,2.1.6,1.2.4,1.9.6,1.9.7,0,0-.8,0-2-.3-.7-.2-1.4-.3-2.1-.5-.4,0-.6,0-.8.3-.1.4-.2.8-.1,1.2,0,.9.5,1.7,1.1,2.2s1.3.7,1.9.8c1.2.1,1.9-.4,1.9-.3h-.2Z"/>
              </g>
            </g>
          </g>
        </g>
        <g id="Character_1">
          <g>
            <g>
              <path class="cls-10" d="M154.2,44.4s-5.4,40.7-10.7,51.5c-2.7,5.6-27.1,36.9-27.1,36.9l-13.3-19,25.5-27.8,14.5-42.4,11.1.7h0Z"/>
              <g>
                <path class="cls-10" d="M153.8,33.3c0-.3.8-3.6,0-4.5s-2.1-.7-2.1-.7c0,0-.6-1.4-1.6-1.9s-2.5,0-2.5,0l-.9-.6c-1.4-.9-2.3-.4-2.3-.4,0,0-1.1.9-2.3.9s-2.8,3.4-3.7,5c-.9,1.7-2.1,3.8-.5,6.2,2.1,3.2,5.5,7,5.5,7l10.1,1.1s1.4-1.2,1.6-4.8-1.3-7.1-1.3-7.1h0v-.2Z"/>
                <path class="cls-15" d="M151.8,28.1s-.3.7-.7,1.9-.8,2.8-1.3,4.6c0,.2-.1.5-.2.7v.5c0,.2.2.2.3.3.5.3.9.3,1.3.3s.9,0,1.2-.4c.3-.2.5-.5.7-.8.3-.5.5-1,.6-1.4,0-.3.1-.5,0-.5,0,0-.3.7-.9,1.7-.3.5-.9,1-1.6,1s-.8,0-1.1-.3c0,0-.1,0-.1-.2v-.2c0-.2.1-.5.2-.7.5-1.8.9-3.5,1.2-4.7s.4-2,.4-2h0v.2Z"/>
                <path class="cls-15" d="M147.6,26.2s-.2.6-.3,1.6c-.2,1-.4,2.5-.6,4h0c-.2.9-.3,1.8,0,2.5.2.8.8,1.2,1.4,1.4.6,0,1,0,1.3,0s.4-.2.4-.2h-1.7c-.5,0-.9-.6-1.1-1.2-.2-.6-.1-1.4,0-2.2h0c.2-1.7.3-3.1.4-4.2s.1-1.7,0-1.7h.2Z"/>
                <path class="cls-15" d="M144.3,25.2s0,1,.2,2.5h0c-.4,1.2-.9,3-1.5,4.9-.1.4-.2.8-.4,1.2h0v.2c.2.4.6.8.9,1,.4.3.8.5,1.2.5s.8-.2,1.1-.5c.2-.3.4-.6.5-.8.2-.5.3-1,.4-1.3v-.5s-.1.7-.6,1.7c-.2.5-.6,1.1-1.3,1.1s-1.4-.6-1.8-1.3v.2c.1-.4.3-.8.4-1.2.6-1.9,1.1-3.6,1.4-5h0c-.2-1.6-.4-2.5-.5-2.5h0v-.2Z"/>
                <g>
                  <path class="cls-10" d="M143.4,44.2s-5.5-6.8-5.5-7,1.3-8,2.5-9.4,3-3.2,3-3.2c0,0,2,.3,1.2,3.3s-1.8,6-1.8,6l1.9,2.3s6.5,1.3,6.6,7.4"/>
                  <path class="cls-15" d="M151.3,43.7v-.8c0-.2,0-.6-.1-.9,0-.4-.2-.8-.4-1.2-.4-.9-1-1.9-2.1-2.7-1-.8-2.4-1.6-4-2h.1c-.6-.7-1.2-1.5-1.9-2.3v.2c.5-1.4,1-2.9,1.4-4.5.2-.8.5-1.6.6-2.5,0-.4,0-.9-.1-1.4-.2-.5-.5-.9-.9-1.1-.1,0-.3-.1-.5-.2h-.1c-.6.6-1.1,1.2-1.6,1.7-.3.3-.5.6-.8.9-.2.3-.5.5-.8.9-.4.7-.6,1.4-.9,2.1s-.4,1.4-.6,2.1c-.3,1.3-.6,2.7-.8,3.9,0,.3,0,.6-.1.9v.6c.1,0,.2.2.3.4.4.5.7.9,1,1.3,1.3,1.6,2.4,2.9,3.1,3.8.4.4.6.8.9,1,.2.2.3.3.3.3,0,0,0,0-.3-.4-.2-.3-.5-.6-.8-1.1-.8-1-1.8-2.3-3-3.9-.3-.4-.6-.8-1-1.3l-.2-.3h0c.1,0,0,0,0,0h0v-.3c0-.3.1-.6.1-.9.2-1.2.5-2.5.8-3.8.2-.7.3-1.4.6-2,.2-.7.4-1.4.8-2,.2-.3.5-.6.7-.8.3-.3.5-.6.8-.9.5-.6,1.1-1.1,1.6-1.7h-.2s.2.1.3.2c.7.4.9,1.2.9,2s-.4,1.6-.6,2.4c-.4,1.6-.9,3.1-1.4,4.5h0v.2c.6.8,1.3,1.6,1.9,2.3h0c1.5.4,2.9,1,3.9,1.8s1.7,1.8,2.1,2.6c.7,1.7.6,2.8.7,2.8h.3Z"/>
                </g>
              </g>
            </g>
            <polygon class="cls-10" points="75.6 318.1 42.1 351.1 53.8 363.1 88.4 337.5 75.6 318.1"/>
            <g>
              <g>
                <path class="cls-12" d="M55.6,363l1.7-1.3c-5.2-4.8-8.7-10.6-9.9-17.1l-11.9,6.2,20,35.4c3.3-2,.2-23.3.2-23.3h-.1Z"/>
                <path class="cls-1" d="M35.5,350.8l2.9-1.5,18.1,34.6s.2,1.9-1,2.3l-20-35.4Z"/>
                <path class="cls-6" d="M55.3,362.5c-.2,0-.8-.7-1.8-1.3-1-.6-2-.6-2.1-.8,0-.2,1.1-.5,2.4.2,1.3.7,1.6,1.8,1.5,1.9h0Z"/>
                <path class="cls-1" d="M44.4,352.8c-.5.3-1.2,0-1.5-.5s0-1.1.4-1.4c.5-.3,1.2,0,1.5.5s0,1.1-.4,1.4Z"/>
                <path class="cls-6" d="M55.3,362.1s-.2-.2-.6-.6c-.3-.4-.9-1.1-1-2.1v-.8c0-.3,0-.6.3-.9.2-.3.7-.5,1-.4.4,0,.7.4.9.7.7,1.3.6,3-.4,4.3l-.4-.4c.2-.2.5-.3.8-.4,1.6-.7,3.5-.3,4.7.6.2.1.3.2.4.5s0,.5,0,.7c-.2.4-.5.6-.9.7-.7.2-1.3.2-1.8,0-1.1-.3-1.8-.9-2.3-1.2-.5-.4-.7-.6-.7-.6,0,0,.3.1.8.5.5.3,1.2.8,2.2,1,.5,0,1.1.1,1.6-.1.3,0,.5-.3.6-.5,0-.2,0-.4-.3-.6-1.1-.8-2.7-1.1-4.1-.5-.3.1-.5.2-.7.4h-.4v-.3c.8-1.1.9-2.6.4-3.7-.2-.5-.9-.7-1.1-.3-.2.4-.3,1-.3,1.4,0,.9.5,1.6.8,2,.3.5.5.7.4.7h0Z"/>
              </g>
              <path class="cls-6" d="M56,366.2s-.8-.8-2.1-1.3-2.4-.4-2.4-.6,1.2-.4,2.6.2c1.4.6,2,1.7,1.9,1.7h0Z"/>
              <path class="cls-6" d="M56.3,369.3s-.9-.5-2-1c-1.2-.4-2.2-.5-2.2-.6s1.1-.3,2.3.2,2,1.3,1.9,1.4h0Z"/>
            </g>
            <polygon class="cls-10" points="66.6 297.7 20.2 301.1 21 317.3 63.4 320.2 66.6 297.7"/>
            <g>
              <g>
                <path class="cls-12" d="M22.4,318.3h2.1c-.7-6.7.5-13.2,3.9-18.8l-12.9-2.9-8.4,38.9c3.8.6,15.4-17.2,15.4-17.2h-.1Z"/>
                <path class="cls-1" d="M15.5,296.6l3.1.7-9.3,37.1s-1.1,1.6-2.3,1.1l8.4-38.9h.1Z"/>
                <path class="cls-6" d="M22.5,317.8c-.2,0,0-1-.5-2.1-.4-1.1-1.1-1.8-1-1.9,0-.2,1.1.4,1.6,1.7.5,1.3,0,2.4-.2,2.3h.1Z"/>
                <path class="cls-1" d="M20.8,303.7c-.6-.1-.9-.7-.8-1.3s.7-.9,1.2-.8c.6.1.9.7.8,1.3s-.7.9-1.2.8h0Z"/>
                <path class="cls-6" d="M22.7,317.5v-.8c0-.5,0-1.4.6-2.2.1-.2.3-.4.5-.6s.4-.4.8-.5c.3-.1.8,0,1,.4.2.3.3.7.2,1.1-.3,1.4-1.5,2.6-3.1,2.9v-.5c.2,0,.5,0,.8.2,1.6.5,2.8,2,3,3.4v.6c0,.2-.2.4-.5.5-.4.2-.8,0-1.1,0-.6-.2-1.1-.7-1.4-1.1-.7-.9-.8-1.8-.9-2.4s-.1-.9-.1-.9c0,0,.1.3.3.9.2.5.4,1.4,1,2.2.3.4.7.8,1.3.9.2.1.5.1.7,0,.2,0,.2-.3.1-.6-.3-1.3-1.3-2.5-2.7-3-.3,0-.5-.1-.8-.2-.1,0-.3-.1-.2-.3,0-.1.1-.2.2-.2,1.4-.3,2.4-1.4,2.7-2.5.2-.5-.2-1-.6-.9s-.8.5-1.1.9c-.5.7-.6,1.5-.8,2,0,.5-.1.8-.2.8h.3Z"/>
              </g>
              <path class="cls-6" d="M20.6,321c-.1,0,0-1.1-.7-2.3-.6-1.2-1.5-1.9-1.4-2,0-.1,1.2.4,1.8,1.8.7,1.3.4,2.5.3,2.5h0Z"/>
              <path class="cls-6" d="M18.7,323.5c-.1,0-.3-1-.9-2s-1.3-1.7-1.2-1.8c0,0,1,.5,1.6,1.6s.6,2.2.5,2.2h0Z"/>
            </g>
            <g>
              <path class="cls-6" d="M105.7,197.3c-.4.7-2.2,21.4-2.2,21.4,0,0,10.9,33.8,16.3,49.9,5,15,8.4,33.5,4,42s-47,36.9-47,36.9l-17.2-15.1,32.6-34.1-13.8-64.5,6.4-41.3,20.9,4.9h0Z"/>
              <path class="cls-6" d="M54.6,185.6s-14.1,22.3-15,33.9c-1,13.3,7.8,28.4,12.1,37.7,4,8.5,18.8,38.2,18.8,38.2l-34.2,3.3s-2,14.6,2.2,23.4c0,0,43.4-.9,50.4-1.4,7-.4,16.9-4.3,16.7-16.9-.2-12.7-14.1-57.2-14.1-57.2v-7.6l2.1-9.4,5.5-33.9-25.3-10h-19.1c0-.1-.1-.1-.1-.1Z"/>
              <path class="cls-3" d="M104.4,210.1l.6-6.9-29.2-16.6h-23.6l-6.9,17.2s19.7-7.5,25.4-7c5.8.5,33,18.3,33,18.3l.6-5h0Z"/>
              <path class="cls-12" d="M95.5,228.7s0,.1-.3.4c-.2.3-.6.6-1.1,1.1-.9,1-2.3,2.4-4.1,4.3h0c.5,2.6,1.1,6.1,1.8,10.1h0c1.8,6.8,4,15.4,6.6,25.2,1.3,4.9,2.6,10.1,4.1,15.5.7,2.7,1.4,5.5,2.2,8.3.7,2.9,1.1,5.8,1.1,8.9s-.4,5.4-1.2,7.9c-.5,1.2-1.1,2.5-1.9,3.5s-1.7,2-2.7,2.8c-2,1.6-4.3,2.7-6.7,3.4-1.2.4-2.4.6-3.6.6h-3.6c-9.3.2-17.7.5-24.8.7-7,.2-12.7.3-16.7.4h-6.1,1.6c1.1,0,2.6-.1,4.5-.2,4-.1,9.7-.3,16.7-.6,7.1-.2,15.5-.5,24.8-.8,1.2,0,2.3,0,3.5-.1,1.2,0,2.3-.2,3.5-.6,2.3-.7,4.6-1.8,6.5-3.3,1-.8,1.9-1.7,2.7-2.7.8-1,1.3-2.1,1.8-3.4.8-2.4,1.2-5.1,1.2-7.8s-.4-5.9-1-8.7c-.7-2.8-1.5-5.6-2.2-8.3-1.4-5.4-2.8-10.7-4-15.6-2.5-9.8-4.7-18.4-6.5-25.2h0c-.7-4-1.3-7.5-1.7-10.2h0l4.2-4.2c.5-.5.8-.8,1.1-1.1.2-.2.4-.4.4-.4h-.1Z"/>
              <path class="cls-12" d="M70.7,295.1c0,0,1.3,2.2,2.9,4.9,1.6,2.7,2.8,4.9,2.7,5,0,0-1.6-2-3.2-4.7s-2.6-5.1-2.5-5.1h0Z"/>
              <path class="cls-12" d="M58.3,205.9s1.1.2,2.8.4c1.7.3,4.2.5,6.8.4,2.7,0,5.1-.4,6.8-.8,1.7-.4,2.8-.6,2.8-.6,0,0-1,.5-2.7.9s-4.2.9-6.9.9-5.2-.2-6.9-.6-2.8-.7-2.8-.8h0v.2Z"/>
              <path class="cls-12" d="M75.4,218.3s1,.7,2.5,2.1,3.4,3.3,5.4,5.6,3.7,4.5,4.8,6.2,1.8,2.7,1.7,2.8-.8-.9-2-2.5-2.9-3.7-4.9-6-3.9-4.3-5.3-5.7-2.3-2.3-2.2-2.4h0Z"/>
              <path class="cls-12" d="M88.8,231.1s0-.4.3-1.1c.2-.8.5-1.9.9-3.1.7-2.6,1.7-6.2,2.6-10.2s1.6-7.7,2.1-10.4c.2-1.2.4-2.3.5-3.2,0-.8.2-1.2.2-1.1v1.2c0,.8-.2,1.8-.4,3.2-.4,2.7-1,6.4-1.9,10.4s-2,7.6-2.8,10.2c-.4,1.3-.8,2.3-1.1,3-.3.7-.4,1.1-.5,1.1h.1Z"/>
            </g>
            <path class="cls-12" d="M17.2,176.8s-1.2-39.2.1-47.4c1.7-10.3,15.8-15.5,23.5-17.2s20.9,1,20.9,1c0,0-1.8,67.5-2.2,68-.5.5-10.2,16.3-10.2,16.3,0,0-28-1.4-30.6-6.1s-1.4-14.6-1.4-14.6h-.1Z"/>
            <g>
              <path class="cls-6" d="M103.9,66.2c1.4,7.2.3,11.4,3.7,15.6s9.1,6.5,14.4,5.8c0,2.5-1.7,4.9-4,5.8s-5.1.4-6.9-1.3c1.4,2.2,3.1,4.3,4.9,6.2-.3,2.4-2.9,4.1-5.3,4.1s-4.7-1.6-6.2-3.5c.4,2.4,1.8,4.6,3.8,5.9-2.7,2.5-6.3,3.9-10,3.8-3.7,0-7.3-1.5-9.9-4l15.4-38.3h0Z"/>
              <path class="cls-6" d="M52.5,74.8c3.2-5,5.4-10.5,9.1-15.2s14-9.6,20-9l-9.7,43.6c-1.6,5.5,2.8,11.9-2.8,13.5-2.3,0-15.3-.8-17.7-5.1.7-1,1.4-1.9,2.1-2.9-1.2,1-3.2,1.1-4.7.4-2-.9-3.3-2.8-4.5-4.5,2.6-1.4,4.8-3.6,6-6.2-2,1.6-4.9,2.4-7.4,1.6-2.5-.7-4.5-3.1-4.4-5.7,6-.9,10.7-5.5,13.9-10.5h.1Z"/>
              <g>
                <g>
                  <path class="cls-6" d="M68,68.3c.7-2,.3-4.2.5-6.2.5-4.6,4.1-8.4,8.2-10.3,3.9-1.8,8.8-1.6,13.6-.2,3.3.9,6.4,2.7,8.7,5.3,3,3.4,4.2,8.4,3.1,12.8l-23.5-2.6c-2.1,1.9-4.3,3.8-6.9,4.9-.8.3-1.6.6-2.4.5-.8,0-1.7-.6-1.9-1.4-.2-.9.2-1.8.6-2.6h0v-.2Z"/>
                  <path class="cls-10" d="M91.1,58l-20.3,5c-2,.2-3.5,1.9-3.4,3.9l1.8,44.2c0,3,1.2,5.9,3.2,8.2l2,2.4c4.6,5.6,13.6,4.7,16.8-1.8.2-.5.4-.8.4-1.2s.2-.7.2-1l.2-4.3v-7.9s8.3-1.3,10.1-12.2c.9-5.4.6-14.2.2-21.5-.4-6.5-4.7-14.5-11.2-13.9h0Z"/>
                  <g>
                    <g>
                      <path class="cls-6" d="M98,80.7c0,.7-.6,1.4-1.3,1.4s-1.4-.5-1.4-1.3.6-1.4,1.3-1.4,1.4.5,1.4,1.3Z"/>
                      <path class="cls-6" d="M100.3,76.4c-.2.2-1.2-.6-2.7-.6s-2.6.7-2.8.6c0,0,0-.4.6-.8.5-.3,1.3-.7,2.2-.7s1.7.4,2.2.7c.5.4.6.7.5.8h0Z"/>
                    </g>
                    <g>
                      <path class="cls-6" d="M84.8,80.6c0,.7-.6,1.4-1.3,1.4s-1.4-.5-1.4-1.3.6-1.4,1.3-1.4,1.4.5,1.4,1.3Z"/>
                      <path class="cls-6" d="M86.1,76.5c-.2.2-1.2-.6-2.7-.6s-2.6.7-2.8.6c0,0,0-.4.6-.8.5-.3,1.3-.7,2.2-.7s1.7.4,2.2.7c.5.4.6.7.5.8h0Z"/>
                    </g>
                    <path class="cls-6" d="M91,87.7s.9-.2,2.4-.4c.4,0,.7,0,.8-.4,0-.3,0-.7-.2-1.1-.4-.9-.7-1.9-1.1-2.9-1.6-4.2-2.7-7.6-2.5-7.6s1.6,3.3,3.1,7.4c.4,1,.7,2,1.1,2.9,0,.4.4.9.2,1.5,0,.3-.4.5-.6.6h-3.2Z"/>
                    <path class="cls-15" d="M92,105.5s-7.3.4-14.5-3.9c0,0,3.7,7.7,14.6,6.7v-2.8h0Z"/>
                  </g>
                  <path class="cls-6" d="M86.6,70.7c-.2.4-1.6.2-3.4.4-1.8.2-3.2.7-3.4.3,0-.2.2-.6.7-.9s1.5-.8,2.5-.9c1.1,0,2,0,2.7.3.6.3,1,.6.9.8Z"/>
                  <path class="cls-6" d="M99.9,69.8c-.3.3-1.3,0-2.5,0s-2.3.2-2.5,0c0-.2,0-.5.5-.8.4-.3,1.2-.6,2.1-.6s1.6.3,2,.7c.4.3.6.7.5.9h0Z"/>
                  <path class="cls-6" d="M64.2,65.3c1.9-6.3,10.8-15.1,17.4-14.7l10.6,6.1c-.6,3.6-3.3,6.7-6.7,7.8-1.8.6-4.1.8-5.2,2.4s-.4,4-1.4,5.7c-1.4,2.3-5.4,2.3-6.4,4.8-.5,1.1-.2,2.4-.7,3.5-.6,1.5-4.3,3.4-5.8,2.9s-.9.8-1.5-.5c-1.6-3.1-2.2-8.2-1.8-11.2.3-3.1.7-3.9,1.6-6.9h-.1Z"/>
                  <path class="cls-10" d="M70.4,85c0-.8-.9-2.7-1.7-2.8-2.1-.3-6-.2-6,5.2s7.4,5.9,7.4,5.7.4-5.3.4-8.1h-.1Z"/>
                  <path class="cls-15" d="M67.8,90.3s0,0-.3.2c-.2,0-.6.2-1,0-.8-.3-1.4-1.5-1.4-2.9s0-1.3.4-1.8c.2-.5.6-.9,1-1,.4,0,.7.2.8.4v.4s.2,0,0-.4c0-.2,0-.3-.3-.5s-.4-.2-.7-.2c-.6,0-1.1.6-1.4,1.1-.3.6-.5,1.3-.5,2.1,0,1.5.8,2.9,1.8,3.2.5,0,.9,0,1.2-.2.2-.2.3-.3.2-.4h.2Z"/>
                </g>
                <path class="cls-6" d="M89.9,54.5c.8,3,5.5,6.7,7.6,9,4,4.3,4.8,5.8,5.1,15.8,1.7-3.5,2-6.8,1.7-10.7-.3-3.9-2.8-8.9-5.6-11.6s-4.9-3.1-8.8-2.4"/>
              </g>
              <path class="cls-6" d="M35.3,80.5s.5.2,1.4.4c.9.2,2.2.4,3.9.3,1.7-.2,3.6-.8,5.5-1.9s3.7-2.8,5.3-4.7c1.6-2,3-4,4.2-5.9,1.2-1.8,2.3-3.5,3.2-5,.9-1.3,1.6-2.5,2.2-3.3.5-.8.8-1.2.9-1.2,0,0-.2.5-.7,1.3-.5.9-1.2,2-2.1,3.4-.9,1.5-2,3.2-3.1,5-1.2,1.9-2.6,3.9-4.2,5.9-1.7,2-3.5,3.7-5.5,4.8-2,1.1-4,1.7-5.7,1.8-1.7,0-3.1,0-4-.4-.5-.2-.8-.3-1-.4s-.3-.2-.3-.2h0Z"/>
              <path class="cls-6" d="M120.2,81.4l-.3.2c-.2,0-.5.3-1,.5-.9.3-2.2.7-3.9.7s-3.8-.5-5.7-1.7c-.9-.6-1.8-1.4-2.6-2.4-.7-1-1.3-2.1-1.8-3.3-.9-2.4-1.2-4.9-1.6-7.1-.3-2.2-.7-4.1-1.3-5.7-1-3.2-2.6-4.6-2.5-4.7,0,0,0,0,.3.2.2.2.4.4.7.8.6.7,1.3,1.9,1.9,3.5s1,3.5,1.4,5.7.7,4.6,1.6,6.9c.4,1.2,1,2.3,1.7,3.2.7.9,1.5,1.7,2.4,2.3,1.8,1.2,3.8,1.7,5.4,1.8,1.7,0,3-.2,3.8-.5s1.3-.6,1.4-.5h0Z"/>
              <path class="cls-12" d="M58,56.7s1.7,1.2,4.6,2.6c2.9,1.4,7.3,2.9,12.3,3.2,2.5,0,4.9,0,7-.4s4-1,5.4-1.7c3-1.5,3.9-3.4,4-3.3,0,0,0,0-.2.3,0,.2-.3.5-.6.9-.6.7-1.6,1.7-3.1,2.5s-3.4,1.4-5.5,1.8c-2.2.4-4.6.6-7.1.5-5.1-.3-9.5-1.8-12.4-3.3-1.5-.8-2.6-1.5-3.3-2-.7-.6-1.1-.9-1.1-.9h0v-.2Z"/>
              <path class="cls-12" d="M57.4,64s1.2.6,3.3,1.5c2,.9,5,1.8,8.3,2.1,3.3.3,6.4,0,8.6-.5,2.2-.4,3.4-.9,3.5-.8,0,0-.3.2-.9.4-.6.2-1.4.5-2.5.8-2.2.6-5.3,1-8.7.6-3.4-.3-6.4-1.3-8.4-2.3s-1.8-.9-2.3-1.3c-.5-.3-.8-.5-.8-.6h0Z"/>
              <path class="cls-12" d="M49.3,81.8s1.7,0,4.4-.4,6.3-1.7,9.9-3.7c3.7-2,6.8-4.1,9.1-5.6,1.2-.7,2.1-1.3,2.8-1.7s1.1-.6,1.1-.5c0,0-.3.3-1,.7-.7.5-1.6,1.1-2.7,1.8-2.3,1.5-5.4,3.7-9.1,5.7-3.7,2-7.4,3.2-10.1,3.6-1.4.2-2.5.2-3.2.2s-1.2,0-1.2,0h0Z"/>
              <path class="cls-12" d="M46.2,85.4c0-.2,3.4,0,7.5-.6s7.2-2,7.3-1.8c0,0-.7.5-2,1s-3.1,1.1-5.2,1.4c-2.1.3-4,.4-5.4.3-1.4,0-2.2-.2-2.2-.3Z"/>
              <path class="cls-15" d="M85.8,92.1c0-.7.3-1.3.6-1.9,0,0,0-.3.3-.3h.2c1.4.5,2.7,1.1,4.1,1.6,0,.6-.5,1.1-.8,1.6-.4.6-1.1,1.1-1.8,1.3s-1.6,0-2.1-.5-.6-1.2-.6-1.9h.1Z"/>
              <path class="cls-6" d="M89.3,94.3s0,.2-.4.2-.8.2-1.3,0-1.1-.5-1.6-1.1c-.4-.7-.4-1.5-.2-2.3,0-.4.3-.8.6-1.1,0,0,0-.2.3-.3h.4l.5.2c.6.2,1.1.5,1.7.7.9.4,1.5.7,1.5.8s-.6,0-1.6-.4c-.6-.2-1.1-.4-1.7-.6l-.5-.2h0c-.2.4-.4.7-.5,1-.2.7-.2,1.4,0,1.9.3.5.8.8,1.3,1,.9.4,1.5,0,1.5,0h0Z"/>
            </g>
            <g>
              <path class="cls-14" d="M95.8,115.4c.7.7,20.3,26.1,18.9,35.1s-2.4,12-3.3,18.5c-2,15.7.5,24.2-.2,31.2s-4.2,9.7-4.9,9.3-20.8-14.2-31.5-19.4c-19.4-9.3-23.5,9.8-28,9.3s-5.3-2.5-5.3-2.5c0,0,6.5-.7,7.3-4.1.8-3.4,9.9-35.3,9.9-35.3l-4.7-42.3,12.9-4.7,22.8,2.6,6.2,2.3h0Z"/>
              <path class="cls-14" d="M88.4,114.8s1.2-1.3,3.6-1.3,9.4-1.7,9.4-1.7l7.8-6.3c6.5,1.7,21.4,16.6,17.4,21.1l-10.3,10.4-2.2,10.2-16.5-20-9.3-12.3h0Z"/>
              <path class="cls-10" d="M92,113.1s9.7,10.1,8.1,14.9c-1.6,4.7-5.9,2.8-9.9,1.5-10.1-3.3-21-18.7-21-18.7h0l22.8,2.3h0Z"/>
              <path class="cls-12" d="M114.4,148.6s5.3-11.4,1.3-21.7c-4-10.2-12-19.7-23.8-21.4v2.4s18.3,14.1,20.1,23.1c1.8,9,1.4,9.2,1.4,9.2l.9,8.4h0Z"/>
              <path class="cls-6" d="M109.4,127.7s.2.3.6,1c.3.6.8,1.6,1.3,2.8,1,2.4,2.1,5.9,2.8,9.8.7,3.9.7,7.6.5,10.2,0,1.3-.2,2.4-.3,3.1,0,.7-.2,1.1-.2,1.1,0,0,0-1.6.2-4.2,0-2.6,0-6.2-.7-10.1-.7-3.9-1.7-7.3-2.6-9.7s-1.6-3.9-1.5-3.9h-.1Z"/>
              <path class="cls-6" d="M64.3,175.8s.2,0,.5-.1h1.3c1.2,0,2.9.2,4.9,1s4.1,2.2,6.2,4,4.3,3.9,6.7,6.1c4.8,4.3,9.5,7.6,13.2,9.5,1.8,1,3.4,1.6,4.5,2s1.7.6,1.7.6h-.5c-.3,0-.7-.2-1.3-.4-1.1-.4-2.7-.9-4.6-1.9-3.8-1.8-8.6-5.1-13.4-9.4-2.4-2.1-4.6-4.3-6.7-6.1s-4.2-3.2-6.1-4-3.6-1.1-4.7-1.2h-1.8.1Z"/>
            </g>
            <g>
              <path class="cls-6" d="M25.9,127.3s.1,4.1,2.7,8.7c1.7,3,13.2,15.1,15,14.2,1.7-.9-7.9-21.4-7.9-21.4l-9.8-1.5h0Z"/>
              <path class="cls-10" d="M35.5,131.9c-.7.5-34.6,22.5-35.4,29.3-.5,4.3,2.7,9.2,7.3,12.4,6.4,4.3,21.8,14.1,21.8,14.1l8.5-8s-15.9-13.3-17.8-16.4l28-16.6-12.4-14.9h0Z"/>
              <path class="cls-15" d="M13.1,159.4s.5-.2,1.3,0c.8,0,1.9.4,2.9,1s1.8,1.5,2.3,2.1.6,1.1.5,1.2c-.1,0-1-1.7-3.1-2.9-2-1.2-4-1.2-4-1.3h.1Z"/>
              <path class="cls-14" d="M60,113.1s-7.4,1.4-12,3.7-22.2,10.6-22.2,10.6c0,0,6,2.5,10.1,7.8s7.6,15.1,7.6,15.1l14-7.6,2.4-29.6h0Z"/>
              <path class="cls-12" d="M60.6,106.7s7.4-1.2,8.6,6.1c1.1,7.2-.4,20.3-1.9,26.5-1.6,6.3-10.2,15.3-10.2,15.3l-.4-9.5s5-9.1,4.4-21.1c-.6-12-1-14.5-3-15.3s-6.4,6.4-6.4,6.4l-2.2.8s2.7-9.7,11.2-9.3h0Z"/>
              <polygon class="cls-6" points="50.2 191.4 63 159.3 43.2 142.1 38.5 142.3 21.9 177.2 44.7 195.4 48.7 195.2 50.2 191.4"/>
              <path class="cls-12" d="M43.5,193.8s.2-.5.5-1.3c.4-.9.9-2.1,1.6-3.5,1.3-2.9,3.1-7,5.1-11.6,1.9-4.6,3.6-8.7,4.8-11.7.6-1.4,1.1-2.6,1.4-3.6.3-.8.5-1.3.6-1.3,0,0,0,.5-.4,1.4s-.7,2.1-1.3,3.6c-1.1,3-2.7,7.2-4.7,11.8-1.9,4.6-3.8,8.6-5.2,11.5-.7,1.5-1.3,2.6-1.7,3.4-.4.8-.7,1.2-.7,1.2h0Z"/>
              <g>
                <path class="cls-10" d="M37.7,179.7s5.3-3.3,6.1-3.9c.8-.7,5.7-.4,6.6-1.4s2.9-.3,2.3,1.9-4,4.4-6.5,4.1c0,0,7.7,4,7.7,5.2s-.4,2-1.7,2.5c0,0,2.6,2.3-.8,4.2,0,0,1.1,1.9-2.2,3.2,0,0,.8,1.4-1.7,2.1-2.5.8-4.8,1.9-6.5.2s-10.8-9.4-10.8-9.4l-10-7.3,4-13.3s13.5,11.9,13.5,11.9Z"/>
                <path class="cls-15" d="M47.1,186.8c0-.1,1.2.3,2.6.7,1.4.4,2.5.7,2.5.9s-1.2,0-2.7-.4c-1.4-.4-2.5-1.1-2.4-1.2h0Z"/>
                <path class="cls-15" d="M45.3,192c0-.1,1.3-.2,2.9-.1s2.9.3,2.9.4-1.3.2-2.9.1-2.9-.3-2.9-.4Z"/>
                <path class="cls-15" d="M44.6,195.5c0-.1,1-.3,2.3-.4,1.3-.1,2.3,0,2.3,0,0,.1-1,.3-2.3.4-1.3.1-2.3,0-2.3,0Z"/>
                <path class="cls-15" d="M44.7,185.4c0-.1.4-.5.6-1.2.2-.7,0-1.3,0-1.4,0,0,.2,0,.4.3,0,.3.2.7,0,1.1,0,.4-.4.8-.6,1-.2.2-.4.2-.5.1h0Z"/>
                <path class="cls-15" d="M43.2,189.3c0-.1.3-.6.4-1.3,0-.7,0-1.3,0-1.3,0-.1.6.5.4,1.4-.2.9-.9,1.3-.9,1.2h0Z"/>
                <path class="cls-15" d="M41.8,194.2c0-.1.4-.5.6-1.2.2-.7,0-1.2.2-1.3,0,0,.2,0,.3.4s.2.7,0,1.1c0,.4-.4.8-.7.9-.2.2-.4.2-.5.1h.1Z"/>
              </g>
              <path class="cls-6" d="M49.4,116.2s0-1.1.8-2.6,1.9-3.6,4-5.2c.5-.4,1.2-.7,1.8-.7s1.3.2,1.8.5c1,.6,1.5,1.6,1.8,2.4s.4,1.5.4,2v.7s-.2-1-.8-2.6c-.3-.8-.8-1.6-1.7-2.1-.4-.3-1-.4-1.5-.4s-1.1.3-1.6.6c-1,.7-1.8,1.7-2.4,2.5-.7.9-1.2,1.7-1.6,2.4-.8,1.5-1.1,2.4-1.2,2.4h.2Z"/>
              <path class="cls-6" d="M57.1,108.7c0,0-1.3,1.2-2.6,2.9-1.3,1.8-1.8,3.4-2,3.4s.2-1.9,1.5-3.7c1.3-1.8,3-2.8,3-2.7h0Z"/>
              <path class="cls-6" d="M52.6,150.8c0-.1,1.6-2.1,3.2-4.8,1.6-2.8,2.5-5.2,2.7-5.2s-.5,2.6-2.2,5.4c-1.6,2.8-3.6,4.7-3.7,4.6Z"/>
              <polygon class="cls-8" points="61.6 159 42.5 142.1 39.3 142.2 58.2 159.1 61.6 159"/>
            </g>
          </g>
        </g>
      </g>
    </g>
  </g>
</svg>