<?xml version="1.0" encoding="UTF-8"?>
<svg xmlns="http://www.w3.org/2000/svg" viewBox="0 0 403.85 415.31">
  <defs>
    <style>
      .cls-1 {
        fill: #ffbe9d;
      }

      .cls-2 {
        fill: #ebebeb;
      }

      .cls-3 {
        fill: #263238;
      }

      .cls-4 {
        fill: #eb996e;
      }

      .cls-5 {
        fill: #fafafa;
      }

      .cls-6 {
        opacity: .7;
      }

      .cls-7 {
        opacity: .2;
      }

      .cls-8 {
        opacity: .3;
      }

      .cls-9 {
        fill: #f5f5f5;
      }

      .cls-10 {
        fill: #455a64;
      }

      .cls-11 {
        fill: #cae9eb;
      }

      .cls-12 {
        fill: #e0e0e0;
      }
    </style>
  </defs>
  <g id="Background_Complete">
    <g>
      <path class="cls-9" d="M13.51,187.47v47.64c0,8.62,6.99,15.61,15.61,15.61h170.81c8.62,0,15.61-6.99,15.61-15.61v-40.25l21.26-22.34-207.63-.65c-8.64-.03-15.65,6.97-15.65,15.61Z"/>
      <polygon class="cls-12" points="190.35 200.73 35.36 200.01 35.37 195.25 190.37 195.96 190.35 200.73"/>
      <polygon class="cls-12" points="190.35 216.4 35.36 215.68 35.37 210.92 190.37 211.64 190.35 216.4"/>
      <rect class="cls-12" x="157.32" y="198.48" width="4.76" height="61.33" transform="translate(-70.23 387.71) rotate(-89.72)"/>
    </g>
    <g>
      <path class="cls-9" d="M171.78,352.07v47.64c0,8.62,6.99,15.61,15.61,15.61h170.81c8.62,0,15.61-6.99,15.61-15.61v-40.25l21.26-22.34-207.63-.65c-8.64-.03-15.65,6.97-15.65,15.61Z"/>
      <polygon class="cls-12" points="349.37 364.09 194.37 363.37 194.39 358.61 349.38 359.32 349.37 364.09"/>
      <polygon class="cls-12" points="349.37 379.76 194.37 379.05 194.39 374.28 349.38 375 349.37 379.76"/>
      <rect class="cls-12" x="316.33" y="361.84" width="4.76" height="61.33" transform="translate(-75.36 709.28) rotate(-89.72)"/>
    </g>
    <path class="cls-9" d="M104.81,8.03h100.74c4.99,0,9.03,4.04,9.03,9.03v49.28c0,4.99-4.04,9.03-9.03,9.03h-85.49c-4.99,0-9.03-4.04-9.03-9.03V14.25l-6.23-6.23Z"/>
    <g>
      <path class="cls-12" d="M163.21,55.93v31.59c0,5.72-4.63,10.35-10.35,10.35H39.58c-5.72,0-10.35-4.63-10.35-10.35v-26.7l-14.1-14.82,137.71-.43c5.73-.02,10.38,4.62,10.38,10.35Z"/>
      <polygon class="cls-9" points="45.93 64.72 148.73 64.25 148.72 61.09 45.91 61.56 45.93 64.72"/>
      <polygon class="cls-9" points="45.93 75.12 148.73 74.64 148.72 71.48 45.91 71.96 45.93 75.12"/>
      <rect class="cls-9" x="45.92" y="81.99" width="40.68" height="3.16" transform="translate(-.41 .33) rotate(-.28)"/>
    </g>
    <g>
      <path class="cls-12" d="M377.83,202.44v31.59c0,5.72-4.63,10.35-10.35,10.35h-113.29c-5.72,0-10.35-4.63-10.35-10.35v-26.7l-14.1-14.82,137.71-.43c5.73-.02,10.38,4.62,10.38,10.35Z"/>
      <polygon class="cls-9" points="260.54 211.23 363.34 210.76 363.33 207.6 260.53 208.07 260.54 211.23"/>
      <polygon class="cls-9" points="260.54 221.63 363.34 221.15 363.33 217.99 260.53 218.47 260.54 221.63"/>
      <rect class="cls-9" x="260.53" y="228.5" width="40.68" height="3.16" transform="translate(-1.13 1.39) rotate(-.28)"/>
    </g>
  </g>
  <g id="Plants">
    <g>
      <path class="cls-11" d="M280.78,359.29c-16.93-16.49-17.21-41.99-12.8-64.15.73-3.7.97-7.69,3.27-10.66,2.3-2.97,6.8-4.53,9.87-2.42,2.55,1.75,3.23,5.16,4.34,8.07,1.48,3.87,4.06,7.3,7.36,9.76,2.17,1.62,4.98,2.85,7.53,1.94,3.5-1.25,4.6-5.62,5.19-9.32,1.09-6.9,2.17-13.81,3.26-20.71.58-3.7,1.19-7.48,2.92-10.81s4.8-6.17,8.48-6.58c3.68-.41,7.7,2.33,7.85,6.08.06,1.56-.5,3.07-.65,4.62-.15,1.55.29,3.37,1.68,4.04,1.41.68,3.06-.13,4.34-1.03,4.43-3.11,7.81-7.5,11.02-11.89,3.21-4.39,6.36-8.9,10.49-12.41,4.13-3.51,9.45-5.95,14.8-5.38,5.35.57,10.46,4.76,10.95,10.18.49,5.44-3.42,10.23-7.42,13.91-5.94,5.46-12.66,10.05-19.88,13.58-1.3.64-2.71,1.32-3.38,2.62-1.21,2.34.73,5.17,3.03,6.38,2.61,1.37,5.65,1.57,8.48,2.39,2.83.81,5.75,2.6,6.39,5.5.9,4.03-2.92,7.48-6.45,9.56-7.08,4.18-14.87,7.12-22.92,8.66-2.88.55-5.89.95-8.4,2.51-2.51,1.55-4.38,4.66-3.48,7.48.9,2.83,4.17,4.22,7.1,4.16,2.94-.06,5.74-1.19,8.63-1.77,5.4-1.09,11.91.34,14.45,5.27,1.67,3.24,1.2,7.29-.45,10.56-1.65,3.27-4.33,5.87-7.11,8.23-9.72,8.23-21.41,14.22-33.87,16.38-12.46,2.16-23.58,1.48-34.6-4.73"/>
      <path class="cls-3" d="M277.78,375.76c2.25-8.7,5.9-18.81,11.04-29.5,5.12-10.71,11.71-21.98,19-33.54,1.83-2.88,3.65-5.73,5.43-8.54,1.79-2.8,3.56-5.57,5.47-8.18,3.79-5.23,7.82-9.97,11.8-14.35,3.97-4.38,7.9-8.4,11.6-12.12,3.71-3.72,7.24-7.12,10.58-10.09,6.67-5.95,12.61-10.11,16.81-12.8,2.1-1.35,3.75-2.35,4.89-3,.54-.31.97-.56,1.29-.74.29-.16.45-.24.45-.23,0,.01-.13.11-.42.29-.31.2-.73.46-1.26.8-1.11.7-2.75,1.73-4.82,3.11-4.14,2.75-10.02,6.96-16.63,12.94-3.31,2.98-6.81,6.39-10.5,10.13-3.68,3.74-7.59,7.76-11.54,12.15-3.95,4.38-7.96,9.11-11.72,14.32-1.89,2.59-3.65,5.35-5.44,8.15-1.78,2.81-3.59,5.65-5.43,8.53-7.29,11.55-13.88,22.78-19.02,33.45-5.16,10.65-8.83,20.7-11.14,29.35"/>
      <path class="cls-3" d="M318.93,296.01s-.08-.58-.1-1.64c-.03-1.05-.02-2.58.03-4.47.08-3.77.37-8.97.71-14.71.34-5.74.55-10.93.58-14.69.02-1.88.01-3.4,0-4.45,0-1.05,0-1.64.06-1.64.05,0,.12.58.21,1.63.1,1.05.17,2.58.22,4.46.1,3.77-.03,8.99-.37,14.73-.35,5.66-.67,10.78-.91,14.69-.1,1.77-.18,3.26-.25,4.45-.06,1.05-.12,1.63-.17,1.63Z"/>
      <path class="cls-3" d="M367.95,294.91s-.7.01-1.93-.08c-1.24-.09-3.03-.23-5.25-.34-4.43-.24-10.57-.36-17.35-.2-6.78.17-12.91.59-17.33,1.02-2.21.2-4,.41-5.24.55-1.24.14-1.92.2-1.93.15,0-.05.67-.19,1.89-.42,1.23-.22,3.01-.5,5.22-.77,4.42-.56,10.57-1.06,17.37-1.23,6.8-.16,12.95.04,17.39.41,2.22.17,4.01.38,5.24.56,1.23.18,1.91.3,1.9.35Z"/>
      <path class="cls-3" d="M289.55,345.48s-.1-.21-.23-.63c-.14-.5-.32-1.11-.53-1.85-.45-1.61-1.05-3.96-1.75-6.88-1.4-5.83-3.09-13.93-4.83-22.91-1.74-8.98-3.35-17.09-4.63-22.93-.63-2.84-1.15-5.18-1.54-6.92-.16-.75-.3-1.38-.41-1.89-.09-.43-.12-.66-.1-.67.02,0,.1.21.23.63.14.5.32,1.11.53,1.85.45,1.61,1.05,3.96,1.75,6.88,1.4,5.83,3.09,13.93,4.83,22.91,1.74,8.97,3.35,17.08,4.62,22.93.63,2.84,1.15,5.18,1.54,6.92.16.75.3,1.38.41,1.89.09.43.12.66.1.67Z"/>
      <path class="cls-3" d="M356.1,335.46s-.23.08-.67.16c-.52.08-1.16.19-1.94.31-1.79.27-4.2.64-7.13,1.09-6.02.92-14.32,2.28-23.49,3.8-9.17,1.52-17.49,2.81-23.53,3.6-3.02.4-5.47.69-7.16.87-.78.07-1.43.13-1.95.19-.45.03-.68.04-.69.02,0-.02.23-.08.67-.16.52-.08,1.16-.19,1.94-.31,1.79-.27,4.19-.64,7.13-1.09,6.02-.92,14.32-2.28,23.49-3.8,9.17-1.52,17.49-2.81,23.53-3.6,3.02-.4,5.47-.69,7.16-.87.78-.07,1.43-.14,1.95-.19.45-.03.68-.04.69-.02Z"/>
    </g>
    <g>
      <path class="cls-10" d="M112.56,134.43c-3.09-2.4-4.47-6.64-3.83-10.5.65-3.86,3.14-7.27,6.36-9.48,1.49-1.02,3.34-1.83,5.08-1.32,1.62.48,2.75,2.05,3.08,3.71.33,1.66-.03,3.38-.58,4.98-1.9,5.48-4.74,10.44-10.11,12.62"/>
      <path class="cls-10" d="M107.49,143.79c-6.09-5.56-14.98-7.88-23.01-6.02-2.05.47-4.35,1.55-4.69,3.63-.34,2.08,1.52,3.84,3.34,4.89,7.57,4.39,17.83,3.56,24.6-1.98"/>
      <path class="cls-10" d="M78.13,100.45c3.38-.93,7.08-.09,10.07,1.73,2.99,1.82,5.33,4.56,7.2,7.52,3.62,5.72,4.9,13.42,5.06,20.19-7.52-.3-13.94-6.21-17.01-9.42-4.85-5.06-10.55-17.16-5.32-20.03"/>
      <path class="cls-3" d="M118.86,154.02c-.44-.8-1.16-1.36-1.88-2.83-1.41-2.93-3.31-7.11-4.23-12.07-.92-4.97-.3-9.67.94-12.73.6-1.54,1.28-2.71,1.82-3.45.54-.75.89-1.11.93-1.09.13.08-1.2,1.66-2.24,4.72-1.07,3.03-1.59,7.57-.7,12.42.9,4.85,2.69,9,3.98,11.98"/>
      <path class="cls-3" d="M118.93,154.11c-1.01-1.3-2.32-3-3.92-5.05-3.29-4.27-7.86-10.16-12.99-16.6-5.13-6.43-9.85-12.2-13.28-16.36-1.64-2.01-3.01-3.67-4.05-4.94-.95-1.17-1.45-1.84-1.42-1.87.04-.03.62.57,1.64,1.68,1.02,1.11,2.47,2.75,4.23,4.79,3.54,4.08,8.33,9.8,13.46,16.24,5.13,6.45,9.64,12.39,12.82,16.75,1.59,2.18,2.87,3.95,3.72,5.2"/>
      <path class="cls-3" d="M89.17,142.21c-.01-.05.45-.19,1.3-.4.43-.11.95-.23,1.57-.3.62-.08,1.32-.21,2.11-.23,1.57-.12,3.45-.06,5.52.21,2.06.31,4.3.85,6.56,1.71,2.24.89,4.26,2.01,5.99,3.17,1.71,1.2,3.14,2.43,4.21,3.58.57.54,1,1.12,1.4,1.59.41.47.72.91.96,1.28.49.73.42,1.07.38,1.1-.12.09-.89-1.45-3.11-3.6-1.1-1.08-2.54-2.24-4.23-3.38-1.71-1.1-3.69-2.18-5.87-3.04-2.2-.84-4.38-1.38-6.38-1.72-2.01-.3-3.85-.42-5.4-.37-3.09.08-4.98.53-5.01.39Z"/>
    </g>
  </g>
  <g id="Device">
    <g>
      <g>
        <path class="cls-3" d="M256.93,397.37l-115.5-.53c-13.89-.06-25.1-11.37-25.04-25.27l1.22-289.56c.06-13.9,11.38-25.12,25.28-25.05l115.5.53c13.89.06,25.1,11.37,25.04,25.27l-1.22,289.56c-.06,13.9-11.38,25.12-25.28,25.05Z"/>
        <path class="cls-5" d="M258.22,67.48l-22.39-.1c-3-.01-5.45,2.52-5.46,5.66l-.02,4.06c-.01,3.14-2.46,5.67-5.46,5.66l-43.65-.2c-3-.01-5.43-2.57-5.41-5.71l.02-4.06c.01-3.14-2.41-5.7-5.41-5.71l-7.88-.04-19.6-.09c-9.73-.04-17.66,7.81-17.7,17.55l-1.19,282.63c-.04,9.73,7.81,17.65,17.54,17.7l115.27.53c9.73.05,17.66-7.81,17.7-17.55l1.19-282.63c.04-9.73-7.81-17.65-17.54-17.69Z"/>
      </g>
      <path class="cls-10" d="M192.98,358.3c0,1.13-1.07,2.04-2.39,2.03-1.31,0-2.37-.93-2.37-2.05,0-1.13,1.07-2.04,2.39-2.03,1.31,0,2.37.93,2.37,2.05Z"/>
      <path class="cls-10" d="M200.35,358.33c0,1.13-1.07,2.04-2.39,2.03-1.31,0-2.37-.93-2.37-2.05,0-1.13,1.07-2.04,2.39-2.03s2.37.93,2.37,2.05Z"/>
      <path class="cls-10" d="M207.72,358.37c0,1.13-1.07,2.04-2.39,2.03-1.31,0-2.37-.93-2.37-2.05,0-1.13,1.07-2.04,2.39-2.03,1.31,0,2.37.93,2.37,2.05Z"/>
    </g>
    <path class="cls-2" d="M159.7,203.74c1.88.27,115.18,22.49,115.18,22.49v-22.49h-115.18Z"/>
    <path class="cls-2" d="M124.05,346.53s123.26-17.44,122.18-16.9c-1.07.54-122.18,0-122.18,0v16.9Z"/>
    <path class="cls-3" d="M267.19,16.54c.14,0,.26,6.23.26,13.92s-.12,13.92-.26,13.92-.26-6.23-.26-13.92.12-13.92.26-13.92Z"/>
    <path class="cls-3" d="M316.51,48.57c.06.13-5.6,2.75-12.63,5.86-7.03,3.1-12.78,5.51-12.84,5.38-.06-.13,5.59-2.75,12.63-5.86,7.03-3.1,12.78-5.51,12.84-5.38Z"/>
    <path class="cls-3" d="M315.27,0s-.08.19-.27.53c-.22.39-.51.87-.85,1.47-.75,1.28-1.86,3.11-3.26,5.35-2.8,4.49-6.83,10.6-11.39,17.26-4.57,6.66-8.64,12.73-11.52,17.16-1.41,2.18-2.56,3.96-3.4,5.26-.38.58-.69,1.05-.94,1.42-.22.32-.34.49-.36.48-.02,0,.08-.19.27-.53.22-.39.51-.87.85-1.47.75-1.28,1.86-3.1,3.26-5.35,2.8-4.49,6.83-10.6,11.4-17.26,4.56-6.66,8.64-12.72,11.51-17.16,1.41-2.18,2.56-3.96,3.4-5.26.38-.58.69-1.05.94-1.42.22-.32.34-.49.36-.48Z"/>
  </g>
  <g id="Speech_Bubbles">
    <g>
      <path class="cls-11" d="M384.41,117.73h-225.44c-4.87,0-8.82,3.95-8.82,8.82v69.93c0,4.87,3.95,8.82,8.82,8.82h16.8c1.35,7.3,2.94,16.52,2.94,16.52l15.2-16.52h190.51c4.87,0,8.82-3.95,8.82-8.82v-69.93c0-4.87-3.95-8.82-8.82-8.82Z"/>
      <g>
        <path class="cls-9" d="M291.39,155.66c0,.14-26.83.26-59.92.26s-59.93-.12-59.93-.26,26.83-.26,59.93-.26,59.92.12,59.92.26Z"/>
        <path class="cls-9" d="M291.39,144.91c0,.14-26.83.26-59.92.26s-59.93-.12-59.93-.26,26.83-.26,59.93-.26,59.92.12,59.92.26Z"/>
        <path class="cls-9" d="M291.39,166.29c0,.14-26.83.26-59.92.26s-59.93-.12-59.93-.26,26.83-.26,59.93-.26,59.92.12,59.92.26Z"/>
        <path class="cls-9" d="M250.05,177.31c0,.14-17.58.26-39.25.26s-39.25-.12-39.25-.26,17.57-.26,39.25-.26,39.25.12,39.25.26Z"/>
      </g>
    </g>
    <g>
      <path class="cls-10" d="M282.55,243.45H55.25c-3.41,0-6.17,2.76-6.17,6.17v73.99c0,3.41,2.76,6.17,6.17,6.17h165.08l15.03,16.33s1.58-9.18,2.9-16.33h44.28c3.41,0,6.17-2.76,6.17-6.17v-73.99c0-3.41-2.76-6.17-6.17-6.17Z"/>
      <g>
        <path class="cls-9" d="M273.63,281.61c0,.14-26.83.26-59.92.26s-59.93-.12-59.93-.26,26.83-.26,59.93-.26,59.92.12,59.92.26Z"/>
        <path class="cls-9" d="M273.63,270.86c0,.14-26.83.26-59.92.26s-59.93-.12-59.93-.26,26.83-.26,59.93-.26,59.92.12,59.92.26Z"/>
        <path class="cls-9" d="M273.63,292.24c0,.14-26.83.26-59.92.26s-59.93-.12-59.93-.26,26.83-.26,59.93-.26,59.92.12,59.92.26Z"/>
        <path class="cls-9" d="M232.28,303.25c0,.14-17.58.26-39.25.26s-39.25-.12-39.25-.26,17.57-.26,39.25-.26,39.25.12,39.25.26Z"/>
      </g>
    </g>
  </g>
  <g id="Character_2">
    <g>
      <g>
        <path class="cls-3" d="M327.73,88.07c.13-1.84-1.51-4.37-3.02-5.83-1.52-1.46-2.46-3.43-1.67-6.37.61-2.27,2.05-2.1,2.62-3.44.42-.99.24-2.12.33-3.19.3-3.68,4.34-6.56,7.92-5.64,1.01-3.5,4.27-6.23,7.89-6.6,3.62-.38,7.37,1.62,9.08,4.84,2.07-1.07,4.67-1.04,6.7.1s3.44,3.32,3.61,5.65c2.01-1.45,5.1-.89,6.7,1.01s1.69,4.82.48,6.99c-1.21,2.17-3.55,3.58-6.01,3.96s-4.99-.2-7.22-1.31c-2.22-1.11-4.16-2.72-5.92-4.47"/>
        <ellipse class="cls-12" cx="344.08" cy="160.71" rx="43.29" ry="42.28"/>
        <g>
          <g>
            <path class="cls-4" d="M387.55,160.74l-4.79-12.29-17.17,10.79,15.3,23.6s6.22-8.09,6.66-22.1Z"/>
            <g>
              <g>
                <g>
                  <g>
                    <path class="cls-1" d="M340.14,134.14h0c6.17,0,11.26-4.78,11.57-10.89.25-5.09.47-9.99.47-9.99,0,0,9.45-.68,10.32-9.92.87-9.24.99-30.59.99-30.59h0c-10.42-5.47-23.01-4.92-32.91,1.43l-.9.58-1.09,47.79c-.07,6.37,5.12,11.58,11.55,11.59Z"/>
                    <g>
                      <path class="cls-3" d="M345.56,86.95c.71.23,1.1,1,.86,1.7-.24.71-1.01,1.09-1.72.85-.71-.23-1.1-1-.86-1.7.24-.71,1.01-1.09,1.72-.85Z"/>
                      <path class="cls-3" d="M348.15,87.43c-.16.15-1.03-.6-2.32-.68-1.29-.1-2.26.52-2.39.35-.07-.08.1-.36.52-.64.42-.28,1.12-.53,1.92-.48.8.06,1.46.41,1.83.75.38.34.5.64.43.71Z"/>
                    </g>
                    <g>
                      <path class="cls-3" d="M359.66,86.95c.71.23,1.1,1,.86,1.7-.24.71-1.01,1.09-1.72.85-.71-.23-1.1-1-.86-1.7.24-.71,1.01-1.09,1.72-.85Z"/>
                      <path class="cls-3" d="M362.42,87.46c-.16.15-1.03-.6-2.32-.68-1.29-.1-2.26.52-2.39.35-.07-.08.1-.36.52-.64.42-.28,1.12-.53,1.92-.48.8.06,1.46.41,1.83.75.38.34.5.64.43.71Z"/>
                    </g>
                    <path class="cls-3" d="M352.72,97.45c0-.1.81-.2,2.11-.27.34,0,.61-.06.65-.24.08-.2-.02-.56-.16-.97-.26-.87-.53-1.75-.8-2.67-1.1-3.8-1.84-6.92-1.64-6.98.19-.06,1.25,2.98,2.35,6.78.26.93.51,1.81.75,2.68.09.4.29.86.07,1.4-.12.27-.4.45-.62.48-.23.05-.42.03-.58.03-1.31-.06-2.12-.14-2.12-.25Z"/>
                    <path class="cls-4" d="M352.2,113.13s-5.93,0-11.88-4.41c0,0,2.33,6.89,11.71,6.8l.17-2.4Z"/>
                  </g>
                  <g>
                    <path class="cls-1" d="M329.45,88.32c0-.75-.57-1.39-1.32-1.43-1.74-.08-4.61.55-4.97,5.31-.51,6.8,6.13,5.23,6.15,5.04.02-.15.1-6.27.13-8.92Z"/>
                    <path class="cls-4" d="M327.86,94.53s-.13.07-.33.15c-.2.07-.55.11-.89-.05-.7-.32-1.23-1.5-1.17-2.73.03-.62.2-1.2.46-1.67.25-.48.6-.81.97-.84.37-.06.61.18.68.38.08.2.02.33.06.34.02.02.16-.1.12-.39-.02-.14-.09-.3-.24-.45-.15-.14-.39-.23-.65-.22-.53,0-1.04.44-1.33.96-.31.52-.52,1.17-.56,1.86-.06,1.37.55,2.71,1.52,3.07.47.16.89.05,1.11-.1.23-.15.27-.3.25-.32Z"/>
                  </g>
                </g>
                <path class="cls-3" d="M342.06,83.81c.34.44,1.52.23,3.06.17,1.53-.12,2.73-.06,3.01-.54.32-.49-1.17-1.63-3.14-1.46-1.98.08-3.31,1.39-2.93,1.84Z"/>
                <path class="cls-3" d="M357.04,83.36c.19.59,1.31.77,2.56.76,1.25-.03,2.37-.23,2.54-.83.18-.58-.96-1.42-2.57-1.39-1.61.02-2.72.88-2.53,1.46Z"/>
              </g>
              <path class="cls-3" d="M364.8,75.67s-5.6,2.71-12.9-.93c-4.79-2.39-10.36-3.56-11.59-2.59-1.23.96-1.49,5.89-6.23,7.33,0,0,.33,9.41-3.43,9.07-3.75-.34-1.41-14.91-1.41-14.91l9.18-4.48,10.01-1.89,9.44,1.33,7.3,2-.37,5.07Z"/>
            </g>
            <g>
              <g>
                <path class="cls-10" d="M301.99,130.11c9.81-10.09,27.07-8.98,27.07-8.98l14.31,10.24,8.11-9.45s8.53.94,16.52,5.11l.55.17v.11c6.27,3.41,15.16,11.58,23.62,19.51l-10.13,9.4-11.21,9.95s.04.07.02.2c-.12.6,1.56,14.3,3.28,24.7-10.21,9.75-23.23,13.92-37.68,11.38-4.59-.8-6.81-1.92-11.05-3.04-6.28-1.65-10.83-7.09-11.39-13.56h0c-.76-8.72-1.35-19.52-1.35-19.52"/>
                <path class="cls-3" d="M360.45,123.69s.25.56.62,1.61c.37,1.05.87,2.57,1.46,4.46,1.18,3.78,2.69,9.05,4.11,14.93,1.42,5.88,2.48,11.26,3.16,15.16.34,1.95.59,3.54.74,4.63.15,1.1.22,1.71.19,1.71s-.17-.59-.39-1.68c-.23-1.17-.53-2.72-.9-4.6-.77-3.88-1.89-9.24-3.3-15.11-1.42-5.87-2.86-11.14-3.95-14.95-.53-1.84-.97-3.36-1.3-4.51-.3-1.06-.46-1.66-.42-1.67Z"/>
                <path class="cls-3" d="M369.67,159.74c-.09-.11,4.19-3.75,9.55-8.12,5.37-4.37,9.79-7.83,9.88-7.72.09.11-4.19,3.75-9.55,8.12-5.37,4.37-9.79,7.83-9.88,7.72Z"/>
                <path class="cls-7" d="M314.94,143.96l-8.78,28.87,3.27,1.7,3.22-8.17s3.31-17.15,2.29-22.41Z"/>
                <g class="cls-7">
                  <path d="M359.5,123.7c4.73,2.49-7.13,8.5-12.48,8.34l3.89-10.26s7.01,1.09,8.59,1.93Z"/>
                </g>
              </g>
              <path class="cls-10" d="M327.65,121.78v-7.65s14.93,3.84,15.48,12.78c0,0,1.9-9.88,9.59-10.35l1.09,13.89-8.95,7.79h-9.08l-7.19-6.2-.94-9.65"/>
              <path class="cls-3" d="M346.49,169.77s-.04-.59-.03-1.64c.02-1.06.04-2.59.05-4.47.01-3.78-.11-8.99-.58-14.73-.48-5.74-1.22-10.91-1.86-14.63-.32-1.79-.58-3.28-.78-4.4-.19-1.04-.28-1.62-.25-1.63.03,0,.19.56.44,1.58.26,1.03.58,2.52.95,4.38.73,3.71,1.54,8.89,2.02,14.65.48,5.76.54,11,.43,14.78-.05,1.89-.13,3.42-.21,4.48-.08,1.06-.14,1.64-.18,1.64Z"/>
              <path class="cls-3" d="M342.44,124.34s-.34-.13-.89.08c-.57.18-1.08.89-1.5,1.91-.92,1.99-2.05,4.85-2.84,8.26l-.08.34-.3-.18c-.89-.54-1.81-1.12-2.73-1.75-1.78-1.21-3.42-2.45-4.84-3.68-.72-.62-1.31-1.36-1.65-2.16-.34-.8-.47-1.59-.5-2.31-.06-1.44.18-2.57.33-3.34.17-.77.29-1.19.33-1.18.04,0-.02.44-.13,1.22-.09.78-.27,1.91-.16,3.29.06.68.2,1.43.53,2.15.33.72.87,1.39,1.57,1.97,1.41,1.18,3.05,2.41,4.82,3.61.91.62,1.82,1.2,2.7,1.74l-.38.16c.82-3.45,2.03-6.32,3.04-8.29.25-.49.49-.94.79-1.29.29-.35.65-.56.95-.65.63-.18.97.08.94.09Z"/>
              <path class="cls-3" d="M352.72,116.56s.08.42.14,1.19c.06.88.14,1.97.24,3.25.11,1.37.28,3,.56,4.79.11.89.42,1.85.18,2.93-.31,1.07-1.11,1.87-1.96,2.51-1.2.89-2.45,1.55-3.29,2.5l-.4.45-.04-.6c-.21-3.16-1.26-5.76-2.21-7.45-.95-1.7-1.73-2.58-1.67-2.63.02-.02.23.18.59.59.35.41.84,1.03,1.35,1.88,1.04,1.68,2.19,4.32,2.43,7.57l-.44-.15c.91-1.04,2.21-1.73,3.35-2.58.81-.61,1.53-1.36,1.78-2.22.21-.88-.05-1.83-.16-2.74-.26-1.81-.39-3.46-.45-4.84-.07-1.38-.08-2.5-.07-3.27,0-.77.03-1.2.06-1.2Z"/>
            </g>
          </g>
          <g>
            <g>
              <path class="cls-3" d="M400.79,118.48c-.61.72-22.59,30.11-22.59,30.11l3.1,1.75,22.56-29.02-3.06-2.84Z"/>
              <path class="cls-1" d="M312.47,141.72s23.13,33.29,24.52,33.95c2.75,1.29,34.39-26.06,37.41-28.67.42-.56,1.27-1.73,2.96-4.06,0,0,2.5-11.42,5.16-10.55,2.66.88-1.46,5.81.28,10.15,1.74,4.34,9.68-6.01,10-6.94l2.05-2.68s2.15,6.09,2,8.64c-.47,8.15-8.18,17.84-8.18,17.84,0,0-34.63,42.9-58.35,44.23-6.83.38-18.97-19-27.09-33.54-4.9-8.78-2.46-19.84,5.67-25.76l3.57-2.61Z"/>
              <path class="cls-4" d="M392.95,143c-.08-.05.66-1.36,1.48-3.02.82-1.66,1.41-3.04,1.5-3.01.08.03-.39,1.47-1.22,3.15-.83,1.68-1.69,2.92-1.76,2.88Z"/>
            </g>
            <g>
              <path class="cls-10" d="M308.55,125.47s-24.83,8.83-6.37,50.57l28.66-17.3-4.08-9.76-18.21-23.51Z"/>
              <path class="cls-3" d="M306.65,126.19s1.08-.18,2.99.25c.94.24,2.07.66,3.26,1.37,1.19.71,2.42,1.71,3.62,2.97,2.41,2.51,4.66,6.02,6.74,10.07,2.1,4.06,4.06,8.68,6.07,13.54.6,1.45,1.2,2.89,1.76,4.25l.09.22-.2.11c-8.29,4.52-15.51,8.75-20.62,11.92-2.55,1.58-4.59,2.88-5.98,3.78-.67.43-1.2.77-1.61,1.03-.37.23-.57.35-.58.33,0-.01.17-.16.52-.41.35-.26.87-.64,1.56-1.11,1.36-.95,3.37-2.3,5.9-3.92,5.06-3.25,12.26-7.54,20.55-12.08l-.11.33c-.56-1.36-1.16-2.79-1.76-4.25-2.01-4.86-3.95-9.47-6.02-13.52-2.05-4.05-4.25-7.54-6.58-10.04-1.16-1.25-2.35-2.25-3.5-2.97-1.15-.72-2.24-1.16-3.15-1.43-1.85-.48-2.94-.37-2.94-.45Z"/>
            </g>
          </g>
        </g>
        <path class="cls-10" d="M360.05,64.3s.06.15.12.44c.05.29.11.73.07,1.3-.06,1.11-.46,2.83-1.89,4.33-1.39,1.5-4.02,2.45-6.68,1.69-1.3-.38-2.62-1.17-3.42-2.48-.39-.65-.62-1.45-.51-2.26.11-.79.51-1.59,1.23-2.06.72-.49,1.67-.48,2.4-.15.74.31,1.35.92,1.64,1.65.59,1.47.15,3.05-.66,4.16-1.72,2.28-4.83,2.46-6.56,1.43-.91-.42-1.71-.81-2.47-.95-.75-.15-1.42-.02-1.91.2-.98.47-1.38.99-1.42.94-.01-.01.09-.13.29-.34.1-.11.23-.24.41-.37.17-.13.37-.29.64-.41.5-.27,1.23-.44,2.05-.3.82.12,1.66.51,2.57.9.46.18.93.39,1.44.48.5.09,1.06.08,1.61-.03,1.1-.2,2.23-.8,2.97-1.82.72-.99,1.08-2.44.57-3.68-.45-1.21-2.13-2.02-3.29-1.26-.56.37-.91,1.03-1,1.7-.1.67.09,1.35.44,1.93.7,1.16,1.91,1.92,3.12,2.28,2.47.74,4.95-.11,6.29-1.49,1.39-1.38,1.84-3.01,1.95-4.09.12-1.1-.05-1.71,0-1.72Z"/>
        <path class="cls-3" d="M354.65,102.01c.01.06-.31.19-.86.22-.55.03-1.32-.1-2.08-.48-.75-.38-1.31-.93-1.62-1.39-.31-.46-.39-.79-.33-.82.13-.08.8,1.06,2.19,1.74,1.37.71,2.68.57,2.7.72Z"/>
        <path class="cls-3" d="M328.42,97.59s.33.44-.04,1.13c-.18.32-.51.67-1.02.81-.51.14-1.12-.02-1.55-.41-.44-.38-.68-.94-.66-1.45.02-.51.23-.92.46-1.2.48-.56.97-.62.98-.56.04.08-.35.25-.68.78-.34.49-.47,1.45.24,2.04.33.28.75.41,1.1.33.36-.07.64-.3.82-.54.36-.49.27-.92.35-.93Z"/>
        <path class="cls-10" d="M361.7,67.67s.42.64.48,1.84c.07,1.17-.27,2.92-1.48,4.33-1.23,1.41-2.9,1.99-4.08,2.08-1.19.11-1.9-.17-1.89-.22.01-.09.73.04,1.84-.15,1.09-.18,2.61-.78,3.73-2.06,1.11-1.29,1.49-2.88,1.51-3.98.03-1.13-.2-1.82-.11-1.84Z"/>
      </g>
      <path class="cls-12" d="M327.88,151.34c.06.13-6.53,3.52-14.73,7.57-8.2,4.05-14.89,7.23-14.96,7.11-.06-.13,6.53-3.52,14.73-7.57,8.2-4.05,14.89-7.23,14.96-7.11Z"/>
      <path class="cls-12" d="M321.87,139.99c.07.13-5.8,3.41-13.11,7.33-7.31,3.92-13.29,7-13.36,6.87s5.8-3.41,13.11-7.33c7.31-3.92,13.29-7,13.35-6.87Z"/>
      <path class="cls-12" d="M316.07,130.82c.03.07-1.1.71-2.94,1.74-1.97,1.1-4.44,2.48-7.18,4.01-2.72,1.55-5.19,2.96-7.14,4.07-1.83,1.04-2.97,1.68-3.01,1.61-.04-.06,1.03-.8,2.82-1.93,1.78-1.13,4.28-2.63,7.08-4.21,2.8-1.58,5.38-2.94,7.26-3.88,1.89-.94,3.08-1.47,3.11-1.41Z"/>
      <path class="cls-12" d="M338.03,128.65c-.01.06-.78-.04-1.93-.52-1.15-.47-2.64-1.37-4.04-2.63-1.41-1.26-2.5-2.57-3.26-3.53-.76-.97-1.18-1.59-1.13-1.64.06-.05.58.5,1.41,1.4.83.9,1.95,2.15,3.33,3.38,1.37,1.23,2.78,2.15,3.85,2.69,1.07.55,1.8.77,1.78.85Z"/>
      <path class="cls-12" d="M352.61,123.24c.13.04-.48,1.66-2.08,3-1.59,1.35-3.29,1.67-3.31,1.54-.05-.15,1.49-.67,2.97-1.93,1.5-1.25,2.27-2.67,2.41-2.6Z"/>
      <path class="cls-12" d="M378.62,138.29s-.19.05-.56.1c-.43.05-.96.12-1.61.2-1.4.15-3.43.35-5.93.54-5.02.4-11.96.79-19.63,1.07-7.67.27-14.62.37-19.66.33-2.52-.02-4.55-.07-5.96-.12-.66-.03-1.19-.06-1.62-.08-.37-.02-.56-.05-.56-.06,0-.02.2-.03.57-.04.43,0,.96,0,1.62-.01,1.48-.01,3.49-.03,5.95-.05,5.03-.05,11.97-.21,19.64-.48,7.66-.28,14.6-.61,19.62-.92,2.45-.16,4.47-.28,5.94-.38.65-.04,1.19-.07,1.62-.1.37-.02.57-.02.57,0Z"/>
      <path class="cls-12" d="M370.72,150.14s-.58.13-1.64.26c-1.06.13-2.6.3-4.51.47-3.81.35-9.08.71-14.91.95-5.83.23-11.12.3-14.94.26-1.91-.02-3.46-.06-4.53-.1-1.07-.05-1.66-.09-1.66-.13,0-.04.59-.06,1.66-.08,1.16-.02,2.68-.04,4.53-.06,3.82-.05,9.1-.17,14.92-.41,5.82-.24,11.09-.54,14.91-.8,1.84-.12,3.36-.23,4.52-.3,1.07-.07,1.66-.09,1.66-.06Z"/>
      <path class="cls-12" d="M352.8,164.77c0,.07-1.26.26-3.31.47-2.06.21-4.9.44-8.05.6-3.15.16-6,.21-8.07.21-2.07,0-3.34-.07-3.34-.14,0-.07,1.28-.14,3.34-.23,2.21-.1,4.98-.22,8.05-.36,3.07-.17,5.84-.32,8.05-.44,2.06-.12,3.34-.17,3.34-.1Z"/>
      <path class="cls-12" d="M329.88,130.06c0,.15-3.07.18-6.85.34-3.78.15-6.84.37-6.85.22-.02-.14,3.03-.59,6.83-.74,3.79-.16,6.87.04,6.87.18Z"/>
      <path class="cls-12" d="M372.07,129.52c0,.14-3.98.25-8.89.23-4.91-.02-8.89-.15-8.88-.29,0-.14,3.98-.25,8.89-.23,4.91.02,8.88.15,8.88.29Z"/>
      <path class="cls-12" d="M373.6,190.37s-.31.22-.91.52c-.6.31-1.49.72-2.6,1.18-2.23.94-5.39,2.04-8.98,2.87-3.6.83-6.92,1.22-9.34,1.35-1.21.07-2.18.09-2.86.07-.67-.01-1.05-.04-1.05-.07,0-.08,1.49-.14,3.88-.37,2.39-.23,5.68-.67,9.25-1.49,3.57-.83,6.72-1.86,8.96-2.71,2.25-.84,3.61-1.44,3.65-1.37Z"/>
    </g>
  </g>
  <g id="Character_1">
    <g>
      <ellipse class="cls-12" cx="103.48" cy="285.19" rx="43.29" ry="41.3"/>
      <g>
        <path class="cls-3" d="M94.66,185.62c-6.87.36-9.56,7.52-10.39,9.12-.82,1.6-.95,3.45-1.1,5.24s-.36,3.65-1.32,5.17c-1.51,2.41-4.69,3.66-5.55,6.37-.98,3.07,1.53,6.35.86,9.5-.36,1.69-1.59,3.08-2.03,4.75-.46,1.75.02,3.63.93,5.19,2.26,3.87,6.93,5.82,11.41,5.98,4.48.16,8.86-1.18,13.15-2.51"/>
        <path class="cls-3" d="M124.88,194.52c-.67,1.45-.04,3.22,1.02,4.43,1.05,1.21,2.47,2.02,3.72,3.03,1.25,1,2.39,2.33,2.54,3.92.13,1.46-.6,2.92-.4,4.37.51,3.74,6.48,4.87,6.8,8.63.21,2.51-2.36,4.81-1.65,7.22.27.92.99,1.64,1.49,2.47,1.69,2.81.55,6.69-1.91,8.87-2.45,2.18-5.87,2.95-9.15,3.1-2.76.12-5.89-.33-7.52-2.56-1.49-2.04-1.18-4.83-.88-7.34,1.39-11.72,1.15-23.56.91-35.36"/>
        <g>
          <g>
            <path class="cls-1" d="M96.46,248.75c.05-6.16,0-12.64,0-12.64,0,0-7.92-1.41-9.44-11.78-1.45-9.89,1.01-31.15,1.01-31.15h0c11.47-4.52,24.38-2.77,32.41,6.46h0l-1.25,50c-.14,5.8-5.25,10.3-11.46,10.1h0c-6.28-.2-11.32-5.12-11.27-10.99Z"/>
            <g>
              <path class="cls-3" d="M90.18,209.51c-.03.7.53,1.31,1.26,1.35.73.05,1.35-.48,1.38-1.18.03-.7-.53-1.31-1.26-1.35-.73-.05-1.35.48-1.38,1.18Z"/>
              <path class="cls-3" d="M88.05,208.49c.16.18,1.18-.56,2.6-.54,2.69.39,2.64.8,2.62.57.08-.08-.09-.39-.54-.73-.45-.34-1.21-.67-2.1-.67-.89,0-1.64.31-2.08.64-.44.33-.6.64-.52.72Z"/>
            </g>
            <g>
              <path class="cls-3" d="M104.8,209.93c-.03.7.53,1.31,1.26,1.35.73.05,1.35-.48,1.38-1.18.03-.7-.53-1.31-1.26-1.35-.73-.05-1.35.48-1.38,1.18Z"/>
              <path class="cls-3" d="M102.94,208.98c.16.18,1.18-.56,2.6-.54,1.43,0,2.47.75,2.62.57.08-.08-.09-.39-.54-.73-.45-.34-1.21-.67-2.1-.67-.89,0-1.64.31-2.08.64-.44.33-.59.64-.52.72Z"/>
            </g>
            <path class="cls-3" d="M97.64,219.22c0-.08-.88-.24-2.31-.45-.36-.04-.71-.12-.77-.37-.08-.26.07-.66.26-1.08.35-.88.72-1.8,1.11-2.76,1.54-3.94,2.66-7.17,2.51-7.23-.16-.06-1.54,3.08-3.08,7.02-.37.97-.73,1.9-1.07,2.78-.14.41-.39.88-.21,1.43.09.27.36.47.59.54.23.07.44.08.62.09,1.45.09,2.34.11,2.35.03Z"/>
            <path class="cls-4" d="M96.45,236.11s6.96.53,13.9-3.54c0,0-3.44,7.07-13.79,5.98l-.11-2.44Z"/>
            <path class="cls-4" d="M98.2,222.67c.52-.67,1.43-1.04,2.32-.93.62.07,1.24.38,1.61.89.37.51.44,1.23.09,1.7-.39.54-1.2.65-1.88.45-.68-.2-1.26-.66-1.81-1.11-.15-.13-.31-.26-.4-.43-.09-.17-.11-.39,0-.53"/>
            <path class="cls-3" d="M101.83,220.26c-.23-.02-.25,1.53-1.59,2.62-1.34,1.09-2.99.9-3,1.11-.02.1.36.31,1.06.33.68.03,1.69-.18,2.5-.84.82-.67,1.18-1.56,1.24-2.2.07-.65-.1-1.03-.21-1.03Z"/>
          </g>
          <path class="cls-3" d="M115.95,192.26c-3.79,5.4-13.81,10.95-20.99,12.24.84-1.1,5.25-3.82,6.09-4.92-3.25,2.43-7.91,5.68-12.23,5.9-.51.03-1.06.02-1.48-.23-.57-.35-.69-1.03-.75-1.63-.28-2.53-.1-6.87.3-9.38.4-2.51,1.56-5.01,3.73-6.69,2.77-2.14,6.72-2.66,10.45-2.75,3.13-.08,6.35.11,9.21,1.24,2.86,1.13,5.3,3.36,5.72,6.04"/>
          <path class="cls-3" d="M126.8,216.45c.52-2.68.94-5.22,1.03-6.92.31-5.34-1.24-25.05-19.65-23.46l-.74,5.61s-2.85,19.19,9.06,19.34c0,0,.66,5.72,6.05,11.28,0,0,3.12-.09,4.24-5.84"/>
          <path class="cls-1" d="M116.51,211.01c1.11-.2,2.28-.16,3.33.25,1.05.41,1.97,1.2,2.41,2.24.44,1.04.39,2.25,0,3.31-.4,1.06-1.1,1.98-1.92,2.76-.58.56-1.25,1.08-2.02,1.31-.78.23-1.69.15-2.3-.38"/>
          <path class="cls-4" d="M117.04,217.73c-.13.04.35.71,1.36.45.49-.12.97-.55,1.26-1.08.3-.54.49-1.13.57-1.83.08-.69-.07-1.43-.45-1.95-.36-.54-.95-.86-1.44-.88-1.04-.04-1.37.68-1.25.7.08.09.49-.28,1.17-.11.65.13,1.28,1.03,1.13,2.15-.14,1.14-.59,2.17-1.2,2.43-.63.31-1.09.02-1.16.11Z"/>
        </g>
        <path class="cls-3" d="M118.52,190.23c1.41.8,3.14,1.03,4.7.62,1.57-.41,2.96-1.46,3.79-2.85.54-.9.84-1.99.58-3-.36-1.39-1.71-2.32-3.09-2.68-2.01-.52-4.29-.02-5.81,1.39-1.52,1.42-2.17,3.73-1.5,5.7.67,1.96,2.7,3.41,4.78,3.3"/>
        <path class="cls-3" d="M120.2,220.08c-1.02.74-2.06,1.49-2.86,2.47-.8.98-1.35,2.22-1.23,3.48.06.7.33,1.4.23,2.1-.14.96-.93,1.67-1.45,2.5-1.35,2.12-.77,5.1.94,6.95,1.7,1.85,4.29,2.68,6.8,2.77,1.46.05,2.99-.16,4.18-.99,1.72-1.21,2.38-3.46,2.43-5.57"/>
        <path class="cls-10" d="M121.45,194.36c.05.03-.31.78-1.09,1.89-.77,1.1-1.98,2.54-3.55,3.88-1.57,1.34-3.16,2.33-4.37,2.92-1.21.6-2.01.85-2.03.79-.08-.15,3-1.45,6.06-4.11,3.09-2.63,4.83-5.47,4.97-5.37Z"/>
        <path class="cls-10" d="M123.36,194.26c.06,0,.02.99-.34,2.52-.36,1.54-1.1,3.62-2.34,5.69-1.25,2.07-2.74,3.7-3.93,4.73-1.19,1.04-2.04,1.53-2.07,1.48-.12-.13,3.13-2.39,5.56-6.48,2.48-4.06,2.95-7.99,3.12-7.94Z"/>
        <path class="cls-10" d="M83.38,202.6c.15-.01.35,1.72.95,3.77.58,2.05,1.34,3.62,1.21,3.69-.11.07-1.1-1.43-1.71-3.55-.62-2.11-.58-3.91-.45-3.91Z"/>
        <path class="cls-10" d="M127.49,237.97c.03-.06.46.47,1.52.49.51,0,1.16-.14,1.76-.56.6-.4,1.09-1.13,1.33-2.02.24-.89.25-1.94.02-3.01-.22-1.09-.64-2.21-1.01-3.43-.36-1.22-.68-2.59-.44-4.03.23-1.47,1.18-2.65,1.64-3.97.47-1.31.28-2.77-.3-3.95-.59-1.19-1.59-2.06-2.74-2.51-.57-.24-1.17-.45-1.72-.75-.55-.29-1.06-.7-1.37-1.23-.64-1.05-.62-2.2-.62-3.15.02-.97.07-1.82-.1-2.54-.16-.73-.43-1.32-.75-1.72-.67-.82-1.38-.77-1.35-.83,0,0,.15-.03.44.03.28.06.69.25,1.07.67.37.41.69,1.03.88,1.79.21.76.18,1.67.19,2.61.02.94.04,2.02.61,2.91.56.92,1.72,1.3,2.91,1.77,1.22.45,2.38,1.43,3.01,2.72.64,1.28.86,2.88.33,4.35-.52,1.43-1.43,2.58-1.63,3.88-.22,1.3.06,2.61.4,3.81.35,1.2.76,2.35.97,3.48.22,1.13.2,2.24-.09,3.2-.28.95-.84,1.73-1.53,2.16-.68.43-1.38.55-1.93.52-.56-.03-.96-.23-1.2-.39-.24-.16-.32-.3-.32-.3Z"/>
        <path class="cls-10" d="M120.27,237.27s.13.32.62.54c.44.21,1.41.22,1.94-.53.54-.76.46-2.03-.16-3.13-.57-1.13-1.7-2.24-1.99-3.89-.15-.8.04-1.71.56-2.31.49-.6,1.06-1.01,1.44-1.5.75-1,.82-2.25.7-3.19-.13-.97-.41-1.74-.57-2.27-.18-.53-.27-.83-.23-.85.03-.01.18.26.42.77.23.51.56,1.27.75,2.29.17.99.17,2.36-.68,3.54-.43.57-1.01,1-1.42,1.52-.43.51-.57,1.2-.44,1.91.24,1.44,1.3,2.53,1.9,3.75.65,1.2.73,2.67.03,3.57-.34.46-.85.65-1.27.69-.43.04-.8-.05-1.06-.2-.54-.33-.54-.74-.52-.72Z"/>
        <path class="cls-10" d="M81.07,234.66s-.32-.26-.81-.81c-.48-.56-1.21-1.38-1.74-2.63-.27-.62-.44-1.37-.42-2.18.02-.8.26-1.71.88-2.42.62-.72,1.52-1.09,2.06-1.76.56-.67.63-1.64.41-2.57-.22-.95-.65-1.8-1.1-2.64-.43-.85-.83-1.71-.97-2.62-.16-.9.04-1.85.52-2.52.46-.68,1.04-1.15,1.52-1.59,1.01-.83,1.58-1.73,1.71-2.44.14-.7-.1-1.09-.04-1.1.01,0,.08.08.15.26.07.18.14.49.09.87-.07.77-.66,1.8-1.66,2.68-.47.46-1.02.93-1.41,1.55-.4.61-.55,1.4-.4,2.21.14.82.52,1.64.95,2.47.44.82.92,1.74,1.15,2.76.24,1,.17,2.19-.53,3.01-.68.8-1.57,1.15-2.1,1.76-.54.6-.78,1.39-.81,2.12-.04.74.1,1.43.33,2.03.46,1.2,1.13,2.05,1.56,2.64.44.59.69.92.66.94Z"/>
        <path class="cls-11" d="M122.77,191.54c-.14.07-.84-1.46-2.44-2.65-1.58-1.22-3.24-1.47-3.21-1.63-.02-.13,1.81-.1,3.53,1.21,1.73,1.29,2.26,3.05,2.12,3.06Z"/>
        <path class="cls-10" d="M124.22,181.96c.05-.03.39.36.66,1.13.27.77.43,1.94.09,3.17-.34,1.23-1.08,2.16-1.7,2.68-.63.53-1.12.69-1.15.64-.04-.07.37-.34.89-.9.53-.55,1.15-1.44,1.46-2.55.31-1.11.23-2.19.06-2.93-.16-.75-.37-1.2-.3-1.23Z"/>
      </g>
      <path class="cls-8" d="M73.44,304.98s24.84,23.59,39.61,19.32c14.77-4.27,19.14-15.35,19.14-15.35l.36-3.97-1.48-.97-56.86-4.6-.77,5.57Z"/>
      <g>
        <g>
          <path class="cls-4" d="M58.74,282.88l4.79-12.29,17.17,10.79-15.3,23.6s-6.22-8.09-6.66-22.1Z"/>
          <path class="cls-11" d="M78.12,248.93c7.99-4.17,18.34-5.38,18.34-5.38h0c3,6.01,12.47,6.77,18.2,2.67l4.83-3.27s.75-.03,2.02.08c11.3,1,20.56,9.44,22.86,20.56.84,4.05,1.46,8.69,1.21,12.99-.63,10.92-11.94,11.91-11.94,11.91,0,0-.58,10.8-1.35,19.52h0c-.57,6.52-3.95,11.39-9.89,14.11-4.43,2.03-6.87,2.97-12.61,3.89-14.49,2.32-28.41-3.18-37.58-13.01,1.72-10.41,3.36-23.88,3.24-24.48-.02-.13.02-.2.02-.2l-11.21-9.95-6.36-5.34s13.95-20.7,20.22-24.11"/>
        </g>
        <path class="cls-5" d="M92.01,255.67c-.04.1-.96-.77-2.77-.77-.88,0-1.97.26-2.86.99-.44.36-.82.86-1.27,1.37-.44.49-1.01,1.06-1.81,1.2-.81.15-1.55-.2-2.11-.57-.58-.37-1.07-.77-1.57-1.06-.99-.61-2.11-.55-2.93-.26-.84.29-1.39.79-1.7,1.18-.31.39-.43.65-.47.64-.02,0,.03-.3.31-.76.28-.44.84-1.03,1.74-1.4.87-.37,2.16-.48,3.3.18.56.31,1.06.71,1.61,1.05.54.34,1.14.6,1.75.49.61-.11,1.1-.56,1.53-1.03.44-.48.84-1,1.35-1.4,1.02-.8,2.22-1.03,3.17-.99.96.04,1.69.34,2.14.61.45.28.64.51.62.52Z"/>
        <path class="cls-5" d="M103.4,270.59c-.07.08-.66-1.03-2.38-1.61-.83-.28-1.94-.38-3.03.03-.54.2-1.06.55-1.64.89-.57.33-1.29.68-2.1.56-.81-.11-1.41-.69-1.82-1.21-.43-.53-.77-1.07-1.15-1.51-.74-.89-1.83-1.2-2.7-1.18-.89.01-1.57.31-1.99.57-.42.27-.62.48-.65.45-.02-.01.12-.28.53-.62.41-.33,1.13-.71,2.09-.77.94-.07,2.2.23,3.07,1.23.43.47.78,1.01,1.19,1.51.4.49.89.94,1.5,1.02.61.09,1.22-.18,1.78-.49.57-.31,1.11-.68,1.73-.89,1.23-.43,2.43-.27,3.31.08.89.35,1.5.86,1.83,1.26.34.41.45.68.42.7Z"/>
        <path class="cls-5" d="M128.71,248.73c-.02.11-1.1-.55-2.87-.16-.86.19-1.87.67-2.58,1.57-.36.44-.62,1.02-.95,1.61-.32.57-.76,1.25-1.52,1.56-.76.32-1.56.13-2.18-.11-.64-.24-1.21-.53-1.76-.7-1.09-.38-2.18-.09-2.92.37-.75.46-1.19,1.07-1.42,1.51-.22.45-.28.73-.33.72-.02,0-.04-.3.14-.8.18-.49.6-1.19,1.4-1.74.77-.54,2.01-.93,3.26-.52.61.18,1.19.47,1.79.68.6.22,1.24.35,1.81.1.57-.23.96-.78,1.27-1.33.33-.56.61-1.15,1.02-1.65.83-1,1.95-1.48,2.88-1.63.94-.16,1.73-.03,2.22.14.5.18.73.36.72.38Z"/>
        <path class="cls-5" d="M117.03,265.14c-.07.07-.5-.8-1.8-1.29-.63-.24-1.47-.35-2.3-.07-.41.13-.82.39-1.29.63-.46.23-1.03.49-1.68.37-.65-.12-1.09-.6-1.4-1.02-.31-.43-.55-.86-.83-1.2-.53-.7-1.33-.97-2-1-1.38-.04-2.02.74-2.07.65-.02-.02.09-.22.42-.48.33-.25.9-.53,1.65-.54.74-.03,1.72.25,2.36,1.06.32.38.57.81.87,1.2.29.39.64.73,1.09.81.92.16,1.76-.67,2.72-.94.98-.29,1.91-.11,2.58.19,1.39.64,1.71,1.64,1.66,1.63Z"/>
        <path class="cls-5" d="M91.28,278.96c-.07.07-.5-.8-1.8-1.29-.63-.24-1.47-.35-2.3-.07-.41.13-.82.39-1.29.63-.46.23-1.03.49-1.68.37-.65-.12-1.09-.6-1.4-1.02-.31-.43-.55-.86-.83-1.2-.53-.7-1.33-.97-2-1-1.38-.04-2.03.74-2.07.65-.02-.02.09-.22.42-.48.33-.25.9-.53,1.65-.54.74-.03,1.72.25,2.36,1.06.32.38.57.81.87,1.2.29.39.64.73,1.09.81.92.16,1.76-.67,2.72-.94.98-.29,1.91-.11,2.58.19,1.39.64,1.71,1.64,1.66,1.63Z"/>
        <path class="cls-5" d="M115.36,279.27c-.05.09-.73-.59-2.12-.64-.67-.02-1.5.15-2.2.68-.35.26-.65.63-1.02,1.01-.36.37-.82.8-1.47.89-.65.09-1.23-.21-1.65-.51-.44-.31-.8-.63-1.18-.87-.73-.49-1.58-.49-2.21-.3-1.32.41-1.68,1.36-1.75,1.29-.03,0,.01-.24.24-.59.23-.34.68-.79,1.39-1.05.69-.27,1.71-.32,2.58.24.43.26.81.58,1.21.86.4.28.84.49,1.29.42.92-.15,1.45-1.2,2.27-1.77.83-.59,1.77-.73,2.51-.66,1.52.16,2.15,1,2.09,1Z"/>
        <path class="cls-5" d="M107.4,290.26c-.05.09-.73-.59-2.12-.64-.67-.02-1.5.15-2.2.68-.35.26-.65.63-1.02,1.01-.36.37-.82.8-1.47.89-.65.09-1.23-.21-1.65-.51-.44-.31-.8-.63-1.18-.87-.73-.49-1.58-.49-2.21-.3-1.32.41-1.68,1.36-1.75,1.29-.03,0,.01-.24.24-.59.23-.34.68-.79,1.39-1.05.69-.27,1.71-.32,2.58.24.43.26.81.58,1.21.86.4.28.84.49,1.29.42.92-.14,1.45-1.2,2.27-1.77.83-.59,1.77-.73,2.51-.66,1.52.16,2.15,1,2.09,1Z"/>
        <path class="cls-5" d="M90.61,317.52c-.07.07-.51-.79-1.81-1.26-.63-.23-1.47-.33-2.3-.04-.41.14-.82.4-1.28.65-.45.24-1.03.5-1.67.39-.65-.11-1.1-.59-1.41-1-.32-.43-.57-.85-.85-1.19-.54-.69-1.35-.95-2.01-.97-1.39-.02-2.01.77-2.06.68-.02-.02.09-.22.41-.48.32-.25.89-.54,1.65-.57.73-.04,1.72.23,2.38,1.03.33.38.59.8.89,1.19.3.39.65.72,1.1.8.92.15,1.75-.69,2.71-.98.97-.31,1.91-.14,2.59.15,1.4.62,1.73,1.61,1.68,1.6Z"/>
        <path class="cls-5" d="M110.26,323.32c-.05.09-.72-.6-2.11-.67-.67-.03-1.51.12-2.21.65-.35.25-.66.62-1.03,1-.36.36-.83.78-1.48.87-.65.09-1.23-.23-1.64-.54-.43-.31-.79-.64-1.16-.89-.72-.5-1.57-.51-2.21-.33-1.33.39-1.69,1.34-1.77,1.26-.03,0,.02-.24.25-.58.23-.34.69-.78,1.4-1.03.69-.26,1.71-.29,2.58.27.42.26.8.59,1.2.87.4.28.84.5,1.29.44.92-.13,1.47-1.18,2.3-1.74.84-.58,1.78-.7,2.51-.62,1.52.18,2.13,1.03,2.08,1.03Z"/>
        <g>
          <g>
            <path class="cls-3" d="M45.5,240.62c.61.72,22.59,30.11,22.59,30.11l-3.1,1.75-22.56-29.02,3.06-2.84Z"/>
            <path class="cls-1" d="M131.32,261.59s-20.62,35.56-22.02,36.22c-2.75,1.29-34.39-26.06-37.41-28.67-.42-.56-1.27-1.73-2.96-4.06,0,0-2.5-11.42-5.16-10.55-2.66.88,1.46,5.81-.28,10.15-1.74,4.34-9.68-6.01-10-6.94l-2.05-2.68s-2.15,6.09-2,8.64c.47,8.15,8.18,17.84,8.18,17.84,0,0,31.33,39.26,55.05,40.6,6.83.38,19.88-19.29,28-33.82,4.9-8.78,2.63-17.7-5.5-23.62l-3.87-3.1Z"/>
            <path class="cls-4" d="M53.34,265.14c-.07.04-.94-1.2-1.76-2.88-.83-1.67-1.3-3.12-1.22-3.15.08-.03.68,1.35,1.5,3.01.82,1.66,1.56,2.97,1.48,3.02Z"/>
          </g>
          <path class="cls-11" d="M130.35,251.7c-.81.49-19.99,36.09-19.99,36.09l24.68,19.34s6.42-15.82,9.81-28.68c.92-3.49.45-12.82-.85-16.42-1.84-5.11-4.62-3.84-8.79-6.83l-4.86-3.5Z"/>
          <g class="cls-6">
            <path d="M138.45,251.7s-.24-.14-.7-.37c-.45-.23-1.2-.52-2.17-.46-.97.03-2.12.51-3.22,1.34-1.11.84-2.19,2.03-3.21,3.46-1.04,1.42-1.9,3.16-2.96,4.96-1.03,1.82-2.14,3.75-3.3,5.79-2.33,4.08-4.9,8.55-7.59,13.25-1.64,2.85-3.23,5.62-4.73,8.23l-.06-.32c6.69,5.28,12.51,9.88,16.7,13.2,2.03,1.63,3.67,2.95,4.85,3.89.53.44.96.79,1.28,1.06.29.25.44.38.43.39,0,.01-.17-.1-.48-.32-.34-.25-.78-.58-1.34-.99-1.2-.91-2.87-2.19-4.94-3.77-4.22-3.28-10.08-7.83-16.81-13.05l-.17-.13.11-.19c1.49-2.61,3.08-5.38,4.72-8.23,2.7-4.69,5.27-9.16,7.62-13.23,1.17-2.03,2.29-3.96,3.34-5.77,1.06-1.79,1.96-3.54,3.04-4.97,1.06-1.44,2.18-2.64,3.34-3.48,1.15-.84,2.36-1.31,3.39-1.31,1.02-.03,1.78.3,2.23.57.24.12.39.26.5.33.11.08.16.12.16.13Z"/>
          </g>
        </g>
        <path class="cls-5" d="M131.08,285.08c-.07.07-.5-.8-1.8-1.29-.63-.24-1.47-.35-2.3-.07-.41.13-.82.39-1.29.63-.46.23-1.03.49-1.68.37-.65-.12-1.09-.6-1.4-1.02-.31-.43-.55-.86-.83-1.2-.53-.7-1.33-.97-2-1-1.38-.04-2.02.74-2.07.65-.02-.02.09-.22.42-.48.33-.25.9-.53,1.65-.54.74-.03,1.72.25,2.36,1.06.32.38.57.81.87,1.2.29.39.64.73,1.09.81.92.16,1.76-.67,2.72-.94.98-.29,1.91-.11,2.58.19,1.39.64,1.71,1.64,1.66,1.63Z"/>
        <path class="cls-5" d="M142.37,280.47c-.09.05-.27-.9-1.38-1.72-.54-.4-1.32-.73-2.2-.69-.43.02-.9.15-1.41.26-.5.1-1.13.19-1.72-.1-.59-.29-.89-.87-1.07-1.36-.19-.5-.3-.98-.48-1.38-.32-.82-1.02-1.3-1.65-1.5-1.32-.41-2.15.17-2.17.07-.02-.02.15-.19.53-.35.38-.15,1-.26,1.74-.08.72.17,1.59.71,1.99,1.66.21.45.33.94.51,1.39.17.46.42.88.83,1.08.84.4,1.88-.17,2.88-.17,1.02-.02,1.87.41,2.44.88,1.17.99,1.2,2.04,1.16,2.01Z"/>
        <path class="cls-5" d="M142.95,265.76c-.09.05-.27-.9-1.38-1.72-.54-.4-1.32-.73-2.2-.69-.43.02-.9.15-1.41.26-.5.1-1.13.19-1.72-.1-.59-.29-.89-.87-1.07-1.36-.19-.5-.3-.98-.48-1.38-.32-.82-1.02-1.3-1.65-1.5-1.32-.41-2.15.17-2.17.07-.02-.02.15-.19.53-.35.38-.15,1-.26,1.74-.08.72.17,1.59.71,1.99,1.66.21.45.33.94.51,1.39.17.46.42.88.83,1.08.84.4,1.88-.17,2.88-.17,1.02-.02,1.87.41,2.44.88,1.17.99,1.2,2.04,1.16,2.01Z"/>
        <path class="cls-5" d="M137.48,299.59c-.09.05-.27-.9-1.38-1.72-.54-.4-1.32-.73-2.2-.69-.43.02-.9.15-1.41.26-.5.1-1.13.19-1.72-.1-.59-.29-.89-.87-1.07-1.36-.19-.5-.3-.98-.48-1.38-.32-.82-1.02-1.3-1.65-1.5-1.32-.41-2.15.17-2.17.07-.02-.02.15-.19.53-.35.38-.15,1-.26,1.74-.08.72.17,1.59.71,1.99,1.66.21.45.33.94.51,1.39.17.46.42.88.83,1.08.84.4,1.88-.17,2.88-.17,1.02-.02,1.87.41,2.44.88,1.17.99,1.2,2.04,1.16,2.01Z"/>
      </g>
    </g>
  </g>
</svg>