<svg width="455" height="467" viewBox="0 0 455 467" fill="none" xmlns="http://www.w3.org/2000/svg">
<g clip-path="url(#clip0_192_1477)">
<path d="M289.472 446.827L159.343 446.231C143.694 446.164 131.064 433.446 131.131 417.816L132.506 92.2171C132.574 76.5871 145.327 63.9706 160.988 64.0493L291.117 64.6453C306.766 64.7128 319.396 77.4304 319.328 93.0604L317.954 418.659C317.886 434.289 305.132 446.906 289.472 446.827Z" fill="#263238"/>
<path d="M290.925 75.8786L265.699 75.7662C262.319 75.7549 259.559 78.5998 259.548 82.1306L259.525 86.6959C259.514 90.2267 256.754 93.0716 253.374 93.0604L204.195 92.8355C200.815 92.8242 198.077 89.9456 198.1 86.4148L198.122 81.8495C198.134 78.3187 195.407 75.4401 192.027 75.4288L183.149 75.3838L161.067 75.2826C150.104 75.2377 141.17 84.0647 141.125 95.0169L139.784 412.823C139.739 423.764 148.583 432.67 159.546 432.726L289.415 433.322C300.378 433.379 309.312 424.54 309.357 413.588L310.698 95.7816C310.743 84.8406 301.899 75.9348 290.936 75.8899L290.925 75.8786Z" fill="#FAFAFA"/>
<path d="M217.422 402.894C217.422 404.165 216.217 405.188 214.729 405.177C213.253 405.177 212.059 404.131 212.059 402.872C212.059 401.601 213.265 400.578 214.752 400.589C216.228 400.589 217.422 401.635 217.422 402.894Z" fill="#455A64"/>
<path d="M225.726 402.928C225.726 404.199 224.52 405.222 223.033 405.211C221.557 405.211 220.363 404.165 220.363 402.906C220.363 401.635 221.568 400.612 223.055 400.623C224.543 400.634 225.726 401.669 225.726 402.928Z" fill="#455A64"/>
<path d="M234.029 402.973C234.029 404.244 232.823 405.267 231.336 405.256C229.86 405.256 228.666 404.21 228.666 402.951C228.666 401.68 229.872 400.657 231.359 400.668C232.835 400.668 234.029 401.714 234.029 402.973Z" fill="#455A64"/>
<path d="M301.031 18.5985C301.189 18.5985 301.324 25.6039 301.324 34.251C301.324 42.8981 301.189 49.9035 301.031 49.9035C300.873 49.9035 300.738 42.8981 300.738 34.251C300.738 25.6039 300.873 18.5985 301.031 18.5985Z" fill="#263238"/>
<path d="M356.598 54.615C356.665 54.7612 350.289 57.7073 342.368 61.2044C334.448 64.6902 327.969 67.4001 327.902 67.254C327.834 67.1078 334.2 64.1617 342.132 60.6646C350.052 57.1788 356.53 54.4688 356.598 54.615Z" fill="#263238"/>
<path d="M355.201 -1.90302e-05C355.201 -1.90302e-05 355.111 0.213629 354.897 0.595945C354.649 1.03449 354.322 1.57423 353.939 2.2489C353.094 3.68821 351.843 5.74598 350.266 8.26477C347.111 13.3136 342.571 20.1841 337.433 27.673C332.285 35.1619 327.699 41.9874 324.454 46.9687C322.866 49.4201 321.57 51.4216 320.624 52.8834C320.196 53.5356 319.846 54.0641 319.565 54.4801C319.317 54.84 319.182 55.0311 319.159 55.0199C319.137 55.0199 319.249 54.8062 319.463 54.4239C319.711 53.9854 320.038 53.4456 320.421 52.7709C321.266 51.3316 322.517 49.2851 324.094 46.7551C327.248 41.7062 331.789 34.8358 336.938 27.3469C342.075 19.858 346.672 13.0437 349.906 8.05112C351.494 5.5998 352.79 3.59826 353.736 2.13646C354.164 1.48427 354.514 0.955773 354.795 0.539722C355.043 0.179895 355.178 -0.0112636 355.201 -1.90302e-05Z" fill="#263238"/>
<path d="M433.098 132.383H179.104C173.618 132.383 169.167 136.824 169.167 142.301V220.934C169.167 226.41 173.618 230.852 179.104 230.852H198.032C199.553 239.06 201.345 249.428 201.345 249.428L218.47 230.852H433.109C438.596 230.852 443.046 226.41 443.046 220.934V142.301C443.046 136.824 438.596 132.383 433.109 132.383H433.098Z" fill="#CAE9EB"/>
<path d="M328.296 175.034C328.296 175.191 298.068 175.326 260.787 175.326C223.506 175.326 193.266 175.191 193.266 175.034C193.266 174.876 223.495 174.741 260.787 174.741C298.079 174.741 328.296 174.876 328.296 175.034Z" fill="#F5F5F5"/>
<path d="M328.296 162.946C328.296 163.103 298.068 163.238 260.787 163.238C223.506 163.238 193.266 163.103 193.266 162.946C193.266 162.788 223.495 162.653 260.787 162.653C298.079 162.653 328.296 162.788 328.296 162.946Z" fill="#F5F5F5"/>
<path d="M328.296 186.987C328.296 187.144 298.068 187.279 260.787 187.279C223.506 187.279 193.266 187.144 193.266 186.987C193.266 186.829 223.495 186.694 260.787 186.694C298.079 186.694 328.296 186.829 328.296 186.987Z" fill="#F5F5F5"/>
<path d="M281.72 199.378C281.72 199.536 261.914 199.671 237.499 199.671C213.084 199.671 193.278 199.536 193.278 199.378C193.278 199.221 213.073 199.086 237.499 199.086C261.925 199.086 281.72 199.221 281.72 199.378Z" fill="#F5F5F5"/>
<path d="M318.337 273.75H62.2477C58.4058 273.75 55.2963 276.854 55.2963 280.688V363.887C55.2963 367.721 58.4058 370.825 62.2477 370.825H248.236L265.17 389.187C265.17 389.187 266.95 378.865 268.437 370.825H318.325C322.167 370.825 325.277 367.721 325.277 363.887V280.688C325.277 276.854 322.167 273.75 318.325 273.75H318.337Z" fill="#455A64"/>
<path d="M308.287 316.66C308.287 316.817 278.059 316.952 240.778 316.952C203.497 316.952 173.257 316.817 173.257 316.66C173.257 316.502 203.485 316.367 240.778 316.367C278.07 316.367 308.287 316.502 308.287 316.66Z" fill="#F5F5F5"/>
<path d="M308.287 304.572C308.287 304.729 278.059 304.864 240.778 304.864C203.497 304.864 173.257 304.729 173.257 304.572C173.257 304.414 203.485 304.279 240.778 304.279C278.07 304.279 308.287 304.414 308.287 304.572Z" fill="#F5F5F5"/>
<path d="M308.287 328.613C308.287 328.77 278.059 328.905 240.778 328.905C203.497 328.905 173.257 328.77 173.257 328.613C173.257 328.455 203.485 328.32 240.778 328.32C278.07 328.32 308.287 328.455 308.287 328.613Z" fill="#F5F5F5"/>
<path d="M261.7 340.993C261.7 341.15 241.893 341.285 217.478 341.285C193.064 341.285 173.257 341.15 173.257 340.993C173.257 340.835 193.052 340.7 217.478 340.7C241.904 340.7 261.7 340.835 261.7 340.993Z" fill="#F5F5F5"/>
<path d="M369.239 99.0313C369.386 96.9623 367.538 94.1174 365.837 92.4757C364.124 90.834 363.065 88.6188 363.955 85.3129C364.642 82.7604 366.265 82.9515 366.907 81.4448C367.38 80.3316 367.177 79.0609 367.279 77.8577C367.617 73.7197 372.168 70.4813 376.202 71.5158C377.34 67.5802 381.013 64.5104 385.091 64.0943C389.17 63.667 393.395 65.916 395.321 69.5367C397.653 68.3336 400.583 68.3673 402.87 69.6492C405.157 70.9311 406.745 73.3824 406.937 76.0024C409.202 74.3719 412.683 75.0016 414.486 77.1381C416.288 79.2746 416.39 82.558 415.026 84.9981C413.663 87.4381 411.027 89.0236 408.255 89.4509C405.484 89.8782 402.633 89.226 400.121 87.9779C397.62 86.7297 395.434 84.9193 393.451 82.9515" fill="#263238"/>
<path d="M387.66 228.254C414.596 228.254 436.433 206.969 436.433 180.712C436.433 154.455 414.596 133.17 387.66 133.17C360.723 133.17 338.887 154.455 338.887 180.712C338.887 206.969 360.723 228.254 387.66 228.254Z" fill="#E0E0E0"/>
<path d="M436.636 180.746L431.239 166.926L411.894 179.059L429.132 205.597C429.132 205.597 436.14 196.5 436.636 180.746Z" fill="#EB996E"/>
<path d="M383.221 150.835C390.172 150.835 395.907 145.46 396.256 138.59C396.538 132.866 396.786 127.357 396.786 127.357C396.786 127.357 407.433 126.592 408.413 116.202C409.393 105.812 409.528 81.8046 409.528 81.8046C397.788 75.6538 383.604 76.2723 372.45 83.4126L371.436 84.0648L370.208 137.803C370.129 144.966 375.976 150.824 383.221 150.835Z" fill="#FFBE9D"/>
<path d="M389.327 97.7721C390.127 98.0307 390.567 98.8965 390.296 99.6836C390.026 100.482 389.158 100.909 388.358 100.639C387.558 100.381 387.119 99.515 387.389 98.7279C387.66 97.9295 388.527 97.5022 389.327 97.7721Z" fill="#263238"/>
<path d="M392.245 98.3118C392.065 98.4804 391.085 97.6371 389.631 97.5471C388.178 97.4347 387.085 98.1318 386.939 97.9407C386.86 97.8507 387.051 97.5359 387.525 97.221C387.998 96.9062 388.786 96.6251 389.688 96.6813C390.589 96.7488 391.333 97.1423 391.75 97.5246C392.178 97.9069 392.313 98.2443 392.234 98.323L392.245 98.3118Z" fill="#263238"/>
<path d="M405.213 97.7719C406.013 98.0306 406.452 98.8964 406.182 99.6835C405.912 100.482 405.044 100.909 404.244 100.639C403.444 100.381 403.005 99.5149 403.275 98.7277C403.546 97.9294 404.413 97.5021 405.213 97.7719Z" fill="#263238"/>
<path d="M408.323 98.3454C408.142 98.5141 407.162 97.6708 405.709 97.5808C404.255 97.4684 403.163 98.1655 403.016 97.9744C402.937 97.8844 403.129 97.5696 403.602 97.2547C404.075 96.9399 404.864 96.6588 405.765 96.715C406.666 96.7824 407.41 97.176 407.827 97.5583C408.255 97.9406 408.39 98.278 408.311 98.3567L408.323 98.3454Z" fill="#263238"/>
<path d="M397.394 109.579C397.394 109.466 398.307 109.354 399.771 109.275C400.154 109.275 400.459 109.208 400.504 109.005C400.594 108.78 400.481 108.376 400.323 107.915C400.031 106.936 399.726 105.947 399.422 104.912C398.183 100.639 397.349 97.1311 397.574 97.0636C397.788 96.9961 398.983 100.414 400.222 104.687C400.515 105.733 400.797 106.723 401.067 107.701C401.168 108.151 401.394 108.668 401.146 109.275C401.011 109.579 400.695 109.781 400.447 109.815C400.188 109.871 399.974 109.849 399.794 109.849C398.318 109.781 397.405 109.691 397.405 109.568L397.394 109.579Z" fill="#263238"/>
<path d="M396.808 127.21C396.808 127.21 390.127 127.21 383.424 122.251C383.424 122.251 386.049 129.999 396.617 129.898L396.808 127.199V127.21Z" fill="#EB996E"/>
<path d="M371.177 99.3125C371.177 98.4692 370.535 97.7495 369.69 97.7045C367.729 97.6146 364.496 98.323 364.09 103.675C363.516 111.322 370.997 109.556 371.019 109.343C371.042 109.174 371.132 102.292 371.166 99.3125H371.177Z" fill="#FFBE9D"/>
<path d="M369.385 106.295C369.385 106.295 369.239 106.374 369.014 106.464C368.788 106.543 368.394 106.588 368.011 106.408C367.222 106.048 366.625 104.721 366.693 103.338C366.727 102.641 366.918 101.989 367.211 101.46C367.493 100.921 367.887 100.549 368.304 100.516C368.721 100.448 368.991 100.718 369.07 100.943C369.16 101.168 369.093 101.314 369.138 101.325C369.16 101.348 369.318 101.213 369.273 100.887C369.25 100.729 369.171 100.549 369.002 100.381C368.833 100.223 368.563 100.122 368.27 100.133C367.673 100.133 367.098 100.628 366.772 101.213C366.422 101.798 366.186 102.529 366.141 103.304C366.073 104.845 366.76 106.352 367.853 106.756C368.383 106.936 368.856 106.813 369.104 106.644C369.363 106.475 369.408 106.307 369.385 106.284V106.295Z" fill="#EB996E"/>
<path d="M385.384 94.2412C385.767 94.736 387.097 94.4998 388.832 94.4324C390.555 94.2974 391.907 94.3649 392.223 93.8252C392.583 93.2742 390.905 91.9923 388.685 92.1834C386.454 92.2734 384.956 93.7464 385.384 94.2524V94.2412Z" fill="#263238"/>
<path d="M402.261 93.7351C402.475 94.3986 403.737 94.601 405.146 94.5897C406.554 94.556 407.816 94.3311 408.007 93.6564C408.21 93.0042 406.926 92.0597 405.112 92.0934C403.298 92.1159 402.047 93.0829 402.261 93.7351Z" fill="#263238"/>
<path d="M411.004 85.0881C411.004 85.0881 404.695 88.1353 396.47 84.0423C391.074 81.3548 384.798 80.0392 383.412 81.13C382.027 82.2094 381.734 87.753 376.393 89.3723C376.393 89.3723 376.765 99.9534 372.529 99.5711C368.304 99.1888 370.94 82.8054 370.94 82.8054L381.283 77.7678L392.561 75.6426L403.196 77.1381L411.421 79.387L411.004 85.0881Z" fill="#263238"/>
<path d="M340.239 146.304C351.291 134.958 370.737 136.206 370.737 136.206L386.86 147.721L395.997 137.094C395.997 137.094 405.607 138.151 414.609 142.84L415.229 143.032V143.155C422.293 146.99 432.309 156.177 441.841 165.094L430.428 175.663L417.798 186.852C417.798 186.852 417.843 186.931 417.82 187.077C417.685 187.751 419.578 203.157 421.516 214.851C410.013 225.814 395.344 230.503 379.063 227.647C373.892 226.748 371.391 225.488 366.614 224.229C359.539 222.374 354.412 216.257 353.781 208.981C352.925 199.176 352.26 187.032 352.26 187.032" fill="#455A64"/>
<path d="M406.103 139.085C406.103 139.085 406.385 139.714 406.802 140.895C407.219 142.076 407.782 143.785 408.447 145.91C409.776 150.161 411.477 156.087 413.077 162.698C414.677 169.31 415.871 175.36 416.637 179.745C417.021 181.938 417.302 183.726 417.471 184.952C417.64 186.188 417.719 186.874 417.685 186.874C417.651 186.874 417.494 186.211 417.246 184.985C416.987 183.67 416.649 181.927 416.232 179.813C415.364 175.45 414.103 169.423 412.514 162.822C410.914 156.222 409.292 150.296 408.064 146.011C407.467 143.942 406.971 142.233 406.599 140.94C406.261 139.748 406.081 139.074 406.126 139.062L406.103 139.085Z" fill="#263238"/>
<path d="M416.491 179.622C416.39 179.498 421.212 175.405 427.25 170.491C433.301 165.577 438.28 161.686 438.382 161.81C438.483 161.934 433.661 166.027 427.622 170.941C421.572 175.855 416.592 179.745 416.491 179.622Z" fill="#263238"/>
<path opacity="0.2" d="M354.829 161.878L344.937 194.341L348.621 196.252L352.249 187.066C352.249 187.066 355.978 167.781 354.829 161.866V161.878Z" fill="black"/>
<g opacity="0.2">
<path d="M405.033 139.096C410.362 141.896 397 148.654 390.972 148.474L395.355 136.937C395.355 136.937 403.253 138.163 405.033 139.107V139.096Z" fill="black"/>
</g>
<path d="M369.149 136.937V128.335C369.149 128.335 385.97 132.653 386.59 142.705C386.59 142.705 388.73 131.596 397.394 131.067L398.622 146.686L388.539 155.446H378.309L370.208 148.474L369.149 137.623" fill="#455A64"/>
<path d="M390.375 190.9C390.375 190.9 390.33 190.236 390.341 189.056C390.364 187.864 390.386 186.143 390.398 184.029C390.409 179.779 390.274 173.921 389.744 167.466C389.203 161.012 388.37 155.198 387.649 151.015C387.288 149.002 386.995 147.327 386.77 146.068C386.556 144.898 386.454 144.246 386.488 144.235C386.522 144.235 386.702 144.864 386.984 146.011C387.277 147.17 387.637 148.845 388.054 150.937C388.877 155.108 389.789 160.933 390.33 167.41C390.871 173.887 390.938 179.779 390.814 184.029C390.758 186.155 390.668 187.875 390.578 189.067C390.488 190.259 390.42 190.911 390.375 190.911V190.9Z" fill="#263238"/>
<path d="M385.812 139.816C385.812 139.816 385.429 139.669 384.809 139.906C384.167 140.108 383.593 140.906 383.119 142.053C382.083 144.291 380.81 147.507 379.92 151.341L379.83 151.724L379.492 151.521C378.489 150.914 377.452 150.262 376.416 149.553C374.41 148.193 372.563 146.798 370.963 145.415C370.152 144.718 369.487 143.886 369.104 142.987C368.721 142.087 368.574 141.199 368.541 140.389C368.473 138.77 368.743 137.499 368.912 136.633C369.104 135.768 369.239 135.295 369.284 135.306C369.329 135.306 369.262 135.801 369.138 136.678C369.036 137.555 368.833 138.826 368.957 140.378C369.025 141.142 369.183 141.986 369.555 142.795C369.926 143.605 370.535 144.358 371.323 145.011C372.912 146.337 374.76 147.721 376.754 149.07C377.779 149.767 378.804 150.419 379.796 151.026L379.368 151.206C380.292 147.327 381.655 144.1 382.793 141.885C383.074 141.334 383.345 140.828 383.683 140.434C384.01 140.04 384.415 139.804 384.753 139.703C385.463 139.501 385.846 139.793 385.812 139.804V139.816Z" fill="#263238"/>
<path d="M397.394 131.067C397.394 131.067 397.484 131.54 397.552 132.405C397.619 133.395 397.71 134.621 397.822 136.06C397.946 137.6 398.138 139.433 398.453 141.446C398.577 142.447 398.926 143.526 398.656 144.741C398.307 145.944 397.405 146.843 396.448 147.563C395.096 148.564 393.687 149.306 392.741 150.374L392.29 150.88L392.245 150.206C392.009 146.652 390.826 143.729 389.755 141.828C388.685 139.917 387.806 138.927 387.874 138.871C387.896 138.849 388.133 139.073 388.539 139.534C388.933 139.996 389.485 140.693 390.06 141.648C391.231 143.538 392.527 146.506 392.797 150.161L392.302 149.992C393.327 148.823 394.792 148.047 396.076 147.091C396.989 146.405 397.8 145.562 398.081 144.595C398.318 143.605 398.025 142.537 397.901 141.514C397.608 139.478 397.462 137.623 397.394 136.071C397.315 134.519 397.304 133.26 397.315 132.394C397.315 131.528 397.349 131.045 397.383 131.045L397.394 131.067Z" fill="#263238"/>
<path d="M451.553 133.226C450.865 134.036 426.101 167.084 426.101 167.084L429.594 169.052L455.011 136.42L451.564 133.226H451.553Z" fill="#263238"/>
<path d="M352.046 159.359C352.046 159.359 378.106 196.792 379.672 197.534C382.77 198.985 418.418 168.231 421.82 165.296C422.293 164.666 423.251 163.35 425.155 160.73C425.155 160.73 427.972 147.889 430.969 148.867C433.965 149.857 429.324 155.401 431.284 160.281C433.244 165.161 442.19 153.523 442.551 152.477L444.86 149.463C444.86 149.463 447.283 156.311 447.114 159.179C446.584 168.343 437.897 179.239 437.897 179.239C437.897 179.239 398.881 227.478 372.157 228.974C364.462 229.401 350.784 207.609 341.636 191.26C336.115 181.387 338.864 168.95 348.024 162.293L352.046 159.359Z" fill="#FFBE9D"/>
<path d="M442.72 160.798C442.629 160.742 443.463 159.269 444.387 157.402C445.311 155.536 445.976 153.984 446.077 154.018C446.167 154.051 445.638 155.67 444.702 157.56C443.767 159.449 442.798 160.843 442.72 160.798Z" fill="#EB996E"/>
<path d="M347.63 141.086C347.63 141.086 319.655 151.015 340.453 197.95L372.743 178.497L368.146 167.522L347.63 141.086Z" fill="#455A64"/>
<path d="M345.489 141.896C345.489 141.896 346.706 141.693 348.858 142.177C349.917 142.447 351.19 142.919 352.531 143.717C353.871 144.516 355.257 145.64 356.609 147.057C359.324 149.879 361.859 153.826 364.203 158.38C366.569 162.946 368.777 168.141 371.042 173.606C371.718 175.236 372.394 176.855 373.025 178.385L373.126 178.632L372.901 178.756C363.561 183.838 355.426 188.595 349.669 192.159C346.796 193.936 344.498 195.398 342.932 196.41C342.177 196.893 341.58 197.276 341.118 197.568C340.701 197.826 340.475 197.961 340.464 197.939C340.464 197.928 340.656 197.759 341.05 197.478C341.444 197.186 342.03 196.758 342.808 196.23C344.34 195.162 346.605 193.643 349.455 191.822C355.156 188.167 363.268 183.343 372.608 178.238L372.484 178.609C371.853 177.08 371.177 175.472 370.501 173.83C368.236 168.366 366.051 163.182 363.718 158.628C361.409 154.074 358.93 150.149 356.305 147.338C354.998 145.933 353.657 144.808 352.362 143.999C351.066 143.189 349.838 142.694 348.813 142.391C346.728 141.851 345.5 141.975 345.5 141.885L345.489 141.896Z" fill="#263238"/>
<path d="M405.653 72.3029C405.653 72.3029 405.72 72.4715 405.788 72.7976C405.844 73.1237 405.912 73.6185 405.867 74.2594C405.799 75.5076 405.348 77.4416 403.737 79.1283C402.171 80.815 399.208 81.8833 396.211 81.0287C394.747 80.6014 393.259 79.7131 392.358 78.24C391.919 77.5091 391.659 76.6095 391.783 75.6987C391.907 74.8104 392.358 73.9108 393.169 73.3823C393.98 72.8314 395.051 72.8426 395.873 73.2137C396.707 73.5623 397.394 74.2482 397.721 75.069C398.386 76.722 397.89 78.4986 396.977 79.7468C395.039 82.3106 391.536 82.513 389.586 81.3548C388.561 80.8825 387.66 80.444 386.804 80.2865C385.959 80.1179 385.204 80.264 384.652 80.5114C383.548 81.0399 383.097 81.6246 383.052 81.5684C383.041 81.5572 383.153 81.4222 383.379 81.1861C383.491 81.0624 383.638 80.9162 383.84 80.77C384.032 80.6239 384.257 80.444 384.562 80.309C385.125 80.0054 385.947 79.8143 386.871 79.9717C387.795 80.1066 388.741 80.5452 389.767 80.9837C390.285 81.1861 390.814 81.4222 391.389 81.5234C391.952 81.6246 392.583 81.6134 393.203 81.4897C394.442 81.2648 395.715 80.5901 396.549 79.4432C397.36 78.33 397.766 76.6995 397.191 75.3052C396.684 73.9446 394.792 73.0338 393.485 73.8883C392.854 74.3044 392.459 75.0465 392.358 75.7999C392.245 76.5533 392.459 77.3179 392.854 77.9701C393.642 79.2745 395.006 80.1291 396.369 80.5339C399.152 81.366 401.946 80.4102 403.456 78.8585C405.022 77.3067 405.529 75.4738 405.653 74.2594C405.788 73.0225 405.596 72.3366 405.653 72.3253V72.3029Z" fill="#455A64"/>
<path d="M399.569 114.706C399.58 114.774 399.219 114.92 398.6 114.954C397.98 114.987 397.112 114.841 396.256 114.414C395.411 113.987 394.78 113.368 394.431 112.851C394.082 112.334 393.992 111.963 394.059 111.929C394.206 111.839 394.961 113.121 396.527 113.885C398.07 114.684 399.546 114.526 399.569 114.695V114.706Z" fill="#263238"/>
<path d="M370.016 109.736C370.016 109.736 370.388 110.231 369.971 111.007C369.769 111.367 369.397 111.76 368.822 111.918C368.248 112.075 367.56 111.895 367.076 111.457C366.58 111.029 366.31 110.4 366.332 109.826C366.355 109.253 366.591 108.792 366.85 108.477C367.391 107.847 367.943 107.78 367.955 107.847C368 107.937 367.56 108.128 367.189 108.724C366.805 109.275 366.659 110.355 367.459 111.018C367.831 111.333 368.304 111.479 368.698 111.389C369.104 111.31 369.419 111.052 369.622 110.782C370.028 110.231 369.926 109.747 370.016 109.736Z" fill="#263238"/>
<path d="M407.511 76.0923C407.511 76.0923 407.985 76.8119 408.052 78.1613C408.131 79.4769 407.748 81.4447 406.385 83.0302C404.999 84.6157 403.118 85.2679 401.788 85.3691C400.447 85.4928 399.647 85.1779 399.659 85.1217C399.67 85.0205 400.481 85.1667 401.732 84.953C402.96 84.7506 404.672 84.076 405.934 82.6366C407.185 81.1861 407.613 79.3982 407.635 78.1613C407.669 76.8907 407.41 76.1148 407.511 76.0923Z" fill="#455A64"/>
<path d="M369.408 170.176C369.476 170.322 362.051 174.134 352.812 178.688C343.574 183.242 336.036 186.818 335.958 186.683C335.89 186.537 343.315 182.725 352.553 178.171C361.792 173.617 369.329 170.041 369.408 170.176Z" fill="#E0E0E0"/>
<path d="M362.637 157.413C362.716 157.56 356.102 161.248 347.866 165.656C339.63 170.064 332.893 173.527 332.814 173.381C332.735 173.235 339.349 169.546 347.585 165.138C355.821 160.731 362.558 157.267 362.625 157.413H362.637Z" fill="#E0E0E0"/>
<path d="M356.102 147.102C356.136 147.181 354.863 147.9 352.79 149.059C350.57 150.296 347.788 151.847 344.7 153.568C341.636 155.311 338.853 156.896 336.656 158.144C334.594 159.314 333.31 160.033 333.265 159.955C333.22 159.887 334.425 159.055 336.442 157.784C338.448 156.514 341.264 154.827 344.419 153.05C347.573 151.274 350.48 149.745 352.598 148.688C354.728 147.631 356.068 147.035 356.102 147.102Z" fill="#E0E0E0"/>
<path d="M380.844 144.662C380.832 144.729 379.965 144.617 378.669 144.077C377.373 143.549 375.695 142.537 374.117 141.12C372.529 139.703 371.301 138.23 370.444 137.151C369.588 136.06 369.115 135.363 369.171 135.307C369.239 135.25 369.825 135.869 370.76 136.881C371.695 137.893 372.957 139.298 374.512 140.681C376.055 142.065 377.644 143.099 378.849 143.706C380.055 144.325 380.877 144.572 380.855 144.662H380.844Z" fill="#E0E0E0"/>
<path d="M397.27 138.579C397.417 138.624 396.729 140.445 394.927 141.952C393.135 143.47 391.22 143.83 391.198 143.684C391.141 143.515 392.876 142.93 394.544 141.513C396.234 140.108 397.101 138.511 397.259 138.59L397.27 138.579Z" fill="#E0E0E0"/>
<path d="M426.575 155.502C426.575 155.502 426.36 155.558 425.944 155.614C425.459 155.67 424.862 155.749 424.13 155.839C422.552 156.008 420.265 156.233 417.449 156.446C411.793 156.896 403.974 157.335 395.332 157.649C386.691 157.953 378.861 158.066 373.182 158.021C370.343 157.998 368.056 157.942 366.467 157.886C365.724 157.852 365.127 157.818 364.642 157.796C364.225 157.773 364.011 157.739 364.011 157.728C364.011 157.706 364.237 157.694 364.654 157.683C365.138 157.683 365.735 157.683 366.479 157.672C368.146 157.661 370.411 157.638 373.182 157.616C378.849 157.559 386.668 157.38 395.31 157.076C403.94 156.761 411.759 156.39 417.415 156.041C420.175 155.862 422.451 155.727 424.107 155.614C424.84 155.569 425.448 155.535 425.932 155.502C426.349 155.479 426.575 155.479 426.575 155.502Z" fill="#E0E0E0"/>
<path d="M417.674 168.827C417.674 168.827 417.021 168.973 415.826 169.119C414.632 169.265 412.897 169.456 410.745 169.648C406.453 170.041 400.515 170.446 393.947 170.716C387.378 170.974 381.418 171.053 377.114 171.008C374.962 170.986 373.216 170.941 372.011 170.896C370.805 170.839 370.14 170.795 370.14 170.75C370.14 170.705 370.805 170.682 372.011 170.66C373.318 170.637 375.03 170.615 377.114 170.592C381.418 170.536 387.367 170.401 393.924 170.131C400.481 169.861 406.419 169.524 410.723 169.232C412.796 169.097 414.508 168.973 415.815 168.894C417.021 168.815 417.685 168.793 417.685 168.827H417.674Z" fill="#E0E0E0"/>
<path d="M397.484 185.278C397.484 185.356 396.065 185.57 393.755 185.806C391.434 186.042 388.234 186.301 384.685 186.481C381.137 186.661 377.926 186.717 375.593 186.717C373.261 186.717 371.83 186.638 371.83 186.559C371.83 186.481 373.272 186.402 375.593 186.301C378.083 186.188 381.204 186.053 384.663 185.896C388.122 185.705 391.243 185.536 393.733 185.401C396.053 185.266 397.496 185.21 397.496 185.289L397.484 185.278Z" fill="#E0E0E0"/>
<path d="M371.661 146.247C371.661 146.416 368.203 146.45 363.944 146.63C359.685 146.798 356.237 147.046 356.226 146.877C356.204 146.72 359.64 146.214 363.921 146.045C368.191 145.865 371.661 146.09 371.661 146.247Z" fill="#E0E0E0"/>
<path d="M419.195 145.64C419.195 145.798 414.711 145.921 409.179 145.899C403.647 145.876 399.163 145.73 399.174 145.573C399.174 145.415 403.658 145.292 409.19 145.314C414.722 145.337 419.195 145.483 419.195 145.64Z" fill="#E0E0E0"/>
<path d="M420.919 214.064C420.919 214.064 420.569 214.311 419.893 214.648C419.217 214.997 418.215 215.458 416.964 215.975C414.452 217.032 410.891 218.269 406.847 219.203C402.791 220.136 399.05 220.574 396.324 220.721C394.961 220.799 393.868 220.822 393.102 220.799C392.347 220.788 391.919 220.754 391.919 220.721C391.919 220.631 393.597 220.563 396.29 220.305C398.983 220.046 402.689 219.551 406.712 218.629C410.734 217.696 414.283 216.538 416.806 215.582C419.341 214.637 420.874 213.963 420.919 214.041V214.064Z" fill="#E0E0E0"/>
<path d="M116.586 367.125C143.523 367.125 165.359 346.333 165.359 320.685C165.359 295.037 143.523 274.245 116.586 274.245C89.6497 274.245 67.8134 295.037 67.8134 320.685C67.8134 346.333 89.6497 367.125 116.586 367.125Z" fill="#E0E0E0"/>
<path d="M106.649 208.723C98.9091 209.127 95.8784 217.178 94.9433 218.978C94.0194 220.777 93.873 222.857 93.704 224.87C93.535 226.883 93.2984 228.974 92.2168 230.683C90.5155 233.393 86.9328 234.799 85.9638 237.846C84.8597 241.298 87.6876 244.986 86.9328 248.528C86.5272 250.429 85.1414 251.992 84.6456 253.87C84.1274 255.837 84.6682 257.951 85.6934 259.706C88.2397 264.057 93.5012 266.25 98.5486 266.43C103.596 266.61 108.531 265.103 113.364 263.607" fill="#263238"/>
<path d="M140.697 218.73C139.942 220.361 140.652 222.351 141.846 223.712C143.029 225.072 144.629 225.983 146.037 227.119C147.445 228.243 148.73 229.739 148.899 231.527C149.045 233.168 148.223 234.81 148.448 236.44C149.023 240.646 155.749 241.917 156.109 246.145C156.346 248.967 153.45 251.553 154.25 254.263C154.555 255.298 155.366 256.107 155.929 257.041C157.833 260.2 156.549 264.563 153.777 267.015C151.017 269.466 147.164 270.332 143.468 270.5C140.359 270.635 136.832 270.129 134.996 267.622C133.317 265.328 133.666 262.191 134.004 259.368C135.57 246.19 135.3 232.876 135.03 219.607" fill="#263238"/>
<path d="M108.677 279.71C108.734 272.783 108.677 265.497 108.677 265.497C108.677 265.497 99.7541 263.911 98.0416 252.25C96.4079 241.13 99.1795 217.224 99.1795 217.224C112.102 212.141 126.647 214.109 135.694 224.488L134.286 280.711C134.128 287.232 128.371 292.293 121.375 292.068C114.299 291.843 108.621 286.31 108.677 279.71Z" fill="#FFBE9D"/>
<path d="M101.602 235.586C101.568 236.373 102.199 237.059 103.021 237.104C103.844 237.16 104.542 236.564 104.576 235.777C104.61 234.99 103.979 234.304 103.157 234.259C102.334 234.203 101.636 234.799 101.602 235.586Z" fill="#263238"/>
<path d="M99.2021 234.439C99.3824 234.641 100.532 233.809 102.131 233.832C105.162 234.27 105.106 234.731 105.083 234.473C105.173 234.383 104.982 234.034 104.475 233.652C103.968 233.27 103.112 232.899 102.109 232.899C101.106 232.899 100.261 233.247 99.7654 233.618C99.2697 233.989 99.0894 234.338 99.1796 234.428L99.2021 234.439Z" fill="#263238"/>
<path d="M118.074 236.058C118.04 236.845 118.671 237.531 119.493 237.576C120.316 237.632 121.014 237.036 121.048 236.249C121.082 235.462 120.451 234.776 119.628 234.731C118.806 234.675 118.107 235.271 118.074 236.058Z" fill="#263238"/>
<path d="M115.978 234.99C116.158 235.192 117.307 234.36 118.907 234.383C120.518 234.383 121.69 235.226 121.859 235.024C121.949 234.934 121.758 234.585 121.251 234.203C120.744 233.821 119.887 233.449 118.885 233.449C117.882 233.449 117.037 233.798 116.541 234.169C116.046 234.54 115.877 234.889 115.955 234.979L115.978 234.99Z" fill="#263238"/>
<path d="M110.007 246.504C110.007 246.415 109.015 246.235 107.404 245.998C106.999 245.953 106.604 245.864 106.537 245.582C106.446 245.29 106.615 244.84 106.83 244.368C107.224 243.378 107.641 242.344 108.08 241.264C109.815 236.834 111.077 233.202 110.908 233.135C110.728 233.067 109.173 236.598 107.438 241.028C107.021 242.119 106.615 243.165 106.232 244.154C106.075 244.615 105.793 245.144 105.996 245.762C106.097 246.066 106.401 246.291 106.661 246.37C106.92 246.448 107.156 246.459 107.359 246.471C108.993 246.572 109.995 246.594 110.007 246.504Z" fill="#263238"/>
<path d="M108.666 265.497C108.666 265.497 116.508 266.093 124.327 261.516C124.327 261.516 120.451 269.466 108.79 268.24L108.666 265.497Z" fill="#EB996E"/>
<path d="M110.638 250.384C111.223 249.63 112.249 249.214 113.251 249.338C113.95 249.417 114.648 249.765 115.065 250.339C115.482 250.912 115.561 251.722 115.167 252.25C114.727 252.858 113.815 252.981 113.049 252.756C112.282 252.532 111.629 252.014 111.009 251.508C110.84 251.362 110.66 251.216 110.559 251.025C110.457 250.834 110.435 250.586 110.559 250.429" fill="#EB996E"/>
<path d="M114.727 247.674C114.468 247.651 114.446 249.394 112.936 250.62C111.426 251.846 109.567 251.632 109.556 251.868C109.533 251.981 109.962 252.217 110.75 252.239C111.516 252.273 112.654 252.037 113.567 251.295C114.491 250.541 114.896 249.541 114.964 248.821C115.043 248.09 114.851 247.663 114.727 247.663V247.674Z" fill="#263238"/>
<path d="M130.636 216.189C126.366 222.261 115.077 228.502 106.987 229.952C107.934 228.715 112.902 225.657 113.849 224.42C110.187 227.152 104.937 230.807 100.07 231.054C99.495 231.088 98.8753 231.077 98.4021 230.796C97.7599 230.402 97.6247 229.638 97.5571 228.963C97.2417 226.118 97.4445 221.238 97.8951 218.415C98.3458 215.593 99.6527 212.782 102.098 210.893C105.218 208.486 109.669 207.902 113.871 207.801C117.398 207.711 121.025 207.924 124.248 209.195C127.47 210.465 130.219 212.973 130.692 215.987" fill="#263238"/>
<path d="M142.86 243.39C143.446 240.376 143.919 237.52 144.02 235.608C144.37 229.604 142.623 207.441 121.882 209.229L121.048 215.537C121.048 215.537 117.837 237.115 131.255 237.284C131.255 237.284 131.999 243.716 138.072 249.968C138.072 249.968 141.587 249.867 142.849 243.401" fill="#263238"/>
<path d="M131.267 237.273C132.517 237.048 133.835 237.093 135.018 237.554C136.201 238.015 137.238 238.903 137.734 240.073C138.229 241.242 138.173 242.603 137.734 243.795C137.283 244.986 136.494 246.021 135.571 246.898C134.917 247.528 134.162 248.113 133.295 248.371C132.416 248.63 131.391 248.54 130.703 247.944" fill="#FFBE9D"/>
<path d="M131.864 244.829C131.717 244.874 132.258 245.627 133.396 245.335C133.948 245.2 134.489 244.717 134.816 244.121C135.154 243.513 135.368 242.85 135.458 242.063C135.548 241.287 135.379 240.455 134.951 239.87C134.545 239.263 133.881 238.903 133.329 238.881C132.157 238.836 131.785 239.645 131.92 239.668C132.01 239.769 132.472 239.353 133.238 239.544C133.971 239.69 134.68 240.702 134.511 241.962C134.354 243.243 133.847 244.402 133.16 244.694C132.45 245.043 131.931 244.717 131.853 244.818L131.864 244.829Z" fill="#EB996E"/>
<path d="M133.531 213.906C135.12 214.806 137.069 215.064 138.827 214.603C140.595 214.142 142.161 212.962 143.097 211.399C143.705 210.387 144.043 209.161 143.75 208.025C143.344 206.462 141.823 205.417 140.269 205.012C138.004 204.427 135.435 204.989 133.723 206.575C132.01 208.172 131.278 210.769 132.033 212.984C132.788 215.188 135.075 216.819 137.418 216.695" fill="#263238"/>
<path d="M135.424 247.471C134.275 248.304 133.103 249.147 132.202 250.249C131.3 251.351 130.681 252.745 130.816 254.162C130.884 254.949 131.188 255.736 131.075 256.523C130.917 257.603 130.027 258.401 129.442 259.335C127.921 261.718 128.574 265.069 130.501 267.15C132.416 269.23 135.334 270.163 138.162 270.264C139.807 270.32 141.531 270.084 142.871 269.151C144.809 267.79 145.553 265.26 145.609 262.888" fill="#263238"/>
<path d="M136.832 218.55C136.889 218.584 136.483 219.427 135.604 220.676C134.737 221.913 133.373 223.532 131.605 225.039C129.836 226.545 128.044 227.659 126.681 228.322C125.318 228.997 124.417 229.278 124.394 229.21C124.304 229.042 127.774 227.58 131.222 224.589C134.703 221.631 136.663 218.438 136.821 218.55H136.832Z" fill="#455A64"/>
<path d="M138.984 218.438C139.052 218.438 139.007 219.551 138.601 221.272C138.196 223.003 137.362 225.342 135.965 227.67C134.557 229.997 132.878 231.83 131.537 232.988C130.196 234.158 129.239 234.709 129.205 234.653C129.07 234.506 132.731 231.965 135.469 227.366C138.263 222.801 138.793 218.382 138.984 218.438Z" fill="#455A64"/>
<path d="M93.9406 227.816C94.1096 227.805 94.3349 229.75 95.0109 232.055C95.6644 234.36 96.5206 236.126 96.3742 236.204C96.2502 236.283 95.1348 234.596 94.4476 232.212C93.749 229.84 93.7941 227.816 93.9406 227.816Z" fill="#455A64"/>
<path d="M143.637 267.588C143.671 267.521 144.156 268.117 145.35 268.139C145.925 268.139 146.657 267.982 147.333 267.509C148.009 267.06 148.561 266.239 148.831 265.238C149.102 264.237 149.113 263.057 148.854 261.853C148.606 260.628 148.133 259.368 147.716 257.996C147.31 256.625 146.95 255.084 147.22 253.465C147.479 251.812 148.55 250.485 149.068 249.001C149.597 247.528 149.383 245.886 148.73 244.559C148.065 243.221 146.939 242.243 145.643 241.737C145.001 241.467 144.325 241.231 143.705 240.893C143.085 240.567 142.511 240.106 142.161 239.51C141.44 238.33 141.463 237.037 141.463 235.968C141.485 234.878 141.542 233.922 141.35 233.112C141.17 232.291 140.866 231.628 140.505 231.178C139.75 230.256 138.951 230.312 138.984 230.245C138.984 230.245 139.153 230.211 139.48 230.278C139.796 230.346 140.257 230.56 140.686 231.032C141.102 231.493 141.463 232.19 141.677 233.045C141.914 233.899 141.88 234.923 141.891 235.98C141.914 237.037 141.936 238.251 142.578 239.252C143.209 240.286 144.516 240.713 145.857 241.242C147.231 241.748 148.538 242.85 149.248 244.301C149.969 245.74 150.217 247.539 149.62 249.192C149.034 250.8 148.009 252.093 147.783 253.555C147.536 255.017 147.851 256.49 148.234 257.839C148.628 259.188 149.09 260.482 149.327 261.752C149.575 263.023 149.552 264.271 149.226 265.35C148.91 266.419 148.279 267.296 147.502 267.779C146.736 268.263 145.947 268.398 145.327 268.364C144.696 268.33 144.246 268.105 143.975 267.925C143.705 267.746 143.615 267.588 143.615 267.588H143.637Z" fill="#455A64"/>
<path d="M135.503 266.801C135.503 266.801 135.649 267.161 136.201 267.408C136.697 267.644 137.79 267.656 138.387 266.812C138.996 265.958 138.905 264.53 138.207 263.293C137.565 262.022 136.292 260.774 135.965 258.919C135.796 258.019 136.01 256.996 136.596 256.321C137.148 255.646 137.79 255.185 138.218 254.634C139.063 253.51 139.142 252.104 139.007 251.047C138.86 249.957 138.545 249.091 138.365 248.495C138.162 247.899 138.06 247.561 138.106 247.539C138.139 247.528 138.308 247.831 138.579 248.405C138.838 248.978 139.21 249.833 139.424 250.98C139.615 252.093 139.615 253.634 138.658 254.96C138.173 255.601 137.52 256.085 137.058 256.67C136.573 257.243 136.416 258.019 136.562 258.817C136.832 260.437 138.027 261.662 138.703 263.034C139.435 264.383 139.525 266.036 138.736 267.048C138.353 267.566 137.779 267.779 137.306 267.824C136.821 267.869 136.404 267.768 136.111 267.599C135.503 267.228 135.503 266.767 135.525 266.79L135.503 266.801Z" fill="#455A64"/>
<path d="M91.338 263.866C91.338 263.866 90.9774 263.574 90.4254 262.955C89.8846 262.326 89.0621 261.404 88.465 259.998C88.1608 259.301 87.9693 258.457 87.9918 257.547C88.0143 256.647 88.2847 255.624 88.9832 254.825C89.6818 254.016 90.6958 253.6 91.3042 252.846C91.9351 252.093 92.0139 251.002 91.7661 249.956C91.5182 248.888 91.0338 247.932 90.5268 246.988C90.0423 246.032 89.5916 245.065 89.4339 244.042C89.2536 243.03 89.479 241.962 90.0198 241.208C90.538 240.444 91.1915 239.915 91.7323 239.42C92.8702 238.487 93.5124 237.475 93.6589 236.677C93.8166 235.889 93.5462 235.451 93.6138 235.44C93.6251 235.44 93.7039 235.53 93.7828 235.732C93.8617 235.934 93.9405 236.283 93.8842 236.71C93.8053 237.576 93.1406 238.734 92.0139 239.724C91.4844 240.241 90.8648 240.77 90.4254 241.467C89.9747 242.153 89.8057 243.041 89.9747 243.952C90.1324 244.874 90.5606 245.796 91.045 246.729C91.5407 247.651 92.0815 248.686 92.3407 249.833C92.6111 250.957 92.5322 252.295 91.7436 253.217C90.9774 254.117 89.9747 254.511 89.3776 255.196C88.7692 255.871 88.4988 256.759 88.465 257.58C88.4199 258.412 88.5776 259.188 88.8368 259.863C89.355 261.212 90.1099 262.168 90.5944 262.832C91.0901 263.495 91.3718 263.866 91.338 263.889V263.866Z" fill="#455A64"/>
<path d="M138.32 215.379C138.162 215.458 137.373 213.738 135.571 212.4C133.79 211.028 131.92 210.747 131.954 210.567C131.931 210.42 133.993 210.454 135.931 211.927C137.88 213.378 138.477 215.357 138.32 215.368V215.379Z" fill="#CAE9EB"/>
<path d="M139.953 204.607C140.01 204.573 140.393 205.012 140.697 205.878C141.001 206.743 141.181 208.059 140.798 209.442C140.415 210.825 139.581 211.871 138.883 212.456C138.173 213.052 137.621 213.232 137.587 213.175C137.542 213.097 138.004 212.793 138.59 212.163C139.187 211.545 139.886 210.544 140.235 209.296C140.584 208.048 140.494 206.833 140.303 206.001C140.122 205.158 139.886 204.652 139.965 204.618L139.953 204.607Z" fill="#455A64"/>
<path opacity="0.3" d="M82.7416 342.938C82.7416 342.938 110.728 369.464 127.368 364.663C144.009 359.861 148.933 347.402 148.933 347.402L149.338 342.938L147.671 341.848L83.6091 336.675L82.7416 342.938Z" fill="black"/>
<path d="M66.1797 318.088L71.5764 304.268L90.921 316.401L73.6832 342.938C73.6832 342.938 66.6754 333.841 66.1797 318.088Z" fill="#EB996E"/>
<path d="M88.0143 279.912C97.0162 275.223 108.677 273.863 108.677 273.863C112.057 280.621 122.727 281.475 129.182 276.865L134.624 273.188C134.624 273.188 135.469 273.154 136.9 273.278C149.631 274.402 160.064 283.893 162.655 296.397C163.602 300.951 164.3 306.168 164.018 311.004C163.309 323.283 150.566 324.396 150.566 324.396C150.566 324.396 149.913 336.54 149.045 346.345C148.403 353.677 144.595 359.153 137.903 362.212C132.911 364.494 130.162 365.551 123.695 366.586C107.37 369.194 91.6872 363.01 81.3557 351.956C83.2936 340.251 85.1413 325.104 85.0061 324.43C84.9835 324.283 85.0286 324.205 85.0286 324.205L72.3988 313.016L65.2333 307.012C65.2333 307.012 80.9501 283.735 88.0143 279.901" fill="#CAE9EB"/>
<path d="M103.664 287.491C103.619 287.603 102.582 286.625 100.543 286.625C99.5513 286.625 98.3232 286.918 97.3205 287.738C96.8248 288.143 96.3967 288.705 95.8897 289.279C95.3939 289.83 94.7518 290.471 93.8504 290.628C92.9378 290.797 92.1041 290.403 91.4732 289.987C90.8197 289.571 90.2677 289.121 89.7043 288.795C88.5889 288.109 87.3271 288.177 86.4032 288.503C85.4568 288.829 84.8372 289.391 84.4879 289.83C84.1386 290.268 84.0034 290.561 83.9584 290.55C83.9358 290.55 83.9922 290.212 84.3076 289.695C84.6231 289.2 85.254 288.537 86.268 288.121C87.2482 287.705 88.7016 287.581 89.986 288.323C90.6169 288.672 91.1803 289.121 91.7999 289.504C92.4083 289.886 93.0843 290.178 93.7716 290.055C94.4588 289.931 95.0109 289.425 95.4953 288.897C95.9911 288.357 96.4417 287.772 97.0163 287.322C98.1655 286.423 99.5175 286.164 100.588 286.209C101.669 286.254 102.492 286.591 102.999 286.895C103.506 287.21 103.72 287.468 103.697 287.48L103.664 287.491Z" fill="#FAFAFA"/>
<path d="M116.496 304.268C116.417 304.358 115.753 303.11 113.815 302.458C112.88 302.143 111.629 302.03 110.401 302.491C109.793 302.716 109.207 303.11 108.553 303.492C107.911 303.863 107.1 304.257 106.187 304.122C105.275 303.998 104.599 303.346 104.137 302.761C103.652 302.165 103.269 301.558 102.841 301.063C102.007 300.062 100.779 299.714 99.7991 299.736C98.7964 299.748 98.0302 300.085 97.557 300.377C97.0838 300.681 96.8585 300.917 96.8247 300.883C96.8022 300.872 96.9599 300.568 97.4218 300.186C97.8838 299.815 98.695 299.388 99.7765 299.32C100.836 299.242 102.255 299.579 103.235 300.703C103.72 301.232 104.114 301.839 104.576 302.401C105.027 302.952 105.579 303.458 106.266 303.548C106.953 303.65 107.641 303.346 108.272 302.997C108.914 302.649 109.522 302.233 110.221 301.997C111.606 301.513 112.958 301.693 113.95 302.086C114.953 302.48 115.64 303.054 116.012 303.503C116.395 303.964 116.519 304.268 116.485 304.29L116.496 304.268Z" fill="#FAFAFA"/>
<path d="M145.012 279.687C144.989 279.811 143.772 279.069 141.778 279.507C140.809 279.721 139.671 280.261 138.872 281.273C138.466 281.767 138.173 282.42 137.801 283.083C137.441 283.724 136.945 284.489 136.089 284.837C135.232 285.197 134.331 284.983 133.633 284.714C132.911 284.444 132.269 284.118 131.65 283.926C130.422 283.499 129.194 283.825 128.36 284.342C127.515 284.86 127.019 285.546 126.76 286.04C126.512 286.546 126.444 286.861 126.388 286.85C126.366 286.85 126.343 286.513 126.546 285.95C126.749 285.399 127.222 284.612 128.123 283.994C128.991 283.387 130.388 282.948 131.796 283.409C132.483 283.612 133.137 283.938 133.813 284.174C134.489 284.421 135.21 284.567 135.852 284.286C136.494 284.028 136.934 283.409 137.283 282.791C137.655 282.161 137.97 281.498 138.432 280.935C139.367 279.811 140.629 279.271 141.677 279.103C142.736 278.923 143.626 279.069 144.178 279.26C144.741 279.462 145.001 279.665 144.989 279.687H145.012Z" fill="#FAFAFA"/>
<path d="M131.852 298.14C131.774 298.218 131.289 297.24 129.824 296.689C129.115 296.419 128.168 296.295 127.233 296.61C126.771 296.757 126.309 297.049 125.78 297.319C125.262 297.577 124.619 297.87 123.887 297.735C123.155 297.6 122.659 297.06 122.31 296.588C121.96 296.104 121.69 295.621 121.375 295.238C120.777 294.451 119.876 294.148 119.121 294.114C117.566 294.069 116.845 294.946 116.789 294.845C116.767 294.822 116.89 294.598 117.262 294.305C117.634 294.024 118.276 293.709 119.121 293.698C119.955 293.664 121.059 293.979 121.78 294.89C122.141 295.317 122.422 295.801 122.76 296.239C123.087 296.678 123.481 297.06 123.988 297.15C125.025 297.33 125.971 296.397 127.053 296.093C128.157 295.767 129.205 295.969 129.96 296.307C131.526 297.026 131.886 298.151 131.83 298.14H131.852Z" fill="#FAFAFA"/>
<path d="M102.841 313.68C102.762 313.758 102.278 312.78 100.813 312.229C100.103 311.959 99.1569 311.836 98.2218 312.15C97.7599 312.297 97.2979 312.589 96.7684 312.859C96.2501 313.118 95.608 313.41 94.8756 313.275C94.1433 313.14 93.6476 312.6 93.2983 312.128C92.949 311.644 92.6787 311.161 92.3632 310.779C91.7661 309.992 90.8647 309.688 90.1099 309.654C88.5551 309.609 87.8228 310.486 87.7777 310.385C87.7552 310.363 87.8791 310.138 88.2509 309.845C88.6227 309.564 89.2649 309.249 90.1099 309.238C90.9436 309.204 92.0477 309.519 92.7688 310.43C93.1293 310.857 93.411 311.341 93.749 311.779C94.0757 312.218 94.47 312.6 94.977 312.69C96.0136 312.87 96.9599 311.937 98.0415 311.633C99.1457 311.307 100.193 311.51 100.948 311.847C102.514 312.567 102.875 313.691 102.819 313.68H102.841Z" fill="#FAFAFA"/>
<path d="M129.971 314.028C129.915 314.129 129.149 313.365 127.582 313.309C126.828 313.286 125.893 313.477 125.104 314.073C124.71 314.366 124.372 314.782 123.955 315.209C123.549 315.625 123.031 316.109 122.298 316.21C121.566 316.311 120.913 315.974 120.439 315.636C119.944 315.288 119.538 314.928 119.11 314.658C118.288 314.107 117.33 314.107 116.62 314.321C115.133 314.782 114.727 315.85 114.648 315.771C114.615 315.771 114.66 315.501 114.919 315.108C115.178 314.725 115.685 314.219 116.485 313.927C117.262 313.623 118.412 313.567 119.392 314.197C119.876 314.489 120.304 314.849 120.755 315.164C121.206 315.479 121.701 315.715 122.208 315.636C123.245 315.468 123.842 314.287 124.766 313.646C125.701 312.983 126.76 312.825 127.594 312.904C129.306 313.084 130.016 314.028 129.948 314.028H129.971Z" fill="#FAFAFA"/>
<path d="M121.003 326.386C120.946 326.487 120.18 325.723 118.614 325.667C117.859 325.644 116.924 325.835 116.136 326.431C115.741 326.724 115.403 327.14 114.986 327.567C114.581 327.983 114.063 328.466 113.33 328.568C112.598 328.669 111.944 328.332 111.471 327.994C110.975 327.646 110.57 327.286 110.142 327.016C109.319 326.465 108.362 326.465 107.652 326.679C106.165 327.14 105.759 328.208 105.68 328.129C105.646 328.129 105.691 327.859 105.951 327.466C106.21 327.083 106.717 326.577 107.517 326.285C108.294 325.981 109.443 325.925 110.423 326.555C110.908 326.847 111.336 327.207 111.787 327.522C112.237 327.837 112.733 328.073 113.24 327.994C114.277 327.837 114.874 326.645 115.798 326.004C116.733 325.34 117.792 325.183 118.625 325.262C120.338 325.442 121.048 326.386 120.98 326.386H121.003Z" fill="#FAFAFA"/>
<path d="M102.086 357.039C102.007 357.118 101.512 356.151 100.047 355.622C99.3372 355.363 98.3909 355.251 97.4557 355.577C96.9938 355.735 96.5319 356.027 96.0136 356.308C95.5066 356.578 94.8532 356.87 94.1321 356.747C93.3998 356.623 92.8928 356.083 92.5435 355.622C92.183 355.139 91.9013 354.666 91.5859 354.284C90.9775 353.508 90.0649 353.216 89.3213 353.193C87.7552 353.171 87.0567 354.059 87.0004 353.958C86.9778 353.935 87.1018 353.711 87.4623 353.418C87.8228 353.137 88.465 352.811 89.3213 352.777C90.1437 352.732 91.2591 353.036 92.0027 353.935C92.3745 354.363 92.6674 354.835 93.0054 355.274C93.3434 355.712 93.7378 356.083 94.2448 356.173C95.2813 356.342 96.2164 355.397 97.298 355.071C98.3909 354.723 99.4499 354.914 100.216 355.24C101.793 355.937 102.165 357.05 102.109 357.039H102.086Z" fill="#FAFAFA"/>
<path d="M124.225 363.561C124.169 363.662 123.414 362.886 121.848 362.807C121.093 362.774 120.146 362.942 119.358 363.538C118.963 363.819 118.614 364.235 118.197 364.663C117.792 365.068 117.262 365.54 116.53 365.641C115.798 365.742 115.144 365.382 114.682 365.034C114.198 364.685 113.792 364.314 113.375 364.033C112.564 363.471 111.606 363.46 110.885 363.662C109.387 364.101 108.981 365.169 108.891 365.079C108.857 365.079 108.914 364.809 109.173 364.427C109.432 364.044 109.95 363.55 110.75 363.268C111.528 362.976 112.677 362.942 113.657 363.572C114.13 363.864 114.558 364.235 115.009 364.55C115.46 364.865 115.955 365.113 116.462 365.045C117.499 364.899 118.119 363.718 119.054 363.089C120 362.436 121.059 362.301 121.882 362.391C123.594 362.594 124.281 363.55 124.225 363.55V363.561Z" fill="#FAFAFA"/>
<path d="M51.2628 270.568C51.95 271.377 76.7139 304.425 76.7139 304.425L73.2213 306.393L47.804 273.761L51.2515 270.568H51.2628Z" fill="#263238"/>
<path d="M147.952 294.148C147.952 294.148 124.721 334.134 123.143 334.876C120.045 336.326 84.3977 305.572 80.9952 302.637C80.522 302.008 79.5644 300.692 77.6603 298.072C77.6603 298.072 74.8437 285.231 71.8468 286.209C68.8499 287.199 73.4917 292.742 71.5313 297.622C69.5709 302.503 60.6253 290.864 60.2648 289.819L57.9551 286.805C57.9551 286.805 55.5328 293.653 55.7018 296.52C56.2313 305.685 64.9179 316.581 64.9179 316.581C64.9179 316.581 100.216 360.727 126.94 362.234C134.635 362.661 149.338 340.543 158.487 324.205C164.007 314.332 161.45 304.302 152.29 297.645L147.93 294.159L147.952 294.148Z" fill="#FFBE9D"/>
<path d="M60.0957 298.14C60.0169 298.185 59.0367 296.79 58.1128 294.901C57.1777 293.023 56.6482 291.393 56.7383 291.359C56.8284 291.325 57.5044 292.877 58.4283 294.744C59.3522 296.61 60.1859 298.083 60.0957 298.14Z" fill="#EB996E"/>
<path d="M146.86 283.027C145.947 283.578 124.338 323.609 124.338 323.609L152.144 345.356C152.144 345.356 159.377 327.567 163.196 313.106C164.233 309.182 163.703 298.691 162.238 294.643C160.165 288.897 157.033 290.325 152.335 286.962L146.86 283.027Z" fill="#CAE9EB"/>
<g opacity="0.7">
<path d="M155.986 283.027C155.986 283.027 155.715 282.869 155.197 282.611C154.69 282.352 153.845 282.026 152.752 282.094C151.659 282.127 150.363 282.667 149.124 283.6C147.874 284.545 146.657 285.883 145.508 287.491C144.336 289.088 143.367 291.044 142.173 293.068C141.012 295.115 139.762 297.285 138.455 299.579C135.83 304.167 132.934 309.193 129.903 314.478C128.056 317.683 126.264 320.798 124.574 323.732L124.507 323.373C132.044 329.31 138.601 334.482 143.322 338.215C145.609 340.048 147.457 341.533 148.786 342.59C149.383 343.084 149.868 343.478 150.228 343.782C150.555 344.063 150.724 344.209 150.713 344.22C150.713 344.231 150.521 344.108 150.172 343.86C149.789 343.579 149.293 343.208 148.662 342.747C147.31 341.724 145.429 340.284 143.097 338.508C138.342 334.82 131.74 329.703 124.157 323.834L123.966 323.687L124.09 323.474C125.769 320.539 127.56 317.424 129.408 314.219C132.45 308.946 135.345 303.919 137.993 299.343C139.311 297.06 140.573 294.89 141.756 292.855C142.95 290.842 143.964 288.874 145.181 287.266C146.375 285.647 147.637 284.298 148.944 283.353C150.24 282.408 151.603 281.88 152.763 281.88C153.912 281.846 154.769 282.217 155.276 282.521C155.546 282.656 155.715 282.813 155.839 282.892C155.963 282.982 156.019 283.027 156.019 283.038L155.986 283.027Z" fill="black"/>
</g>
<path d="M147.682 320.561C147.603 320.64 147.119 319.662 145.654 319.111C144.944 318.841 143.998 318.717 143.063 319.032C142.601 319.178 142.139 319.471 141.609 319.741C141.091 319.999 140.449 320.292 139.717 320.157C138.984 320.022 138.489 319.482 138.139 319.01C137.79 318.526 137.52 318.043 137.204 317.66C136.607 316.873 135.706 316.57 134.951 316.536C133.396 316.491 132.675 317.368 132.619 317.267C132.596 317.244 132.72 317.019 133.092 316.727C133.464 316.446 134.106 316.131 134.951 316.12C135.785 316.086 136.889 316.401 137.61 317.312C137.97 317.739 138.252 318.223 138.59 318.661C138.917 319.1 139.311 319.482 139.818 319.572C140.854 319.752 141.801 318.819 142.882 318.515C143.987 318.189 145.034 318.391 145.789 318.729C147.355 319.448 147.716 320.573 147.659 320.561H147.682Z" fill="#FAFAFA"/>
<path d="M160.402 315.378C160.301 315.434 160.098 314.366 158.847 313.444C158.239 312.994 157.36 312.623 156.369 312.668C155.884 312.69 155.355 312.836 154.78 312.96C154.217 313.072 153.507 313.174 152.842 312.848C152.177 312.521 151.839 311.869 151.637 311.318C151.422 310.756 151.299 310.216 151.096 309.767C150.735 308.845 149.947 308.305 149.237 308.08C147.75 307.619 146.814 308.271 146.792 308.159C146.769 308.136 146.961 307.945 147.389 307.765C147.817 307.596 148.516 307.473 149.349 307.675C150.161 307.866 151.141 308.473 151.592 309.542C151.828 310.048 151.963 310.599 152.166 311.105C152.358 311.622 152.639 312.094 153.101 312.319C154.048 312.769 155.219 312.128 156.346 312.128C157.495 312.105 158.453 312.589 159.095 313.117C160.413 314.231 160.447 315.411 160.402 315.378Z" fill="#FAFAFA"/>
<path d="M161.055 298.837C160.954 298.893 160.751 297.825 159.501 296.903C158.892 296.453 158.013 296.082 157.022 296.127C156.537 296.149 156.008 296.296 155.433 296.419C154.87 296.532 154.16 296.633 153.496 296.307C152.831 295.981 152.493 295.329 152.29 294.778C152.076 294.215 151.952 293.676 151.749 293.226C151.389 292.304 150.6 291.764 149.89 291.539C148.403 291.078 147.468 291.73 147.445 291.618C147.423 291.595 147.614 291.404 148.043 291.224C148.471 291.056 149.169 290.932 150.003 291.134C150.814 291.325 151.794 291.933 152.245 293.001C152.482 293.507 152.617 294.058 152.82 294.564C153.011 295.081 153.293 295.553 153.755 295.778C154.701 296.228 155.873 295.587 156.999 295.587C158.149 295.565 159.106 296.048 159.748 296.577C161.067 297.69 161.1 298.871 161.055 298.837Z" fill="#FAFAFA"/>
<path d="M154.893 336.877C154.791 336.934 154.588 335.865 153.338 334.943C152.729 334.494 151.851 334.122 150.859 334.167C150.375 334.19 149.845 334.336 149.271 334.46C148.707 334.572 147.997 334.673 147.333 334.347C146.668 334.021 146.33 333.369 146.127 332.818C145.913 332.256 145.789 331.716 145.586 331.266C145.226 330.344 144.437 329.805 143.727 329.58C142.24 329.119 141.305 329.771 141.283 329.658C141.26 329.636 141.452 329.445 141.88 329.265C142.308 329.096 143.006 328.972 143.84 329.175C144.651 329.366 145.631 329.973 146.082 331.041C146.319 331.547 146.454 332.098 146.657 332.604C146.848 333.122 147.13 333.594 147.592 333.819C148.538 334.269 149.71 333.628 150.837 333.628C151.986 333.605 152.943 334.089 153.586 334.617C154.904 335.73 154.938 336.911 154.893 336.877Z" fill="#FAFAFA"/>
</g>
<defs>
<clipPath id="clip0_192_1477">
<rect width="455" height="467" fill="white"/>
</clipPath>
</defs>
</svg>
