<?xml version="1.0" encoding="UTF-8"?>
<svg xmlns="http://www.w3.org/2000/svg" viewBox="0 0 463.96 456.48">
  <defs>
    <style>
      .cls-1 {
        fill: #bfdd7d;
      }

      .cls-2 {
        fill: #ebebeb;
      }

      .cls-3 {
        fill: #263238;
      }

      .cls-4 {
        fill: #fff;
      }

      .cls-5 {
        fill: #fafafa;
      }

      .cls-6 {
        opacity: .6;
      }

      .cls-7 {
        opacity: .3;
      }

      .cls-8 {
        fill: #ffbf9d;
      }

      .cls-9 {
        fill: #f5f5f5;
      }

      .cls-10 {
        fill: #455a64;
      }

      .cls-11 {
        fill: #e0e0e0;
      }

      .cls-12 {
        fill: #ff9a6c;
      }
    </style>
  </defs>
  <g id="Background_Complete">
    <g>
      <g>
        <rect class="cls-11" x="12.11" y="124.6" width="60.35" height="112.01" transform="translate(84.57 361.21) rotate(180)"/>
        <rect class="cls-11" x="71.71" y="154.84" width="102.15" height="81.78" transform="translate(245.58 391.45) rotate(180)"/>
        <path class="cls-2" d="M72.42,236.68c.11,0,.2-24.65.2-55.05s-.09-55.05-.2-55.05-.2,24.64-.2,55.05.09,55.05.2,55.05Z"/>
        <rect class="cls-2" x="12.11" y="199.78" width="161.76" height="36.83" transform="translate(185.98 436.39) rotate(180)"/>
        <polygon class="cls-2" points="74.36 119.68 42.31 103.18 10.43 119.68 74.36 119.68"/>
        <g>
          <rect class="cls-11" x="10.43" y="119.68" width="63.93" height="3.69" transform="translate(84.79 243.04) rotate(180)"/>
          <rect class="cls-11" x="11.21" y="123.37" width="62.17" height="1.23" transform="translate(84.59 247.96) rotate(180)"/>
          <path class="cls-2" d="M10.37,123.37c0,.11,14.33.2,31.99.2s32-.09,32-.2-14.32-.2-32-.2-31.99.09-31.99.2Z"/>
          <path class="cls-2" d="M11.16,124.6c0,.11,13.93.2,31.11.2s31.11-.09,31.11-.2-13.93-.2-31.11-.2-31.11.09-31.11.2Z"/>
        </g>
        <g>
          <rect class="cls-2" x="46.96" y="137.75" width="12.97" height="22.29" transform="translate(106.89 297.79) rotate(180)"/>
          <rect class="cls-5" x="48.4" y="139.38" width="10.16" height="19.39" transform="translate(106.96 298.15) rotate(180)"/>
          <path class="cls-11" d="M53.69,158.86c.11,0,.2-4.37.2-9.76s-.09-9.76-.2-9.76-.2,4.37-.2,9.76.09,9.76.2,9.76Z"/>
          <path class="cls-11" d="M48.4,145.23c0,.11,2.28.2,5.08.2s5.08-.09,5.08-.2-2.27-.2-5.08-.2-5.08.09-5.08.2Z"/>
          <path class="cls-11" d="M48.4,152.07c0,.11,2.28.2,5.08.2s5.08-.09,5.08-.2-2.27-.2-5.08-.2-5.08.09-5.08.2Z"/>
        </g>
        <g>
          <rect class="cls-2" x="24.48" y="137.75" width="12.97" height="22.29" transform="translate(61.93 297.79) rotate(180)"/>
          <rect class="cls-5" x="25.92" y="139.38" width="10.16" height="19.39" transform="translate(62 298.15) rotate(180)"/>
          <path class="cls-11" d="M31.21,158.86c.11,0,.2-4.37.2-9.76s-.09-9.76-.2-9.76-.2,4.37-.2,9.76.09,9.76.2,9.76Z"/>
          <path class="cls-11" d="M25.92,145.23c0,.11,2.28.2,5.08.2s5.08-.09,5.08-.2-2.27-.2-5.08-.2-5.08.09-5.08.2Z"/>
          <path class="cls-11" d="M25.92,152.07c0,.11,2.28.2,5.08.2s5.08-.09,5.08-.2-2.27-.2-5.08-.2-5.08.09-5.08.2Z"/>
        </g>
        <g>
          <rect class="cls-2" x="46.96" y="165.91" width="12.97" height="22.29" transform="translate(106.89 354.11) rotate(180)"/>
          <rect class="cls-5" x="48.4" y="167.54" width="10.16" height="19.39" transform="translate(106.96 354.47) rotate(180)"/>
          <path class="cls-11" d="M53.69,187.02c.11,0,.2-4.37.2-9.76s-.09-9.76-.2-9.76-.2,4.37-.2,9.76.09,9.76.2,9.76Z"/>
          <path class="cls-11" d="M48.4,173.39c0,.11,2.28.2,5.08.2s5.08-.09,5.08-.2-2.27-.2-5.08-.2-5.08.09-5.08.2Z"/>
          <path class="cls-11" d="M48.4,180.23c0,.11,2.28.2,5.08.2s5.08-.09,5.08-.2-2.27-.2-5.08-.2-5.08.09-5.08.2Z"/>
        </g>
        <g>
          <rect class="cls-2" x="24.48" y="165.91" width="12.97" height="22.29" transform="translate(61.93 354.11) rotate(180)"/>
          <rect class="cls-5" x="25.92" y="167.54" width="10.16" height="19.39" transform="translate(62 354.47) rotate(180)"/>
          <path class="cls-11" d="M31.21,187.02c.11,0,.2-4.37.2-9.76s-.09-9.76-.2-9.76-.2,4.37-.2,9.76.09,9.76.2,9.76Z"/>
          <path class="cls-11" d="M25.92,173.39c0,.11,2.28.2,5.08.2s5.08-.09,5.08-.2-2.27-.2-5.08-.2-5.08.09-5.08.2Z"/>
          <path class="cls-11" d="M25.92,180.23c0,.11,2.28.2,5.08.2s5.08-.09,5.08-.2-2.27-.2-5.08-.2-5.08.09-5.08.2Z"/>
        </g>
        <g>
          <rect class="cls-9" x="148.54" y="164.91" width="12.97" height="22.29" transform="translate(310.04 352.11) rotate(180)"/>
          <rect class="cls-5" x="149.97" y="166.54" width="10.16" height="19.39" transform="translate(310.11 352.48) rotate(180)"/>
          <path class="cls-11" d="M155.26,186.02c.11,0,.2-4.37.2-9.76s-.09-9.76-.2-9.76-.2,4.37-.2,9.76.09,9.76.2,9.76Z"/>
          <path class="cls-11" d="M149.97,172.39c0,.11,2.28.2,5.08.2s5.08-.09,5.08-.2-2.27-.2-5.08-.2-5.08.09-5.08.2Z"/>
          <path class="cls-11" d="M149.97,179.24c0,.11,2.28.2,5.08.2s5.08-.09,5.08-.2-2.27-.2-5.08-.2-5.08.09-5.08.2Z"/>
        </g>
        <g>
          <rect class="cls-9" x="125.03" y="164.91" width="12.97" height="22.29" transform="translate(263.03 352.11) rotate(180)"/>
          <rect class="cls-5" x="126.47" y="166.54" width="10.16" height="19.39" transform="translate(263.1 352.48) rotate(180)"/>
          <path class="cls-11" d="M131.75,186.02c.11,0,.2-4.37.2-9.76s-.09-9.76-.2-9.76-.2,4.37-.2,9.76.09,9.76.2,9.76Z"/>
          <path class="cls-11" d="M126.47,172.39c0,.11,2.28.2,5.08.2s5.08-.09,5.08-.2-2.27-.2-5.08-.2-5.08.09-5.08.2Z"/>
          <path class="cls-11" d="M126.47,179.24c0,.11,2.28.2,5.08.2s5.08-.09,5.08-.2-2.27-.2-5.08-.2-5.08.09-5.08.2Z"/>
        </g>
        <g>
          <rect class="cls-9" x="101.53" y="164.91" width="12.97" height="22.29" transform="translate(216.02 352.11) rotate(180)"/>
          <rect class="cls-5" x="102.96" y="166.54" width="10.16" height="19.39" transform="translate(216.09 352.48) rotate(180)"/>
          <path class="cls-11" d="M108.25,186.02c.11,0,.2-4.37.2-9.76s-.09-9.76-.2-9.76-.2,4.37-.2,9.76.09,9.76.2,9.76Z"/>
          <path class="cls-11" d="M102.96,172.39c0,.11,2.28.2,5.08.2s5.08-.09,5.08-.2-2.27-.2-5.08-.2-5.08.09-5.08.2Z"/>
          <path class="cls-11" d="M102.96,179.24c0,.11,2.28.2,5.08.2s5.08-.09,5.08-.2-2.27-.2-5.08-.2-5.08.09-5.08.2Z"/>
        </g>
        <g>
          <rect class="cls-9" x="78.02" y="164.91" width="12.97" height="22.29" transform="translate(169.01 352.11) rotate(180)"/>
          <rect class="cls-5" x="79.46" y="166.54" width="10.16" height="19.39" transform="translate(169.08 352.48) rotate(180)"/>
          <path class="cls-11" d="M84.75,186.02c.11,0,.2-4.37.2-9.76s-.09-9.76-.2-9.76-.2,4.37-.2,9.76.09,9.76.2,9.76Z"/>
          <path class="cls-11" d="M79.46,172.39c0,.11,2.28.2,5.08.2s5.08-.09,5.08-.2-2.27-.2-5.08-.2-5.08.09-5.08.2Z"/>
          <path class="cls-11" d="M79.46,179.24c0,.11,2.28.2,5.08.2s5.08-.09,5.08-.2-2.27-.2-5.08-.2-5.08.09-5.08.2Z"/>
        </g>
        <rect class="cls-11" x="10.26" y="193.6" width="163.89" height="3.77" transform="translate(184.41 390.98) rotate(180)"/>
        <rect class="cls-11" x="11.24" y="197.25" width="162.91" height="2.53" transform="translate(185.38 397.03) rotate(180)"/>
        <path class="cls-2" d="M174.15,197.55c0-.11-36.53-.2-81.57-.2s-81.58.09-81.58.2,36.52.2,81.58.2,81.57-.09,81.57-.2Z"/>
        <path class="cls-2" d="M174.15,199.78c0-.11-36.53-.2-81.57-.2s-81.58.09-81.58.2,36.52.2,81.58.2,81.57-.09,81.57-.2Z"/>
        <path class="cls-2" d="M174.15,193.6c0-.11-36.53-.2-81.57-.2s-81.58.09-81.58.2,36.52.2,81.58.2,81.57-.09,81.57-.2Z"/>
        <g>
          <path class="cls-11" d="M141.72,203.68h13.63v22.72c0,3.49-2.83,6.32-6.32,6.32h-.99c-3.49,0-6.32-2.83-6.32-6.32v-22.72h0Z" transform="translate(297.07 436.39) rotate(180)"/>
          <path class="cls-5" d="M143.65,205.77h9.77v20.32c0,2.5-2.03,4.53-4.53,4.53h-.71c-2.5,0-4.53-2.03-4.53-4.53v-20.32h0Z" transform="translate(297.07 436.39) rotate(180)"/>
          <path class="cls-11" d="M148.53,230.62c.11,0,.2-5.56.2-12.42s-.09-12.42-.2-12.42-.2,5.56-.2,12.42.09,12.42.2,12.42Z"/>
          <path class="cls-11" d="M143.71,213.51c0,.11,2.18.2,4.86.2s4.86-.09,4.86-.2-2.18-.2-4.86-.2-4.86.09-4.86.2Z"/>
          <path class="cls-11" d="M143.71,221.65c0,.11,2.18.2,4.86.2s4.86-.09,4.86-.2-2.18-.2-4.86-.2-4.86.09-4.86.2Z"/>
        </g>
        <g>
          <path class="cls-11" d="M115.23,203.68h13.63v22.72c0,3.49-2.83,6.32-6.32,6.32h-.99c-3.49,0-6.32-2.83-6.32-6.32v-22.72h0Z" transform="translate(244.08 436.39) rotate(180)"/>
          <path class="cls-5" d="M117.16,205.77h9.77v20.32c0,2.5-2.03,4.53-4.53,4.53h-.71c-2.5,0-4.53-2.03-4.53-4.53v-20.32h0Z" transform="translate(244.08 436.39) rotate(180)"/>
          <path class="cls-11" d="M122.04,230.62c.11,0,.2-5.56.2-12.42s-.09-12.42-.2-12.42-.2,5.56-.2,12.42.09,12.42.2,12.42Z"/>
          <path class="cls-11" d="M117.22,213.51c0,.11,2.18.2,4.86.2s4.86-.09,4.86-.2-2.18-.2-4.86-.2-4.86.09-4.86.2Z"/>
          <path class="cls-11" d="M117.22,221.65c0,.11,2.18.2,4.86.2s4.86-.09,4.86-.2-2.18-.2-4.86-.2-4.86.09-4.86.2Z"/>
        </g>
        <g>
          <path class="cls-11" d="M88.73,203.68h13.63v22.72c0,3.49-2.83,6.32-6.32,6.32h-.99c-3.49,0-6.32-2.83-6.32-6.32v-22.72h0Z" transform="translate(191.09 436.39) rotate(180)"/>
          <path class="cls-5" d="M90.66,205.77h9.77v20.32c0,2.5-2.03,4.53-4.53,4.53h-.71c-2.5,0-4.53-2.03-4.53-4.53v-20.32h0Z" transform="translate(191.09 436.39) rotate(180)"/>
          <path class="cls-11" d="M95.54,230.62c.11,0,.2-5.56.2-12.42s-.09-12.42-.2-12.42-.2,5.56-.2,12.42.09,12.42.2,12.42Z"/>
          <path class="cls-11" d="M90.73,213.51c0,.11,2.18.2,4.86.2s4.86-.09,4.86-.2-2.18-.2-4.86-.2-4.86.09-4.86.2Z"/>
          <path class="cls-11" d="M90.73,221.65c0,.11,2.18.2,4.86.2s4.86-.09,4.86-.2-2.18-.2-4.86-.2-4.86.09-4.86.2Z"/>
        </g>
        <g>
          <path class="cls-11" d="M62.24,203.68h13.63v22.72c0,3.49-2.83,6.32-6.32,6.32h-.99c-3.49,0-6.32-2.83-6.32-6.32v-22.72h0Z" transform="translate(138.1 436.39) rotate(180)"/>
          <path class="cls-5" d="M64.17,205.77h9.77v20.32c0,2.5-2.03,4.53-4.53,4.53h-.71c-2.5,0-4.53-2.03-4.53-4.53v-20.32h0Z" transform="translate(138.1 436.39) rotate(180)"/>
          <path class="cls-11" d="M69.05,230.62c.11,0,.2-5.56.2-12.42s-.09-12.42-.2-12.42-.2,5.56-.2,12.42.09,12.42.2,12.42Z"/>
          <path class="cls-11" d="M64.23,213.51c0,.11,2.18.2,4.86.2s4.86-.09,4.86-.2-2.18-.2-4.86-.2-4.86.09-4.86.2Z"/>
          <path class="cls-11" d="M64.23,221.65c0,.11,2.18.2,4.86.2s4.86-.09,4.86-.2-2.18-.2-4.86-.2-4.86.09-4.86.2Z"/>
        </g>
        <g>
          <path class="cls-11" d="M35.74,203.68h13.63v22.72c0,3.49-2.83,6.32-6.32,6.32h-.99c-3.49,0-6.32-2.83-6.32-6.32v-22.72h0Z" transform="translate(85.11 436.39) rotate(180)"/>
          <path class="cls-5" d="M37.67,205.77h9.77v20.32c0,2.5-2.03,4.53-4.53,4.53h-.71c-2.5,0-4.53-2.03-4.53-4.53v-20.32h0Z" transform="translate(85.11 436.39) rotate(180)"/>
          <path class="cls-11" d="M42.56,230.62c.11,0,.2-5.56.2-12.42s-.09-12.42-.2-12.42-.2,5.56-.2,12.42.09,12.42.2,12.42Z"/>
          <path class="cls-11" d="M37.74,213.51c0,.11,2.18.2,4.86.2s4.86-.09,4.86-.2-2.18-.2-4.86-.2-4.86.09-4.86.2Z"/>
          <path class="cls-11" d="M37.74,221.65c0,.11,2.18.2,4.86.2s4.86-.09,4.86-.2-2.18-.2-4.86-.2-4.86.09-4.86.2Z"/>
        </g>
        <g>
          <g>
            <rect class="cls-11" x="70.91" y="149.92" width="104.87" height="3.69" transform="translate(246.68 303.52) rotate(180)"/>
            <rect class="cls-11" x="72.18" y="153.6" width="101.99" height="1.23" transform="translate(246.35 308.44) rotate(180)"/>
            <path class="cls-2" d="M70.91,149.92s.19,0,.55.01c.37,0,.9,0,1.59.01,1.41,0,3.46.02,6.1.03,5.3.01,12.94.04,22.41.06,18.92.02,45.11.05,74.22.08l-.2-.2c0,1.16,0,2.42,0,3.68h0s.2-.2.2-.2c-50.71,0-93.29.06-104.87.15l.05.05c-.01-1.25-.02-2.16-.03-2.78,0-.61-.02-.91-.02-.91,0,0-.01.28-.02.88,0,.62-.02,1.54-.03,2.81v.05s.05,0,.05,0c11.58.09,54.16.15,104.87.15h.2v-.2h0v-3.89s-.2,0-.2,0c-29.17.03-55.41.06-74.37.08-9.45.03-17.08.05-22.36.06-2.62.01-4.65.02-6.05.03-.68,0-1.2.01-1.56.01-.35,0-.52.01-.52.01Z"/>
            <path class="cls-2" d="M174.17,153.6s-.01.1-.02.31c0,.23-.01.53-.02.93l.04-.04c-5.04-.09-25.98-.16-51.04-.16s-45.99.07-51.04.16l.04.05c.02-.4.03-.7.04-.93,0-.21,0-.31,0-.31,0,0-.02.1-.04.31-.02.23-.05.53-.08.92v.04s.04,0,.04,0c5.04.09,25.98.16,51.04.16s45.99-.07,51.04-.16h.04s0-.04,0-.04c0-.39-.02-.7-.02-.93,0-.2-.01-.31-.02-.31Z"/>
          </g>
          <polygon class="cls-2" points="70.91 149.92 175.78 149.92 173.74 140.56 72.61 140.56 70.91 149.92"/>
        </g>
      </g>
      <rect class="cls-11" x="389.98" y="124.6" width="60.35" height="112.01"/>
      <rect class="cls-11" x="288.57" y="154.84" width="102.15" height="81.78"/>
      <path class="cls-2" d="M390.02,236.68c-.11,0-.2-24.65-.2-55.05s.09-55.05.2-55.05.2,24.64.2,55.05-.09,55.05-.2,55.05Z"/>
      <rect class="cls-2" x="288.57" y="199.78" width="161.76" height="36.83"/>
      <path class="cls-10" d="M188.56,172.91s0-.08-.01-.23c0-.17,0-.38-.01-.65,0-.6-.02-1.42-.03-2.47-.02-2.16-.04-5.24-.07-9.02-.02-3.8-.04-8.31-.07-13.31-.05-1.22-.54-2.44-1.34-3.43-.82-.98-1.98-1.7-3.28-1.98-.65-.14-1.32-.13-2.02-.13-.69,0-1.37.03-2.02.25-1.31.39-2.49,1.27-3.25,2.45-.37.57-.64,1.2-.78,1.85-.15.65-.16,1.31-.15,2,0,1.36,0,2.71,0,4.03,0,2.64,0,5.2-.01,7.63-.02,4.87-.03,9.28-.04,13.02l-.15-.15c4.05.03,7.34.06,9.65.08,1.13.02,2.02.03,2.65.04.29,0,.52.01.7.02.16,0,.24.01.25.02s-.07.01-.22.02c-.17,0-.4,0-.67.02-.63,0-1.51.02-2.62.04-2.33.02-5.65.05-9.74.08h-.15s0-.15,0-.15c-.01-3.74-.03-8.15-.04-13.02,0-2.44,0-4.99-.01-7.63,0-1.32,0-2.67,0-4.03-.06-1.35.17-2.87,1-4.07.81-1.26,2.08-2.2,3.48-2.62.69-.23,1.44-.26,2.14-.26.69,0,1.41,0,2.1.14,1.39.3,2.62,1.08,3.49,2.12.86,1.05,1.37,2.35,1.42,3.65.02,5.08-.02,9.62-.04,13.44-.03,3.78-.05,6.85-.07,9.01-.01,1.03-.02,1.85-.03,2.43,0,.26-.01.46-.01.62,0,.14,0,.21-.01.2Z"/>
      <g>
        <rect class="cls-2" x="157.16" y="124.57" width="130.73" height="90.93"/>
        <rect class="cls-11" x="153.58" y="125.62" width="138.46" height="4.15"/>
        <rect class="cls-11" x="154.12" y="121.46" width="137.62" height="1.4"/>
        <rect class="cls-11" x="153.58" y="118.21" width="139.51" height="3.25"/>
        <rect class="cls-11" x="155.24" y="121.46" width="135" height="4.18"/>
        <polygon class="cls-11" points="153.7 118.21 293.17 118.21 222.87 85.17 153.7 118.21"/>
        <rect class="cls-11" x="155.24" y="129.77" width="134.85" height="2.12"/>
        <g>
          <rect class="cls-11" x="157.16" y="131.89" width="8.15" height="83.61"/>
          <path class="cls-2" d="M165.31,215.5s0-.15-.01-.44c0-.3,0-.72-.01-1.26,0-1.11-.02-2.74-.03-4.82-.01-4.19-.03-10.25-.06-17.77-.02-15.03-.05-35.9-.09-59.33l.2.2c-2.6,0-5.36,0-8.15,0h0l.2-.2c-.05,37.28-.1,69.35-.12,83.61l-.08-.08c2.62.02,4.65.04,6.04.05.68,0,1.2.01,1.57.02.36,0,.54.02.54.02,0,0-.17.01-.52.02-.36,0-.88.01-1.55.02-1.4.01-3.44.03-6.08.05h-.08s0-.08,0-.08c-.02-14.26-.07-46.32-.12-83.61v-.2s.2,0,.2,0h0c2.79,0,5.55,0,8.15,0h.2v.2c-.03,23.48-.06,44.41-.09,59.47-.03,7.5-.05,13.54-.06,17.72-.01,2.06-.02,3.67-.03,4.77,0,.53-.01.94-.01,1.23,0,.28-.01.41-.01.41Z"/>
        </g>
        <g>
          <rect class="cls-11" x="181.84" y="131.89" width="8.15" height="83.61"/>
          <path class="cls-2" d="M189.99,215.5s0-.15-.01-.44c0-.3,0-.72-.01-1.26,0-1.11-.02-2.74-.03-4.82-.01-4.19-.03-10.25-.06-17.77-.02-15.03-.05-35.9-.09-59.33l.2.2c-2.6,0-5.36,0-8.15,0h0l.2-.2c-.05,37.28-.1,69.35-.12,83.61l-.08-.08c2.62.02,4.65.04,6.04.05.68,0,1.2.01,1.57.02.36,0,.54.02.54.02,0,0-.17.01-.52.02-.36,0-.88.01-1.55.02-1.4.01-3.44.03-6.08.05h-.08s0-.08,0-.08c-.02-14.26-.07-46.32-.12-83.61v-.2s.2,0,.2,0h0c2.79,0,5.55,0,8.15,0h.2v.2c-.03,23.48-.06,44.41-.09,59.47-.03,7.5-.05,13.54-.06,17.72-.01,2.06-.02,3.67-.03,4.77,0,.53-.01.94-.01,1.23,0,.28-.01.41-.01.41Z"/>
        </g>
        <g>
          <rect class="cls-11" x="258.25" y="131.89" width="8.15" height="83.61"/>
          <path class="cls-2" d="M266.41,215.5s0-.15-.01-.44c0-.3,0-.72-.01-1.26,0-1.11-.02-2.74-.03-4.82-.01-4.19-.03-10.25-.06-17.77-.02-15.03-.05-35.9-.09-59.33l.2.2c-2.6,0-5.36,0-8.15,0h0l.2-.2c-.05,37.28-.1,69.35-.12,83.61l-.08-.08c2.62.02,4.65.04,6.04.05.68,0,1.2.01,1.57.02.36,0,.54.02.54.02,0,0-.17.01-.52.02-.36,0-.88.01-1.55.02-1.4.01-3.44.03-6.08.05h-.08s0-.08,0-.08c-.02-14.26-.07-46.32-.12-83.61v-.2s.2,0,.2,0h0c2.79,0,5.55,0,8.15,0h.2v.2c-.03,23.48-.06,44.41-.09,59.47-.03,7.5-.05,13.54-.06,17.72-.01,2.06-.02,3.67-.03,4.77,0,.53-.01.94-.01,1.23,0,.28-.01.41-.01.41Z"/>
        </g>
        <g>
          <rect class="cls-11" x="280.57" y="131.89" width="8.15" height="83.61"/>
          <path class="cls-2" d="M288.72,215.5s0-.15-.01-.44c0-.3,0-.72-.01-1.26,0-1.11-.02-2.74-.03-4.82-.01-4.19-.03-10.25-.06-17.77-.02-15.03-.05-35.9-.09-59.33l.2.2c-2.6,0-5.36,0-8.15,0h0l.2-.2c-.05,37.28-.1,69.35-.12,83.61l-.08-.08c2.62.02,4.65.04,6.04.05.68,0,1.2.01,1.57.02.36,0,.54.02.54.02,0,0-.17.01-.52.02-.36,0-.88.01-1.55.02-1.4.01-3.44.03-6.08.05h-.08s0-.08,0-.08c-.02-14.26-.07-46.32-.12-83.61v-.2s.2,0,.2,0h0c2.79,0,5.55,0,8.15,0h.2v.2c-.03,23.48-.06,44.41-.09,59.47-.03,7.5-.05,13.54-.06,17.72-.01,2.06-.02,3.67-.03,4.77,0,.53-.01.94-.01,1.23,0,.28-.01.41-.01.41Z"/>
        </g>
        <g>
          <g>
            <path class="cls-5" d="M208.78,175.83h-13.26v-25.37c0-3.35,2.71-6.06,6.06-6.06h1.14c3.35,0,6.06,2.71,6.06,6.06v25.37Z"/>
            <path class="cls-11" d="M208.78,175.83s0-.08-.01-.23c0-.17,0-.38-.01-.65,0-.6-.02-1.42-.03-2.47-.02-2.16-.04-5.24-.07-9.03-.02-3.8-.04-8.31-.07-13.31-.05-1.22-.54-2.44-1.34-3.43-.82-.98-1.98-1.7-3.28-1.98-.65-.14-1.32-.13-2.02-.13-.69,0-1.37.03-2.02.25-1.31.39-2.49,1.27-3.25,2.45-.37.57-.64,1.2-.78,1.85-.15.65-.16,1.31-.15,2,0,1.36,0,2.71,0,4.03,0,2.64,0,5.2-.01,7.63-.02,4.87-.03,9.28-.04,13.02l-.15-.15c4.05.03,7.34.06,9.65.08,1.13.02,2.02.03,2.65.04.29,0,.52.01.7.02.16,0,.24.01.25.02s-.07.01-.22.02c-.17,0-.4,0-.67.02-.63,0-1.51.02-2.62.04-2.33.02-5.65.05-9.74.08h-.15s0-.15,0-.15c-.01-3.74-.03-8.15-.04-13.02,0-2.44,0-4.99-.01-7.63,0-1.32,0-2.67,0-4.03-.06-1.35.17-2.87,1-4.07.81-1.26,2.08-2.2,3.48-2.62.69-.23,1.44-.26,2.14-.26.69,0,1.41,0,2.1.14,1.39.3,2.62,1.08,3.49,2.12.86,1.05,1.37,2.35,1.42,3.65.02,5.08-.02,9.62-.04,13.44-.03,3.78-.05,6.85-.07,9.01-.01,1.03-.02,1.85-.03,2.43,0,.26-.01.46-.01.62,0,.14,0,.21-.01.2Z"/>
          </g>
          <path class="cls-11" d="M202.15,175.6c-.11,0-.2-6.94-.2-15.49s.09-15.49.2-15.49.2,6.93.2,15.49-.09,15.49-.2,15.49Z"/>
          <path class="cls-11" d="M208.78,151.55c0,.11-2.97.2-6.63.2s-6.63-.09-6.63-.2,2.97-.2,6.63-.2,6.63.09,6.63.2Z"/>
          <path class="cls-11" d="M208.78,159.33c0,.11-2.97.2-6.63.2s-6.63-.09-6.63-.2,2.97-.2,6.63-.2,6.63.09,6.63.2Z"/>
          <path class="cls-11" d="M208.78,167.11c0,.11-2.97.2-6.63.2s-6.63-.09-6.63-.2,2.97-.2,6.63-.2,6.63.09,6.63.2Z"/>
        </g>
        <g>
          <g>
            <path class="cls-5" d="M231.4,175.83h-13.26v-25.37c0-3.35,2.71-6.06,6.06-6.06h1.14c3.35,0,6.06,2.71,6.06,6.06v25.37Z"/>
            <path class="cls-11" d="M231.4,175.83s0-.08-.01-.23c0-.17,0-.38-.01-.65,0-.6-.02-1.42-.03-2.47-.02-2.16-.04-5.24-.07-9.03-.02-3.8-.04-8.31-.07-13.31-.05-1.22-.54-2.44-1.34-3.43-.82-.98-1.98-1.7-3.28-1.98-.65-.14-1.32-.13-2.02-.13-.69,0-1.37.03-2.02.25-1.31.39-2.49,1.27-3.25,2.45-.37.57-.64,1.2-.78,1.85-.15.65-.16,1.31-.15,2,0,1.36,0,2.71,0,4.03,0,2.64,0,5.2-.01,7.63-.02,4.87-.03,9.28-.04,13.02l-.15-.15c4.05.03,7.34.06,9.65.08,1.13.02,2.02.03,2.65.04.29,0,.52.01.7.02.16,0,.24.01.25.02s-.07.01-.22.02c-.17,0-.4,0-.67.02-.63,0-1.51.02-2.62.04-2.33.02-5.65.05-9.74.08h-.15s0-.15,0-.15c-.01-3.74-.03-8.15-.04-13.02,0-2.44,0-4.99-.01-7.63,0-1.32,0-2.67,0-4.03-.06-1.35.17-2.87,1-4.07.81-1.26,2.08-2.2,3.48-2.62.69-.23,1.44-.26,2.14-.26.69,0,1.41,0,2.1.14,1.39.3,2.62,1.08,3.49,2.12.86,1.05,1.37,2.35,1.42,3.65.02,5.08-.02,9.62-.04,13.44-.03,3.78-.05,6.85-.07,9.01-.01,1.03-.02,1.85-.03,2.43,0,.26-.01.46-.01.62,0,.14,0,.21-.01.2Z"/>
          </g>
          <path class="cls-11" d="M224.77,175.6c-.11,0-.2-6.94-.2-15.49s.09-15.49.2-15.49.2,6.93.2,15.49-.09,15.49-.2,15.49Z"/>
          <path class="cls-11" d="M231.4,151.55c0,.11-2.97.2-6.63.2s-6.63-.09-6.63-.2,2.97-.2,6.63-.2,6.63.09,6.63.2Z"/>
          <path class="cls-11" d="M231.4,159.33c0,.11-2.97.2-6.63.2s-6.63-.09-6.63-.2,2.97-.2,6.63-.2,6.63.09,6.63.2Z"/>
          <path class="cls-11" d="M231.4,167.11c0,.11-2.97.2-6.63.2s-6.63-.09-6.63-.2,2.97-.2,6.63-.2,6.63.09,6.63.2Z"/>
        </g>
        <g>
          <g>
            <path class="cls-5" d="M254.02,175.83h-13.26v-25.37c0-3.35,2.71-6.06,6.06-6.06h1.14c3.35,0,6.06,2.71,6.06,6.06v25.37Z"/>
            <path class="cls-11" d="M254.02,175.83s0-.08-.01-.23c0-.17,0-.38-.01-.65,0-.6-.02-1.42-.03-2.47-.02-2.16-.04-5.24-.07-9.03-.02-3.8-.04-8.31-.07-13.31-.05-1.22-.54-2.44-1.34-3.43-.82-.98-1.98-1.7-3.28-1.98-.65-.14-1.32-.13-2.02-.13-.69,0-1.37.03-2.02.25-1.31.39-2.49,1.27-3.25,2.45-.37.57-.64,1.2-.78,1.85-.15.65-.16,1.31-.15,2,0,1.36,0,2.71,0,4.03,0,2.64,0,5.2-.01,7.63-.01,4.87-.03,9.28-.04,13.02l-.15-.15c4.05.03,7.34.06,9.65.08,1.13.02,2.02.03,2.65.04.29,0,.52.01.7.02.16,0,.24.01.25.02,0,0-.07.01-.22.02-.17,0-.4,0-.67.02-.63,0-1.51.02-2.62.04-2.33.02-5.65.05-9.74.08h-.15s0-.15,0-.15c-.01-3.74-.03-8.15-.04-13.02,0-2.44,0-4.99-.01-7.63,0-1.32,0-2.67,0-4.03-.06-1.35.17-2.87,1-4.07.81-1.26,2.08-2.2,3.48-2.62.69-.23,1.44-.26,2.14-.26.69,0,1.41,0,2.1.14,1.39.3,2.62,1.08,3.49,2.12.86,1.05,1.37,2.35,1.42,3.65.02,5.08-.02,9.62-.04,13.44-.03,3.78-.05,6.85-.07,9.01-.01,1.03-.02,1.85-.03,2.43,0,.26-.01.46-.01.62,0,.14,0,.21-.01.2Z"/>
          </g>
          <path class="cls-11" d="M247.39,175.6c-.11,0-.2-6.94-.2-15.49s.09-15.49.2-15.49.2,6.93.2,15.49-.09,15.49-.2,15.49Z"/>
          <path class="cls-11" d="M254.02,151.55c0,.11-2.97.2-6.63.2s-6.63-.09-6.63-.2,2.97-.2,6.63-.2,6.63.09,6.63.2Z"/>
          <path class="cls-11" d="M254.02,159.33c0,.11-2.97.2-6.63.2s-6.63-.09-6.63-.2,2.97-.2,6.63-.2,6.63.09,6.63.2Z"/>
          <path class="cls-11" d="M254.02,167.11c0,.11-2.97.2-6.63.2s-6.63-.09-6.63-.2,2.97-.2,6.63-.2,6.63.09,6.63.2Z"/>
        </g>
        <rect class="cls-11" x="198.4" y="193.48" width="10.38" height="20.59"/>
        <rect class="cls-11" x="218.73" y="193.48" width="10.38" height="20.59"/>
        <rect class="cls-11" x="239.06" y="193.48" width="10.38" height="20.59"/>
        <rect class="cls-11" x="154.48" y="214.07" width="136.91" height="4.34"/>
        <rect class="cls-9" x="151.48" y="218.34" width="140.98" height="4.34"/>
        <rect class="cls-9" x="145.14" y="227.02" width="152.69" height="4.34"/>
        <rect class="cls-9" x="139.5" y="235.65" width="163.23" height="4.34"/>
        <rect class="cls-11" x="148.1" y="222.68" width="146.85" height="4.34"/>
        <rect class="cls-11" x="142.43" y="231.35" width="157.61" height="4.34"/>
        <path class="cls-11" d="M290.22,131.89c0,.11-29.99.2-66.98.2s-66.98-.09-66.98-.2,29.98-.2,66.98-.2,66.98.09,66.98.2Z"/>
        <path class="cls-2" d="M292.04,129.73c0,.11-30.88.2-68.96.2s-68.97-.09-68.97-.2,30.87-.2,68.97-.2,68.96.09,68.96.2Z"/>
        <path class="cls-2" d="M292.21,125.56c0,.11-30.88.2-68.96.2s-68.97-.09-68.97-.2,30.87-.2,68.97-.2,68.96.09,68.96.2Z"/>
        <path class="cls-2" d="M292.21,122.88c0,.11-30.88.2-68.96.2s-68.97-.09-68.97-.2,30.87-.2,68.97-.2,68.96.09,68.96.2Z"/>
        <path class="cls-2" d="M291.49,121.51c-.11.02-30.88.2-68.96.2-37.75,0-67.36-.08-68.97-.2-.11,0,30.87-.16,68.97-.2,39.45-.05,69.58.07,68.96.2Z"/>
        <path class="cls-11" d="M289.25,213.9c0,.11-30.07.2-67.15.2s-67.16-.09-67.16-.2,30.06-.2,67.16-.2,67.15.09,67.15.2Z"/>
        <path class="cls-11" d="M289.25,218.19c0,.11-30.07.2-67.15.2s-67.16-.09-67.16-.2,30.06-.2,67.16-.2,67.15.09,67.15.2Z"/>
        <path class="cls-11" d="M289.25,222.49c0,.11-31.53.24-70.41.3-38.9.05-70.42,0-70.42-.11,0-.11,31.52-.24,70.42-.3,38.88-.05,70.41,0,70.41.11Z"/>
        <path class="cls-11" d="M288.8,227.02c0,.11-32.16.2-71.83.2s-71.84-.09-71.84-.2,32.16-.2,71.84-.2,71.83.09,71.83.2Z"/>
        <path class="cls-11" d="M289.25,231.35c0,.11-32.77.2-73.17.2s-73.18-.09-73.18-.2,32.76-.2,73.18-.2,73.17.09,73.17.2Z"/>
        <path class="cls-11" d="M289.25,235.69c0,.11-33.53.2-74.87.2s-74.88-.09-74.88-.2,33.52-.2,74.88-.2,74.87.09,74.87.2Z"/>
        <path class="cls-11" d="M289.25,239.99c0,.11-30.07.2-67.15.2s-67.16-.09-67.16-.2,30.06-.2,67.16-.2,67.15.09,67.15.2Z"/>
      </g>
      <polygon class="cls-2" points="388.08 119.68 420.13 103.18 452.01 119.68 388.08 119.68"/>
      <g>
        <rect class="cls-11" x="388.08" y="119.68" width="63.93" height="3.69"/>
        <rect class="cls-11" x="389.06" y="123.37" width="62.17" height="1.23"/>
        <path class="cls-2" d="M452.07,123.37c0,.11-14.33.2-31.99.2s-32-.09-32-.2,14.32-.2,32-.2,31.99.09,31.99.2Z"/>
        <path class="cls-2" d="M451.28,124.6c0,.11-13.93.2-31.11.2s-31.11-.09-31.11-.2,13.93-.2,31.11-.2,31.11.09,31.11.2Z"/>
      </g>
      <g>
        <rect class="cls-2" x="402.51" y="137.75" width="12.97" height="22.29"/>
        <rect class="cls-5" x="403.88" y="139.38" width="10.16" height="19.39"/>
        <path class="cls-11" d="M408.76,158.86c-.11,0-.2-4.37-.2-9.76s.09-9.76.2-9.76.2,4.37.2,9.76-.09,9.76-.2,9.76Z"/>
        <path class="cls-11" d="M414.04,145.23c0,.11-2.28.2-5.08.2s-5.08-.09-5.08-.2,2.27-.2,5.08-.2,5.08.09,5.08.2Z"/>
        <path class="cls-11" d="M414.04,152.07c0,.11-2.28.2-5.08.2s-5.08-.09-5.08-.2,2.27-.2,5.08-.2,5.08.09,5.08.2Z"/>
      </g>
      <g>
        <rect class="cls-2" x="424.99" y="137.75" width="12.97" height="22.29"/>
        <rect class="cls-5" x="426.36" y="139.38" width="10.16" height="19.39"/>
        <path class="cls-11" d="M431.23,158.86c-.11,0-.2-4.37-.2-9.76s.09-9.76.2-9.76.2,4.37.2,9.76-.09,9.76-.2,9.76Z"/>
        <path class="cls-11" d="M436.52,145.23c0,.11-2.28.2-5.08.2s-5.08-.09-5.08-.2,2.27-.2,5.08-.2,5.08.09,5.08.2Z"/>
        <path class="cls-11" d="M436.52,152.07c0,.11-2.28.2-5.08.2s-5.08-.09-5.08-.2,2.27-.2,5.08-.2,5.08.09,5.08.2Z"/>
      </g>
      <g>
        <rect class="cls-2" x="402.51" y="165.91" width="12.97" height="22.29"/>
        <rect class="cls-5" x="403.88" y="167.54" width="10.16" height="19.39"/>
        <path class="cls-11" d="M408.76,187.02c-.11,0-.2-4.37-.2-9.76s.09-9.76.2-9.76.2,4.37.2,9.76-.09,9.76-.2,9.76Z"/>
        <path class="cls-11" d="M414.04,173.39c0,.11-2.28.2-5.08.2s-5.08-.09-5.08-.2,2.27-.2,5.08-.2,5.08.09,5.08.2Z"/>
        <path class="cls-11" d="M414.04,180.23c0,.11-2.28.2-5.08.2s-5.08-.09-5.08-.2,2.27-.2,5.08-.2,5.08.09,5.08.2Z"/>
      </g>
      <g>
        <rect class="cls-2" x="424.99" y="165.91" width="12.97" height="22.29"/>
        <path class="cls-11" d="M463.96,236.68c0,.14-103.87.26-231.97.26s-231.99-.12-231.99-.26,103.85-.26,231.99-.26,231.97.12,231.97.26Z"/>
        <rect class="cls-5" x="426.36" y="167.54" width="10.16" height="19.39"/>
        <path class="cls-11" d="M431.23,187.02c-.11,0-.2-4.37-.2-9.76s.09-9.76.2-9.76.2,4.37.2,9.76-.09,9.76-.2,9.76Z"/>
        <path class="cls-11" d="M436.52,173.39c0,.11-2.28.2-5.08.2s-5.08-.09-5.08-.2,2.27-.2,5.08-.2,5.08.09,5.08.2Z"/>
        <path class="cls-11" d="M436.52,180.23c0,.11-2.28.2-5.08.2s-5.08-.09-5.08-.2,2.27-.2,5.08-.2,5.08.09,5.08.2Z"/>
      </g>
      <g>
        <rect class="cls-9" x="300.94" y="164.91" width="12.97" height="22.29"/>
        <rect class="cls-5" x="302.31" y="166.54" width="10.16" height="19.39"/>
        <path class="cls-11" d="M307.18,186.02c-.11,0-.2-4.37-.2-9.76s.09-9.76.2-9.76.2,4.37.2,9.76-.09,9.76-.2,9.76Z"/>
        <path class="cls-11" d="M312.47,172.39c0,.11-2.28.2-5.08.2s-5.08-.09-5.08-.2,2.27-.2,5.08-.2,5.08.09,5.08.2Z"/>
        <path class="cls-11" d="M312.47,179.24c0,.11-2.28.2-5.08.2s-5.08-.09-5.08-.2,2.27-.2,5.08-.2,5.08.09,5.08.2Z"/>
      </g>
      <g>
        <rect class="cls-9" x="324.44" y="164.91" width="12.97" height="22.29"/>
        <rect class="cls-5" x="325.81" y="166.54" width="10.16" height="19.39"/>
        <path class="cls-11" d="M330.69,186.02c-.11,0-.2-4.37-.2-9.76s.09-9.76.2-9.76.2,4.37.2,9.76-.09,9.76-.2,9.76Z"/>
        <path class="cls-11" d="M335.97,172.39c0,.11-2.28.2-5.08.2s-5.08-.09-5.08-.2,2.27-.2,5.08-.2,5.08.09,5.08.2Z"/>
        <path class="cls-11" d="M335.97,179.24c0,.11-2.28.2-5.08.2s-5.08-.09-5.08-.2,2.27-.2,5.08-.2,5.08.09,5.08.2Z"/>
      </g>
      <g>
        <rect class="cls-9" x="347.95" y="164.91" width="12.97" height="22.29"/>
        <rect class="cls-5" x="349.31" y="166.54" width="10.16" height="19.39"/>
        <path class="cls-11" d="M354.19,186.02c-.11,0-.2-4.37-.2-9.76s.09-9.76.2-9.76.2,4.37.2,9.76-.09,9.76-.2,9.76Z"/>
        <path class="cls-11" d="M359.48,172.39c0,.11-2.28.2-5.08.2s-5.08-.09-5.08-.2,2.27-.2,5.08-.2,5.08.09,5.08.2Z"/>
        <path class="cls-11" d="M359.48,179.24c0,.11-2.28.2-5.08.2s-5.08-.09-5.08-.2,2.27-.2,5.08-.2,5.08.09,5.08.2Z"/>
      </g>
      <g>
        <rect class="cls-9" x="371.45" y="164.91" width="12.97" height="22.29"/>
        <rect class="cls-5" x="372.82" y="166.54" width="10.16" height="19.39"/>
        <path class="cls-11" d="M377.7,186.02c-.11,0-.2-4.37-.2-9.76s.09-9.76.2-9.76.2,4.37.2,9.76-.09,9.76-.2,9.76Z"/>
        <path class="cls-11" d="M382.98,172.39c0,.11-2.28.2-5.08.2s-5.08-.09-5.08-.2,2.27-.2,5.08-.2,5.08.09,5.08.2Z"/>
        <path class="cls-11" d="M382.98,179.24c0,.11-2.28.2-5.08.2s-5.08-.09-5.08-.2,2.27-.2,5.08-.2,5.08.09,5.08.2Z"/>
      </g>
      <rect class="cls-11" x="288.3" y="193.6" width="163.89" height="3.77"/>
      <rect class="cls-11" x="288.3" y="197.25" width="162.91" height="2.53"/>
      <path class="cls-2" d="M288.3,197.55c0-.11,36.53-.2,81.57-.2s81.58.09,81.58.2-36.52.2-81.58.2-81.57-.09-81.57-.2Z"/>
      <path class="cls-2" d="M288.3,199.78c0-.11,36.53-.2,81.57-.2s81.58.09,81.58.2-36.52.2-81.58.2-81.57-.09-81.57-.2Z"/>
      <path class="cls-2" d="M288.3,193.6c0-.11,36.53-.2,81.57-.2s81.58.09,81.58.2-36.52.2-81.58.2-81.57-.09-81.57-.2Z"/>
      <g>
        <path class="cls-11" d="M313.41,203.68h.99c3.49,0,6.32,2.83,6.32,6.32v22.72h-13.63v-22.72c0-3.49,2.83-6.32,6.32-6.32Z"/>
        <path class="cls-5" d="M313.55,205.77h.71c2.5,0,4.53,2.03,4.53,4.53v20.32h-9.77v-20.32c0-2.5,2.03-4.53,4.53-4.53Z"/>
        <path class="cls-11" d="M313.91,230.62c-.11,0-.2-5.56-.2-12.42s.09-12.42.2-12.42.2,5.56.2,12.42-.09,12.42-.2,12.42Z"/>
        <path class="cls-11" d="M318.73,213.51c0,.11-2.18.2-4.86.2s-4.86-.09-4.86-.2,2.18-.2,4.86-.2,4.86.09,4.86.2Z"/>
        <path class="cls-11" d="M318.73,221.65c0,.11-2.18.2-4.86.2s-4.86-.09-4.86-.2,2.18-.2,4.86-.2,4.86.09,4.86.2Z"/>
      </g>
      <g>
        <path class="cls-11" d="M339.91,203.68h.99c3.49,0,6.32,2.83,6.32,6.32v22.72h-13.63v-22.72c0-3.49,2.83-6.32,6.32-6.32Z"/>
        <path class="cls-5" d="M340.05,205.77h.71c2.5,0,4.53,2.03,4.53,4.53v20.32h-9.77v-20.32c0-2.5,2.03-4.53,4.53-4.53Z"/>
        <path class="cls-11" d="M340.4,230.62c-.11,0-.2-5.56-.2-12.42s.09-12.42.2-12.42.2,5.56.2,12.42-.09,12.42-.2,12.42Z"/>
        <path class="cls-11" d="M345.22,213.51c0,.11-2.18.2-4.86.2s-4.86-.09-4.86-.2,2.18-.2,4.86-.2,4.86.09,4.86.2Z"/>
        <path class="cls-11" d="M345.22,221.65c0,.11-2.18.2-4.86.2s-4.86-.09-4.86-.2,2.18-.2,4.86-.2,4.86.09,4.86.2Z"/>
      </g>
      <g>
        <path class="cls-11" d="M366.4,203.68h.99c3.49,0,6.32,2.83,6.32,6.32v22.72h-13.63v-22.72c0-3.49,2.83-6.32,6.32-6.32Z"/>
        <path class="cls-5" d="M366.54,205.77h.71c2.5,0,4.53,2.03,4.53,4.53v20.32h-9.77v-20.32c0-2.5,2.03-4.53,4.53-4.53Z"/>
        <path class="cls-11" d="M366.9,230.62c-.11,0-.2-5.56-.2-12.42s.09-12.42.2-12.42.2,5.56.2,12.42-.09,12.42-.2,12.42Z"/>
        <path class="cls-11" d="M371.72,213.51c0,.11-2.18.2-4.86.2s-4.86-.09-4.86-.2,2.18-.2,4.86-.2,4.86.09,4.86.2Z"/>
        <path class="cls-11" d="M371.72,221.65c0,.11-2.18.2-4.86.2s-4.86-.09-4.86-.2,2.18-.2,4.86-.2,4.86.09,4.86.2Z"/>
      </g>
      <g>
        <path class="cls-11" d="M392.9,203.68h.99c3.49,0,6.32,2.83,6.32,6.32v22.72h-13.63v-22.72c0-3.49,2.83-6.32,6.32-6.32Z"/>
        <path class="cls-5" d="M393.04,205.77h.71c2.5,0,4.53,2.03,4.53,4.53v20.32h-9.77v-20.32c0-2.5,2.03-4.53,4.53-4.53Z"/>
        <path class="cls-11" d="M393.39,230.62c-.11,0-.2-5.56-.2-12.42s.09-12.42.2-12.42.2,5.56.2,12.42-.09,12.42-.2,12.42Z"/>
        <path class="cls-11" d="M398.21,213.51c0,.11-2.18.2-4.86.2s-4.86-.09-4.86-.2,2.18-.2,4.86-.2,4.86.09,4.86.2Z"/>
        <path class="cls-11" d="M398.21,221.65c0,.11-2.18.2-4.86.2s-4.86-.09-4.86-.2,2.18-.2,4.86-.2,4.86.09,4.86.2Z"/>
      </g>
      <g>
        <path class="cls-11" d="M419.39,203.68h.99c3.49,0,6.32,2.83,6.32,6.32v22.72h-13.63v-22.72c0-3.49,2.83-6.32,6.32-6.32Z"/>
        <path class="cls-5" d="M419.53,205.77h.71c2.5,0,4.53,2.03,4.53,4.53v20.32h-9.77v-20.32c0-2.5,2.03-4.53,4.53-4.53Z"/>
        <path class="cls-11" d="M419.89,230.62c-.11,0-.2-5.56-.2-12.42s.09-12.42.2-12.42.2,5.56.2,12.42-.09,12.42-.2,12.42Z"/>
        <path class="cls-11" d="M424.71,213.51c0,.11-2.18.2-4.86.2s-4.86-.09-4.86-.2,2.18-.2,4.86-.2,4.86.09,4.86.2Z"/>
        <path class="cls-11" d="M424.71,221.65c0,.11-2.18.2-4.86.2s-4.86-.09-4.86-.2,2.18-.2,4.86-.2,4.86.09,4.86.2Z"/>
      </g>
      <g>
        <g>
          <rect class="cls-11" x="286.66" y="149.92" width="104.87" height="3.69"/>
          <rect class="cls-11" x="288.27" y="153.6" width="101.99" height="1.23"/>
          <path class="cls-2" d="M391.54,149.92s-.19,0-.55.01c-.37,0-.9,0-1.59.01-1.41,0-3.46.02-6.1.03-5.3.01-12.94.04-22.41.06-18.92.02-45.11.05-74.22.08l.2-.2c0,1.16,0,2.42,0,3.68h0s-.2-.2-.2-.2c50.71,0,93.29.06,104.87.15l-.05.05c.01-1.25.02-2.16.03-2.78,0-.61.02-.91.02-.91,0,0,.01.28.02.88,0,.62.02,1.54.03,2.81v.05s-.05,0-.05,0c-11.58.09-54.16.15-104.87.15h-.2v-.2h0c0-1.27,0-2.52,0-3.69v-.2h.2c29.17.03,55.41.06,74.37.08,9.45.03,17.08.05,22.36.06,2.62.01,4.66.02,6.05.03.68,0,1.2.01,1.56.01.35,0,.52.01.52.01Z"/>
          <path class="cls-2" d="M288.27,153.6s.01.1.02.31c0,.23.01.53.02.93l-.04-.04c5.04-.09,25.98-.16,51.04-.16s46,.07,51.04.16l-.04.05c-.02-.4-.03-.7-.04-.93,0-.21,0-.31,0-.31,0,0,.02.1.04.31.02.23.05.53.08.92v.04s-.04,0-.04,0c-5.04.09-25.98.16-51.04.16s-45.99-.07-51.04-.16h-.04s0-.04,0-.04c0-.39.02-.7.02-.93,0-.2.01-.31.02-.31Z"/>
        </g>
        <polygon class="cls-2" points="391.54 149.92 286.66 149.92 288.7 140.56 389.83 140.56 391.54 149.92"/>
      </g>
      <polygon class="cls-2" points="153.58 118.21 150.14 114.72 222.93 78.88 296.71 115.09 293.09 118.21 222.87 85.17 153.58 118.21"/>
      <circle class="cls-11" cx="222.52" cy="103.42" r="10.14"/>
    </g>
    <g>
      <path class="cls-11" d="M15.01,267.01c-.12.08-1.53-1.85-3.15-4.3-1.62-2.46-2.83-4.51-2.71-4.59.12-.08,1.53,1.85,3.15,4.3,1.62,2.45,2.83,4.51,2.71,4.59Z"/>
      <path class="cls-11" d="M14.97,254.22c.15-.02.67,2.74,1.59,6.08.91,3.34,1.88,5.98,1.74,6.04-.12.05-1.32-2.53-2.24-5.9-.93-3.37-1.22-6.2-1.09-6.22Z"/>
      <path class="cls-11" d="M24.05,256.16c.14.03-.14,2.18-.63,4.81-.49,2.63-1,4.75-1.15,4.72-.14-.03.14-2.18.63-4.81.49-2.63,1-4.75,1.15-4.72Z"/>
    </g>
    <g>
      <path class="cls-11" d="M100.6,258.67c-.12.08-1.53-1.85-3.15-4.3-1.62-2.46-2.83-4.51-2.71-4.59.12-.08,1.53,1.85,3.15,4.3,1.62,2.45,2.83,4.51,2.71,4.59Z"/>
      <path class="cls-11" d="M100.55,245.88c.15-.02.67,2.74,1.59,6.08.91,3.34,1.88,5.98,1.74,6.04-.12.05-1.32-2.53-2.24-5.9-.93-3.37-1.22-6.2-1.09-6.22Z"/>
      <path class="cls-11" d="M109.64,247.82c.14.03-.14,2.18-.63,4.81-.49,2.63-1,4.75-1.15,4.72-.14-.03.14-2.18.63-4.82.49-2.63,1-4.75,1.15-4.72Z"/>
    </g>
    <g>
      <path class="cls-11" d="M35.23,313.6c-.12.08-1.53-1.85-3.15-4.3-1.62-2.46-2.83-4.51-2.71-4.59s1.53,1.85,3.15,4.3c1.62,2.45,2.83,4.51,2.71,4.59Z"/>
      <path class="cls-11" d="M35.18,300.81c.15-.02.67,2.74,1.59,6.08.91,3.34,1.88,5.98,1.74,6.04-.12.05-1.32-2.53-2.24-5.9-.93-3.37-1.22-6.2-1.09-6.22Z"/>
      <path class="cls-11" d="M44.27,302.74c.14.03-.14,2.18-.63,4.81-.49,2.63-1,4.75-1.15,4.72-.14-.03.14-2.18.63-4.82.49-2.63,1-4.75,1.15-4.72Z"/>
    </g>
    <g>
      <path class="cls-11" d="M413.41,260.62c-.12.08-1.53-1.85-3.15-4.3-1.62-2.46-2.83-4.51-2.71-4.59.12-.08,1.53,1.85,3.15,4.3,1.62,2.45,2.83,4.51,2.71,4.59Z"/>
      <path class="cls-11" d="M413.37,247.83c.15-.02.67,2.74,1.59,6.08.91,3.34,1.88,5.98,1.74,6.04-.12.05-1.32-2.53-2.24-5.9-.93-3.37-1.22-6.2-1.09-6.22Z"/>
      <path class="cls-11" d="M422.45,249.76c.14.03-.14,2.18-.63,4.81-.49,2.63-1,4.75-1.15,4.72-.14-.03.14-2.18.63-4.82.49-2.63,1-4.75,1.15-4.72Z"/>
    </g>
    <g>
      <path class="cls-2" d="M306.08,287.78c-.12.08-1.53-1.85-3.15-4.3-1.62-2.46-2.83-4.51-2.71-4.59.12-.08,1.53,1.85,3.15,4.3,1.62,2.45,2.83,4.51,2.71,4.59Z"/>
      <path class="cls-2" d="M306.03,275c.15-.02.67,2.74,1.59,6.08.91,3.34,1.88,5.98,1.74,6.04-.12.05-1.32-2.53-2.24-5.9-.93-3.37-1.22-6.2-1.09-6.22Z"/>
      <path class="cls-2" d="M315.12,276.93c.14.03-.14,2.18-.63,4.81-.49,2.63-1,4.75-1.15,4.72-.14-.03.14-2.18.63-4.82.49-2.63,1-4.75,1.15-4.72Z"/>
    </g>
    <g>
      <path class="cls-2" d="M423.78,317.76c-.12.08-1.53-1.85-3.15-4.3-1.62-2.46-2.83-4.51-2.71-4.59.12-.08,1.53,1.85,3.15,4.3,1.62,2.45,2.83,4.51,2.71,4.59Z"/>
      <path class="cls-2" d="M423.73,304.98c.15-.02.67,2.74,1.59,6.08.91,3.34,1.88,5.98,1.74,6.04-.12.05-1.32-2.53-2.24-5.9-.93-3.37-1.22-6.2-1.09-6.22Z"/>
      <path class="cls-2" d="M432.81,306.91c.14.03-.14,2.18-.63,4.81-.49,2.63-1,4.75-1.15,4.72-.14-.03.14-2.18.63-4.82.49-2.63,1-4.75,1.15-4.72Z"/>
    </g>
    <g>
      <path class="cls-2" d="M9.4,368c-.12.08-1.53-1.85-3.15-4.3-1.62-2.46-2.83-4.51-2.71-4.59.12-.08,1.53,1.85,3.15,4.3,1.62,2.46,2.83,4.51,2.71,4.59Z"/>
      <path class="cls-2" d="M9.35,355.21c.15-.02.67,2.74,1.59,6.08.91,3.34,1.88,5.98,1.74,6.04-.12.05-1.32-2.53-2.24-5.9-.93-3.37-1.22-6.2-1.09-6.22Z"/>
      <path class="cls-2" d="M18.43,357.14c.14.03-.14,2.18-.63,4.81-.49,2.63-1,4.75-1.15,4.72-.14-.03.14-2.18.63-4.82.49-2.63,1-4.75,1.15-4.72Z"/>
    </g>
    <g>
      <path class="cls-2" d="M90.42,306.29c-.12.08-1.53-1.85-3.15-4.3-1.62-2.46-2.83-4.51-2.71-4.59s1.53,1.85,3.15,4.3c1.62,2.45,2.83,4.51,2.71,4.59Z"/>
      <path class="cls-2" d="M90.37,293.51c.15-.02.67,2.74,1.59,6.08.91,3.34,1.88,5.98,1.74,6.04-.12.05-1.32-2.53-2.24-5.9-.93-3.37-1.22-6.2-1.09-6.22Z"/>
      <path class="cls-2" d="M99.45,295.44c.14.03-.14,2.18-.63,4.81-.49,2.63-1,4.75-1.15,4.72-.14-.03.14-2.18.63-4.82.49-2.63,1-4.75,1.15-4.72Z"/>
    </g>
    <g>
      <path class="cls-11" d="M137.37,327.3c-.12.08-1.53-1.85-3.15-4.3-1.62-2.46-2.83-4.51-2.71-4.59.12-.08,1.53,1.85,3.15,4.3,1.62,2.46,2.83,4.51,2.71,4.59Z"/>
      <path class="cls-11" d="M137.32,314.51c.15-.02.67,2.74,1.59,6.08.91,3.34,1.88,5.98,1.74,6.04-.12.05-1.32-2.53-2.24-5.9-.93-3.37-1.22-6.2-1.09-6.22Z"/>
      <path class="cls-11" d="M146.4,316.44c.14.03-.14,2.18-.63,4.81-.49,2.63-1,4.75-1.15,4.72-.14-.03.14-2.18.63-4.82.49-2.63,1-4.75,1.15-4.72Z"/>
    </g>
    <g>
      <path class="cls-11" d="M346.69,315.54c-.12.08-1.53-1.85-3.15-4.3-1.62-2.46-2.83-4.51-2.71-4.59.12-.08,1.53,1.85,3.15,4.3,1.62,2.45,2.83,4.51,2.71,4.59Z"/>
      <path class="cls-11" d="M346.64,302.76c.15-.02.67,2.74,1.59,6.08.91,3.34,1.88,5.98,1.74,6.04-.12.05-1.32-2.53-2.24-5.9-.93-3.37-1.22-6.2-1.09-6.22Z"/>
      <path class="cls-11" d="M355.72,304.69c.14.03-.14,2.18-.63,4.81-.49,2.63-1,4.75-1.15,4.72-.14-.03.14-2.18.63-4.82.49-2.63,1-4.75,1.15-4.72Z"/>
    </g>
    <g>
      <path class="cls-11" d="M296.24,370.8c-.12.08-1.53-1.85-3.15-4.3-1.62-2.46-2.83-4.51-2.71-4.59.12-.08,1.53,1.85,3.15,4.3,1.62,2.45,2.83,4.51,2.71,4.59Z"/>
      <path class="cls-11" d="M296.2,358.02c.15-.02.67,2.74,1.59,6.08.91,3.34,1.88,5.98,1.74,6.04-.12.05-1.32-2.53-2.24-5.9-.93-3.37-1.22-6.2-1.09-6.22Z"/>
      <path class="cls-11" d="M305.28,359.95c.14.03-.14,2.18-.63,4.81-.49,2.63-1,4.75-1.15,4.72-.14-.03.14-2.18.63-4.81.49-2.63,1-4.75,1.15-4.72Z"/>
    </g>
    <g>
      <path class="cls-11" d="M411.48,370.49c-.12.08-1.53-1.85-3.15-4.3-1.62-2.46-2.83-4.51-2.71-4.59.12-.08,1.53,1.85,3.15,4.3,1.62,2.45,2.83,4.51,2.71,4.59Z"/>
      <path class="cls-11" d="M411.43,357.71c.15-.02.67,2.74,1.59,6.08.91,3.34,1.88,5.98,1.74,6.04-.12.05-1.32-2.53-2.24-5.9-.93-3.37-1.22-6.2-1.09-6.22Z"/>
      <path class="cls-11" d="M420.52,359.64c.14.03-.14,2.18-.63,4.81-.49,2.63-1,4.75-1.15,4.72-.14-.03.14-2.18.63-4.82.49-2.63,1-4.75,1.15-4.72Z"/>
    </g>
    <g>
      <path class="cls-11" d="M78.94,372.69c-.12.08-1.53-1.85-3.15-4.3-1.62-2.46-2.83-4.51-2.71-4.59.12-.08,1.53,1.85,3.15,4.3,1.62,2.45,2.83,4.51,2.71,4.59Z"/>
      <path class="cls-11" d="M78.9,359.9c.15-.02.67,2.74,1.59,6.08.91,3.34,1.88,5.98,1.74,6.04-.12.05-1.32-2.53-2.24-5.9-.93-3.37-1.22-6.2-1.09-6.22Z"/>
      <path class="cls-11" d="M87.98,361.83c.14.03-.14,2.18-.63,4.81-.49,2.63-1,4.75-1.15,4.72-.14-.03.14-2.18.63-4.81.49-2.63,1-4.75,1.15-4.72Z"/>
    </g>
    <path class="cls-2" d="M118.86,70.89c-.85-2.27-1.72-4.58-3.15-6.53-1.43-1.96-3.52-3.56-5.93-3.86-2.41-.29-5.08,1.01-5.86,3.3-.35-5.17-1.08-10.48-3.67-14.97-2.59-4.49-7.42-8.02-12.6-7.7-4.88.3-9.06,3.92-11.38,8.22-2.32,4.3-3.12,9.24-3.88,14.07-1.85-2.27-5.75-1.56-7.69.65-1.93,2.2-2.42,5.28-2.83,8.18h58.22l-1.24-1.35Z"/>
    <path class="cls-9" d="M365.28,78.95c-.85-2.27-1.72-4.58-3.15-6.53-1.43-1.96-3.52-3.56-5.93-3.86-2.41-.29-5.08,1.01-5.86,3.3-.35-5.17-1.08-10.48-3.67-14.97s-7.42-8.02-12.6-7.7c-4.88.3-9.06,3.92-11.38,8.22-2.32,4.3-3.12,9.24-3.88,14.07-1.85-2.27-5.75-1.56-7.69.65-1.93,2.2-2.42,5.28-2.83,8.18h58.22l-1.24-1.35Z"/>
    <path class="cls-9" d="M166.2,23.49c-.55-1.47-1.12-2.97-2.05-4.24-.93-1.27-2.29-2.31-3.85-2.5-1.56-.19-3.3.65-3.8,2.14-.22-3.36-.7-6.8-2.38-9.72-1.68-2.92-4.82-5.21-8.18-5-3.17.19-5.88,2.55-7.39,5.34-1.51,2.79-2.02,6-2.52,9.13-1.2-1.47-3.74-1.01-4.99.42-1.25,1.43-1.57,3.43-1.84,5.31h37.8l-.81-.87Z"/>
    <path class="cls-9" d="M36.58,26.96c-.33-.87-.66-1.75-1.2-2.5-.55-.75-1.35-1.36-2.27-1.48s-1.94.38-2.24,1.26c-.13-1.98-.41-4.01-1.4-5.73-.99-1.72-2.84-3.07-4.82-2.95-1.87.11-3.46,1.5-4.35,3.15s-1.19,3.53-1.48,5.38c-.71-.87-2.2-.6-2.94.25-.74.84-.93,2.02-1.08,3.13h22.27l-.47-.51Z"/>
    <path class="cls-2" d="M298.46,19.34c-.55-1.47-1.12-2.97-2.05-4.24-.93-1.27-2.29-2.31-3.85-2.5-1.56-.19-3.3.65-3.8,2.14-.22-3.36-.7-6.8-2.38-9.72-1.68-2.92-4.82-5.21-8.18-5-3.17.19-5.88,2.55-7.39,5.34-1.51,2.79-2.02,6-2.52,9.13-1.2-1.47-3.74-1.01-4.99.42s-1.57,3.43-1.84,5.31h37.8l-.81-.87Z"/>
    <path class="cls-2" d="M438.51,34.67c-.4-1.07-.81-2.15-1.48-3.08-.67-.92-1.66-1.68-2.79-1.82-1.13-.14-2.39.47-2.76,1.55-.16-2.44-.51-4.93-1.73-7.05-1.22-2.12-3.49-3.78-5.93-3.63-2.3.14-4.26,1.85-5.36,3.87s-1.47,4.35-1.83,6.62c-.87-1.07-2.71-.73-3.62.3-.91,1.04-1.14,2.49-1.33,3.85h27.41l-.58-.63Z"/>
  </g>
  <g id="Floor">
    <path class="cls-3" d="M445.84,416.21c0,.14-96.84.26-216.27.26s-216.29-.12-216.29-.26,96.82-.26,216.29-.26,216.27.12,216.27.26Z"/>
  </g>
  <g id="Plant">
    <g>
      <path class="cls-1" d="M110.71,381.84c1.57.6,2.77,1.97,3.41,3.52.64,1.55.77,3.28.66,4.95-.22,3.24-1.9,6.59-3.75,9.25-2.83-2.24-3.64-6.35-3.93-8.46-.45-3.33.77-9.63,3.61-9.26"/>
      <path class="cls-1" d="M114.43,404.75c-.52-1.8.15-3.84,1.49-5.15,1.34-1.31,3.27-1.93,5.15-1.87.87.03,1.81.23,2.34.92.49.64.48,1.57.14,2.31-.34.74-.97,1.3-1.63,1.77-2.29,1.59-4.79,2.7-7.49,2.03"/>
      <path class="cls-3" d="M111.41,414.8s0-.24.07-.67c.06-.47.15-1.08.25-1.81.23-1.51.52-3.67,1.58-5.81,1.05-2.13,2.59-3.73,3.9-4.56.65-.42,1.23-.68,1.64-.82.2-.08.37-.11.48-.14.11-.03.17-.04.17-.03.02.05-.93.27-2.2,1.13-1.27.84-2.75,2.43-3.79,4.52-1.05,2.09-1.36,4.23-1.63,5.73-.13.76-.23,1.37-.32,1.8-.08.42-.14.65-.16.65Z"/>
      <path class="cls-3" d="M110.21,386.72s.02.1.05.29c.02.21.05.49.09.83.07.72.16,1.76.26,3.05.2,2.58.44,6.15.6,10.1.17,3.95.23,7.53.25,10.12,0,1.29,0,2.34,0,3.07,0,.34-.01.62-.02.83,0,.19-.01.29-.02.29s-.02-.1-.03-.29c0-.22-.02-.49-.03-.83-.02-.75-.04-1.79-.07-3.06-.06-2.59-.15-6.16-.32-10.11-.17-3.94-.37-7.51-.53-10.1-.08-1.27-.14-2.31-.19-3.06-.02-.34-.03-.62-.04-.83,0-.19,0-.29,0-.29Z"/>
      <path class="cls-1" d="M109.82,406.93c-.8-3.87-3.59-7.28-7.24-8.82-.93-.39-2.13-.62-2.84.09-.72.71-.49,1.92-.08,2.84,1.7,3.84,5.92,6.41,10.11,6.16"/>
      <path class="cls-3" d="M103.17,401.15s.21.07.59.22c.19.08.42.18.67.32.25.14.55.28.85.48.31.2.65.4.98.67.35.25.69.55,1.05.87.7.66,1.41,1.45,2.03,2.38.61.93,1.07,1.89,1.4,2.8.15.46.3.89.38,1.31.11.41.16.81.22,1.17.07.36.07.69.09.98.03.29.02.54.01.74-.01.41-.02.63-.04.63-.05,0,0-.9-.23-2.32-.06-.35-.12-.74-.24-1.15-.09-.41-.24-.84-.4-1.29-.34-.89-.79-1.83-1.39-2.74-.61-.91-1.3-1.69-1.99-2.35-.35-.32-.68-.62-1.02-.87-.32-.27-.66-.48-.95-.68-1.21-.78-2.04-1.12-2.02-1.16Z"/>
    </g>
    <g>
      <path class="cls-3" d="M318.58,407.33c.16-.03.52,2.22,1.66,4.73,1.12,2.53,2.55,4.28,2.43,4.38-.09.09-1.75-1.56-2.9-4.17-1.18-2.6-1.31-4.94-1.18-4.94Z"/>
      <path class="cls-3" d="M325.19,395.06c.08,0,.12,1.2.21,3.12.09,1.93.25,4.59.56,7.51.31,2.93.7,5.56,1.01,7.47.31,1.91.52,3.08.44,3.1-.07.01-.4-1.14-.81-3.03-.41-1.89-.86-4.54-1.17-7.48-.31-2.94-.41-5.62-.41-7.56,0-1.94.09-3.13.16-3.13Z"/>
      <path class="cls-3" d="M333.07,406.15c.14.02.01,2.2-.29,4.87-.3,2.67-.66,4.83-.81,4.81-.14-.02-.01-2.2.29-4.87.3-2.67.66-4.82.81-4.81Z"/>
    </g>
    <g>
      <path class="cls-3" d="M388.61,407.33c.16-.03.52,2.22,1.66,4.73,1.12,2.53,2.55,4.28,2.43,4.38-.09.09-1.75-1.56-2.9-4.17-1.18-2.6-1.31-4.94-1.18-4.94Z"/>
      <path class="cls-3" d="M395.89,401.41c.07,0,.13.84.17,2.2.05,1.36.06,3.23.27,5.27.22,2.04.6,3.88.84,5.21.24,1.34.36,2.17.29,2.18-.07.02-.32-.79-.65-2.11-.32-1.32-.77-3.15-.99-5.23-.21-2.08-.16-3.97-.12-5.33.05-1.36.13-2.2.2-2.2Z"/>
      <path class="cls-3" d="M404.41,402.78c.18.02-.17,3-.95,6.58-.36,1.67-.68,3.19-.98,4.58-.26,1.17-.4,1.9-.47,1.89-.18-.02.17-3,.95-6.58.36-1.67.68-3.19.98-4.58.26-1.17.4-1.9.47-1.89Z"/>
    </g>
    <g>
      <path class="cls-3" d="M36.82,407.33c.16-.03.52,2.22,1.66,4.73,1.12,2.53,2.55,4.28,2.43,4.38-.09.09-1.75-1.56-2.9-4.17-1.18-2.6-1.31-4.94-1.18-4.94Z"/>
      <path class="cls-3" d="M44.1,401.41c.07,0,.13.84.17,2.2.05,1.36.06,3.23.27,5.27.22,2.04.6,3.88.84,5.21.24,1.34.36,2.17.29,2.18-.07.02-.32-.79-.65-2.11-.32-1.32-.77-3.15-.99-5.23-.21-2.08-.16-3.97-.12-5.33.05-1.36.13-2.2.2-2.2Z"/>
      <path class="cls-3" d="M52.62,402.78c.18.02-.17,3-.95,6.58-.36,1.67-.68,3.19-.98,4.58-.26,1.17-.4,1.9-.47,1.89-.18-.02.17-3,.95-6.58.36-1.67.68-3.19.98-4.58.26-1.17.4-1.9.47-1.89Z"/>
    </g>
  </g>
  <g id="Character">
    <g>
      <g>
        <g>
          <g>
            <path class="cls-3" d="M205.19,51.19c-3.51,9.4-7.99,20.88-5.64,30.63.67,2.77,1.81,5.6,1.15,8.37-.92,3.84-5.07,6.44-5.49,10.37-.36,3.44,2.25,6.38,3.75,9.49,2.03,4.21,2.05,9.09,1.75,13.76-.3,4.67-.88,9.4.08,13.98.95,4.58,3.81,9.09,8.26,10.53l18.4-9.65-8.11-79.96-14.17-7.52Z"/>
            <path class="cls-3" d="M296.62,155.43c-2.16-5.34-3.05-11.31-6.49-15.94-2.88-3.88-7.46-6.67-8.89-11.28-1.78-5.71,2.01-11.83,1.12-17.74-1-6.68-7.43-10.99-11.11-16.66-7.83-12.09-8.01-28.89-12.46-39.79l-31.11,55.86c4.15,24.34,5.49,46.92,11.63,70.83,12.57,3.95,30.2,5.41,42.7,1.24-.81-2.74-1.63-5.49-2.44-8.23,1.43,2.25,4.14,3.82,6.87,4.08,3.99.38,7.86-1.36,11.31-3.4,4.11-2.43,7.92-5.36,11.34-8.69-5.75.38-10.31-4.93-12.48-10.27Z"/>
            <g>
              <path class="cls-3" d="M256.23,48.29c-4.83-8.11-12.15-13.46-21.47-15.02-5.26-.88-7.6-.11-11.55.34-3.95.45-7.68,1.97-10.43,4.85-3.26,3.41-6.16,7.34-7.37,11.91-1.24,4.69-2.48,9.4-2.84,14.24-.36,4.83.22,9.84,2.45,14.14l11.85,3.94c6.69,1.24,13.47,2.48,20.25,1.93,6.78-.55,13.67-3.12,18.04-8.32,6.07-7.24,5.9-19.89,1.07-28Z"/>
              <path class="cls-8" d="M245.41,46.58l-15.26-8.88-4.31-.14c-9.54-1.4-17.7,8.13-18.92,15.84-1.36,8.56-2.68,19.07-2.26,25.6.83,13.12,11.53,15.81,11.53,15.81l-.55,12.45-3.61,3.48-5.25,27.09,19.63,5.17,20.96-44.83-6.04.26,7.72-46.85c.27-2.36-1.31-4.53-3.63-5Z"/>
              <path class="cls-12" d="M224.18,78.88c.01-.68-.27-1.33-.69-1.81-.83-.96-2.21-1.24-3.33-.69s-1.92,1.9-1.93,3.27h0c.45.87,1.25,1.53,2.2,1.76.15.04.3.06.45.08.74.09,1.52-.04,2.16-.5.64-.46,1.12-1.26,1.13-2.1Z"/>
              <path class="cls-3" d="M210.82,64.88c-.11.87.53,1.69,1.44,1.82.91.14,1.74-.46,1.85-1.33.11-.87-.53-1.69-1.44-1.82-.91-.14-1.74.46-1.85,1.33Z"/>
              <path class="cls-3" d="M209.18,58.12c.19.24,1.53-.58,3.32-.4,1.79.15,3.01,1.19,3.22.99.1-.09-.07-.5-.6-.97-.52-.47-1.44-.96-2.56-1.06-1.11-.1-2.09.22-2.66.59-.59.37-.81.74-.72.85Z"/>
              <path class="cls-3" d="M218.48,73.7c.02-.1-1.07-.4-2.85-.8-.45-.09-.87-.22-.92-.54-.08-.34.16-.81.43-1.32.53-1.06,1.09-2.18,1.68-3.34,2.34-4.76,4.08-8.69,3.89-8.79-.19-.09-2.25,3.69-4.58,8.45-.57,1.18-1.11,2.3-1.62,3.37-.22.5-.57,1.06-.41,1.77.09.35.4.63.69.74.28.12.54.15.76.18,1.8.27,2.92.38,2.94.28Z"/>
              <path class="cls-12" d="M216.16,94.79s8.65,1.38,17.76-2.98c0,0-5.06,8.83-17.89,6.4l.13-3.41Z"/>
              <path class="cls-3" d="M223.61,75.43c-.29-.04-.48,1.89-2.26,3.11-1.79,1.22-3.83.81-3.87,1.08-.04.12.42.42,1.29.53.85.11,2.13-.05,3.22-.79,1.09-.75,1.63-1.83,1.77-2.62.15-.8-.02-1.3-.15-1.3Z"/>
              <path class="cls-3" d="M210.72,52.02c.26.46,1.65.3,3.24.59,1.59.23,2.87.83,3.26.47.17-.18.04-.62-.47-1.11-.5-.49-1.41-.98-2.5-1.16-1.09-.18-2.1,0-2.73.31-.64.3-.9.68-.79.9Z"/>
              <path class="cls-3" d="M230.56,66.45c-.08.88-.9,1.53-1.81,1.45-.91-.07-1.59-.84-1.51-1.71.08-.88.9-1.53,1.81-1.46.92.07,1.59.84,1.51,1.71Z"/>
              <path class="cls-3" d="M233.25,61.03c-.23.19-1.36-.9-3.14-1.13-1.77-.26-3.2.49-3.36.24-.08-.11.18-.47.8-.81.61-.34,1.62-.61,2.73-.46,1.11.15,1.98.68,2.46,1.17.49.49.62.91.51.99Z"/>
              <path class="cls-3" d="M233.04,55.2c-.4.36-1.72-.24-3.37-.48-1.64-.29-3.08-.13-3.35-.6-.11-.22.16-.6.82-.9.65-.3,1.7-.48,2.83-.3,1.13.18,2.06.68,2.58,1.17.53.49.66.93.48,1.11Z"/>
              <path class="cls-8" d="M243.6,72.79c.09-.96,1.42-3.13,2.39-3.19,2.58-.16,7.14.48,6.57,6.93-.78,8.82-9.48,6.22-9.47,5.97,0-.2.19-6.39.51-9.71Z"/>
              <path class="cls-12" d="M245.81,79.5s.14.12.39.26c.24.14.67.26,1.15.12.96-.26,1.88-1.67,2.06-3.26.09-.8,0-1.58-.24-2.24-.21-.67-.59-1.16-1.05-1.28-.46-.15-.81.1-.94.34-.14.24-.1.42-.15.43-.03.02-.18-.16-.07-.52.05-.17.17-.37.4-.52.23-.15.55-.21.87-.15.68.11,1.23.79,1.49,1.51.29.73.42,1.61.32,2.5-.21,1.77-1.27,3.35-2.58,3.61-.63.11-1.14-.13-1.39-.36-.25-.24-.28-.44-.25-.46Z"/>
              <path class="cls-3" d="M246.34,69.69l-2.57,1.97c-8.22-10.62-23.51-36.4-22.67-34.88,0,0,6.98-1.72,13.93.57,6.95,2.28,19.95,7.88,18.48,16.26-1.47,8.38-7.17,16.08-7.17,16.08Z"/>
            </g>
          </g>
          <path class="cls-3" d="M274.47,164.75c-6.61-7.79-13.52-16.28-14.48-26.45-.55-5.81.93-11.76-.34-17.45-1.27-5.69-5.09-10.4-8.1-15.39-3-5-6.35-32.87-4.17-38.27l-6.51-2.07c-3.72,8.96-3.01,45.93,1.86,54.32,2.12,3.65,5.01,7,5.86,11.12,1.29,6.26-2.44,12.69-1.45,19,1.35,8.64,11.15,15.13,9.87,23.79,6.28-1.77,12.23-4.7,17.46-8.6Z"/>
        </g>
        <g>
          <path class="cls-3" d="M182.61,22.74c.36.11,28,5.77,28,5.77l42.57,5.5,28.58.42.12-1.72-54.38-10.06-44.81-1.12-.08,1.22Z"/>
          <g>
            <path class="cls-10" d="M207.28,45.65l3.32-17.13s17.79-6.48,44.54,5.52l4.06,21.03s-14.62-11.58-37.31-9.78c0,0-9.25-3.81-14.61.36h0Z"/>
            <path class="cls-1" d="M257.95,48.53s-10.08-5.41-19.44-7.39c-9.37-1.98-16.26-.48-16.26-.48-7.78-3.02-13.93,0-13.93,0h0l-1.02,4.99c5.37-4.17,14.61-.36,14.61-.36,22.69-1.81,37.31,9.78,37.31,9.78l-1.26-6.54Z"/>
            <path class="cls-3" d="M221.9,45.29c-.07,0-.06-1.11.02-2.9.09-1.78.26-4.25.5-6.96.25-2.62.47-5,.65-6.94.18-1.78.32-2.87.39-2.87.07,0,.06,1.11-.02,2.9-.09,1.78-.26,4.25-.5,6.96-.25,2.62-.47,5-.65,6.94-.18,1.78-.32,2.87-.39,2.87Z"/>
            <polygon class="cls-10" points="281.76 34.42 227.16 24.45 182.61 22.74 182.69 21.52 227.75 22.53 281.88 32.7 281.76 34.42"/>
            <path class="cls-3" d="M227.2,24.62c-.14,0-.23-.49-.19-1.06.04-.58.19-1.04.33-1.03.14,0,.23.49.19,1.06-.04.58-.19,1.04-.33,1.03Z"/>
          </g>
          <path class="cls-1" d="M187.43,33.98l-1.53-.04c-1.74.65-2.21,2.09-2.48,3.36-1.05,4.86-1.74,9.76-2.08,14.66,1.58.11,3.17.21,4.75.32.38.03.33-12.18,1.13-.06.03.41,2.72.32,2.61-.14-1.34-5.66-1.29-10.78-1.35-15.63-.01-.88-.09-1.85-1.05-2.47Z"/>
          <path class="cls-1" d="M187.44,31.86c.09-1.49.27-2.97.54-4.44.23-1.2.46-2.44,1.05-3.52.56-1.02,1.41-1.9,2.57-2.16,1.45-.33,2.93.32,4.18.99.71.38,1.34-.7.63-1.08-1.46-.78-3.09-1.44-4.78-1.19-1.42.21-2.58,1.11-3.37,2.28-.81,1.19-1.15,2.6-1.43,3.99-.34,1.69-.56,3.4-.66,5.12-.05.8,1.2.8,1.25,0h0Z"/>
          <g>
            <path class="cls-1" d="M188.72,32.8c-.08,1.18-1.14,2.07-2.37,1.99-1.23-.08-2.16-1.11-2.08-2.29.08-1.18,1.14-2.07,2.37-1.99,1.23.08,2.16,1.11,2.08,2.29Z"/>
            <path class="cls-3" d="M188.72,32.8s-.05-.2-.14-.52c-.09-.32-.3-.77-.76-1.12-.44-.35-1.16-.56-1.88-.35-.71.19-1.37.86-1.42,1.7-.06.84.5,1.6,1.18,1.88.68.3,1.42.19,1.91-.1.5-.28.78-.7.9-1,.13-.3.16-.5.2-.5.03,0,.07.2-.01.56-.08.35-.34.87-.9,1.25-.55.38-1.43.57-2.29.23-.85-.31-1.59-1.26-1.51-2.36.07-1.09.93-1.93,1.81-2.13.89-.23,1.74.08,2.24.53.51.45.69,1,.73,1.36.03.37-.04.56-.06.56Z"/>
          </g>
          <path class="cls-3" d="M183.19,48.51c-.07,0-.14-.81-.08-2.11.06-1.3.25-3.09.59-5.04.35-1.95.78-3.7,1.2-4.94.22-.62.42-1.11.62-1.43.18-.33.38-.45.39-.43.04.04-.09.18-.21.52-.14.32-.28.82-.45,1.44-.33,1.24-.7,2.98-1.04,4.92-.34,1.94-.59,3.7-.74,4.98-.15,1.28-.2,2.08-.28,2.08Z"/>
          <path class="cls-3" d="M185.62,45.24c-.14,0-.31-2.38-.09-5.32.21-2.94.72-5.28.86-5.26.15.02-.13,2.38-.34,5.29-.21,2.91-.28,5.28-.43,5.29Z"/>
          <path class="cls-3" d="M187.26,37.67c-.14,0-.27-.64-.29-1.44-.01-.8.09-1.45.24-1.45.14,0,.27.64.29,1.44.01.8-.09,1.45-.23,1.45Z"/>
          <polygon class="cls-10" points="193.88 21.82 197.44 21.88 197.44 23.07 193.59 22.75 193.88 21.82"/>
        </g>
      </g>
      <g>
        <g>
          <path class="cls-3" d="M188.51,209.56c-.44.66-10.62,35.4-9.07,46.68,1.55,11.28,9.07,44.69,9.07,44.69,0,0,4.65,19.03,3.76,26.55-.88,7.52-.52,32.7,1.99,47.79,2.9,17.42,6.01,48.64,6.01,48.64l22.44-1.73-1.01-108.63,5.53-42.7,3.1-41.81-41.81-19.47Z"/>
          <g>
            <path class="cls-3" d="M252.89,409.06l-2.24,24.52,4.08,19.88c.29,1.43-.74,2.8-2.26,2.99h0c-.85.1-1.69-.19-2.27-.79-3.68-3.84-17.15-18.01-16.88-19.8.31-2.07.56-26.02.56-26.02l19-.79Z"/>
            <path class="cls-10" d="M252.48,456.45l-19.04-22.24-.07,1.04c-.06.9.21,1.79.78,2.51,1.51,1.93,5.8,7.18,15.99,17.89.59.62,1.48.92,2.35.8h0Z"/>
            <g class="cls-6">
              <path class="cls-4" d="M239.24,426.6c.62.46.76,1.41.3,2.02-.46.61-1.46.76-2.09.3-.62-.45-.84-1.58-.31-2.14.53-.55,1.72-.67,2.21-.09"/>
            </g>
            <path class="cls-4" d="M247.32,445.36c.14.08.81-1.17,2.38-1.77,1.56-.64,2.95-.21,3-.36.03-.06-.29-.27-.88-.39-.59-.12-1.47-.09-2.33.25-.86.34-1.5.92-1.83,1.4-.33.49-.4.85-.34.87Z"/>
            <path class="cls-4" d="M248.93,448.76c.12.11.99-.63,2.35-.92,1.35-.31,2.48,0,2.53-.16.08-.12-1.12-.72-2.66-.37-1.54.33-2.35,1.37-2.22,1.44Z"/>
            <path class="cls-4" d="M244.2,440.93c.11.12,1.46-1.03,3.52-1.65,2.06-.65,3.85-.45,3.87-.62.05-.13-1.84-.59-4.04.1-2.21.67-3.47,2.09-3.35,2.16Z"/>
            <path class="cls-4" d="M244.22,433.42c.06.15,1.52-.33,3.37-.28,1.85.03,3.29.56,3.35.41.08-.12-1.35-.92-3.34-.96-1.99-.05-3.45.7-3.38.82Z"/>
            <path class="cls-4" d="M244.69,426.21c.07.15,1.55-.58,3.5-.38,1.95.16,3.25,1.16,3.35,1.03.05-.05-.21-.37-.78-.74-.57-.36-1.46-.73-2.51-.83-1.05-.1-2,.09-2.63.34-.63.25-.96.52-.92.58Z"/>
            <path class="cls-4" d="M248.24,424.45s.11-.32.1-.93c-.02-.6-.14-1.48-.61-2.48-.25-.47-.5-1.08-1.19-1.45-.35-.19-.88-.15-1.21.15-.32.3-.45.7-.48,1.08-.08,1.56,1.22,3.16,3.04,3.49,1.83.31,3.57-.6,4.39-1.9.18-.34.32-.76.15-1.19-.17-.43-.68-.63-1.05-.59-.77.06-1.28.45-1.75.74-.93.63-1.53,1.31-1.88,1.8-.36.5-.48.81-.45.82.09.07.73-1.17,2.56-2.31.46-.26.99-.59,1.54-.61.27,0,.49.11.57.32.09.2.01.51-.15.77-.69,1.06-2.28,1.89-3.82,1.6-1.54-.27-2.68-1.67-2.63-2.93.02-.3.12-.6.3-.77.18-.17.43-.2.67-.09.49.22.79.76,1.03,1.21.96,1.87.76,3.26.87,3.24Z"/>
          </g>
          <path class="cls-3" d="M265.58,211.48c.44.66,10.62,35.4,9.07,46.68-1.55,11.28-9.07,44.69-9.07,44.69,0,0-4.65,19.03-3.76,26.55s-.66,32.55-1.99,47.79c-1.49,17.13-5.26,46.92-5.26,46.92l-23.31-1.52,1.14-107.12-5.53-42.7-3.1-41.81,41.81-19.47Z"/>
          <g>
            <path class="cls-3" d="M201.29,409.83l1.16,20.32s-21.22,7.95-21.38,11.73l41.3-.74-.46-31.72-20.62.42Z"/>
            <path class="cls-11" d="M215.19,428.2c.8.19,1.37,1.04,1.2,1.82-.17.77-1.07,1.34-1.88,1.15-.81-.18-1.52-1.18-1.26-1.93.26-.75,1.35-1.36,2.09-.99"/>
            <path class="cls-10" d="M222.37,441.13l-.18-3.2-39.53,1.91s-1.82.8-1.59,2.03l41.3-.74Z"/>
            <path class="cls-4" d="M201.78,429.95c.01.19,1.02.26,2.03.86,1.02.58,1.55,1.4,1.73,1.32.18-.04-.14-1.19-1.37-1.9-1.22-.72-2.44-.47-2.39-.29Z"/>
            <path class="cls-4" d="M197.48,431.74c-.04.19.84.5,1.54,1.3.73.78.92,1.66,1.12,1.65.19.03.31-1.1-.58-2.09-.88-.99-2.07-1.05-2.07-.86Z"/>
            <path class="cls-4" d="M195.12,436.74c.18.04.45-.93-.09-1.98-.53-1.05-1.49-1.45-1.57-1.29-.11.16.51.72.94,1.58.45.86.52,1.67.72,1.68Z"/>
            <path class="cls-4" d="M202.05,425.3c.09.17,1.01-.11,2.15-.05,1.14.03,2.04.38,2.14.21.11-.14-.77-.84-2.11-.88-1.34-.05-2.28.58-2.18.73Z"/>
          </g>
        </g>
        <path class="cls-10" d="M181.85,213.57c-.5,1.78-18.29,127.5-15.18,134.95,3.11,7.45,16.66,9.1,16.66,9.1,0,0,1.04,28.42,24.65,24.69,23.6-3.73,49.97-28.82,49.97-28.82,0,0,1.89,10.56,6.23,8.7,4.35-1.86,18.1-19.34,19.81-19.34s-13.57-159.14-11.86-161.09c1.71-1.96-10.89-76.65-10.89-76.65l-19.4-2.88-20.16,22.14-9.1-19.25-16.79,6.82-9.9,3.66-4.04,97.99Z"/>
        <path class="cls-7" d="M209.71,183.07c.62,1.53,28.74,54.78,34.28,55.71,5.53.92,28.38-15.91,29.24-20.97l-.42-15.22-45.8-31.49"/>
        <path class="cls-10" d="M263.01,105.09s10.57,2.19,12.35,11.12c1.79,8.94,12.46,45.74,10.28,57.31-2.18,11.56-17.48,47.15-27.41,53.39-9.93,6.24-10.14,5.24-10.14,5.24,0,0-31.77-42.5-32.76-48.66l-.99-6.16,39.48-15.21,2.32-42.19,6.87-14.85Z"/>
        <polygon class="cls-4" points="213.52 105.09 215.93 100.59 222.86 108.94 239.26 96.56 240.28 101.1 241.84 102.21 222.86 125.81 218.65 124.35 213.52 105.09"/>
        <polygon class="cls-1" points="188.67 113.62 215.13 184.45 264.84 105.09 240.81 101.1 222.07 120.62 213.21 103.62 188.67 113.62"/>
        <path class="cls-7" d="M180.81,220.34s3.58,7.58,9.13,3.46c11.41-8.48,15.6-33.93,15.6-33.93l9.6-5.42h6.55l2.51-8.64,8.18-3.66s8.13,1.98,11.61-1.05c3.48-3.04,9.48-12.39,9.48-12.39l-20.83.38-48.83,42.21-2.99,19.04Z"/>
        <path class="cls-10" d="M162.88,166.87c-.03-.52,5.57-25.07,5.57-25.07,0,0,7.49-15.15,10.79-20.72,3.31-5.57,7.84-5.76,7.84-5.76l8.7,18.3-3.48,29.42,15.67-.7s-6.44,37.78-12.19,47.35c-5.74,9.57-10.36,10.62-10.36,10.62,0,0-12.14-22.6-17.15-34.47-4.7-11.14-4.87-8.88-5.4-18.98Z"/>
        <path class="cls-3" d="M173.24,163.57c-.03-.06.67-.46,1.87-.96,1.2-.5,2.91-1.1,4.88-1.43,1.97-.34,3.8-.31,5.09-.12,1.29.19,2.06.46,2.04.52-.02.16-3.18-.6-7.05.11-3.85.68-6.77,2.06-6.83,1.88Z"/>
        <path class="cls-3" d="M177.84,155.45c.02-.13,2.55.49,5.18,2.24,2.65,1.73,4.2,3.81,4.1,3.88-.12.11-1.81-1.77-4.38-3.45-2.56-1.7-4.95-2.52-4.89-2.67Z"/>
        <path class="cls-3" d="M258.19,188.63s-.45-.1-1.24-.36c-.79-.26-1.92-.67-3.31-1.22-2.77-1.09-6.54-2.76-10.54-4.92-4-2.16-7.47-4.39-9.9-6.11-1.22-.86-2.18-1.58-2.84-2.09-.65-.52-1-.81-.98-.84.02-.03.41.21,1.1.68.78.52,1.76,1.17,2.92,1.95,2.48,1.63,5.96,3.8,9.94,5.95,3.98,2.15,7.71,3.87,10.43,5.04,1.29.55,2.38,1.01,3.24,1.37.77.32,1.19.51,1.17.55Z"/>
        <path class="cls-3" d="M266.32,176.68s-.5.04-1.41.02c-.91-.02-2.21-.07-3.83-.18-3.23-.21-7.69-.65-12.57-1.42-4.88-.78-9.26-1.74-12.4-2.54-1.57-.4-2.83-.75-3.7-1.02-.87-.26-1.34-.42-1.33-.46,0-.03.5.06,1.38.26.98.22,2.23.51,3.73.85,3.15.71,7.52,1.61,12.39,2.39,4.87.77,9.3,1.27,12.52,1.57,1.53.14,2.81.25,3.81.34.9.08,1.4.14,1.4.18Z"/>
        <path class="cls-3" d="M268.57,157.72c.01.15-2.63.5-5.84,1.15-3.21.64-5.79,1.34-5.83,1.19-.04-.13,2.48-1.06,5.73-1.7,3.24-.66,5.93-.77,5.94-.64Z"/>
        <path class="cls-3" d="M208.25,374.3s-.02-.17-.02-.49c0-.35,0-.82-.01-1.44,0-1.29,0-3.14,0-5.52,0-4.8.06-11.74.17-20.31.22-17.15.73-40.84,1.71-66.99.99-26.16,2.27-49.83,3.34-66.94.54-8.56,1-15.48,1.36-20.27.18-2.37.32-4.22.42-5.51.05-.61.09-1.09.12-1.43.03-.32.06-.49.06-.49,0,0,0,.17,0,.49-.02.35-.04.82-.07,1.43-.07,1.28-.18,3.14-.32,5.51-.28,4.81-.69,11.73-1.19,20.27-.98,17.12-2.2,40.79-3.19,66.94-.98,26.15-1.55,49.83-1.87,66.98-.14,8.56-.26,15.49-.34,20.31-.04,2.38-.07,4.24-.1,5.52-.02.61-.03,1.09-.04,1.44-.01.32-.03.49-.03.49Z"/>
        <path class="cls-3" d="M193.57,237.86c.14.01-2.04,27.15-4.88,60.61-2.84,33.47-5.25,60.58-5.39,60.57-.14-.01,2.04-27.15,4.88-60.61,2.84-33.46,5.25-60.58,5.39-60.56Z"/>
        <path class="cls-7" d="M257.94,353.48s14.96-10.72,14.36-4.91c-.6,5.81-6.31,12.35-6.31,12.35,0,0-3.73,3.8-5.89-1-1.73-3.84-2.17-6.44-2.17-6.44Z"/>
        <path class="cls-3" d="M272.05,285.6c.14,0,.26,13.67.26,30.52s-.12,30.52-.26,30.52-.26-13.66-.26-30.52.12-30.52.26-30.52Z"/>
        <path class="cls-3" d="M233.4,332.38c-.14,0-.47-16.78-.72-37.47-.25-20.7-.34-37.48-.2-37.48.14,0,.47,16.77.72,37.47.25,20.69.34,37.48.2,37.48Z"/>
        <g class="cls-7">
          <path d="M183.77,355.46l8.54-102.74c-9.83,35.4-9.51,67.68-8.54,102.74Z"/>
        </g>
        <path class="cls-3" d="M200.95,195.28c.55-2.7,2.59-12.63,5.49-26.78.44-2.17.87-4.27,1.28-6.29l.26.3c-2.96.16-5.72.3-8.21.43h-.01s0,0,0,0c-3.83-.13-7-.47-9.2-.78-1.1-.15-1.96-.29-2.54-.4-.58-.11-.89-.18-.89-.2,0-.02.32,0,.91.07.65.07,1.51.17,2.56.28,2.2.23,5.37.5,9.18.59h-.02c2.49-.15,5.25-.32,8.21-.5l.33-.02-.07.32c-.41,2.01-.83,4.12-1.27,6.29-1.51,7.4-2.93,14.08-4.02,18.91-.55,2.41-1.01,4.36-1.36,5.7-.17.67-.32,1.19-.43,1.54-.11.35-.17.53-.19.52Z"/>
        <g>
          <path class="cls-8" d="M188.35,138.47c.31.1,5.8,5.9,6.51,8.04.71,2.14,4.9,16.23,4.9,16.23,0,0-9.17-.26-11.41-1.27-2.24-1.02-3.66-2.24-3.66-2.24l-5.09-4.27s-3.26-1.22-3.26-3.66l.51-.69,5.19,1.5s-4.98-2.03-5.7-3.87c-.71-1.83,0-2.14,0-2.14l10.17,3.26-4.07-3.15s-5.09-1.63-4.88-3.56l.41-.71,6.1,1.02,4.88,2.44s-2.34-4.27-2.34-6,1.73-.92,1.73-.92Z"/>
          <path class="cls-12" d="M189.89,157.96c-.07.04-.37-.44-.99-1.1-.61-.66-1.55-1.49-2.68-2.27-2.27-1.59-4.4-2.38-4.34-2.53.03-.13,2.3.47,4.64,2.1,1.17.81,2.1,1.72,2.67,2.46.57.75.76,1.31.71,1.33Z"/>
          <path class="cls-12" d="M192.21,154.58c-.11.1-1.36-1.18-2.97-2.67-1.61-1.5-2.97-2.65-2.88-2.77.08-.11,1.61.87,3.24,2.39,1.63,1.51,2.73,2.96,2.62,3.05Z"/>
          <path class="cls-12" d="M195.12,153.58c-.11.08-1.64-1.84-3.16-4.45-.8-1.28-1.29-2.6-1.95-3.23-.68-.66-1.34-.58-1.34-.66-.05-.06.71-.3,1.58.38.42.33.78.84,1.1,1.41.34.59.69,1.2,1.06,1.83,1.51,2.58,2.83,4.63,2.71,4.71Z"/>
        </g>
        <path class="cls-3" d="M245.47,102.21s-.12.18-.39.49c-.31.35-.7.79-1.18,1.34-1.09,1.2-2.59,2.85-4.43,4.86-3.82,4.11-9.01,9.71-14.76,15.9-1.11,1.19-2.21,2.36-3.25,3.48l-.24.26-.17-.31c-3.56-6.39-6.7-12.03-8.99-16.14-1.09-1.99-1.97-3.61-2.61-4.8-.28-.53-.5-.96-.68-1.3-.15-.3-.22-.46-.21-.47.01,0,.11.14.29.42.2.33.45.75.76,1.26.68,1.16,1.61,2.76,2.75,4.72,2.33,4.09,5.52,9.7,9.15,16.05l-.41-.05c1.04-1.12,2.14-2.29,3.25-3.48,5.79-6.15,11.02-11.71,14.87-15.8,1.89-1.97,3.43-3.58,4.55-4.75.51-.52.93-.94,1.26-1.27.29-.29.45-.43.46-.42Z"/>
      </g>
      <g>
        <path class="cls-4" d="M221.64,159.53c-.35.09-13.7,2.9-13.7,2.9l-5.19,25.59,9.45-6.66s8.49-1.04,8.76-1.04.69-20.79.69-20.79Z"/>
        <g>
          <path class="cls-11" d="M270.12,93.53l-26.14,57.23,9.63,5.17,25.61-58.67s-2.11-6.71-9.11-3.72Z"/>
          <path class="cls-3" d="M272.27,93.13c.13.06-4.64,11.35-10.65,25.22-6.01,13.87-10.99,25.07-11.13,25.01-.13-.06,4.63-11.35,10.65-25.22,6.01-13.87,10.99-25.07,11.12-25.01Z"/>
          <g>
            <path class="cls-8" d="M241.63,144.26l-8.07,10.76-11.92,4.96-.38,14.18,11.94-6.04s3.38.78,5.2-.26,7.72-6.51,7.72-6.51l4.08.61s-1.04.95-.69,2.26c.35,1.3,1.82,1.13,1.82,1.13,0,0,2.78-1.39,2.86-2.26s0-1.39,0-1.39c0,0,1.13,0,1.56-1.3.43-1.3.61-2.17.61-2.17,0,0,1.65-1.13,1.73-2.69l.09-1.56s1.39-.09,1.65-1.13c.26-1.04.35-4.25,0-4.94-.35-.69-3.82-5.03-5.29-5.03s-11.65-.31-12.92,1.39Z"/>
            <path class="cls-12" d="M254.37,162.14c-.09,0-.08-.65-.26-1.64-.1-.48-.28-1.06-.71-1.51-.41-.45-1.12-.69-1.85-1.02-2.89-1.28-5.18-2.42-5.12-2.55.06-.13,2.45.8,5.34,2.07.7.32,1.47.58,1.99,1.17.51.57.66,1.25.72,1.78.09,1.07-.05,1.7-.1,1.7Z"/>
            <path class="cls-12" d="M255.74,158.98c-.07.03-.31-.76-.33-2.03-.03-.62-.04-1.38-.35-2.08-.3-.71-1.03-1.19-1.91-1.53-3.55-1.42-6.53-2.3-6.49-2.45.02-.07.79.07,2.01.4,1.22.33,2.88.85,4.68,1.57.89.34,1.82.94,2.15,1.82.34.85.28,1.64.27,2.27-.08,1.26.02,2.01-.04,2.03Z"/>
            <path class="cls-12" d="M246.33,146.85c.02-.07.89.09,2.29.4s3.33.77,5.44,1.32c1.02.27,2.18.48,2.89,1.32.67.83.76,1.77.82,2.48.04,1.45.21,2.28.16,2.31-.03.01-.15-.19-.25-.58-.11-.39-.18-.98-.27-1.69-.1-.69-.24-1.55-.82-2.2-.57-.65-1.6-.86-2.66-1.13-2.12-.54-4.03-1.06-5.41-1.46s-2.22-.68-2.2-.75Z"/>
          </g>
          <path class="cls-1" d="M254.8,127.08s5.9-1.23,9.42,4.56l2.27-5.2s-2.37-5.81-9.59-3.95l-2.1,4.59Z"/>
          <g>
            <path class="cls-1" d="M266.2,125.61c-.3.15-1.47-1.32-2.48-4.16-.49-1.44-.95-3.13-1.11-5.21-.06-1.04-.02-2.22.42-3.44.44-1.14,1.24-2.59,3.1-3.04.47-.09.99-.07,1.46.08.47.15.87.42,1.18.72.62.59.96,1.37,1.09,2.05.14.69.12,1.3.09,1.83-.03.53-.08,1.03-.14,1.53-.24,1.98-.69,3.72-1.18,5.13-1.01,2.83-2.15,4.31-2.45,4.17-.35-.16.17-1.88.67-4.64.25-1.38.48-3.03.57-4.86.03-.9.1-1.97-.06-2.62-.08-.34-.21-.55-.38-.71-.17-.14-.22-.14-.36-.12-.15.02-.43.18-.65.43-.22.23-.41.58-.56.95-.3.74-.4,1.61-.41,2.47,0,1.74.26,3.45.49,4.81.5,2.76,1.04,4.47.7,4.63Z"/>
            <path class="cls-1" d="M265.74,125.63c-.08-.14.18-.52.85-.95.66-.43,1.73-.9,3.16-1.1,1.41-.21,3.19-.11,5.01.57.91.34,1.83.83,2.68,1.5.42.32.85.68,1.26,1.22.2.27.39.58.53.95.15.38.23.79.22,1.22,0,.42-.1.88-.33,1.31-.23.44-.6.8-1.01,1.03-.83.45-1.57.42-2.15.38-.61-.06-1.05-.18-1.53-.29-.47-.12-.93-.25-1.37-.4-1.76-.59-3.21-1.42-4.33-2.24-2.23-1.67-3.09-3.19-2.84-3.41.27-.27,1.56.73,3.81,1.84,1.12.54,2.49,1.11,4.06,1.51.39.1.8.19,1.21.27.41.07.87.16,1.2.18.35.03.62-.04.65-.08,0,0,.01-.01.01-.01.09.08-.04-.02,0,0,0,0,.02-.05.02-.13.06-.24-.34-.84-1.01-1.36-.62-.52-1.3-.94-1.99-1.26-1.39-.64-2.8-.9-3.99-.94-2.41-.09-3.92.57-4.11.21Z"/>
          </g>
        </g>
      </g>
    </g>
  </g>
</svg>