<?xml version="1.0" encoding="UTF-8"?>
<svg xmlns="http://www.w3.org/2000/svg" version="1.1" viewBox="0 0 678.2 446.8">
  <defs>
    <style>
      .cls-1 {
        fill: #e0e0e0;
      }

      .cls-2 {
        fill: #bfdd7d;
      }

      .cls-3 {
        fill: #ffbe9d;
      }

      .cls-4 {
        fill: #263238;
      }

      .cls-5 {
        fill: #eb996e;
      }

      .cls-6 {
        fill: #6eb63c;
      }

      .cls-7 {
        fill: #fff;
      }

      .cls-8 {
        fill: #fafafa;
      }

      .cls-9 {
        opacity: .4;
      }

      .cls-10 {
        opacity: .6;
      }

      .cls-11 {
        opacity: .2;
      }

      .cls-12 {
        opacity: .3;
      }

      .cls-13 {
        fill: #455a64;
      }

      .cls-14 {
        display: none;
      }
    </style>
  </defs>
  <!-- Generator: Adobe Illustrator 28.6.0, SVG Export Plug-In . SVG Version: 1.2.0 Build 709)  -->
  <g>
    <g id="Calque_1">
      <g id="Calque_1-2" data-name="Calque_1">
        <g id="Calque_1-2">
          <g id="Floor" class="cls-14">
            <path class="cls-4" d="M673.5,431.2c0,.1-150.1.3-335.2.3s-335.2-.1-335.2-.3,150.1-.3,335.2-.3,335.2.1,335.2.3Z"/>
          </g>
          <g id="Character_2">
            <g>
              <g>
                <g>
                  <g>
                    <polygon class="cls-4" points="565 362.5 565 430.6 573.1 430.6 576.1 362.3 565 362.5"/>
                    <polygon class="cls-4" points="432.2 362.3 436 430.6 443.7 430.6 443.8 362.5 432.2 362.3"/>
                    <rect class="cls-13" x="419.5" y="318.2" width="151.4" height="49.3" rx="6.5" ry="6.5"/>
                  </g>
                  <path class="cls-13" d="M577.8,296.1c1.8-13.6,3.3-28.4-3.3-40.5-6.8-12.6-21.8-19.7-36.1-18.4s-27.2,10.3-34.8,22.5c-7.5,12.2-9.8,27.2-7.8,41.3"/>
                </g>
                <path class="cls-4" d="M508.6,350.1c0,.1-17.3.3-38.5.3s-38.5-.1-38.5-.3,17.2-.3,38.5-.3,38.5.1,38.5.3Z"/>
                <path class="cls-8" d="M509.2,349.8s-3.3,2.8-7.4,6.2-7.5,6.1-7.5,6c0,0,3.3-2.8,7.4-6.2s7.5-6.1,7.5-6Z"/>
                <path class="cls-8" d="M494.4,333.9s-10.3,7.4-23,16.4c-12.8,9-23.1,16.3-23.1,16.2s10.3-7.4,23-16.4c12.8-9,23.1-16.3,23.1-16.2Z"/>
                <path class="cls-8" d="M459.3,333.1s-6.7,5-15.1,11-15.2,10.9-15.2,10.9c0,0,6.7-5,15.1-11s15.2-10.9,15.2-10.9Z"/>
                <path class="cls-8" d="M443.6,322.5h-.2c-.1.1-.3.3-.5.4-.5.3-1.1.6-1.8,1-1.5.9-3.5,2.1-5.7,3.6s-4,2.9-5.4,4c-.6.5-1.1.9-1.6,1.3-.1.1-.3.2-.4.4-.1,0-.1.1-.2.1h.1c.1-.2.3-.3.4-.5.4-.3.9-.8,1.5-1.3,1.3-1.1,3.2-2.6,5.4-4.1s4.2-2.7,5.7-3.5c.8-.4,1.4-.7,1.8-1,.2,0,.3-.2.5-.2h.2l.2-.2h0Z"/>
              </g>
              <path class="cls-8" d="M576.9,260.3s0,.1-.3.3c-.2.2-.5.5-.9.8-.8.6-1.9,1.6-3.3,2.7-2.8,2.2-6.9,5.2-11.4,8.3-4.6,3.1-8.8,5.7-12,7.5s-2.8,1.6-3.7,2.1c-.4.2-.7.4-1,.5l-.4.2.3-.2c.3-.2.6-.4,1-.6,1-.5,2.2-1.3,3.7-2.1,3.1-1.8,7.4-4.5,11.9-7.5s8.6-6,11.5-8.2c1.4-1.1,2.5-2,3.4-2.6.4-.3.7-.5.9-.7s.3-.2.3-.2h0v-.3h0Z"/>
              <path class="cls-4" d="M553.2,244.9s.2,0,.4.2c.3.2.7.4,1.2.7,1,.6,2.3,1.7,3.8,3.2,2.9,3,5.9,8.2,7.2,14.5s1,12.1.7,16.2c-.2,2.1-.4,3.7-.5,4.9,0,.5,0,1-.2,1.3v.5-1.8c0-1.2.2-2.8.3-4.9.2-4.1.4-9.9-.8-16.1-1.3-6.2-4.2-11.3-6.9-14.3-2.8-3.1-5.1-4.2-5-4.4h-.2Z"/>
              <path class="cls-8" d="M567.9,246.5h0c0,.2-.3.3-.4.5-.4.3-.9.8-1.6,1.3-1.4,1.1-3.3,2.5-5.6,3.9-2.2,1.4-4.3,2.6-5.8,3.5-.8.4-1.4.7-1.8,1-.2,0-.3.2-.5.2h-.2.2c.2-.1.3-.3.5-.4.5-.3,1.1-.6,1.8-1,1.5-.9,3.6-2.1,5.8-3.5s4.2-2.8,5.6-3.9c.6-.4,1.2-.9,1.7-1.2.2-.1.3-.2.5-.3h.2c0-.1-.3-.1-.3-.1h-.1Z"/>
              <g>
                <g>
                  <g>
                    <path class="cls-2" d="M402.9,392.1l1,24.8s-24.8,9.3-25.1,13.9l48.1-.2v-38.6l-24,.2h0Z"/>
                    <g class="cls-10">
                      <path class="cls-7" d="M418.7,414.7c.9.2,1.6,1.3,1.4,2.2s-1.3,1.6-2.2,1.4c-.9-.2-1.8-1.5-1.4-2.4.3-.9,1.6-1.6,2.5-1.2"/>
                    </g>
                    <g class="cls-10">
                      <path class="cls-7" d="M426.9,430.6v-3.9c-.1,0-46.2,1.7-46.2,1.7,0,0-2.1.9-1.9,2.5l48.1-.2h0Z"/>
                    </g>
                    <path class="cls-4" d="M403.1,416.6c0,.2,1.2.3,2.3,1.1,1.2.7,1.8,1.7,2,1.6.2,0-.1-1.5-1.6-2.3-1.4-.9-2.8-.6-2.8-.4h.1Z"/>
                    <path class="cls-4" d="M398.1,418.8c0,.2,1,.6,1.8,1.6s1,2,1.3,2,.4-1.3-.6-2.5-2.4-1.3-2.4-1.1h0Z"/>
                    <path class="cls-4" d="M395.2,424.8c.2,0,.5-1.1,0-2.4-.6-1.3-1.7-1.8-1.8-1.6-.1.2.6.9,1.1,1.9s.6,2,.8,2.1h-.1Z"/>
                    <path class="cls-4" d="M403.5,411c.1.2,1.2-.1,2.5,0,1.3,0,2.4.5,2.5.3s-.9-1-2.4-1.1c-1.6,0-2.7.7-2.5.9h-.1Z"/>
                  </g>
                  <g class="cls-12">
                    <polygon points="403.1 397 403.3 401.4 426.9 401.1 426.9 397.1 403.1 397"/>
                  </g>
                  <path class="cls-4" d="M403.4,406c0,.1.9.2,2.4,0,.7-.1,1.6-.4,2.5-.8.5-.2.9-.5,1.4-.7.2-.1.5-.3.7-.6.3-.2.4-.9.1-1.2-.2-.4-.7-.5-1-.5s-.6,0-.9.1c-.5.1-1,.3-1.5.5-.9.4-1.7,1-2.2,1.5-1.1,1-1.5,1.9-1.4,2,.1,0,.6-.7,1.8-1.5.6-.4,1.3-.9,2.1-1.2.4-.2.9-.3,1.4-.4s.9-.1,1.1,0v.3c-.1.1-.3.3-.5.4-.4.3-.9.5-1.3.7-.8.4-1.6.7-2.3.9-1.4.4-2.3.5-2.3.6h-.1Z"/>
                  <path class="cls-4" d="M403.7,406.3s.5-.8.6-2.3c0-.8,0-1.7-.3-2.6-.1-.5-.4-1-.6-1.5-.3-.5-.6-1.1-1.5-1.2-.5,0-.9.4-1,.7-.2.3-.2.6-.2.9v1.6c.2,1,.6,1.9,1,2.5,1,1.2,1.9,1.5,2,1.4,0-.1-.7-.6-1.5-1.8-.4-.6-.7-1.4-.8-2.3v-1.4c0-.5.3-.9.5-.9s.6.4.9.8c.2.4.5.9.6,1.3.3.9.4,1.7.5,2.4,0,1.4-.2,2.3,0,2.3h-.2Z"/>
                </g>
                <path class="cls-4" d="M470.9,285.6l-55.5-8.8c-5.5-.9-11.1.7-15.3,4.2h0c-4.6,3.8-7.2,9.6-7,15.6l4,101.1h34.3v-78.5l32.9.6,26.1-23,18.8-3.3,14-8.5-52.2.6h0Z"/>
                <path class="cls-13" d="M431.3,299.4v.9c0,.6,0,1.6.1,2.9,0,2.5.1,6.1.2,10.5.1,8.9.2,21.2.2,34.8s0,25.9-.1,34.8c0,4.5-.1,8-.2,10.5,0,1.2,0,2.2-.1,2.9v.9-49.3c0-26.7-.1-46.4-.1-49.2h0v.3h0Z"/>
              </g>
              <g>
                <g>
                  <path class="cls-2" d="M482.2,401.2l13.3,20.9s-16.8,20.6-14.7,24.7l41.4-24.4-19.4-33.4-20.6,12.2h0Z"/>
                  <g class="cls-10">
                    <path class="cls-7" d="M507.3,412.8c.9-.2,2,.3,2.3,1.2.3.9-.3,2-1.2,2.3s-2.2-.4-2.4-1.3c-.2-1,.6-2.2,1.5-2.2"/>
                  </g>
                  <g class="cls-10">
                    <path class="cls-7" d="M522.3,422.4l-2.1-3.3-38.9,24.6s-1.4,1.9-.4,3.1l41.4-24.4h0Z"/>
                  </g>
                  <path class="cls-4" d="M494.8,422.3c.1.2,1.2-.3,2.6-.2,1.4,0,2.4.6,2.5.4.2-.1-.9-1.2-2.5-1.2s-2.8.9-2.6,1.1h0Z"/>
                  <path class="cls-4" d="M491.5,426.6c0,.2,1.1,0,2.3.5,1.2.4,1.9,1.2,2.1,1.1.2,0-.4-1.4-1.8-1.9-1.5-.5-2.7,0-2.6.3h0Z"/>
                  <path class="cls-4" d="M492.1,433.3c.2,0-.1-1.2-1.3-2-1.2-.8-2.4-.7-2.4-.5s1,.5,1.9,1.1c1,.6,1.5,1.5,1.7,1.4h0Z"/>
                  <path class="cls-4" d="M492.2,417.2c.2.1,1-.7,2.1-1.3,1.2-.6,2.3-.8,2.3-1s-1.3-.5-2.7.3c-1.4.7-2,1.9-1.8,2h.1Z"/>
                </g>
                <g class="cls-12">
                  <polygon points="484.9 405.4 487.2 409.1 507.5 396.9 505.5 393.5 484.9 405.4"/>
                </g>
                <path class="cls-4" d="M489.6,412.9s.9-.3,2.1-1.2c.6-.5,1.2-1.1,1.8-2,.3-.4.6-.9.8-1.3.1-.2.3-.5.3-.9.1-.3,0-1-.5-1.1-.4-.2-.9-.1-1.2,0-.3.2-.5.4-.7.6-.4.4-.7.8-1,1.2-.6.8-1,1.7-1.2,2.4-.4,1.5-.3,2.4-.2,2.4s.2-.9.8-2.2c.3-.6.7-1.4,1.2-2.1.3-.4.6-.7,1-1.1s.7-.6,1-.5c0,0,.1,0,0,.3,0,.2-.1.4-.2.6-.2.5-.5.9-.7,1.3-.5.8-1.1,1.4-1.5,2-1,1-1.7,1.5-1.7,1.6h0Z"/>
                <path class="cls-4" d="M490.1,413.1s0-1-.6-2.3c-.4-.7-.9-1.4-1.6-2.1s-.8-.7-1.3-1-1.1-.6-1.9-.3c-.4.2-.6.8-.5,1.1,0,.4.1.6.2.9.2.5.5,1,.8,1.4.6.8,1.4,1.3,2.1,1.6,1.4.6,2.4.3,2.4.3,0-.1-.9-.1-2.1-.8-.6-.3-1.3-.8-1.8-1.6-.3-.4-.5-.8-.7-1.2-.2-.5-.2-.9,0-1s.8,0,1.1.2c.4.2.8.5,1.2.8.7.6,1.2,1.2,1.6,1.8.8,1.2,1,2.1,1.1,2h0v.2h0Z"/>
              </g>
              <g>
                <path class="cls-3" d="M405.3,227.6l-16.1-8.2c-4.2-1.8-5.8-2.9-5.4-3.6.5-1,.3-.6,8.4,1.6,0,0-11.5-3.3-8.5-4.5.5-.2,2.4,0,4.4.5-2.9-1-4-2-3.8-2.8.3-1.3,7.2.3,10.4,1.1-2.6-.7-7.7-2.1-8.7-2.8-1.4-.9.5-1.5,2.2-1.6,2,0,13.5,1,16.8,1.1,2.3.1,2.3-1.9,2.3-1.9-.7-4.8,1.3-8.9,2.4-9.8s2.6.3,2.2,1.8c-.3,1.2-.3,3.3-.2,4.9,0,1.3.4,2.6.9,3.8.6,1.4,1.1,2.6,1.6,3.6l13.1,13.1-10.6,13.4-11.4-9.6h0Z"/>
                <path class="cls-5" d="M396.4,219c0,.2-2.6-.4-5.6-1.3s-5.5-1.8-5.4-2c0-.2,2.6.4,5.6,1.3,3,.9,5.4,1.8,5.4,2h0Z"/>
                <path class="cls-5" d="M398.5,215.6c0,.2-2.8-.3-6-1-3.3-.8-5.9-1.6-5.9-1.8s2.8.3,6,1c3.3.8,5.9,1.6,5.9,1.8Z"/>
                <path class="cls-5" d="M400.1,212.7c0,.2-2.6-.2-5.7-.9s-5.6-1.4-5.6-1.6,2.6.2,5.7.9,5.6,1.4,5.6,1.6Z"/>
              </g>
              <g>
                <g>
                  <path class="cls-4" d="M476.4,116.5c4.1-1.2,8.4,2.4,12.6,1.6,2.5-.5,4.5-2.5,6.7-3.8,3.4-1.9,8.2-2.2,11.7-.4,3.5,1.8,5.7,3.6,6.2,7.5,3.2-1.8,8.4,2.2,10.2,6s1.3,7.8.3,11.9c-1.8,7.1-4.9,13.8-9.2,19.6-.4.5-1,1.1-1.6.8-.4-.2-.5-.7-.6-1.1-.6-3.8,0-7.6.2-11.4.3-3.8.5-7.7-.7-11.3s-4-6.9-7.8-7.6c-2.8-.5-5.6.4-8.1,1.7-2.5,1.4-4.6,3.2-6.9,4.8s-5,2.9-7.8,3-5.8-1.2-7-3.7.1-6.2,2.9-6.7c-2.5-.2-4.7-2.4-5-4.9s1.5-5.1,3.9-5.8h0v-.2h0Z"/>
                  <g>
                    <g>
                      <path class="cls-3" d="M518.2,140.3l-4.1,42.4c-.7,7.2-8.3,17.9-15.4,16.9h0c-6.7-1-10.5-12.6-9.8-19.3.3-3.2.6-5.9.6-6.2,0,0-10.7-2.1-10.5-12.8.1-5.2,1.2-15.9,2.4-25.6,1.2-10.4,10.2-18.1,20.6-17.7h1c11.2,1.1,16.5,11.2,15.2,22.3h0Z"/>
                      <path class="cls-5" d="M489.4,174s6.8.8,14.2-3.5c0,0-3.6,7.6-14.3,6.3v-2.8h.1,0Z"/>
                    </g>
                    <g>
                      <g>
                        <g>
                          <path class="cls-4" d="M484.2,143.1c0,.8.6,1.5,1.4,1.6.8,0,1.6-.5,1.6-1.3s-.6-1.5-1.4-1.6c-.9,0-1.6.5-1.6,1.3Z"/>
                          <path class="cls-4" d="M483.4,141.1c.2.2,1.4-.6,3-.6s2.8.9,3,.7c0,0,0-.5-.6-.9s-1.4-.8-2.4-.8-1.9.3-2.4.7-.7.7-.6.8h0Z"/>
                        </g>
                        <g>
                          <path class="cls-4" d="M500.4,144.2c0,.8.6,1.5,1.4,1.6.8,0,1.6-.5,1.6-1.3s-.6-1.5-1.4-1.6c-.9,0-1.6.5-1.6,1.3Z"/>
                          <path class="cls-4" d="M499.7,142c.2.2,1.4-.6,3-.6s2.8.9,3,.7c0,0,0-.4-.6-.9-.5-.4-1.4-.8-2.4-.8s-1.9.3-2.4.7-.7.7-.6.8h0Z"/>
                        </g>
                        <path class="cls-4" d="M493.2,154.1s-1-.3-2.7-.6c-.4,0-.8-.2-.9-.4,0-.3.1-.8.3-1.2.4-1,.9-2.1,1.4-3.2,1.9-4.5,3.3-8.2,3.1-8.3-.2,0-1.9,3.5-3.8,8.1-.5,1.1-.9,2.2-1.3,3.2-.2.5-.5,1-.3,1.6s.4.6.7.6.5.1.7.1c1.7.1,2.7.2,2.7.1h0Z"/>
                        <path class="cls-4" d="M498.1,155.4c-.3,0-.3,1.8-1.9,3s-3.5,1-3.5,1.2.4.4,1.2.4,2-.2,2.9-.9c1-.8,1.4-1.8,1.5-2.5,0-.8,0-1.2-.2-1.2h0Z"/>
                      </g>
                      <path class="cls-4" d="M499.5,135.5c.1.5,1.8.3,3.7.6,1.9.3,3.5.9,3.8.5.1-.2-.1-.6-.8-1.1s-1.6-.9-2.8-1.1c-1.2-.2-2.2,0-3,.2-.7.3-1.1.6-1,.8h0Z"/>
                      <path class="cls-4" d="M484.2,136.4c.3.4,1.4,0,2.8,0s2.5.3,2.8,0c.1-.2,0-.6-.5-.9-.5-.4-1.3-.7-2.3-.7s-1.8.3-2.3.7-.7.8-.5.9h0Z"/>
                    </g>
                  </g>
                  <g>
                    <path class="cls-3" d="M517,148.3c.2,0,7.5-1.9,7,5.4-.5,7.4-7.8,5.3-7.8,5.1s.8-10.6.8-10.6h0Z"/>
                    <path class="cls-5" d="M518.6,156.2s0,.1.3.2c.2.1.6.2,1,0,.8-.2,1.5-1.4,1.7-2.7,0-.7,0-1.3-.2-1.9-.2-.6-.5-.9-.9-1.1-.4-.1-.7.1-.8.3s0,.4,0,.4c0,0-.2-.1,0-.4,0-.1,0-.3.3-.4.2-.1.5-.2.7-.1.6,0,1,.6,1.3,1.2.2.6.4,1.3.3,2.1-.2,1.5-1,2.8-2.1,3.1-.5.1-1,0-1.2-.3-.2-.2-.2-.4-.2-.4h-.2Z"/>
                  </g>
                  <path class="cls-4" d="M479.1,133.4c4.7,1.4,10.1.4,13.9-2.6,2.7-2.1,4.8-5.2,8.1-6.1,2.2-.6,4.7,0,6.6,1.2,2,1.2,3.6,3,4.9,4.8-2.3,5.4-1.1,11.6,0,17.3,0,.6.3,1.3.8,1.7.8.7,2.2.2,3-.5,1.3-1.2,1.8-3,2.2-4.7.8-3.9,1.1-8,.3-11.9-.7-3.9-2.5-7.7-5.3-10.6-3.5-3.6-8.5-5.6-13.5-5.7-5,0-10,1.6-14.1,4.5-1.9,1.3-3.7,3-4.7,5.1"/>
                </g>
                <path class="cls-13" d="M473.2,118.9v.6c0,.4.4,1,1,1.6.6.5,1.6.9,2.7,1h1.8c.6,0,1.3-.3,1.9-.8s1-1.2,1-2.1-.7-1.6-1.5-1.9c-.4-.2-.9-.2-1.3-.2s-.9.2-1.3.5c-.8.6-1.1,1.6-1.2,2.5,0,1,.4,2,1.1,2.7.7.8,1.6,1.3,2.6,1.6,2,.6,4.3.3,6.3-.5,2.1-.8,3.9-1.9,5.6-3.1,1.7-1.1,3.3-2.2,5-3s3.5-1.2,5.1-1.1c1.6,0,3.1.6,4.4,1.3,2.5,1.4,3.9,3.3,4.7,4.6.4.7.7,1.2.9,1.6s.3.6.3.6v-.2s0-.2-.2-.4c-.2-.4-.4-.9-.8-1.6-.8-1.3-2.2-3.3-4.7-4.8-1.2-.7-2.8-1.2-4.5-1.4-1.7,0-3.5.3-5.2,1.1-1.7.8-3.4,1.9-5.1,3s-3.5,2.3-5.5,3c-2,.8-4.1,1.1-6.1.5-1-.3-1.8-.8-2.5-1.5-.6-.7-1-1.6-1-2.5s.4-1.8,1-2.3c.6-.6,1.6-.6,2.3-.3.7.3,1.3.9,1.3,1.7s-.4,1.4-.9,1.8-1.2.7-1.8.8h-1.8c-1.1,0-2-.4-2.6-.9s-.9-1.1-1-1.5,0-.6-.1-.6h0v.2h.1Z"/>
                <path class="cls-13" d="M524.8,133.7s-.8.4-2.3.5c-.7,0-1.6,0-2.5-.3s-1.8-.8-2.7-1.4c-1.8-1.3-2.7-3.1-3.1-4.5-.4-1.4-.3-2.3-.4-2.3s0,.2,0,.6,0,1,.2,1.7c.3,1.4,1.3,3.4,3.2,4.7.9.6,1.9,1.2,2.8,1.4.9.3,1.8.4,2.6.3.7,0,1.3-.3,1.7-.4s.6-.3.6-.3h0Z"/>
                <path class="cls-13" d="M524.3,139h-2.3c-1.4-.1-3.3-.6-5-1.8s-2.8-2.9-3.4-4.1c-.6-1.3-.7-2.1-.8-2.1v.6c0,.4.2.9.5,1.6.5,1.3,1.6,3.1,3.4,4.3,1.8,1.3,3.8,1.8,5.2,1.8h1.7c.4,0,.6-.1.6-.1h0v-.2h0Z"/>
                <path class="cls-5" d="M504.9,149.2c.1,0,.2,0,.2-.1s0-.2-.1-.2-.2,0-.2.1,0,.2.1.2Z"/>
                <path class="cls-5" d="M501.8,148.4c.1,0,.2,0,.2-.2s0-.2-.1-.3c-.1,0-.2,0-.2.2s0,.2.1.3Z"/>
                <path class="cls-5" d="M499.7,148.3c.1,0,.2-.1.2-.3s0-.3-.1-.3-.2.1-.2.3,0,.3.1.3Z"/>
                <path class="cls-5" d="M503.3,151.2c.1,0,.2,0,.2-.1,0,0,0-.1-.2-.1s-.2,0-.2.1c0,0,0,.1.2.1Z"/>
                <path class="cls-5" d="M500.4,150.4c.1,0,.2,0,.2-.2s0-.2-.2-.2-.2,0-.2.2,0,.2.2.2Z"/>
                <path class="cls-5" d="M485.4,148.1c.1,0,.2,0,.2-.2s0-.2-.1-.2-.2,0-.2.2,0,.2.1.2Z"/>
                <path class="cls-5" d="M483.3,147.8c.1,0,.2,0,.2-.2s0-.2-.1-.2-.2,0-.2.2,0,.2.1.2Z"/>
                <path class="cls-5" d="M487.3,148.2c.1,0,.2,0,.2-.1,0,0,0-.2-.1-.2s-.2,0-.2.1c0,0,0,.2.1.2Z"/>
                <path class="cls-5" d="M485.6,150.3s.2,0,.3-.1v-.3s-.2,0-.3.1,0,.2,0,.3Z"/>
                <path class="cls-5" d="M483.8,149.8c.1,0,.2-.1.1-.2s-.1-.1-.2-.1-.2.1-.1.2.1.1.2.1Z"/>
                <path class="cls-4" d="M521.5,158.3s.3.6,0,1.7c0,.5-.3,1.1-.9,1.5-.5.4-1.3.7-2,.4-.7-.2-1.3-.9-1.4-1.5,0-.6,0-1.2.4-1.7.5-.9,1.2-1.2,1.1-1.2,0,0-.8.1-1.3,1.1-.3.5-.6,1.1-.5,1.9,0,.8.8,1.5,1.6,1.8.9.3,1.8,0,2.3-.5.6-.5.8-1.2.9-1.7,0-.6,0-1-.2-1.3,0-.3-.2-.4-.2-.4h.2Z"/>
                <path class="cls-4" d="M521.5,157.1s-.3,0-.4.5v.8c0,.3.3.5.7.6.3.1.7,0,.9-.2s.3-.5.3-.7c0-.5-.3-.6-.4-.5v.5q0,.3-.2.4c-.2,0-.4.2-.6.1-.2,0-.4-.2-.5-.4v-.6c0-.3.2-.5.2-.6h0Z"/>
              </g>
              <g>
                <path class="cls-4" d="M508.8,292.7c-.9,0-58,6.8-66.9,11.9-5,2.8-4.5,7.6-5.3,9.7-3,8.1-.4,16.3,3.8,23.9l41.9,73,26.5-17.9-26.7-58.2,40.8-4c9.2-1.3,16.7-8.2,18.6-17.3l4.9-22.5-37.6,1.5h0Z"/>
                <path class="cls-13" d="M508.8,393.3c-.1,0-7.8-16.4-17-36.7-9.3-20.3-16.7-36.9-16.6-36.9s7.8,16.4,17,36.7c9.3,20.3,16.7,36.9,16.6,36.9h0Z"/>
                <path class="cls-13" d="M508.8,296.2h-1.1c-.7,0-1.7.1-3,.2-2.6.2-6.4.5-11,.9-9.3.8-22.2,1.7-36.4,3.1-1.8.2-3.5.4-5.2.6-.9.1-1.7.2-2.5.4-.8.1-1.6.4-2.4.7-3.1,1.2-5.9,3-7.8,5.4-1,1.2-1.8,2.5-2.4,3.8s-1,2.7-1.2,4c-.5,2.7-.4,5.3-.2,7.6.6,4.6,1.8,8.2,2.7,10.7.5,1.2.9,2.1,1.2,2.8.1.3.2.5.3.7,0,.2.1.2.1.2v-.2c-.2-.2-.3-.4-.5-.7-.3-.6-.8-1.5-1.3-2.7-1-2.4-2.2-6-2.9-10.7-.3-2.3-.3-4.9.1-7.7.2-1.4.6-2.8,1.2-4.1.6-1.4,1.4-2.7,2.4-3.9,2-2.5,4.8-4.4,8-5.6.8-.3,1.6-.6,2.5-.7.9-.2,1.7-.2,2.6-.4,1.7-.2,3.5-.4,5.3-.6,14.2-1.4,27.1-2.3,36.5-3,4.6-.3,8.4-.5,11.1-.7,1.3,0,2.3-.1,3-.2h1.1-.2Z"/>
              </g>
              <g>
                <path class="cls-2" d="M536.8,255.4l2.2-68.8-21.6-4.6-2.3-3.8-14.5,9.4-2.9,6.6-3.5-7.5-5.2-4-2.4,4.7-16.3,6.7c-1.5.6-2.8,1.8-3.5,3.2l-18.3,36.5-32.5-22.5-10,17.7,37.6,32c7,4.5,16.3,2.6,21.1-4.2l9.6-13.7,4,23,.7,23.4,28.3,5.3,39.6-3.7-9.8-35.8h-.3Z"/>
                <g class="cls-12">
                  <path d="M505.6,294.5c13.7,1.4,27.9-2.2,39.2-10.1l-2.2-7.9-37,18h0Z"/>
                </g>
                <path class="cls-2" d="M539,186.6s-13.5,4.1-14.5,17.8c-1,13.6-1.6,52.8-1.6,52.8,0,0-2.1,1.6-1.6,3.1.5,1.6-38.9,23.6-38.9,23.6l7.9,13.7s25.1-3,53.2-17.7c14.4-7.5,8.7-66.6,8.5-67.4-.3-.8-3.8-26-13-26h0Z"/>
                <path class="cls-4" d="M478.1,266.2s0-.2-.1-.6c0-.4-.2-1-.3-1.7-.3-1.5-.7-3.6-1.2-6.2s-1-5.8-1.7-9.2c-.3-1.7-.6-3.6-1-5.4-.2-1.9-.5-3.9-.8-5.9-1-8-2-15.3-2.6-20.6-.3-2.6-.6-4.7-.7-6.3,0-.7-.1-1.3-.2-1.7v-.6s0,.2.1.6c0,.4.2,1,.3,1.7.2,1.5.5,3.6.9,6.2.7,5.3,1.7,12.6,2.8,20.6.3,2,.5,4,.8,5.9s.6,3.7.9,5.4c.6,3.4,1.1,6.6,1.6,9.2.4,2.6.8,4.7,1,6.2.1.7.2,1.2.2,1.7v.6h0Z"/>
                <path class="cls-4" d="M490.4,297.7v-.2c-.2-.2-.3-.4-.5-.7-.4-.6-.9-1.5-1.6-2.7-1.4-2.4-3.4-5.8-5.9-10.1v-.2c-.1,0,0,0,0,0,5.1-2,11.1-5.3,17.5-9.5,6.5-4.2,13.5-9.4,21.7-13.7v.4c-1.2-1.9,0-4.7,2.4-4.9l-.2.2c0-1,.3-2.1.4-3.2,1.2-9.7,1.5-19,1.1-27.4s-.6-8.2-.8-12-.2-7.3.2-10.5,1.4-6,2.5-8.3c1.2-2.3,2.5-4,3.8-5.3,1.3-1.2,2.5-2,3.3-2.4.4-.2.8-.4,1-.5s.3-.1.3-.1c0,0-1.9.7-4.5,3.2-1.3,1.2-2.6,3-3.7,5.2-1.1,2.3-2,5-2.4,8.2-.4,3.1-.4,6.7-.2,10.4.3,3.7.7,7.7.9,12,.4,8.4.2,17.8-1,27.5,0,1.1-.3,2.2-.4,3.2v.2h-.2c-1.9.2-3,2.7-2.1,4.2v.2h0c-8.2,4.4-15.1,9.6-21.6,13.7-6.5,4.2-12.5,7.5-17.6,9.5v-.2c2.5,4.3,4.5,7.8,5.8,10.1.6,1.2,1.1,2.1,1.5,2.7.2.3.3.5.4.7,0,.2.1.2.1.2h-.2Z"/>
                <path class="cls-4" d="M528.7,267.6c-.2,0-.8-2.3-2.8-4.4s-4.4-2.8-4.3-3c0,0,.6,0,1.5.4s2.1,1.1,3.2,2.2c1.1,1.1,1.8,2.3,2.1,3.2.4.9.4,1.5.4,1.5h-.1Z"/>
                <path class="cls-4" d="M530.7,264.2c-.2,0-.8-2.3-2.8-4.5-1.9-2.2-4.2-3.1-4.1-3.3,0-.1,2.5.6,4.5,2.9,2.1,2.3,2.6,4.8,2.4,4.8h0Z"/>
                <path class="cls-4" d="M543.6,280s-.2.1-.5.3c-.4.2-.9.4-1.5.7-1.3.6-3.1,1.5-5.4,2.5-4.6,2-11,4.7-18.2,7.3-7.2,2.6-13.9,4.6-18.8,5.6-2.5.5-4.5.9-5.9,1-.6,0-1.2.1-1.6.2h-.6s.2,0,.5-.1c.4,0,1-.2,1.6-.3,1.4-.2,3.4-.6,5.8-1.1,4.9-1.1,11.5-3.2,18.7-5.8,7.2-2.6,13.6-5.2,18.2-7.2,2.3-1,4.1-1.7,5.5-2.3.6-.2,1.1-.5,1.5-.6.3-.1.5-.2.5-.2h.2Z"/>
                <path class="cls-4" d="M493,186.8s-.1.2-.3.5c-.2.3-.4.8-.6,1.5-.4,1.3-.8,3.1-1.1,5.2v.8l-.5-.6s0-.1-.1-.2c-1.1-1.9-2-3.6-2.8-4.7-.8-1.1-1.4-1.8-1.3-1.8,0,0,.8.5,1.6,1.6.9,1.1,1.8,2.9,2.9,4.7,0,0,0,.1.1.2h-.5c.2-2,.7-3.8,1.2-5.1.2-.6.5-1.1.8-1.5.2-.3.5-.4.5-.4h0v-.2h0Z"/>
                <path class="cls-4" d="M515.2,184.1s-1.2.9-3,2.4-4.1,3.7-6.3,6.6c-.9,1.2-1.7,2.3-2.3,3.4l-.3.4-.2-.5c-.8-2.4-1.5-4.5-2-6s-.7-2.4-.7-2.4c0,0,.4.8,1,2.3s1.3,3.5,2.2,5.9h-.4c.7-1.2,1.4-2.4,2.3-3.5,2.2-2.9,4.6-5.1,6.5-6.5.9-.7,1.7-1.2,2.3-1.6.6-.3.9-.5.9-.5h0Z"/>
                <path class="cls-4" d="M500.4,259.2s0-.2-.1-.6c0-.5-.1-1.1-.2-1.8-.2-1.6-.4-3.8-.7-6.6-.5-5.6-1.2-13.3-1.7-21.9s-.8-16.3-1-21.9c0-2.8-.1-5.1-.1-6.6v-2.4,2.4c0,1.6.2,3.9.3,6.6.2,5.6.6,13.4,1.1,21.9.5,8.6,1.1,16.3,1.5,21.9.2,2.8.4,5,.5,6.6,0,.7,0,1.3.1,1.8v.6h.3Z"/>
                <path class="cls-4" d="M520.3,242.2s-.3.4-.9,1.1c-.6.7-1.5,1.7-2.7,2.9-2.3,2.4-5.6,5.7-9.5,9s-7.7,6-10.5,7.9c-1.4.9-2.5,1.6-3.4,2.1-.8.5-1.3.7-1.3.7,0,0,.4-.3,1.2-.9.9-.6,1.9-1.3,3.3-2.2,2.7-1.9,6.5-4.7,10.4-7.9,3.9-3.3,7.2-6.5,9.6-8.9,1.1-1.1,2-2.1,2.8-2.8.7-.7,1-1,1-1h0Z"/>
                <path class="cls-4" d="M497.1,275.4c-.1,0-.2-2.9-.2-6.4s.2-6.4.4-6.4.2,2.9.2,6.4-.2,6.4-.4,6.4Z"/>
                <g class="cls-12">
                  <path d="M473.7,243.7c-.3-7.1-1.4-14.3-2.7-21.3-.9,10.7-2.4,21.5-4.9,32l7.6-10.6h0Z"/>
                </g>
                <g class="cls-12">
                  <path d="M497.5,194.1c1-.8,2.2-.2,2.8,1s.5,2.6.5,3.9,0,1.5.4,2.1c.3.6,1,1.2,1.7,1.1.9,0,1.5-.8,2-1.5,4-5.5,7.7-11.2,11.1-17-5.6,2.2-9.3,7.4-12.9,13.1-.1,0-2.9-9-2.9-9-.8,1.9-2,4.3-2.8,6.3"/>
                </g>
                <g class="cls-12">
                  <path d="M486,187.6c2.1,4.7,4.8,9.2,8.1,13.1.2-3.2,0-6.5-.7-9.7,1,.7,3,2.4,4.1,3.1,0,0-2.2-4.8-3.1-6.5-.2-.5-.6-1-1.1-1s-.9.7-1,1.3c-.5,1.9-1,3.8-1.5,5.7-.9-2.5-2.5-4.7-4.5-6.5"/>
                </g>
                <g class="cls-12">
                  <path d="M493.1,265.2c-.5-3.1.8-6.4,3.3-8.3,1.9-1.5,4.4-2.1,6.4-3.5,3.3-2.5,4.6-7.3,8.3-9.3,1.4-.7,3.5-.7,4.1.7.6,1.3-.5,2.7-1.4,3.7-6.1,6.4-13.1,12-20.7,16.6"/>
                </g>
                <g class="cls-12">
                  <path d="M521.9,260.8c1.8,1.8,2.9,4.4,2.9,7v2.3c0,.8.7,1.5,1.4,1.6,1,.2,2-.7,2.2-1.7s-.2-2.1-.6-3c-1.2-2.8-2.9-5.6-5.7-6.7"/>
                </g>
                <g class="cls-11">
                  <path d="M447.9,233.6c1.6,1.8,2.8,6.5,2.6,8.9s-.8,3-.5,5.4c0,.4-.7.6-.4.9.6.5,1.5,0,1.8-.7s0-1.5-.1-2.2c0,.9,1,1.6,1.9,1.4s1.5-1.1,1.7-2,0-1.8-.2-2.7c-.4-2.1-.9-4.1-2-5.9-1.1-1.8-2.9-3.3-5-3.5"/>
                </g>
                <path class="cls-4" d="M449.9,248.4c-.2,0,.8-3.4.2-7.7-.5-4.2-2.2-7.3-2.1-7.4,0,0,.5.7,1.1,2s1.2,3.2,1.5,5.3.1,4.1-.1,5.5-.6,2.2-.6,2.2h0Z"/>
              </g>
              <g>
                <path class="cls-13" d="M509.9,367.5c-4.2-18.7,3-50.9,16.3-64.6s33.8-20.3,52.6-16.8v82.3l-68.9-.9h0Z"/>
                <path class="cls-8" d="M578.5,332.8s-13.1,7.9-29.3,17.4c-16.2,9.6-29.3,17.3-29.4,17.3s13.1-7.9,29.3-17.4c16.2-9.6,29.3-17.3,29.4-17.3Z"/>
                <path class="cls-8" d="M578.5,304.8s-.2.2-.7.4c-.5.3-1.2.7-2,1.2-1.8,1.1-4.3,2.6-7.4,4.5-6.2,3.8-14.8,9-24.4,14.6-9.6,5.7-18.3,10.7-24.6,14.3-3.2,1.8-5.7,3.2-7.5,4.2s-1.5.8-2.1,1.1c-.5.2-.7.4-.7.4,0,0,.2-.1.7-.4s1.2-.7,2-1.2c1.8-1,4.4-2.5,7.5-4.3,6.3-3.6,15-8.7,24.6-14.4,9.5-5.7,18.2-10.8,24.5-14.6,3.1-1.9,5.6-3.4,7.4-4.4.8-.5,1.5-.9,2-1.2.5-.3.7-.4.7-.4h0v.2h0Z"/>
                <path class="cls-8" d="M569.7,286.6s-.2.1-.5.3c-.4.2-.8.5-1.4.8-1.3.7-3.1,1.7-5.3,2.9-4.5,2.4-10.7,5.7-17.6,9.4-13.2,7-22.5,11.9-24.9,13.2,0,0,.2-.1.5-.3.4-.2.8-.5,1.4-.8,1.3-.7,3.1-1.7,5.3-2.9,4.5-2.4,10.7-5.7,17.6-9.4,13.2-7,22.5-11.9,24.9-13.2h0Z"/>
                <path class="cls-4" d="M577.1,286.6h-1.2c-.8,0-2-.2-3.6-.3-3.1-.2-7.7-.3-13.2.5-.7.1-1.4.2-2.1.3-.7.1-1.5.3-2.2.4-1.5.3-3,.8-4.6,1.2-3.1,1-6.5,2.2-9.7,3.9-3.3,1.7-6.6,3.8-9.6,6.4-3.1,2.6-5.9,5.7-8.4,9.1-2.5,3.5-4.5,7.2-6.2,10.8-1.7,3.6-3,7.3-4.1,10.9-1.1,3.5-1.8,7-2.4,10.2-.5,3.3-.9,6.3-1,9.1-.3,5.6-.1,10.1.2,13.3.1,1.6.3,2.8.4,3.6,0,.4,0,.7.1.9v.3-.3c0-.2,0-.5-.2-.9-.1-.8-.4-2-.5-3.6-.4-3.1-.6-7.7-.4-13.3s.5-5.9,1-9.1c.6-3.3,1.3-6.7,2.3-10.3,1-3.6,2.3-7.3,4.1-11,1.7-3.7,3.7-7.4,6.2-10.9s5.4-6.6,8.5-9.2c3.1-2.7,6.4-4.7,9.7-6.4,3.3-1.8,6.7-2.9,9.8-3.9,1.6-.4,3.1-.9,4.7-1.1.8-.1,1.5-.3,2.2-.4s1.4-.2,2.1-.3c5.6-.7,10.2-.6,13.3-.3,1.6.1,2.8.3,3.6.4.4,0,.7.1.9.1h.3Z"/>
              </g>
              <path class="cls-3" d="M483.3,285.4s-4.4-.1-6.6-.9c-2.2-.7-6.1-1.3-8-1s-6.6,2.2-9.7,3-5.5.1-5.6,1.6,1.5,3.2,4.5,3.2c0,0-3.3,1.1-2.8,1.8s1.6,2.5,3,2.5c0,0,.1,2.6,2.6,2.9,0,0,.9,2.2,5.1,3.2,0,0-.3,1.9,2.9,2.5s21.2-7.5,21.2-7.5l-6.5-11.3h-.1Z"/>
            </g>
          </g>
          <g id="Character_1">
            <g>
              <g>
                <g>
                  <path class="cls-4" d="M147.5,182.9c-2.4-2.3-6.6-.3-8.6,2.4s-3.5,6.1-6.6,7.5-7.1.2-9.7,2.3c-3.6,3-1.6,9.8-5.4,12.4-1.5,1-3.6,1-5.2,1.8-3.9,2-3.8,7.4-3.2,11.7.8,6,1.8,12.3,5.1,17.4,3.3,5.1,9.8,8.7,15.6,6.7,5.5-1.9,8.4-7.9,10.6-13.3,3.1-7.5,6.2-15,9.4-22.4,1.8-4.3,3.6-8.7,4.2-13.4.6-4.6-.2-9.7-3.2-13.3"/>
                  <path class="cls-4" d="M141,138.7c0-2.5,2.2-4.4,4.5-5.3,2.3-.9,4.9-1.2,6.9-2.6,1.8-1.2,3-3.1,4.6-4.7,3.8-3.8,9.7-5.4,14.9-4s9.5,5.8,10.8,11c.9,3.5.3,7.7-2.5,10-3.2,2.7-8,2.1-12.1,1.3-4.1-.9-8.8-1.7-12.3.8-2.1,1.5-3.3,3.9-4.6,6.1-1.3,2.2-2.9,4.4-5.3,5.3s-5.7-.6-5.8-3.1"/>
                  <path class="cls-4" d="M141.1,140.1c.3,2.1-1.2,3.9-2.7,5.4s-3.2,3-3.4,5.1c-.3,2.4,1.5,4.8.9,7.2-.3,1.5-1.5,2.7-2.2,4.1-1,1.9-1.1,4.3-.4,6.4s1.6,6.8,3.1,8.4c4,4.5,10.4,8.4,16.3,9.7s12,1.4,18,1c4.9-.3,10.6,0,14.7-6.9,2.1-3.5,3.2-8.2,4.3-12.1,1-3.4,1.8-7,.8-10.4-.6-2-1.8-3.7-2.4-5.7-.7-2.5-.5-5.1-.8-7.7-.6-5.5-4.1-10.7-8.9-13.4-4.9-2.7-11-2.9-16.1-.5"/>
                </g>
                <g>
                  <path class="cls-3" d="M184.9,148.6c-.5-7.1-5.2-15.7-12.2-15l-22,5.6c-2.1.2-3.8,2.1-3.7,4.2l2.5,53h-.1s5,15,19.5,10.4c2.9-.9,4.2-4.1,4.8-7.3h.1v-1.1c.5-3.7,0-7.3,0-7.3h0v-6s9-1.5,10.9-13.3c.9-5.9.6-15.5,0-23.3h.2Z"/>
                  <g>
                    <g>
                      <g>
                        <g>
                          <path class="cls-4" d="M183.8,155.6c0,.8-.6,1.5-1.4,1.5s-1.5-.6-1.6-1.4.6-1.5,1.4-1.5,1.5.6,1.6,1.4Z"/>
                          <path class="cls-4" d="M182.8,153.6c-.2.2-1.3-.6-3-.6s-2.8.8-3,.6c0,0,.1-.4.6-.8.5-.4,1.4-.8,2.4-.7,1,0,1.9.4,2.4.8.5.4.7.7.6.8h0Z"/>
                        </g>
                        <g>
                          <path class="cls-4" d="M167.3,156.2c0,.8-.6,1.5-1.4,1.5s-1.5-.6-1.6-1.4.6-1.5,1.4-1.5,1.5.6,1.6,1.4Z"/>
                          <path class="cls-4" d="M166.9,153.9c-.2.2-1.3-.6-3-.6s-2.8.8-3,.6c0,0,.1-.4.6-.8.5-.4,1.4-.8,2.4-.7,1,0,1.9.4,2.4.8.5.4.7.7.6.8h0Z"/>
                        </g>
                        <path class="cls-4" d="M172.8,165.9s1-.3,2.6-.5c.4,0,.8-.1.9-.4.1-.3,0-.8-.3-1.2-.4-1-.8-2.1-1.2-3.2-1.7-4.5-3-8.2-2.8-8.3.2,0,1.7,3.5,3.4,8,.4,1.1.8,2.2,1.2,3.2s.4,1,.2,1.6c-.1.3-.4.5-.7.6-.3,0-.5,0-.7.1-1.6,0-2.7.1-2.7,0h.1Z"/>
                        <path class="cls-5" d="M173.9,185.2s-7.9.5-15.8-4.2c0,0,3.9,8.1,15.6,7v-2.8h.2Z"/>
                        <path class="cls-5" d="M172.1,169.9c-.6-.8-1.6-1.2-2.6-1.1-.7,0-1.4.4-1.8,1-.4.6-.5,1.4-.1,1.9.4.6,1.4.8,2.1.5.8-.2,1.4-.7,2.1-1.2.2-.1.4-.3.5-.5s.1-.4,0-.6"/>
                        <path class="cls-4" d="M168,167.1c.3,0,.3,1.8,1.8,3s3.4,1.1,3.4,1.3-.4.3-1.2.4c-.8,0-1.9-.2-2.8-1-.9-.8-1.3-1.8-1.4-2.5,0-.7.1-1.2.2-1.2h0Z"/>
                      </g>
                      <path class="cls-4" d="M167.6,151.1c-.2.4-1.8.2-3.7.5-1.9.2-3.4.8-3.7.4-.1-.2.1-.6.8-1,.6-.4,1.6-.8,2.7-1s2.2,0,2.9.3,1.1.6,1,.8h0Z"/>
                      <path class="cls-4" d="M182.2,148.9c-.3.4-1.4,0-2.8,0s-2.5.2-2.8-.1c-.1-.2,0-.6.6-.9.5-.4,1.3-.6,2.2-.6s1.7.4,2.2.7c.5.4.6.8.5.9h.1Z"/>
                    </g>
                    <path class="cls-4" d="M142.5,178c3.2.6,6.8-.3,9.2-2.6s3.7-5.7,3.3-9c-.4-2.9-1.9-5.8-.9-8.6,1.3-3.6,6.4-4.7,7.8-8.4.8-2.1,0-4.6,1-6.6.8-1.9,2.9-3.1,4.9-3.8s4.1-1.2,5.8-2.5,2.7-3.7,1.6-5.6c-8.8,1.1-17.4,3.2-25.7,6.3-1.9.7-3.9,1.6-5.1,3.3-1.2,1.8-1.1,4.1-1,6.3.5,10.6,1,21.2,1.5,31.7"/>
                  </g>
                  <path class="cls-13" d="M143.2,182h-.2c-.1-.2-.3-.3-.5-.5-.5-.4-1.1-.9-1.9-1.6-.8-.7-1.8-1.7-2.8-2.9-.9-1.2-1.9-2.9-2.2-4.9-.4-1.9,0-4.4,1.5-6.2.8-.9,1.8-1.6,2.7-2.3.9-.8,1.7-1.7,2.1-2.9.9-2.4.5-5.2.8-8,.4-2.8,1.4-5.8,3.3-8.1,1-1.2,2.1-2.2,3.5-2.9,1.3-.7,2.8-1,4.1-1.4,1.4-.4,2.6-.9,3.6-1.8,1-.8,1.9-1.9,2.6-2.9,1.5-2.1,2.6-4.3,4-6.2.7-.9,1.5-1.8,2.3-2.5s1.8-1.2,2.8-1.5c1.9-.7,3.9-.4,5.2.5,1.3,1,1.8,2.4,1.9,3.5,0,1.1-.3,2-.7,2.4l-.5.5c-.1,0-.2.1-.2.1v-.2c.2,0,.4-.2.5-.5.3-.4.7-1.3.6-2.4-.1-1.1-.6-2.4-1.8-3.3s-3.1-1.1-4.9-.4c-.9.3-1.8.8-2.6,1.5s-1.6,1.5-2.2,2.4c-1.4,1.8-2.4,4.1-3.9,6.2-.8,1.1-1.6,2.1-2.7,3-1.1.9-2.4,1.5-3.8,1.9-1.4.4-2.8.7-4,1.4-1.3.6-2.4,1.6-3.3,2.7-1.9,2.3-2.9,5.1-3.2,7.9-.3,2.8,0,5.6-.9,8.1-.4,1.3-1.3,2.3-2.3,3.1s-2,1.4-2.7,2.3c-1.5,1.7-1.8,4-1.5,5.9s1.2,3.5,2.1,4.7c.9,1.2,1.9,2.2,2.7,2.9.8.8,1.4,1.3,1.9,1.7.4.4.7.6.6.6h0Z"/>
                </g>
              </g>
              <g>
                <polygon class="cls-2" points="216.2 264 233.6 230.9 225.1 221.8 203.2 242.9 209.3 259.8 216.2 264"/>
                <path class="cls-2" d="M176.4,200.6h0c7.2,2.6,13.1,8,16.4,15l22.4,47.6,19.3,7.8-17,4.9-15.1-11.1-26-64.2h0Z"/>
                <path class="cls-8" d="M217.5,275.8l-8.1,6.3-40.5-41.7-23.2-41.8,2.7-7.8,17.9,7.5,5.2,6.5,2.7-9.1,1.1,1.6,1.9,5.1s17.6,14.6,21.4,26.2c3.2,9.7,2.2,29.7,4.1,35.1l14.9,12.1h0Z"/>
                <path class="cls-2" d="M141.3,198c-.3.8-17.3,7.7-18.1,13.6s12.2,52.1,12.2,52.1l20.7,18.3h53.2l-16.9-31.6c-3.6-6.8-8.2-13.1-13.6-18.6-5-5.1-11-11.3-14.1-15.1-3.4-4.1-17.7-22.9-17.7-22.9l-5.7,4.1h0Z"/>
                <path class="cls-4" d="M152,199.9s1.2.5,3,1.4,4.3,2.2,7.1,3.6c1.1.6,2.1,1.1,3.1,1.6l-.4.2c-.1-2.3,0-4.2.3-5.6s.5-2.1.6-2.1c0,0-.1.8-.3,2.2s-.3,3.3-.1,5.5v.4l-.4-.2c-1-.5-2-1.1-3.1-1.6-2.8-1.4-5.2-2.8-7-3.7s-2.9-1.6-2.8-1.7h0Z"/>
                <path class="cls-4" d="M176.6,202.4s-.3.7-1,1.6l-.2.3v-.4c-.4-1.1-.9-2.7-1.3-4.5,0-.1,0-.3-.1-.4h.5c-1.6,3.1-2.6,5.6-2.7,5.6s.6-2.7,2.2-5.7l.3-.6.2.7c0,.1,0,.3.1.4.4,1.8.8,3.4,1.1,4.5h-.3c.8-1,1.3-1.5,1.3-1.5h-.1Z"/>
                <path class="cls-4" d="M193,242s-.3-.5-.9-1.4c-.6-1-1.3-2.2-2.2-3.8-1.8-3.2-4.4-7.6-7.2-12.4-2.9-4.8-5.5-9.1-7.5-12.2-.9-1.5-1.7-2.8-2.3-3.7-.5-.9-.8-1.4-.8-1.4,0,0,.4.4.9,1.3.6.8,1.4,2.1,2.4,3.6,2,3.1,4.7,7.4,7.6,12.2,2.9,4.8,5.4,9.2,7.1,12.5.9,1.6,1.6,2.9,2,3.9.5.9.7,1.4.7,1.4h.2Z"/>
                <g class="cls-12">
                  <path d="M184.8,274.2c3.1.5,6.3,1,9.3.5s6.1-2.5,7.1-5.5c.3-.9.4-2,1.1-2.7,1.2-1.1,3.1-.4,4.7-.6,1.8-.2,3.3-1.5,4.3-3s1.4-3.3,1.8-5.1c.2-.9.4-1.8.3-2.6s-.6-1.8-1.4-2.1c-1.2-.6-2.6.2-3.7,1-8.8,6.3-16.8,13.6-24.7,20.9"/>
                </g>
              </g>
              <g>
                <g>
                  <path class="cls-13" d="M322.4,337.8l15.5,19.4s24.9-9.2,28.1-5.9l-36.5,31.3-25.3-29.2,18.3-15.6h-.1Z"/>
                  <g class="cls-10">
                    <path class="cls-7" d="M325.2,365.3c-.5.8-.4,2,.4,2.6s2,.4,2.6-.4.4-2.2-.5-2.7-2.3-.2-2.6.7"/>
                  </g>
                  <g class="cls-10">
                    <path class="cls-7" d="M329.5,382.6l-2.4-3,35.9-28.9s2.2-.7,3,.6l-36.5,31.3Z"/>
                  </g>
                  <path class="cls-4" d="M338.3,356.5c.1.2-.7,1-1.1,2.4-.4,1.3-.2,2.5-.4,2.5-.2.1-.8-1.2-.4-2.8.5-1.6,1.7-2.3,1.8-2.1h.1Z"/>
                  <path class="cls-4" d="M343.5,354.8c.2.1-.3,1.1-.3,2.4s.5,2.2.4,2.4c-.1.2-1.2-.8-1.2-2.4s1-2.6,1.1-2.4h0Z"/>
                  <path class="cls-4" d="M349.6,357.5c-.1.2-1.1-.5-1.5-1.9s.1-2.5.3-2.4c.2,0,.1,1,.5,2.2.3,1.1.9,1.9.7,2.1h0Z"/>
                  <path class="cls-4" d="M334.3,352.4c0,.2-1,.7-1.9,1.6-1,.9-1.5,1.9-1.7,1.9s0-1.4,1.1-2.4c1.1-1.1,2.5-1.2,2.5-1h0Z"/>
                </g>
                <g class="cls-12">
                  <polygon points="325.5 341.6 328.2 345.1 310.2 360.3 307.6 357.3 325.5 341.6"/>
                </g>
                <path class="cls-4" d="M331.1,348.6s-.5.8-1.8,1.6c-.6.4-1.5.8-2.4,1-.5.1-1,.3-1.5.3s-.5.1-.9,0c-.4,0-.9-.4-.9-.9s.2-.9.4-1.1c.3-.2.5-.4.8-.5.5-.2,1-.4,1.5-.6,1-.3,1.9-.4,2.6-.3,1.5,0,2.4.5,2.4.6s-.9,0-2.3,0-1.5.2-2.4.5c-.4.1-.9.3-1.3.6-.5.2-.8.5-.8.8s0,.1.2.2h.7c.5,0,1-.2,1.4-.3.9-.2,1.7-.5,2.4-.8,1.3-.6,2-1.1,2.1-1h-.2Z"/>
                <path class="cls-4" d="M331.1,349s-.9-.2-2-1.4c-.5-.5-1.1-1.3-1.5-2.2-.2-.5-.4-1-.5-1.5s-.2-1.2.4-1.9c.4-.3.9-.3,1.2-.1.3.1.5.3.8.5.4.4.8.8,1.1,1.2.5.9.8,1.8.8,2.6.1,1.6-.5,2.4-.5,2.4-.1,0,.2-.9,0-2.3-.1-.7-.4-1.5-.9-2.2-.2-.4-.6-.7-.9-1-.4-.3-.8-.5-.9-.4-.2.1-.2.7-.1,1.1,0,.5.2,1,.4,1.4.3.9.8,1.6,1.2,2.1.9,1.1,1.6,1.6,1.6,1.7h-.2Z"/>
              </g>
              <g>
                <g>
                  <path class="cls-13" d="M305.5,393.1l-.9,24.8s24.9,9.3,25.1,13.9h-48.1c0-.1-.1-38.7-.1-38.7h24Z"/>
                  <g class="cls-10">
                    <path class="cls-7" d="M289.7,415.8c-.9.2-1.6,1.3-1.4,2.2.2.9,1.3,1.6,2.2,1.4.9-.2,1.8-1.5,1.4-2.4s-1.6-1.6-2.5-1.2"/>
                  </g>
                  <g class="cls-10">
                    <path class="cls-7" d="M281.6,431.7v-3.9c.1,0,46.2,1.5,46.2,1.5,0,0,2.1.9,1.9,2.4h-48.1s0,0,0,0Z"/>
                  </g>
                  <path class="cls-4" d="M305.4,417.6c0,.2-1.2.3-2.3,1.1-1.2.7-1.8,1.7-2,1.6-.2,0,.1-1.5,1.5-2.3,1.4-.9,2.8-.6,2.8-.4h0Z"/>
                  <path class="cls-4" d="M310.4,419.7c0,.2-1,.6-1.8,1.6s-1,2-1.3,2-.4-1.3.6-2.5,2.4-1.3,2.4-1.1h0Z"/>
                  <path class="cls-4" d="M313.2,425.8c-.2,0-.5-1.1,0-2.4.6-1.3,1.7-1.8,1.8-1.6.1.2-.6.9-1.1,1.9s-.6,2-.8,2.1h.1Z"/>
                  <path class="cls-4" d="M305,412c-.1.2-1.2-.1-2.5,0-1.3,0-2.4.5-2.5.3s.9-1,2.4-1.1c1.6,0,2.7.7,2.5.8h.1Z"/>
                </g>
                <g class="cls-12">
                  <polygon points="305.3 398 305.2 402.5 281.5 402.2 281.5 398.2 305.3 398"/>
                </g>
                <path class="cls-4" d="M305,407c0,.1-.9.2-2.4,0-.7-.1-1.6-.4-2.5-.8-.5-.2-.9-.5-1.4-.7-.2-.1-.5-.3-.7-.6-.3-.2-.4-.9-.1-1.2.2-.4.7-.5,1-.5s.6,0,.9.1c.5.1,1,.3,1.5.5.9.4,1.7,1,2.2,1.5,1.1,1,1.5,1.9,1.4,2-.1,0-.6-.7-1.8-1.5-.6-.4-1.3-.9-2.1-1.2-.4-.2-.9-.3-1.4-.4s-.9-.1-1.1,0v.3c.1.1.3.3.5.4.4.3.9.5,1.3.7.8.4,1.6.7,2.3.9,1.4.4,2.3.5,2.3.6h.1Z"/>
                <path class="cls-4" d="M304.7,407.3s-.5-.8-.6-2.3c0-.8,0-1.7.3-2.6.1-.5.4-1,.6-1.5.3-.5.6-1.1,1.5-1.2.5,0,.9.4,1,.7.2.3.2.6.2.9v1.6c-.1,1-.6,1.9-1,2.5-.9,1.2-1.9,1.5-1.9,1.4s.7-.6,1.5-1.8c.4-.6.7-1.4.8-2.3v-1.4c0-.5-.3-.9-.5-.9s-.6.4-.8.8c-.2.4-.4.9-.6,1.3-.3.9-.4,1.7-.5,2.4,0,1.4.2,2.3,0,2.3h0Z"/>
              </g>
              <g>
                <path class="cls-7" d="M226.8,248.4l25.7-59.4s-14.9,18.7-22.7,18.5c0,0-8.6,19-14.2,34.1l-8.5,21.8,19.6-15.1h0Z"/>
                <path class="cls-4" d="M226.8,248.4l-.3.3c-.2.2-.6.4-1,.8-.9.7-2.2,1.7-3.9,3-3.4,2.6-8.3,6.4-14.4,11.1l-.5.4.2-.6c2.8-7.2,6-15.7,9.7-25.2,3.6-9.5,8-19.9,12.9-30.7h0c0-.1.2-.1.2-.1,1.4,0,3-.6,4.4-1.3,3.8-2.1,7-5.1,10-8,3-3,5.7-6,8.2-9l1.1-1.4-.7,1.7c-7.5,17.2-13.9,32-18.5,42.6-2.3,5.2-4.1,9.4-5.4,12.3-.6,1.4-1.1,2.5-1.5,3.3-.2.4-.3.6-.4.8,0,.2-.1.3-.1.3,0,0,0-.1.1-.3,0-.2.2-.5.4-.9.3-.8.8-1.9,1.4-3.3,1.2-2.9,3-7.1,5.3-12.4,4.6-10.6,10.9-25.4,18.3-42.6l.4.3c-2.5,3.1-5.2,6.1-8.2,9.1-3,2.9-6.2,5.9-10.1,8.1-1.4.8-3,1.4-4.6,1.4h.2c-4.9,10.7-9.2,21-12.9,30.5-3.6,9.5-7,18-9.8,25.2l-.3-.2c6.1-4.6,11-8.4,14.4-10.9,1.7-1.3,3-2.3,3.9-2.9.4-.3.8-.6,1-.8s.4-.2.4-.2h0v-.4h.1Z"/>
              </g>
              <polygon class="cls-4" points="124.8 381.3 132.5 431.8 140.2 431.8 136.4 381.5 124.8 381.3"/>
              <polygon class="cls-4" points="260.6 381.5 260.6 431.8 268.7 431.8 271.7 381.3 260.6 381.5"/>
              <g>
                <path class="cls-3" d="M205.2,237.8s3.3-7.5,5-8.5,12.4-5.9,12.4-5.9l-1.1,2.4,10.6-6.3s.8,2.2-.8,4.4c-1.6,2.3-1.1,2.1-1.1,2.1,0,0,1.8,1.1.9,2.7-.9,1.6-2.4,3.6-2.4,3.6,0,0,1.6,2,1,3.9,0,0,.6,1.6.2,3.9-.4,2.3-4.5,6.6-4.5,6.6l-20.6,9.8-8.3-14.1,8.7-4.5h0Z"/>
                <path class="cls-2" d="M159.9,225.8l12.3,26.3,27.4-11.9s11.4,6.6,9.8,13.9l-24.6,20.2c-4.7,3.8-10.7,5.6-16.7,4.9h0c-6.4-.8-12.2-4.4-15.8-9.8l-17.8-27.1-10-16.3c-3.2-5.2-3.2-11.9.4-16.9,1-1.4,2.2-2.5,3.5-3.3,4.4-2.7,17.7-3.9,31.5,20h0Z"/>
                <path class="cls-5" d="M209.9,254.1l.3-.2c.2-.1.5-.2.8-.4.8-.4,1.8-.9,3.1-1.6,2.7-1.4,6.6-3.3,11.3-5.6h0c1.2-1.3,2.4-2.7,3.5-4.4.5-.9,1-1.7,1-2.8s0-2.1-.3-3.1h0v-.2c.4-1.1-.1-2.6-.9-3.7v-.2c-.1,0,0-.1,0-.1.7-.9,1.4-1.9,2.1-3,.3-.5.6-1,.5-1.6-.1-.5-.5-1-1-1.3h.2s-.3,0-.4-.1v-.4c0-.1.1-.2.2-.3.1-.2.2-.4.4-.6.3-.4.6-.8.8-1.2.5-.8.8-1.7.8-2.6s0-.9-.2-1.2h.4c-3.7,2.3-7.2,4.4-10.6,6.4l-.7.4.3-.7c.4-.8.7-1.6,1.1-2.4l.3.3c-4.5,2.1-8.8,4-12.3,5.8-.8.5-1.3,1.4-1.8,2.1-.5.8-.9,1.6-1.3,2.3-.8,1.5-1.4,2.9-2,4.1h0c-1.9,1-3.4,1.7-4.5,2.3-.5.2-.9.4-1.2.6-.3.1-.4.2-.4.2,0,0,.1,0,.4-.2.3-.2.7-.4,1.1-.6,1.1-.6,2.5-1.4,4.4-2.4h0c.5-1.1,1.2-2.5,1.9-4,.4-.8.8-1.5,1.3-2.3.2-.4.5-.8.8-1.2s.6-.8,1.1-1.1c3.6-1.9,7.7-3.8,12.3-5.9l.6-.3-.3.6c-.4.8-.7,1.6-1.1,2.4l-.4-.3c3.4-2,6.9-4.1,10.6-6.3l.3-.2v.3c.3.5.3.9.3,1.4,0,1.1-.3,2.1-.9,2.9-.3.4-.6.8-.8,1.2-.1.2-.2.4-.4.6,0,.1-.1.2-.1.3h0c0,0,0,.1-.1.1h0c0,.1,0-.2,0-.2h.2c.6.4,1.1,1,1.2,1.7,0,.4,0,.7-.1,1.1-.1.3-.3.6-.5.9-.7,1.1-1.4,2.1-2.1,3v-.3c.5.6.8,1.3,1,2s.2,1.5,0,2.2v-.2c.4,1.1.4,2.2.3,3.3,0,.5-.1,1.1-.4,1.6-.2.5-.5.9-.7,1.4-1.1,1.7-2.4,3.2-3.6,4.5h0c-4.7,2.3-8.6,4.1-11.4,5.4-1.3.6-2.4,1.1-3.1,1.5-.3.1-.6.3-.8.4-.2,0-.3.1-.3.1h0l-.2-.2h0Z"/>
                <path class="cls-5" d="M222.2,225.3c0,.1-1.9,1.4-4.3,3-2.4,1.5-4.5,2.6-4.6,2.5,0-.1,1.9-1.4,4.3-3,2.4-1.5,4.5-2.6,4.6-2.5Z"/>
                <path class="cls-5" d="M230.5,225.1c.1.1-1.6,2-3.8,4.1s-4.1,3.9-4.2,3.8,1.6-2,3.8-4.1c2.2-2.2,4.1-3.9,4.2-3.8h0Z"/>
                <path class="cls-5" d="M229.4,231.4c.1,0-.7,1.2-1.8,2.5s-2.1,2.3-2.2,2.2c-.1,0,.7-1.2,1.8-2.5s2.1-2.3,2.2-2.2Z"/>
                <path class="cls-5" d="M229.7,235.7c.1.1-.3.8-.9,1.6s-1.1,1.5-1.2,1.4.2-.9.8-1.7c.6-.9,1.2-1.4,1.4-1.3h-.1Z"/>
                <path class="cls-4" d="M180.5,277h.1c.1-.1.2-.3.4-.4.4-.3.9-.7,1.6-1.2,1.4-1.1,3.4-2.7,5.9-4.7,5.1-4,12.4-9.7,21.1-16.5v.2c0-1.3-.3-2.7-.9-4-.6-1.3-1.3-2.5-2.3-3.7-1.9-2.3-4.3-4.3-7-6h.2c-4.5,2-9.3,4.1-14.2,6.2-4.5,2-8.9,3.9-13.2,5.7h-.2c0,.1-.1-.1-.1-.1-3.6-7.1-7-13.9-10.4-19.7-1.7-2.9-3.4-5.6-4.9-8.2-1.6-2.5-3-4.9-4.5-6.9-2.9-4.1-6.1-6.6-8.5-7.9-.6-.4-1.1-.6-1.6-.9-.5-.2-.9-.4-1.2-.6-.3-.1-.6-.2-.8-.3-.2,0-.2-.1-.2-.1,0,0,1.5.4,3.9,1.7,1.2.6,2.7,1.6,4.2,2.9,1.5,1.3,3,3,4.5,5s3,4.4,4.6,6.9,3.3,5.2,5,8.1c3.4,5.8,6.8,12.6,10.4,19.7h-.3c4.2-2,8.7-3.9,13.2-5.9,4.9-2.1,9.6-4.2,14.2-6.1h.2c2.8,1.7,5.2,3.8,7.1,6.1.9,1.2,1.8,2.5,2.3,3.8.6,1.4.8,2.8.8,4.2h0v.2c-8.7,6.8-16.1,12.4-21.2,16.4-2.6,2-4.6,3.5-6,4.6-.7.5-1.2.9-1.6,1.2-.2.1-.3.2-.4.3,0,0-.1.1-.1,0h-.1Z"/>
                <path class="cls-4" d="M170.6,260.4c-.1,0,.6-1.9,1-4.4.4-2.4.4-4.5.6-4.5s.4,2.1,0,4.6-1.4,4.4-1.6,4.3h0Z"/>
              </g>
              <g>
                <polygon class="cls-2" points="282.4 282.1 327.5 342 306.4 360.2 284.7 331.8 282.4 282.1"/>
                <path class="cls-2" d="M186.9,285s72.6-22.1,79.2-21.8c6.6.3,19.3,24.3,19.3,24.3l-20.4-.7-25.8,39.3-41.7-1.9-10.7-39.1h.1Z"/>
                <path class="cls-4" d="M246.2,267.5c0,.1-7.4,2.5-16.7,5.2-9.2,2.8-16.8,4.9-16.8,4.7s7.4-2.5,16.7-5.2c9.2-2.8,16.8-4.9,16.8-4.7h0Z"/>
                <path class="cls-2" d="M263.1,286.3h20.4c10.2,0,19.2,6.4,22.6,16h0c1.6,4.5,2.3,9.3,2.1,14.1l-1.6,82.9h-27.4l-.5-26.5-3.5-50.4-23.8,1-13.5-.8,25.2-36.3h0Z"/>
                <path class="cls-4" d="M263.7,285.9s-.1.6-.4,1.8c-.2,1.1-.8,2.7-1.4,4.7-.8,1.9-1.7,4.2-3,6.6s-3,4.9-5,7.4c-4,4.9-8.1,8.8-11.1,11.7-1.4,1.4-2.6,2.5-3.5,3.4-.8.8-1.3,1.2-1.3,1.2,0,0,.4-.5,1.2-1.3s2-2,3.4-3.5c2.9-3,7-6.9,10.9-11.8s6.6-10,8.1-13.8c.7-1.9,1.3-3.5,1.6-4.6.3-1.1.5-1.7.6-1.7h-.1Z"/>
                <path class="cls-4" d="M288.6,286.8s-1.4,0-3.7-.2-5.4-.2-8.9-.1c-3.5,0-6.6.3-8.9.4s-3.7.3-3.7.2.3-.1,1-.2c.6-.1,1.5-.2,2.7-.4,2.3-.2,5.4-.5,9-.6,3.5,0,6.7,0,9,.3,1.1.1,2.1.2,2.7.3.6.1,1,.2,1,.2h-.2Z"/>
                <path class="cls-4" d="M279,384.1v-.7c0-.5,0-1.2-.1-2,0-1.8-.2-4.3-.3-7.3-.3-6.2-.6-14.7-1.2-24.1s-1.3-17.9-1.8-24c-.2-3-.5-5.5-.6-7.3,0-.8-.1-1.5-.1-2v-.7s0,.2.1.7c0,.5.1,1.2.2,2,.2,1.8.4,4.2.8,7.3.6,6.1,1.4,14.6,2,24s.9,17.9,1.1,24.1c0,3,.1,5.5.2,7.3v2.7h-.3Z"/>
                <path class="cls-4" d="M308.2,313.2c.1,0,0,19-.2,42.4-.3,23.4-.6,42.4-.7,42.4s0-19,.2-42.4c.3-23.4.6-42.4.7-42.4h0Z"/>
                <path class="cls-4" d="M285.8,310.1c0,.2-2.8.9-5.9,2.8s-5,4.1-5.1,4c0,0,.4-.6,1.2-1.5.8-.9,2.1-1.9,3.6-2.9,1.6-1,3.1-1.6,4.2-1.9,1.1-.4,1.9-.5,1.9-.4h0Z"/>
                <g class="cls-12">
                  <path d="M237.9,322.6c5.5,1,11.6-.7,16.4-3.7s8.3-8,9.6-13.4c.6-2.5.8-5,1.4-7.5s1.7-4.9,3.7-6.5c2.3-1.8,8-2.9,9.7-5.3,0-.4-6.8.5-9,.6-2.5.1-6.6.8-6.5.5,0,0-1.7,6-2.4,7.3-4.9,8.7-15.8,21.6-22.8,28"/>
                </g>
              </g>
              <g>
                <path class="cls-13" d="M123.4,225.3s-10.8.4-14.1,5c-5.8,8-2.6,14.9-2.9,17.3s18.4,133.7,18.4,133.7h7.7l139.2,1.3,6.7-16.2-3.2-43.9-37.2.2s-15.2-43.7-28.6-46.7c-9-2-30.2-1.3-43-.6-6.4.3-12.4-2.8-15.9-8.1l-27.1-41.9h0Z"/>
                <path class="cls-4" d="M246.8,376.1s-.8.1-2.2.2c-1.5,0-3.7.1-6.5.1-5.6,0-13.8.1-24,0-20.4,0-48.9-.2-81-.5h-.2v-.2c-.6-2.8-1.2-5.6-1.8-8.5s-1.2-5.8-1.8-8.8c-7-35.6-11.1-68.3-13.3-91.9-1.1-11.8-1.8-21.4-2.2-28.1-.2-3.3-.3-5.9-.4-7.6v-2.7.7c0,.5,0,1.1.2,2,0,1.8.3,4.3.5,7.6.5,6.6,1.2,16.2,2.3,28,2.3,23.6,6.4,56.3,13.4,91.9.6,3,1.2,5.9,1.8,8.8s1.2,5.7,1.8,8.5l-.2-.2c32.1.2,60.6.5,81,.6h32.8-.2Z"/>
                <path class="cls-4" d="M245.3,382.3v-.6c0-.5.2-1,.3-1.8s.3-1.7.4-2.8c.1-1.1.3-2.3.4-3.7.1-1.4.3-2.9.3-4.5.1-1.6.1-3.4.1-5.2,0-3.7-.2-7.7-.7-11.9-.5-4.2-1.2-8.2-2.1-11.8-.8-3.6-1.8-6.8-2.6-9.4-.4-1.3-.9-2.5-1.2-3.5-.4-1-.7-1.9-1-2.7-.2-.7-.5-1.2-.6-1.7-.1-.4-.2-.6-.2-.6l.3.6c.2.4.4,1,.7,1.6.3.7.7,1.6,1.1,2.6s.9,2.2,1.3,3.5c.9,2.6,1.9,5.8,2.7,9.4s1.6,7.6,2.1,11.8c.5,4.2.7,8.3.7,12s0,3.6-.2,5.2c0,1.6-.2,3.2-.4,4.5-.1,1.4-.3,2.6-.5,3.7-.1,1.1-.3,2-.5,2.8-.1.7-.3,1.3-.4,1.8,0,.4-.1.6-.2.6h.2,0Z"/>
                <path class="cls-4" d="M143.3,288.2s.2-.2.6-.5c.4-.3,1-.8,1.7-1.3.4-.3.8-.6,1.2-.9.5-.3,1-.6,1.6-1,1.1-.7,2.4-1.5,3.9-2.2.7-.4,1.5-.7,2.3-1.1s1.7-.7,2.6-1.1c.9-.3,1.8-.8,2.8-1.1s2-.6,3-1c4.2-1.2,8.8-2.3,13.8-2.9s9.8-.9,14.1-.9,4.2.1,6.2.2c1.9.2,3.7.3,5.3.5,3.3.4,5.9,1,7.6,1.4.8.2,1.5.4,2,.6.5.1.7.2.7.2,0,0-.3,0-.7-.1-.5-.1-1.2-.3-2.1-.5-1.8-.4-4.4-.9-7.6-1.2-1.6-.2-3.4-.3-5.3-.5-1.9,0-4-.2-6.1-.2-4.3,0-9.1.3-14,.9s-9.6,1.6-13.8,2.8c-1,.3-2,.6-3,.9s-1.9.7-2.8,1c-.9.4-1.8.6-2.6,1s-1.6.7-2.3,1.1c-1.5.6-2.8,1.5-3.9,2.1-.6.3-1.1.6-1.6.9-.4.3-.9.6-1.2.9-.7.5-1.3.9-1.7,1.2-.4.3-.6.4-.6.4h0v.4h0Z"/>
              </g>
            </g>
          </g>
          <g id="Speech_Bubble">
            <g>
              <g>
                <path class="cls-4" d="M412.9,120.6c0,1.7,1.4,3.1,3.1,3.1s3.1-1.4,3.1-3.1-1.4-3.1-3.1-3.1-3.1,1.4-3.1,3.1Z"/>
                <circle class="cls-4" cx="403.6" cy="120.6" r="3.1"/>
                <path class="cls-4" d="M388,119.1c-.9,1.5-.4,3.4,1.1,4.2,1.5.9,3.4.3,4.2-1.1s.4-3.4-1.1-4.2c-1.5-.9-3.4-.3-4.2,1.1Z"/>
              </g>
              <path class="cls-4" d="M403.4,84.3h-3.9c-.5,0-1,.2-1.6.2s-1.2.2-1.9.3c-.7.2-1.4.3-2.1.5-3,.8-6.6,2.1-10.3,4.5-3.7,2.4-7.5,5.8-10.7,10.4-3.1,4.6-5.4,10.4-6,17,0,1.6-.3,3.3-.1,5,0,.8,0,1.7.2,2.6.1.8.3,1.7.4,2.6.7,3.4,1.7,6.9,3.5,10.1,1.7,3.3,3.9,6.4,6.6,9.1,2.8,2.7,6,5.1,9.5,6.9,3.6,1.8,7.5,3.1,11.6,3.6,1,.2,2.1.2,3.1.3,1,0,2.1.1,3.1,0,2.1,0,4.2-.4,6.3-.8,4.5-1,8.8-2.8,12.5-5.3h-.4c4.3,1.8,8.6,3.5,12.7,5.1l.8.3-.2-.8c-1.3-4.7-2.5-9.2-3.8-13.6v.3c3.5-4.8,5.8-10.2,6.7-15.6.5-2.7.7-5.4.5-8,0-1.3-.1-2.6-.4-3.8-.1-.6-.2-1.2-.3-1.9-.1-.6-.3-1.2-.5-1.8-2.5-9.6-8.4-16.7-14.2-20.7-2.9-2.1-5.8-3.5-8.5-4.5-.7-.2-1.3-.5-1.9-.7s-1.2-.3-1.8-.5c-.6,0-1.1-.3-1.7-.4-.5,0-1-.2-1.5-.2-1,0-1.8-.3-2.5-.3h-3.4,3.4c.7,0,1.6.2,2.5.4,3.8.7,9.4,2.2,15.1,6.4,5.7,4.1,11.5,11.1,13.9,20.5.1.6.3,1.2.4,1.8l.3,1.8c.2,1.2.3,2.5.3,3.8.2,2.6,0,5.2-.5,7.8-.9,5.3-3.2,10.6-6.7,15.2h-.1v.3c1.2,4.4,2.4,8.9,3.7,13.6l.5-.5c-4.1-1.7-8.4-3.4-12.7-5.1h-.4c-3.7,2.4-7.8,4.2-12.2,5.1-2,.4-4.1.7-6.1.8h-3.1c-1,0-2,0-3-.3-4-.5-7.9-1.7-11.4-3.5s-6.6-4.1-9.4-6.7c-2.6-2.7-4.8-5.7-6.5-8.9s-2.7-6.6-3.4-9.9c-.1-.8-.3-1.7-.4-2.5s-.1-1.7-.2-2.5c-.2-1.7,0-3.3,0-4.9.6-6.4,2.9-12.1,5.9-16.7s6.8-7.9,10.4-10.3,7.2-3.8,10.1-4.6c.7-.2,1.4-.4,2.1-.6.7,0,1.3-.2,1.9-.3.6,0,1.1-.2,1.6-.3h3.8l.4.2h0Z"/>
            </g>
          </g>
          <g id="Plants">
            <g>
              <g>
                <rect class="cls-4" x="31" y="368.9" width="67.2" height="9.2"/>
                <path class="cls-4" d="M98.3,378.2H30.9v-9.5h67.4v9.5ZM31.1,378h67v-9H31.1v9Z"/>
              </g>
              <polygon class="cls-4" points="37.2 375 46.9 422.7 82.7 422.7 92 378.1 37.2 375"/>
              <polygon class="cls-13" points="37.2 418.2 42.4 425.3 85.9 425.3 92 418.2 37.2 418.2"/>
              <path class="cls-4" d="M62.1,376.4s-.3-22.1-.4-49.4v-49.4s.3,22.1.4,49.4v49.4Z"/>
              <path class="cls-4" d="M77.1,321.1s0,.2-.2.5c-.2.4-.4.9-.6,1.4,0,.3-.3.7-.4,1,0,.4-.3.8-.4,1.2-.2.5-.3.9-.5,1.4s-.3,1.1-.5,1.6c-.7,2.3-1.3,5.1-1.9,8.2-.5,3.1-.9,6.6-1,10.3-.3,7.3,0,14,.5,18.8.2,2.4.4,4.3.6,5.7,0,.6,0,1.1.2,1.5v.5-.5c0-.4-.2-.9-.3-1.5-.2-1.3-.5-3.3-.8-5.7-.5-4.8-1-11.5-.7-18.9.2-3.7.6-7.2,1.1-10.3.6-3.1,1.2-6,2-8.2.2-.6.3-1.1.5-1.6s.4-1,.6-1.4.3-.9.5-1.2c.2-.4.3-.7.5-1l.7-1.4c.2-.3.2-.5.3-.5h-.2Z"/>
              <path class="cls-4" d="M75.3,303.2s0,.3-.2.7c-.2.5-.4,1.2-.7,2.1-.2.5-.3.9-.5,1.5-.2.5-.3,1.1-.5,1.8-.4,1.3-.8,2.7-1.2,4.4-.2.8-.4,1.7-.7,2.6-.2.9-.4,1.8-.6,2.8-.5,1.9-.8,4-1.2,6.2-.7,4.4-1.4,9.2-1.8,14.4-.4,5.1-.6,10-.7,14.5,0,4.5,0,8.5.2,11.8,0,1.7.2,3.2.2,4.5s.2,2.5.2,3.4,0,1.6.2,2.2v.8-.8c0-.5-.2-1.3-.2-2.2s-.2-2.1-.3-3.4c0-1.3-.2-2.9-.3-4.5-.2-3.4-.3-7.4-.3-11.9s.2-9.4.6-14.5,1.1-10,1.9-14.4c.4-2.2.8-4.3,1.3-6.2.2-1,.4-1.9.7-2.8.2-.9.5-1.7.7-2.6.4-1.6.9-3.1,1.3-4.4.2-.6.4-1.2.6-1.8.2-.5.4-1,.6-1.5.3-.9.6-1.5.8-2,.2-.5.3-.7.3-.7h-.4Z"/>
              <path class="cls-4" d="M57.8,380.3v-1.1c0-.7,0-1.7-.2-2.9-.2-2.6-.4-6.2-.7-10.8-.6-9.1-1.4-21.6-3-35.5-.8-6.9-1.7-13.5-2.6-19.4-.5-3-1-5.8-1.5-8.4s-1-5.1-1.5-7.3c-.4-2.2-.9-4.2-1.3-6-.4-1.8-.8-3.3-1.1-4.5s-.5-2.2-.7-2.9c0-.3,0-.5-.2-.7v-.3.2c0,.2,0,.4.2.7.2.7.5,1.6.8,2.8.3,1.2.8,2.7,1.2,4.5s.9,3.8,1.4,6,1,4.7,1.5,7.3c.5,2.6,1,5.5,1.5,8.4,1,6,1.9,12.5,2.7,19.4,1.5,13.8,2.3,26.4,2.8,35.5.2,4.5.4,8.2.5,10.8v4h0v.2h.2Z"/>
              <path class="cls-2" d="M61.5,288.3c-.3-3.1-3.5-5.5-6.6-5.5s-6.1,1.9-8,4.3-3,5.5-3.8,8.5c-2.1,7.4-3.3,15.1-2.4,22.8s4,15.1,9.5,20.5c.9.9,2,1.8,3.3,1.5.7-.1,1.2-.6,1.7-1.1,10.7-9.7,16.9-24.2,16.5-38.7,0-2.9-.5-5.9-2.1-8.3s-5.3-5-8.1-4"/>
              <g>
                <path class="cls-2" d="M61.8,277.7c-13.3-7.9-26.6-15.7-39.9-23.6-.4-.2-.9-.5-1-1-.2-.6.3-1.2.7-1.6,5.5-5.7,13.5-8.9,21.4-8.4,7.9.6,15.4,5.1,19.3,12,3.8,6.9,4,16-.4,22.5"/>
                <path class="cls-4" d="M27.6,246.6h2c1.3,0,3.2,0,5.5.4s5,1.1,7.9,2.4c2.8,1.3,5.8,3.1,8.5,5.5s4.8,5.2,6.3,7.9c1.5,2.7,2.6,5.3,3.2,7.6.6,2.3.9,4.2,1,5.5v1.2c0,.4-.3.9-.3.9,0,0,.2-.7,0-2s-.5-3.2-1.1-5.4c-1.3-4.5-4.2-10.5-9.5-15.2-5.3-4.8-11.5-7.1-16.1-7.9-2.3-.4-4.2-.6-5.5-.6h-2v-.3h.1Z"/>
                <path class="cls-4" d="M56.4,261.4s-.8.4-2,.9-3,1.1-5,1.8c-2,.6-3.8,1.1-5.1,1.5-1.3.3-2.2.5-2.2.4,0,0,.8-.3,2.1-.7,1.5-.5,3.2-1,5.1-1.6,1.9-.6,3.6-1.2,5.1-1.6,1.3-.4,2.1-.7,2.1-.6h0Z"/>
                <path class="cls-4" d="M50.1,244.5s.4,2,.5,4.5c0,2.5,0,4.5-.2,4.5s-.2-2-.2-4.5v-4.5h0Z"/>
                <path class="cls-4" d="M21.5,253.7s1.1-.5,2.9-1,4.3-1.3,7.2-1.9c2.8-.7,5.4-1.2,7.3-1.5,1.9-.3,3-.5,3-.4,0,0-1.1.3-3,.7s-4.4,1-7.2,1.7-5.3,1.3-7.2,1.8c-1.8.5-3,.8-3,.7h0Z"/>
              </g>
              <g>
                <path class="cls-2" d="M45,281.5c-3.4-2.6-7.1-3.1-11.4-3-4.3.2-8.5,1.5-12.5,3.2-6.7,3-13.1,7.3-17.1,13.5-4,6.1-5.4,14.3-2.4,21,.3.7.7,1.4,1.4,1.7.7.3,1.5,0,2.2-.2,7.7-2.5,15.4-5,22.4-8.9s13.5-9.4,17.2-16.5c.9-1.7,1.7-3.5,1.8-5.5.2-1.9-.4-4-1.8-5.3"/>
                <path class="cls-4" d="M45,280.7s-.2,0-.5.2c-.4.1-1,.3-1.6.5s-.7.2-1.2.4c-.4.1-.9.3-1.4.5-1,.4-2.1.8-3.3,1.4-.6.3-1.2.6-1.9.9s-1.3.7-2,1c-1.4.7-2.8,1.5-4.3,2.4-2.9,1.9-6,4.1-9.1,6.7-3,2.7-5.6,5.5-7.8,8.1-1.1,1.4-2.1,2.6-3,3.9-.4.6-.9,1.2-1.3,1.8-.4.6-.7,1.2-1.1,1.8-.7,1.1-1.2,2.2-1.8,3.1-.2.5-.5.9-.7,1.3s-.4.8-.5,1.1c-.3.6-.6,1.1-.8,1.5-.2.4-.3.5-.3.5,0,0,0-.2.2-.6s.4-.9.7-1.6c.2-.3.3-.7.5-1.1s.4-.8.7-1.3c.5-.9,1-2,1.7-3.1.3-.6.7-1.2,1.1-1.8.4-.6.8-1.2,1.3-1.9.8-1.3,1.9-2.6,2.9-4,2.2-2.7,4.8-5.5,7.9-8.2,3-2.6,6.2-4.9,9.2-6.7,1.5-.9,2.9-1.7,4.3-2.4.7-.4,1.3-.7,2-1s1.3-.6,1.9-.8c1.2-.6,2.3-.9,3.3-1.3.5-.2,1-.4,1.4-.5s.8-.2,1.2-.4c.7-.2,1.2-.4,1.6-.5.4-.1.6-.1.6-.1v.2h.1Z"/>
                <path class="cls-4" d="M18.2,295.3c0,.1-3.7,1.3-8.4,2.7-4.7,1.4-8.4,2.4-8.5,2.2s3.7-1.3,8.4-2.7c4.6-1.4,8.4-2.4,8.5-2.2Z"/>
                <path class="cls-4" d="M17.8,313.7s-.1-1-.2-2.6v-6.3c0-2.5.2-4.7.3-6.3s.3-2.6.3-2.6v2.6c0,1.8-.1,3.9-.2,6.3,0,2.4-.1,4.5-.2,6.3,0,1.6,0,2.6-.1,2.6h.1Z"/>
                <path class="cls-4" d="M33.6,305.6s-.5-4.5-.9-10.1-.6-10.1-.5-10.1.5,4.5.9,10.1.6,10.1.5,10.1Z"/>
                <path class="cls-4" d="M14,285h2.7c1.7,0,3.9,0,6.4.1,2.5,0,4.8.2,6.4.3,1.6.1,2.7.2,2.7.3s-1,0-2.7,0-3.9,0-6.4-.1c-2.5,0-4.8-.2-6.5-.3-1.6-.1-2.7-.2-2.7-.3h0Z"/>
              </g>
              <path class="cls-4" d="M51.9,340v-7.7c0-2.4.2-5.2.5-8.4.3-3.1.8-6.6,1.4-10.2.7-3.6,1.5-7,2.3-10s1.7-5.8,2.5-8c.8-2.3,1.5-4.1,2-5.3.2-.6.5-1,.6-1.4,0-.3.2-.5.2-.5,0,0,0,.2-.2.5,0,.4-.3.9-.5,1.5-.5,1.2-1.1,3.1-1.9,5.3-.8,2.3-1.6,5-2.4,8-.8,3-1.6,6.4-2.2,10-.6,3.6-1.1,7-1.4,10.1-.3,3.1-.5,6-.6,8.4v7.6h-.3Z"/>
              <path class="cls-4" d="M54,313.8s-.6.7-1.6,1.8-2.5,2.4-4.2,3.9-3.2,2.7-4.4,3.6-1.9,1.4-1.9,1.4c0,0,.6-.7,1.7-1.6,1.2-1.1,2.7-2.3,4.3-3.7,1.6-1.4,3-2.7,4.3-3.8,1.1-1,1.8-1.5,1.8-1.5h0Z"/>
              <path class="cls-4" d="M66.6,324s-.7-.9-1.7-2.4c-1.1-1.6-2.5-3.6-4-5.8-1.5-2.2-2.9-4.1-4-5.7-1-1.5-1.7-2.4-1.6-2.4,0,0,.8.8,1.9,2.2,1.1,1.4,2.6,3.4,4.2,5.6s2.9,4.3,3.8,5.9c.9,1.5,1.5,2.5,1.4,2.5h0Z"/>
              <path class="cls-4" d="M60,292c0,.1-4.1,2.9-9.4,6.3-5.2,3.4-9.6,6-9.6,5.9s4.1-2.9,9.4-6.3,9.6-6,9.6-5.9h0Z"/>
              <path class="cls-4" d="M71.9,304.8s-2.9-2.5-6.3-5.9c-3.4-3.3-6.1-6.1-6-6.2s2.9,2.5,6.4,5.9c3.4,3.3,6.1,6.1,6,6.2h0Z"/>
              <g>
                <path class="cls-2" d="M74.8,304.5l3.6-.3c2.6-.2,5-1,7.3-2.2,1.1-.6,2.2-1.2,3.4-1.7,4.5-1.8,9.4-1.5,14.2-1.7,7.8-.4,15.6-2.4,22.6-5.8.4-.2.8-.5,1-.9.7-1.4-.6-2.5-1.8-3.3-6.1-3.7-12.3-7.5-19.2-9.4s-14.7-1.5-20.6,2.5c-6.9,4.8-9.4,14.5-10.6,22.8"/>
                <path class="cls-4" d="M127.1,291.5s-.2,0-.6-.3c-.4-.2-1-.5-1.7-.9-1.5-.8-3.6-1.9-6.3-3.2-2.7-1.3-6-2.7-9.8-3.8-3.8-1-8.2-1.6-12.7-1s-8.6,2.3-11.5,5c-2.9,2.6-4.7,5.8-6,8.4-1.3,2.7-2.1,5-2.6,6.6-.3.8-.5,1.4-.6,1.8-.2.4-.2.6-.2.6,0,0,0-.2.2-.6,0-.5.3-1.1.6-1.9.5-1.6,1.2-3.9,2.5-6.7,1.2-2.7,3-5.9,6-8.6s7.2-4.5,11.8-5.1c4.6-.6,9,0,12.8,1.1s7.1,2.6,9.8,3.9c2.7,1.3,4.8,2.5,6.2,3.4.7.4,1.2.7,1.7,1,.4.2.6.4.6.4h-.2Z"/>
                <path class="cls-4" d="M118.4,296.1c0,.1-4.8-2.9-10.5-6.8s-10.3-7.1-10.3-7.2,4.8,2.9,10.5,6.8,10.3,7.1,10.3,7.2Z"/>
                <path class="cls-4" d="M113.4,281.8c0,.1-1.5.5-3.4.6s-3.5,0-3.5,0c0,0,1.6-.2,3.5-.4,1.9-.1,3.4-.3,3.5-.2h0Z"/>
                <path class="cls-4" d="M92.7,279.2s-.6,1.1-1.6,2.4-1.8,2.3-2,2.2.6-1.1,1.6-2.4,1.8-2.3,2-2.2Z"/>
                <path class="cls-4" d="M96.9,298.9s-.9-.4-2.3-1.2c-1.4-.8-3.2-2-5.2-3.5s-3.7-2.8-4.9-3.8-2-1.6-2-1.7.9.5,2.2,1.4c1.4,1,3.1,2.3,5,3.6,2,1.4,3.8,2.7,5.1,3.6s2.1,1.5,2.1,1.5h0Z"/>
              </g>
              <g>
                <path class="cls-2" d="M80.2,319.8c-3.4-.9-7.5,2.4-8.2,5.9s.6,7,2.1,10.3c3.4,7.1,8.1,13.7,14.2,18.6s13.9,8,21.7,8c-1.4-6.8.4-13.8-.4-20.7-.7-6-3.5-11.7-7.8-16-4.3-4.2-10-7-16-7.6-2.2-.2-4.7-.6-5.6,1.5"/>
                <path class="cls-4" d="M110,362.6s-.2,0-.5-.2-.8-.4-1.3-.9c-1.1-.8-2.3-2.4-3.4-4.5-.6-1.1-1.2-2.2-1.8-3.5-.6-1.3-1.2-2.6-1.8-4.1-.7-1.4-1.4-2.9-2.3-4.4s-1.9-2.9-3.1-4.3c-2.3-2.8-4.9-5.2-7.1-7.4-2.2-2.3-4.1-4.5-5.4-6.5s-2.2-3.8-2.6-5c-.2-.6-.4-1.1-.5-1.5v-.5s.2.7.7,1.9c.5,1.2,1.4,3,2.7,4.9,1.4,2,3.2,4.1,5.4,6.4,2.2,2.3,4.7,4.6,7.1,7.4,1.2,1.4,2.3,2.8,3.2,4.3.9,1.5,1.6,3,2.3,4.4.6,1.4,1.2,2.8,1.8,4.1.6,1.3,1.2,2.4,1.7,3.5,1,2.1,2.2,3.7,3.2,4.5,1,.9,1.7,1.2,1.7,1.2h0v.2h0Z"/>
                <path class="cls-4" d="M92.2,357s0-.9.3-2.3.7-3.4,1.3-5.5c.6-2.1,1.2-4,1.7-5.4s.9-2.2.9-2.1c0,0-.2.9-.6,2.2s-1,3.3-1.6,5.4-1.1,4-1.4,5.4-.6,2.2-.7,2.2h0Z"/>
                <path class="cls-4" d="M109.3,340.5s-.9-.2-2.4-.6-3.5-.9-5.8-1.4-4.3-.9-5.9-1.2c-1.5-.3-2.4-.5-2.4-.5,0,0,1,0,2.5.2s3.6.5,5.9,1.1c2.3.5,4.3,1.1,5.8,1.6s2.3.8,2.3.9h0Z"/>
                <path class="cls-4" d="M79.5,345.3s0-1,.4-2.7c.3-1.6.8-3.9,1.4-6.4s1.3-4.7,1.9-6.2.9-2.5,1-2.5c0,0-.2,1-.7,2.6-.4,1.6-1.1,3.8-1.7,6.3s-1.2,4.7-1.6,6.3-.6,2.6-.7,2.6h0Z"/>
                <path class="cls-4" d="M101.5,326c0,.1-4.3-.2-9.6-.8s-9.6-1.1-9.5-1.2,4.3.2,9.6.8c5.3.6,9.6,1.1,9.5,1.2Z"/>
              </g>
              <path class="cls-13" d="M98.3,378.1c0,.1-15.1.2-33.7.2s-33.7-.1-33.7-.2,15.1-.2,33.7-.2,33.7.1,33.7.2Z"/>
              <path class="cls-13" d="M87.8,397.5c0,.1-10.2.2-22.7.2s-22.7-.1-22.7-.2,10.2-.2,22.7-.2,22.7.1,22.7.2Z"/>
              <path class="cls-13" d="M87.4,400.3c0,.1-10,.2-22.3.2s-22.3-.1-22.3-.2,10-.2,22.3-.2,22.3.1,22.3.2Z"/>
              <path class="cls-13" d="M88.2,395.2c0,.1-10.5.2-23.5.2s-23.5-.1-23.5-.2,10.5-.2,23.5-.2,23.5.1,23.5.2Z"/>
            </g>
            <g>
              <rect class="cls-13" x="553.3" y="132.6" width="115.6" height="5.9"/>
              <g>
                <g>
                  <g>
                    <path class="cls-1" d="M647.7,72.3v-.2s-.2-.3-.3-.5c-.3-.4-.7-1.1-1.2-1.9-1.1-1.6-3-3.8-6-5.7-1.5-.9-3.3-1.7-5.4-2-2.1-.3-4.4,0-6.6.7-2.2.8-4.3,2.3-5.6,4.6-1.3,2.2-1.7,4.9-2.5,7.4-.4,1.3-.9,2.5-1.6,3.5s-1.7,1.9-2.7,2.6-2.1,1.4-3,2.2-1.8,1.7-2.4,2.7c-1.3,1.9-2.1,4.1-2.5,6.1s-.5,4-.3,5.8c.2,3.5,1,6.3,1.5,8.2.2.9.5,1.7.6,2.2.2.5.2.8.2.8,0,0,0-.3-.2-.8,0-.5-.3-1.3-.5-2.2-.4-1.9-1.1-4.7-1.3-8.2,0-1.7,0-3.7.4-5.7s1.2-4.1,2.5-5.9c.7-.9,1.5-1.8,2.4-2.6.9-.8,2-1.4,3-2.2,1-.8,2-1.6,2.8-2.7.7-1.1,1.2-2.4,1.6-3.7.8-2.6,1.2-5.2,2.4-7.3,1.2-2.2,3.3-3.6,5.4-4.4,2.1-.8,4.4-1,6.4-.7s3.8,1,5.3,1.9c3,1.8,4.9,4,6,5.5.6.8,1,1.4,1.3,1.8s.4.7.4.7h-.1Z"/>
                    <path class="cls-1" d="M614.6,81.6c.7-.7,1-.2,2,0,.9.2,1.8.7,2.5,1.3,3.2,2.6,4.7,7.2,3.5,11.2-3,.2-6-1.4-7.5-4s-1.6-5.9,0-8.5"/>
                    <path class="cls-1" d="M643.2,68.6c.3-.9.8-.6,1.8-.9s1.9-.2,2.8,0c4,.9,7.3,4.5,7.9,8.6-2.6,1.4-6,1.3-8.5-.3s-4-4.7-3.8-7.7"/>
                    <path class="cls-1" d="M608.3,99.3c1.9-2.2,4.8-3.4,7.7-3.3s5.7,1.7,7.4,4c-2.1,1.9-5,3.1-7.8,3.1s-5.7-1.3-7.9-3.2"/>
                    <path class="cls-1" d="M610.6,86.1c-2.9,0-5.8-1.2-7.7-3.4s-2.7-5.3-2.1-8.2c3-.7,6.4.4,8.5,2.7,2.1,2.3,2.7,5.8,1.7,8.8"/>
                    <path class="cls-1" d="M620.7,70.6c-2.7,1.1-5.9.8-8.4-.7s-4.3-4.1-4.7-7c2.6-1.7,6.2-1.8,8.9-.2,2.7,1.5,4.5,4.6,4.5,7.7"/>
                    <path class="cls-1" d="M624.1,65.6c2.7-1.1,5.9-.8,8.4.7s4.3,4.1,4.7,7c-2.6,1.7-6.2,1.8-8.9.2-2.7-1.5-4.5-4.6-4.5-7.7"/>
                    <path class="cls-1" d="M628.1,62.8c-2.8-.9-5-3.2-6-5.9s-.7-5.9.8-8.4c3.1.4,5.9,2.6,7,5.5s.5,6.4-1.5,8.8"/>
                    <path class="cls-1" d="M638.4,63.3c-1-2.7-.7-5.9.8-8.4,1.5-2.5,4.2-4.2,7.1-4.6,1.6,2.7,1.6,6.2,0,8.9s-4.7,4.4-7.8,4.3"/>
                  </g>
                  <polyline class="cls-4" points="596.8 133.1 591.3 98.6 633.4 99.1 629.3 132.6"/>
                  <g>
                    <g>
                      <g>
                        <path class="cls-2" d="M615,92.3c2.3,1.4,4.9,1.6,7,.6s3.5-3.3,3.8-6c-2.3-1.1-4.9-1.2-7-.4s-3.8,2.8-4.6,5.2"/>
                        <path class="cls-2" d="M634.2,99.7c2.3,1.4,4.9,1.6,7,.6,2.1-1.1,3.5-3.3,3.8-6-2.3-1.1-4.9-1.2-7-.4s-3.8,2.8-4.6,5.2"/>
                        <path class="cls-2" d="M623.4,83.1c1.1,2.4,3.2,4.1,5.5,4.3,2.3.3,4.8-.8,6.5-2.9-1.3-2.2-3.4-3.7-5.6-4.1-2.3-.4-4.7.2-6.7,1.8"/>
                        <path class="cls-2" d="M630.5,91.7c-2.7,0-5,1.1-6.3,3.1s-1.3,4.7,0,7.2c2.6-.2,4.8-1.4,6.2-3.3,1.4-1.8,1.8-4.3,1.3-6.8"/>
                        <path class="cls-2" d="M637.2,105.3c-1.2,2.4-1.1,5.1.2,7s3.7,3.2,6.4,3.2c.8-2.4.7-5-.4-7-1.1-2-3.1-3-5.6-3.6"/>
                      </g>
                      <path class="cls-2" d="M648.4,106.9s-.5-.6-1.7-1.1c-.6-.2-1.4-.4-2.3-.4s-2,0-3.1.2c-1.2,0-2.5.2-3.8-.3-1.4-.5-2.5-1.7-3.2-3.1s-1-3-1.4-4.7c-.3-1.6-.7-3.3-1.6-4.8-.9-1.5-2.3-2.6-3.6-3.6-1.3-1.1-2.5-2.2-3.4-3.5-1.8-2.6-2-5.6-1.7-7.9s1.3-4.1,2.1-5.1c.4-.5.7-.9,1-1.1.2-.2.4-.3.4-.3,0,0,0,.2-.3.4-.2.2-.5.6-.9,1.2-.7,1-1.6,2.8-1.9,5-.3,2.2,0,5.1,1.7,7.7.8,1.2,2.1,2.3,3.3,3.3,1.3,1.1,2.7,2.2,3.7,3.7s1.3,3.3,1.7,4.9c.3,1.6.6,3.2,1.3,4.6.7,1.3,1.7,2.4,2.9,2.9s2.5.4,3.7.4,2.2-.2,3.1,0,1.7.2,2.3.5c.6.2,1,.6,1.3.8,0,0,.2.2.3.3h.1Z"/>
                      <path class="cls-2" d="M648.4,106.9s-.5-.6-1.7-1.1c-.6-.2-1.4-.4-2.3-.4s-2,0-3.1.2c-1.2,0-2.5.2-3.8-.3-1.4-.5-2.5-1.7-3.2-3.1s-1-3-1.4-4.7c-.3-1.6-.7-3.3-1.6-4.8-.9-1.5-2.3-2.6-3.6-3.6-1.3-1.1-2.5-2.2-3.4-3.5-1.8-2.6-2-5.6-1.7-7.9s1.3-4.1,2.1-5.1c.4-.5.7-.9,1-1.1.2-.2.4-.3.4-.3,0,0,0,.2-.3.4-.2.2-.5.6-.9,1.2-.7,1-1.6,2.8-1.9,5-.3,2.2,0,5.1,1.7,7.7.8,1.2,2.1,2.3,3.3,3.3,1.3,1.1,2.7,2.2,3.7,3.7s1.3,3.3,1.7,4.9c.3,1.6.6,3.2,1.3,4.6.7,1.3,1.7,2.4,2.9,2.9s2.5.4,3.7.4,2.2-.2,3.1,0,1.7.2,2.3.5c.6.2,1,.6,1.3.8,0,0,.2.2.3.3h.1Z"/>
                    </g>
                    <g>
                      <g>
                        <path class="cls-6" d="M568,110.4c.2-3.5-1.5-7.1-4.4-9.2-2.8-2.1-6.8-2.6-10-1.3,2.4,5.6,8,9.7,14,10.4"/>
                        <path class="cls-6" d="M565.2,111.9c-2.1,2.3-1.9,5.9-.5,8.6,1.5,2.7,4,4.6,6.5,6.3.9-2.9.7-6-.3-8.8s-3.1-5.2-5.6-6.8"/>
                        <path class="cls-6" d="M575.2,101.3c.3,3.3,2,6.4,4.7,8.5,2.6,2,6,3,9.3,2.5-.8-3.3-2.1-6.7-4.7-8.9-2.6-2.2-6.6-3.1-9.4-1.2"/>
                        <path class="cls-6" d="M575.2,97.9c-.5-3-3.5-5.2-6.5-5.5s-6,1-8.5,2.9c1.8,2.1,4.5,3.4,7.2,3.7,2.8.3,5.6-.6,7.8-2.2"/>
                        <path class="cls-6" d="M559.5,123.5c-2.9,2.5-3.6,6.9-2.4,10.5,1.2,3.6,4,6.5,7.2,8.6,1.2-3.6,2-7.4,1.3-11.1-.6-3.7-2.9-7.3-6.3-8.8"/>
                        <path class="cls-6" d="M574.7,89.4c1.5-2.2,4.1-3.7,6.8-3.9,2.7-.2,5.5,1,7.2,3.1-1.2,2.6-3.9,4.5-6.8,4.6s-5.7-1.6-7-4.2"/>
                        <path class="cls-6" d="M578.2,80.8c-3.1.9-6.6.5-9.4-1.2-2.8-1.7-4.8-4.6-5.3-7.8,2.3-.2,4.7-.3,7,0,2.3.4,4.5,1.4,6.2,3s2.1,3.6,1.6,5.9"/>
                        <path class="cls-6" d="M584.9,78.5c-2.2-1.8-3.5-4.5-3.5-7.3s1.3-5.5,3.4-7.3c2.1,2.5,3.5,5.6,4.1,8.8.2,1.2.3,2.5,0,3.6-.4,1.2-1.3,2.2-2.5,2.4"/>
                      </g>
                      <g>
                        <g>
                          <g class="cls-9">
                            <path class="cls-6" d="M568,110.4c.2-3.5-1.5-7.1-4.4-9.2-2.8-2.1-6.8-2.6-10-1.3,2.4,5.6,8,9.7,14,10.4"/>
                          </g>
                          <g class="cls-9">
                            <path class="cls-6" d="M565.2,111.9c-2.1,2.3-1.9,5.9-.5,8.6,1.5,2.7,4,4.6,6.5,6.3.9-2.9.7-6-.3-8.8s-3.1-5.2-5.6-6.8"/>
                          </g>
                          <g class="cls-9">
                            <path class="cls-6" d="M575.2,101.3c.3,3.3,2,6.4,4.7,8.5,2.6,2,6,3,9.3,2.5-.8-3.3-2.1-6.7-4.7-8.9-2.6-2.2-6.6-3.1-9.4-1.2"/>
                          </g>
                          <g class="cls-9">
                            <path class="cls-6" d="M575.2,97.9c-.5-3-3.5-5.2-6.5-5.5s-6,1-8.5,2.9c1.8,2.1,4.5,3.4,7.2,3.7,2.8.3,5.6-.6,7.8-2.2"/>
                          </g>
                          <g class="cls-9">
                            <path class="cls-6" d="M559.5,123.5c-2.9,2.5-3.6,6.9-2.4,10.5,1.2,3.6,4,6.5,7.2,8.6,1.2-3.6,2-7.4,1.3-11.1-.6-3.7-2.9-7.3-6.3-8.8"/>
                          </g>
                          <g class="cls-9">
                            <path class="cls-6" d="M574.7,89.4c1.5-2.2,4.1-3.7,6.8-3.9,2.7-.2,5.5,1,7.2,3.1-1.2,2.6-3.9,4.5-6.8,4.6s-5.7-1.6-7-4.2"/>
                          </g>
                          <g class="cls-9">
                            <path class="cls-6" d="M578.2,80.8c-3.1.9-6.6.5-9.4-1.2-2.8-1.7-4.8-4.6-5.3-7.8,2.3-.2,4.7-.3,7,0,2.3.4,4.5,1.4,6.2,3s2.1,3.6,1.6,5.9"/>
                          </g>
                          <g class="cls-9">
                            <path class="cls-6" d="M584.9,78.5c-2.2-1.8-3.5-4.5-3.5-7.3s1.3-5.5,3.4-7.3c2.1,2.5,3.5,5.6,4.1,8.8.2,1.2.3,2.5,0,3.6-.4,1.2-1.3,2.2-2.5,2.4"/>
                          </g>
                        </g>
                        <g>
                          <path class="cls-6" d="M596.5,99.7v-3.6c0-2.3,0-5.7-1.6-9.6-.8-1.9-2-3.8-3.8-5.4s-4.3-2.7-7-2.6c-1.3,0-2.7.3-4,1-1.2.6-2.3,1.7-3,2.9-1.5,2.5-1.9,5.7-1.8,8.8,0,3.1.6,6.2.2,9.3-.2,1.5-.5,3-1.2,4.3-.6,1.3-1.5,2.5-2.6,3.4s-2.4,1.4-3.6,1.8c-1.2.5-2.4.9-3.4,1.5-2,1.3-3.5,3.1-4.5,4.9-.9,1.8-1.3,3.7-1.3,5.3s.3,3,.7,4.1c.8,2.2,1.7,3.2,1.6,3.2l-.2-.2c0-.1-.2-.3-.4-.6-.3-.5-.8-1.3-1.2-2.4s-.8-2.5-.8-4.2.3-3.6,1.3-5.5c.9-1.9,2.5-3.7,4.5-5,2.1-1.4,4.8-1.7,7-3.4,2.1-1.7,3.2-4.5,3.6-7.4.3-2.9,0-6-.2-9.2,0-3.2.2-6.4,1.8-9.1.8-1.3,1.9-2.4,3.2-3.1s2.8-1,4.2-1c2.8,0,5.4,1.1,7.3,2.7,1.9,1.6,3.1,3.7,3.9,5.6.8,1.9,1.2,3.8,1.3,5.5.2,1.7.2,3.1,0,4.2,0,1.2,0,2.1-.2,2.7v.9h0v.2h.2Z"/>
                          <g class="cls-9">
                            <path class="cls-6" d="M596.5,99.7v-3.6c0-2.3,0-5.7-1.6-9.6-.8-1.9-2-3.8-3.8-5.4s-4.3-2.7-7-2.6c-1.3,0-2.7.3-4,1-1.2.6-2.3,1.7-3,2.9-1.5,2.5-1.9,5.7-1.8,8.8,0,3.1.6,6.2.2,9.3-.2,1.5-.5,3-1.2,4.3-.6,1.3-1.5,2.5-2.6,3.4s-2.4,1.4-3.6,1.8c-1.2.5-2.4.9-3.4,1.5-2,1.3-3.5,3.1-4.5,4.9-.9,1.8-1.3,3.7-1.3,5.3s.3,3,.7,4.1c.8,2.2,1.7,3.2,1.6,3.2l-.2-.2c0-.1-.2-.3-.4-.6-.3-.5-.8-1.3-1.2-2.4s-.8-2.5-.8-4.2.3-3.6,1.3-5.5c.9-1.9,2.5-3.7,4.5-5,2.1-1.4,4.8-1.7,7-3.4,2.1-1.7,3.2-4.5,3.6-7.4.3-2.9,0-6-.2-9.2,0-3.2.2-6.4,1.8-9.1.8-1.3,1.9-2.4,3.2-3.1s2.8-1,4.2-1c2.8,0,5.4,1.1,7.3,2.7,1.9,1.6,3.1,3.7,3.9,5.6.8,1.9,1.2,3.8,1.3,5.5.2,1.7.2,3.1,0,4.2,0,1.2,0,2.1-.2,2.7v.9h0v.2h.2Z"/>
                          </g>
                        </g>
                      </g>
                    </g>
                    <path class="cls-2" d="M657.8,92.2s.6-1,.6-3.1-.2-2.3-.8-3.6c-.6-1.3-1.8-2.5-3.4-3.3-.8-.4-1.7-.7-2.7-.7s-2,0-3,.4c-2.1.5-4.1,1.7-6.5,2.2-1.2.2-2.5.3-3.8,0-1.3-.4-2.4-1.3-3.1-2.5-1.5-2.3-1.9-5.1-3.7-7.2-.9-1-2.1-1.8-3.3-2.2-1.3-.4-2.6-.5-3.9-.4-2.6.2-4.9,1.6-6.5,3.4s-2.6,3.9-3.2,5.9c-.6,2.1-.8,4.1-.7,5.9.2,3.7.8,6.6,1.1,8.6.2,1,.3,1.8.4,2.3v.8-.8c0-.6-.3-1.3-.5-2.3-.4-2-1-4.9-1.2-8.6,0-1.8,0-3.9.7-6,.6-2.1,1.6-4.3,3.3-6.1.8-.9,1.8-1.7,3-2.4,1.1-.6,2.4-1,3.8-1.2,1.3,0,2.7,0,4.1.4,1.3.4,2.6,1.2,3.5,2.3,1.9,2.2,2.3,5.1,3.7,7.3.7,1.1,1.7,1.9,2.8,2.3,1.2.4,2.4.3,3.6,0,2.3-.4,4.4-1.6,6.5-2.2,1-.3,2.1-.4,3.2-.3,1,0,2,.4,2.8.8,1.7.8,2.9,2.2,3.5,3.5.7,1.3.8,2.7.8,3.7s-.3,1.8-.5,2.3-.3.8-.3.8h-.3Z"/>
                    <path class="cls-2" d="M633.2,76.9c2.3,1.4,5.4,1.5,7.5.5s3.5-3.3,3.8-6c-2.3-1.1-4.9-1.2-7-.4s-3.8,2.8-4.6,5.2"/>
                    <path class="cls-2" d="M641.2,84.1c0,2.7,1.5,5.4,3.5,6.7,2,1.2,4.7,1.3,7.2,0-.3-2.6-1.5-4.8-3.3-6.1-1.9-1.3-4.3-1.8-6.8-1.3"/>
                    <path class="cls-2" d="M655,82.5c2.4,1.2,5.6.9,7.5-.3,2-1.3,3.2-3.7,3.2-6.4-2.4-.9-5-.7-7,.4s-3.5,3.2-4.1,5.7"/>
                    <path class="cls-2" d="M621.5,72.1c-2-1.7-3.4-4.8-3-7.1s2.2-4.4,4.6-5.4c1.8,1.9,2.6,4.3,2.4,6.6-.2,2.3-1.5,4.5-3.6,6"/>
                    <g>
                      <path class="cls-2" d="M567.5,62.2v-.2s.2-.3.3-.5c.3-.5.7-1.1,1.2-1.9,1.1-1.6,3-3.8,6-5.7,1.5-.9,3.3-1.7,5.4-2,2.1-.3,4.4,0,6.6.7,2.2.8,4.3,2.3,5.6,4.6,1.3,2.2,1.7,4.9,2.5,7.4.4,1.3.9,2.5,1.6,3.5s1.7,1.9,2.7,2.6,2.1,1.4,3,2.2,1.8,1.7,2.4,2.7c1.3,1.9,2.1,4.1,2.5,6.1s.5,4,.3,5.8c-.2,3.5-1,6.3-1.5,8.2-.2.9-.5,1.7-.6,2.2-.2.5-.2.8-.2.8,0,0,0-.3.2-.8,0-.5.3-1.3.5-2.2.4-1.9,1.1-4.7,1.3-8.2,0-1.7,0-3.7-.4-5.7s-1.2-4.1-2.5-5.9c-.7-.9-1.5-1.8-2.4-2.6-.9-.8-2-1.4-3-2.2-1-.8-2-1.6-2.8-2.7-.7-1.1-1.2-2.4-1.6-3.7-.8-2.6-1.2-5.2-2.4-7.3-1.2-2.2-3.3-3.6-5.4-4.4-2.1-.8-4.4-1-6.4-.7s-3.8,1-5.3,1.9c-3,1.8-4.9,4-6,5.5-.6.8-1,1.4-1.3,1.8s-.4.7-.4.7h.1Z"/>
                      <path class="cls-2" d="M600.5,71.4c-.7-.7-1-.2-2,0-.9.2-1.8.7-2.5,1.3-3.2,2.6-4.7,7.2-3.5,11.2,3,.2,6-1.4,7.5-4s1.6-5.9,0-8.5"/>
                      <path class="cls-2" d="M571.9,58.4c-.3-.9-.8-.6-1.8-.9-.9-.2-1.9-.2-2.8,0-4,.9-7.3,4.5-7.9,8.6,2.6,1.4,6,1.3,8.5-.3s4-4.7,3.8-7.7"/>
                      <path class="cls-2" d="M606.8,89.1c-1.9-2.2-4.8-3.4-7.7-3.3s-5.7,1.7-7.4,4c2.1,1.9,5,3.1,7.8,3.1s5.7-1.3,7.9-3.2"/>
                      <path class="cls-2" d="M604.5,75.9c2.9,0,5.8-1.2,7.7-3.4s2.7-5.3,2.1-8.2c-3-.7-6.4.4-8.5,2.7-2.1,2.3-2.7,5.8-1.7,8.8"/>
                      <path class="cls-2" d="M594.4,60.4c2.7,1,5.9.8,8.4-.7s4.3-4.1,4.7-7c-2.6-1.7-6.2-1.8-8.9-.2-2.7,1.5-4.5,4.6-4.5,7.7"/>
                      <path class="cls-2" d="M591,55.4c-2.7-1-5.9-.8-8.4.7s-4.3,4.1-4.7,7c2.6,1.7,6.2,1.8,8.9.2,2.7-1.5,4.5-4.6,4.5-7.7"/>
                      <path class="cls-2" d="M587,52.6c2.8-.9,5-3.2,6-5.9s.7-5.9-.8-8.4c-3.1.4-5.9,2.6-7,5.5s-.5,6.4,1.5,8.8"/>
                      <path class="cls-2" d="M576.7,53.1c1-2.7.7-5.9-.8-8.4s-4.2-4.2-7.1-4.6c-1.6,2.7-1.6,6.2,0,8.9s4.7,4.4,7.8,4.3"/>
                    </g>
                  </g>
                </g>
                <polygon class="cls-4" points="590.8 129.1 594 133.1 633.6 133.1 636.3 129.1 590.8 129.1"/>
                <path class="cls-13" d="M635.5,129c0,.1-9.7.2-21.8.2s-21.8-.1-21.8-.2,9.7-.2,21.8-.2,21.8.1,21.8.2Z"/>
                <path class="cls-13" d="M631,114l-.2.3c-.2.2-.4.5-.8.8-.7.7-1.9,1.6-3.5,2.5-1.6.8-3.8,1.5-6.2,1.6-1.2,0-2.5,0-3.8-.3s-2.6-.7-3.9-1.3c-2.6-1.1-4.9-2.3-7.1-3.1-2.2-.7-4.4-.9-6.2-.6s-3,1.1-3.8,1.8c-.8.7-1,1.2-1.1,1.1l.2-.4c.2-.2.4-.5.8-.9.7-.7,2-1.6,3.8-1.9,1.8-.4,4.1-.2,6.4.5,2.3.7,4.7,1.9,7.2,3,1.3.5,2.5,1,3.8,1.3,1.2.3,2.5.4,3.7.3,2.4,0,4.4-.7,6.1-1.5,3.3-1.6,4.7-3.4,4.7-3.3h-.1Z"/>
                <path class="cls-13" d="M631.4,110.9l-.3.3c-.2.2-.5.5-.9.8-.8.7-2,1.5-3.7,2.3-1.7.7-3.8,1.4-6.2,1.5-1.2,0-2.5,0-3.8-.3-1.3-.2-2.6-.6-3.9-1.1-2.6-.9-5-2-7.3-2.7s-4.5-.9-6.2-.6c-1.8.3-3.1.9-3.9,1.5-.8.6-1.2,1-1.2,1l.2-.3c.2-.2.5-.5.9-.8.8-.6,2.2-1.4,4-1.7,1.8-.3,4.1-.2,6.4.5,2.3.6,4.8,1.7,7.3,2.7,1.3.5,2.6.9,3.8,1.1,1.3.2,2.5.3,3.7.3,2.4,0,4.5-.7,6.1-1.4,3.3-1.4,4.9-3.2,4.9-3.1h.1Z"/>
              </g>
              <g>
                <rect class="cls-13" x="584.6" y="137" width="3.5" height="9.7"/>
                <rect class="cls-13" x="634.2" y="137" width="3.5" height="9.7"/>
              </g>
            </g>
          </g>
        </g>
      </g>
    </g>
  </g>
</svg>