<?xml version="1.0" encoding="UTF-8"?>
<svg xmlns="http://www.w3.org/2000/svg" version="1.1" viewBox="0 0 277.4 55">
  <defs>
    <style>
      .cls-1, .cls-2 {
        fill: #0097b2;
      }

      .cls-2 {
        display: none;
      }
    </style>
  </defs>
  <!-- Generator: Adobe Illustrator 28.6.0, SVG Export Plug-In . SVG Version: 1.2.0 Build 709)  -->
  <g>
    <g id="Calque_1">
      <g id="Calque_1-2" data-name="Calque_1">
        <g id="Calque_1-2">
          <path class="cls-1" d="M1.4,39.5c1.4,8.5,7.1,13,15.3,13s14.1-4.7,14.1-12.4-3-10.9-14.1-14.1c-9.7-2.8-14.3-5.9-14.3-13.6S7.8,0,16.5,0s14.1,6.8,14.9,12.6h-1.4c-1.2-6.9-5.6-11.3-13.6-11.3S3.8,5,3.8,12.2s3.7,9.7,13,12.3c12.8,3.6,15.4,8.2,15.4,15.5s-5.9,13.9-15.6,13.9S1.4,48.1,0,39.5h1.4Z"/>
          <path class="cls-1" d="M38.7,1.7v32.7c0,14.2,7.8,19,16,19s15.8-6.5,15.8-19V1.7h1.4v32.4c0,15.7-7.3,20.7-17.3,20.7s-17.3-4.7-17.3-19.7V1.7s1.4,0,1.4,0Z"/>
          <path class="cls-1" d="M79.5,1.4h16.1c8.4,0,14.5,5.1,14.5,14.1s-5.6,14.1-15.2,14.1h-14v24.3h-1.4V1.5h0ZM80.9,28.2h14.2c7.3,0,13.6-3.1,13.6-12.6s-4.5-12.8-13.1-12.8h-14.7s0,25.5,0,25.4Z"/>
          <path class="cls-1" d="M150.1,16.5h0c.8,4.1,2.1,9.9,3.5,16.1h9.1c-2.2-10.5-5.4-23.8-7.3-31.5h-9.6c-2.1,9.3-5.1,21.6-7.4,31.5h8.1c1.4-6.1,2.7-12,3.5-16.1h0Z"/>
          <path class="cls-1" d="M130.1,55h11.1c.8-3.3,1.8-7.3,2.8-11.6h-16.7l2.7,11.6h0Z"/>
          <path class="cls-1" d="M158.9,55h11.1l2.9-11.6h-16.6c1,4.1,1.9,8.1,2.6,11.6Z"/>
          <path class="cls-1" d="M128.9,1.1h-11.4l7.4,31.5h9.9c-1.2-6.8-3.1-16.7-5.8-31.5h0Z"/>
          <path class="cls-1" d="M183.5,1.1h-10.4c-1.3,6.4-4.5,20.1-6.6,31.5h9.2l7.9-31.5h0Z"/>
          <path class="cls-1" d="M198.6,9.6h0c1.2,4.8,3.4,11.9,6.8,23h10.5l-10.3-31.5h-13.5l-9.8,31.5h9.8c2.8-9.5,5.2-17.8,6.4-23,0,0,.1,0,.1,0Z"/>
          <polygon class="cls-1" points="212 55 223.3 55 219.5 43.5 208.2 43.5 212 55"/>
          <polygon class="cls-1" points="175.4 55 185.9 55 189.5 43.5 179 43.5 175.4 55"/>
          <rect class="cls-1" x="232" y="43.5" width="10.7" height="11.6"/>
          <path class="cls-1" d="M260.5,1.1h-11.2c-3.8,7.8-9.2,19.1-11.4,24.8-2.5-5.9-7.5-16.7-11.3-24.8h-12.1l16.3,31.4h13.2l16.6-31.5h-.1Z"/>
          <polyline class="cls-2" points="277.4 41.1 276.3 42.1 277.4 42.8 276.4 43.7 277.4 44.2"/>
        </g>
      </g>
    </g>
  </g>
</svg>