<?xml version="1.0" encoding="UTF-8"?>
<svg id="Calque_1" xmlns="http://www.w3.org/2000/svg" viewBox="0 0 277.37 55.04">
  <defs>
    <style>
      .cls-1 {
        fill: #1d1d1b;
      }

      .cls-2 {
        fill: #fff;
      }
    </style>
  </defs>
  <path class="cls-1" d="M1.44,39.51c1.44,8.48,7.06,13.02,15.29,13.02,8.64,0,14.12-4.69,14.12-12.43s-2.95-10.86-14.12-14.14c-9.73-2.83-14.33-5.88-14.33-13.62S7.81,0,16.52,0c10.56,0,14.12,6.85,14.88,12.65h-1.37c-1.23-6.92-5.55-11.31-13.57-11.31-7.48,0-12.62,3.65-12.62,10.86,0,6.77,3.7,9.67,13.02,12.28,12.82,3.57,15.42,8.19,15.42,15.48,0,8.56-5.9,13.91-15.63,13.91S1.37,48.14,0,39.51h1.44Z"/>
  <path class="cls-1" d="M38.65,1.7v32.74c0,14.21,7.75,19.05,16.04,19.05,10.35,0,15.77-6.55,15.77-19.05V1.7h1.37v32.44c0,15.7-7.34,20.69-17.27,20.69-8.57,0-17.28-4.69-17.28-19.72V1.7s1.37,0,1.37,0Z"/>
  <path class="cls-1" d="M79.53,1.43h16.11c8.36,0,14.46,5.06,14.46,14.06s-5.62,14.06-15.22,14.06h-13.98v24.26h-1.37s0-52.38,0-52.38ZM80.9,28.22h14.19c7.27,0,13.57-3.13,13.57-12.65,0-7.07-4.46-12.8-13.09-12.8h-14.67s0,25.45,0,25.45Z"/>
  <path class="cls-1" d="M150.1,16.46h.07c.79,4.14,2.1,9.94,3.54,16.14h9.11c-2.21-10.45-5.44-23.83-7.32-31.45h-9.65c-2.07,9.33-5.12,21.6-7.38,31.45h8.09c1.43-6.13,2.73-11.95,3.52-16.14h.02Z"/>
  <path class="cls-1" d="M130.06,55.04h11.11c.81-3.32,1.8-7.34,2.82-11.57h-16.65l2.71,11.57h0Z"/>
  <path class="cls-1" d="M158.91,55.04h11.12l2.89-11.57h-16.65c.96,4.1,1.88,8.07,2.64,11.57Z"/>
  <path class="cls-1" d="M128.87,1.15h-11.45l7.38,31.45h9.9c-1.18-6.82-3.06-16.68-5.83-31.45Z"/>
  <path class="cls-1" d="M183.47,1.15h-10.43c-1.33,6.39-4.49,20.06-6.64,31.45h9.22l7.85-31.45h0Z"/>
  <path class="cls-1" d="M198.56,9.56h.07c1.18,4.78,3.39,11.93,6.83,23.04h10.49l-10.26-31.45h-13.48l-9.84,31.45h9.79c2.77-9.53,5.2-17.81,6.4-23.04h0Z"/>
  <polygon class="cls-1" points="211.99 55.04 223.27 55.04 219.5 43.47 208.19 43.47 211.99 55.04"/>
  <polygon class="cls-1" points="175.35 55.04 185.9 55.04 189.5 43.47 178.97 43.47 175.35 55.04"/>
  <rect class="cls-1" x="231.99" y="43.47" width="10.74" height="11.57"/>
  <path class="cls-1" d="M260.48,1.15h-11.23c-3.75,7.81-9.19,19.15-11.35,24.8-2.48-5.85-7.46-16.67-11.29-24.8h-12.14l16.26,31.45h13.21l16.55-31.45h-.01Z"/>
  <polyline class="cls-2" points="277.37 41.12 276.33 42.1 277.37 42.8 276.41 43.74 277.36 44.23"/>
</svg>